<?xml version="1.0" encoding="utf-8" standalone="no"?>
<!DOCTYPE svg PUBLIC "-//W3C//DTD SVG 1.1//EN"
  "http://www.w3.org/Graphics/SVG/1.1/DTD/svg11.dtd">
<!-- Created with matplotlib (https://matplotlib.org/) -->
<svg height="1080pt" version="1.1" viewBox="0 0 720 1080" width="720pt" xmlns="http://www.w3.org/2000/svg" xmlns:xlink="http://www.w3.org/1999/xlink">
 <defs>
  <style type="text/css">
*{stroke-linecap:butt;stroke-linejoin:round;}
  </style>
 </defs>
 <g id="figure_1">
  <g id="patch_1">
   <path d="M 0 1080 
L 720 1080 
L 720 0 
L 0 0 
z
" style="fill:#ffffff;"/>
  </g>
  <g id="axes_1">
   <g id="patch_2">
    <path d="M 60.635 368.44 
L 693.54 368.44 
L 693.54 75.6 
L 60.635 75.6 
z
" style="fill:#ffffff;"/>
   </g>
   <g id="matplotlib.axis_1">
    <g id="xtick_1">
     <g id="line2d_1">
      <path clip-path="url(#p7698809570)" d="M 60.635 368.44 
L 60.635 75.6 
" style="fill:none;stroke:#777777;stroke-linecap:square;stroke-width:0.8;"/>
     </g>
     <g id="line2d_2">
      <defs>
       <path d="M 0 0 
L 0 3.5 
" id="mf1d2ccf567" style="stroke:#000000;stroke-width:0.8;"/>
      </defs>
      <g>
       <use style="stroke:#000000;stroke-width:0.8;" x="60.635" xlink:href="#mf1d2ccf567" y="368.44"/>
      </g>
     </g>
     <g id="text_1">
      <!-- 0 -->
      <defs>
       <path d="M 31.78125 66.40625 
Q 24.171875 66.40625 20.328125 58.90625 
Q 16.5 51.421875 16.5 36.375 
Q 16.5 21.390625 20.328125 13.890625 
Q 24.171875 6.390625 31.78125 6.390625 
Q 39.453125 6.390625 43.28125 13.890625 
Q 47.125 21.390625 47.125 36.375 
Q 47.125 51.421875 43.28125 58.90625 
Q 39.453125 66.40625 31.78125 66.40625 
z
M 31.78125 74.21875 
Q 44.046875 74.21875 50.515625 64.515625 
Q 56.984375 54.828125 56.984375 36.375 
Q 56.984375 17.96875 50.515625 8.265625 
Q 44.046875 -1.421875 31.78125 -1.421875 
Q 19.53125 -1.421875 13.0625 8.265625 
Q 6.59375 17.96875 6.59375 36.375 
Q 6.59375 54.828125 13.0625 64.515625 
Q 19.53125 74.21875 31.78125 74.21875 
z
" id="DejaVuSans-48"/>
      </defs>
      <g transform="translate(57.45375 383.038438)scale(0.1 -0.1)">
       <use xlink:href="#DejaVuSans-48"/>
      </g>
     </g>
    </g>
    <g id="xtick_2">
     <g id="line2d_3">
      <path clip-path="url(#p7698809570)" d="M 184.370093 368.44 
L 184.370093 75.6 
" style="fill:none;stroke:#777777;stroke-linecap:square;stroke-width:0.8;"/>
     </g>
     <g id="line2d_4">
      <g>
       <use style="stroke:#000000;stroke-width:0.8;" x="184.370093" xlink:href="#mf1d2ccf567" y="368.44"/>
      </g>
     </g>
     <g id="text_2">
      <!-- 200 -->
      <defs>
       <path d="M 19.1875 8.296875 
L 53.609375 8.296875 
L 53.609375 0 
L 7.328125 0 
L 7.328125 8.296875 
Q 12.9375 14.109375 22.625 23.890625 
Q 32.328125 33.6875 34.8125 36.53125 
Q 39.546875 41.84375 41.421875 45.53125 
Q 43.3125 49.21875 43.3125 52.78125 
Q 43.3125 58.59375 39.234375 62.25 
Q 35.15625 65.921875 28.609375 65.921875 
Q 23.96875 65.921875 18.8125 64.3125 
Q 13.671875 62.703125 7.8125 59.421875 
L 7.8125 69.390625 
Q 13.765625 71.78125 18.9375 73 
Q 24.125 74.21875 28.421875 74.21875 
Q 39.75 74.21875 46.484375 68.546875 
Q 53.21875 62.890625 53.21875 53.421875 
Q 53.21875 48.921875 51.53125 44.890625 
Q 49.859375 40.875 45.40625 35.40625 
Q 44.1875 33.984375 37.640625 27.21875 
Q 31.109375 20.453125 19.1875 8.296875 
z
" id="DejaVuSans-50"/>
      </defs>
      <g transform="translate(174.826343 383.038438)scale(0.1 -0.1)">
       <use xlink:href="#DejaVuSans-50"/>
       <use x="63.623047" xlink:href="#DejaVuSans-48"/>
       <use x="127.246094" xlink:href="#DejaVuSans-48"/>
      </g>
     </g>
    </g>
    <g id="xtick_3">
     <g id="line2d_5">
      <path clip-path="url(#p7698809570)" d="M 308.105186 368.44 
L 308.105186 75.6 
" style="fill:none;stroke:#777777;stroke-linecap:square;stroke-width:0.8;"/>
     </g>
     <g id="line2d_6">
      <g>
       <use style="stroke:#000000;stroke-width:0.8;" x="308.105186" xlink:href="#mf1d2ccf567" y="368.44"/>
      </g>
     </g>
     <g id="text_3">
      <!-- 400 -->
      <defs>
       <path d="M 37.796875 64.3125 
L 12.890625 25.390625 
L 37.796875 25.390625 
z
M 35.203125 72.90625 
L 47.609375 72.90625 
L 47.609375 25.390625 
L 58.015625 25.390625 
L 58.015625 17.1875 
L 47.609375 17.1875 
L 47.609375 0 
L 37.796875 0 
L 37.796875 17.1875 
L 4.890625 17.1875 
L 4.890625 26.703125 
z
" id="DejaVuSans-52"/>
      </defs>
      <g transform="translate(298.561436 383.038438)scale(0.1 -0.1)">
       <use xlink:href="#DejaVuSans-52"/>
       <use x="63.623047" xlink:href="#DejaVuSans-48"/>
       <use x="127.246094" xlink:href="#DejaVuSans-48"/>
      </g>
     </g>
    </g>
    <g id="xtick_4">
     <g id="line2d_7">
      <path clip-path="url(#p7698809570)" d="M 431.840279 368.44 
L 431.840279 75.6 
" style="fill:none;stroke:#777777;stroke-linecap:square;stroke-width:0.8;"/>
     </g>
     <g id="line2d_8">
      <g>
       <use style="stroke:#000000;stroke-width:0.8;" x="431.840279" xlink:href="#mf1d2ccf567" y="368.44"/>
      </g>
     </g>
     <g id="text_4">
      <!-- 600 -->
      <defs>
       <path d="M 33.015625 40.375 
Q 26.375 40.375 22.484375 35.828125 
Q 18.609375 31.296875 18.609375 23.390625 
Q 18.609375 15.53125 22.484375 10.953125 
Q 26.375 6.390625 33.015625 6.390625 
Q 39.65625 6.390625 43.53125 10.953125 
Q 47.40625 15.53125 47.40625 23.390625 
Q 47.40625 31.296875 43.53125 35.828125 
Q 39.65625 40.375 33.015625 40.375 
z
M 52.59375 71.296875 
L 52.59375 62.3125 
Q 48.875 64.0625 45.09375 64.984375 
Q 41.3125 65.921875 37.59375 65.921875 
Q 27.828125 65.921875 22.671875 59.328125 
Q 17.53125 52.734375 16.796875 39.40625 
Q 19.671875 43.65625 24.015625 45.921875 
Q 28.375 48.1875 33.59375 48.1875 
Q 44.578125 48.1875 50.953125 41.515625 
Q 57.328125 34.859375 57.328125 23.390625 
Q 57.328125 12.15625 50.6875 5.359375 
Q 44.046875 -1.421875 33.015625 -1.421875 
Q 20.359375 -1.421875 13.671875 8.265625 
Q 6.984375 17.96875 6.984375 36.375 
Q 6.984375 53.65625 15.1875 63.9375 
Q 23.390625 74.21875 37.203125 74.21875 
Q 40.921875 74.21875 44.703125 73.484375 
Q 48.484375 72.75 52.59375 71.296875 
z
" id="DejaVuSans-54"/>
      </defs>
      <g transform="translate(422.296529 383.038438)scale(0.1 -0.1)">
       <use xlink:href="#DejaVuSans-54"/>
       <use x="63.623047" xlink:href="#DejaVuSans-48"/>
       <use x="127.246094" xlink:href="#DejaVuSans-48"/>
      </g>
     </g>
    </g>
    <g id="xtick_5">
     <g id="line2d_9">
      <path clip-path="url(#p7698809570)" d="M 555.575371 368.44 
L 555.575371 75.6 
" style="fill:none;stroke:#777777;stroke-linecap:square;stroke-width:0.8;"/>
     </g>
     <g id="line2d_10">
      <g>
       <use style="stroke:#000000;stroke-width:0.8;" x="555.575371" xlink:href="#mf1d2ccf567" y="368.44"/>
      </g>
     </g>
     <g id="text_5">
      <!-- 800 -->
      <defs>
       <path d="M 31.78125 34.625 
Q 24.75 34.625 20.71875 30.859375 
Q 16.703125 27.09375 16.703125 20.515625 
Q 16.703125 13.921875 20.71875 10.15625 
Q 24.75 6.390625 31.78125 6.390625 
Q 38.8125 6.390625 42.859375 10.171875 
Q 46.921875 13.96875 46.921875 20.515625 
Q 46.921875 27.09375 42.890625 30.859375 
Q 38.875 34.625 31.78125 34.625 
z
M 21.921875 38.8125 
Q 15.578125 40.375 12.03125 44.71875 
Q 8.5 49.078125 8.5 55.328125 
Q 8.5 64.0625 14.71875 69.140625 
Q 20.953125 74.21875 31.78125 74.21875 
Q 42.671875 74.21875 48.875 69.140625 
Q 55.078125 64.0625 55.078125 55.328125 
Q 55.078125 49.078125 51.53125 44.71875 
Q 48 40.375 41.703125 38.8125 
Q 48.828125 37.15625 52.796875 32.3125 
Q 56.78125 27.484375 56.78125 20.515625 
Q 56.78125 9.90625 50.3125 4.234375 
Q 43.84375 -1.421875 31.78125 -1.421875 
Q 19.734375 -1.421875 13.25 4.234375 
Q 6.78125 9.90625 6.78125 20.515625 
Q 6.78125 27.484375 10.78125 32.3125 
Q 14.796875 37.15625 21.921875 38.8125 
z
M 18.3125 54.390625 
Q 18.3125 48.734375 21.84375 45.5625 
Q 25.390625 42.390625 31.78125 42.390625 
Q 38.140625 42.390625 41.71875 45.5625 
Q 45.3125 48.734375 45.3125 54.390625 
Q 45.3125 60.0625 41.71875 63.234375 
Q 38.140625 66.40625 31.78125 66.40625 
Q 25.390625 66.40625 21.84375 63.234375 
Q 18.3125 60.0625 18.3125 54.390625 
z
" id="DejaVuSans-56"/>
      </defs>
      <g transform="translate(546.031621 383.038438)scale(0.1 -0.1)">
       <use xlink:href="#DejaVuSans-56"/>
       <use x="63.623047" xlink:href="#DejaVuSans-48"/>
       <use x="127.246094" xlink:href="#DejaVuSans-48"/>
      </g>
     </g>
    </g>
    <g id="xtick_6">
     <g id="line2d_11">
      <path clip-path="url(#p7698809570)" d="M 679.310464 368.44 
L 679.310464 75.6 
" style="fill:none;stroke:#777777;stroke-linecap:square;stroke-width:0.8;"/>
     </g>
     <g id="line2d_12">
      <g>
       <use style="stroke:#000000;stroke-width:0.8;" x="679.310464" xlink:href="#mf1d2ccf567" y="368.44"/>
      </g>
     </g>
     <g id="text_6">
      <!-- 1000 -->
      <defs>
       <path d="M 12.40625 8.296875 
L 28.515625 8.296875 
L 28.515625 63.921875 
L 10.984375 60.40625 
L 10.984375 69.390625 
L 28.421875 72.90625 
L 38.28125 72.90625 
L 38.28125 8.296875 
L 54.390625 8.296875 
L 54.390625 0 
L 12.40625 0 
z
" id="DejaVuSans-49"/>
      </defs>
      <g transform="translate(666.585464 383.038438)scale(0.1 -0.1)">
       <use xlink:href="#DejaVuSans-49"/>
       <use x="63.623047" xlink:href="#DejaVuSans-48"/>
       <use x="127.246094" xlink:href="#DejaVuSans-48"/>
       <use x="190.869141" xlink:href="#DejaVuSans-48"/>
      </g>
     </g>
    </g>
    <g id="text_7">
     <!-- Samples -->
     <defs>
      <path d="M 53.515625 70.515625 
L 53.515625 60.890625 
Q 47.90625 63.578125 42.921875 64.890625 
Q 37.9375 66.21875 33.296875 66.21875 
Q 25.25 66.21875 20.875 63.09375 
Q 16.5 59.96875 16.5 54.203125 
Q 16.5 49.359375 19.40625 46.890625 
Q 22.3125 44.4375 30.421875 42.921875 
L 36.375 41.703125 
Q 47.40625 39.59375 52.65625 34.296875 
Q 57.90625 29 57.90625 20.125 
Q 57.90625 9.515625 50.796875 4.046875 
Q 43.703125 -1.421875 29.984375 -1.421875 
Q 24.8125 -1.421875 18.96875 -0.25 
Q 13.140625 0.921875 6.890625 3.21875 
L 6.890625 13.375 
Q 12.890625 10.015625 18.65625 8.296875 
Q 24.421875 6.59375 29.984375 6.59375 
Q 38.421875 6.59375 43.015625 9.90625 
Q 47.609375 13.234375 47.609375 19.390625 
Q 47.609375 24.75 44.3125 27.78125 
Q 41.015625 30.8125 33.5 32.328125 
L 27.484375 33.5 
Q 16.453125 35.6875 11.515625 40.375 
Q 6.59375 45.0625 6.59375 53.421875 
Q 6.59375 63.09375 13.40625 68.65625 
Q 20.21875 74.21875 32.171875 74.21875 
Q 37.3125 74.21875 42.625 73.28125 
Q 47.953125 72.359375 53.515625 70.515625 
z
" id="DejaVuSans-83"/>
      <path d="M 34.28125 27.484375 
Q 23.390625 27.484375 19.1875 25 
Q 14.984375 22.515625 14.984375 16.5 
Q 14.984375 11.71875 18.140625 8.90625 
Q 21.296875 6.109375 26.703125 6.109375 
Q 34.1875 6.109375 38.703125 11.40625 
Q 43.21875 16.703125 43.21875 25.484375 
L 43.21875 27.484375 
z
M 52.203125 31.203125 
L 52.203125 0 
L 43.21875 0 
L 43.21875 8.296875 
Q 40.140625 3.328125 35.546875 0.953125 
Q 30.953125 -1.421875 24.3125 -1.421875 
Q 15.921875 -1.421875 10.953125 3.296875 
Q 6 8.015625 6 15.921875 
Q 6 25.140625 12.171875 29.828125 
Q 18.359375 34.515625 30.609375 34.515625 
L 43.21875 34.515625 
L 43.21875 35.40625 
Q 43.21875 41.609375 39.140625 45 
Q 35.0625 48.390625 27.6875 48.390625 
Q 23 48.390625 18.546875 47.265625 
Q 14.109375 46.140625 10.015625 43.890625 
L 10.015625 52.203125 
Q 14.9375 54.109375 19.578125 55.046875 
Q 24.21875 56 28.609375 56 
Q 40.484375 56 46.34375 49.84375 
Q 52.203125 43.703125 52.203125 31.203125 
z
" id="DejaVuSans-97"/>
      <path d="M 52 44.1875 
Q 55.375 50.25 60.0625 53.125 
Q 64.75 56 71.09375 56 
Q 79.640625 56 84.28125 50.015625 
Q 88.921875 44.046875 88.921875 33.015625 
L 88.921875 0 
L 79.890625 0 
L 79.890625 32.71875 
Q 79.890625 40.578125 77.09375 44.375 
Q 74.3125 48.1875 68.609375 48.1875 
Q 61.625 48.1875 57.5625 43.546875 
Q 53.515625 38.921875 53.515625 30.90625 
L 53.515625 0 
L 44.484375 0 
L 44.484375 32.71875 
Q 44.484375 40.625 41.703125 44.40625 
Q 38.921875 48.1875 33.109375 48.1875 
Q 26.21875 48.1875 22.15625 43.53125 
Q 18.109375 38.875 18.109375 30.90625 
L 18.109375 0 
L 9.078125 0 
L 9.078125 54.6875 
L 18.109375 54.6875 
L 18.109375 46.1875 
Q 21.1875 51.21875 25.484375 53.609375 
Q 29.78125 56 35.6875 56 
Q 41.65625 56 45.828125 52.96875 
Q 50 49.953125 52 44.1875 
z
" id="DejaVuSans-109"/>
      <path d="M 18.109375 8.203125 
L 18.109375 -20.796875 
L 9.078125 -20.796875 
L 9.078125 54.6875 
L 18.109375 54.6875 
L 18.109375 46.390625 
Q 20.953125 51.265625 25.265625 53.625 
Q 29.59375 56 35.59375 56 
Q 45.5625 56 51.78125 48.09375 
Q 58.015625 40.1875 58.015625 27.296875 
Q 58.015625 14.40625 51.78125 6.484375 
Q 45.5625 -1.421875 35.59375 -1.421875 
Q 29.59375 -1.421875 25.265625 0.953125 
Q 20.953125 3.328125 18.109375 8.203125 
z
M 48.6875 27.296875 
Q 48.6875 37.203125 44.609375 42.84375 
Q 40.53125 48.484375 33.40625 48.484375 
Q 26.265625 48.484375 22.1875 42.84375 
Q 18.109375 37.203125 18.109375 27.296875 
Q 18.109375 17.390625 22.1875 11.75 
Q 26.265625 6.109375 33.40625 6.109375 
Q 40.53125 6.109375 44.609375 11.75 
Q 48.6875 17.390625 48.6875 27.296875 
z
" id="DejaVuSans-112"/>
      <path d="M 9.421875 75.984375 
L 18.40625 75.984375 
L 18.40625 0 
L 9.421875 0 
z
" id="DejaVuSans-108"/>
      <path d="M 56.203125 29.59375 
L 56.203125 25.203125 
L 14.890625 25.203125 
Q 15.484375 15.921875 20.484375 11.0625 
Q 25.484375 6.203125 34.421875 6.203125 
Q 39.59375 6.203125 44.453125 7.46875 
Q 49.3125 8.734375 54.109375 11.28125 
L 54.109375 2.78125 
Q 49.265625 0.734375 44.1875 -0.34375 
Q 39.109375 -1.421875 33.890625 -1.421875 
Q 20.796875 -1.421875 13.15625 6.1875 
Q 5.515625 13.8125 5.515625 26.8125 
Q 5.515625 40.234375 12.765625 48.109375 
Q 20.015625 56 32.328125 56 
Q 43.359375 56 49.78125 48.890625 
Q 56.203125 41.796875 56.203125 29.59375 
z
M 47.21875 32.234375 
Q 47.125 39.59375 43.09375 43.984375 
Q 39.0625 48.390625 32.421875 48.390625 
Q 24.90625 48.390625 20.390625 44.140625 
Q 15.875 39.890625 15.1875 32.171875 
z
" id="DejaVuSans-101"/>
      <path d="M 44.28125 53.078125 
L 44.28125 44.578125 
Q 40.484375 46.53125 36.375 47.5 
Q 32.28125 48.484375 27.875 48.484375 
Q 21.1875 48.484375 17.84375 46.4375 
Q 14.5 44.390625 14.5 40.28125 
Q 14.5 37.15625 16.890625 35.375 
Q 19.28125 33.59375 26.515625 31.984375 
L 29.59375 31.296875 
Q 39.15625 29.25 43.1875 25.515625 
Q 47.21875 21.78125 47.21875 15.09375 
Q 47.21875 7.46875 41.1875 3.015625 
Q 35.15625 -1.421875 24.609375 -1.421875 
Q 20.21875 -1.421875 15.453125 -0.5625 
Q 10.6875 0.296875 5.421875 2 
L 5.421875 11.28125 
Q 10.40625 8.6875 15.234375 7.390625 
Q 20.0625 6.109375 24.8125 6.109375 
Q 31.15625 6.109375 34.5625 8.28125 
Q 37.984375 10.453125 37.984375 14.40625 
Q 37.984375 18.0625 35.515625 20.015625 
Q 33.0625 21.96875 24.703125 23.78125 
L 21.578125 24.515625 
Q 13.234375 26.265625 9.515625 29.90625 
Q 5.8125 33.546875 5.8125 39.890625 
Q 5.8125 47.609375 11.28125 51.796875 
Q 16.75 56 26.8125 56 
Q 31.78125 56 36.171875 55.265625 
Q 40.578125 54.546875 44.28125 53.078125 
z
" id="DejaVuSans-115"/>
     </defs>
     <g transform="translate(355.734375 396.716563)scale(0.1 -0.1)">
      <use xlink:href="#DejaVuSans-83"/>
      <use x="63.476562" xlink:href="#DejaVuSans-97"/>
      <use x="124.755859" xlink:href="#DejaVuSans-109"/>
      <use x="222.167969" xlink:href="#DejaVuSans-112"/>
      <use x="285.644531" xlink:href="#DejaVuSans-108"/>
      <use x="313.427734" xlink:href="#DejaVuSans-101"/>
      <use x="374.951172" xlink:href="#DejaVuSans-115"/>
     </g>
    </g>
   </g>
   <g id="matplotlib.axis_2">
    <g id="ytick_1">
     <g id="line2d_13">
      <path clip-path="url(#p7698809570)" d="M 60.635 362.90616 
L 693.54 362.90616 
" style="fill:none;stroke:#777777;stroke-linecap:square;stroke-width:0.8;"/>
     </g>
     <g id="line2d_14">
      <defs>
       <path d="M 0 0 
L -3.5 0 
" id="m9696ac068d" style="stroke:#000000;stroke-width:0.8;"/>
      </defs>
      <g>
       <use style="stroke:#000000;stroke-width:0.8;" x="60.635" xlink:href="#m9696ac068d" y="362.90616"/>
      </g>
     </g>
     <g id="text_8">
      <!-- 0.000 -->
      <defs>
       <path d="M 10.6875 12.40625 
L 21 12.40625 
L 21 0 
L 10.6875 0 
z
" id="DejaVuSans-46"/>
      </defs>
      <g transform="translate(25.006875 366.705379)scale(0.1 -0.1)">
       <use xlink:href="#DejaVuSans-48"/>
       <use x="63.623047" xlink:href="#DejaVuSans-46"/>
       <use x="95.410156" xlink:href="#DejaVuSans-48"/>
       <use x="159.033203" xlink:href="#DejaVuSans-48"/>
       <use x="222.65625" xlink:href="#DejaVuSans-48"/>
      </g>
     </g>
    </g>
    <g id="ytick_2">
     <g id="line2d_15">
      <path clip-path="url(#p7698809570)" d="M 60.635 322.649214 
L 693.54 322.649214 
" style="fill:none;stroke:#777777;stroke-linecap:square;stroke-width:0.8;"/>
     </g>
     <g id="line2d_16">
      <g>
       <use style="stroke:#000000;stroke-width:0.8;" x="60.635" xlink:href="#m9696ac068d" y="322.649214"/>
      </g>
     </g>
     <g id="text_9">
      <!-- 0.005 -->
      <defs>
       <path d="M 10.796875 72.90625 
L 49.515625 72.90625 
L 49.515625 64.59375 
L 19.828125 64.59375 
L 19.828125 46.734375 
Q 21.96875 47.46875 24.109375 47.828125 
Q 26.265625 48.1875 28.421875 48.1875 
Q 40.625 48.1875 47.75 41.5 
Q 54.890625 34.8125 54.890625 23.390625 
Q 54.890625 11.625 47.5625 5.09375 
Q 40.234375 -1.421875 26.90625 -1.421875 
Q 22.3125 -1.421875 17.546875 -0.640625 
Q 12.796875 0.140625 7.71875 1.703125 
L 7.71875 11.625 
Q 12.109375 9.234375 16.796875 8.0625 
Q 21.484375 6.890625 26.703125 6.890625 
Q 35.15625 6.890625 40.078125 11.328125 
Q 45.015625 15.765625 45.015625 23.390625 
Q 45.015625 31 40.078125 35.4375 
Q 35.15625 39.890625 26.703125 39.890625 
Q 22.75 39.890625 18.8125 39.015625 
Q 14.890625 38.140625 10.796875 36.28125 
z
" id="DejaVuSans-53"/>
      </defs>
      <g transform="translate(25.006875 326.448433)scale(0.1 -0.1)">
       <use xlink:href="#DejaVuSans-48"/>
       <use x="63.623047" xlink:href="#DejaVuSans-46"/>
       <use x="95.410156" xlink:href="#DejaVuSans-48"/>
       <use x="159.033203" xlink:href="#DejaVuSans-48"/>
       <use x="222.65625" xlink:href="#DejaVuSans-53"/>
      </g>
     </g>
    </g>
    <g id="ytick_3">
     <g id="line2d_17">
      <path clip-path="url(#p7698809570)" d="M 60.635 282.392268 
L 693.54 282.392268 
" style="fill:none;stroke:#777777;stroke-linecap:square;stroke-width:0.8;"/>
     </g>
     <g id="line2d_18">
      <g>
       <use style="stroke:#000000;stroke-width:0.8;" x="60.635" xlink:href="#m9696ac068d" y="282.392268"/>
      </g>
     </g>
     <g id="text_10">
      <!-- 0.010 -->
      <g transform="translate(25.006875 286.191487)scale(0.1 -0.1)">
       <use xlink:href="#DejaVuSans-48"/>
       <use x="63.623047" xlink:href="#DejaVuSans-46"/>
       <use x="95.410156" xlink:href="#DejaVuSans-48"/>
       <use x="159.033203" xlink:href="#DejaVuSans-49"/>
       <use x="222.65625" xlink:href="#DejaVuSans-48"/>
      </g>
     </g>
    </g>
    <g id="ytick_4">
     <g id="line2d_19">
      <path clip-path="url(#p7698809570)" d="M 60.635 242.135322 
L 693.54 242.135322 
" style="fill:none;stroke:#777777;stroke-linecap:square;stroke-width:0.8;"/>
     </g>
     <g id="line2d_20">
      <g>
       <use style="stroke:#000000;stroke-width:0.8;" x="60.635" xlink:href="#m9696ac068d" y="242.135322"/>
      </g>
     </g>
     <g id="text_11">
      <!-- 0.015 -->
      <g transform="translate(25.006875 245.93454)scale(0.1 -0.1)">
       <use xlink:href="#DejaVuSans-48"/>
       <use x="63.623047" xlink:href="#DejaVuSans-46"/>
       <use x="95.410156" xlink:href="#DejaVuSans-48"/>
       <use x="159.033203" xlink:href="#DejaVuSans-49"/>
       <use x="222.65625" xlink:href="#DejaVuSans-53"/>
      </g>
     </g>
    </g>
    <g id="ytick_5">
     <g id="line2d_21">
      <path clip-path="url(#p7698809570)" d="M 60.635 201.878375 
L 693.54 201.878375 
" style="fill:none;stroke:#777777;stroke-linecap:square;stroke-width:0.8;"/>
     </g>
     <g id="line2d_22">
      <g>
       <use style="stroke:#000000;stroke-width:0.8;" x="60.635" xlink:href="#m9696ac068d" y="201.878375"/>
      </g>
     </g>
     <g id="text_12">
      <!-- 0.020 -->
      <g transform="translate(25.006875 205.677594)scale(0.1 -0.1)">
       <use xlink:href="#DejaVuSans-48"/>
       <use x="63.623047" xlink:href="#DejaVuSans-46"/>
       <use x="95.410156" xlink:href="#DejaVuSans-48"/>
       <use x="159.033203" xlink:href="#DejaVuSans-50"/>
       <use x="222.65625" xlink:href="#DejaVuSans-48"/>
      </g>
     </g>
    </g>
    <g id="ytick_6">
     <g id="line2d_23">
      <path clip-path="url(#p7698809570)" d="M 60.635 161.621429 
L 693.54 161.621429 
" style="fill:none;stroke:#777777;stroke-linecap:square;stroke-width:0.8;"/>
     </g>
     <g id="line2d_24">
      <g>
       <use style="stroke:#000000;stroke-width:0.8;" x="60.635" xlink:href="#m9696ac068d" y="161.621429"/>
      </g>
     </g>
     <g id="text_13">
      <!-- 0.025 -->
      <g transform="translate(25.006875 165.420648)scale(0.1 -0.1)">
       <use xlink:href="#DejaVuSans-48"/>
       <use x="63.623047" xlink:href="#DejaVuSans-46"/>
       <use x="95.410156" xlink:href="#DejaVuSans-48"/>
       <use x="159.033203" xlink:href="#DejaVuSans-50"/>
       <use x="222.65625" xlink:href="#DejaVuSans-53"/>
      </g>
     </g>
    </g>
    <g id="ytick_7">
     <g id="line2d_25">
      <path clip-path="url(#p7698809570)" d="M 60.635 121.364483 
L 693.54 121.364483 
" style="fill:none;stroke:#777777;stroke-linecap:square;stroke-width:0.8;"/>
     </g>
     <g id="line2d_26">
      <g>
       <use style="stroke:#000000;stroke-width:0.8;" x="60.635" xlink:href="#m9696ac068d" y="121.364483"/>
      </g>
     </g>
     <g id="text_14">
      <!-- 0.030 -->
      <defs>
       <path d="M 40.578125 39.3125 
Q 47.65625 37.796875 51.625 33 
Q 55.609375 28.21875 55.609375 21.1875 
Q 55.609375 10.40625 48.1875 4.484375 
Q 40.765625 -1.421875 27.09375 -1.421875 
Q 22.515625 -1.421875 17.65625 -0.515625 
Q 12.796875 0.390625 7.625 2.203125 
L 7.625 11.71875 
Q 11.71875 9.328125 16.59375 8.109375 
Q 21.484375 6.890625 26.8125 6.890625 
Q 36.078125 6.890625 40.9375 10.546875 
Q 45.796875 14.203125 45.796875 21.1875 
Q 45.796875 27.640625 41.28125 31.265625 
Q 36.765625 34.90625 28.71875 34.90625 
L 20.21875 34.90625 
L 20.21875 43.015625 
L 29.109375 43.015625 
Q 36.375 43.015625 40.234375 45.921875 
Q 44.09375 48.828125 44.09375 54.296875 
Q 44.09375 59.90625 40.109375 62.90625 
Q 36.140625 65.921875 28.71875 65.921875 
Q 24.65625 65.921875 20.015625 65.03125 
Q 15.375 64.15625 9.8125 62.3125 
L 9.8125 71.09375 
Q 15.4375 72.65625 20.34375 73.4375 
Q 25.25 74.21875 29.59375 74.21875 
Q 40.828125 74.21875 47.359375 69.109375 
Q 53.90625 64.015625 53.90625 55.328125 
Q 53.90625 49.265625 50.4375 45.09375 
Q 46.96875 40.921875 40.578125 39.3125 
z
" id="DejaVuSans-51"/>
      </defs>
      <g transform="translate(25.006875 125.163702)scale(0.1 -0.1)">
       <use xlink:href="#DejaVuSans-48"/>
       <use x="63.623047" xlink:href="#DejaVuSans-46"/>
       <use x="95.410156" xlink:href="#DejaVuSans-48"/>
       <use x="159.033203" xlink:href="#DejaVuSans-51"/>
       <use x="222.65625" xlink:href="#DejaVuSans-48"/>
      </g>
     </g>
    </g>
    <g id="ytick_8">
     <g id="line2d_27">
      <path clip-path="url(#p7698809570)" d="M 60.635 81.107537 
L 693.54 81.107537 
" style="fill:none;stroke:#777777;stroke-linecap:square;stroke-width:0.8;"/>
     </g>
     <g id="line2d_28">
      <g>
       <use style="stroke:#000000;stroke-width:0.8;" x="60.635" xlink:href="#m9696ac068d" y="81.107537"/>
      </g>
     </g>
     <g id="text_15">
      <!-- 0.035 -->
      <g transform="translate(25.006875 84.906755)scale(0.1 -0.1)">
       <use xlink:href="#DejaVuSans-48"/>
       <use x="63.623047" xlink:href="#DejaVuSans-46"/>
       <use x="95.410156" xlink:href="#DejaVuSans-48"/>
       <use x="159.033203" xlink:href="#DejaVuSans-51"/>
       <use x="222.65625" xlink:href="#DejaVuSans-53"/>
      </g>
     </g>
    </g>
    <g id="text_16">
     <!-- Amplitude -->
     <defs>
      <path d="M 34.1875 63.1875 
L 20.796875 26.90625 
L 47.609375 26.90625 
z
M 28.609375 72.90625 
L 39.796875 72.90625 
L 67.578125 0 
L 57.328125 0 
L 50.6875 18.703125 
L 17.828125 18.703125 
L 11.1875 0 
L 0.78125 0 
z
" id="DejaVuSans-65"/>
      <path d="M 9.421875 54.6875 
L 18.40625 54.6875 
L 18.40625 0 
L 9.421875 0 
z
M 9.421875 75.984375 
L 18.40625 75.984375 
L 18.40625 64.59375 
L 9.421875 64.59375 
z
" id="DejaVuSans-105"/>
      <path d="M 18.3125 70.21875 
L 18.3125 54.6875 
L 36.8125 54.6875 
L 36.8125 47.703125 
L 18.3125 47.703125 
L 18.3125 18.015625 
Q 18.3125 11.328125 20.140625 9.421875 
Q 21.96875 7.515625 27.59375 7.515625 
L 36.8125 7.515625 
L 36.8125 0 
L 27.59375 0 
Q 17.1875 0 13.234375 3.875 
Q 9.28125 7.765625 9.28125 18.015625 
L 9.28125 47.703125 
L 2.6875 47.703125 
L 2.6875 54.6875 
L 9.28125 54.6875 
L 9.28125 70.21875 
z
" id="DejaVuSans-116"/>
      <path d="M 8.5 21.578125 
L 8.5 54.6875 
L 17.484375 54.6875 
L 17.484375 21.921875 
Q 17.484375 14.15625 20.5 10.265625 
Q 23.53125 6.390625 29.59375 6.390625 
Q 36.859375 6.390625 41.078125 11.03125 
Q 45.3125 15.671875 45.3125 23.6875 
L 45.3125 54.6875 
L 54.296875 54.6875 
L 54.296875 0 
L 45.3125 0 
L 45.3125 8.40625 
Q 42.046875 3.421875 37.71875 1 
Q 33.40625 -1.421875 27.6875 -1.421875 
Q 18.265625 -1.421875 13.375 4.4375 
Q 8.5 10.296875 8.5 21.578125 
z
M 31.109375 56 
z
" id="DejaVuSans-117"/>
      <path d="M 45.40625 46.390625 
L 45.40625 75.984375 
L 54.390625 75.984375 
L 54.390625 0 
L 45.40625 0 
L 45.40625 8.203125 
Q 42.578125 3.328125 38.25 0.953125 
Q 33.9375 -1.421875 27.875 -1.421875 
Q 17.96875 -1.421875 11.734375 6.484375 
Q 5.515625 14.40625 5.515625 27.296875 
Q 5.515625 40.1875 11.734375 48.09375 
Q 17.96875 56 27.875 56 
Q 33.9375 56 38.25 53.625 
Q 42.578125 51.265625 45.40625 46.390625 
z
M 14.796875 27.296875 
Q 14.796875 17.390625 18.875 11.75 
Q 22.953125 6.109375 30.078125 6.109375 
Q 37.203125 6.109375 41.296875 11.75 
Q 45.40625 17.390625 45.40625 27.296875 
Q 45.40625 37.203125 41.296875 42.84375 
Q 37.203125 48.484375 30.078125 48.484375 
Q 22.953125 48.484375 18.875 42.84375 
Q 14.796875 37.203125 14.796875 27.296875 
z
" id="DejaVuSans-100"/>
     </defs>
     <g transform="translate(18.927187 247.642656)rotate(-90)scale(0.1 -0.1)">
      <use xlink:href="#DejaVuSans-65"/>
      <use x="68.408203" xlink:href="#DejaVuSans-109"/>
      <use x="165.820312" xlink:href="#DejaVuSans-112"/>
      <use x="229.296875" xlink:href="#DejaVuSans-108"/>
      <use x="257.080078" xlink:href="#DejaVuSans-105"/>
      <use x="284.863281" xlink:href="#DejaVuSans-116"/>
      <use x="324.072266" xlink:href="#DejaVuSans-117"/>
      <use x="387.451172" xlink:href="#DejaVuSans-100"/>
      <use x="450.927734" xlink:href="#DejaVuSans-101"/>
     </g>
    </g>
   </g>
   <g id="line2d_29">
    <path clip-path="url(#p7698809570)" d="M 60.635 362.905684 
L 62.491026 362.789343 
L 63.109702 362.567638 
L 63.728377 362.097495 
L 64.347053 361.233295 
L 64.965728 359.806623 
L 65.584404 357.638921 
L 66.203079 354.55479 
L 66.821755 350.394537 
L 67.44043 345.025059 
L 68.059106 338.3485 
L 69.296457 320.893372 
L 70.533807 298.122696 
L 71.771158 270.837506 
L 74.24586 208.707998 
L 76.101887 162.96907 
L 77.339238 136.46315 
L 78.576588 114.992037 
L 79.195264 106.514001 
L 79.813939 99.679575 
L 80.432615 94.554544 
L 81.05129 91.174298 
L 81.669966 89.544762 
L 82.288641 89.643915 
L 82.907317 91.42382 
L 83.525992 94.813058 
L 84.144668 99.719475 
L 84.763343 106.033148 
L 86.000694 122.372395 
L 87.238045 142.714529 
L 89.094071 178.099602 
L 93.4248 263.858976 
L 95.280826 295.055093 
L 96.518177 312.732111 
L 97.755528 327.700075 
L 98.992879 339.953676 
L 100.23023 349.614205 
L 101.467581 356.898829 
L 102.704932 362.09004 
L 103.323607 363.9997 
L 103.942283 365.507256 
L 104.560958 366.654326 
L 105.179633 367.481968 
L 105.798309 368.030155 
L 106.416984 368.337323 
L 107.03566 368.44 
L 107.654335 368.372503 
L 108.891686 367.85189 
L 110.129037 366.998665 
L 114.459765 363.604018 
L 115.697116 362.885073 
L 116.934467 362.345178 
L 118.171818 361.983213 
L 120.027845 361.73721 
L 121.883871 361.767948 
L 124.358573 362.064859 
L 130.545327 362.937765 
L 133.638705 363.121948 
L 137.969433 363.113699 
L 151.580293 362.862362 
L 221.490621 362.906156 
L 693.54 362.90616 
L 693.54 362.90616 
" style="fill:none;stroke:#0072bd;stroke-linecap:square;stroke-width:1.4;"/>
   </g>
   <g id="patch_3">
    <path d="M 60.635 368.44 
L 60.635 75.6 
" style="fill:none;stroke:#000000;stroke-linecap:square;stroke-linejoin:miter;stroke-width:0.8;"/>
   </g>
   <g id="patch_4">
    <path d="M 693.54 368.44 
L 693.54 75.6 
" style="fill:none;stroke:#000000;stroke-linecap:square;stroke-linejoin:miter;stroke-width:0.8;"/>
   </g>
   <g id="patch_5">
    <path d="M 60.635 368.44 
L 693.54 368.44 
" style="fill:none;stroke:#000000;stroke-linecap:square;stroke-linejoin:miter;stroke-width:0.8;"/>
   </g>
   <g id="patch_6">
    <path d="M 60.635 75.6 
L 693.54 75.6 
" style="fill:none;stroke:#000000;stroke-linecap:square;stroke-linejoin:miter;stroke-width:0.8;"/>
   </g>
  </g>
  <g id="axes_2">
   <g id="patch_7">
    <path d="M 60.635 703.24 
L 693.54 703.24 
L 693.54 410.4 
L 60.635 410.4 
z
" style="fill:#ffffff;"/>
   </g>
   <g id="matplotlib.axis_3">
    <g id="xtick_7">
     <g id="line2d_30">
      <path clip-path="url(#p132af09dac)" d="M 60.635 703.24 
L 60.635 410.4 
" style="fill:none;stroke:#777777;stroke-linecap:square;stroke-width:0.8;"/>
     </g>
     <g id="line2d_31">
      <g>
       <use style="stroke:#000000;stroke-width:0.8;" x="60.635" xlink:href="#mf1d2ccf567" y="703.24"/>
      </g>
     </g>
     <g id="text_17">
      <!-- 10Hz -->
      <defs>
       <path d="M 9.8125 72.90625 
L 19.671875 72.90625 
L 19.671875 43.015625 
L 55.515625 43.015625 
L 55.515625 72.90625 
L 65.375 72.90625 
L 65.375 0 
L 55.515625 0 
L 55.515625 34.71875 
L 19.671875 34.71875 
L 19.671875 0 
L 9.8125 0 
z
" id="DejaVuSans-72"/>
       <path d="M 5.515625 54.6875 
L 48.1875 54.6875 
L 48.1875 46.484375 
L 14.40625 7.171875 
L 48.1875 7.171875 
L 48.1875 0 
L 4.296875 0 
L 4.296875 8.203125 
L 38.09375 47.515625 
L 5.515625 47.515625 
z
" id="DejaVuSans-122"/>
      </defs>
      <g transform="translate(47.888125 717.838438)scale(0.1 -0.1)">
       <use xlink:href="#DejaVuSans-49"/>
       <use x="63.623047" xlink:href="#DejaVuSans-48"/>
       <use x="127.246094" xlink:href="#DejaVuSans-72"/>
       <use x="202.441406" xlink:href="#DejaVuSans-122"/>
      </g>
     </g>
    </g>
    <g id="xtick_8">
     <g id="line2d_32">
      <path clip-path="url(#p132af09dac)" d="M 60.635 703.24 
L 60.635 410.4 
" style="fill:none;stroke:#777777;stroke-linecap:square;stroke-width:0.8;"/>
     </g>
     <g id="line2d_33">
      <g>
       <use style="stroke:#000000;stroke-width:0.8;" x="60.635" xlink:href="#mf1d2ccf567" y="703.24"/>
      </g>
     </g>
    </g>
    <g id="xtick_9">
     <g id="line2d_34">
      <path clip-path="url(#p132af09dac)" d="M 116.999344 703.24 
L 116.999344 410.4 
" style="fill:none;stroke:#777777;stroke-linecap:square;stroke-width:0.8;"/>
     </g>
     <g id="line2d_35">
      <g>
       <use style="stroke:#000000;stroke-width:0.8;" x="116.999344" xlink:href="#mf1d2ccf567" y="703.24"/>
      </g>
     </g>
    </g>
    <g id="xtick_10">
     <g id="line2d_36">
      <path clip-path="url(#p132af09dac)" d="M 149.970372 703.24 
L 149.970372 410.4 
" style="fill:none;stroke:#777777;stroke-linecap:square;stroke-width:0.8;"/>
     </g>
     <g id="line2d_37">
      <g>
       <use style="stroke:#000000;stroke-width:0.8;" x="149.970372" xlink:href="#mf1d2ccf567" y="703.24"/>
      </g>
     </g>
    </g>
    <g id="xtick_11">
     <g id="line2d_38">
      <path clip-path="url(#p132af09dac)" d="M 173.363688 703.24 
L 173.363688 410.4 
" style="fill:none;stroke:#777777;stroke-linecap:square;stroke-width:0.8;"/>
     </g>
     <g id="line2d_39">
      <g>
       <use style="stroke:#000000;stroke-width:0.8;" x="173.363688" xlink:href="#mf1d2ccf567" y="703.24"/>
      </g>
     </g>
    </g>
    <g id="xtick_12">
     <g id="line2d_40">
      <path clip-path="url(#p132af09dac)" d="M 191.508954 703.24 
L 191.508954 410.4 
" style="fill:none;stroke:#777777;stroke-linecap:square;stroke-width:0.8;"/>
     </g>
     <g id="line2d_41">
      <g>
       <use style="stroke:#000000;stroke-width:0.8;" x="191.508954" xlink:href="#mf1d2ccf567" y="703.24"/>
      </g>
     </g>
    </g>
    <g id="xtick_13">
     <g id="line2d_42">
      <path clip-path="url(#p132af09dac)" d="M 206.334716 703.24 
L 206.334716 410.4 
" style="fill:none;stroke:#777777;stroke-linecap:square;stroke-width:0.8;"/>
     </g>
     <g id="line2d_43">
      <g>
       <use style="stroke:#000000;stroke-width:0.8;" x="206.334716" xlink:href="#mf1d2ccf567" y="703.24"/>
      </g>
     </g>
    </g>
    <g id="xtick_14">
     <g id="line2d_44">
      <path clip-path="url(#p132af09dac)" d="M 218.869719 703.24 
L 218.869719 410.4 
" style="fill:none;stroke:#777777;stroke-linecap:square;stroke-width:0.8;"/>
     </g>
     <g id="line2d_45">
      <g>
       <use style="stroke:#000000;stroke-width:0.8;" x="218.869719" xlink:href="#mf1d2ccf567" y="703.24"/>
      </g>
     </g>
    </g>
    <g id="xtick_15">
     <g id="line2d_46">
      <path clip-path="url(#p132af09dac)" d="M 229.728032 703.24 
L 229.728032 410.4 
" style="fill:none;stroke:#777777;stroke-linecap:square;stroke-width:0.8;"/>
     </g>
     <g id="line2d_47">
      <g>
       <use style="stroke:#000000;stroke-width:0.8;" x="229.728032" xlink:href="#mf1d2ccf567" y="703.24"/>
      </g>
     </g>
    </g>
    <g id="xtick_16">
     <g id="line2d_48">
      <path clip-path="url(#p132af09dac)" d="M 239.305743 703.24 
L 239.305743 410.4 
" style="fill:none;stroke:#777777;stroke-linecap:square;stroke-width:0.8;"/>
     </g>
     <g id="line2d_49">
      <g>
       <use style="stroke:#000000;stroke-width:0.8;" x="239.305743" xlink:href="#mf1d2ccf567" y="703.24"/>
      </g>
     </g>
    </g>
    <g id="xtick_17">
     <g id="line2d_50">
      <path clip-path="url(#p132af09dac)" d="M 247.873298 703.24 
L 247.873298 410.4 
" style="fill:none;stroke:#777777;stroke-linecap:square;stroke-width:0.8;"/>
     </g>
     <g id="line2d_51">
      <g>
       <use style="stroke:#000000;stroke-width:0.8;" x="247.873298" xlink:href="#mf1d2ccf567" y="703.24"/>
      </g>
     </g>
     <g id="text_18">
      <!-- 100Hz -->
      <g transform="translate(231.945173 717.838438)scale(0.1 -0.1)">
       <use xlink:href="#DejaVuSans-49"/>
       <use x="63.623047" xlink:href="#DejaVuSans-48"/>
       <use x="127.246094" xlink:href="#DejaVuSans-48"/>
       <use x="190.869141" xlink:href="#DejaVuSans-72"/>
       <use x="266.064453" xlink:href="#DejaVuSans-122"/>
      </g>
     </g>
    </g>
    <g id="xtick_18">
     <g id="line2d_52">
      <path clip-path="url(#p132af09dac)" d="M 247.873298 703.24 
L 247.873298 410.4 
" style="fill:none;stroke:#777777;stroke-linecap:square;stroke-width:0.8;"/>
     </g>
     <g id="line2d_53">
      <g>
       <use style="stroke:#000000;stroke-width:0.8;" x="247.873298" xlink:href="#mf1d2ccf567" y="703.24"/>
      </g>
     </g>
    </g>
    <g id="xtick_19">
     <g id="line2d_54">
      <path clip-path="url(#p132af09dac)" d="M 304.237642 703.24 
L 304.237642 410.4 
" style="fill:none;stroke:#777777;stroke-linecap:square;stroke-width:0.8;"/>
     </g>
     <g id="line2d_55">
      <g>
       <use style="stroke:#000000;stroke-width:0.8;" x="304.237642" xlink:href="#mf1d2ccf567" y="703.24"/>
      </g>
     </g>
    </g>
    <g id="xtick_20">
     <g id="line2d_56">
      <path clip-path="url(#p132af09dac)" d="M 337.20867 703.24 
L 337.20867 410.4 
" style="fill:none;stroke:#777777;stroke-linecap:square;stroke-width:0.8;"/>
     </g>
     <g id="line2d_57">
      <g>
       <use style="stroke:#000000;stroke-width:0.8;" x="337.20867" xlink:href="#mf1d2ccf567" y="703.24"/>
      </g>
     </g>
    </g>
    <g id="xtick_21">
     <g id="line2d_58">
      <path clip-path="url(#p132af09dac)" d="M 360.601986 703.24 
L 360.601986 410.4 
" style="fill:none;stroke:#777777;stroke-linecap:square;stroke-width:0.8;"/>
     </g>
     <g id="line2d_59">
      <g>
       <use style="stroke:#000000;stroke-width:0.8;" x="360.601986" xlink:href="#mf1d2ccf567" y="703.24"/>
      </g>
     </g>
    </g>
    <g id="xtick_22">
     <g id="line2d_60">
      <path clip-path="url(#p132af09dac)" d="M 378.747252 703.24 
L 378.747252 410.4 
" style="fill:none;stroke:#777777;stroke-linecap:square;stroke-width:0.8;"/>
     </g>
     <g id="line2d_61">
      <g>
       <use style="stroke:#000000;stroke-width:0.8;" x="378.747252" xlink:href="#mf1d2ccf567" y="703.24"/>
      </g>
     </g>
    </g>
    <g id="xtick_23">
     <g id="line2d_62">
      <path clip-path="url(#p132af09dac)" d="M 393.573014 703.24 
L 393.573014 410.4 
" style="fill:none;stroke:#777777;stroke-linecap:square;stroke-width:0.8;"/>
     </g>
     <g id="line2d_63">
      <g>
       <use style="stroke:#000000;stroke-width:0.8;" x="393.573014" xlink:href="#mf1d2ccf567" y="703.24"/>
      </g>
     </g>
    </g>
    <g id="xtick_24">
     <g id="line2d_64">
      <path clip-path="url(#p132af09dac)" d="M 406.108017 703.24 
L 406.108017 410.4 
" style="fill:none;stroke:#777777;stroke-linecap:square;stroke-width:0.8;"/>
     </g>
     <g id="line2d_65">
      <g>
       <use style="stroke:#000000;stroke-width:0.8;" x="406.108017" xlink:href="#mf1d2ccf567" y="703.24"/>
      </g>
     </g>
    </g>
    <g id="xtick_25">
     <g id="line2d_66">
      <path clip-path="url(#p132af09dac)" d="M 416.96633 703.24 
L 416.96633 410.4 
" style="fill:none;stroke:#777777;stroke-linecap:square;stroke-width:0.8;"/>
     </g>
     <g id="line2d_67">
      <g>
       <use style="stroke:#000000;stroke-width:0.8;" x="416.96633" xlink:href="#mf1d2ccf567" y="703.24"/>
      </g>
     </g>
    </g>
    <g id="xtick_26">
     <g id="line2d_68">
      <path clip-path="url(#p132af09dac)" d="M 426.544041 703.24 
L 426.544041 410.4 
" style="fill:none;stroke:#777777;stroke-linecap:square;stroke-width:0.8;"/>
     </g>
     <g id="line2d_69">
      <g>
       <use style="stroke:#000000;stroke-width:0.8;" x="426.544041" xlink:href="#mf1d2ccf567" y="703.24"/>
      </g>
     </g>
    </g>
    <g id="xtick_27">
     <g id="line2d_70">
      <path clip-path="url(#p132af09dac)" d="M 435.111596 703.24 
L 435.111596 410.4 
" style="fill:none;stroke:#777777;stroke-linecap:square;stroke-width:0.8;"/>
     </g>
     <g id="line2d_71">
      <g>
       <use style="stroke:#000000;stroke-width:0.8;" x="435.111596" xlink:href="#mf1d2ccf567" y="703.24"/>
      </g>
     </g>
     <g id="text_19">
      <!-- 1kHz -->
      <defs>
       <path d="M 9.078125 75.984375 
L 18.109375 75.984375 
L 18.109375 31.109375 
L 44.921875 54.6875 
L 56.390625 54.6875 
L 27.390625 29.109375 
L 57.625 0 
L 45.90625 0 
L 18.109375 26.703125 
L 18.109375 0 
L 9.078125 0 
z
" id="DejaVuSans-107"/>
      </defs>
      <g transform="translate(422.650659 717.838438)scale(0.1 -0.1)">
       <use xlink:href="#DejaVuSans-49"/>
       <use x="63.623047" xlink:href="#DejaVuSans-107"/>
       <use x="121.533203" xlink:href="#DejaVuSans-72"/>
       <use x="196.728516" xlink:href="#DejaVuSans-122"/>
      </g>
     </g>
    </g>
    <g id="xtick_28">
     <g id="line2d_72">
      <path clip-path="url(#p132af09dac)" d="M 435.111596 703.24 
L 435.111596 410.4 
" style="fill:none;stroke:#777777;stroke-linecap:square;stroke-width:0.8;"/>
     </g>
     <g id="line2d_73">
      <g>
       <use style="stroke:#000000;stroke-width:0.8;" x="435.111596" xlink:href="#mf1d2ccf567" y="703.24"/>
      </g>
     </g>
    </g>
    <g id="xtick_29">
     <g id="line2d_74">
      <path clip-path="url(#p132af09dac)" d="M 491.47594 703.24 
L 491.47594 410.4 
" style="fill:none;stroke:#777777;stroke-linecap:square;stroke-width:0.8;"/>
     </g>
     <g id="line2d_75">
      <g>
       <use style="stroke:#000000;stroke-width:0.8;" x="491.47594" xlink:href="#mf1d2ccf567" y="703.24"/>
      </g>
     </g>
    </g>
    <g id="xtick_30">
     <g id="line2d_76">
      <path clip-path="url(#p132af09dac)" d="M 524.446968 703.24 
L 524.446968 410.4 
" style="fill:none;stroke:#777777;stroke-linecap:square;stroke-width:0.8;"/>
     </g>
     <g id="line2d_77">
      <g>
       <use style="stroke:#000000;stroke-width:0.8;" x="524.446968" xlink:href="#mf1d2ccf567" y="703.24"/>
      </g>
     </g>
    </g>
    <g id="xtick_31">
     <g id="line2d_78">
      <path clip-path="url(#p132af09dac)" d="M 547.840284 703.24 
L 547.840284 410.4 
" style="fill:none;stroke:#777777;stroke-linecap:square;stroke-width:0.8;"/>
     </g>
     <g id="line2d_79">
      <g>
       <use style="stroke:#000000;stroke-width:0.8;" x="547.840284" xlink:href="#mf1d2ccf567" y="703.24"/>
      </g>
     </g>
    </g>
    <g id="xtick_32">
     <g id="line2d_80">
      <path clip-path="url(#p132af09dac)" d="M 565.98555 703.24 
L 565.98555 410.4 
" style="fill:none;stroke:#777777;stroke-linecap:square;stroke-width:0.8;"/>
     </g>
     <g id="line2d_81">
      <g>
       <use style="stroke:#000000;stroke-width:0.8;" x="565.98555" xlink:href="#mf1d2ccf567" y="703.24"/>
      </g>
     </g>
    </g>
    <g id="xtick_33">
     <g id="line2d_82">
      <path clip-path="url(#p132af09dac)" d="M 580.811312 703.24 
L 580.811312 410.4 
" style="fill:none;stroke:#777777;stroke-linecap:square;stroke-width:0.8;"/>
     </g>
     <g id="line2d_83">
      <g>
       <use style="stroke:#000000;stroke-width:0.8;" x="580.811312" xlink:href="#mf1d2ccf567" y="703.24"/>
      </g>
     </g>
    </g>
    <g id="xtick_34">
     <g id="line2d_84">
      <path clip-path="url(#p132af09dac)" d="M 593.346315 703.24 
L 593.346315 410.4 
" style="fill:none;stroke:#777777;stroke-linecap:square;stroke-width:0.8;"/>
     </g>
     <g id="line2d_85">
      <g>
       <use style="stroke:#000000;stroke-width:0.8;" x="593.346315" xlink:href="#mf1d2ccf567" y="703.24"/>
      </g>
     </g>
    </g>
    <g id="xtick_35">
     <g id="line2d_86">
      <path clip-path="url(#p132af09dac)" d="M 604.204628 703.24 
L 604.204628 410.4 
" style="fill:none;stroke:#777777;stroke-linecap:square;stroke-width:0.8;"/>
     </g>
     <g id="line2d_87">
      <g>
       <use style="stroke:#000000;stroke-width:0.8;" x="604.204628" xlink:href="#mf1d2ccf567" y="703.24"/>
      </g>
     </g>
    </g>
    <g id="xtick_36">
     <g id="line2d_88">
      <path clip-path="url(#p132af09dac)" d="M 613.78234 703.24 
L 613.78234 410.4 
" style="fill:none;stroke:#777777;stroke-linecap:square;stroke-width:0.8;"/>
     </g>
     <g id="line2d_89">
      <g>
       <use style="stroke:#000000;stroke-width:0.8;" x="613.78234" xlink:href="#mf1d2ccf567" y="703.24"/>
      </g>
     </g>
    </g>
    <g id="xtick_37">
     <g id="line2d_90">
      <path clip-path="url(#p132af09dac)" d="M 622.349894 703.24 
L 622.349894 410.4 
" style="fill:none;stroke:#777777;stroke-linecap:square;stroke-width:0.8;"/>
     </g>
     <g id="line2d_91">
      <g>
       <use style="stroke:#000000;stroke-width:0.8;" x="622.349894" xlink:href="#mf1d2ccf567" y="703.24"/>
      </g>
     </g>
     <g id="text_20">
      <!-- 10kHz -->
      <g transform="translate(606.707707 717.838438)scale(0.1 -0.1)">
       <use xlink:href="#DejaVuSans-49"/>
       <use x="63.623047" xlink:href="#DejaVuSans-48"/>
       <use x="127.246094" xlink:href="#DejaVuSans-107"/>
       <use x="185.15625" xlink:href="#DejaVuSans-72"/>
       <use x="260.351562" xlink:href="#DejaVuSans-122"/>
      </g>
     </g>
    </g>
    <g id="xtick_38">
     <g id="line2d_92">
      <path clip-path="url(#p132af09dac)" d="M 622.349894 703.24 
L 622.349894 410.4 
" style="fill:none;stroke:#777777;stroke-linecap:square;stroke-width:0.8;"/>
     </g>
     <g id="line2d_93">
      <g>
       <use style="stroke:#000000;stroke-width:0.8;" x="622.349894" xlink:href="#mf1d2ccf567" y="703.24"/>
      </g>
     </g>
    </g>
    <g id="xtick_39">
     <g id="line2d_94">
      <path clip-path="url(#p132af09dac)" d="M 678.714238 703.24 
L 678.714238 410.4 
" style="fill:none;stroke:#777777;stroke-linecap:square;stroke-width:0.8;"/>
     </g>
     <g id="line2d_95">
      <g>
       <use style="stroke:#000000;stroke-width:0.8;" x="678.714238" xlink:href="#mf1d2ccf567" y="703.24"/>
      </g>
     </g>
    </g>
    <g id="xtick_40">
     <g id="line2d_96">
      <path clip-path="url(#p132af09dac)" d="M 693.54 703.24 
L 693.54 410.4 
" style="fill:none;stroke:#777777;stroke-linecap:square;stroke-width:0.8;"/>
     </g>
     <g id="line2d_97">
      <g>
       <use style="stroke:#000000;stroke-width:0.8;" x="693.54" xlink:href="#mf1d2ccf567" y="703.24"/>
      </g>
     </g>
     <g id="text_21">
      <!-- 24kHz -->
      <g transform="translate(677.897813 717.838438)scale(0.1 -0.1)">
       <use xlink:href="#DejaVuSans-50"/>
       <use x="63.623047" xlink:href="#DejaVuSans-52"/>
       <use x="127.246094" xlink:href="#DejaVuSans-107"/>
       <use x="185.15625" xlink:href="#DejaVuSans-72"/>
       <use x="260.351562" xlink:href="#DejaVuSans-122"/>
      </g>
     </g>
    </g>
    <g id="text_22">
     <!-- Frequency (Hz) -->
     <defs>
      <path d="M 9.8125 72.90625 
L 51.703125 72.90625 
L 51.703125 64.59375 
L 19.671875 64.59375 
L 19.671875 43.109375 
L 48.578125 43.109375 
L 48.578125 34.8125 
L 19.671875 34.8125 
L 19.671875 0 
L 9.8125 0 
z
" id="DejaVuSans-70"/>
      <path d="M 41.109375 46.296875 
Q 39.59375 47.171875 37.8125 47.578125 
Q 36.03125 48 33.890625 48 
Q 26.265625 48 22.1875 43.046875 
Q 18.109375 38.09375 18.109375 28.8125 
L 18.109375 0 
L 9.078125 0 
L 9.078125 54.6875 
L 18.109375 54.6875 
L 18.109375 46.1875 
Q 20.953125 51.171875 25.484375 53.578125 
Q 30.03125 56 36.53125 56 
Q 37.453125 56 38.578125 55.875 
Q 39.703125 55.765625 41.0625 55.515625 
z
" id="DejaVuSans-114"/>
      <path d="M 14.796875 27.296875 
Q 14.796875 17.390625 18.875 11.75 
Q 22.953125 6.109375 30.078125 6.109375 
Q 37.203125 6.109375 41.296875 11.75 
Q 45.40625 17.390625 45.40625 27.296875 
Q 45.40625 37.203125 41.296875 42.84375 
Q 37.203125 48.484375 30.078125 48.484375 
Q 22.953125 48.484375 18.875 42.84375 
Q 14.796875 37.203125 14.796875 27.296875 
z
M 45.40625 8.203125 
Q 42.578125 3.328125 38.25 0.953125 
Q 33.9375 -1.421875 27.875 -1.421875 
Q 17.96875 -1.421875 11.734375 6.484375 
Q 5.515625 14.40625 5.515625 27.296875 
Q 5.515625 40.1875 11.734375 48.09375 
Q 17.96875 56 27.875 56 
Q 33.9375 56 38.25 53.625 
Q 42.578125 51.265625 45.40625 46.390625 
L 45.40625 54.6875 
L 54.390625 54.6875 
L 54.390625 -20.796875 
L 45.40625 -20.796875 
z
" id="DejaVuSans-113"/>
      <path d="M 54.890625 33.015625 
L 54.890625 0 
L 45.90625 0 
L 45.90625 32.71875 
Q 45.90625 40.484375 42.875 44.328125 
Q 39.84375 48.1875 33.796875 48.1875 
Q 26.515625 48.1875 22.3125 43.546875 
Q 18.109375 38.921875 18.109375 30.90625 
L 18.109375 0 
L 9.078125 0 
L 9.078125 54.6875 
L 18.109375 54.6875 
L 18.109375 46.1875 
Q 21.34375 51.125 25.703125 53.5625 
Q 30.078125 56 35.796875 56 
Q 45.21875 56 50.046875 50.171875 
Q 54.890625 44.34375 54.890625 33.015625 
z
" id="DejaVuSans-110"/>
      <path d="M 48.78125 52.59375 
L 48.78125 44.1875 
Q 44.96875 46.296875 41.140625 47.34375 
Q 37.3125 48.390625 33.40625 48.390625 
Q 24.65625 48.390625 19.8125 42.84375 
Q 14.984375 37.3125 14.984375 27.296875 
Q 14.984375 17.28125 19.8125 11.734375 
Q 24.65625 6.203125 33.40625 6.203125 
Q 37.3125 6.203125 41.140625 7.25 
Q 44.96875 8.296875 48.78125 10.40625 
L 48.78125 2.09375 
Q 45.015625 0.34375 40.984375 -0.53125 
Q 36.96875 -1.421875 32.421875 -1.421875 
Q 20.0625 -1.421875 12.78125 6.34375 
Q 5.515625 14.109375 5.515625 27.296875 
Q 5.515625 40.671875 12.859375 48.328125 
Q 20.21875 56 33.015625 56 
Q 37.15625 56 41.109375 55.140625 
Q 45.0625 54.296875 48.78125 52.59375 
z
" id="DejaVuSans-99"/>
      <path d="M 32.171875 -5.078125 
Q 28.375 -14.84375 24.75 -17.8125 
Q 21.140625 -20.796875 15.09375 -20.796875 
L 7.90625 -20.796875 
L 7.90625 -13.28125 
L 13.1875 -13.28125 
Q 16.890625 -13.28125 18.9375 -11.515625 
Q 21 -9.765625 23.484375 -3.21875 
L 25.09375 0.875 
L 2.984375 54.6875 
L 12.5 54.6875 
L 29.59375 11.921875 
L 46.6875 54.6875 
L 56.203125 54.6875 
z
" id="DejaVuSans-121"/>
      <path id="DejaVuSans-32"/>
      <path d="M 31 75.875 
Q 24.46875 64.65625 21.28125 53.65625 
Q 18.109375 42.671875 18.109375 31.390625 
Q 18.109375 20.125 21.3125 9.0625 
Q 24.515625 -2 31 -13.1875 
L 23.1875 -13.1875 
Q 15.875 -1.703125 12.234375 9.375 
Q 8.59375 20.453125 8.59375 31.390625 
Q 8.59375 42.28125 12.203125 53.3125 
Q 15.828125 64.359375 23.1875 75.875 
z
" id="DejaVuSans-40"/>
      <path d="M 8.015625 75.875 
L 15.828125 75.875 
Q 23.140625 64.359375 26.78125 53.3125 
Q 30.421875 42.28125 30.421875 31.390625 
Q 30.421875 20.453125 26.78125 9.375 
Q 23.140625 -1.703125 15.828125 -13.1875 
L 8.015625 -13.1875 
Q 14.5 -2 17.703125 9.0625 
Q 20.90625 20.125 20.90625 31.390625 
Q 20.90625 42.671875 17.703125 53.65625 
Q 14.5 64.65625 8.015625 75.875 
z
" id="DejaVuSans-41"/>
     </defs>
     <g transform="translate(338.914844 731.516563)scale(0.1 -0.1)">
      <use xlink:href="#DejaVuSans-70"/>
      <use x="57.410156" xlink:href="#DejaVuSans-114"/>
      <use x="98.492188" xlink:href="#DejaVuSans-101"/>
      <use x="160.015625" xlink:href="#DejaVuSans-113"/>
      <use x="223.492188" xlink:href="#DejaVuSans-117"/>
      <use x="286.871094" xlink:href="#DejaVuSans-101"/>
      <use x="348.394531" xlink:href="#DejaVuSans-110"/>
      <use x="411.773438" xlink:href="#DejaVuSans-99"/>
      <use x="466.753906" xlink:href="#DejaVuSans-121"/>
      <use x="525.933594" xlink:href="#DejaVuSans-32"/>
      <use x="557.720703" xlink:href="#DejaVuSans-40"/>
      <use x="596.734375" xlink:href="#DejaVuSans-72"/>
      <use x="671.929688" xlink:href="#DejaVuSans-122"/>
      <use x="724.419922" xlink:href="#DejaVuSans-41"/>
     </g>
    </g>
   </g>
   <g id="matplotlib.axis_4">
    <g id="ytick_9">
     <g id="line2d_98">
      <path clip-path="url(#p132af09dac)" d="M 60.635 703.24 
L 693.54 703.24 
" style="fill:none;stroke:#777777;stroke-linecap:square;stroke-width:0.8;"/>
     </g>
     <g id="line2d_99">
      <g>
       <use style="stroke:#000000;stroke-width:0.8;" x="60.635" xlink:href="#m9696ac068d" y="703.24"/>
      </g>
     </g>
     <g id="text_23">
      <!-- 160 -->
      <defs>
       <path d="M 10.59375 35.5 
L 73.1875 35.5 
L 73.1875 27.203125 
L 10.59375 27.203125 
z
" id="DejaVuSans-8722"/>
      </defs>
      <g transform="translate(26.167812 707.039219)scale(0.1 -0.1)">
       <use xlink:href="#DejaVuSans-8722"/>
       <use x="83.789062" xlink:href="#DejaVuSans-49"/>
       <use x="147.412109" xlink:href="#DejaVuSans-54"/>
       <use x="211.035156" xlink:href="#DejaVuSans-48"/>
      </g>
     </g>
    </g>
    <g id="ytick_10">
     <g id="line2d_100">
      <path clip-path="url(#p132af09dac)" d="M 60.635 668.788235 
L 693.54 668.788235 
" style="fill:none;stroke:#777777;stroke-linecap:square;stroke-width:0.8;"/>
     </g>
     <g id="line2d_101">
      <g>
       <use style="stroke:#000000;stroke-width:0.8;" x="60.635" xlink:href="#m9696ac068d" y="668.788235"/>
      </g>
     </g>
     <g id="text_24">
      <!-- 140 -->
      <g transform="translate(26.167812 672.587454)scale(0.1 -0.1)">
       <use xlink:href="#DejaVuSans-8722"/>
       <use x="83.789062" xlink:href="#DejaVuSans-49"/>
       <use x="147.412109" xlink:href="#DejaVuSans-52"/>
       <use x="211.035156" xlink:href="#DejaVuSans-48"/>
      </g>
     </g>
    </g>
    <g id="ytick_11">
     <g id="line2d_102">
      <path clip-path="url(#p132af09dac)" d="M 60.635 634.336471 
L 693.54 634.336471 
" style="fill:none;stroke:#777777;stroke-linecap:square;stroke-width:0.8;"/>
     </g>
     <g id="line2d_103">
      <g>
       <use style="stroke:#000000;stroke-width:0.8;" x="60.635" xlink:href="#m9696ac068d" y="634.336471"/>
      </g>
     </g>
     <g id="text_25">
      <!-- 120 -->
      <g transform="translate(26.167812 638.135689)scale(0.1 -0.1)">
       <use xlink:href="#DejaVuSans-8722"/>
       <use x="83.789062" xlink:href="#DejaVuSans-49"/>
       <use x="147.412109" xlink:href="#DejaVuSans-50"/>
       <use x="211.035156" xlink:href="#DejaVuSans-48"/>
      </g>
     </g>
    </g>
    <g id="ytick_12">
     <g id="line2d_104">
      <path clip-path="url(#p132af09dac)" d="M 60.635 599.884706 
L 693.54 599.884706 
" style="fill:none;stroke:#777777;stroke-linecap:square;stroke-width:0.8;"/>
     </g>
     <g id="line2d_105">
      <g>
       <use style="stroke:#000000;stroke-width:0.8;" x="60.635" xlink:href="#m9696ac068d" y="599.884706"/>
      </g>
     </g>
     <g id="text_26">
      <!-- 100 -->
      <g transform="translate(26.167812 603.683925)scale(0.1 -0.1)">
       <use xlink:href="#DejaVuSans-8722"/>
       <use x="83.789062" xlink:href="#DejaVuSans-49"/>
       <use x="147.412109" xlink:href="#DejaVuSans-48"/>
       <use x="211.035156" xlink:href="#DejaVuSans-48"/>
      </g>
     </g>
    </g>
    <g id="ytick_13">
     <g id="line2d_106">
      <path clip-path="url(#p132af09dac)" d="M 60.635 565.432941 
L 693.54 565.432941 
" style="fill:none;stroke:#777777;stroke-linecap:square;stroke-width:0.8;"/>
     </g>
     <g id="line2d_107">
      <g>
       <use style="stroke:#000000;stroke-width:0.8;" x="60.635" xlink:href="#m9696ac068d" y="565.432941"/>
      </g>
     </g>
     <g id="text_27">
      <!-- 80 -->
      <g transform="translate(32.530312 569.23216)scale(0.1 -0.1)">
       <use xlink:href="#DejaVuSans-8722"/>
       <use x="83.789062" xlink:href="#DejaVuSans-56"/>
       <use x="147.412109" xlink:href="#DejaVuSans-48"/>
      </g>
     </g>
    </g>
    <g id="ytick_14">
     <g id="line2d_108">
      <path clip-path="url(#p132af09dac)" d="M 60.635 530.981176 
L 693.54 530.981176 
" style="fill:none;stroke:#777777;stroke-linecap:square;stroke-width:0.8;"/>
     </g>
     <g id="line2d_109">
      <g>
       <use style="stroke:#000000;stroke-width:0.8;" x="60.635" xlink:href="#m9696ac068d" y="530.981176"/>
      </g>
     </g>
     <g id="text_28">
      <!-- 60 -->
      <g transform="translate(32.530312 534.780395)scale(0.1 -0.1)">
       <use xlink:href="#DejaVuSans-8722"/>
       <use x="83.789062" xlink:href="#DejaVuSans-54"/>
       <use x="147.412109" xlink:href="#DejaVuSans-48"/>
      </g>
     </g>
    </g>
    <g id="ytick_15">
     <g id="line2d_110">
      <path clip-path="url(#p132af09dac)" d="M 60.635 496.529412 
L 693.54 496.529412 
" style="fill:none;stroke:#777777;stroke-linecap:square;stroke-width:0.8;"/>
     </g>
     <g id="line2d_111">
      <g>
       <use style="stroke:#000000;stroke-width:0.8;" x="60.635" xlink:href="#m9696ac068d" y="496.529412"/>
      </g>
     </g>
     <g id="text_29">
      <!-- 40 -->
      <g transform="translate(32.530312 500.328631)scale(0.1 -0.1)">
       <use xlink:href="#DejaVuSans-8722"/>
       <use x="83.789062" xlink:href="#DejaVuSans-52"/>
       <use x="147.412109" xlink:href="#DejaVuSans-48"/>
      </g>
     </g>
    </g>
    <g id="ytick_16">
     <g id="line2d_112">
      <path clip-path="url(#p132af09dac)" d="M 60.635 462.077647 
L 693.54 462.077647 
" style="fill:none;stroke:#777777;stroke-linecap:square;stroke-width:0.8;"/>
     </g>
     <g id="line2d_113">
      <g>
       <use style="stroke:#000000;stroke-width:0.8;" x="60.635" xlink:href="#m9696ac068d" y="462.077647"/>
      </g>
     </g>
     <g id="text_30">
      <!-- 20 -->
      <g transform="translate(32.530312 465.876866)scale(0.1 -0.1)">
       <use xlink:href="#DejaVuSans-8722"/>
       <use x="83.789062" xlink:href="#DejaVuSans-50"/>
       <use x="147.412109" xlink:href="#DejaVuSans-48"/>
      </g>
     </g>
    </g>
    <g id="ytick_17">
     <g id="line2d_114">
      <path clip-path="url(#p132af09dac)" d="M 60.635 427.625882 
L 693.54 427.625882 
" style="fill:none;stroke:#777777;stroke-linecap:square;stroke-width:0.8;"/>
     </g>
     <g id="line2d_115">
      <g>
       <use style="stroke:#000000;stroke-width:0.8;" x="60.635" xlink:href="#m9696ac068d" y="427.625882"/>
      </g>
     </g>
     <g id="text_31">
      <!-- 0 -->
      <g transform="translate(47.2725 431.425101)scale(0.1 -0.1)">
       <use xlink:href="#DejaVuSans-48"/>
      </g>
     </g>
    </g>
    <g id="text_32">
     <!-- Gain (dB) -->
     <defs>
      <path d="M 59.515625 10.40625 
L 59.515625 29.984375 
L 43.40625 29.984375 
L 43.40625 38.09375 
L 69.28125 38.09375 
L 69.28125 6.78125 
Q 63.578125 2.734375 56.6875 0.65625 
Q 49.8125 -1.421875 42 -1.421875 
Q 24.90625 -1.421875 15.25 8.5625 
Q 5.609375 18.5625 5.609375 36.375 
Q 5.609375 54.25 15.25 64.234375 
Q 24.90625 74.21875 42 74.21875 
Q 49.125 74.21875 55.546875 72.453125 
Q 61.96875 70.703125 67.390625 67.28125 
L 67.390625 56.78125 
Q 61.921875 61.421875 55.765625 63.765625 
Q 49.609375 66.109375 42.828125 66.109375 
Q 29.4375 66.109375 22.71875 58.640625 
Q 16.015625 51.171875 16.015625 36.375 
Q 16.015625 21.625 22.71875 14.15625 
Q 29.4375 6.6875 42.828125 6.6875 
Q 48.046875 6.6875 52.140625 7.59375 
Q 56.25 8.5 59.515625 10.40625 
z
" id="DejaVuSans-71"/>
      <path d="M 19.671875 34.8125 
L 19.671875 8.109375 
L 35.5 8.109375 
Q 43.453125 8.109375 47.28125 11.40625 
Q 51.125 14.703125 51.125 21.484375 
Q 51.125 28.328125 47.28125 31.5625 
Q 43.453125 34.8125 35.5 34.8125 
z
M 19.671875 64.796875 
L 19.671875 42.828125 
L 34.28125 42.828125 
Q 41.5 42.828125 45.03125 45.53125 
Q 48.578125 48.25 48.578125 53.8125 
Q 48.578125 59.328125 45.03125 62.0625 
Q 41.5 64.796875 34.28125 64.796875 
z
M 9.8125 72.90625 
L 35.015625 72.90625 
Q 46.296875 72.90625 52.390625 68.21875 
Q 58.5 63.53125 58.5 54.890625 
Q 58.5 48.1875 55.375 44.234375 
Q 52.25 40.28125 46.1875 39.3125 
Q 53.46875 37.75 57.5 32.78125 
Q 61.53125 27.828125 61.53125 20.40625 
Q 61.53125 10.640625 54.890625 5.3125 
Q 48.25 0 35.984375 0 
L 9.8125 0 
z
" id="DejaVuSans-66"/>
     </defs>
     <g transform="translate(20.088125 580.411406)rotate(-90)scale(0.1 -0.1)">
      <use xlink:href="#DejaVuSans-71"/>
      <use x="77.490234" xlink:href="#DejaVuSans-97"/>
      <use x="138.769531" xlink:href="#DejaVuSans-105"/>
      <use x="166.552734" xlink:href="#DejaVuSans-110"/>
      <use x="229.931641" xlink:href="#DejaVuSans-32"/>
      <use x="261.71875" xlink:href="#DejaVuSans-40"/>
      <use x="300.732422" xlink:href="#DejaVuSans-100"/>
      <use x="364.208984" xlink:href="#DejaVuSans-66"/>
      <use x="432.8125" xlink:href="#DejaVuSans-41"/>
     </g>
    </g>
   </g>
   <g id="line2d_116">
    <path clip-path="url(#p132af09dac)" d="M -1 427.62639 
L 231.766934 427.725552 
L 278.915779 427.944239 
L 308.567303 428.287781 
L 330.248628 428.758231 
L 347.349128 429.358549 
L 360.283721 430.020387 
L 371.440445 430.796977 
L 381.249497 431.693693 
L 390.001653 432.717623 
L 397.902675 433.87803 
L 404.411472 435.048726 
L 410.437678 436.349572 
L 416.04794 437.791554 
L 421.295991 439.385223 
L 426.225777 441.138775 
L 430.873702 443.055864 
L 435.270263 445.133727 
L 439.441257 447.362296 
L 443.408705 449.724676 
L 447.601209 452.479607 
L 451.97626 455.628896 
L 456.495009 459.155285 
L 461.467876 463.322246 
L 467.124068 468.371054 
L 473.310819 474.197443 
L 480.708331 481.482659 
L 489.466037 490.43369 
L 499.987888 501.514685 
L 512.676001 515.207375 
L 527.256649 531.274515 
L 542.465077 548.365099 
L 556.673431 564.660011 
L 569.406637 579.5957 
L 580.57273 593.031145 
L 590.389023 605.18612 
L 599.083536 616.302416 
L 606.822298 626.552821 
L 613.78234 636.1351 
L 620.095429 645.199651 
L 625.862296 653.86481 
L 631.161667 662.226742 
L 636.015971 670.297285 
L 640.520568 678.21483 
L 644.680129 685.970696 
L 648.568233 693.68849 
L 652.179896 701.348034 
L 655.57464 709.068983 
L 658.742008 716.824808 
L 661.702563 724.658823 
L 664.50238 732.69966 
L 667.126623 740.917274 
L 669.5889 749.362443 
L 671.901126 758.091017 
L 674.073786 767.16606 
L 676.116147 776.660589 
L 678.03643 786.661368 
L 679.818457 797.127145 
L 681.493228 808.302304 
L 683.043899 820.159313 
L 684.499017 833.038436 
L 685.819478 846.709993 
L 687.054361 861.859121 
L 688.164793 878.247001 
L 689.260266 898.223007 
L 690.093008 917.261855 
L 690.794195 937.24298 
L 691.019761 944.402353 
L 693.520145 944.402353 
L 693.520145 944.402353 
" style="fill:none;stroke:#0072bd;stroke-linecap:square;stroke-width:1.4;"/>
   </g>
   <g id="patch_8">
    <path d="M 60.635 703.24 
L 60.635 410.4 
" style="fill:none;stroke:#000000;stroke-linecap:square;stroke-linejoin:miter;stroke-width:0.8;"/>
   </g>
   <g id="patch_9">
    <path d="M 693.54 703.24 
L 693.54 410.4 
" style="fill:none;stroke:#000000;stroke-linecap:square;stroke-linejoin:miter;stroke-width:0.8;"/>
   </g>
   <g id="patch_10">
    <path d="M 60.635 703.24 
L 693.54 703.24 
" style="fill:none;stroke:#000000;stroke-linecap:square;stroke-linejoin:miter;stroke-width:0.8;"/>
   </g>
   <g id="patch_11">
    <path d="M 60.635 410.4 
L 693.54 410.4 
" style="fill:none;stroke:#000000;stroke-linecap:square;stroke-linejoin:miter;stroke-width:0.8;"/>
   </g>
  </g>
  <g id="axes_3">
   <g id="patch_12">
    <path d="M 60.635 1038.04 
L 693.54 1038.04 
L 693.54 745.2 
L 60.635 745.2 
z
" style="fill:#ffffff;"/>
   </g>
   <g id="matplotlib.axis_5">
    <g id="xtick_41">
     <g id="line2d_117">
      <path clip-path="url(#p0635cadd9a)" d="M 60.635 1038.04 
L 60.635 745.2 
" style="fill:none;stroke:#777777;stroke-linecap:square;stroke-width:0.8;"/>
     </g>
     <g id="line2d_118">
      <g>
       <use style="stroke:#000000;stroke-width:0.8;" x="60.635" xlink:href="#mf1d2ccf567" y="1038.04"/>
      </g>
     </g>
     <g id="text_33">
      <!-- 10Hz -->
      <g transform="translate(47.888125 1052.638438)scale(0.1 -0.1)">
       <use xlink:href="#DejaVuSans-49"/>
       <use x="63.623047" xlink:href="#DejaVuSans-48"/>
       <use x="127.246094" xlink:href="#DejaVuSans-72"/>
       <use x="202.441406" xlink:href="#DejaVuSans-122"/>
      </g>
     </g>
    </g>
    <g id="xtick_42">
     <g id="line2d_119">
      <path clip-path="url(#p0635cadd9a)" d="M 60.635 1038.04 
L 60.635 745.2 
" style="fill:none;stroke:#777777;stroke-linecap:square;stroke-width:0.8;"/>
     </g>
     <g id="line2d_120">
      <g>
       <use style="stroke:#000000;stroke-width:0.8;" x="60.635" xlink:href="#mf1d2ccf567" y="1038.04"/>
      </g>
     </g>
    </g>
    <g id="xtick_43">
     <g id="line2d_121">
      <path clip-path="url(#p0635cadd9a)" d="M 116.999344 1038.04 
L 116.999344 745.2 
" style="fill:none;stroke:#777777;stroke-linecap:square;stroke-width:0.8;"/>
     </g>
     <g id="line2d_122">
      <g>
       <use style="stroke:#000000;stroke-width:0.8;" x="116.999344" xlink:href="#mf1d2ccf567" y="1038.04"/>
      </g>
     </g>
    </g>
    <g id="xtick_44">
     <g id="line2d_123">
      <path clip-path="url(#p0635cadd9a)" d="M 149.970372 1038.04 
L 149.970372 745.2 
" style="fill:none;stroke:#777777;stroke-linecap:square;stroke-width:0.8;"/>
     </g>
     <g id="line2d_124">
      <g>
       <use style="stroke:#000000;stroke-width:0.8;" x="149.970372" xlink:href="#mf1d2ccf567" y="1038.04"/>
      </g>
     </g>
    </g>
    <g id="xtick_45">
     <g id="line2d_125">
      <path clip-path="url(#p0635cadd9a)" d="M 173.363688 1038.04 
L 173.363688 745.2 
" style="fill:none;stroke:#777777;stroke-linecap:square;stroke-width:0.8;"/>
     </g>
     <g id="line2d_126">
      <g>
       <use style="stroke:#000000;stroke-width:0.8;" x="173.363688" xlink:href="#mf1d2ccf567" y="1038.04"/>
      </g>
     </g>
    </g>
    <g id="xtick_46">
     <g id="line2d_127">
      <path clip-path="url(#p0635cadd9a)" d="M 191.508954 1038.04 
L 191.508954 745.2 
" style="fill:none;stroke:#777777;stroke-linecap:square;stroke-width:0.8;"/>
     </g>
     <g id="line2d_128">
      <g>
       <use style="stroke:#000000;stroke-width:0.8;" x="191.508954" xlink:href="#mf1d2ccf567" y="1038.04"/>
      </g>
     </g>
    </g>
    <g id="xtick_47">
     <g id="line2d_129">
      <path clip-path="url(#p0635cadd9a)" d="M 206.334716 1038.04 
L 206.334716 745.2 
" style="fill:none;stroke:#777777;stroke-linecap:square;stroke-width:0.8;"/>
     </g>
     <g id="line2d_130">
      <g>
       <use style="stroke:#000000;stroke-width:0.8;" x="206.334716" xlink:href="#mf1d2ccf567" y="1038.04"/>
      </g>
     </g>
    </g>
    <g id="xtick_48">
     <g id="line2d_131">
      <path clip-path="url(#p0635cadd9a)" d="M 218.869719 1038.04 
L 218.869719 745.2 
" style="fill:none;stroke:#777777;stroke-linecap:square;stroke-width:0.8;"/>
     </g>
     <g id="line2d_132">
      <g>
       <use style="stroke:#000000;stroke-width:0.8;" x="218.869719" xlink:href="#mf1d2ccf567" y="1038.04"/>
      </g>
     </g>
    </g>
    <g id="xtick_49">
     <g id="line2d_133">
      <path clip-path="url(#p0635cadd9a)" d="M 229.728032 1038.04 
L 229.728032 745.2 
" style="fill:none;stroke:#777777;stroke-linecap:square;stroke-width:0.8;"/>
     </g>
     <g id="line2d_134">
      <g>
       <use style="stroke:#000000;stroke-width:0.8;" x="229.728032" xlink:href="#mf1d2ccf567" y="1038.04"/>
      </g>
     </g>
    </g>
    <g id="xtick_50">
     <g id="line2d_135">
      <path clip-path="url(#p0635cadd9a)" d="M 239.305743 1038.04 
L 239.305743 745.2 
" style="fill:none;stroke:#777777;stroke-linecap:square;stroke-width:0.8;"/>
     </g>
     <g id="line2d_136">
      <g>
       <use style="stroke:#000000;stroke-width:0.8;" x="239.305743" xlink:href="#mf1d2ccf567" y="1038.04"/>
      </g>
     </g>
    </g>
    <g id="xtick_51">
     <g id="line2d_137">
      <path clip-path="url(#p0635cadd9a)" d="M 247.873298 1038.04 
L 247.873298 745.2 
" style="fill:none;stroke:#777777;stroke-linecap:square;stroke-width:0.8;"/>
     </g>
     <g id="line2d_138">
      <g>
       <use style="stroke:#000000;stroke-width:0.8;" x="247.873298" xlink:href="#mf1d2ccf567" y="1038.04"/>
      </g>
     </g>
     <g id="text_34">
      <!-- 100Hz -->
      <g transform="translate(231.945173 1052.638438)scale(0.1 -0.1)">
       <use xlink:href="#DejaVuSans-49"/>
       <use x="63.623047" xlink:href="#DejaVuSans-48"/>
       <use x="127.246094" xlink:href="#DejaVuSans-48"/>
       <use x="190.869141" xlink:href="#DejaVuSans-72"/>
       <use x="266.064453" xlink:href="#DejaVuSans-122"/>
      </g>
     </g>
    </g>
    <g id="xtick_52">
     <g id="line2d_139">
      <path clip-path="url(#p0635cadd9a)" d="M 247.873298 1038.04 
L 247.873298 745.2 
" style="fill:none;stroke:#777777;stroke-linecap:square;stroke-width:0.8;"/>
     </g>
     <g id="line2d_140">
      <g>
       <use style="stroke:#000000;stroke-width:0.8;" x="247.873298" xlink:href="#mf1d2ccf567" y="1038.04"/>
      </g>
     </g>
    </g>
    <g id="xtick_53">
     <g id="line2d_141">
      <path clip-path="url(#p0635cadd9a)" d="M 304.237642 1038.04 
L 304.237642 745.2 
" style="fill:none;stroke:#777777;stroke-linecap:square;stroke-width:0.8;"/>
     </g>
     <g id="line2d_142">
      <g>
       <use style="stroke:#000000;stroke-width:0.8;" x="304.237642" xlink:href="#mf1d2ccf567" y="1038.04"/>
      </g>
     </g>
    </g>
    <g id="xtick_54">
     <g id="line2d_143">
      <path clip-path="url(#p0635cadd9a)" d="M 337.20867 1038.04 
L 337.20867 745.2 
" style="fill:none;stroke:#777777;stroke-linecap:square;stroke-width:0.8;"/>
     </g>
     <g id="line2d_144">
      <g>
       <use style="stroke:#000000;stroke-width:0.8;" x="337.20867" xlink:href="#mf1d2ccf567" y="1038.04"/>
      </g>
     </g>
    </g>
    <g id="xtick_55">
     <g id="line2d_145">
      <path clip-path="url(#p0635cadd9a)" d="M 360.601986 1038.04 
L 360.601986 745.2 
" style="fill:none;stroke:#777777;stroke-linecap:square;stroke-width:0.8;"/>
     </g>
     <g id="line2d_146">
      <g>
       <use style="stroke:#000000;stroke-width:0.8;" x="360.601986" xlink:href="#mf1d2ccf567" y="1038.04"/>
      </g>
     </g>
    </g>
    <g id="xtick_56">
     <g id="line2d_147">
      <path clip-path="url(#p0635cadd9a)" d="M 378.747252 1038.04 
L 378.747252 745.2 
" style="fill:none;stroke:#777777;stroke-linecap:square;stroke-width:0.8;"/>
     </g>
     <g id="line2d_148">
      <g>
       <use style="stroke:#000000;stroke-width:0.8;" x="378.747252" xlink:href="#mf1d2ccf567" y="1038.04"/>
      </g>
     </g>
    </g>
    <g id="xtick_57">
     <g id="line2d_149">
      <path clip-path="url(#p0635cadd9a)" d="M 393.573014 1038.04 
L 393.573014 745.2 
" style="fill:none;stroke:#777777;stroke-linecap:square;stroke-width:0.8;"/>
     </g>
     <g id="line2d_150">
      <g>
       <use style="stroke:#000000;stroke-width:0.8;" x="393.573014" xlink:href="#mf1d2ccf567" y="1038.04"/>
      </g>
     </g>
    </g>
    <g id="xtick_58">
     <g id="line2d_151">
      <path clip-path="url(#p0635cadd9a)" d="M 406.108017 1038.04 
L 406.108017 745.2 
" style="fill:none;stroke:#777777;stroke-linecap:square;stroke-width:0.8;"/>
     </g>
     <g id="line2d_152">
      <g>
       <use style="stroke:#000000;stroke-width:0.8;" x="406.108017" xlink:href="#mf1d2ccf567" y="1038.04"/>
      </g>
     </g>
    </g>
    <g id="xtick_59">
     <g id="line2d_153">
      <path clip-path="url(#p0635cadd9a)" d="M 416.96633 1038.04 
L 416.96633 745.2 
" style="fill:none;stroke:#777777;stroke-linecap:square;stroke-width:0.8;"/>
     </g>
     <g id="line2d_154">
      <g>
       <use style="stroke:#000000;stroke-width:0.8;" x="416.96633" xlink:href="#mf1d2ccf567" y="1038.04"/>
      </g>
     </g>
    </g>
    <g id="xtick_60">
     <g id="line2d_155">
      <path clip-path="url(#p0635cadd9a)" d="M 426.544041 1038.04 
L 426.544041 745.2 
" style="fill:none;stroke:#777777;stroke-linecap:square;stroke-width:0.8;"/>
     </g>
     <g id="line2d_156">
      <g>
       <use style="stroke:#000000;stroke-width:0.8;" x="426.544041" xlink:href="#mf1d2ccf567" y="1038.04"/>
      </g>
     </g>
    </g>
    <g id="xtick_61">
     <g id="line2d_157">
      <path clip-path="url(#p0635cadd9a)" d="M 435.111596 1038.04 
L 435.111596 745.2 
" style="fill:none;stroke:#777777;stroke-linecap:square;stroke-width:0.8;"/>
     </g>
     <g id="line2d_158">
      <g>
       <use style="stroke:#000000;stroke-width:0.8;" x="435.111596" xlink:href="#mf1d2ccf567" y="1038.04"/>
      </g>
     </g>
     <g id="text_35">
      <!-- 1kHz -->
      <g transform="translate(422.650659 1052.638438)scale(0.1 -0.1)">
       <use xlink:href="#DejaVuSans-49"/>
       <use x="63.623047" xlink:href="#DejaVuSans-107"/>
       <use x="121.533203" xlink:href="#DejaVuSans-72"/>
       <use x="196.728516" xlink:href="#DejaVuSans-122"/>
      </g>
     </g>
    </g>
    <g id="xtick_62">
     <g id="line2d_159">
      <path clip-path="url(#p0635cadd9a)" d="M 435.111596 1038.04 
L 435.111596 745.2 
" style="fill:none;stroke:#777777;stroke-linecap:square;stroke-width:0.8;"/>
     </g>
     <g id="line2d_160">
      <g>
       <use style="stroke:#000000;stroke-width:0.8;" x="435.111596" xlink:href="#mf1d2ccf567" y="1038.04"/>
      </g>
     </g>
    </g>
    <g id="xtick_63">
     <g id="line2d_161">
      <path clip-path="url(#p0635cadd9a)" d="M 491.47594 1038.04 
L 491.47594 745.2 
" style="fill:none;stroke:#777777;stroke-linecap:square;stroke-width:0.8;"/>
     </g>
     <g id="line2d_162">
      <g>
       <use style="stroke:#000000;stroke-width:0.8;" x="491.47594" xlink:href="#mf1d2ccf567" y="1038.04"/>
      </g>
     </g>
    </g>
    <g id="xtick_64">
     <g id="line2d_163">
      <path clip-path="url(#p0635cadd9a)" d="M 524.446968 1038.04 
L 524.446968 745.2 
" style="fill:none;stroke:#777777;stroke-linecap:square;stroke-width:0.8;"/>
     </g>
     <g id="line2d_164">
      <g>
       <use style="stroke:#000000;stroke-width:0.8;" x="524.446968" xlink:href="#mf1d2ccf567" y="1038.04"/>
      </g>
     </g>
    </g>
    <g id="xtick_65">
     <g id="line2d_165">
      <path clip-path="url(#p0635cadd9a)" d="M 547.840284 1038.04 
L 547.840284 745.2 
" style="fill:none;stroke:#777777;stroke-linecap:square;stroke-width:0.8;"/>
     </g>
     <g id="line2d_166">
      <g>
       <use style="stroke:#000000;stroke-width:0.8;" x="547.840284" xlink:href="#mf1d2ccf567" y="1038.04"/>
      </g>
     </g>
    </g>
    <g id="xtick_66">
     <g id="line2d_167">
      <path clip-path="url(#p0635cadd9a)" d="M 565.98555 1038.04 
L 565.98555 745.2 
" style="fill:none;stroke:#777777;stroke-linecap:square;stroke-width:0.8;"/>
     </g>
     <g id="line2d_168">
      <g>
       <use style="stroke:#000000;stroke-width:0.8;" x="565.98555" xlink:href="#mf1d2ccf567" y="1038.04"/>
      </g>
     </g>
    </g>
    <g id="xtick_67">
     <g id="line2d_169">
      <path clip-path="url(#p0635cadd9a)" d="M 580.811312 1038.04 
L 580.811312 745.2 
" style="fill:none;stroke:#777777;stroke-linecap:square;stroke-width:0.8;"/>
     </g>
     <g id="line2d_170">
      <g>
       <use style="stroke:#000000;stroke-width:0.8;" x="580.811312" xlink:href="#mf1d2ccf567" y="1038.04"/>
      </g>
     </g>
    </g>
    <g id="xtick_68">
     <g id="line2d_171">
      <path clip-path="url(#p0635cadd9a)" d="M 593.346315 1038.04 
L 593.346315 745.2 
" style="fill:none;stroke:#777777;stroke-linecap:square;stroke-width:0.8;"/>
     </g>
     <g id="line2d_172">
      <g>
       <use style="stroke:#000000;stroke-width:0.8;" x="593.346315" xlink:href="#mf1d2ccf567" y="1038.04"/>
      </g>
     </g>
    </g>
    <g id="xtick_69">
     <g id="line2d_173">
      <path clip-path="url(#p0635cadd9a)" d="M 604.204628 1038.04 
L 604.204628 745.2 
" style="fill:none;stroke:#777777;stroke-linecap:square;stroke-width:0.8;"/>
     </g>
     <g id="line2d_174">
      <g>
       <use style="stroke:#000000;stroke-width:0.8;" x="604.204628" xlink:href="#mf1d2ccf567" y="1038.04"/>
      </g>
     </g>
    </g>
    <g id="xtick_70">
     <g id="line2d_175">
      <path clip-path="url(#p0635cadd9a)" d="M 613.78234 1038.04 
L 613.78234 745.2 
" style="fill:none;stroke:#777777;stroke-linecap:square;stroke-width:0.8;"/>
     </g>
     <g id="line2d_176">
      <g>
       <use style="stroke:#000000;stroke-width:0.8;" x="613.78234" xlink:href="#mf1d2ccf567" y="1038.04"/>
      </g>
     </g>
    </g>
    <g id="xtick_71">
     <g id="line2d_177">
      <path clip-path="url(#p0635cadd9a)" d="M 622.349894 1038.04 
L 622.349894 745.2 
" style="fill:none;stroke:#777777;stroke-linecap:square;stroke-width:0.8;"/>
     </g>
     <g id="line2d_178">
      <g>
       <use style="stroke:#000000;stroke-width:0.8;" x="622.349894" xlink:href="#mf1d2ccf567" y="1038.04"/>
      </g>
     </g>
     <g id="text_36">
      <!-- 10kHz -->
      <g transform="translate(606.707707 1052.638438)scale(0.1 -0.1)">
       <use xlink:href="#DejaVuSans-49"/>
       <use x="63.623047" xlink:href="#DejaVuSans-48"/>
       <use x="127.246094" xlink:href="#DejaVuSans-107"/>
       <use x="185.15625" xlink:href="#DejaVuSans-72"/>
       <use x="260.351562" xlink:href="#DejaVuSans-122"/>
      </g>
     </g>
    </g>
    <g id="xtick_72">
     <g id="line2d_179">
      <path clip-path="url(#p0635cadd9a)" d="M 622.349894 1038.04 
L 622.349894 745.2 
" style="fill:none;stroke:#777777;stroke-linecap:square;stroke-width:0.8;"/>
     </g>
     <g id="line2d_180">
      <g>
       <use style="stroke:#000000;stroke-width:0.8;" x="622.349894" xlink:href="#mf1d2ccf567" y="1038.04"/>
      </g>
     </g>
    </g>
    <g id="xtick_73">
     <g id="line2d_181">
      <path clip-path="url(#p0635cadd9a)" d="M 678.714238 1038.04 
L 678.714238 745.2 
" style="fill:none;stroke:#777777;stroke-linecap:square;stroke-width:0.8;"/>
     </g>
     <g id="line2d_182">
      <g>
       <use style="stroke:#000000;stroke-width:0.8;" x="678.714238" xlink:href="#mf1d2ccf567" y="1038.04"/>
      </g>
     </g>
    </g>
    <g id="xtick_74">
     <g id="line2d_183">
      <path clip-path="url(#p0635cadd9a)" d="M 693.54 1038.04 
L 693.54 745.2 
" style="fill:none;stroke:#777777;stroke-linecap:square;stroke-width:0.8;"/>
     </g>
     <g id="line2d_184">
      <g>
       <use style="stroke:#000000;stroke-width:0.8;" x="693.54" xlink:href="#mf1d2ccf567" y="1038.04"/>
      </g>
     </g>
     <g id="text_37">
      <!-- 24kHz -->
      <g transform="translate(677.897813 1052.638438)scale(0.1 -0.1)">
       <use xlink:href="#DejaVuSans-50"/>
       <use x="63.623047" xlink:href="#DejaVuSans-52"/>
       <use x="127.246094" xlink:href="#DejaVuSans-107"/>
       <use x="185.15625" xlink:href="#DejaVuSans-72"/>
       <use x="260.351562" xlink:href="#DejaVuSans-122"/>
      </g>
     </g>
    </g>
    <g id="text_38">
     <!-- Frequency (Hz) -->
     <g transform="translate(338.914844 1066.316563)scale(0.1 -0.1)">
      <use xlink:href="#DejaVuSans-70"/>
      <use x="57.410156" xlink:href="#DejaVuSans-114"/>
      <use x="98.492188" xlink:href="#DejaVuSans-101"/>
      <use x="160.015625" xlink:href="#DejaVuSans-113"/>
      <use x="223.492188" xlink:href="#DejaVuSans-117"/>
      <use x="286.871094" xlink:href="#DejaVuSans-101"/>
      <use x="348.394531" xlink:href="#DejaVuSans-110"/>
      <use x="411.773438" xlink:href="#DejaVuSans-99"/>
      <use x="466.753906" xlink:href="#DejaVuSans-121"/>
      <use x="525.933594" xlink:href="#DejaVuSans-32"/>
      <use x="557.720703" xlink:href="#DejaVuSans-40"/>
      <use x="596.734375" xlink:href="#DejaVuSans-72"/>
      <use x="671.929688" xlink:href="#DejaVuSans-122"/>
      <use x="724.419922" xlink:href="#DejaVuSans-41"/>
     </g>
    </g>
   </g>
   <g id="matplotlib.axis_6">
    <g id="ytick_18">
     <g id="line2d_185">
      <path clip-path="url(#p0635cadd9a)" d="M 60.635 1007.214737 
L 693.54 1007.214737 
" style="fill:none;stroke:#777777;stroke-linecap:square;stroke-width:0.8;"/>
     </g>
     <g id="line2d_186">
      <g>
       <use style="stroke:#000000;stroke-width:0.8;" x="60.635" xlink:href="#m9696ac068d" y="1007.214737"/>
      </g>
     </g>
     <g id="text_39">
      <!-- 150 -->
      <g transform="translate(26.167812 1011.013956)scale(0.1 -0.1)">
       <use xlink:href="#DejaVuSans-8722"/>
       <use x="83.789062" xlink:href="#DejaVuSans-49"/>
       <use x="147.412109" xlink:href="#DejaVuSans-53"/>
       <use x="211.035156" xlink:href="#DejaVuSans-48"/>
      </g>
     </g>
    </g>
    <g id="ytick_19">
     <g id="line2d_187">
      <path clip-path="url(#p0635cadd9a)" d="M 60.635 968.683158 
L 693.54 968.683158 
" style="fill:none;stroke:#777777;stroke-linecap:square;stroke-width:0.8;"/>
     </g>
     <g id="line2d_188">
      <g>
       <use style="stroke:#000000;stroke-width:0.8;" x="60.635" xlink:href="#m9696ac068d" y="968.683158"/>
      </g>
     </g>
     <g id="text_40">
      <!-- 100 -->
      <g transform="translate(26.167812 972.482377)scale(0.1 -0.1)">
       <use xlink:href="#DejaVuSans-8722"/>
       <use x="83.789062" xlink:href="#DejaVuSans-49"/>
       <use x="147.412109" xlink:href="#DejaVuSans-48"/>
       <use x="211.035156" xlink:href="#DejaVuSans-48"/>
      </g>
     </g>
    </g>
    <g id="ytick_20">
     <g id="line2d_189">
      <path clip-path="url(#p0635cadd9a)" d="M 60.635 930.151579 
L 693.54 930.151579 
" style="fill:none;stroke:#777777;stroke-linecap:square;stroke-width:0.8;"/>
     </g>
     <g id="line2d_190">
      <g>
       <use style="stroke:#000000;stroke-width:0.8;" x="60.635" xlink:href="#m9696ac068d" y="930.151579"/>
      </g>
     </g>
     <g id="text_41">
      <!-- 50 -->
      <g transform="translate(32.530312 933.950798)scale(0.1 -0.1)">
       <use xlink:href="#DejaVuSans-8722"/>
       <use x="83.789062" xlink:href="#DejaVuSans-53"/>
       <use x="147.412109" xlink:href="#DejaVuSans-48"/>
      </g>
     </g>
    </g>
    <g id="ytick_21">
     <g id="line2d_191">
      <path clip-path="url(#p0635cadd9a)" d="M 60.635 891.62 
L 693.54 891.62 
" style="fill:none;stroke:#777777;stroke-linecap:square;stroke-width:0.8;"/>
     </g>
     <g id="line2d_192">
      <g>
       <use style="stroke:#000000;stroke-width:0.8;" x="60.635" xlink:href="#m9696ac068d" y="891.62"/>
      </g>
     </g>
     <g id="text_42">
      <!-- 0 -->
      <g transform="translate(47.2725 895.419219)scale(0.1 -0.1)">
       <use xlink:href="#DejaVuSans-48"/>
      </g>
     </g>
    </g>
    <g id="ytick_22">
     <g id="line2d_193">
      <path clip-path="url(#p0635cadd9a)" d="M 60.635 853.088421 
L 693.54 853.088421 
" style="fill:none;stroke:#777777;stroke-linecap:square;stroke-width:0.8;"/>
     </g>
     <g id="line2d_194">
      <g>
       <use style="stroke:#000000;stroke-width:0.8;" x="60.635" xlink:href="#m9696ac068d" y="853.088421"/>
      </g>
     </g>
     <g id="text_43">
      <!-- 50 -->
      <g transform="translate(40.91 856.88764)scale(0.1 -0.1)">
       <use xlink:href="#DejaVuSans-53"/>
       <use x="63.623047" xlink:href="#DejaVuSans-48"/>
      </g>
     </g>
    </g>
    <g id="ytick_23">
     <g id="line2d_195">
      <path clip-path="url(#p0635cadd9a)" d="M 60.635 814.556842 
L 693.54 814.556842 
" style="fill:none;stroke:#777777;stroke-linecap:square;stroke-width:0.8;"/>
     </g>
     <g id="line2d_196">
      <g>
       <use style="stroke:#000000;stroke-width:0.8;" x="60.635" xlink:href="#m9696ac068d" y="814.556842"/>
      </g>
     </g>
     <g id="text_44">
      <!-- 100 -->
      <g transform="translate(34.5475 818.356061)scale(0.1 -0.1)">
       <use xlink:href="#DejaVuSans-49"/>
       <use x="63.623047" xlink:href="#DejaVuSans-48"/>
       <use x="127.246094" xlink:href="#DejaVuSans-48"/>
      </g>
     </g>
    </g>
    <g id="ytick_24">
     <g id="line2d_197">
      <path clip-path="url(#p0635cadd9a)" d="M 60.635 776.025263 
L 693.54 776.025263 
" style="fill:none;stroke:#777777;stroke-linecap:square;stroke-width:0.8;"/>
     </g>
     <g id="line2d_198">
      <g>
       <use style="stroke:#000000;stroke-width:0.8;" x="60.635" xlink:href="#m9696ac068d" y="776.025263"/>
      </g>
     </g>
     <g id="text_45">
      <!-- 150 -->
      <g transform="translate(34.5475 779.824482)scale(0.1 -0.1)">
       <use xlink:href="#DejaVuSans-49"/>
       <use x="63.623047" xlink:href="#DejaVuSans-53"/>
       <use x="127.246094" xlink:href="#DejaVuSans-48"/>
      </g>
     </g>
    </g>
    <g id="text_46">
     <!-- Phase (${\circ}$) -->
     <defs>
      <path d="M 19.671875 64.796875 
L 19.671875 37.40625 
L 32.078125 37.40625 
Q 38.96875 37.40625 42.71875 40.96875 
Q 46.484375 44.53125 46.484375 51.125 
Q 46.484375 57.671875 42.71875 61.234375 
Q 38.96875 64.796875 32.078125 64.796875 
z
M 9.8125 72.90625 
L 32.078125 72.90625 
Q 44.34375 72.90625 50.609375 67.359375 
Q 56.890625 61.8125 56.890625 51.125 
Q 56.890625 40.328125 50.609375 34.8125 
Q 44.34375 29.296875 32.078125 29.296875 
L 19.671875 29.296875 
L 19.671875 0 
L 9.8125 0 
z
" id="DejaVuSans-80"/>
      <path d="M 54.890625 33.015625 
L 54.890625 0 
L 45.90625 0 
L 45.90625 32.71875 
Q 45.90625 40.484375 42.875 44.328125 
Q 39.84375 48.1875 33.796875 48.1875 
Q 26.515625 48.1875 22.3125 43.546875 
Q 18.109375 38.921875 18.109375 30.90625 
L 18.109375 0 
L 9.078125 0 
L 9.078125 75.984375 
L 18.109375 75.984375 
L 18.109375 46.1875 
Q 21.34375 51.125 25.703125 53.5625 
Q 30.078125 56 35.796875 56 
Q 45.21875 56 50.046875 50.171875 
Q 54.890625 44.34375 54.890625 33.015625 
z
" id="DejaVuSans-104"/>
      <path d="M 31.296875 40.671875 
Q 27.390625 40.671875 24.703125 37.953125 
Q 22.015625 35.25 22.015625 31.34375 
Q 22.015625 27.484375 24.703125 24.828125 
Q 27.390625 22.171875 31.296875 22.171875 
Q 35.203125 22.171875 37.890625 24.828125 
Q 40.578125 27.484375 40.578125 31.34375 
Q 40.578125 35.203125 37.859375 37.9375 
Q 35.15625 40.671875 31.296875 40.671875 
z
M 31.296875 46.96875 
Q 34.421875 46.96875 37.296875 45.765625 
Q 40.1875 44.578125 42.28125 42.328125 
Q 44.53125 40.140625 45.65625 37.34375 
Q 46.78125 34.5625 46.78125 31.34375 
Q 46.78125 24.90625 42.265625 20.4375 
Q 37.75 15.96875 31.203125 15.96875 
Q 24.609375 15.96875 20.21875 20.359375 
Q 15.828125 24.75 15.828125 31.34375 
Q 15.828125 37.890625 20.3125 42.421875 
Q 24.8125 46.96875 31.296875 46.96875 
z
" id="DejaVuSans-8728"/>
     </defs>
     <g transform="translate(20.088125 915.17)rotate(-90)scale(0.1 -0.1)">
      <use transform="translate(0 0.015625)" xlink:href="#DejaVuSans-80"/>
      <use transform="translate(60.302734 0.015625)" xlink:href="#DejaVuSans-104"/>
      <use transform="translate(123.681641 0.015625)" xlink:href="#DejaVuSans-97"/>
      <use transform="translate(184.960938 0.015625)" xlink:href="#DejaVuSans-115"/>
      <use transform="translate(237.060547 0.015625)" xlink:href="#DejaVuSans-101"/>
      <use transform="translate(298.583984 0.015625)" xlink:href="#DejaVuSans-32"/>
      <use transform="translate(330.371094 0.015625)" xlink:href="#DejaVuSans-40"/>
      <use transform="translate(369.384766 0.015625)" xlink:href="#DejaVuSans-8728"/>
      <use transform="translate(431.982422 0.015625)" xlink:href="#DejaVuSans-41"/>
     </g>
    </g>
   </g>
   <g id="line2d_199">
    <path clip-path="url(#p0635cadd9a)" d="M -1 892.826781 
L 17.167871 892.826899 
L 73.532215 894.033797 
L 106.503243 895.240697 
L 129.896559 896.447598 
L 148.041825 897.6545 
L 162.867587 898.861403 
L 175.40259 900.068309 
L 186.260904 901.275218 
L 195.838615 902.482129 
L 204.406169 903.689044 
L 219.231931 906.102884 
L 231.766934 908.516741 
L 242.625248 910.930618 
L 252.202959 913.344517 
L 260.770513 915.758442 
L 268.520809 918.172396 
L 275.596275 920.586381 
L 282.105073 923.0004 
L 288.131278 925.414455 
L 296.407897 929.035615 
L 303.919377 932.656873 
L 310.795293 936.27824 
L 317.134858 939.899725 
L 323.015725 943.521338 
L 328.499818 947.143088 
L 333.637309 950.764985 
L 338.469417 954.387037 
L 344.495622 959.216699 
L 350.105885 964.046674 
L 355.353936 968.876979 
L 360.283721 973.707628 
L 364.931647 978.538625 
L 370.391184 984.577849 
L 375.50712 990.617549 
L 380.320155 996.657587 
L 384.864162 1002.697706 
L 390.001653 1009.945312 
L 394.833761 1017.191081 
L 399.394763 1024.432874 
L 402.299235 1029.256944 
L 403.009428 753.03494 
L 407.814335 761.462265 
L 412.351097 769.863411 
L 417.243794 779.412871 
L 422.417616 790.052182 
L 427.804789 801.676394 
L 433.830994 815.220457 
L 444.264677 839.347457 
L 452.362562 857.800153 
L 457.947129 869.967577 
L 462.834573 880.087956 
L 467.444844 889.122247 
L 471.807698 897.193244 
L 476.236191 904.909951 
L 480.435914 911.797097 
L 484.688729 918.362427 
L 488.976176 924.587195 
L 493.282177 930.465097 
L 497.813519 936.273091 
L 502.314399 941.685697 
L 506.973907 946.94225 
L 511.752988 951.994435 
L 516.617222 956.810554 
L 521.536721 961.372264 
L 526.640611 965.801549 
L 531.878999 970.051038 
L 537.208543 974.090226 
L 542.719192 977.988883 
L 548.354822 981.707025 
L 554.177863 985.28617 
L 560.227676 988.745225 
L 566.523758 992.088052 
L 573.068957 995.309543 
L 579.852756 998.400421 
L 587.001845 1001.41047 
L 594.450533 1004.303806 
L 602.31673 1007.119102 
L 610.652318 1009.864396 
L 619.604089 1012.575161 
L 629.30218 1015.27565 
L 640.062014 1018.036269 
L 652.640801 1021.026287 
L 670.98935 1025.130747 
L 688.524555 1029.097233 
L 688.65115 1029.151272 
L 688.67223 1029.134144 
L 688.924766 1029.187845 
L 689.092689 1029.207496 
L 689.448378 1029.312966 
L 689.469252 1029.395578 
L 689.490121 1029.247515 
L 689.531844 1029.262996 
L 689.615224 1029.264903 
L 689.677703 1029.516585 
L 689.740134 1029.487927 
L 689.781728 1029.373967 
L 689.802517 752.164822 
L 689.823301 1029.502499 
L 689.885621 1029.482629 
L 689.906383 1029.310432 
L 689.968639 1029.36209 
L 689.98938 752.234665 
L 690.072293 1029.370828 
L 690.093008 752.306978 
L 690.113718 1029.506056 
L 690.217187 1029.344406 
L 690.258538 1029.266727 
L 690.341177 752.282273 
L 690.382465 752.573085 
L 690.464978 1029.559133 
L 690.423732 752.191335 
L 690.485593 1029.12429 
L 690.506203 752.906316 
L 690.526807 1029.459463 
L 690.58859 1029.341628 
L 690.629753 1029.26994 
L 690.650326 1028.6991 
L 690.670895 752.33292 
L 690.691458 1029.156525 
L 690.753116 752.906316 
L 690.814727 1029.516112 
L 690.855775 752.481772 
L 690.876291 1029.450723 
L 690.999281 752.325376 
L 691.060706 753.596165 
L 691.081171 1028.127824 
L 691.10163 752.906316 
L 691.162978 754.179634 
L 691.183417 754.515382 
L 691.203851 752.906316 
L 691.22428 754.055898 
L 691.244703 1029.092182 
L 691.305943 753.458211 
L 691.326346 753.596165 
L 691.346744 753.519525 
L 691.367137 752.906316 
L 691.387525 1028.495 
L 691.469025 756.054821 
L 691.530096 765.775281 
L 691.509744 752.906316 
L 691.550443 757.307079 
L 691.570785 752.906316 
L 691.591122 763.723088 
L 691.611454 1023.04172 
L 691.652102 752.906316 
L 691.69273 760.19828 
L 691.753633 767.11287 
L 691.814491 752.906316 
L 691.834767 752.906316 
L 691.855038 995.655263 
L 691.936071 778.868946 
L 691.976557 778.868946 
L 691.996793 773.378183 
L 692.017023 1004.371054 
L 692.097895 801.791291 
L 692.138301 752.906316 
L 692.158496 981.448709 
L 692.239227 801.791291 
L 692.259398 752.906316 
L 692.279563 811.446385 
L 692.360174 979.186387 
L 692.319879 752.906316 
L 692.40045 962.356204 
L 692.42058 952.793 
L 692.501052 981.448709 
L 692.541258 752.906316 
L 692.661757 891.62 
L 692.74199 981.448709 
L 692.701883 811.446385 
L 692.762036 891.62 
L 692.802113 752.906316 
L 692.862192 891.62 
L 692.882208 891.62 
L 692.90222 960.976842 
L 692.962225 891.62 
L 693.002203 995.655263 
L 693.082102 822.263158 
L 693.141974 891.62 
L 693.122021 752.906316 
L 693.181864 871.148133 
L 693.241663 912.091867 
L 693.301418 822.263158 
L 693.361129 960.976842 
L 693.420797 897.110763 
L 693.440676 880.803228 
L 693.46055 902.436772 
L 693.500285 960.976842 
L 693.520145 822.263158 
L 693.520145 822.263158 
" style="fill:none;stroke:#0072bd;stroke-linecap:square;stroke-width:1.4;"/>
   </g>
   <g id="patch_13">
    <path d="M 60.635 1038.04 
L 60.635 745.2 
" style="fill:none;stroke:#000000;stroke-linecap:square;stroke-linejoin:miter;stroke-width:0.8;"/>
   </g>
   <g id="patch_14">
    <path d="M 693.54 1038.04 
L 693.54 745.2 
" style="fill:none;stroke:#000000;stroke-linecap:square;stroke-linejoin:miter;stroke-width:0.8;"/>
   </g>
   <g id="patch_15">
    <path d="M 60.635 1038.04 
L 693.54 1038.04 
" style="fill:none;stroke:#000000;stroke-linecap:square;stroke-linejoin:miter;stroke-width:0.8;"/>
   </g>
   <g id="patch_16">
    <path d="M 60.635 745.2 
L 693.54 745.2 
" style="fill:none;stroke:#000000;stroke-linecap:square;stroke-linejoin:miter;stroke-width:0.8;"/>
   </g>
  </g>
  <g id="text_47">
   <!-- 6th-order Bessel filter, lowpass 1khz -->
   <defs>
    <path d="M 4.890625 31.390625 
L 31.203125 31.390625 
L 31.203125 23.390625 
L 4.890625 23.390625 
z
" id="DejaVuSans-45"/>
    <path d="M 30.609375 48.390625 
Q 23.390625 48.390625 19.1875 42.75 
Q 14.984375 37.109375 14.984375 27.296875 
Q 14.984375 17.484375 19.15625 11.84375 
Q 23.34375 6.203125 30.609375 6.203125 
Q 37.796875 6.203125 41.984375 11.859375 
Q 46.1875 17.53125 46.1875 27.296875 
Q 46.1875 37.015625 41.984375 42.703125 
Q 37.796875 48.390625 30.609375 48.390625 
z
M 30.609375 56 
Q 42.328125 56 49.015625 48.375 
Q 55.71875 40.765625 55.71875 27.296875 
Q 55.71875 13.875 49.015625 6.21875 
Q 42.328125 -1.421875 30.609375 -1.421875 
Q 18.84375 -1.421875 12.171875 6.21875 
Q 5.515625 13.875 5.515625 27.296875 
Q 5.515625 40.765625 12.171875 48.375 
Q 18.84375 56 30.609375 56 
z
" id="DejaVuSans-111"/>
    <path d="M 37.109375 75.984375 
L 37.109375 68.5 
L 28.515625 68.5 
Q 23.6875 68.5 21.796875 66.546875 
Q 19.921875 64.59375 19.921875 59.515625 
L 19.921875 54.6875 
L 34.71875 54.6875 
L 34.71875 47.703125 
L 19.921875 47.703125 
L 19.921875 0 
L 10.890625 0 
L 10.890625 47.703125 
L 2.296875 47.703125 
L 2.296875 54.6875 
L 10.890625 54.6875 
L 10.890625 58.5 
Q 10.890625 67.625 15.140625 71.796875 
Q 19.390625 75.984375 28.609375 75.984375 
z
" id="DejaVuSans-102"/>
    <path d="M 11.71875 12.40625 
L 22.015625 12.40625 
L 22.015625 4 
L 14.015625 -11.625 
L 7.71875 -11.625 
L 11.71875 4 
z
" id="DejaVuSans-44"/>
    <path d="M 4.203125 54.6875 
L 13.1875 54.6875 
L 24.421875 12.015625 
L 35.59375 54.6875 
L 46.1875 54.6875 
L 57.421875 12.015625 
L 68.609375 54.6875 
L 77.59375 54.6875 
L 63.28125 0 
L 52.6875 0 
L 40.921875 44.828125 
L 29.109375 0 
L 18.5 0 
z
" id="DejaVuSans-119"/>
   </defs>
   <g transform="translate(214.16375 33.7575)scale(0.16 -0.16)">
    <use xlink:href="#DejaVuSans-54"/>
    <use x="63.623047" xlink:href="#DejaVuSans-116"/>
    <use x="102.832031" xlink:href="#DejaVuSans-104"/>
    <use x="166.210938" xlink:href="#DejaVuSans-45"/>
    <use x="202.310547" xlink:href="#DejaVuSans-111"/>
    <use x="263.492188" xlink:href="#DejaVuSans-114"/>
    <use x="304.589844" xlink:href="#DejaVuSans-100"/>
    <use x="368.066406" xlink:href="#DejaVuSans-101"/>
    <use x="429.589844" xlink:href="#DejaVuSans-114"/>
    <use x="470.703125" xlink:href="#DejaVuSans-32"/>
    <use x="502.490234" xlink:href="#DejaVuSans-66"/>
    <use x="571.09375" xlink:href="#DejaVuSans-101"/>
    <use x="632.617188" xlink:href="#DejaVuSans-115"/>
    <use x="684.716797" xlink:href="#DejaVuSans-115"/>
    <use x="736.816406" xlink:href="#DejaVuSans-101"/>
    <use x="798.339844" xlink:href="#DejaVuSans-108"/>
    <use x="826.123047" xlink:href="#DejaVuSans-32"/>
    <use x="857.910156" xlink:href="#DejaVuSans-102"/>
    <use x="893.115234" xlink:href="#DejaVuSans-105"/>
    <use x="920.898438" xlink:href="#DejaVuSans-108"/>
    <use x="948.681641" xlink:href="#DejaVuSans-116"/>
    <use x="987.890625" xlink:href="#DejaVuSans-101"/>
    <use x="1049.414062" xlink:href="#DejaVuSans-114"/>
    <use x="1090.527344" xlink:href="#DejaVuSans-44"/>
    <use x="1122.314453" xlink:href="#DejaVuSans-32"/>
    <use x="1154.101562" xlink:href="#DejaVuSans-108"/>
    <use x="1181.884766" xlink:href="#DejaVuSans-111"/>
    <use x="1243.066406" xlink:href="#DejaVuSans-119"/>
    <use x="1324.853516" xlink:href="#DejaVuSans-112"/>
    <use x="1388.330078" xlink:href="#DejaVuSans-97"/>
    <use x="1449.609375" xlink:href="#DejaVuSans-115"/>
    <use x="1501.708984" xlink:href="#DejaVuSans-115"/>
    <use x="1553.808594" xlink:href="#DejaVuSans-32"/>
    <use x="1585.595703" xlink:href="#DejaVuSans-49"/>
    <use x="1649.21875" xlink:href="#DejaVuSans-107"/>
    <use x="1707.128906" xlink:href="#DejaVuSans-104"/>
    <use x="1770.507812" xlink:href="#DejaVuSans-122"/>
   </g>
  </g>
 </g>
 <defs>
  <clipPath id="p7698809570">
   <rect height="292.84" width="632.905" x="60.635" y="75.6"/>
  </clipPath>
  <clipPath id="p132af09dac">
   <rect height="292.84" width="632.905" x="60.635" y="410.4"/>
  </clipPath>
  <clipPath id="p0635cadd9a">
   <rect height="292.84" width="632.905" x="60.635" y="745.2"/>
  </clipPath>
 </defs>
</svg>
