<?xml version="1.0" encoding="utf-8" standalone="no"?>
<!DOCTYPE svg PUBLIC "-//W3C//DTD SVG 1.1//EN"
  "http://www.w3.org/Graphics/SVG/1.1/DTD/svg11.dtd">
<!-- Created with matplotlib (https://matplotlib.org/) -->
<svg height="1080pt" version="1.1" viewBox="0 0 720 1080" width="720pt" xmlns="http://www.w3.org/2000/svg" xmlns:xlink="http://www.w3.org/1999/xlink">
 <defs>
  <style type="text/css">
*{stroke-linecap:butt;stroke-linejoin:round;}
  </style>
 </defs>
 <g id="figure_1">
  <g id="patch_1">
   <path d="M 0 1080 
L 720 1080 
L 720 0 
L 0 0 
z
" style="fill:#ffffff;"/>
  </g>
  <g id="axes_1">
   <g id="patch_2">
    <path d="M 59.735 368.44 
L 693.54 368.44 
L 693.54 75.6 
L 59.735 75.6 
z
" style="fill:#ffffff;"/>
   </g>
   <g id="matplotlib.axis_1">
    <g id="xtick_1">
     <g id="line2d_1">
      <path clip-path="url(#p8eb76c013d)" d="M 59.735 368.44 
L 59.735 75.6 
" style="fill:none;stroke:#777777;stroke-linecap:square;stroke-width:0.8;"/>
     </g>
     <g id="line2d_2">
      <defs>
       <path d="M 0 0 
L 0 3.5 
" id="mdc80396e89" style="stroke:#000000;stroke-width:0.8;"/>
      </defs>
      <g>
       <use style="stroke:#000000;stroke-width:0.8;" x="59.735" xlink:href="#mdc80396e89" y="368.44"/>
      </g>
     </g>
     <g id="text_1">
      <!-- 0 -->
      <defs>
       <path d="M 31.78125 66.40625 
Q 24.171875 66.40625 20.328125 58.90625 
Q 16.5 51.421875 16.5 36.375 
Q 16.5 21.390625 20.328125 13.890625 
Q 24.171875 6.390625 31.78125 6.390625 
Q 39.453125 6.390625 43.28125 13.890625 
Q 47.125 21.390625 47.125 36.375 
Q 47.125 51.421875 43.28125 58.90625 
Q 39.453125 66.40625 31.78125 66.40625 
z
M 31.78125 74.21875 
Q 44.046875 74.21875 50.515625 64.515625 
Q 56.984375 54.828125 56.984375 36.375 
Q 56.984375 17.96875 50.515625 8.265625 
Q 44.046875 -1.421875 31.78125 -1.421875 
Q 19.53125 -1.421875 13.0625 8.265625 
Q 6.59375 17.96875 6.59375 36.375 
Q 6.59375 54.828125 13.0625 64.515625 
Q 19.53125 74.21875 31.78125 74.21875 
z
" id="DejaVuSans-48"/>
      </defs>
      <g transform="translate(56.55375 383.038438)scale(0.1 -0.1)">
       <use xlink:href="#DejaVuSans-48"/>
      </g>
     </g>
    </g>
    <g id="xtick_2">
     <g id="line2d_3">
      <path clip-path="url(#p8eb76c013d)" d="M 183.646046 368.44 
L 183.646046 75.6 
" style="fill:none;stroke:#777777;stroke-linecap:square;stroke-width:0.8;"/>
     </g>
     <g id="line2d_4">
      <g>
       <use style="stroke:#000000;stroke-width:0.8;" x="183.646046" xlink:href="#mdc80396e89" y="368.44"/>
      </g>
     </g>
     <g id="text_2">
      <!-- 200 -->
      <defs>
       <path d="M 19.1875 8.296875 
L 53.609375 8.296875 
L 53.609375 0 
L 7.328125 0 
L 7.328125 8.296875 
Q 12.9375 14.109375 22.625 23.890625 
Q 32.328125 33.6875 34.8125 36.53125 
Q 39.546875 41.84375 41.421875 45.53125 
Q 43.3125 49.21875 43.3125 52.78125 
Q 43.3125 58.59375 39.234375 62.25 
Q 35.15625 65.921875 28.609375 65.921875 
Q 23.96875 65.921875 18.8125 64.3125 
Q 13.671875 62.703125 7.8125 59.421875 
L 7.8125 69.390625 
Q 13.765625 71.78125 18.9375 73 
Q 24.125 74.21875 28.421875 74.21875 
Q 39.75 74.21875 46.484375 68.546875 
Q 53.21875 62.890625 53.21875 53.421875 
Q 53.21875 48.921875 51.53125 44.890625 
Q 49.859375 40.875 45.40625 35.40625 
Q 44.1875 33.984375 37.640625 27.21875 
Q 31.109375 20.453125 19.1875 8.296875 
z
" id="DejaVuSans-50"/>
      </defs>
      <g transform="translate(174.102296 383.038438)scale(0.1 -0.1)">
       <use xlink:href="#DejaVuSans-50"/>
       <use x="63.623047" xlink:href="#DejaVuSans-48"/>
       <use x="127.246094" xlink:href="#DejaVuSans-48"/>
      </g>
     </g>
    </g>
    <g id="xtick_3">
     <g id="line2d_5">
      <path clip-path="url(#p8eb76c013d)" d="M 307.557092 368.44 
L 307.557092 75.6 
" style="fill:none;stroke:#777777;stroke-linecap:square;stroke-width:0.8;"/>
     </g>
     <g id="line2d_6">
      <g>
       <use style="stroke:#000000;stroke-width:0.8;" x="307.557092" xlink:href="#mdc80396e89" y="368.44"/>
      </g>
     </g>
     <g id="text_3">
      <!-- 400 -->
      <defs>
       <path d="M 37.796875 64.3125 
L 12.890625 25.390625 
L 37.796875 25.390625 
z
M 35.203125 72.90625 
L 47.609375 72.90625 
L 47.609375 25.390625 
L 58.015625 25.390625 
L 58.015625 17.1875 
L 47.609375 17.1875 
L 47.609375 0 
L 37.796875 0 
L 37.796875 17.1875 
L 4.890625 17.1875 
L 4.890625 26.703125 
z
" id="DejaVuSans-52"/>
      </defs>
      <g transform="translate(298.013342 383.038438)scale(0.1 -0.1)">
       <use xlink:href="#DejaVuSans-52"/>
       <use x="63.623047" xlink:href="#DejaVuSans-48"/>
       <use x="127.246094" xlink:href="#DejaVuSans-48"/>
      </g>
     </g>
    </g>
    <g id="xtick_4">
     <g id="line2d_7">
      <path clip-path="url(#p8eb76c013d)" d="M 431.468138 368.44 
L 431.468138 75.6 
" style="fill:none;stroke:#777777;stroke-linecap:square;stroke-width:0.8;"/>
     </g>
     <g id="line2d_8">
      <g>
       <use style="stroke:#000000;stroke-width:0.8;" x="431.468138" xlink:href="#mdc80396e89" y="368.44"/>
      </g>
     </g>
     <g id="text_4">
      <!-- 600 -->
      <defs>
       <path d="M 33.015625 40.375 
Q 26.375 40.375 22.484375 35.828125 
Q 18.609375 31.296875 18.609375 23.390625 
Q 18.609375 15.53125 22.484375 10.953125 
Q 26.375 6.390625 33.015625 6.390625 
Q 39.65625 6.390625 43.53125 10.953125 
Q 47.40625 15.53125 47.40625 23.390625 
Q 47.40625 31.296875 43.53125 35.828125 
Q 39.65625 40.375 33.015625 40.375 
z
M 52.59375 71.296875 
L 52.59375 62.3125 
Q 48.875 64.0625 45.09375 64.984375 
Q 41.3125 65.921875 37.59375 65.921875 
Q 27.828125 65.921875 22.671875 59.328125 
Q 17.53125 52.734375 16.796875 39.40625 
Q 19.671875 43.65625 24.015625 45.921875 
Q 28.375 48.1875 33.59375 48.1875 
Q 44.578125 48.1875 50.953125 41.515625 
Q 57.328125 34.859375 57.328125 23.390625 
Q 57.328125 12.15625 50.6875 5.359375 
Q 44.046875 -1.421875 33.015625 -1.421875 
Q 20.359375 -1.421875 13.671875 8.265625 
Q 6.984375 17.96875 6.984375 36.375 
Q 6.984375 53.65625 15.1875 63.9375 
Q 23.390625 74.21875 37.203125 74.21875 
Q 40.921875 74.21875 44.703125 73.484375 
Q 48.484375 72.75 52.59375 71.296875 
z
" id="DejaVuSans-54"/>
      </defs>
      <g transform="translate(421.924388 383.038438)scale(0.1 -0.1)">
       <use xlink:href="#DejaVuSans-54"/>
       <use x="63.623047" xlink:href="#DejaVuSans-48"/>
       <use x="127.246094" xlink:href="#DejaVuSans-48"/>
      </g>
     </g>
    </g>
    <g id="xtick_5">
     <g id="line2d_9">
      <path clip-path="url(#p8eb76c013d)" d="M 555.379184 368.44 
L 555.379184 75.6 
" style="fill:none;stroke:#777777;stroke-linecap:square;stroke-width:0.8;"/>
     </g>
     <g id="line2d_10">
      <g>
       <use style="stroke:#000000;stroke-width:0.8;" x="555.379184" xlink:href="#mdc80396e89" y="368.44"/>
      </g>
     </g>
     <g id="text_5">
      <!-- 800 -->
      <defs>
       <path d="M 31.78125 34.625 
Q 24.75 34.625 20.71875 30.859375 
Q 16.703125 27.09375 16.703125 20.515625 
Q 16.703125 13.921875 20.71875 10.15625 
Q 24.75 6.390625 31.78125 6.390625 
Q 38.8125 6.390625 42.859375 10.171875 
Q 46.921875 13.96875 46.921875 20.515625 
Q 46.921875 27.09375 42.890625 30.859375 
Q 38.875 34.625 31.78125 34.625 
z
M 21.921875 38.8125 
Q 15.578125 40.375 12.03125 44.71875 
Q 8.5 49.078125 8.5 55.328125 
Q 8.5 64.0625 14.71875 69.140625 
Q 20.953125 74.21875 31.78125 74.21875 
Q 42.671875 74.21875 48.875 69.140625 
Q 55.078125 64.0625 55.078125 55.328125 
Q 55.078125 49.078125 51.53125 44.71875 
Q 48 40.375 41.703125 38.8125 
Q 48.828125 37.15625 52.796875 32.3125 
Q 56.78125 27.484375 56.78125 20.515625 
Q 56.78125 9.90625 50.3125 4.234375 
Q 43.84375 -1.421875 31.78125 -1.421875 
Q 19.734375 -1.421875 13.25 4.234375 
Q 6.78125 9.90625 6.78125 20.515625 
Q 6.78125 27.484375 10.78125 32.3125 
Q 14.796875 37.15625 21.921875 38.8125 
z
M 18.3125 54.390625 
Q 18.3125 48.734375 21.84375 45.5625 
Q 25.390625 42.390625 31.78125 42.390625 
Q 38.140625 42.390625 41.71875 45.5625 
Q 45.3125 48.734375 45.3125 54.390625 
Q 45.3125 60.0625 41.71875 63.234375 
Q 38.140625 66.40625 31.78125 66.40625 
Q 25.390625 66.40625 21.84375 63.234375 
Q 18.3125 60.0625 18.3125 54.390625 
z
" id="DejaVuSans-56"/>
      </defs>
      <g transform="translate(545.835434 383.038438)scale(0.1 -0.1)">
       <use xlink:href="#DejaVuSans-56"/>
       <use x="63.623047" xlink:href="#DejaVuSans-48"/>
       <use x="127.246094" xlink:href="#DejaVuSans-48"/>
      </g>
     </g>
    </g>
    <g id="xtick_6">
     <g id="line2d_11">
      <path clip-path="url(#p8eb76c013d)" d="M 679.29023 368.44 
L 679.29023 75.6 
" style="fill:none;stroke:#777777;stroke-linecap:square;stroke-width:0.8;"/>
     </g>
     <g id="line2d_12">
      <g>
       <use style="stroke:#000000;stroke-width:0.8;" x="679.29023" xlink:href="#mdc80396e89" y="368.44"/>
      </g>
     </g>
     <g id="text_6">
      <!-- 1000 -->
      <defs>
       <path d="M 12.40625 8.296875 
L 28.515625 8.296875 
L 28.515625 63.921875 
L 10.984375 60.40625 
L 10.984375 69.390625 
L 28.421875 72.90625 
L 38.28125 72.90625 
L 38.28125 8.296875 
L 54.390625 8.296875 
L 54.390625 0 
L 12.40625 0 
z
" id="DejaVuSans-49"/>
      </defs>
      <g transform="translate(666.56523 383.038438)scale(0.1 -0.1)">
       <use xlink:href="#DejaVuSans-49"/>
       <use x="63.623047" xlink:href="#DejaVuSans-48"/>
       <use x="127.246094" xlink:href="#DejaVuSans-48"/>
       <use x="190.869141" xlink:href="#DejaVuSans-48"/>
      </g>
     </g>
    </g>
    <g id="text_7">
     <!-- Samples -->
     <defs>
      <path d="M 53.515625 70.515625 
L 53.515625 60.890625 
Q 47.90625 63.578125 42.921875 64.890625 
Q 37.9375 66.21875 33.296875 66.21875 
Q 25.25 66.21875 20.875 63.09375 
Q 16.5 59.96875 16.5 54.203125 
Q 16.5 49.359375 19.40625 46.890625 
Q 22.3125 44.4375 30.421875 42.921875 
L 36.375 41.703125 
Q 47.40625 39.59375 52.65625 34.296875 
Q 57.90625 29 57.90625 20.125 
Q 57.90625 9.515625 50.796875 4.046875 
Q 43.703125 -1.421875 29.984375 -1.421875 
Q 24.8125 -1.421875 18.96875 -0.25 
Q 13.140625 0.921875 6.890625 3.21875 
L 6.890625 13.375 
Q 12.890625 10.015625 18.65625 8.296875 
Q 24.421875 6.59375 29.984375 6.59375 
Q 38.421875 6.59375 43.015625 9.90625 
Q 47.609375 13.234375 47.609375 19.390625 
Q 47.609375 24.75 44.3125 27.78125 
Q 41.015625 30.8125 33.5 32.328125 
L 27.484375 33.5 
Q 16.453125 35.6875 11.515625 40.375 
Q 6.59375 45.0625 6.59375 53.421875 
Q 6.59375 63.09375 13.40625 68.65625 
Q 20.21875 74.21875 32.171875 74.21875 
Q 37.3125 74.21875 42.625 73.28125 
Q 47.953125 72.359375 53.515625 70.515625 
z
" id="DejaVuSans-83"/>
      <path d="M 34.28125 27.484375 
Q 23.390625 27.484375 19.1875 25 
Q 14.984375 22.515625 14.984375 16.5 
Q 14.984375 11.71875 18.140625 8.90625 
Q 21.296875 6.109375 26.703125 6.109375 
Q 34.1875 6.109375 38.703125 11.40625 
Q 43.21875 16.703125 43.21875 25.484375 
L 43.21875 27.484375 
z
M 52.203125 31.203125 
L 52.203125 0 
L 43.21875 0 
L 43.21875 8.296875 
Q 40.140625 3.328125 35.546875 0.953125 
Q 30.953125 -1.421875 24.3125 -1.421875 
Q 15.921875 -1.421875 10.953125 3.296875 
Q 6 8.015625 6 15.921875 
Q 6 25.140625 12.171875 29.828125 
Q 18.359375 34.515625 30.609375 34.515625 
L 43.21875 34.515625 
L 43.21875 35.40625 
Q 43.21875 41.609375 39.140625 45 
Q 35.0625 48.390625 27.6875 48.390625 
Q 23 48.390625 18.546875 47.265625 
Q 14.109375 46.140625 10.015625 43.890625 
L 10.015625 52.203125 
Q 14.9375 54.109375 19.578125 55.046875 
Q 24.21875 56 28.609375 56 
Q 40.484375 56 46.34375 49.84375 
Q 52.203125 43.703125 52.203125 31.203125 
z
" id="DejaVuSans-97"/>
      <path d="M 52 44.1875 
Q 55.375 50.25 60.0625 53.125 
Q 64.75 56 71.09375 56 
Q 79.640625 56 84.28125 50.015625 
Q 88.921875 44.046875 88.921875 33.015625 
L 88.921875 0 
L 79.890625 0 
L 79.890625 32.71875 
Q 79.890625 40.578125 77.09375 44.375 
Q 74.3125 48.1875 68.609375 48.1875 
Q 61.625 48.1875 57.5625 43.546875 
Q 53.515625 38.921875 53.515625 30.90625 
L 53.515625 0 
L 44.484375 0 
L 44.484375 32.71875 
Q 44.484375 40.625 41.703125 44.40625 
Q 38.921875 48.1875 33.109375 48.1875 
Q 26.21875 48.1875 22.15625 43.53125 
Q 18.109375 38.875 18.109375 30.90625 
L 18.109375 0 
L 9.078125 0 
L 9.078125 54.6875 
L 18.109375 54.6875 
L 18.109375 46.1875 
Q 21.1875 51.21875 25.484375 53.609375 
Q 29.78125 56 35.6875 56 
Q 41.65625 56 45.828125 52.96875 
Q 50 49.953125 52 44.1875 
z
" id="DejaVuSans-109"/>
      <path d="M 18.109375 8.203125 
L 18.109375 -20.796875 
L 9.078125 -20.796875 
L 9.078125 54.6875 
L 18.109375 54.6875 
L 18.109375 46.390625 
Q 20.953125 51.265625 25.265625 53.625 
Q 29.59375 56 35.59375 56 
Q 45.5625 56 51.78125 48.09375 
Q 58.015625 40.1875 58.015625 27.296875 
Q 58.015625 14.40625 51.78125 6.484375 
Q 45.5625 -1.421875 35.59375 -1.421875 
Q 29.59375 -1.421875 25.265625 0.953125 
Q 20.953125 3.328125 18.109375 8.203125 
z
M 48.6875 27.296875 
Q 48.6875 37.203125 44.609375 42.84375 
Q 40.53125 48.484375 33.40625 48.484375 
Q 26.265625 48.484375 22.1875 42.84375 
Q 18.109375 37.203125 18.109375 27.296875 
Q 18.109375 17.390625 22.1875 11.75 
Q 26.265625 6.109375 33.40625 6.109375 
Q 40.53125 6.109375 44.609375 11.75 
Q 48.6875 17.390625 48.6875 27.296875 
z
" id="DejaVuSans-112"/>
      <path d="M 9.421875 75.984375 
L 18.40625 75.984375 
L 18.40625 0 
L 9.421875 0 
z
" id="DejaVuSans-108"/>
      <path d="M 56.203125 29.59375 
L 56.203125 25.203125 
L 14.890625 25.203125 
Q 15.484375 15.921875 20.484375 11.0625 
Q 25.484375 6.203125 34.421875 6.203125 
Q 39.59375 6.203125 44.453125 7.46875 
Q 49.3125 8.734375 54.109375 11.28125 
L 54.109375 2.78125 
Q 49.265625 0.734375 44.1875 -0.34375 
Q 39.109375 -1.421875 33.890625 -1.421875 
Q 20.796875 -1.421875 13.15625 6.1875 
Q 5.515625 13.8125 5.515625 26.8125 
Q 5.515625 40.234375 12.765625 48.109375 
Q 20.015625 56 32.328125 56 
Q 43.359375 56 49.78125 48.890625 
Q 56.203125 41.796875 56.203125 29.59375 
z
M 47.21875 32.234375 
Q 47.125 39.59375 43.09375 43.984375 
Q 39.0625 48.390625 32.421875 48.390625 
Q 24.90625 48.390625 20.390625 44.140625 
Q 15.875 39.890625 15.1875 32.171875 
z
" id="DejaVuSans-101"/>
      <path d="M 44.28125 53.078125 
L 44.28125 44.578125 
Q 40.484375 46.53125 36.375 47.5 
Q 32.28125 48.484375 27.875 48.484375 
Q 21.1875 48.484375 17.84375 46.4375 
Q 14.5 44.390625 14.5 40.28125 
Q 14.5 37.15625 16.890625 35.375 
Q 19.28125 33.59375 26.515625 31.984375 
L 29.59375 31.296875 
Q 39.15625 29.25 43.1875 25.515625 
Q 47.21875 21.78125 47.21875 15.09375 
Q 47.21875 7.46875 41.1875 3.015625 
Q 35.15625 -1.421875 24.609375 -1.421875 
Q 20.21875 -1.421875 15.453125 -0.5625 
Q 10.6875 0.296875 5.421875 2 
L 5.421875 11.28125 
Q 10.40625 8.6875 15.234375 7.390625 
Q 20.0625 6.109375 24.8125 6.109375 
Q 31.15625 6.109375 34.5625 8.28125 
Q 37.984375 10.453125 37.984375 14.40625 
Q 37.984375 18.0625 35.515625 20.015625 
Q 33.0625 21.96875 24.703125 23.78125 
L 21.578125 24.515625 
Q 13.234375 26.265625 9.515625 29.90625 
Q 5.8125 33.546875 5.8125 39.890625 
Q 5.8125 47.609375 11.28125 51.796875 
Q 16.75 56 26.8125 56 
Q 31.78125 56 36.171875 55.265625 
Q 40.578125 54.546875 44.28125 53.078125 
z
" id="DejaVuSans-115"/>
     </defs>
     <g transform="translate(355.284375 396.716563)scale(0.1 -0.1)">
      <use xlink:href="#DejaVuSans-83"/>
      <use x="63.476562" xlink:href="#DejaVuSans-97"/>
      <use x="124.755859" xlink:href="#DejaVuSans-109"/>
      <use x="222.167969" xlink:href="#DejaVuSans-112"/>
      <use x="285.644531" xlink:href="#DejaVuSans-108"/>
      <use x="313.427734" xlink:href="#DejaVuSans-101"/>
      <use x="374.951172" xlink:href="#DejaVuSans-115"/>
     </g>
    </g>
   </g>
   <g id="matplotlib.axis_2">
    <g id="ytick_1">
     <g id="line2d_13">
      <path clip-path="url(#p8eb76c013d)" d="M 59.735 366.809211 
L 693.54 366.809211 
" style="fill:none;stroke:#777777;stroke-linecap:square;stroke-width:0.8;"/>
     </g>
     <g id="line2d_14">
      <defs>
       <path d="M 0 0 
L -3.5 0 
" id="m4e7416062d" style="stroke:#000000;stroke-width:0.8;"/>
      </defs>
      <g>
       <use style="stroke:#000000;stroke-width:0.8;" x="59.735" xlink:href="#m4e7416062d" y="366.809211"/>
      </g>
     </g>
     <g id="text_8">
      <!-- −0.6 -->
      <defs>
       <path d="M 10.59375 35.5 
L 73.1875 35.5 
L 73.1875 27.203125 
L 10.59375 27.203125 
z
" id="DejaVuSans-8722"/>
       <path d="M 10.6875 12.40625 
L 21 12.40625 
L 21 0 
L 10.6875 0 
z
" id="DejaVuSans-46"/>
      </defs>
      <g transform="translate(28.452187 370.60843)scale(0.1 -0.1)">
       <use xlink:href="#DejaVuSans-8722"/>
       <use x="83.789062" xlink:href="#DejaVuSans-48"/>
       <use x="147.412109" xlink:href="#DejaVuSans-46"/>
       <use x="179.199219" xlink:href="#DejaVuSans-54"/>
      </g>
     </g>
    </g>
    <g id="ytick_2">
     <g id="line2d_15">
      <path clip-path="url(#p8eb76c013d)" d="M 59.735 320.804626 
L 693.54 320.804626 
" style="fill:none;stroke:#777777;stroke-linecap:square;stroke-width:0.8;"/>
     </g>
     <g id="line2d_16">
      <g>
       <use style="stroke:#000000;stroke-width:0.8;" x="59.735" xlink:href="#m4e7416062d" y="320.804626"/>
      </g>
     </g>
     <g id="text_9">
      <!-- −0.4 -->
      <g transform="translate(28.452187 324.603845)scale(0.1 -0.1)">
       <use xlink:href="#DejaVuSans-8722"/>
       <use x="83.789062" xlink:href="#DejaVuSans-48"/>
       <use x="147.412109" xlink:href="#DejaVuSans-46"/>
       <use x="179.199219" xlink:href="#DejaVuSans-52"/>
      </g>
     </g>
    </g>
    <g id="ytick_3">
     <g id="line2d_17">
      <path clip-path="url(#p8eb76c013d)" d="M 59.735 274.800041 
L 693.54 274.800041 
" style="fill:none;stroke:#777777;stroke-linecap:square;stroke-width:0.8;"/>
     </g>
     <g id="line2d_18">
      <g>
       <use style="stroke:#000000;stroke-width:0.8;" x="59.735" xlink:href="#m4e7416062d" y="274.800041"/>
      </g>
     </g>
     <g id="text_10">
      <!-- −0.2 -->
      <g transform="translate(28.452187 278.59926)scale(0.1 -0.1)">
       <use xlink:href="#DejaVuSans-8722"/>
       <use x="83.789062" xlink:href="#DejaVuSans-48"/>
       <use x="147.412109" xlink:href="#DejaVuSans-46"/>
       <use x="179.199219" xlink:href="#DejaVuSans-50"/>
      </g>
     </g>
    </g>
    <g id="ytick_4">
     <g id="line2d_19">
      <path clip-path="url(#p8eb76c013d)" d="M 59.735 228.795456 
L 693.54 228.795456 
" style="fill:none;stroke:#777777;stroke-linecap:square;stroke-width:0.8;"/>
     </g>
     <g id="line2d_20">
      <g>
       <use style="stroke:#000000;stroke-width:0.8;" x="59.735" xlink:href="#m4e7416062d" y="228.795456"/>
      </g>
     </g>
     <g id="text_11">
      <!-- 0.0 -->
      <g transform="translate(36.831875 232.594675)scale(0.1 -0.1)">
       <use xlink:href="#DejaVuSans-48"/>
       <use x="63.623047" xlink:href="#DejaVuSans-46"/>
       <use x="95.410156" xlink:href="#DejaVuSans-48"/>
      </g>
     </g>
    </g>
    <g id="ytick_5">
     <g id="line2d_21">
      <path clip-path="url(#p8eb76c013d)" d="M 59.735 182.790872 
L 693.54 182.790872 
" style="fill:none;stroke:#777777;stroke-linecap:square;stroke-width:0.8;"/>
     </g>
     <g id="line2d_22">
      <g>
       <use style="stroke:#000000;stroke-width:0.8;" x="59.735" xlink:href="#m4e7416062d" y="182.790872"/>
      </g>
     </g>
     <g id="text_12">
      <!-- 0.2 -->
      <g transform="translate(36.831875 186.59009)scale(0.1 -0.1)">
       <use xlink:href="#DejaVuSans-48"/>
       <use x="63.623047" xlink:href="#DejaVuSans-46"/>
       <use x="95.410156" xlink:href="#DejaVuSans-50"/>
      </g>
     </g>
    </g>
    <g id="ytick_6">
     <g id="line2d_23">
      <path clip-path="url(#p8eb76c013d)" d="M 59.735 136.786287 
L 693.54 136.786287 
" style="fill:none;stroke:#777777;stroke-linecap:square;stroke-width:0.8;"/>
     </g>
     <g id="line2d_24">
      <g>
       <use style="stroke:#000000;stroke-width:0.8;" x="59.735" xlink:href="#m4e7416062d" y="136.786287"/>
      </g>
     </g>
     <g id="text_13">
      <!-- 0.4 -->
      <g transform="translate(36.831875 140.585505)scale(0.1 -0.1)">
       <use xlink:href="#DejaVuSans-48"/>
       <use x="63.623047" xlink:href="#DejaVuSans-46"/>
       <use x="95.410156" xlink:href="#DejaVuSans-52"/>
      </g>
     </g>
    </g>
    <g id="ytick_7">
     <g id="line2d_25">
      <path clip-path="url(#p8eb76c013d)" d="M 59.735 90.781702 
L 693.54 90.781702 
" style="fill:none;stroke:#777777;stroke-linecap:square;stroke-width:0.8;"/>
     </g>
     <g id="line2d_26">
      <g>
       <use style="stroke:#000000;stroke-width:0.8;" x="59.735" xlink:href="#m4e7416062d" y="90.781702"/>
      </g>
     </g>
     <g id="text_14">
      <!-- 0.6 -->
      <g transform="translate(36.831875 94.580921)scale(0.1 -0.1)">
       <use xlink:href="#DejaVuSans-48"/>
       <use x="63.623047" xlink:href="#DejaVuSans-46"/>
       <use x="95.410156" xlink:href="#DejaVuSans-54"/>
      </g>
     </g>
    </g>
    <g id="text_15">
     <!-- Amplitude -->
     <defs>
      <path d="M 34.1875 63.1875 
L 20.796875 26.90625 
L 47.609375 26.90625 
z
M 28.609375 72.90625 
L 39.796875 72.90625 
L 67.578125 0 
L 57.328125 0 
L 50.6875 18.703125 
L 17.828125 18.703125 
L 11.1875 0 
L 0.78125 0 
z
" id="DejaVuSans-65"/>
      <path d="M 9.421875 54.6875 
L 18.40625 54.6875 
L 18.40625 0 
L 9.421875 0 
z
M 9.421875 75.984375 
L 18.40625 75.984375 
L 18.40625 64.59375 
L 9.421875 64.59375 
z
" id="DejaVuSans-105"/>
      <path d="M 18.3125 70.21875 
L 18.3125 54.6875 
L 36.8125 54.6875 
L 36.8125 47.703125 
L 18.3125 47.703125 
L 18.3125 18.015625 
Q 18.3125 11.328125 20.140625 9.421875 
Q 21.96875 7.515625 27.59375 7.515625 
L 36.8125 7.515625 
L 36.8125 0 
L 27.59375 0 
Q 17.1875 0 13.234375 3.875 
Q 9.28125 7.765625 9.28125 18.015625 
L 9.28125 47.703125 
L 2.6875 47.703125 
L 2.6875 54.6875 
L 9.28125 54.6875 
L 9.28125 70.21875 
z
" id="DejaVuSans-116"/>
      <path d="M 8.5 21.578125 
L 8.5 54.6875 
L 17.484375 54.6875 
L 17.484375 21.921875 
Q 17.484375 14.15625 20.5 10.265625 
Q 23.53125 6.390625 29.59375 6.390625 
Q 36.859375 6.390625 41.078125 11.03125 
Q 45.3125 15.671875 45.3125 23.6875 
L 45.3125 54.6875 
L 54.296875 54.6875 
L 54.296875 0 
L 45.3125 0 
L 45.3125 8.40625 
Q 42.046875 3.421875 37.71875 1 
Q 33.40625 -1.421875 27.6875 -1.421875 
Q 18.265625 -1.421875 13.375 4.4375 
Q 8.5 10.296875 8.5 21.578125 
z
M 31.109375 56 
z
" id="DejaVuSans-117"/>
      <path d="M 45.40625 46.390625 
L 45.40625 75.984375 
L 54.390625 75.984375 
L 54.390625 0 
L 45.40625 0 
L 45.40625 8.203125 
Q 42.578125 3.328125 38.25 0.953125 
Q 33.9375 -1.421875 27.875 -1.421875 
Q 17.96875 -1.421875 11.734375 6.484375 
Q 5.515625 14.40625 5.515625 27.296875 
Q 5.515625 40.1875 11.734375 48.09375 
Q 17.96875 56 27.875 56 
Q 33.9375 56 38.25 53.625 
Q 42.578125 51.265625 45.40625 46.390625 
z
M 14.796875 27.296875 
Q 14.796875 17.390625 18.875 11.75 
Q 22.953125 6.109375 30.078125 6.109375 
Q 37.203125 6.109375 41.296875 11.75 
Q 45.40625 17.390625 45.40625 27.296875 
Q 45.40625 37.203125 41.296875 42.84375 
Q 37.203125 48.484375 30.078125 48.484375 
Q 22.953125 48.484375 18.875 42.84375 
Q 14.796875 37.203125 14.796875 27.296875 
z
" id="DejaVuSans-100"/>
     </defs>
     <g transform="translate(22.3725 247.642656)rotate(-90)scale(0.1 -0.1)">
      <use xlink:href="#DejaVuSans-65"/>
      <use x="68.408203" xlink:href="#DejaVuSans-109"/>
      <use x="165.820312" xlink:href="#DejaVuSans-112"/>
      <use x="229.296875" xlink:href="#DejaVuSans-108"/>
      <use x="257.080078" xlink:href="#DejaVuSans-105"/>
      <use x="284.863281" xlink:href="#DejaVuSans-116"/>
      <use x="324.072266" xlink:href="#DejaVuSans-117"/>
      <use x="387.451172" xlink:href="#DejaVuSans-100"/>
      <use x="450.927734" xlink:href="#DejaVuSans-101"/>
     </g>
    </g>
   </g>
   <g id="line2d_27">
    <path clip-path="url(#p8eb76c013d)" d="M 59.735 89.544762 
L 60.354555 368.44 
L 60.97411 298.012617 
L 61.593666 251.131118 
L 62.213221 221.995848 
L 62.832776 205.91455 
L 63.452331 199.134344 
L 64.071887 198.694138 
L 64.691442 202.295467 
L 65.930552 215.081763 
L 67.169663 228.442761 
L 67.789218 233.883025 
L 68.408773 238.14885 
L 69.028328 241.163293 
L 69.647884 242.951115 
L 70.267439 243.608656 
L 70.886994 243.279324 
L 71.506549 242.133922 
L 72.126105 240.355163 
L 73.365215 235.619517 
L 75.223881 227.926224 
L 76.462991 223.764496 
L 77.082546 222.188826 
L 77.702102 220.995335 
L 78.321657 220.194511 
L 78.941212 219.780723 
L 79.560767 219.734699 
L 80.180323 220.026064 
L 80.799878 220.615843 
L 81.419433 221.458869 
L 82.658543 223.706314 
L 86.375875 231.438166 
L 87.614985 233.297785 
L 88.234541 233.980459 
L 88.854096 234.484559 
L 89.473651 234.806756 
L 90.093206 234.948895 
L 90.712761 234.917507 
L 91.332317 234.72325 
L 91.951872 234.3803 
L 93.190982 233.318781 
L 94.430093 231.892319 
L 98.766979 226.485823 
L 100.00609 225.414775 
L 101.2452 224.72198 
L 102.484311 224.435766 
L 103.723421 224.546697 
L 104.962532 225.012593 
L 106.201642 225.765579 
L 108.060308 227.24408 
L 111.158084 229.859967 
L 112.397195 230.713327 
L 113.636305 231.362228 
L 114.875415 231.770876 
L 116.114526 231.924853 
L 117.353636 231.830332 
L 118.592747 231.511833 
L 120.451413 230.703569 
L 123.549189 228.921888 
L 126.02741 227.607403 
L 127.886075 226.924509 
L 129.125186 226.664501 
L 130.364296 226.572141 
L 131.603407 226.643103 
L 133.462072 227.01899 
L 135.320738 227.635368 
L 140.896735 229.734296 
L 142.755401 230.159015 
L 144.614066 230.340101 
L 146.472732 230.273156 
L 148.331398 229.991484 
L 151.429174 229.221935 
L 155.146505 228.26028 
L 157.624726 227.853504 
L 159.483392 227.737307 
L 161.961613 227.837556 
L 164.439834 228.168709 
L 171.874497 229.375612 
L 174.352717 229.508471 
L 176.830938 229.445162 
L 180.54827 229.080908 
L 186.743822 228.413845 
L 189.841598 228.317451 
L 193.55893 228.45666 
L 204.091369 229.110702 
L 208.428255 229.02599 
L 220.199804 228.585714 
L 225.775802 228.720692 
L 234.449575 228.935009 
L 241.264682 228.833053 
L 250.558011 228.704427 
L 298.263763 228.815439 
L 333.578412 228.793939 
L 393.675269 228.795125 
L 693.54 228.795456 
L 693.54 228.795456 
" style="fill:none;stroke:#0072bd;stroke-linecap:square;stroke-width:1.4;"/>
   </g>
   <g id="patch_3">
    <path d="M 59.735 368.44 
L 59.735 75.6 
" style="fill:none;stroke:#000000;stroke-linecap:square;stroke-linejoin:miter;stroke-width:0.8;"/>
   </g>
   <g id="patch_4">
    <path d="M 693.54 368.44 
L 693.54 75.6 
" style="fill:none;stroke:#000000;stroke-linecap:square;stroke-linejoin:miter;stroke-width:0.8;"/>
   </g>
   <g id="patch_5">
    <path d="M 59.735 368.44 
L 693.54 368.44 
" style="fill:none;stroke:#000000;stroke-linecap:square;stroke-linejoin:miter;stroke-width:0.8;"/>
   </g>
   <g id="patch_6">
    <path d="M 59.735 75.6 
L 693.54 75.6 
" style="fill:none;stroke:#000000;stroke-linecap:square;stroke-linejoin:miter;stroke-width:0.8;"/>
   </g>
  </g>
  <g id="axes_2">
   <g id="patch_7">
    <path d="M 59.735 703.24 
L 693.54 703.24 
L 693.54 410.4 
L 59.735 410.4 
z
" style="fill:#ffffff;"/>
   </g>
   <g id="matplotlib.axis_3">
    <g id="xtick_7">
     <g id="line2d_28">
      <path clip-path="url(#p17d9798417)" d="M 59.735 703.24 
L 59.735 410.4 
" style="fill:none;stroke:#777777;stroke-linecap:square;stroke-width:0.8;"/>
     </g>
     <g id="line2d_29">
      <g>
       <use style="stroke:#000000;stroke-width:0.8;" x="59.735" xlink:href="#mdc80396e89" y="703.24"/>
      </g>
     </g>
     <g id="text_16">
      <!-- 10Hz -->
      <defs>
       <path d="M 9.8125 72.90625 
L 19.671875 72.90625 
L 19.671875 43.015625 
L 55.515625 43.015625 
L 55.515625 72.90625 
L 65.375 72.90625 
L 65.375 0 
L 55.515625 0 
L 55.515625 34.71875 
L 19.671875 34.71875 
L 19.671875 0 
L 9.8125 0 
z
" id="DejaVuSans-72"/>
       <path d="M 5.515625 54.6875 
L 48.1875 54.6875 
L 48.1875 46.484375 
L 14.40625 7.171875 
L 48.1875 7.171875 
L 48.1875 0 
L 4.296875 0 
L 4.296875 8.203125 
L 38.09375 47.515625 
L 5.515625 47.515625 
z
" id="DejaVuSans-122"/>
      </defs>
      <g transform="translate(46.988125 717.838438)scale(0.1 -0.1)">
       <use xlink:href="#DejaVuSans-49"/>
       <use x="63.623047" xlink:href="#DejaVuSans-48"/>
       <use x="127.246094" xlink:href="#DejaVuSans-72"/>
       <use x="202.441406" xlink:href="#DejaVuSans-122"/>
      </g>
     </g>
    </g>
    <g id="xtick_8">
     <g id="line2d_30">
      <path clip-path="url(#p17d9798417)" d="M 59.735 703.24 
L 59.735 410.4 
" style="fill:none;stroke:#777777;stroke-linecap:square;stroke-width:0.8;"/>
     </g>
     <g id="line2d_31">
      <g>
       <use style="stroke:#000000;stroke-width:0.8;" x="59.735" xlink:href="#mdc80396e89" y="703.24"/>
      </g>
     </g>
    </g>
    <g id="xtick_9">
     <g id="line2d_32">
      <path clip-path="url(#p17d9798417)" d="M 116.179495 703.24 
L 116.179495 410.4 
" style="fill:none;stroke:#777777;stroke-linecap:square;stroke-width:0.8;"/>
     </g>
     <g id="line2d_33">
      <g>
       <use style="stroke:#000000;stroke-width:0.8;" x="116.179495" xlink:href="#mdc80396e89" y="703.24"/>
      </g>
     </g>
    </g>
    <g id="xtick_10">
     <g id="line2d_34">
      <path clip-path="url(#p17d9798417)" d="M 149.197408 703.24 
L 149.197408 410.4 
" style="fill:none;stroke:#777777;stroke-linecap:square;stroke-width:0.8;"/>
     </g>
     <g id="line2d_35">
      <g>
       <use style="stroke:#000000;stroke-width:0.8;" x="149.197408" xlink:href="#mdc80396e89" y="703.24"/>
      </g>
     </g>
    </g>
    <g id="xtick_11">
     <g id="line2d_36">
      <path clip-path="url(#p17d9798417)" d="M 172.62399 703.24 
L 172.62399 410.4 
" style="fill:none;stroke:#777777;stroke-linecap:square;stroke-width:0.8;"/>
     </g>
     <g id="line2d_37">
      <g>
       <use style="stroke:#000000;stroke-width:0.8;" x="172.62399" xlink:href="#mdc80396e89" y="703.24"/>
      </g>
     </g>
    </g>
    <g id="xtick_12">
     <g id="line2d_38">
      <path clip-path="url(#p17d9798417)" d="M 190.795059 703.24 
L 190.795059 410.4 
" style="fill:none;stroke:#777777;stroke-linecap:square;stroke-width:0.8;"/>
     </g>
     <g id="line2d_39">
      <g>
       <use style="stroke:#000000;stroke-width:0.8;" x="190.795059" xlink:href="#mdc80396e89" y="703.24"/>
      </g>
     </g>
    </g>
    <g id="xtick_13">
     <g id="line2d_40">
      <path clip-path="url(#p17d9798417)" d="M 205.641903 703.24 
L 205.641903 410.4 
" style="fill:none;stroke:#777777;stroke-linecap:square;stroke-width:0.8;"/>
     </g>
     <g id="line2d_41">
      <g>
       <use style="stroke:#000000;stroke-width:0.8;" x="205.641903" xlink:href="#mdc80396e89" y="703.24"/>
      </g>
     </g>
    </g>
    <g id="xtick_14">
     <g id="line2d_42">
      <path clip-path="url(#p17d9798417)" d="M 218.194731 703.24 
L 218.194731 410.4 
" style="fill:none;stroke:#777777;stroke-linecap:square;stroke-width:0.8;"/>
     </g>
     <g id="line2d_43">
      <g>
       <use style="stroke:#000000;stroke-width:0.8;" x="218.194731" xlink:href="#mdc80396e89" y="703.24"/>
      </g>
     </g>
    </g>
    <g id="xtick_15">
     <g id="line2d_44">
      <path clip-path="url(#p17d9798417)" d="M 229.068485 703.24 
L 229.068485 410.4 
" style="fill:none;stroke:#777777;stroke-linecap:square;stroke-width:0.8;"/>
     </g>
     <g id="line2d_45">
      <g>
       <use style="stroke:#000000;stroke-width:0.8;" x="229.068485" xlink:href="#mdc80396e89" y="703.24"/>
      </g>
     </g>
    </g>
    <g id="xtick_16">
     <g id="line2d_46">
      <path clip-path="url(#p17d9798417)" d="M 238.659816 703.24 
L 238.659816 410.4 
" style="fill:none;stroke:#777777;stroke-linecap:square;stroke-width:0.8;"/>
     </g>
     <g id="line2d_47">
      <g>
       <use style="stroke:#000000;stroke-width:0.8;" x="238.659816" xlink:href="#mdc80396e89" y="703.24"/>
      </g>
     </g>
    </g>
    <g id="xtick_17">
     <g id="line2d_48">
      <path clip-path="url(#p17d9798417)" d="M 247.239554 703.24 
L 247.239554 410.4 
" style="fill:none;stroke:#777777;stroke-linecap:square;stroke-width:0.8;"/>
     </g>
     <g id="line2d_49">
      <g>
       <use style="stroke:#000000;stroke-width:0.8;" x="247.239554" xlink:href="#mdc80396e89" y="703.24"/>
      </g>
     </g>
     <g id="text_17">
      <!-- 100Hz -->
      <g transform="translate(231.311429 717.838438)scale(0.1 -0.1)">
       <use xlink:href="#DejaVuSans-49"/>
       <use x="63.623047" xlink:href="#DejaVuSans-48"/>
       <use x="127.246094" xlink:href="#DejaVuSans-48"/>
       <use x="190.869141" xlink:href="#DejaVuSans-72"/>
       <use x="266.064453" xlink:href="#DejaVuSans-122"/>
      </g>
     </g>
    </g>
    <g id="xtick_18">
     <g id="line2d_50">
      <path clip-path="url(#p17d9798417)" d="M 247.239554 703.24 
L 247.239554 410.4 
" style="fill:none;stroke:#777777;stroke-linecap:square;stroke-width:0.8;"/>
     </g>
     <g id="line2d_51">
      <g>
       <use style="stroke:#000000;stroke-width:0.8;" x="247.239554" xlink:href="#mdc80396e89" y="703.24"/>
      </g>
     </g>
    </g>
    <g id="xtick_19">
     <g id="line2d_52">
      <path clip-path="url(#p17d9798417)" d="M 303.684049 703.24 
L 303.684049 410.4 
" style="fill:none;stroke:#777777;stroke-linecap:square;stroke-width:0.8;"/>
     </g>
     <g id="line2d_53">
      <g>
       <use style="stroke:#000000;stroke-width:0.8;" x="303.684049" xlink:href="#mdc80396e89" y="703.24"/>
      </g>
     </g>
    </g>
    <g id="xtick_20">
     <g id="line2d_54">
      <path clip-path="url(#p17d9798417)" d="M 336.701962 703.24 
L 336.701962 410.4 
" style="fill:none;stroke:#777777;stroke-linecap:square;stroke-width:0.8;"/>
     </g>
     <g id="line2d_55">
      <g>
       <use style="stroke:#000000;stroke-width:0.8;" x="336.701962" xlink:href="#mdc80396e89" y="703.24"/>
      </g>
     </g>
    </g>
    <g id="xtick_21">
     <g id="line2d_56">
      <path clip-path="url(#p17d9798417)" d="M 360.128544 703.24 
L 360.128544 410.4 
" style="fill:none;stroke:#777777;stroke-linecap:square;stroke-width:0.8;"/>
     </g>
     <g id="line2d_57">
      <g>
       <use style="stroke:#000000;stroke-width:0.8;" x="360.128544" xlink:href="#mdc80396e89" y="703.24"/>
      </g>
     </g>
    </g>
    <g id="xtick_22">
     <g id="line2d_58">
      <path clip-path="url(#p17d9798417)" d="M 378.299612 703.24 
L 378.299612 410.4 
" style="fill:none;stroke:#777777;stroke-linecap:square;stroke-width:0.8;"/>
     </g>
     <g id="line2d_59">
      <g>
       <use style="stroke:#000000;stroke-width:0.8;" x="378.299612" xlink:href="#mdc80396e89" y="703.24"/>
      </g>
     </g>
    </g>
    <g id="xtick_23">
     <g id="line2d_60">
      <path clip-path="url(#p17d9798417)" d="M 393.146456 703.24 
L 393.146456 410.4 
" style="fill:none;stroke:#777777;stroke-linecap:square;stroke-width:0.8;"/>
     </g>
     <g id="line2d_61">
      <g>
       <use style="stroke:#000000;stroke-width:0.8;" x="393.146456" xlink:href="#mdc80396e89" y="703.24"/>
      </g>
     </g>
    </g>
    <g id="xtick_24">
     <g id="line2d_62">
      <path clip-path="url(#p17d9798417)" d="M 405.699284 703.24 
L 405.699284 410.4 
" style="fill:none;stroke:#777777;stroke-linecap:square;stroke-width:0.8;"/>
     </g>
     <g id="line2d_63">
      <g>
       <use style="stroke:#000000;stroke-width:0.8;" x="405.699284" xlink:href="#mdc80396e89" y="703.24"/>
      </g>
     </g>
    </g>
    <g id="xtick_25">
     <g id="line2d_64">
      <path clip-path="url(#p17d9798417)" d="M 416.573038 703.24 
L 416.573038 410.4 
" style="fill:none;stroke:#777777;stroke-linecap:square;stroke-width:0.8;"/>
     </g>
     <g id="line2d_65">
      <g>
       <use style="stroke:#000000;stroke-width:0.8;" x="416.573038" xlink:href="#mdc80396e89" y="703.24"/>
      </g>
     </g>
    </g>
    <g id="xtick_26">
     <g id="line2d_66">
      <path clip-path="url(#p17d9798417)" d="M 426.164369 703.24 
L 426.164369 410.4 
" style="fill:none;stroke:#777777;stroke-linecap:square;stroke-width:0.8;"/>
     </g>
     <g id="line2d_67">
      <g>
       <use style="stroke:#000000;stroke-width:0.8;" x="426.164369" xlink:href="#mdc80396e89" y="703.24"/>
      </g>
     </g>
    </g>
    <g id="xtick_27">
     <g id="line2d_68">
      <path clip-path="url(#p17d9798417)" d="M 434.744107 703.24 
L 434.744107 410.4 
" style="fill:none;stroke:#777777;stroke-linecap:square;stroke-width:0.8;"/>
     </g>
     <g id="line2d_69">
      <g>
       <use style="stroke:#000000;stroke-width:0.8;" x="434.744107" xlink:href="#mdc80396e89" y="703.24"/>
      </g>
     </g>
     <g id="text_18">
      <!-- 1kHz -->
      <defs>
       <path d="M 9.078125 75.984375 
L 18.109375 75.984375 
L 18.109375 31.109375 
L 44.921875 54.6875 
L 56.390625 54.6875 
L 27.390625 29.109375 
L 57.625 0 
L 45.90625 0 
L 18.109375 26.703125 
L 18.109375 0 
L 9.078125 0 
z
" id="DejaVuSans-107"/>
      </defs>
      <g transform="translate(422.28317 717.838438)scale(0.1 -0.1)">
       <use xlink:href="#DejaVuSans-49"/>
       <use x="63.623047" xlink:href="#DejaVuSans-107"/>
       <use x="121.533203" xlink:href="#DejaVuSans-72"/>
       <use x="196.728516" xlink:href="#DejaVuSans-122"/>
      </g>
     </g>
    </g>
    <g id="xtick_28">
     <g id="line2d_70">
      <path clip-path="url(#p17d9798417)" d="M 434.744107 703.24 
L 434.744107 410.4 
" style="fill:none;stroke:#777777;stroke-linecap:square;stroke-width:0.8;"/>
     </g>
     <g id="line2d_71">
      <g>
       <use style="stroke:#000000;stroke-width:0.8;" x="434.744107" xlink:href="#mdc80396e89" y="703.24"/>
      </g>
     </g>
    </g>
    <g id="xtick_29">
     <g id="line2d_72">
      <path clip-path="url(#p17d9798417)" d="M 491.188602 703.24 
L 491.188602 410.4 
" style="fill:none;stroke:#777777;stroke-linecap:square;stroke-width:0.8;"/>
     </g>
     <g id="line2d_73">
      <g>
       <use style="stroke:#000000;stroke-width:0.8;" x="491.188602" xlink:href="#mdc80396e89" y="703.24"/>
      </g>
     </g>
    </g>
    <g id="xtick_30">
     <g id="line2d_74">
      <path clip-path="url(#p17d9798417)" d="M 524.206515 703.24 
L 524.206515 410.4 
" style="fill:none;stroke:#777777;stroke-linecap:square;stroke-width:0.8;"/>
     </g>
     <g id="line2d_75">
      <g>
       <use style="stroke:#000000;stroke-width:0.8;" x="524.206515" xlink:href="#mdc80396e89" y="703.24"/>
      </g>
     </g>
    </g>
    <g id="xtick_31">
     <g id="line2d_76">
      <path clip-path="url(#p17d9798417)" d="M 547.633097 703.24 
L 547.633097 410.4 
" style="fill:none;stroke:#777777;stroke-linecap:square;stroke-width:0.8;"/>
     </g>
     <g id="line2d_77">
      <g>
       <use style="stroke:#000000;stroke-width:0.8;" x="547.633097" xlink:href="#mdc80396e89" y="703.24"/>
      </g>
     </g>
    </g>
    <g id="xtick_32">
     <g id="line2d_78">
      <path clip-path="url(#p17d9798417)" d="M 565.804166 703.24 
L 565.804166 410.4 
" style="fill:none;stroke:#777777;stroke-linecap:square;stroke-width:0.8;"/>
     </g>
     <g id="line2d_79">
      <g>
       <use style="stroke:#000000;stroke-width:0.8;" x="565.804166" xlink:href="#mdc80396e89" y="703.24"/>
      </g>
     </g>
    </g>
    <g id="xtick_33">
     <g id="line2d_80">
      <path clip-path="url(#p17d9798417)" d="M 580.65101 703.24 
L 580.65101 410.4 
" style="fill:none;stroke:#777777;stroke-linecap:square;stroke-width:0.8;"/>
     </g>
     <g id="line2d_81">
      <g>
       <use style="stroke:#000000;stroke-width:0.8;" x="580.65101" xlink:href="#mdc80396e89" y="703.24"/>
      </g>
     </g>
    </g>
    <g id="xtick_34">
     <g id="line2d_82">
      <path clip-path="url(#p17d9798417)" d="M 593.203838 703.24 
L 593.203838 410.4 
" style="fill:none;stroke:#777777;stroke-linecap:square;stroke-width:0.8;"/>
     </g>
     <g id="line2d_83">
      <g>
       <use style="stroke:#000000;stroke-width:0.8;" x="593.203838" xlink:href="#mdc80396e89" y="703.24"/>
      </g>
     </g>
    </g>
    <g id="xtick_35">
     <g id="line2d_84">
      <path clip-path="url(#p17d9798417)" d="M 604.077592 703.24 
L 604.077592 410.4 
" style="fill:none;stroke:#777777;stroke-linecap:square;stroke-width:0.8;"/>
     </g>
     <g id="line2d_85">
      <g>
       <use style="stroke:#000000;stroke-width:0.8;" x="604.077592" xlink:href="#mdc80396e89" y="703.24"/>
      </g>
     </g>
    </g>
    <g id="xtick_36">
     <g id="line2d_86">
      <path clip-path="url(#p17d9798417)" d="M 613.668923 703.24 
L 613.668923 410.4 
" style="fill:none;stroke:#777777;stroke-linecap:square;stroke-width:0.8;"/>
     </g>
     <g id="line2d_87">
      <g>
       <use style="stroke:#000000;stroke-width:0.8;" x="613.668923" xlink:href="#mdc80396e89" y="703.24"/>
      </g>
     </g>
    </g>
    <g id="xtick_37">
     <g id="line2d_88">
      <path clip-path="url(#p17d9798417)" d="M 622.248661 703.24 
L 622.248661 410.4 
" style="fill:none;stroke:#777777;stroke-linecap:square;stroke-width:0.8;"/>
     </g>
     <g id="line2d_89">
      <g>
       <use style="stroke:#000000;stroke-width:0.8;" x="622.248661" xlink:href="#mdc80396e89" y="703.24"/>
      </g>
     </g>
     <g id="text_19">
      <!-- 10kHz -->
      <g transform="translate(606.606473 717.838438)scale(0.1 -0.1)">
       <use xlink:href="#DejaVuSans-49"/>
       <use x="63.623047" xlink:href="#DejaVuSans-48"/>
       <use x="127.246094" xlink:href="#DejaVuSans-107"/>
       <use x="185.15625" xlink:href="#DejaVuSans-72"/>
       <use x="260.351562" xlink:href="#DejaVuSans-122"/>
      </g>
     </g>
    </g>
    <g id="xtick_38">
     <g id="line2d_90">
      <path clip-path="url(#p17d9798417)" d="M 622.248661 703.24 
L 622.248661 410.4 
" style="fill:none;stroke:#777777;stroke-linecap:square;stroke-width:0.8;"/>
     </g>
     <g id="line2d_91">
      <g>
       <use style="stroke:#000000;stroke-width:0.8;" x="622.248661" xlink:href="#mdc80396e89" y="703.24"/>
      </g>
     </g>
    </g>
    <g id="xtick_39">
     <g id="line2d_92">
      <path clip-path="url(#p17d9798417)" d="M 678.693156 703.24 
L 678.693156 410.4 
" style="fill:none;stroke:#777777;stroke-linecap:square;stroke-width:0.8;"/>
     </g>
     <g id="line2d_93">
      <g>
       <use style="stroke:#000000;stroke-width:0.8;" x="678.693156" xlink:href="#mdc80396e89" y="703.24"/>
      </g>
     </g>
    </g>
    <g id="xtick_40">
     <g id="line2d_94">
      <path clip-path="url(#p17d9798417)" d="M 693.54 703.24 
L 693.54 410.4 
" style="fill:none;stroke:#777777;stroke-linecap:square;stroke-width:0.8;"/>
     </g>
     <g id="line2d_95">
      <g>
       <use style="stroke:#000000;stroke-width:0.8;" x="693.54" xlink:href="#mdc80396e89" y="703.24"/>
      </g>
     </g>
     <g id="text_20">
      <!-- 24kHz -->
      <g transform="translate(677.897813 717.838438)scale(0.1 -0.1)">
       <use xlink:href="#DejaVuSans-50"/>
       <use x="63.623047" xlink:href="#DejaVuSans-52"/>
       <use x="127.246094" xlink:href="#DejaVuSans-107"/>
       <use x="185.15625" xlink:href="#DejaVuSans-72"/>
       <use x="260.351562" xlink:href="#DejaVuSans-122"/>
      </g>
     </g>
    </g>
    <g id="text_21">
     <!-- Frequency (Hz) -->
     <defs>
      <path d="M 9.8125 72.90625 
L 51.703125 72.90625 
L 51.703125 64.59375 
L 19.671875 64.59375 
L 19.671875 43.109375 
L 48.578125 43.109375 
L 48.578125 34.8125 
L 19.671875 34.8125 
L 19.671875 0 
L 9.8125 0 
z
" id="DejaVuSans-70"/>
      <path d="M 41.109375 46.296875 
Q 39.59375 47.171875 37.8125 47.578125 
Q 36.03125 48 33.890625 48 
Q 26.265625 48 22.1875 43.046875 
Q 18.109375 38.09375 18.109375 28.8125 
L 18.109375 0 
L 9.078125 0 
L 9.078125 54.6875 
L 18.109375 54.6875 
L 18.109375 46.1875 
Q 20.953125 51.171875 25.484375 53.578125 
Q 30.03125 56 36.53125 56 
Q 37.453125 56 38.578125 55.875 
Q 39.703125 55.765625 41.0625 55.515625 
z
" id="DejaVuSans-114"/>
      <path d="M 14.796875 27.296875 
Q 14.796875 17.390625 18.875 11.75 
Q 22.953125 6.109375 30.078125 6.109375 
Q 37.203125 6.109375 41.296875 11.75 
Q 45.40625 17.390625 45.40625 27.296875 
Q 45.40625 37.203125 41.296875 42.84375 
Q 37.203125 48.484375 30.078125 48.484375 
Q 22.953125 48.484375 18.875 42.84375 
Q 14.796875 37.203125 14.796875 27.296875 
z
M 45.40625 8.203125 
Q 42.578125 3.328125 38.25 0.953125 
Q 33.9375 -1.421875 27.875 -1.421875 
Q 17.96875 -1.421875 11.734375 6.484375 
Q 5.515625 14.40625 5.515625 27.296875 
Q 5.515625 40.1875 11.734375 48.09375 
Q 17.96875 56 27.875 56 
Q 33.9375 56 38.25 53.625 
Q 42.578125 51.265625 45.40625 46.390625 
L 45.40625 54.6875 
L 54.390625 54.6875 
L 54.390625 -20.796875 
L 45.40625 -20.796875 
z
" id="DejaVuSans-113"/>
      <path d="M 54.890625 33.015625 
L 54.890625 0 
L 45.90625 0 
L 45.90625 32.71875 
Q 45.90625 40.484375 42.875 44.328125 
Q 39.84375 48.1875 33.796875 48.1875 
Q 26.515625 48.1875 22.3125 43.546875 
Q 18.109375 38.921875 18.109375 30.90625 
L 18.109375 0 
L 9.078125 0 
L 9.078125 54.6875 
L 18.109375 54.6875 
L 18.109375 46.1875 
Q 21.34375 51.125 25.703125 53.5625 
Q 30.078125 56 35.796875 56 
Q 45.21875 56 50.046875 50.171875 
Q 54.890625 44.34375 54.890625 33.015625 
z
" id="DejaVuSans-110"/>
      <path d="M 48.78125 52.59375 
L 48.78125 44.1875 
Q 44.96875 46.296875 41.140625 47.34375 
Q 37.3125 48.390625 33.40625 48.390625 
Q 24.65625 48.390625 19.8125 42.84375 
Q 14.984375 37.3125 14.984375 27.296875 
Q 14.984375 17.28125 19.8125 11.734375 
Q 24.65625 6.203125 33.40625 6.203125 
Q 37.3125 6.203125 41.140625 7.25 
Q 44.96875 8.296875 48.78125 10.40625 
L 48.78125 2.09375 
Q 45.015625 0.34375 40.984375 -0.53125 
Q 36.96875 -1.421875 32.421875 -1.421875 
Q 20.0625 -1.421875 12.78125 6.34375 
Q 5.515625 14.109375 5.515625 27.296875 
Q 5.515625 40.671875 12.859375 48.328125 
Q 20.21875 56 33.015625 56 
Q 37.15625 56 41.109375 55.140625 
Q 45.0625 54.296875 48.78125 52.59375 
z
" id="DejaVuSans-99"/>
      <path d="M 32.171875 -5.078125 
Q 28.375 -14.84375 24.75 -17.8125 
Q 21.140625 -20.796875 15.09375 -20.796875 
L 7.90625 -20.796875 
L 7.90625 -13.28125 
L 13.1875 -13.28125 
Q 16.890625 -13.28125 18.9375 -11.515625 
Q 21 -9.765625 23.484375 -3.21875 
L 25.09375 0.875 
L 2.984375 54.6875 
L 12.5 54.6875 
L 29.59375 11.921875 
L 46.6875 54.6875 
L 56.203125 54.6875 
z
" id="DejaVuSans-121"/>
      <path id="DejaVuSans-32"/>
      <path d="M 31 75.875 
Q 24.46875 64.65625 21.28125 53.65625 
Q 18.109375 42.671875 18.109375 31.390625 
Q 18.109375 20.125 21.3125 9.0625 
Q 24.515625 -2 31 -13.1875 
L 23.1875 -13.1875 
Q 15.875 -1.703125 12.234375 9.375 
Q 8.59375 20.453125 8.59375 31.390625 
Q 8.59375 42.28125 12.203125 53.3125 
Q 15.828125 64.359375 23.1875 75.875 
z
" id="DejaVuSans-40"/>
      <path d="M 8.015625 75.875 
L 15.828125 75.875 
Q 23.140625 64.359375 26.78125 53.3125 
Q 30.421875 42.28125 30.421875 31.390625 
Q 30.421875 20.453125 26.78125 9.375 
Q 23.140625 -1.703125 15.828125 -13.1875 
L 8.015625 -13.1875 
Q 14.5 -2 17.703125 9.0625 
Q 20.90625 20.125 20.90625 31.390625 
Q 20.90625 42.671875 17.703125 53.65625 
Q 14.5 64.65625 8.015625 75.875 
z
" id="DejaVuSans-41"/>
     </defs>
     <g transform="translate(338.464844 731.516563)scale(0.1 -0.1)">
      <use xlink:href="#DejaVuSans-70"/>
      <use x="57.410156" xlink:href="#DejaVuSans-114"/>
      <use x="98.492188" xlink:href="#DejaVuSans-101"/>
      <use x="160.015625" xlink:href="#DejaVuSans-113"/>
      <use x="223.492188" xlink:href="#DejaVuSans-117"/>
      <use x="286.871094" xlink:href="#DejaVuSans-101"/>
      <use x="348.394531" xlink:href="#DejaVuSans-110"/>
      <use x="411.773438" xlink:href="#DejaVuSans-99"/>
      <use x="466.753906" xlink:href="#DejaVuSans-121"/>
      <use x="525.933594" xlink:href="#DejaVuSans-32"/>
      <use x="557.720703" xlink:href="#DejaVuSans-40"/>
      <use x="596.734375" xlink:href="#DejaVuSans-72"/>
      <use x="671.929688" xlink:href="#DejaVuSans-122"/>
      <use x="724.419922" xlink:href="#DejaVuSans-41"/>
     </g>
    </g>
   </g>
   <g id="matplotlib.axis_4">
    <g id="ytick_8">
     <g id="line2d_96">
      <path clip-path="url(#p17d9798417)" d="M 59.735 703.24 
L 693.54 703.24 
" style="fill:none;stroke:#777777;stroke-linecap:square;stroke-width:0.8;"/>
     </g>
     <g id="line2d_97">
      <g>
       <use style="stroke:#000000;stroke-width:0.8;" x="59.735" xlink:href="#m4e7416062d" y="703.24"/>
      </g>
     </g>
     <g id="text_22">
      <!-- −160 -->
      <g transform="translate(25.267812 707.039219)scale(0.1 -0.1)">
       <use xlink:href="#DejaVuSans-8722"/>
       <use x="83.789062" xlink:href="#DejaVuSans-49"/>
       <use x="147.412109" xlink:href="#DejaVuSans-54"/>
       <use x="211.035156" xlink:href="#DejaVuSans-48"/>
      </g>
     </g>
    </g>
    <g id="ytick_9">
     <g id="line2d_98">
      <path clip-path="url(#p17d9798417)" d="M 59.735 668.788235 
L 693.54 668.788235 
" style="fill:none;stroke:#777777;stroke-linecap:square;stroke-width:0.8;"/>
     </g>
     <g id="line2d_99">
      <g>
       <use style="stroke:#000000;stroke-width:0.8;" x="59.735" xlink:href="#m4e7416062d" y="668.788235"/>
      </g>
     </g>
     <g id="text_23">
      <!-- −140 -->
      <g transform="translate(25.267812 672.587454)scale(0.1 -0.1)">
       <use xlink:href="#DejaVuSans-8722"/>
       <use x="83.789062" xlink:href="#DejaVuSans-49"/>
       <use x="147.412109" xlink:href="#DejaVuSans-52"/>
       <use x="211.035156" xlink:href="#DejaVuSans-48"/>
      </g>
     </g>
    </g>
    <g id="ytick_10">
     <g id="line2d_100">
      <path clip-path="url(#p17d9798417)" d="M 59.735 634.336471 
L 693.54 634.336471 
" style="fill:none;stroke:#777777;stroke-linecap:square;stroke-width:0.8;"/>
     </g>
     <g id="line2d_101">
      <g>
       <use style="stroke:#000000;stroke-width:0.8;" x="59.735" xlink:href="#m4e7416062d" y="634.336471"/>
      </g>
     </g>
     <g id="text_24">
      <!-- −120 -->
      <g transform="translate(25.267812 638.135689)scale(0.1 -0.1)">
       <use xlink:href="#DejaVuSans-8722"/>
       <use x="83.789062" xlink:href="#DejaVuSans-49"/>
       <use x="147.412109" xlink:href="#DejaVuSans-50"/>
       <use x="211.035156" xlink:href="#DejaVuSans-48"/>
      </g>
     </g>
    </g>
    <g id="ytick_11">
     <g id="line2d_102">
      <path clip-path="url(#p17d9798417)" d="M 59.735 599.884706 
L 693.54 599.884706 
" style="fill:none;stroke:#777777;stroke-linecap:square;stroke-width:0.8;"/>
     </g>
     <g id="line2d_103">
      <g>
       <use style="stroke:#000000;stroke-width:0.8;" x="59.735" xlink:href="#m4e7416062d" y="599.884706"/>
      </g>
     </g>
     <g id="text_25">
      <!-- −100 -->
      <g transform="translate(25.267812 603.683925)scale(0.1 -0.1)">
       <use xlink:href="#DejaVuSans-8722"/>
       <use x="83.789062" xlink:href="#DejaVuSans-49"/>
       <use x="147.412109" xlink:href="#DejaVuSans-48"/>
       <use x="211.035156" xlink:href="#DejaVuSans-48"/>
      </g>
     </g>
    </g>
    <g id="ytick_12">
     <g id="line2d_104">
      <path clip-path="url(#p17d9798417)" d="M 59.735 565.432941 
L 693.54 565.432941 
" style="fill:none;stroke:#777777;stroke-linecap:square;stroke-width:0.8;"/>
     </g>
     <g id="line2d_105">
      <g>
       <use style="stroke:#000000;stroke-width:0.8;" x="59.735" xlink:href="#m4e7416062d" y="565.432941"/>
      </g>
     </g>
     <g id="text_26">
      <!-- −80 -->
      <g transform="translate(31.630312 569.23216)scale(0.1 -0.1)">
       <use xlink:href="#DejaVuSans-8722"/>
       <use x="83.789062" xlink:href="#DejaVuSans-56"/>
       <use x="147.412109" xlink:href="#DejaVuSans-48"/>
      </g>
     </g>
    </g>
    <g id="ytick_13">
     <g id="line2d_106">
      <path clip-path="url(#p17d9798417)" d="M 59.735 530.981176 
L 693.54 530.981176 
" style="fill:none;stroke:#777777;stroke-linecap:square;stroke-width:0.8;"/>
     </g>
     <g id="line2d_107">
      <g>
       <use style="stroke:#000000;stroke-width:0.8;" x="59.735" xlink:href="#m4e7416062d" y="530.981176"/>
      </g>
     </g>
     <g id="text_27">
      <!-- −60 -->
      <g transform="translate(31.630312 534.780395)scale(0.1 -0.1)">
       <use xlink:href="#DejaVuSans-8722"/>
       <use x="83.789062" xlink:href="#DejaVuSans-54"/>
       <use x="147.412109" xlink:href="#DejaVuSans-48"/>
      </g>
     </g>
    </g>
    <g id="ytick_14">
     <g id="line2d_108">
      <path clip-path="url(#p17d9798417)" d="M 59.735 496.529412 
L 693.54 496.529412 
" style="fill:none;stroke:#777777;stroke-linecap:square;stroke-width:0.8;"/>
     </g>
     <g id="line2d_109">
      <g>
       <use style="stroke:#000000;stroke-width:0.8;" x="59.735" xlink:href="#m4e7416062d" y="496.529412"/>
      </g>
     </g>
     <g id="text_28">
      <!-- −40 -->
      <g transform="translate(31.630312 500.328631)scale(0.1 -0.1)">
       <use xlink:href="#DejaVuSans-8722"/>
       <use x="83.789062" xlink:href="#DejaVuSans-52"/>
       <use x="147.412109" xlink:href="#DejaVuSans-48"/>
      </g>
     </g>
    </g>
    <g id="ytick_15">
     <g id="line2d_110">
      <path clip-path="url(#p17d9798417)" d="M 59.735 462.077647 
L 693.54 462.077647 
" style="fill:none;stroke:#777777;stroke-linecap:square;stroke-width:0.8;"/>
     </g>
     <g id="line2d_111">
      <g>
       <use style="stroke:#000000;stroke-width:0.8;" x="59.735" xlink:href="#m4e7416062d" y="462.077647"/>
      </g>
     </g>
     <g id="text_29">
      <!-- −20 -->
      <g transform="translate(31.630312 465.876866)scale(0.1 -0.1)">
       <use xlink:href="#DejaVuSans-8722"/>
       <use x="83.789062" xlink:href="#DejaVuSans-50"/>
       <use x="147.412109" xlink:href="#DejaVuSans-48"/>
      </g>
     </g>
    </g>
    <g id="ytick_16">
     <g id="line2d_112">
      <path clip-path="url(#p17d9798417)" d="M 59.735 427.625882 
L 693.54 427.625882 
" style="fill:none;stroke:#777777;stroke-linecap:square;stroke-width:0.8;"/>
     </g>
     <g id="line2d_113">
      <g>
       <use style="stroke:#000000;stroke-width:0.8;" x="59.735" xlink:href="#m4e7416062d" y="427.625882"/>
      </g>
     </g>
     <g id="text_30">
      <!-- 0 -->
      <g transform="translate(46.3725 431.425101)scale(0.1 -0.1)">
       <use xlink:href="#DejaVuSans-48"/>
      </g>
     </g>
    </g>
    <g id="text_31">
     <!-- Gain (dB) -->
     <defs>
      <path d="M 59.515625 10.40625 
L 59.515625 29.984375 
L 43.40625 29.984375 
L 43.40625 38.09375 
L 69.28125 38.09375 
L 69.28125 6.78125 
Q 63.578125 2.734375 56.6875 0.65625 
Q 49.8125 -1.421875 42 -1.421875 
Q 24.90625 -1.421875 15.25 8.5625 
Q 5.609375 18.5625 5.609375 36.375 
Q 5.609375 54.25 15.25 64.234375 
Q 24.90625 74.21875 42 74.21875 
Q 49.125 74.21875 55.546875 72.453125 
Q 61.96875 70.703125 67.390625 67.28125 
L 67.390625 56.78125 
Q 61.921875 61.421875 55.765625 63.765625 
Q 49.609375 66.109375 42.828125 66.109375 
Q 29.4375 66.109375 22.71875 58.640625 
Q 16.015625 51.171875 16.015625 36.375 
Q 16.015625 21.625 22.71875 14.15625 
Q 29.4375 6.6875 42.828125 6.6875 
Q 48.046875 6.6875 52.140625 7.59375 
Q 56.25 8.5 59.515625 10.40625 
z
" id="DejaVuSans-71"/>
      <path d="M 19.671875 34.8125 
L 19.671875 8.109375 
L 35.5 8.109375 
Q 43.453125 8.109375 47.28125 11.40625 
Q 51.125 14.703125 51.125 21.484375 
Q 51.125 28.328125 47.28125 31.5625 
Q 43.453125 34.8125 35.5 34.8125 
z
M 19.671875 64.796875 
L 19.671875 42.828125 
L 34.28125 42.828125 
Q 41.5 42.828125 45.03125 45.53125 
Q 48.578125 48.25 48.578125 53.8125 
Q 48.578125 59.328125 45.03125 62.0625 
Q 41.5 64.796875 34.28125 64.796875 
z
M 9.8125 72.90625 
L 35.015625 72.90625 
Q 46.296875 72.90625 52.390625 68.21875 
Q 58.5 63.53125 58.5 54.890625 
Q 58.5 48.1875 55.375 44.234375 
Q 52.25 40.28125 46.1875 39.3125 
Q 53.46875 37.75 57.5 32.78125 
Q 61.53125 27.828125 61.53125 20.40625 
Q 61.53125 10.640625 54.890625 5.3125 
Q 48.25 0 35.984375 0 
L 9.8125 0 
z
" id="DejaVuSans-66"/>
     </defs>
     <g transform="translate(19.188125 580.411406)rotate(-90)scale(0.1 -0.1)">
      <use xlink:href="#DejaVuSans-71"/>
      <use x="77.490234" xlink:href="#DejaVuSans-97"/>
      <use x="138.769531" xlink:href="#DejaVuSans-105"/>
      <use x="166.552734" xlink:href="#DejaVuSans-110"/>
      <use x="229.931641" xlink:href="#DejaVuSans-32"/>
      <use x="261.71875" xlink:href="#DejaVuSans-40"/>
      <use x="300.732422" xlink:href="#DejaVuSans-100"/>
      <use x="364.208984" xlink:href="#DejaVuSans-66"/>
      <use x="432.8125" xlink:href="#DejaVuSans-41"/>
     </g>
    </g>
   </g>
   <g id="line2d_114">
    <path clip-path="url(#p17d9798417)" d="M -1 696.893575 
L 231.110286 696.793665 
L 284.593284 696.613713 
L 287.554781 696.378366 
L 293.173022 695.654059 
L 295.843169 695.68844 
L 298.428535 696.478056 
L 300.934339 698.272249 
L 303.365331 700.428609 
L 305.72585 699.740164 
L 308.019866 695.028645 
L 310.251025 690.042314 
L 312.422679 686.509433 
L 314.537919 684.700981 
L 316.599604 684.648615 
L 318.610378 685.86193 
L 320.572694 685.105094 
L 322.488834 679.205604 
L 324.360921 672.212586 
L 326.190935 666.40442 
L 327.980725 661.829827 
L 329.732023 658.162951 
L 334.770673 648.775837 
L 337.964501 641.528271 
L 341.037779 634.30336 
L 345.440591 624.723256 
L 349.617517 615.611141 
L 358.603401 595.73812 
L 425.311668 448.923408 
L 428.464276 442.59544 
L 430.500187 438.886308 
L 432.486436 435.716071 
L 433.944963 433.746936 
L 435.377824 432.143509 
L 436.785909 430.889419 
L 438.170058 429.943946 
L 439.531074 429.252612 
L 441.311083 428.629019 
L 443.482737 428.170357 
L 446.014512 427.8883 
L 450.066701 427.705972 
L 458.329581 427.632852 
L 518.610992 427.625882 
L 693.520117 427.625882 
L 693.520117 427.625882 
" style="fill:none;stroke:#0072bd;stroke-linecap:square;stroke-width:1.4;"/>
   </g>
   <g id="patch_8">
    <path d="M 59.735 703.24 
L 59.735 410.4 
" style="fill:none;stroke:#000000;stroke-linecap:square;stroke-linejoin:miter;stroke-width:0.8;"/>
   </g>
   <g id="patch_9">
    <path d="M 693.54 703.24 
L 693.54 410.4 
" style="fill:none;stroke:#000000;stroke-linecap:square;stroke-linejoin:miter;stroke-width:0.8;"/>
   </g>
   <g id="patch_10">
    <path d="M 59.735 703.24 
L 693.54 703.24 
" style="fill:none;stroke:#000000;stroke-linecap:square;stroke-linejoin:miter;stroke-width:0.8;"/>
   </g>
   <g id="patch_11">
    <path d="M 59.735 410.4 
L 693.54 410.4 
" style="fill:none;stroke:#000000;stroke-linecap:square;stroke-linejoin:miter;stroke-width:0.8;"/>
   </g>
  </g>
  <g id="axes_3">
   <g id="patch_12">
    <path d="M 59.735 1038.04 
L 693.54 1038.04 
L 693.54 745.2 
L 59.735 745.2 
z
" style="fill:#ffffff;"/>
   </g>
   <g id="matplotlib.axis_5">
    <g id="xtick_41">
     <g id="line2d_115">
      <path clip-path="url(#p5fcf182881)" d="M 59.735 1038.04 
L 59.735 745.2 
" style="fill:none;stroke:#777777;stroke-linecap:square;stroke-width:0.8;"/>
     </g>
     <g id="line2d_116">
      <g>
       <use style="stroke:#000000;stroke-width:0.8;" x="59.735" xlink:href="#mdc80396e89" y="1038.04"/>
      </g>
     </g>
     <g id="text_32">
      <!-- 10Hz -->
      <g transform="translate(46.988125 1052.638438)scale(0.1 -0.1)">
       <use xlink:href="#DejaVuSans-49"/>
       <use x="63.623047" xlink:href="#DejaVuSans-48"/>
       <use x="127.246094" xlink:href="#DejaVuSans-72"/>
       <use x="202.441406" xlink:href="#DejaVuSans-122"/>
      </g>
     </g>
    </g>
    <g id="xtick_42">
     <g id="line2d_117">
      <path clip-path="url(#p5fcf182881)" d="M 59.735 1038.04 
L 59.735 745.2 
" style="fill:none;stroke:#777777;stroke-linecap:square;stroke-width:0.8;"/>
     </g>
     <g id="line2d_118">
      <g>
       <use style="stroke:#000000;stroke-width:0.8;" x="59.735" xlink:href="#mdc80396e89" y="1038.04"/>
      </g>
     </g>
    </g>
    <g id="xtick_43">
     <g id="line2d_119">
      <path clip-path="url(#p5fcf182881)" d="M 116.179495 1038.04 
L 116.179495 745.2 
" style="fill:none;stroke:#777777;stroke-linecap:square;stroke-width:0.8;"/>
     </g>
     <g id="line2d_120">
      <g>
       <use style="stroke:#000000;stroke-width:0.8;" x="116.179495" xlink:href="#mdc80396e89" y="1038.04"/>
      </g>
     </g>
    </g>
    <g id="xtick_44">
     <g id="line2d_121">
      <path clip-path="url(#p5fcf182881)" d="M 149.197408 1038.04 
L 149.197408 745.2 
" style="fill:none;stroke:#777777;stroke-linecap:square;stroke-width:0.8;"/>
     </g>
     <g id="line2d_122">
      <g>
       <use style="stroke:#000000;stroke-width:0.8;" x="149.197408" xlink:href="#mdc80396e89" y="1038.04"/>
      </g>
     </g>
    </g>
    <g id="xtick_45">
     <g id="line2d_123">
      <path clip-path="url(#p5fcf182881)" d="M 172.62399 1038.04 
L 172.62399 745.2 
" style="fill:none;stroke:#777777;stroke-linecap:square;stroke-width:0.8;"/>
     </g>
     <g id="line2d_124">
      <g>
       <use style="stroke:#000000;stroke-width:0.8;" x="172.62399" xlink:href="#mdc80396e89" y="1038.04"/>
      </g>
     </g>
    </g>
    <g id="xtick_46">
     <g id="line2d_125">
      <path clip-path="url(#p5fcf182881)" d="M 190.795059 1038.04 
L 190.795059 745.2 
" style="fill:none;stroke:#777777;stroke-linecap:square;stroke-width:0.8;"/>
     </g>
     <g id="line2d_126">
      <g>
       <use style="stroke:#000000;stroke-width:0.8;" x="190.795059" xlink:href="#mdc80396e89" y="1038.04"/>
      </g>
     </g>
    </g>
    <g id="xtick_47">
     <g id="line2d_127">
      <path clip-path="url(#p5fcf182881)" d="M 205.641903 1038.04 
L 205.641903 745.2 
" style="fill:none;stroke:#777777;stroke-linecap:square;stroke-width:0.8;"/>
     </g>
     <g id="line2d_128">
      <g>
       <use style="stroke:#000000;stroke-width:0.8;" x="205.641903" xlink:href="#mdc80396e89" y="1038.04"/>
      </g>
     </g>
    </g>
    <g id="xtick_48">
     <g id="line2d_129">
      <path clip-path="url(#p5fcf182881)" d="M 218.194731 1038.04 
L 218.194731 745.2 
" style="fill:none;stroke:#777777;stroke-linecap:square;stroke-width:0.8;"/>
     </g>
     <g id="line2d_130">
      <g>
       <use style="stroke:#000000;stroke-width:0.8;" x="218.194731" xlink:href="#mdc80396e89" y="1038.04"/>
      </g>
     </g>
    </g>
    <g id="xtick_49">
     <g id="line2d_131">
      <path clip-path="url(#p5fcf182881)" d="M 229.068485 1038.04 
L 229.068485 745.2 
" style="fill:none;stroke:#777777;stroke-linecap:square;stroke-width:0.8;"/>
     </g>
     <g id="line2d_132">
      <g>
       <use style="stroke:#000000;stroke-width:0.8;" x="229.068485" xlink:href="#mdc80396e89" y="1038.04"/>
      </g>
     </g>
    </g>
    <g id="xtick_50">
     <g id="line2d_133">
      <path clip-path="url(#p5fcf182881)" d="M 238.659816 1038.04 
L 238.659816 745.2 
" style="fill:none;stroke:#777777;stroke-linecap:square;stroke-width:0.8;"/>
     </g>
     <g id="line2d_134">
      <g>
       <use style="stroke:#000000;stroke-width:0.8;" x="238.659816" xlink:href="#mdc80396e89" y="1038.04"/>
      </g>
     </g>
    </g>
    <g id="xtick_51">
     <g id="line2d_135">
      <path clip-path="url(#p5fcf182881)" d="M 247.239554 1038.04 
L 247.239554 745.2 
" style="fill:none;stroke:#777777;stroke-linecap:square;stroke-width:0.8;"/>
     </g>
     <g id="line2d_136">
      <g>
       <use style="stroke:#000000;stroke-width:0.8;" x="247.239554" xlink:href="#mdc80396e89" y="1038.04"/>
      </g>
     </g>
     <g id="text_33">
      <!-- 100Hz -->
      <g transform="translate(231.311429 1052.638438)scale(0.1 -0.1)">
       <use xlink:href="#DejaVuSans-49"/>
       <use x="63.623047" xlink:href="#DejaVuSans-48"/>
       <use x="127.246094" xlink:href="#DejaVuSans-48"/>
       <use x="190.869141" xlink:href="#DejaVuSans-72"/>
       <use x="266.064453" xlink:href="#DejaVuSans-122"/>
      </g>
     </g>
    </g>
    <g id="xtick_52">
     <g id="line2d_137">
      <path clip-path="url(#p5fcf182881)" d="M 247.239554 1038.04 
L 247.239554 745.2 
" style="fill:none;stroke:#777777;stroke-linecap:square;stroke-width:0.8;"/>
     </g>
     <g id="line2d_138">
      <g>
       <use style="stroke:#000000;stroke-width:0.8;" x="247.239554" xlink:href="#mdc80396e89" y="1038.04"/>
      </g>
     </g>
    </g>
    <g id="xtick_53">
     <g id="line2d_139">
      <path clip-path="url(#p5fcf182881)" d="M 303.684049 1038.04 
L 303.684049 745.2 
" style="fill:none;stroke:#777777;stroke-linecap:square;stroke-width:0.8;"/>
     </g>
     <g id="line2d_140">
      <g>
       <use style="stroke:#000000;stroke-width:0.8;" x="303.684049" xlink:href="#mdc80396e89" y="1038.04"/>
      </g>
     </g>
    </g>
    <g id="xtick_54">
     <g id="line2d_141">
      <path clip-path="url(#p5fcf182881)" d="M 336.701962 1038.04 
L 336.701962 745.2 
" style="fill:none;stroke:#777777;stroke-linecap:square;stroke-width:0.8;"/>
     </g>
     <g id="line2d_142">
      <g>
       <use style="stroke:#000000;stroke-width:0.8;" x="336.701962" xlink:href="#mdc80396e89" y="1038.04"/>
      </g>
     </g>
    </g>
    <g id="xtick_55">
     <g id="line2d_143">
      <path clip-path="url(#p5fcf182881)" d="M 360.128544 1038.04 
L 360.128544 745.2 
" style="fill:none;stroke:#777777;stroke-linecap:square;stroke-width:0.8;"/>
     </g>
     <g id="line2d_144">
      <g>
       <use style="stroke:#000000;stroke-width:0.8;" x="360.128544" xlink:href="#mdc80396e89" y="1038.04"/>
      </g>
     </g>
    </g>
    <g id="xtick_56">
     <g id="line2d_145">
      <path clip-path="url(#p5fcf182881)" d="M 378.299612 1038.04 
L 378.299612 745.2 
" style="fill:none;stroke:#777777;stroke-linecap:square;stroke-width:0.8;"/>
     </g>
     <g id="line2d_146">
      <g>
       <use style="stroke:#000000;stroke-width:0.8;" x="378.299612" xlink:href="#mdc80396e89" y="1038.04"/>
      </g>
     </g>
    </g>
    <g id="xtick_57">
     <g id="line2d_147">
      <path clip-path="url(#p5fcf182881)" d="M 393.146456 1038.04 
L 393.146456 745.2 
" style="fill:none;stroke:#777777;stroke-linecap:square;stroke-width:0.8;"/>
     </g>
     <g id="line2d_148">
      <g>
       <use style="stroke:#000000;stroke-width:0.8;" x="393.146456" xlink:href="#mdc80396e89" y="1038.04"/>
      </g>
     </g>
    </g>
    <g id="xtick_58">
     <g id="line2d_149">
      <path clip-path="url(#p5fcf182881)" d="M 405.699284 1038.04 
L 405.699284 745.2 
" style="fill:none;stroke:#777777;stroke-linecap:square;stroke-width:0.8;"/>
     </g>
     <g id="line2d_150">
      <g>
       <use style="stroke:#000000;stroke-width:0.8;" x="405.699284" xlink:href="#mdc80396e89" y="1038.04"/>
      </g>
     </g>
    </g>
    <g id="xtick_59">
     <g id="line2d_151">
      <path clip-path="url(#p5fcf182881)" d="M 416.573038 1038.04 
L 416.573038 745.2 
" style="fill:none;stroke:#777777;stroke-linecap:square;stroke-width:0.8;"/>
     </g>
     <g id="line2d_152">
      <g>
       <use style="stroke:#000000;stroke-width:0.8;" x="416.573038" xlink:href="#mdc80396e89" y="1038.04"/>
      </g>
     </g>
    </g>
    <g id="xtick_60">
     <g id="line2d_153">
      <path clip-path="url(#p5fcf182881)" d="M 426.164369 1038.04 
L 426.164369 745.2 
" style="fill:none;stroke:#777777;stroke-linecap:square;stroke-width:0.8;"/>
     </g>
     <g id="line2d_154">
      <g>
       <use style="stroke:#000000;stroke-width:0.8;" x="426.164369" xlink:href="#mdc80396e89" y="1038.04"/>
      </g>
     </g>
    </g>
    <g id="xtick_61">
     <g id="line2d_155">
      <path clip-path="url(#p5fcf182881)" d="M 434.744107 1038.04 
L 434.744107 745.2 
" style="fill:none;stroke:#777777;stroke-linecap:square;stroke-width:0.8;"/>
     </g>
     <g id="line2d_156">
      <g>
       <use style="stroke:#000000;stroke-width:0.8;" x="434.744107" xlink:href="#mdc80396e89" y="1038.04"/>
      </g>
     </g>
     <g id="text_34">
      <!-- 1kHz -->
      <g transform="translate(422.28317 1052.638438)scale(0.1 -0.1)">
       <use xlink:href="#DejaVuSans-49"/>
       <use x="63.623047" xlink:href="#DejaVuSans-107"/>
       <use x="121.533203" xlink:href="#DejaVuSans-72"/>
       <use x="196.728516" xlink:href="#DejaVuSans-122"/>
      </g>
     </g>
    </g>
    <g id="xtick_62">
     <g id="line2d_157">
      <path clip-path="url(#p5fcf182881)" d="M 434.744107 1038.04 
L 434.744107 745.2 
" style="fill:none;stroke:#777777;stroke-linecap:square;stroke-width:0.8;"/>
     </g>
     <g id="line2d_158">
      <g>
       <use style="stroke:#000000;stroke-width:0.8;" x="434.744107" xlink:href="#mdc80396e89" y="1038.04"/>
      </g>
     </g>
    </g>
    <g id="xtick_63">
     <g id="line2d_159">
      <path clip-path="url(#p5fcf182881)" d="M 491.188602 1038.04 
L 491.188602 745.2 
" style="fill:none;stroke:#777777;stroke-linecap:square;stroke-width:0.8;"/>
     </g>
     <g id="line2d_160">
      <g>
       <use style="stroke:#000000;stroke-width:0.8;" x="491.188602" xlink:href="#mdc80396e89" y="1038.04"/>
      </g>
     </g>
    </g>
    <g id="xtick_64">
     <g id="line2d_161">
      <path clip-path="url(#p5fcf182881)" d="M 524.206515 1038.04 
L 524.206515 745.2 
" style="fill:none;stroke:#777777;stroke-linecap:square;stroke-width:0.8;"/>
     </g>
     <g id="line2d_162">
      <g>
       <use style="stroke:#000000;stroke-width:0.8;" x="524.206515" xlink:href="#mdc80396e89" y="1038.04"/>
      </g>
     </g>
    </g>
    <g id="xtick_65">
     <g id="line2d_163">
      <path clip-path="url(#p5fcf182881)" d="M 547.633097 1038.04 
L 547.633097 745.2 
" style="fill:none;stroke:#777777;stroke-linecap:square;stroke-width:0.8;"/>
     </g>
     <g id="line2d_164">
      <g>
       <use style="stroke:#000000;stroke-width:0.8;" x="547.633097" xlink:href="#mdc80396e89" y="1038.04"/>
      </g>
     </g>
    </g>
    <g id="xtick_66">
     <g id="line2d_165">
      <path clip-path="url(#p5fcf182881)" d="M 565.804166 1038.04 
L 565.804166 745.2 
" style="fill:none;stroke:#777777;stroke-linecap:square;stroke-width:0.8;"/>
     </g>
     <g id="line2d_166">
      <g>
       <use style="stroke:#000000;stroke-width:0.8;" x="565.804166" xlink:href="#mdc80396e89" y="1038.04"/>
      </g>
     </g>
    </g>
    <g id="xtick_67">
     <g id="line2d_167">
      <path clip-path="url(#p5fcf182881)" d="M 580.65101 1038.04 
L 580.65101 745.2 
" style="fill:none;stroke:#777777;stroke-linecap:square;stroke-width:0.8;"/>
     </g>
     <g id="line2d_168">
      <g>
       <use style="stroke:#000000;stroke-width:0.8;" x="580.65101" xlink:href="#mdc80396e89" y="1038.04"/>
      </g>
     </g>
    </g>
    <g id="xtick_68">
     <g id="line2d_169">
      <path clip-path="url(#p5fcf182881)" d="M 593.203838 1038.04 
L 593.203838 745.2 
" style="fill:none;stroke:#777777;stroke-linecap:square;stroke-width:0.8;"/>
     </g>
     <g id="line2d_170">
      <g>
       <use style="stroke:#000000;stroke-width:0.8;" x="593.203838" xlink:href="#mdc80396e89" y="1038.04"/>
      </g>
     </g>
    </g>
    <g id="xtick_69">
     <g id="line2d_171">
      <path clip-path="url(#p5fcf182881)" d="M 604.077592 1038.04 
L 604.077592 745.2 
" style="fill:none;stroke:#777777;stroke-linecap:square;stroke-width:0.8;"/>
     </g>
     <g id="line2d_172">
      <g>
       <use style="stroke:#000000;stroke-width:0.8;" x="604.077592" xlink:href="#mdc80396e89" y="1038.04"/>
      </g>
     </g>
    </g>
    <g id="xtick_70">
     <g id="line2d_173">
      <path clip-path="url(#p5fcf182881)" d="M 613.668923 1038.04 
L 613.668923 745.2 
" style="fill:none;stroke:#777777;stroke-linecap:square;stroke-width:0.8;"/>
     </g>
     <g id="line2d_174">
      <g>
       <use style="stroke:#000000;stroke-width:0.8;" x="613.668923" xlink:href="#mdc80396e89" y="1038.04"/>
      </g>
     </g>
    </g>
    <g id="xtick_71">
     <g id="line2d_175">
      <path clip-path="url(#p5fcf182881)" d="M 622.248661 1038.04 
L 622.248661 745.2 
" style="fill:none;stroke:#777777;stroke-linecap:square;stroke-width:0.8;"/>
     </g>
     <g id="line2d_176">
      <g>
       <use style="stroke:#000000;stroke-width:0.8;" x="622.248661" xlink:href="#mdc80396e89" y="1038.04"/>
      </g>
     </g>
     <g id="text_35">
      <!-- 10kHz -->
      <g transform="translate(606.606473 1052.638438)scale(0.1 -0.1)">
       <use xlink:href="#DejaVuSans-49"/>
       <use x="63.623047" xlink:href="#DejaVuSans-48"/>
       <use x="127.246094" xlink:href="#DejaVuSans-107"/>
       <use x="185.15625" xlink:href="#DejaVuSans-72"/>
       <use x="260.351562" xlink:href="#DejaVuSans-122"/>
      </g>
     </g>
    </g>
    <g id="xtick_72">
     <g id="line2d_177">
      <path clip-path="url(#p5fcf182881)" d="M 622.248661 1038.04 
L 622.248661 745.2 
" style="fill:none;stroke:#777777;stroke-linecap:square;stroke-width:0.8;"/>
     </g>
     <g id="line2d_178">
      <g>
       <use style="stroke:#000000;stroke-width:0.8;" x="622.248661" xlink:href="#mdc80396e89" y="1038.04"/>
      </g>
     </g>
    </g>
    <g id="xtick_73">
     <g id="line2d_179">
      <path clip-path="url(#p5fcf182881)" d="M 678.693156 1038.04 
L 678.693156 745.2 
" style="fill:none;stroke:#777777;stroke-linecap:square;stroke-width:0.8;"/>
     </g>
     <g id="line2d_180">
      <g>
       <use style="stroke:#000000;stroke-width:0.8;" x="678.693156" xlink:href="#mdc80396e89" y="1038.04"/>
      </g>
     </g>
    </g>
    <g id="xtick_74">
     <g id="line2d_181">
      <path clip-path="url(#p5fcf182881)" d="M 693.54 1038.04 
L 693.54 745.2 
" style="fill:none;stroke:#777777;stroke-linecap:square;stroke-width:0.8;"/>
     </g>
     <g id="line2d_182">
      <g>
       <use style="stroke:#000000;stroke-width:0.8;" x="693.54" xlink:href="#mdc80396e89" y="1038.04"/>
      </g>
     </g>
     <g id="text_36">
      <!-- 24kHz -->
      <g transform="translate(677.897813 1052.638438)scale(0.1 -0.1)">
       <use xlink:href="#DejaVuSans-50"/>
       <use x="63.623047" xlink:href="#DejaVuSans-52"/>
       <use x="127.246094" xlink:href="#DejaVuSans-107"/>
       <use x="185.15625" xlink:href="#DejaVuSans-72"/>
       <use x="260.351562" xlink:href="#DejaVuSans-122"/>
      </g>
     </g>
    </g>
    <g id="text_37">
     <!-- Frequency (Hz) -->
     <g transform="translate(338.464844 1066.316563)scale(0.1 -0.1)">
      <use xlink:href="#DejaVuSans-70"/>
      <use x="57.410156" xlink:href="#DejaVuSans-114"/>
      <use x="98.492188" xlink:href="#DejaVuSans-101"/>
      <use x="160.015625" xlink:href="#DejaVuSans-113"/>
      <use x="223.492188" xlink:href="#DejaVuSans-117"/>
      <use x="286.871094" xlink:href="#DejaVuSans-101"/>
      <use x="348.394531" xlink:href="#DejaVuSans-110"/>
      <use x="411.773438" xlink:href="#DejaVuSans-99"/>
      <use x="466.753906" xlink:href="#DejaVuSans-121"/>
      <use x="525.933594" xlink:href="#DejaVuSans-32"/>
      <use x="557.720703" xlink:href="#DejaVuSans-40"/>
      <use x="596.734375" xlink:href="#DejaVuSans-72"/>
      <use x="671.929688" xlink:href="#DejaVuSans-122"/>
      <use x="724.419922" xlink:href="#DejaVuSans-41"/>
     </g>
    </g>
   </g>
   <g id="matplotlib.axis_6">
    <g id="ytick_17">
     <g id="line2d_183">
      <path clip-path="url(#p5fcf182881)" d="M 59.735 1007.214737 
L 693.54 1007.214737 
" style="fill:none;stroke:#777777;stroke-linecap:square;stroke-width:0.8;"/>
     </g>
     <g id="line2d_184">
      <g>
       <use style="stroke:#000000;stroke-width:0.8;" x="59.735" xlink:href="#m4e7416062d" y="1007.214737"/>
      </g>
     </g>
     <g id="text_38">
      <!-- −150 -->
      <defs>
       <path d="M 10.796875 72.90625 
L 49.515625 72.90625 
L 49.515625 64.59375 
L 19.828125 64.59375 
L 19.828125 46.734375 
Q 21.96875 47.46875 24.109375 47.828125 
Q 26.265625 48.1875 28.421875 48.1875 
Q 40.625 48.1875 47.75 41.5 
Q 54.890625 34.8125 54.890625 23.390625 
Q 54.890625 11.625 47.5625 5.09375 
Q 40.234375 -1.421875 26.90625 -1.421875 
Q 22.3125 -1.421875 17.546875 -0.640625 
Q 12.796875 0.140625 7.71875 1.703125 
L 7.71875 11.625 
Q 12.109375 9.234375 16.796875 8.0625 
Q 21.484375 6.890625 26.703125 6.890625 
Q 35.15625 6.890625 40.078125 11.328125 
Q 45.015625 15.765625 45.015625 23.390625 
Q 45.015625 31 40.078125 35.4375 
Q 35.15625 39.890625 26.703125 39.890625 
Q 22.75 39.890625 18.8125 39.015625 
Q 14.890625 38.140625 10.796875 36.28125 
z
" id="DejaVuSans-53"/>
      </defs>
      <g transform="translate(25.267812 1011.013956)scale(0.1 -0.1)">
       <use xlink:href="#DejaVuSans-8722"/>
       <use x="83.789062" xlink:href="#DejaVuSans-49"/>
       <use x="147.412109" xlink:href="#DejaVuSans-53"/>
       <use x="211.035156" xlink:href="#DejaVuSans-48"/>
      </g>
     </g>
    </g>
    <g id="ytick_18">
     <g id="line2d_185">
      <path clip-path="url(#p5fcf182881)" d="M 59.735 968.683158 
L 693.54 968.683158 
" style="fill:none;stroke:#777777;stroke-linecap:square;stroke-width:0.8;"/>
     </g>
     <g id="line2d_186">
      <g>
       <use style="stroke:#000000;stroke-width:0.8;" x="59.735" xlink:href="#m4e7416062d" y="968.683158"/>
      </g>
     </g>
     <g id="text_39">
      <!-- −100 -->
      <g transform="translate(25.267812 972.482377)scale(0.1 -0.1)">
       <use xlink:href="#DejaVuSans-8722"/>
       <use x="83.789062" xlink:href="#DejaVuSans-49"/>
       <use x="147.412109" xlink:href="#DejaVuSans-48"/>
       <use x="211.035156" xlink:href="#DejaVuSans-48"/>
      </g>
     </g>
    </g>
    <g id="ytick_19">
     <g id="line2d_187">
      <path clip-path="url(#p5fcf182881)" d="M 59.735 930.151579 
L 693.54 930.151579 
" style="fill:none;stroke:#777777;stroke-linecap:square;stroke-width:0.8;"/>
     </g>
     <g id="line2d_188">
      <g>
       <use style="stroke:#000000;stroke-width:0.8;" x="59.735" xlink:href="#m4e7416062d" y="930.151579"/>
      </g>
     </g>
     <g id="text_40">
      <!-- −50 -->
      <g transform="translate(31.630312 933.950798)scale(0.1 -0.1)">
       <use xlink:href="#DejaVuSans-8722"/>
       <use x="83.789062" xlink:href="#DejaVuSans-53"/>
       <use x="147.412109" xlink:href="#DejaVuSans-48"/>
      </g>
     </g>
    </g>
    <g id="ytick_20">
     <g id="line2d_189">
      <path clip-path="url(#p5fcf182881)" d="M 59.735 891.62 
L 693.54 891.62 
" style="fill:none;stroke:#777777;stroke-linecap:square;stroke-width:0.8;"/>
     </g>
     <g id="line2d_190">
      <g>
       <use style="stroke:#000000;stroke-width:0.8;" x="59.735" xlink:href="#m4e7416062d" y="891.62"/>
      </g>
     </g>
     <g id="text_41">
      <!-- 0 -->
      <g transform="translate(46.3725 895.419219)scale(0.1 -0.1)">
       <use xlink:href="#DejaVuSans-48"/>
      </g>
     </g>
    </g>
    <g id="ytick_21">
     <g id="line2d_191">
      <path clip-path="url(#p5fcf182881)" d="M 59.735 853.088421 
L 693.54 853.088421 
" style="fill:none;stroke:#777777;stroke-linecap:square;stroke-width:0.8;"/>
     </g>
     <g id="line2d_192">
      <g>
       <use style="stroke:#000000;stroke-width:0.8;" x="59.735" xlink:href="#m4e7416062d" y="853.088421"/>
      </g>
     </g>
     <g id="text_42">
      <!-- 50 -->
      <g transform="translate(40.01 856.88764)scale(0.1 -0.1)">
       <use xlink:href="#DejaVuSans-53"/>
       <use x="63.623047" xlink:href="#DejaVuSans-48"/>
      </g>
     </g>
    </g>
    <g id="ytick_22">
     <g id="line2d_193">
      <path clip-path="url(#p5fcf182881)" d="M 59.735 814.556842 
L 693.54 814.556842 
" style="fill:none;stroke:#777777;stroke-linecap:square;stroke-width:0.8;"/>
     </g>
     <g id="line2d_194">
      <g>
       <use style="stroke:#000000;stroke-width:0.8;" x="59.735" xlink:href="#m4e7416062d" y="814.556842"/>
      </g>
     </g>
     <g id="text_43">
      <!-- 100 -->
      <g transform="translate(33.6475 818.356061)scale(0.1 -0.1)">
       <use xlink:href="#DejaVuSans-49"/>
       <use x="63.623047" xlink:href="#DejaVuSans-48"/>
       <use x="127.246094" xlink:href="#DejaVuSans-48"/>
      </g>
     </g>
    </g>
    <g id="ytick_23">
     <g id="line2d_195">
      <path clip-path="url(#p5fcf182881)" d="M 59.735 776.025263 
L 693.54 776.025263 
" style="fill:none;stroke:#777777;stroke-linecap:square;stroke-width:0.8;"/>
     </g>
     <g id="line2d_196">
      <g>
       <use style="stroke:#000000;stroke-width:0.8;" x="59.735" xlink:href="#m4e7416062d" y="776.025263"/>
      </g>
     </g>
     <g id="text_44">
      <!-- 150 -->
      <g transform="translate(33.6475 779.824482)scale(0.1 -0.1)">
       <use xlink:href="#DejaVuSans-49"/>
       <use x="63.623047" xlink:href="#DejaVuSans-53"/>
       <use x="127.246094" xlink:href="#DejaVuSans-48"/>
      </g>
     </g>
    </g>
    <g id="text_45">
     <!-- Phase (${\circ}$) -->
     <defs>
      <path d="M 19.671875 64.796875 
L 19.671875 37.40625 
L 32.078125 37.40625 
Q 38.96875 37.40625 42.71875 40.96875 
Q 46.484375 44.53125 46.484375 51.125 
Q 46.484375 57.671875 42.71875 61.234375 
Q 38.96875 64.796875 32.078125 64.796875 
z
M 9.8125 72.90625 
L 32.078125 72.90625 
Q 44.34375 72.90625 50.609375 67.359375 
Q 56.890625 61.8125 56.890625 51.125 
Q 56.890625 40.328125 50.609375 34.8125 
Q 44.34375 29.296875 32.078125 29.296875 
L 19.671875 29.296875 
L 19.671875 0 
L 9.8125 0 
z
" id="DejaVuSans-80"/>
      <path d="M 54.890625 33.015625 
L 54.890625 0 
L 45.90625 0 
L 45.90625 32.71875 
Q 45.90625 40.484375 42.875 44.328125 
Q 39.84375 48.1875 33.796875 48.1875 
Q 26.515625 48.1875 22.3125 43.546875 
Q 18.109375 38.921875 18.109375 30.90625 
L 18.109375 0 
L 9.078125 0 
L 9.078125 75.984375 
L 18.109375 75.984375 
L 18.109375 46.1875 
Q 21.34375 51.125 25.703125 53.5625 
Q 30.078125 56 35.796875 56 
Q 45.21875 56 50.046875 50.171875 
Q 54.890625 44.34375 54.890625 33.015625 
z
" id="DejaVuSans-104"/>
      <path d="M 31.296875 40.671875 
Q 27.390625 40.671875 24.703125 37.953125 
Q 22.015625 35.25 22.015625 31.34375 
Q 22.015625 27.484375 24.703125 24.828125 
Q 27.390625 22.171875 31.296875 22.171875 
Q 35.203125 22.171875 37.890625 24.828125 
Q 40.578125 27.484375 40.578125 31.34375 
Q 40.578125 35.203125 37.859375 37.9375 
Q 35.15625 40.671875 31.296875 40.671875 
z
M 31.296875 46.96875 
Q 34.421875 46.96875 37.296875 45.765625 
Q 40.1875 44.578125 42.28125 42.328125 
Q 44.53125 40.140625 45.65625 37.34375 
Q 46.78125 34.5625 46.78125 31.34375 
Q 46.78125 24.90625 42.265625 20.4375 
Q 37.75 15.96875 31.203125 15.96875 
Q 24.609375 15.96875 20.21875 20.359375 
Q 15.828125 24.75 15.828125 31.34375 
Q 15.828125 37.890625 20.3125 42.421875 
Q 24.8125 46.96875 31.296875 46.96875 
z
" id="DejaVuSans-8728"/>
     </defs>
     <g transform="translate(19.188125 915.17)rotate(-90)scale(0.1 -0.1)">
      <use transform="translate(0 0.015625)" xlink:href="#DejaVuSans-80"/>
      <use transform="translate(60.302734 0.015625)" xlink:href="#DejaVuSans-104"/>
      <use transform="translate(123.681641 0.015625)" xlink:href="#DejaVuSans-97"/>
      <use transform="translate(184.960938 0.015625)" xlink:href="#DejaVuSans-115"/>
      <use transform="translate(237.060547 0.015625)" xlink:href="#DejaVuSans-101"/>
      <use transform="translate(298.583984 0.015625)" xlink:href="#DejaVuSans-32"/>
      <use transform="translate(330.371094 0.015625)" xlink:href="#DejaVuSans-40"/>
      <use transform="translate(369.384766 0.015625)" xlink:href="#DejaVuSans-8728"/>
      <use transform="translate(431.982422 0.015625)" xlink:href="#DejaVuSans-41"/>
     </g>
    </g>
   </g>
   <g id="line2d_197">
    <path clip-path="url(#p5fcf182881)" d="M -1 787.570134 
L 16.20606 787.573313 
L 72.650555 822.240326 
L 105.668468 856.907372 
L 129.09505 891.574459 
L 147.266119 926.241603 
L 162.112963 960.908812 
L 174.665791 995.576102 
L 185.539545 752.816118 
L 195.130876 787.483614 
L 203.710614 822.151241 
L 211.471931 856.819017 
L 218.557458 891.486946 
L 225.075511 926.154993 
L 231.110286 960.823072 
L 236.728527 995.491152 
L 241.98404 752.732193 
L 246.920836 787.401999 
L 251.575371 822.074756 
L 255.978184 856.750642 
L 260.155109 891.424929 
L 264.128199 926.085596 
L 267.916426 960.718335 
L 271.53623 995.324124 
L 275.001953 752.517077 
L 278.326178 787.243828 
L 281.520006 822.176464 
L 287.554781 892.347532 
L 295.843169 992.609847 
L 298.428535 1024.855882 
L 300.934339 781.750956 
L 303.365331 822.432425 
L 305.72585 870.134626 
L 308.019866 911.446985 
L 310.251025 941.35671 
L 312.422679 963.813718 
L 314.537919 980.891536 
L 316.599604 992.061399 
L 318.610378 993.706728 
L 322.488834 971.621932 
L 324.360921 971.061967 
L 326.190935 975.525906 
L 327.980725 981.19515 
L 329.732023 986.276159 
L 331.446448 989.910618 
L 333.125522 991.923746 
L 334.770673 992.836844 
L 336.383244 993.571887 
L 337.964501 994.834065 
L 339.515638 996.785272 
L 342.53199 1001.744304 
L 345.440591 1006.334525 
L 350.963534 1014.052134 
L 353.590607 1018.31103 
L 359.809826 1028.82103 
L 360.998638 753.467294 
L 364.464361 759.823093 
L 368.867174 768.332344 
L 373.044099 776.899656 
L 377.017189 785.564424 
L 380.805416 794.306783 
L 384.42522 803.155218 
L 387.890943 812.104499 
L 392.025445 823.461052 
L 395.960133 835.021467 
L 399.713433 846.815251 
L 403.301334 858.875142 
L 406.737802 871.241698 
L 410.035102 883.967814 
L 413.20407 897.121211 
L 416.254321 910.793015 
L 419.194431 925.104734 
L 422.032077 940.215892 
L 424.233081 953.010258 
L 426.376157 966.542046 
L 428.978046 984.592671 
L 431.499368 1003.814833 
L 434.42539 1027.687953 
L 434.902999 754.225485 
L 439.079925 787.949679 
L 441.750072 807.504345 
L 444.335438 824.602412 
L 446.841242 839.611701 
L 449.272234 852.935664 
L 452.019605 866.786973 
L 455.049989 880.848444 
L 457.971637 893.406037 
L 461.137866 906.083082 
L 464.51728 918.697167 
L 468.079495 931.105093 
L 471.795677 943.19705 
L 475.638926 954.89168 
L 479.308935 965.370114 
L 483.084614 975.515454 
L 486.944682 985.281542 
L 490.869885 994.637871 
L 495.070757 1004.06299 
L 499.281795 1012.950001 
L 503.491114 1021.316508 
L 507.88313 1029.537501 
L 508.077248 752.462119 
L 512.41881 760.095985 
L 516.889317 767.503142 
L 521.456805 774.629964 
L 526.09306 781.440735 
L 530.773491 787.914342 
L 535.47692 794.041216 
L 540.315899 799.97615 
L 545.252695 805.672695 
L 550.254489 811.100977 
L 555.293139 816.244455 
L 560.446799 821.191927 
L 565.77235 825.995325 
L 571.218571 830.606495 
L 576.824906 835.059233 
L 582.537555 839.313407 
L 588.455692 843.44354 
L 594.578159 847.444379 
L 600.956892 851.344576 
L 607.560709 855.121266 
L 614.512787 858.839287 
L 621.834084 862.500884 
L 629.647702 866.157908 
L 638.122805 869.875768 
L 647.600629 873.785406 
L 659.027324 878.24732 
L 691.771413 890.871471 
L 693.520117 891.611497 
L 693.520117 891.611497 
" style="fill:none;stroke:#0072bd;stroke-linecap:square;stroke-width:1.4;"/>
   </g>
   <g id="patch_13">
    <path d="M 59.735 1038.04 
L 59.735 745.2 
" style="fill:none;stroke:#000000;stroke-linecap:square;stroke-linejoin:miter;stroke-width:0.8;"/>
   </g>
   <g id="patch_14">
    <path d="M 693.54 1038.04 
L 693.54 745.2 
" style="fill:none;stroke:#000000;stroke-linecap:square;stroke-linejoin:miter;stroke-width:0.8;"/>
   </g>
   <g id="patch_15">
    <path d="M 59.735 1038.04 
L 693.54 1038.04 
" style="fill:none;stroke:#000000;stroke-linecap:square;stroke-linejoin:miter;stroke-width:0.8;"/>
   </g>
   <g id="patch_16">
    <path d="M 59.735 745.2 
L 693.54 745.2 
" style="fill:none;stroke:#000000;stroke-linecap:square;stroke-linejoin:miter;stroke-width:0.8;"/>
   </g>
  </g>
  <g id="text_46">
   <!-- 12th-order Butterworth filter, highpass 1khz -->
   <defs>
    <path d="M 4.890625 31.390625 
L 31.203125 31.390625 
L 31.203125 23.390625 
L 4.890625 23.390625 
z
" id="DejaVuSans-45"/>
    <path d="M 30.609375 48.390625 
Q 23.390625 48.390625 19.1875 42.75 
Q 14.984375 37.109375 14.984375 27.296875 
Q 14.984375 17.484375 19.15625 11.84375 
Q 23.34375 6.203125 30.609375 6.203125 
Q 37.796875 6.203125 41.984375 11.859375 
Q 46.1875 17.53125 46.1875 27.296875 
Q 46.1875 37.015625 41.984375 42.703125 
Q 37.796875 48.390625 30.609375 48.390625 
z
M 30.609375 56 
Q 42.328125 56 49.015625 48.375 
Q 55.71875 40.765625 55.71875 27.296875 
Q 55.71875 13.875 49.015625 6.21875 
Q 42.328125 -1.421875 30.609375 -1.421875 
Q 18.84375 -1.421875 12.171875 6.21875 
Q 5.515625 13.875 5.515625 27.296875 
Q 5.515625 40.765625 12.171875 48.375 
Q 18.84375 56 30.609375 56 
z
" id="DejaVuSans-111"/>
    <path d="M 4.203125 54.6875 
L 13.1875 54.6875 
L 24.421875 12.015625 
L 35.59375 54.6875 
L 46.1875 54.6875 
L 57.421875 12.015625 
L 68.609375 54.6875 
L 77.59375 54.6875 
L 63.28125 0 
L 52.6875 0 
L 40.921875 44.828125 
L 29.109375 0 
L 18.5 0 
z
" id="DejaVuSans-119"/>
    <path d="M 37.109375 75.984375 
L 37.109375 68.5 
L 28.515625 68.5 
Q 23.6875 68.5 21.796875 66.546875 
Q 19.921875 64.59375 19.921875 59.515625 
L 19.921875 54.6875 
L 34.71875 54.6875 
L 34.71875 47.703125 
L 19.921875 47.703125 
L 19.921875 0 
L 10.890625 0 
L 10.890625 47.703125 
L 2.296875 47.703125 
L 2.296875 54.6875 
L 10.890625 54.6875 
L 10.890625 58.5 
Q 10.890625 67.625 15.140625 71.796875 
Q 19.390625 75.984375 28.609375 75.984375 
z
" id="DejaVuSans-102"/>
    <path d="M 11.71875 12.40625 
L 22.015625 12.40625 
L 22.015625 4 
L 14.015625 -11.625 
L 7.71875 -11.625 
L 11.71875 4 
z
" id="DejaVuSans-44"/>
    <path d="M 45.40625 27.984375 
Q 45.40625 37.75 41.375 43.109375 
Q 37.359375 48.484375 30.078125 48.484375 
Q 22.859375 48.484375 18.828125 43.109375 
Q 14.796875 37.75 14.796875 27.984375 
Q 14.796875 18.265625 18.828125 12.890625 
Q 22.859375 7.515625 30.078125 7.515625 
Q 37.359375 7.515625 41.375 12.890625 
Q 45.40625 18.265625 45.40625 27.984375 
z
M 54.390625 6.78125 
Q 54.390625 -7.171875 48.1875 -13.984375 
Q 42 -20.796875 29.203125 -20.796875 
Q 24.46875 -20.796875 20.265625 -20.09375 
Q 16.0625 -19.390625 12.109375 -17.921875 
L 12.109375 -9.1875 
Q 16.0625 -11.328125 19.921875 -12.34375 
Q 23.78125 -13.375 27.78125 -13.375 
Q 36.625 -13.375 41.015625 -8.765625 
Q 45.40625 -4.15625 45.40625 5.171875 
L 45.40625 9.625 
Q 42.625 4.78125 38.28125 2.390625 
Q 33.9375 0 27.875 0 
Q 17.828125 0 11.671875 7.65625 
Q 5.515625 15.328125 5.515625 27.984375 
Q 5.515625 40.671875 11.671875 48.328125 
Q 17.828125 56 27.875 56 
Q 33.9375 56 38.28125 53.609375 
Q 42.625 51.21875 45.40625 46.390625 
L 45.40625 54.6875 
L 54.390625 54.6875 
z
" id="DejaVuSans-103"/>
   </defs>
   <g transform="translate(183.20875 33.7575)scale(0.16 -0.16)">
    <use xlink:href="#DejaVuSans-49"/>
    <use x="63.623047" xlink:href="#DejaVuSans-50"/>
    <use x="127.246094" xlink:href="#DejaVuSans-116"/>
    <use x="166.455078" xlink:href="#DejaVuSans-104"/>
    <use x="229.833984" xlink:href="#DejaVuSans-45"/>
    <use x="265.933594" xlink:href="#DejaVuSans-111"/>
    <use x="327.115234" xlink:href="#DejaVuSans-114"/>
    <use x="368.212891" xlink:href="#DejaVuSans-100"/>
    <use x="431.689453" xlink:href="#DejaVuSans-101"/>
    <use x="493.212891" xlink:href="#DejaVuSans-114"/>
    <use x="534.326172" xlink:href="#DejaVuSans-32"/>
    <use x="566.113281" xlink:href="#DejaVuSans-66"/>
    <use x="634.716797" xlink:href="#DejaVuSans-117"/>
    <use x="698.095703" xlink:href="#DejaVuSans-116"/>
    <use x="737.304688" xlink:href="#DejaVuSans-116"/>
    <use x="776.513672" xlink:href="#DejaVuSans-101"/>
    <use x="838.037109" xlink:href="#DejaVuSans-114"/>
    <use x="879.150391" xlink:href="#DejaVuSans-119"/>
    <use x="960.9375" xlink:href="#DejaVuSans-111"/>
    <use x="1022.119141" xlink:href="#DejaVuSans-114"/>
    <use x="1063.232422" xlink:href="#DejaVuSans-116"/>
    <use x="1102.441406" xlink:href="#DejaVuSans-104"/>
    <use x="1165.820312" xlink:href="#DejaVuSans-32"/>
    <use x="1197.607422" xlink:href="#DejaVuSans-102"/>
    <use x="1232.8125" xlink:href="#DejaVuSans-105"/>
    <use x="1260.595703" xlink:href="#DejaVuSans-108"/>
    <use x="1288.378906" xlink:href="#DejaVuSans-116"/>
    <use x="1327.587891" xlink:href="#DejaVuSans-101"/>
    <use x="1389.111328" xlink:href="#DejaVuSans-114"/>
    <use x="1430.224609" xlink:href="#DejaVuSans-44"/>
    <use x="1462.011719" xlink:href="#DejaVuSans-32"/>
    <use x="1493.798828" xlink:href="#DejaVuSans-104"/>
    <use x="1557.177734" xlink:href="#DejaVuSans-105"/>
    <use x="1584.960938" xlink:href="#DejaVuSans-103"/>
    <use x="1648.4375" xlink:href="#DejaVuSans-104"/>
    <use x="1711.816406" xlink:href="#DejaVuSans-112"/>
    <use x="1775.292969" xlink:href="#DejaVuSans-97"/>
    <use x="1836.572266" xlink:href="#DejaVuSans-115"/>
    <use x="1888.671875" xlink:href="#DejaVuSans-115"/>
    <use x="1940.771484" xlink:href="#DejaVuSans-32"/>
    <use x="1972.558594" xlink:href="#DejaVuSans-49"/>
    <use x="2036.181641" xlink:href="#DejaVuSans-107"/>
    <use x="2094.091797" xlink:href="#DejaVuSans-104"/>
    <use x="2157.470703" xlink:href="#DejaVuSans-122"/>
   </g>
  </g>
 </g>
 <defs>
  <clipPath id="p8eb76c013d">
   <rect height="292.84" width="633.805" x="59.735" y="75.6"/>
  </clipPath>
  <clipPath id="p17d9798417">
   <rect height="292.84" width="633.805" x="59.735" y="410.4"/>
  </clipPath>
  <clipPath id="p5fcf182881">
   <rect height="292.84" width="633.805" x="59.735" y="745.2"/>
  </clipPath>
 </defs>
</svg>
