<?xml version="1.0" encoding="utf-8" standalone="no"?>
<!DOCTYPE svg PUBLIC "-//W3C//DTD SVG 1.1//EN"
  "http://www.w3.org/Graphics/SVG/1.1/DTD/svg11.dtd">
<!-- Created with matplotlib (https://matplotlib.org/) -->
<svg height="1080pt" version="1.1" viewBox="0 0 720 1080" width="720pt" xmlns="http://www.w3.org/2000/svg" xmlns:xlink="http://www.w3.org/1999/xlink">
 <defs>
  <style type="text/css">
*{stroke-linecap:butt;stroke-linejoin:round;}
  </style>
 </defs>
 <g id="figure_1">
  <g id="patch_1">
   <path d="M 0 1080 
L 720 1080 
L 720 0 
L 0 0 
z
" style="fill:#ffffff;"/>
  </g>
  <g id="axes_1">
   <g id="patch_2">
    <path d="M 59.735 368.44 
L 693.54 368.44 
L 693.54 75.6 
L 59.735 75.6 
z
" style="fill:#ffffff;"/>
   </g>
   <g id="matplotlib.axis_1">
    <g id="xtick_1">
     <g id="line2d_1">
      <path clip-path="url(#pe1ad9ad180)" d="M 59.735 368.44 
L 59.735 75.6 
" style="fill:none;stroke:#777777;stroke-linecap:square;stroke-width:0.8;"/>
     </g>
     <g id="line2d_2">
      <defs>
       <path d="M 0 0 
L 0 3.5 
" id="m816ae47b83" style="stroke:#000000;stroke-width:0.8;"/>
      </defs>
      <g>
       <use style="stroke:#000000;stroke-width:0.8;" x="59.735" xlink:href="#m816ae47b83" y="368.44"/>
      </g>
     </g>
     <g id="text_1">
      <!-- 0 -->
      <defs>
       <path d="M 31.78125 66.40625 
Q 24.171875 66.40625 20.328125 58.90625 
Q 16.5 51.421875 16.5 36.375 
Q 16.5 21.390625 20.328125 13.890625 
Q 24.171875 6.390625 31.78125 6.390625 
Q 39.453125 6.390625 43.28125 13.890625 
Q 47.125 21.390625 47.125 36.375 
Q 47.125 51.421875 43.28125 58.90625 
Q 39.453125 66.40625 31.78125 66.40625 
z
M 31.78125 74.21875 
Q 44.046875 74.21875 50.515625 64.515625 
Q 56.984375 54.828125 56.984375 36.375 
Q 56.984375 17.96875 50.515625 8.265625 
Q 44.046875 -1.421875 31.78125 -1.421875 
Q 19.53125 -1.421875 13.0625 8.265625 
Q 6.59375 17.96875 6.59375 36.375 
Q 6.59375 54.828125 13.0625 64.515625 
Q 19.53125 74.21875 31.78125 74.21875 
z
" id="DejaVuSans-48"/>
      </defs>
      <g transform="translate(56.55375 383.038438)scale(0.1 -0.1)">
       <use xlink:href="#DejaVuSans-48"/>
      </g>
     </g>
    </g>
    <g id="xtick_2">
     <g id="line2d_3">
      <path clip-path="url(#pe1ad9ad180)" d="M 183.646046 368.44 
L 183.646046 75.6 
" style="fill:none;stroke:#777777;stroke-linecap:square;stroke-width:0.8;"/>
     </g>
     <g id="line2d_4">
      <g>
       <use style="stroke:#000000;stroke-width:0.8;" x="183.646046" xlink:href="#m816ae47b83" y="368.44"/>
      </g>
     </g>
     <g id="text_2">
      <!-- 200 -->
      <defs>
       <path d="M 19.1875 8.296875 
L 53.609375 8.296875 
L 53.609375 0 
L 7.328125 0 
L 7.328125 8.296875 
Q 12.9375 14.109375 22.625 23.890625 
Q 32.328125 33.6875 34.8125 36.53125 
Q 39.546875 41.84375 41.421875 45.53125 
Q 43.3125 49.21875 43.3125 52.78125 
Q 43.3125 58.59375 39.234375 62.25 
Q 35.15625 65.921875 28.609375 65.921875 
Q 23.96875 65.921875 18.8125 64.3125 
Q 13.671875 62.703125 7.8125 59.421875 
L 7.8125 69.390625 
Q 13.765625 71.78125 18.9375 73 
Q 24.125 74.21875 28.421875 74.21875 
Q 39.75 74.21875 46.484375 68.546875 
Q 53.21875 62.890625 53.21875 53.421875 
Q 53.21875 48.921875 51.53125 44.890625 
Q 49.859375 40.875 45.40625 35.40625 
Q 44.1875 33.984375 37.640625 27.21875 
Q 31.109375 20.453125 19.1875 8.296875 
z
" id="DejaVuSans-50"/>
      </defs>
      <g transform="translate(174.102296 383.038438)scale(0.1 -0.1)">
       <use xlink:href="#DejaVuSans-50"/>
       <use x="63.623047" xlink:href="#DejaVuSans-48"/>
       <use x="127.246094" xlink:href="#DejaVuSans-48"/>
      </g>
     </g>
    </g>
    <g id="xtick_3">
     <g id="line2d_5">
      <path clip-path="url(#pe1ad9ad180)" d="M 307.557092 368.44 
L 307.557092 75.6 
" style="fill:none;stroke:#777777;stroke-linecap:square;stroke-width:0.8;"/>
     </g>
     <g id="line2d_6">
      <g>
       <use style="stroke:#000000;stroke-width:0.8;" x="307.557092" xlink:href="#m816ae47b83" y="368.44"/>
      </g>
     </g>
     <g id="text_3">
      <!-- 400 -->
      <defs>
       <path d="M 37.796875 64.3125 
L 12.890625 25.390625 
L 37.796875 25.390625 
z
M 35.203125 72.90625 
L 47.609375 72.90625 
L 47.609375 25.390625 
L 58.015625 25.390625 
L 58.015625 17.1875 
L 47.609375 17.1875 
L 47.609375 0 
L 37.796875 0 
L 37.796875 17.1875 
L 4.890625 17.1875 
L 4.890625 26.703125 
z
" id="DejaVuSans-52"/>
      </defs>
      <g transform="translate(298.013342 383.038438)scale(0.1 -0.1)">
       <use xlink:href="#DejaVuSans-52"/>
       <use x="63.623047" xlink:href="#DejaVuSans-48"/>
       <use x="127.246094" xlink:href="#DejaVuSans-48"/>
      </g>
     </g>
    </g>
    <g id="xtick_4">
     <g id="line2d_7">
      <path clip-path="url(#pe1ad9ad180)" d="M 431.468138 368.44 
L 431.468138 75.6 
" style="fill:none;stroke:#777777;stroke-linecap:square;stroke-width:0.8;"/>
     </g>
     <g id="line2d_8">
      <g>
       <use style="stroke:#000000;stroke-width:0.8;" x="431.468138" xlink:href="#m816ae47b83" y="368.44"/>
      </g>
     </g>
     <g id="text_4">
      <!-- 600 -->
      <defs>
       <path d="M 33.015625 40.375 
Q 26.375 40.375 22.484375 35.828125 
Q 18.609375 31.296875 18.609375 23.390625 
Q 18.609375 15.53125 22.484375 10.953125 
Q 26.375 6.390625 33.015625 6.390625 
Q 39.65625 6.390625 43.53125 10.953125 
Q 47.40625 15.53125 47.40625 23.390625 
Q 47.40625 31.296875 43.53125 35.828125 
Q 39.65625 40.375 33.015625 40.375 
z
M 52.59375 71.296875 
L 52.59375 62.3125 
Q 48.875 64.0625 45.09375 64.984375 
Q 41.3125 65.921875 37.59375 65.921875 
Q 27.828125 65.921875 22.671875 59.328125 
Q 17.53125 52.734375 16.796875 39.40625 
Q 19.671875 43.65625 24.015625 45.921875 
Q 28.375 48.1875 33.59375 48.1875 
Q 44.578125 48.1875 50.953125 41.515625 
Q 57.328125 34.859375 57.328125 23.390625 
Q 57.328125 12.15625 50.6875 5.359375 
Q 44.046875 -1.421875 33.015625 -1.421875 
Q 20.359375 -1.421875 13.671875 8.265625 
Q 6.984375 17.96875 6.984375 36.375 
Q 6.984375 53.65625 15.1875 63.9375 
Q 23.390625 74.21875 37.203125 74.21875 
Q 40.921875 74.21875 44.703125 73.484375 
Q 48.484375 72.75 52.59375 71.296875 
z
" id="DejaVuSans-54"/>
      </defs>
      <g transform="translate(421.924388 383.038438)scale(0.1 -0.1)">
       <use xlink:href="#DejaVuSans-54"/>
       <use x="63.623047" xlink:href="#DejaVuSans-48"/>
       <use x="127.246094" xlink:href="#DejaVuSans-48"/>
      </g>
     </g>
    </g>
    <g id="xtick_5">
     <g id="line2d_9">
      <path clip-path="url(#pe1ad9ad180)" d="M 555.379184 368.44 
L 555.379184 75.6 
" style="fill:none;stroke:#777777;stroke-linecap:square;stroke-width:0.8;"/>
     </g>
     <g id="line2d_10">
      <g>
       <use style="stroke:#000000;stroke-width:0.8;" x="555.379184" xlink:href="#m816ae47b83" y="368.44"/>
      </g>
     </g>
     <g id="text_5">
      <!-- 800 -->
      <defs>
       <path d="M 31.78125 34.625 
Q 24.75 34.625 20.71875 30.859375 
Q 16.703125 27.09375 16.703125 20.515625 
Q 16.703125 13.921875 20.71875 10.15625 
Q 24.75 6.390625 31.78125 6.390625 
Q 38.8125 6.390625 42.859375 10.171875 
Q 46.921875 13.96875 46.921875 20.515625 
Q 46.921875 27.09375 42.890625 30.859375 
Q 38.875 34.625 31.78125 34.625 
z
M 21.921875 38.8125 
Q 15.578125 40.375 12.03125 44.71875 
Q 8.5 49.078125 8.5 55.328125 
Q 8.5 64.0625 14.71875 69.140625 
Q 20.953125 74.21875 31.78125 74.21875 
Q 42.671875 74.21875 48.875 69.140625 
Q 55.078125 64.0625 55.078125 55.328125 
Q 55.078125 49.078125 51.53125 44.71875 
Q 48 40.375 41.703125 38.8125 
Q 48.828125 37.15625 52.796875 32.3125 
Q 56.78125 27.484375 56.78125 20.515625 
Q 56.78125 9.90625 50.3125 4.234375 
Q 43.84375 -1.421875 31.78125 -1.421875 
Q 19.734375 -1.421875 13.25 4.234375 
Q 6.78125 9.90625 6.78125 20.515625 
Q 6.78125 27.484375 10.78125 32.3125 
Q 14.796875 37.15625 21.921875 38.8125 
z
M 18.3125 54.390625 
Q 18.3125 48.734375 21.84375 45.5625 
Q 25.390625 42.390625 31.78125 42.390625 
Q 38.140625 42.390625 41.71875 45.5625 
Q 45.3125 48.734375 45.3125 54.390625 
Q 45.3125 60.0625 41.71875 63.234375 
Q 38.140625 66.40625 31.78125 66.40625 
Q 25.390625 66.40625 21.84375 63.234375 
Q 18.3125 60.0625 18.3125 54.390625 
z
" id="DejaVuSans-56"/>
      </defs>
      <g transform="translate(545.835434 383.038438)scale(0.1 -0.1)">
       <use xlink:href="#DejaVuSans-56"/>
       <use x="63.623047" xlink:href="#DejaVuSans-48"/>
       <use x="127.246094" xlink:href="#DejaVuSans-48"/>
      </g>
     </g>
    </g>
    <g id="xtick_6">
     <g id="line2d_11">
      <path clip-path="url(#pe1ad9ad180)" d="M 679.29023 368.44 
L 679.29023 75.6 
" style="fill:none;stroke:#777777;stroke-linecap:square;stroke-width:0.8;"/>
     </g>
     <g id="line2d_12">
      <g>
       <use style="stroke:#000000;stroke-width:0.8;" x="679.29023" xlink:href="#m816ae47b83" y="368.44"/>
      </g>
     </g>
     <g id="text_6">
      <!-- 1000 -->
      <defs>
       <path d="M 12.40625 8.296875 
L 28.515625 8.296875 
L 28.515625 63.921875 
L 10.984375 60.40625 
L 10.984375 69.390625 
L 28.421875 72.90625 
L 38.28125 72.90625 
L 38.28125 8.296875 
L 54.390625 8.296875 
L 54.390625 0 
L 12.40625 0 
z
" id="DejaVuSans-49"/>
      </defs>
      <g transform="translate(666.56523 383.038438)scale(0.1 -0.1)">
       <use xlink:href="#DejaVuSans-49"/>
       <use x="63.623047" xlink:href="#DejaVuSans-48"/>
       <use x="127.246094" xlink:href="#DejaVuSans-48"/>
       <use x="190.869141" xlink:href="#DejaVuSans-48"/>
      </g>
     </g>
    </g>
    <g id="text_7">
     <!-- Samples -->
     <defs>
      <path d="M 53.515625 70.515625 
L 53.515625 60.890625 
Q 47.90625 63.578125 42.921875 64.890625 
Q 37.9375 66.21875 33.296875 66.21875 
Q 25.25 66.21875 20.875 63.09375 
Q 16.5 59.96875 16.5 54.203125 
Q 16.5 49.359375 19.40625 46.890625 
Q 22.3125 44.4375 30.421875 42.921875 
L 36.375 41.703125 
Q 47.40625 39.59375 52.65625 34.296875 
Q 57.90625 29 57.90625 20.125 
Q 57.90625 9.515625 50.796875 4.046875 
Q 43.703125 -1.421875 29.984375 -1.421875 
Q 24.8125 -1.421875 18.96875 -0.25 
Q 13.140625 0.921875 6.890625 3.21875 
L 6.890625 13.375 
Q 12.890625 10.015625 18.65625 8.296875 
Q 24.421875 6.59375 29.984375 6.59375 
Q 38.421875 6.59375 43.015625 9.90625 
Q 47.609375 13.234375 47.609375 19.390625 
Q 47.609375 24.75 44.3125 27.78125 
Q 41.015625 30.8125 33.5 32.328125 
L 27.484375 33.5 
Q 16.453125 35.6875 11.515625 40.375 
Q 6.59375 45.0625 6.59375 53.421875 
Q 6.59375 63.09375 13.40625 68.65625 
Q 20.21875 74.21875 32.171875 74.21875 
Q 37.3125 74.21875 42.625 73.28125 
Q 47.953125 72.359375 53.515625 70.515625 
z
" id="DejaVuSans-83"/>
      <path d="M 34.28125 27.484375 
Q 23.390625 27.484375 19.1875 25 
Q 14.984375 22.515625 14.984375 16.5 
Q 14.984375 11.71875 18.140625 8.90625 
Q 21.296875 6.109375 26.703125 6.109375 
Q 34.1875 6.109375 38.703125 11.40625 
Q 43.21875 16.703125 43.21875 25.484375 
L 43.21875 27.484375 
z
M 52.203125 31.203125 
L 52.203125 0 
L 43.21875 0 
L 43.21875 8.296875 
Q 40.140625 3.328125 35.546875 0.953125 
Q 30.953125 -1.421875 24.3125 -1.421875 
Q 15.921875 -1.421875 10.953125 3.296875 
Q 6 8.015625 6 15.921875 
Q 6 25.140625 12.171875 29.828125 
Q 18.359375 34.515625 30.609375 34.515625 
L 43.21875 34.515625 
L 43.21875 35.40625 
Q 43.21875 41.609375 39.140625 45 
Q 35.0625 48.390625 27.6875 48.390625 
Q 23 48.390625 18.546875 47.265625 
Q 14.109375 46.140625 10.015625 43.890625 
L 10.015625 52.203125 
Q 14.9375 54.109375 19.578125 55.046875 
Q 24.21875 56 28.609375 56 
Q 40.484375 56 46.34375 49.84375 
Q 52.203125 43.703125 52.203125 31.203125 
z
" id="DejaVuSans-97"/>
      <path d="M 52 44.1875 
Q 55.375 50.25 60.0625 53.125 
Q 64.75 56 71.09375 56 
Q 79.640625 56 84.28125 50.015625 
Q 88.921875 44.046875 88.921875 33.015625 
L 88.921875 0 
L 79.890625 0 
L 79.890625 32.71875 
Q 79.890625 40.578125 77.09375 44.375 
Q 74.3125 48.1875 68.609375 48.1875 
Q 61.625 48.1875 57.5625 43.546875 
Q 53.515625 38.921875 53.515625 30.90625 
L 53.515625 0 
L 44.484375 0 
L 44.484375 32.71875 
Q 44.484375 40.625 41.703125 44.40625 
Q 38.921875 48.1875 33.109375 48.1875 
Q 26.21875 48.1875 22.15625 43.53125 
Q 18.109375 38.875 18.109375 30.90625 
L 18.109375 0 
L 9.078125 0 
L 9.078125 54.6875 
L 18.109375 54.6875 
L 18.109375 46.1875 
Q 21.1875 51.21875 25.484375 53.609375 
Q 29.78125 56 35.6875 56 
Q 41.65625 56 45.828125 52.96875 
Q 50 49.953125 52 44.1875 
z
" id="DejaVuSans-109"/>
      <path d="M 18.109375 8.203125 
L 18.109375 -20.796875 
L 9.078125 -20.796875 
L 9.078125 54.6875 
L 18.109375 54.6875 
L 18.109375 46.390625 
Q 20.953125 51.265625 25.265625 53.625 
Q 29.59375 56 35.59375 56 
Q 45.5625 56 51.78125 48.09375 
Q 58.015625 40.1875 58.015625 27.296875 
Q 58.015625 14.40625 51.78125 6.484375 
Q 45.5625 -1.421875 35.59375 -1.421875 
Q 29.59375 -1.421875 25.265625 0.953125 
Q 20.953125 3.328125 18.109375 8.203125 
z
M 48.6875 27.296875 
Q 48.6875 37.203125 44.609375 42.84375 
Q 40.53125 48.484375 33.40625 48.484375 
Q 26.265625 48.484375 22.1875 42.84375 
Q 18.109375 37.203125 18.109375 27.296875 
Q 18.109375 17.390625 22.1875 11.75 
Q 26.265625 6.109375 33.40625 6.109375 
Q 40.53125 6.109375 44.609375 11.75 
Q 48.6875 17.390625 48.6875 27.296875 
z
" id="DejaVuSans-112"/>
      <path d="M 9.421875 75.984375 
L 18.40625 75.984375 
L 18.40625 0 
L 9.421875 0 
z
" id="DejaVuSans-108"/>
      <path d="M 56.203125 29.59375 
L 56.203125 25.203125 
L 14.890625 25.203125 
Q 15.484375 15.921875 20.484375 11.0625 
Q 25.484375 6.203125 34.421875 6.203125 
Q 39.59375 6.203125 44.453125 7.46875 
Q 49.3125 8.734375 54.109375 11.28125 
L 54.109375 2.78125 
Q 49.265625 0.734375 44.1875 -0.34375 
Q 39.109375 -1.421875 33.890625 -1.421875 
Q 20.796875 -1.421875 13.15625 6.1875 
Q 5.515625 13.8125 5.515625 26.8125 
Q 5.515625 40.234375 12.765625 48.109375 
Q 20.015625 56 32.328125 56 
Q 43.359375 56 49.78125 48.890625 
Q 56.203125 41.796875 56.203125 29.59375 
z
M 47.21875 32.234375 
Q 47.125 39.59375 43.09375 43.984375 
Q 39.0625 48.390625 32.421875 48.390625 
Q 24.90625 48.390625 20.390625 44.140625 
Q 15.875 39.890625 15.1875 32.171875 
z
" id="DejaVuSans-101"/>
      <path d="M 44.28125 53.078125 
L 44.28125 44.578125 
Q 40.484375 46.53125 36.375 47.5 
Q 32.28125 48.484375 27.875 48.484375 
Q 21.1875 48.484375 17.84375 46.4375 
Q 14.5 44.390625 14.5 40.28125 
Q 14.5 37.15625 16.890625 35.375 
Q 19.28125 33.59375 26.515625 31.984375 
L 29.59375 31.296875 
Q 39.15625 29.25 43.1875 25.515625 
Q 47.21875 21.78125 47.21875 15.09375 
Q 47.21875 7.46875 41.1875 3.015625 
Q 35.15625 -1.421875 24.609375 -1.421875 
Q 20.21875 -1.421875 15.453125 -0.5625 
Q 10.6875 0.296875 5.421875 2 
L 5.421875 11.28125 
Q 10.40625 8.6875 15.234375 7.390625 
Q 20.0625 6.109375 24.8125 6.109375 
Q 31.15625 6.109375 34.5625 8.28125 
Q 37.984375 10.453125 37.984375 14.40625 
Q 37.984375 18.0625 35.515625 20.015625 
Q 33.0625 21.96875 24.703125 23.78125 
L 21.578125 24.515625 
Q 13.234375 26.265625 9.515625 29.90625 
Q 5.8125 33.546875 5.8125 39.890625 
Q 5.8125 47.609375 11.28125 51.796875 
Q 16.75 56 26.8125 56 
Q 31.78125 56 36.171875 55.265625 
Q 40.578125 54.546875 44.28125 53.078125 
z
" id="DejaVuSans-115"/>
     </defs>
     <g transform="translate(355.284375 396.716563)scale(0.1 -0.1)">
      <use xlink:href="#DejaVuSans-83"/>
      <use x="63.476562" xlink:href="#DejaVuSans-97"/>
      <use x="124.755859" xlink:href="#DejaVuSans-109"/>
      <use x="222.167969" xlink:href="#DejaVuSans-112"/>
      <use x="285.644531" xlink:href="#DejaVuSans-108"/>
      <use x="313.427734" xlink:href="#DejaVuSans-101"/>
      <use x="374.951172" xlink:href="#DejaVuSans-115"/>
     </g>
    </g>
   </g>
   <g id="matplotlib.axis_2">
    <g id="ytick_1">
     <g id="line2d_13">
      <path clip-path="url(#pe1ad9ad180)" d="M 59.735 354.530339 
L 693.54 354.530339 
" style="fill:none;stroke:#777777;stroke-linecap:square;stroke-width:0.8;"/>
     </g>
     <g id="line2d_14">
      <defs>
       <path d="M 0 0 
L -3.5 0 
" id="me9cbca6570" style="stroke:#000000;stroke-width:0.8;"/>
      </defs>
      <g>
       <use style="stroke:#000000;stroke-width:0.8;" x="59.735" xlink:href="#me9cbca6570" y="354.530339"/>
      </g>
     </g>
     <g id="text_8">
      <!-- −0.6 -->
      <defs>
       <path d="M 10.59375 35.5 
L 73.1875 35.5 
L 73.1875 27.203125 
L 10.59375 27.203125 
z
" id="DejaVuSans-8722"/>
       <path d="M 10.6875 12.40625 
L 21 12.40625 
L 21 0 
L 10.6875 0 
z
" id="DejaVuSans-46"/>
      </defs>
      <g transform="translate(28.452187 358.329558)scale(0.1 -0.1)">
       <use xlink:href="#DejaVuSans-8722"/>
       <use x="83.789062" xlink:href="#DejaVuSans-48"/>
       <use x="147.412109" xlink:href="#DejaVuSans-46"/>
       <use x="179.199219" xlink:href="#DejaVuSans-54"/>
      </g>
     </g>
    </g>
    <g id="ytick_2">
     <g id="line2d_15">
      <path clip-path="url(#pe1ad9ad180)" d="M 59.735 295.769669 
L 693.54 295.769669 
" style="fill:none;stroke:#777777;stroke-linecap:square;stroke-width:0.8;"/>
     </g>
     <g id="line2d_16">
      <g>
       <use style="stroke:#000000;stroke-width:0.8;" x="59.735" xlink:href="#me9cbca6570" y="295.769669"/>
      </g>
     </g>
     <g id="text_9">
      <!-- −0.4 -->
      <g transform="translate(28.452187 299.568887)scale(0.1 -0.1)">
       <use xlink:href="#DejaVuSans-8722"/>
       <use x="83.789062" xlink:href="#DejaVuSans-48"/>
       <use x="147.412109" xlink:href="#DejaVuSans-46"/>
       <use x="179.199219" xlink:href="#DejaVuSans-52"/>
      </g>
     </g>
    </g>
    <g id="ytick_3">
     <g id="line2d_17">
      <path clip-path="url(#pe1ad9ad180)" d="M 59.735 237.008998 
L 693.54 237.008998 
" style="fill:none;stroke:#777777;stroke-linecap:square;stroke-width:0.8;"/>
     </g>
     <g id="line2d_18">
      <g>
       <use style="stroke:#000000;stroke-width:0.8;" x="59.735" xlink:href="#me9cbca6570" y="237.008998"/>
      </g>
     </g>
     <g id="text_10">
      <!-- −0.2 -->
      <g transform="translate(28.452187 240.808217)scale(0.1 -0.1)">
       <use xlink:href="#DejaVuSans-8722"/>
       <use x="83.789062" xlink:href="#DejaVuSans-48"/>
       <use x="147.412109" xlink:href="#DejaVuSans-46"/>
       <use x="179.199219" xlink:href="#DejaVuSans-50"/>
      </g>
     </g>
    </g>
    <g id="ytick_4">
     <g id="line2d_19">
      <path clip-path="url(#pe1ad9ad180)" d="M 59.735 178.248328 
L 693.54 178.248328 
" style="fill:none;stroke:#777777;stroke-linecap:square;stroke-width:0.8;"/>
     </g>
     <g id="line2d_20">
      <g>
       <use style="stroke:#000000;stroke-width:0.8;" x="59.735" xlink:href="#me9cbca6570" y="178.248328"/>
      </g>
     </g>
     <g id="text_11">
      <!-- 0.0 -->
      <g transform="translate(36.831875 182.047546)scale(0.1 -0.1)">
       <use xlink:href="#DejaVuSans-48"/>
       <use x="63.623047" xlink:href="#DejaVuSans-46"/>
       <use x="95.410156" xlink:href="#DejaVuSans-48"/>
      </g>
     </g>
    </g>
    <g id="ytick_5">
     <g id="line2d_21">
      <path clip-path="url(#pe1ad9ad180)" d="M 59.735 119.487657 
L 693.54 119.487657 
" style="fill:none;stroke:#777777;stroke-linecap:square;stroke-width:0.8;"/>
     </g>
     <g id="line2d_22">
      <g>
       <use style="stroke:#000000;stroke-width:0.8;" x="59.735" xlink:href="#me9cbca6570" y="119.487657"/>
      </g>
     </g>
     <g id="text_12">
      <!-- 0.2 -->
      <g transform="translate(36.831875 123.286876)scale(0.1 -0.1)">
       <use xlink:href="#DejaVuSans-48"/>
       <use x="63.623047" xlink:href="#DejaVuSans-46"/>
       <use x="95.410156" xlink:href="#DejaVuSans-50"/>
      </g>
     </g>
    </g>
    <g id="text_13">
     <!-- Amplitude -->
     <defs>
      <path d="M 34.1875 63.1875 
L 20.796875 26.90625 
L 47.609375 26.90625 
z
M 28.609375 72.90625 
L 39.796875 72.90625 
L 67.578125 0 
L 57.328125 0 
L 50.6875 18.703125 
L 17.828125 18.703125 
L 11.1875 0 
L 0.78125 0 
z
" id="DejaVuSans-65"/>
      <path d="M 9.421875 54.6875 
L 18.40625 54.6875 
L 18.40625 0 
L 9.421875 0 
z
M 9.421875 75.984375 
L 18.40625 75.984375 
L 18.40625 64.59375 
L 9.421875 64.59375 
z
" id="DejaVuSans-105"/>
      <path d="M 18.3125 70.21875 
L 18.3125 54.6875 
L 36.8125 54.6875 
L 36.8125 47.703125 
L 18.3125 47.703125 
L 18.3125 18.015625 
Q 18.3125 11.328125 20.140625 9.421875 
Q 21.96875 7.515625 27.59375 7.515625 
L 36.8125 7.515625 
L 36.8125 0 
L 27.59375 0 
Q 17.1875 0 13.234375 3.875 
Q 9.28125 7.765625 9.28125 18.015625 
L 9.28125 47.703125 
L 2.6875 47.703125 
L 2.6875 54.6875 
L 9.28125 54.6875 
L 9.28125 70.21875 
z
" id="DejaVuSans-116"/>
      <path d="M 8.5 21.578125 
L 8.5 54.6875 
L 17.484375 54.6875 
L 17.484375 21.921875 
Q 17.484375 14.15625 20.5 10.265625 
Q 23.53125 6.390625 29.59375 6.390625 
Q 36.859375 6.390625 41.078125 11.03125 
Q 45.3125 15.671875 45.3125 23.6875 
L 45.3125 54.6875 
L 54.296875 54.6875 
L 54.296875 0 
L 45.3125 0 
L 45.3125 8.40625 
Q 42.046875 3.421875 37.71875 1 
Q 33.40625 -1.421875 27.6875 -1.421875 
Q 18.265625 -1.421875 13.375 4.4375 
Q 8.5 10.296875 8.5 21.578125 
z
M 31.109375 56 
z
" id="DejaVuSans-117"/>
      <path d="M 45.40625 46.390625 
L 45.40625 75.984375 
L 54.390625 75.984375 
L 54.390625 0 
L 45.40625 0 
L 45.40625 8.203125 
Q 42.578125 3.328125 38.25 0.953125 
Q 33.9375 -1.421875 27.875 -1.421875 
Q 17.96875 -1.421875 11.734375 6.484375 
Q 5.515625 14.40625 5.515625 27.296875 
Q 5.515625 40.1875 11.734375 48.09375 
Q 17.96875 56 27.875 56 
Q 33.9375 56 38.25 53.625 
Q 42.578125 51.265625 45.40625 46.390625 
z
M 14.796875 27.296875 
Q 14.796875 17.390625 18.875 11.75 
Q 22.953125 6.109375 30.078125 6.109375 
Q 37.203125 6.109375 41.296875 11.75 
Q 45.40625 17.390625 45.40625 27.296875 
Q 45.40625 37.203125 41.296875 42.84375 
Q 37.203125 48.484375 30.078125 48.484375 
Q 22.953125 48.484375 18.875 42.84375 
Q 14.796875 37.203125 14.796875 27.296875 
z
" id="DejaVuSans-100"/>
     </defs>
     <g transform="translate(22.3725 247.642656)rotate(-90)scale(0.1 -0.1)">
      <use xlink:href="#DejaVuSans-65"/>
      <use x="68.408203" xlink:href="#DejaVuSans-109"/>
      <use x="165.820312" xlink:href="#DejaVuSans-112"/>
      <use x="229.296875" xlink:href="#DejaVuSans-108"/>
      <use x="257.080078" xlink:href="#DejaVuSans-105"/>
      <use x="284.863281" xlink:href="#DejaVuSans-116"/>
      <use x="324.072266" xlink:href="#DejaVuSans-117"/>
      <use x="387.451172" xlink:href="#DejaVuSans-100"/>
      <use x="450.927734" xlink:href="#DejaVuSans-101"/>
     </g>
    </g>
   </g>
   <g id="line2d_23">
    <path clip-path="url(#pe1ad9ad180)" d="M 59.735 90.637128 
L 60.354555 368.44 
L 60.97411 101.257995 
L 61.593666 89.544762 
L 62.213221 162.537788 
L 62.832776 216.318021 
L 63.452331 218.856564 
L 64.691442 149.172991 
L 65.310997 131.759202 
L 65.930552 138.649771 
L 67.169663 179.056115 
L 67.789218 185.565005 
L 68.408773 176.952802 
L 69.647884 142.841032 
L 70.267439 135.23766 
L 70.886994 139.20082 
L 72.74566 175.017556 
L 73.365215 176.539869 
L 73.98477 171.15552 
L 74.604326 163.116652 
L 75.223881 157.603751 
L 75.843436 158.258247 
L 76.462991 165.675244 
L 77.702102 189.224243 
L 78.321657 197.169066 
L 78.941212 199.096816 
L 79.560767 195.446722 
L 80.799878 182.54496 
L 81.419433 179.444167 
L 82.038988 180.450464 
L 83.278099 189.109864 
L 83.897654 191.570786 
L 84.517209 190.106083 
L 85.136764 184.604964 
L 86.375875 168.649629 
L 86.99543 163.180844 
L 87.614985 161.666806 
L 88.234541 164.073071 
L 90.093206 178.097894 
L 90.712761 179.285637 
L 91.332317 178.090254 
L 91.951872 175.763721 
L 92.571427 174.003384 
L 93.190982 174.20566 
L 93.810538 176.880931 
L 95.669203 190.32779 
L 96.288759 191.621516 
L 96.908314 189.936666 
L 97.527869 185.834798 
L 98.766979 175.908423 
L 99.386535 172.882101 
L 100.00609 172.048181 
L 100.625645 173.049514 
L 101.864756 176.461216 
L 102.484311 176.861972 
L 103.103866 175.88973 
L 104.342977 172.189011 
L 104.962532 171.415784 
L 105.582087 172.360443 
L 106.201642 175.064209 
L 107.440753 182.892636 
L 108.060308 185.890913 
L 108.679863 187.151139 
L 109.299418 186.484418 
L 109.918974 184.30596 
L 111.158084 178.826514 
L 111.777639 177.126317 
L 112.397195 176.567533 
L 113.01675 176.887163 
L 113.636305 177.497057 
L 114.25586 177.75786 
L 114.875415 177.255369 
L 115.494971 175.972593 
L 116.734081 172.859021 
L 117.353636 172.292715 
L 117.973192 172.975776 
L 118.592747 174.884904 
L 120.451413 182.671638 
L 121.070968 183.841586 
L 121.690523 183.797376 
L 122.310078 182.771357 
L 123.549189 179.772416 
L 124.168744 178.74354 
L 124.788299 178.295781 
L 126.646965 178.191607 
L 127.26652 177.54629 
L 129.125186 174.121441 
L 129.744741 173.685295 
L 130.364296 174.102606 
L 130.983851 175.356425 
L 132.842517 180.779276 
L 133.462072 181.776812 
L 134.081628 182.013475 
L 134.701183 181.600644 
L 136.559848 179.295262 
L 137.179404 178.907746 
L 139.038069 178.261912 
L 139.657625 177.671261 
L 141.51629 175.187308 
L 142.135846 174.877288 
L 142.755401 175.138743 
L 143.374956 175.963413 
L 145.233622 179.723631 
L 145.853177 180.527138 
L 146.472732 180.851881 
L 147.092287 180.742285 
L 148.331398 179.847613 
L 149.570508 179.061992 
L 151.429174 178.22939 
L 152.668284 177.113306 
L 153.907395 175.980243 
L 154.52695 175.776447 
L 155.146505 175.955559 
L 155.766061 176.512774 
L 158.244282 179.765488 
L 158.863837 180.086282 
L 159.483392 180.113313 
L 160.722502 179.625759 
L 162.581168 178.773299 
L 163.820279 178.187561 
L 166.2985 176.558812 
L 166.918055 176.433256 
L 167.53761 176.566749 
L 168.157165 176.955122 
L 170.635386 179.289131 
L 171.254941 179.56952 
L 171.874497 179.648681 
L 173.113607 179.382669 
L 176.211383 178.160944 
L 178.689604 176.983542 
L 179.309159 176.910853 
L 179.928715 177.015665 
L 180.54827 177.293643 
L 183.646046 179.211528 
L 184.265601 179.302511 
L 185.504712 179.157032 
L 187.982933 178.384563 
L 191.080709 177.298151 
L 191.700264 177.259116 
L 192.319819 177.34334 
L 193.55893 177.839566 
L 195.417595 178.774634 
L 196.656706 179.043088 
L 197.895816 178.963265 
L 199.754482 178.522468 
L 203.471813 177.532792 
L 204.710924 177.582258 
L 205.950034 177.945754 
L 207.8087 178.63244 
L 209.04781 178.848049 
L 210.286921 178.804006 
L 212.145587 178.458371 
L 215.243363 177.771524 
L 216.482473 177.701794 
L 217.721584 177.869328 
L 221.438915 178.701176 
L 222.678025 178.676605 
L 224.536691 178.407636 
L 227.634467 177.882706 
L 228.873578 177.840387 
L 230.112688 177.969346 
L 233.83002 178.590475 
L 235.688685 178.525011 
L 241.264682 177.943153 
L 243.123348 178.128749 
L 246.221124 178.506981 
L 248.07979 178.45978 
L 253.655787 178.019611 
L 256.134008 178.233251 
L 258.612229 178.443968 
L 261.09045 178.366698 
L 265.427336 178.072079 
L 267.905557 178.184283 
L 271.622889 178.40217 
L 274.720665 178.255782 
L 277.818441 178.114954 
L 280.916217 178.241977 
L 284.013993 178.364862 
L 287.731325 178.22069 
L 290.829101 178.151307 
L 299.502874 178.250902 
L 303.839761 178.185831 
L 310.654868 178.286386 
L 316.85042 178.214182 
L 323.045973 178.27686 
L 329.86108 178.234894 
L 336.056632 178.259403 
L 342.87174 178.248325 
L 349.067292 178.248097 
L 355.8824 178.255768 
L 363.936618 178.229963 
L 456.869902 178.250651 
L 693.54 178.248337 
L 693.54 178.248337 
" style="fill:none;stroke:#0072bd;stroke-linecap:square;stroke-width:1.4;"/>
   </g>
   <g id="patch_3">
    <path d="M 59.735 368.44 
L 59.735 75.6 
" style="fill:none;stroke:#000000;stroke-linecap:square;stroke-linejoin:miter;stroke-width:0.8;"/>
   </g>
   <g id="patch_4">
    <path d="M 693.54 368.44 
L 693.54 75.6 
" style="fill:none;stroke:#000000;stroke-linecap:square;stroke-linejoin:miter;stroke-width:0.8;"/>
   </g>
   <g id="patch_5">
    <path d="M 59.735 368.44 
L 693.54 368.44 
" style="fill:none;stroke:#000000;stroke-linecap:square;stroke-linejoin:miter;stroke-width:0.8;"/>
   </g>
   <g id="patch_6">
    <path d="M 59.735 75.6 
L 693.54 75.6 
" style="fill:none;stroke:#000000;stroke-linecap:square;stroke-linejoin:miter;stroke-width:0.8;"/>
   </g>
  </g>
  <g id="axes_2">
   <g id="patch_7">
    <path d="M 59.735 703.24 
L 693.54 703.24 
L 693.54 410.4 
L 59.735 410.4 
z
" style="fill:#ffffff;"/>
   </g>
   <g id="matplotlib.axis_3">
    <g id="xtick_7">
     <g id="line2d_24">
      <path clip-path="url(#p652a3695bd)" d="M 59.735 703.24 
L 59.735 410.4 
" style="fill:none;stroke:#777777;stroke-linecap:square;stroke-width:0.8;"/>
     </g>
     <g id="line2d_25">
      <g>
       <use style="stroke:#000000;stroke-width:0.8;" x="59.735" xlink:href="#m816ae47b83" y="703.24"/>
      </g>
     </g>
     <g id="text_14">
      <!-- 10Hz -->
      <defs>
       <path d="M 9.8125 72.90625 
L 19.671875 72.90625 
L 19.671875 43.015625 
L 55.515625 43.015625 
L 55.515625 72.90625 
L 65.375 72.90625 
L 65.375 0 
L 55.515625 0 
L 55.515625 34.71875 
L 19.671875 34.71875 
L 19.671875 0 
L 9.8125 0 
z
" id="DejaVuSans-72"/>
       <path d="M 5.515625 54.6875 
L 48.1875 54.6875 
L 48.1875 46.484375 
L 14.40625 7.171875 
L 48.1875 7.171875 
L 48.1875 0 
L 4.296875 0 
L 4.296875 8.203125 
L 38.09375 47.515625 
L 5.515625 47.515625 
z
" id="DejaVuSans-122"/>
      </defs>
      <g transform="translate(46.988125 717.838438)scale(0.1 -0.1)">
       <use xlink:href="#DejaVuSans-49"/>
       <use x="63.623047" xlink:href="#DejaVuSans-48"/>
       <use x="127.246094" xlink:href="#DejaVuSans-72"/>
       <use x="202.441406" xlink:href="#DejaVuSans-122"/>
      </g>
     </g>
    </g>
    <g id="xtick_8">
     <g id="line2d_26">
      <path clip-path="url(#p652a3695bd)" d="M 59.735 703.24 
L 59.735 410.4 
" style="fill:none;stroke:#777777;stroke-linecap:square;stroke-width:0.8;"/>
     </g>
     <g id="line2d_27">
      <g>
       <use style="stroke:#000000;stroke-width:0.8;" x="59.735" xlink:href="#m816ae47b83" y="703.24"/>
      </g>
     </g>
    </g>
    <g id="xtick_9">
     <g id="line2d_28">
      <path clip-path="url(#p652a3695bd)" d="M 116.179495 703.24 
L 116.179495 410.4 
" style="fill:none;stroke:#777777;stroke-linecap:square;stroke-width:0.8;"/>
     </g>
     <g id="line2d_29">
      <g>
       <use style="stroke:#000000;stroke-width:0.8;" x="116.179495" xlink:href="#m816ae47b83" y="703.24"/>
      </g>
     </g>
    </g>
    <g id="xtick_10">
     <g id="line2d_30">
      <path clip-path="url(#p652a3695bd)" d="M 149.197408 703.24 
L 149.197408 410.4 
" style="fill:none;stroke:#777777;stroke-linecap:square;stroke-width:0.8;"/>
     </g>
     <g id="line2d_31">
      <g>
       <use style="stroke:#000000;stroke-width:0.8;" x="149.197408" xlink:href="#m816ae47b83" y="703.24"/>
      </g>
     </g>
    </g>
    <g id="xtick_11">
     <g id="line2d_32">
      <path clip-path="url(#p652a3695bd)" d="M 172.62399 703.24 
L 172.62399 410.4 
" style="fill:none;stroke:#777777;stroke-linecap:square;stroke-width:0.8;"/>
     </g>
     <g id="line2d_33">
      <g>
       <use style="stroke:#000000;stroke-width:0.8;" x="172.62399" xlink:href="#m816ae47b83" y="703.24"/>
      </g>
     </g>
    </g>
    <g id="xtick_12">
     <g id="line2d_34">
      <path clip-path="url(#p652a3695bd)" d="M 190.795059 703.24 
L 190.795059 410.4 
" style="fill:none;stroke:#777777;stroke-linecap:square;stroke-width:0.8;"/>
     </g>
     <g id="line2d_35">
      <g>
       <use style="stroke:#000000;stroke-width:0.8;" x="190.795059" xlink:href="#m816ae47b83" y="703.24"/>
      </g>
     </g>
    </g>
    <g id="xtick_13">
     <g id="line2d_36">
      <path clip-path="url(#p652a3695bd)" d="M 205.641903 703.24 
L 205.641903 410.4 
" style="fill:none;stroke:#777777;stroke-linecap:square;stroke-width:0.8;"/>
     </g>
     <g id="line2d_37">
      <g>
       <use style="stroke:#000000;stroke-width:0.8;" x="205.641903" xlink:href="#m816ae47b83" y="703.24"/>
      </g>
     </g>
    </g>
    <g id="xtick_14">
     <g id="line2d_38">
      <path clip-path="url(#p652a3695bd)" d="M 218.194731 703.24 
L 218.194731 410.4 
" style="fill:none;stroke:#777777;stroke-linecap:square;stroke-width:0.8;"/>
     </g>
     <g id="line2d_39">
      <g>
       <use style="stroke:#000000;stroke-width:0.8;" x="218.194731" xlink:href="#m816ae47b83" y="703.24"/>
      </g>
     </g>
    </g>
    <g id="xtick_15">
     <g id="line2d_40">
      <path clip-path="url(#p652a3695bd)" d="M 229.068485 703.24 
L 229.068485 410.4 
" style="fill:none;stroke:#777777;stroke-linecap:square;stroke-width:0.8;"/>
     </g>
     <g id="line2d_41">
      <g>
       <use style="stroke:#000000;stroke-width:0.8;" x="229.068485" xlink:href="#m816ae47b83" y="703.24"/>
      </g>
     </g>
    </g>
    <g id="xtick_16">
     <g id="line2d_42">
      <path clip-path="url(#p652a3695bd)" d="M 238.659816 703.24 
L 238.659816 410.4 
" style="fill:none;stroke:#777777;stroke-linecap:square;stroke-width:0.8;"/>
     </g>
     <g id="line2d_43">
      <g>
       <use style="stroke:#000000;stroke-width:0.8;" x="238.659816" xlink:href="#m816ae47b83" y="703.24"/>
      </g>
     </g>
    </g>
    <g id="xtick_17">
     <g id="line2d_44">
      <path clip-path="url(#p652a3695bd)" d="M 247.239554 703.24 
L 247.239554 410.4 
" style="fill:none;stroke:#777777;stroke-linecap:square;stroke-width:0.8;"/>
     </g>
     <g id="line2d_45">
      <g>
       <use style="stroke:#000000;stroke-width:0.8;" x="247.239554" xlink:href="#m816ae47b83" y="703.24"/>
      </g>
     </g>
     <g id="text_15">
      <!-- 100Hz -->
      <g transform="translate(231.311429 717.838438)scale(0.1 -0.1)">
       <use xlink:href="#DejaVuSans-49"/>
       <use x="63.623047" xlink:href="#DejaVuSans-48"/>
       <use x="127.246094" xlink:href="#DejaVuSans-48"/>
       <use x="190.869141" xlink:href="#DejaVuSans-72"/>
       <use x="266.064453" xlink:href="#DejaVuSans-122"/>
      </g>
     </g>
    </g>
    <g id="xtick_18">
     <g id="line2d_46">
      <path clip-path="url(#p652a3695bd)" d="M 247.239554 703.24 
L 247.239554 410.4 
" style="fill:none;stroke:#777777;stroke-linecap:square;stroke-width:0.8;"/>
     </g>
     <g id="line2d_47">
      <g>
       <use style="stroke:#000000;stroke-width:0.8;" x="247.239554" xlink:href="#m816ae47b83" y="703.24"/>
      </g>
     </g>
    </g>
    <g id="xtick_19">
     <g id="line2d_48">
      <path clip-path="url(#p652a3695bd)" d="M 303.684049 703.24 
L 303.684049 410.4 
" style="fill:none;stroke:#777777;stroke-linecap:square;stroke-width:0.8;"/>
     </g>
     <g id="line2d_49">
      <g>
       <use style="stroke:#000000;stroke-width:0.8;" x="303.684049" xlink:href="#m816ae47b83" y="703.24"/>
      </g>
     </g>
    </g>
    <g id="xtick_20">
     <g id="line2d_50">
      <path clip-path="url(#p652a3695bd)" d="M 336.701962 703.24 
L 336.701962 410.4 
" style="fill:none;stroke:#777777;stroke-linecap:square;stroke-width:0.8;"/>
     </g>
     <g id="line2d_51">
      <g>
       <use style="stroke:#000000;stroke-width:0.8;" x="336.701962" xlink:href="#m816ae47b83" y="703.24"/>
      </g>
     </g>
    </g>
    <g id="xtick_21">
     <g id="line2d_52">
      <path clip-path="url(#p652a3695bd)" d="M 360.128544 703.24 
L 360.128544 410.4 
" style="fill:none;stroke:#777777;stroke-linecap:square;stroke-width:0.8;"/>
     </g>
     <g id="line2d_53">
      <g>
       <use style="stroke:#000000;stroke-width:0.8;" x="360.128544" xlink:href="#m816ae47b83" y="703.24"/>
      </g>
     </g>
    </g>
    <g id="xtick_22">
     <g id="line2d_54">
      <path clip-path="url(#p652a3695bd)" d="M 378.299612 703.24 
L 378.299612 410.4 
" style="fill:none;stroke:#777777;stroke-linecap:square;stroke-width:0.8;"/>
     </g>
     <g id="line2d_55">
      <g>
       <use style="stroke:#000000;stroke-width:0.8;" x="378.299612" xlink:href="#m816ae47b83" y="703.24"/>
      </g>
     </g>
    </g>
    <g id="xtick_23">
     <g id="line2d_56">
      <path clip-path="url(#p652a3695bd)" d="M 393.146456 703.24 
L 393.146456 410.4 
" style="fill:none;stroke:#777777;stroke-linecap:square;stroke-width:0.8;"/>
     </g>
     <g id="line2d_57">
      <g>
       <use style="stroke:#000000;stroke-width:0.8;" x="393.146456" xlink:href="#m816ae47b83" y="703.24"/>
      </g>
     </g>
    </g>
    <g id="xtick_24">
     <g id="line2d_58">
      <path clip-path="url(#p652a3695bd)" d="M 405.699284 703.24 
L 405.699284 410.4 
" style="fill:none;stroke:#777777;stroke-linecap:square;stroke-width:0.8;"/>
     </g>
     <g id="line2d_59">
      <g>
       <use style="stroke:#000000;stroke-width:0.8;" x="405.699284" xlink:href="#m816ae47b83" y="703.24"/>
      </g>
     </g>
    </g>
    <g id="xtick_25">
     <g id="line2d_60">
      <path clip-path="url(#p652a3695bd)" d="M 416.573038 703.24 
L 416.573038 410.4 
" style="fill:none;stroke:#777777;stroke-linecap:square;stroke-width:0.8;"/>
     </g>
     <g id="line2d_61">
      <g>
       <use style="stroke:#000000;stroke-width:0.8;" x="416.573038" xlink:href="#m816ae47b83" y="703.24"/>
      </g>
     </g>
    </g>
    <g id="xtick_26">
     <g id="line2d_62">
      <path clip-path="url(#p652a3695bd)" d="M 426.164369 703.24 
L 426.164369 410.4 
" style="fill:none;stroke:#777777;stroke-linecap:square;stroke-width:0.8;"/>
     </g>
     <g id="line2d_63">
      <g>
       <use style="stroke:#000000;stroke-width:0.8;" x="426.164369" xlink:href="#m816ae47b83" y="703.24"/>
      </g>
     </g>
    </g>
    <g id="xtick_27">
     <g id="line2d_64">
      <path clip-path="url(#p652a3695bd)" d="M 434.744107 703.24 
L 434.744107 410.4 
" style="fill:none;stroke:#777777;stroke-linecap:square;stroke-width:0.8;"/>
     </g>
     <g id="line2d_65">
      <g>
       <use style="stroke:#000000;stroke-width:0.8;" x="434.744107" xlink:href="#m816ae47b83" y="703.24"/>
      </g>
     </g>
     <g id="text_16">
      <!-- 1kHz -->
      <defs>
       <path d="M 9.078125 75.984375 
L 18.109375 75.984375 
L 18.109375 31.109375 
L 44.921875 54.6875 
L 56.390625 54.6875 
L 27.390625 29.109375 
L 57.625 0 
L 45.90625 0 
L 18.109375 26.703125 
L 18.109375 0 
L 9.078125 0 
z
" id="DejaVuSans-107"/>
      </defs>
      <g transform="translate(422.28317 717.838438)scale(0.1 -0.1)">
       <use xlink:href="#DejaVuSans-49"/>
       <use x="63.623047" xlink:href="#DejaVuSans-107"/>
       <use x="121.533203" xlink:href="#DejaVuSans-72"/>
       <use x="196.728516" xlink:href="#DejaVuSans-122"/>
      </g>
     </g>
    </g>
    <g id="xtick_28">
     <g id="line2d_66">
      <path clip-path="url(#p652a3695bd)" d="M 434.744107 703.24 
L 434.744107 410.4 
" style="fill:none;stroke:#777777;stroke-linecap:square;stroke-width:0.8;"/>
     </g>
     <g id="line2d_67">
      <g>
       <use style="stroke:#000000;stroke-width:0.8;" x="434.744107" xlink:href="#m816ae47b83" y="703.24"/>
      </g>
     </g>
    </g>
    <g id="xtick_29">
     <g id="line2d_68">
      <path clip-path="url(#p652a3695bd)" d="M 491.188602 703.24 
L 491.188602 410.4 
" style="fill:none;stroke:#777777;stroke-linecap:square;stroke-width:0.8;"/>
     </g>
     <g id="line2d_69">
      <g>
       <use style="stroke:#000000;stroke-width:0.8;" x="491.188602" xlink:href="#m816ae47b83" y="703.24"/>
      </g>
     </g>
    </g>
    <g id="xtick_30">
     <g id="line2d_70">
      <path clip-path="url(#p652a3695bd)" d="M 524.206515 703.24 
L 524.206515 410.4 
" style="fill:none;stroke:#777777;stroke-linecap:square;stroke-width:0.8;"/>
     </g>
     <g id="line2d_71">
      <g>
       <use style="stroke:#000000;stroke-width:0.8;" x="524.206515" xlink:href="#m816ae47b83" y="703.24"/>
      </g>
     </g>
    </g>
    <g id="xtick_31">
     <g id="line2d_72">
      <path clip-path="url(#p652a3695bd)" d="M 547.633097 703.24 
L 547.633097 410.4 
" style="fill:none;stroke:#777777;stroke-linecap:square;stroke-width:0.8;"/>
     </g>
     <g id="line2d_73">
      <g>
       <use style="stroke:#000000;stroke-width:0.8;" x="547.633097" xlink:href="#m816ae47b83" y="703.24"/>
      </g>
     </g>
    </g>
    <g id="xtick_32">
     <g id="line2d_74">
      <path clip-path="url(#p652a3695bd)" d="M 565.804166 703.24 
L 565.804166 410.4 
" style="fill:none;stroke:#777777;stroke-linecap:square;stroke-width:0.8;"/>
     </g>
     <g id="line2d_75">
      <g>
       <use style="stroke:#000000;stroke-width:0.8;" x="565.804166" xlink:href="#m816ae47b83" y="703.24"/>
      </g>
     </g>
    </g>
    <g id="xtick_33">
     <g id="line2d_76">
      <path clip-path="url(#p652a3695bd)" d="M 580.65101 703.24 
L 580.65101 410.4 
" style="fill:none;stroke:#777777;stroke-linecap:square;stroke-width:0.8;"/>
     </g>
     <g id="line2d_77">
      <g>
       <use style="stroke:#000000;stroke-width:0.8;" x="580.65101" xlink:href="#m816ae47b83" y="703.24"/>
      </g>
     </g>
    </g>
    <g id="xtick_34">
     <g id="line2d_78">
      <path clip-path="url(#p652a3695bd)" d="M 593.203838 703.24 
L 593.203838 410.4 
" style="fill:none;stroke:#777777;stroke-linecap:square;stroke-width:0.8;"/>
     </g>
     <g id="line2d_79">
      <g>
       <use style="stroke:#000000;stroke-width:0.8;" x="593.203838" xlink:href="#m816ae47b83" y="703.24"/>
      </g>
     </g>
    </g>
    <g id="xtick_35">
     <g id="line2d_80">
      <path clip-path="url(#p652a3695bd)" d="M 604.077592 703.24 
L 604.077592 410.4 
" style="fill:none;stroke:#777777;stroke-linecap:square;stroke-width:0.8;"/>
     </g>
     <g id="line2d_81">
      <g>
       <use style="stroke:#000000;stroke-width:0.8;" x="604.077592" xlink:href="#m816ae47b83" y="703.24"/>
      </g>
     </g>
    </g>
    <g id="xtick_36">
     <g id="line2d_82">
      <path clip-path="url(#p652a3695bd)" d="M 613.668923 703.24 
L 613.668923 410.4 
" style="fill:none;stroke:#777777;stroke-linecap:square;stroke-width:0.8;"/>
     </g>
     <g id="line2d_83">
      <g>
       <use style="stroke:#000000;stroke-width:0.8;" x="613.668923" xlink:href="#m816ae47b83" y="703.24"/>
      </g>
     </g>
    </g>
    <g id="xtick_37">
     <g id="line2d_84">
      <path clip-path="url(#p652a3695bd)" d="M 622.248661 703.24 
L 622.248661 410.4 
" style="fill:none;stroke:#777777;stroke-linecap:square;stroke-width:0.8;"/>
     </g>
     <g id="line2d_85">
      <g>
       <use style="stroke:#000000;stroke-width:0.8;" x="622.248661" xlink:href="#m816ae47b83" y="703.24"/>
      </g>
     </g>
     <g id="text_17">
      <!-- 10kHz -->
      <g transform="translate(606.606473 717.838438)scale(0.1 -0.1)">
       <use xlink:href="#DejaVuSans-49"/>
       <use x="63.623047" xlink:href="#DejaVuSans-48"/>
       <use x="127.246094" xlink:href="#DejaVuSans-107"/>
       <use x="185.15625" xlink:href="#DejaVuSans-72"/>
       <use x="260.351562" xlink:href="#DejaVuSans-122"/>
      </g>
     </g>
    </g>
    <g id="xtick_38">
     <g id="line2d_86">
      <path clip-path="url(#p652a3695bd)" d="M 622.248661 703.24 
L 622.248661 410.4 
" style="fill:none;stroke:#777777;stroke-linecap:square;stroke-width:0.8;"/>
     </g>
     <g id="line2d_87">
      <g>
       <use style="stroke:#000000;stroke-width:0.8;" x="622.248661" xlink:href="#m816ae47b83" y="703.24"/>
      </g>
     </g>
    </g>
    <g id="xtick_39">
     <g id="line2d_88">
      <path clip-path="url(#p652a3695bd)" d="M 678.693156 703.24 
L 678.693156 410.4 
" style="fill:none;stroke:#777777;stroke-linecap:square;stroke-width:0.8;"/>
     </g>
     <g id="line2d_89">
      <g>
       <use style="stroke:#000000;stroke-width:0.8;" x="678.693156" xlink:href="#m816ae47b83" y="703.24"/>
      </g>
     </g>
    </g>
    <g id="xtick_40">
     <g id="line2d_90">
      <path clip-path="url(#p652a3695bd)" d="M 693.54 703.24 
L 693.54 410.4 
" style="fill:none;stroke:#777777;stroke-linecap:square;stroke-width:0.8;"/>
     </g>
     <g id="line2d_91">
      <g>
       <use style="stroke:#000000;stroke-width:0.8;" x="693.54" xlink:href="#m816ae47b83" y="703.24"/>
      </g>
     </g>
     <g id="text_18">
      <!-- 24kHz -->
      <g transform="translate(677.897813 717.838438)scale(0.1 -0.1)">
       <use xlink:href="#DejaVuSans-50"/>
       <use x="63.623047" xlink:href="#DejaVuSans-52"/>
       <use x="127.246094" xlink:href="#DejaVuSans-107"/>
       <use x="185.15625" xlink:href="#DejaVuSans-72"/>
       <use x="260.351562" xlink:href="#DejaVuSans-122"/>
      </g>
     </g>
    </g>
    <g id="text_19">
     <!-- Frequency (Hz) -->
     <defs>
      <path d="M 9.8125 72.90625 
L 51.703125 72.90625 
L 51.703125 64.59375 
L 19.671875 64.59375 
L 19.671875 43.109375 
L 48.578125 43.109375 
L 48.578125 34.8125 
L 19.671875 34.8125 
L 19.671875 0 
L 9.8125 0 
z
" id="DejaVuSans-70"/>
      <path d="M 41.109375 46.296875 
Q 39.59375 47.171875 37.8125 47.578125 
Q 36.03125 48 33.890625 48 
Q 26.265625 48 22.1875 43.046875 
Q 18.109375 38.09375 18.109375 28.8125 
L 18.109375 0 
L 9.078125 0 
L 9.078125 54.6875 
L 18.109375 54.6875 
L 18.109375 46.1875 
Q 20.953125 51.171875 25.484375 53.578125 
Q 30.03125 56 36.53125 56 
Q 37.453125 56 38.578125 55.875 
Q 39.703125 55.765625 41.0625 55.515625 
z
" id="DejaVuSans-114"/>
      <path d="M 14.796875 27.296875 
Q 14.796875 17.390625 18.875 11.75 
Q 22.953125 6.109375 30.078125 6.109375 
Q 37.203125 6.109375 41.296875 11.75 
Q 45.40625 17.390625 45.40625 27.296875 
Q 45.40625 37.203125 41.296875 42.84375 
Q 37.203125 48.484375 30.078125 48.484375 
Q 22.953125 48.484375 18.875 42.84375 
Q 14.796875 37.203125 14.796875 27.296875 
z
M 45.40625 8.203125 
Q 42.578125 3.328125 38.25 0.953125 
Q 33.9375 -1.421875 27.875 -1.421875 
Q 17.96875 -1.421875 11.734375 6.484375 
Q 5.515625 14.40625 5.515625 27.296875 
Q 5.515625 40.1875 11.734375 48.09375 
Q 17.96875 56 27.875 56 
Q 33.9375 56 38.25 53.625 
Q 42.578125 51.265625 45.40625 46.390625 
L 45.40625 54.6875 
L 54.390625 54.6875 
L 54.390625 -20.796875 
L 45.40625 -20.796875 
z
" id="DejaVuSans-113"/>
      <path d="M 54.890625 33.015625 
L 54.890625 0 
L 45.90625 0 
L 45.90625 32.71875 
Q 45.90625 40.484375 42.875 44.328125 
Q 39.84375 48.1875 33.796875 48.1875 
Q 26.515625 48.1875 22.3125 43.546875 
Q 18.109375 38.921875 18.109375 30.90625 
L 18.109375 0 
L 9.078125 0 
L 9.078125 54.6875 
L 18.109375 54.6875 
L 18.109375 46.1875 
Q 21.34375 51.125 25.703125 53.5625 
Q 30.078125 56 35.796875 56 
Q 45.21875 56 50.046875 50.171875 
Q 54.890625 44.34375 54.890625 33.015625 
z
" id="DejaVuSans-110"/>
      <path d="M 48.78125 52.59375 
L 48.78125 44.1875 
Q 44.96875 46.296875 41.140625 47.34375 
Q 37.3125 48.390625 33.40625 48.390625 
Q 24.65625 48.390625 19.8125 42.84375 
Q 14.984375 37.3125 14.984375 27.296875 
Q 14.984375 17.28125 19.8125 11.734375 
Q 24.65625 6.203125 33.40625 6.203125 
Q 37.3125 6.203125 41.140625 7.25 
Q 44.96875 8.296875 48.78125 10.40625 
L 48.78125 2.09375 
Q 45.015625 0.34375 40.984375 -0.53125 
Q 36.96875 -1.421875 32.421875 -1.421875 
Q 20.0625 -1.421875 12.78125 6.34375 
Q 5.515625 14.109375 5.515625 27.296875 
Q 5.515625 40.671875 12.859375 48.328125 
Q 20.21875 56 33.015625 56 
Q 37.15625 56 41.109375 55.140625 
Q 45.0625 54.296875 48.78125 52.59375 
z
" id="DejaVuSans-99"/>
      <path d="M 32.171875 -5.078125 
Q 28.375 -14.84375 24.75 -17.8125 
Q 21.140625 -20.796875 15.09375 -20.796875 
L 7.90625 -20.796875 
L 7.90625 -13.28125 
L 13.1875 -13.28125 
Q 16.890625 -13.28125 18.9375 -11.515625 
Q 21 -9.765625 23.484375 -3.21875 
L 25.09375 0.875 
L 2.984375 54.6875 
L 12.5 54.6875 
L 29.59375 11.921875 
L 46.6875 54.6875 
L 56.203125 54.6875 
z
" id="DejaVuSans-121"/>
      <path id="DejaVuSans-32"/>
      <path d="M 31 75.875 
Q 24.46875 64.65625 21.28125 53.65625 
Q 18.109375 42.671875 18.109375 31.390625 
Q 18.109375 20.125 21.3125 9.0625 
Q 24.515625 -2 31 -13.1875 
L 23.1875 -13.1875 
Q 15.875 -1.703125 12.234375 9.375 
Q 8.59375 20.453125 8.59375 31.390625 
Q 8.59375 42.28125 12.203125 53.3125 
Q 15.828125 64.359375 23.1875 75.875 
z
" id="DejaVuSans-40"/>
      <path d="M 8.015625 75.875 
L 15.828125 75.875 
Q 23.140625 64.359375 26.78125 53.3125 
Q 30.421875 42.28125 30.421875 31.390625 
Q 30.421875 20.453125 26.78125 9.375 
Q 23.140625 -1.703125 15.828125 -13.1875 
L 8.015625 -13.1875 
Q 14.5 -2 17.703125 9.0625 
Q 20.90625 20.125 20.90625 31.390625 
Q 20.90625 42.671875 17.703125 53.65625 
Q 14.5 64.65625 8.015625 75.875 
z
" id="DejaVuSans-41"/>
     </defs>
     <g transform="translate(338.464844 731.516563)scale(0.1 -0.1)">
      <use xlink:href="#DejaVuSans-70"/>
      <use x="57.410156" xlink:href="#DejaVuSans-114"/>
      <use x="98.492188" xlink:href="#DejaVuSans-101"/>
      <use x="160.015625" xlink:href="#DejaVuSans-113"/>
      <use x="223.492188" xlink:href="#DejaVuSans-117"/>
      <use x="286.871094" xlink:href="#DejaVuSans-101"/>
      <use x="348.394531" xlink:href="#DejaVuSans-110"/>
      <use x="411.773438" xlink:href="#DejaVuSans-99"/>
      <use x="466.753906" xlink:href="#DejaVuSans-121"/>
      <use x="525.933594" xlink:href="#DejaVuSans-32"/>
      <use x="557.720703" xlink:href="#DejaVuSans-40"/>
      <use x="596.734375" xlink:href="#DejaVuSans-72"/>
      <use x="671.929688" xlink:href="#DejaVuSans-122"/>
      <use x="724.419922" xlink:href="#DejaVuSans-41"/>
     </g>
    </g>
   </g>
   <g id="matplotlib.axis_4">
    <g id="ytick_6">
     <g id="line2d_92">
      <path clip-path="url(#p652a3695bd)" d="M 59.735 703.24 
L 693.54 703.24 
" style="fill:none;stroke:#777777;stroke-linecap:square;stroke-width:0.8;"/>
     </g>
     <g id="line2d_93">
      <g>
       <use style="stroke:#000000;stroke-width:0.8;" x="59.735" xlink:href="#me9cbca6570" y="703.24"/>
      </g>
     </g>
     <g id="text_20">
      <!-- −160 -->
      <g transform="translate(25.267812 707.039219)scale(0.1 -0.1)">
       <use xlink:href="#DejaVuSans-8722"/>
       <use x="83.789062" xlink:href="#DejaVuSans-49"/>
       <use x="147.412109" xlink:href="#DejaVuSans-54"/>
       <use x="211.035156" xlink:href="#DejaVuSans-48"/>
      </g>
     </g>
    </g>
    <g id="ytick_7">
     <g id="line2d_94">
      <path clip-path="url(#p652a3695bd)" d="M 59.735 668.788235 
L 693.54 668.788235 
" style="fill:none;stroke:#777777;stroke-linecap:square;stroke-width:0.8;"/>
     </g>
     <g id="line2d_95">
      <g>
       <use style="stroke:#000000;stroke-width:0.8;" x="59.735" xlink:href="#me9cbca6570" y="668.788235"/>
      </g>
     </g>
     <g id="text_21">
      <!-- −140 -->
      <g transform="translate(25.267812 672.587454)scale(0.1 -0.1)">
       <use xlink:href="#DejaVuSans-8722"/>
       <use x="83.789062" xlink:href="#DejaVuSans-49"/>
       <use x="147.412109" xlink:href="#DejaVuSans-52"/>
       <use x="211.035156" xlink:href="#DejaVuSans-48"/>
      </g>
     </g>
    </g>
    <g id="ytick_8">
     <g id="line2d_96">
      <path clip-path="url(#p652a3695bd)" d="M 59.735 634.336471 
L 693.54 634.336471 
" style="fill:none;stroke:#777777;stroke-linecap:square;stroke-width:0.8;"/>
     </g>
     <g id="line2d_97">
      <g>
       <use style="stroke:#000000;stroke-width:0.8;" x="59.735" xlink:href="#me9cbca6570" y="634.336471"/>
      </g>
     </g>
     <g id="text_22">
      <!-- −120 -->
      <g transform="translate(25.267812 638.135689)scale(0.1 -0.1)">
       <use xlink:href="#DejaVuSans-8722"/>
       <use x="83.789062" xlink:href="#DejaVuSans-49"/>
       <use x="147.412109" xlink:href="#DejaVuSans-50"/>
       <use x="211.035156" xlink:href="#DejaVuSans-48"/>
      </g>
     </g>
    </g>
    <g id="ytick_9">
     <g id="line2d_98">
      <path clip-path="url(#p652a3695bd)" d="M 59.735 599.884706 
L 693.54 599.884706 
" style="fill:none;stroke:#777777;stroke-linecap:square;stroke-width:0.8;"/>
     </g>
     <g id="line2d_99">
      <g>
       <use style="stroke:#000000;stroke-width:0.8;" x="59.735" xlink:href="#me9cbca6570" y="599.884706"/>
      </g>
     </g>
     <g id="text_23">
      <!-- −100 -->
      <g transform="translate(25.267812 603.683925)scale(0.1 -0.1)">
       <use xlink:href="#DejaVuSans-8722"/>
       <use x="83.789062" xlink:href="#DejaVuSans-49"/>
       <use x="147.412109" xlink:href="#DejaVuSans-48"/>
       <use x="211.035156" xlink:href="#DejaVuSans-48"/>
      </g>
     </g>
    </g>
    <g id="ytick_10">
     <g id="line2d_100">
      <path clip-path="url(#p652a3695bd)" d="M 59.735 565.432941 
L 693.54 565.432941 
" style="fill:none;stroke:#777777;stroke-linecap:square;stroke-width:0.8;"/>
     </g>
     <g id="line2d_101">
      <g>
       <use style="stroke:#000000;stroke-width:0.8;" x="59.735" xlink:href="#me9cbca6570" y="565.432941"/>
      </g>
     </g>
     <g id="text_24">
      <!-- −80 -->
      <g transform="translate(31.630312 569.23216)scale(0.1 -0.1)">
       <use xlink:href="#DejaVuSans-8722"/>
       <use x="83.789062" xlink:href="#DejaVuSans-56"/>
       <use x="147.412109" xlink:href="#DejaVuSans-48"/>
      </g>
     </g>
    </g>
    <g id="ytick_11">
     <g id="line2d_102">
      <path clip-path="url(#p652a3695bd)" d="M 59.735 530.981176 
L 693.54 530.981176 
" style="fill:none;stroke:#777777;stroke-linecap:square;stroke-width:0.8;"/>
     </g>
     <g id="line2d_103">
      <g>
       <use style="stroke:#000000;stroke-width:0.8;" x="59.735" xlink:href="#me9cbca6570" y="530.981176"/>
      </g>
     </g>
     <g id="text_25">
      <!-- −60 -->
      <g transform="translate(31.630312 534.780395)scale(0.1 -0.1)">
       <use xlink:href="#DejaVuSans-8722"/>
       <use x="83.789062" xlink:href="#DejaVuSans-54"/>
       <use x="147.412109" xlink:href="#DejaVuSans-48"/>
      </g>
     </g>
    </g>
    <g id="ytick_12">
     <g id="line2d_104">
      <path clip-path="url(#p652a3695bd)" d="M 59.735 496.529412 
L 693.54 496.529412 
" style="fill:none;stroke:#777777;stroke-linecap:square;stroke-width:0.8;"/>
     </g>
     <g id="line2d_105">
      <g>
       <use style="stroke:#000000;stroke-width:0.8;" x="59.735" xlink:href="#me9cbca6570" y="496.529412"/>
      </g>
     </g>
     <g id="text_26">
      <!-- −40 -->
      <g transform="translate(31.630312 500.328631)scale(0.1 -0.1)">
       <use xlink:href="#DejaVuSans-8722"/>
       <use x="83.789062" xlink:href="#DejaVuSans-52"/>
       <use x="147.412109" xlink:href="#DejaVuSans-48"/>
      </g>
     </g>
    </g>
    <g id="ytick_13">
     <g id="line2d_106">
      <path clip-path="url(#p652a3695bd)" d="M 59.735 462.077647 
L 693.54 462.077647 
" style="fill:none;stroke:#777777;stroke-linecap:square;stroke-width:0.8;"/>
     </g>
     <g id="line2d_107">
      <g>
       <use style="stroke:#000000;stroke-width:0.8;" x="59.735" xlink:href="#me9cbca6570" y="462.077647"/>
      </g>
     </g>
     <g id="text_27">
      <!-- −20 -->
      <g transform="translate(31.630312 465.876866)scale(0.1 -0.1)">
       <use xlink:href="#DejaVuSans-8722"/>
       <use x="83.789062" xlink:href="#DejaVuSans-50"/>
       <use x="147.412109" xlink:href="#DejaVuSans-48"/>
      </g>
     </g>
    </g>
    <g id="ytick_14">
     <g id="line2d_108">
      <path clip-path="url(#p652a3695bd)" d="M 59.735 427.625882 
L 693.54 427.625882 
" style="fill:none;stroke:#777777;stroke-linecap:square;stroke-width:0.8;"/>
     </g>
     <g id="line2d_109">
      <g>
       <use style="stroke:#000000;stroke-width:0.8;" x="59.735" xlink:href="#me9cbca6570" y="427.625882"/>
      </g>
     </g>
     <g id="text_28">
      <!-- 0 -->
      <g transform="translate(46.3725 431.425101)scale(0.1 -0.1)">
       <use xlink:href="#DejaVuSans-48"/>
      </g>
     </g>
    </g>
    <g id="text_29">
     <!-- Gain (dB) -->
     <defs>
      <path d="M 59.515625 10.40625 
L 59.515625 29.984375 
L 43.40625 29.984375 
L 43.40625 38.09375 
L 69.28125 38.09375 
L 69.28125 6.78125 
Q 63.578125 2.734375 56.6875 0.65625 
Q 49.8125 -1.421875 42 -1.421875 
Q 24.90625 -1.421875 15.25 8.5625 
Q 5.609375 18.5625 5.609375 36.375 
Q 5.609375 54.25 15.25 64.234375 
Q 24.90625 74.21875 42 74.21875 
Q 49.125 74.21875 55.546875 72.453125 
Q 61.96875 70.703125 67.390625 67.28125 
L 67.390625 56.78125 
Q 61.921875 61.421875 55.765625 63.765625 
Q 49.609375 66.109375 42.828125 66.109375 
Q 29.4375 66.109375 22.71875 58.640625 
Q 16.015625 51.171875 16.015625 36.375 
Q 16.015625 21.625 22.71875 14.15625 
Q 29.4375 6.6875 42.828125 6.6875 
Q 48.046875 6.6875 52.140625 7.59375 
Q 56.25 8.5 59.515625 10.40625 
z
" id="DejaVuSans-71"/>
      <path d="M 19.671875 34.8125 
L 19.671875 8.109375 
L 35.5 8.109375 
Q 43.453125 8.109375 47.28125 11.40625 
Q 51.125 14.703125 51.125 21.484375 
Q 51.125 28.328125 47.28125 31.5625 
Q 43.453125 34.8125 35.5 34.8125 
z
M 19.671875 64.796875 
L 19.671875 42.828125 
L 34.28125 42.828125 
Q 41.5 42.828125 45.03125 45.53125 
Q 48.578125 48.25 48.578125 53.8125 
Q 48.578125 59.328125 45.03125 62.0625 
Q 41.5 64.796875 34.28125 64.796875 
z
M 9.8125 72.90625 
L 35.015625 72.90625 
Q 46.296875 72.90625 52.390625 68.21875 
Q 58.5 63.53125 58.5 54.890625 
Q 58.5 48.1875 55.375 44.234375 
Q 52.25 40.28125 46.1875 39.3125 
Q 53.46875 37.75 57.5 32.78125 
Q 61.53125 27.828125 61.53125 20.40625 
Q 61.53125 10.640625 54.890625 5.3125 
Q 48.25 0 35.984375 0 
L 9.8125 0 
z
" id="DejaVuSans-66"/>
     </defs>
     <g transform="translate(19.188125 580.411406)rotate(-90)scale(0.1 -0.1)">
      <use xlink:href="#DejaVuSans-71"/>
      <use x="77.490234" xlink:href="#DejaVuSans-97"/>
      <use x="138.769531" xlink:href="#DejaVuSans-105"/>
      <use x="166.552734" xlink:href="#DejaVuSans-110"/>
      <use x="229.931641" xlink:href="#DejaVuSans-32"/>
      <use x="261.71875" xlink:href="#DejaVuSans-40"/>
      <use x="300.732422" xlink:href="#DejaVuSans-100"/>
      <use x="364.208984" xlink:href="#DejaVuSans-66"/>
      <use x="432.8125" xlink:href="#DejaVuSans-41"/>
     </g>
    </g>
   </g>
   <g id="line2d_110">
    <path clip-path="url(#p652a3695bd)" d="M -1 427.625883 
L 500.779933 427.734477 
L 502.251006 427.95351 
L 503.285737 428.346561 
L 503.900322 428.774933 
L 504.510304 429.437476 
L 505.115751 430.429829 
L 505.716729 431.850912 
L 506.313304 433.774201 
L 507.102 437.145747 
L 508.077248 442.475439 
L 509.423265 451.303741 
L 511.308354 465.337044 
L 513.514327 483.503971 
L 515.662113 503.080616 
L 517.754705 524.338292 
L 519.626792 545.668206 
L 521.456805 569.268821 
L 523.085504 593.12883 
L 523.887798 606.216324 
L 524.52399 616.90411 
L 524.840232 621.266504 
L 525.15525 628.427462 
L 525.625505 641.54157 
L 525.781655 641.22359 
L 525.937506 640.62171 
L 526.09306 641.281403 
L 526.248316 643.638115 
L 526.557945 655.697427 
L 526.712319 669.377293 
L 526.866401 669.810919 
L 527.173692 655.757524 
L 527.326904 654.448522 
L 527.479829 654.873017 
L 528.08867 659.828306 
L 528.542333 658.517393 
L 528.692994 658.563394 
L 529.292865 659.493684 
L 530.332123 660.108183 
L 532.945145 661.80904 
L 536.713888 664.02696 
L 540.185294 665.869204 
L 540.446295 665.408303 
L 540.576482 665.449788 
L 540.706462 665.946003 
L 541.095161 668.302781 
L 541.353266 664.664836 
L 541.610556 662.027583 
L 541.738897 663.081694 
L 541.867036 666.955939 
L 542.12271 686.715729 
L 542.377584 657.921063 
L 542.631663 650.595738 
L 542.758405 649.829398 
L 543.011301 651.196949 
L 543.137454 649.538371 
L 543.640124 633.587239 
L 545.375426 603.470802 
L 546.471763 585.749421 
L 547.910955 564.880024 
L 549.791147 540.722877 
L 551.742399 518.527612 
L 553.869272 496.932427 
L 556.049648 477.026185 
L 558.277899 458.646598 
L 560.038104 445.719781 
L 561.258085 438.228204 
L 562.161224 433.986933 
L 562.856805 431.639368 
L 563.546495 430.053168 
L 564.230393 429.055836 
L 564.908595 428.458441 
L 565.676829 428.073989 
L 566.721454 427.819548 
L 568.402454 427.67765 
L 572.547022 427.628328 
L 640.635747 427.625882 
L 693.520117 427.625882 
L 693.520117 427.625882 
" style="fill:none;stroke:#0072bd;stroke-linecap:square;stroke-width:1.4;"/>
   </g>
   <g id="patch_8">
    <path d="M 59.735 703.24 
L 59.735 410.4 
" style="fill:none;stroke:#000000;stroke-linecap:square;stroke-linejoin:miter;stroke-width:0.8;"/>
   </g>
   <g id="patch_9">
    <path d="M 693.54 703.24 
L 693.54 410.4 
" style="fill:none;stroke:#000000;stroke-linecap:square;stroke-linejoin:miter;stroke-width:0.8;"/>
   </g>
   <g id="patch_10">
    <path d="M 59.735 703.24 
L 693.54 703.24 
" style="fill:none;stroke:#000000;stroke-linecap:square;stroke-linejoin:miter;stroke-width:0.8;"/>
   </g>
   <g id="patch_11">
    <path d="M 59.735 410.4 
L 693.54 410.4 
" style="fill:none;stroke:#000000;stroke-linecap:square;stroke-linejoin:miter;stroke-width:0.8;"/>
   </g>
  </g>
  <g id="axes_3">
   <g id="patch_12">
    <path d="M 59.735 1038.04 
L 693.54 1038.04 
L 693.54 745.2 
L 59.735 745.2 
z
" style="fill:#ffffff;"/>
   </g>
   <g id="matplotlib.axis_5">
    <g id="xtick_41">
     <g id="line2d_111">
      <path clip-path="url(#p72ab0bbb96)" d="M 59.735 1038.04 
L 59.735 745.2 
" style="fill:none;stroke:#777777;stroke-linecap:square;stroke-width:0.8;"/>
     </g>
     <g id="line2d_112">
      <g>
       <use style="stroke:#000000;stroke-width:0.8;" x="59.735" xlink:href="#m816ae47b83" y="1038.04"/>
      </g>
     </g>
     <g id="text_30">
      <!-- 10Hz -->
      <g transform="translate(46.988125 1052.638438)scale(0.1 -0.1)">
       <use xlink:href="#DejaVuSans-49"/>
       <use x="63.623047" xlink:href="#DejaVuSans-48"/>
       <use x="127.246094" xlink:href="#DejaVuSans-72"/>
       <use x="202.441406" xlink:href="#DejaVuSans-122"/>
      </g>
     </g>
    </g>
    <g id="xtick_42">
     <g id="line2d_113">
      <path clip-path="url(#p72ab0bbb96)" d="M 59.735 1038.04 
L 59.735 745.2 
" style="fill:none;stroke:#777777;stroke-linecap:square;stroke-width:0.8;"/>
     </g>
     <g id="line2d_114">
      <g>
       <use style="stroke:#000000;stroke-width:0.8;" x="59.735" xlink:href="#m816ae47b83" y="1038.04"/>
      </g>
     </g>
    </g>
    <g id="xtick_43">
     <g id="line2d_115">
      <path clip-path="url(#p72ab0bbb96)" d="M 116.179495 1038.04 
L 116.179495 745.2 
" style="fill:none;stroke:#777777;stroke-linecap:square;stroke-width:0.8;"/>
     </g>
     <g id="line2d_116">
      <g>
       <use style="stroke:#000000;stroke-width:0.8;" x="116.179495" xlink:href="#m816ae47b83" y="1038.04"/>
      </g>
     </g>
    </g>
    <g id="xtick_44">
     <g id="line2d_117">
      <path clip-path="url(#p72ab0bbb96)" d="M 149.197408 1038.04 
L 149.197408 745.2 
" style="fill:none;stroke:#777777;stroke-linecap:square;stroke-width:0.8;"/>
     </g>
     <g id="line2d_118">
      <g>
       <use style="stroke:#000000;stroke-width:0.8;" x="149.197408" xlink:href="#m816ae47b83" y="1038.04"/>
      </g>
     </g>
    </g>
    <g id="xtick_45">
     <g id="line2d_119">
      <path clip-path="url(#p72ab0bbb96)" d="M 172.62399 1038.04 
L 172.62399 745.2 
" style="fill:none;stroke:#777777;stroke-linecap:square;stroke-width:0.8;"/>
     </g>
     <g id="line2d_120">
      <g>
       <use style="stroke:#000000;stroke-width:0.8;" x="172.62399" xlink:href="#m816ae47b83" y="1038.04"/>
      </g>
     </g>
    </g>
    <g id="xtick_46">
     <g id="line2d_121">
      <path clip-path="url(#p72ab0bbb96)" d="M 190.795059 1038.04 
L 190.795059 745.2 
" style="fill:none;stroke:#777777;stroke-linecap:square;stroke-width:0.8;"/>
     </g>
     <g id="line2d_122">
      <g>
       <use style="stroke:#000000;stroke-width:0.8;" x="190.795059" xlink:href="#m816ae47b83" y="1038.04"/>
      </g>
     </g>
    </g>
    <g id="xtick_47">
     <g id="line2d_123">
      <path clip-path="url(#p72ab0bbb96)" d="M 205.641903 1038.04 
L 205.641903 745.2 
" style="fill:none;stroke:#777777;stroke-linecap:square;stroke-width:0.8;"/>
     </g>
     <g id="line2d_124">
      <g>
       <use style="stroke:#000000;stroke-width:0.8;" x="205.641903" xlink:href="#m816ae47b83" y="1038.04"/>
      </g>
     </g>
    </g>
    <g id="xtick_48">
     <g id="line2d_125">
      <path clip-path="url(#p72ab0bbb96)" d="M 218.194731 1038.04 
L 218.194731 745.2 
" style="fill:none;stroke:#777777;stroke-linecap:square;stroke-width:0.8;"/>
     </g>
     <g id="line2d_126">
      <g>
       <use style="stroke:#000000;stroke-width:0.8;" x="218.194731" xlink:href="#m816ae47b83" y="1038.04"/>
      </g>
     </g>
    </g>
    <g id="xtick_49">
     <g id="line2d_127">
      <path clip-path="url(#p72ab0bbb96)" d="M 229.068485 1038.04 
L 229.068485 745.2 
" style="fill:none;stroke:#777777;stroke-linecap:square;stroke-width:0.8;"/>
     </g>
     <g id="line2d_128">
      <g>
       <use style="stroke:#000000;stroke-width:0.8;" x="229.068485" xlink:href="#m816ae47b83" y="1038.04"/>
      </g>
     </g>
    </g>
    <g id="xtick_50">
     <g id="line2d_129">
      <path clip-path="url(#p72ab0bbb96)" d="M 238.659816 1038.04 
L 238.659816 745.2 
" style="fill:none;stroke:#777777;stroke-linecap:square;stroke-width:0.8;"/>
     </g>
     <g id="line2d_130">
      <g>
       <use style="stroke:#000000;stroke-width:0.8;" x="238.659816" xlink:href="#m816ae47b83" y="1038.04"/>
      </g>
     </g>
    </g>
    <g id="xtick_51">
     <g id="line2d_131">
      <path clip-path="url(#p72ab0bbb96)" d="M 247.239554 1038.04 
L 247.239554 745.2 
" style="fill:none;stroke:#777777;stroke-linecap:square;stroke-width:0.8;"/>
     </g>
     <g id="line2d_132">
      <g>
       <use style="stroke:#000000;stroke-width:0.8;" x="247.239554" xlink:href="#m816ae47b83" y="1038.04"/>
      </g>
     </g>
     <g id="text_31">
      <!-- 100Hz -->
      <g transform="translate(231.311429 1052.638438)scale(0.1 -0.1)">
       <use xlink:href="#DejaVuSans-49"/>
       <use x="63.623047" xlink:href="#DejaVuSans-48"/>
       <use x="127.246094" xlink:href="#DejaVuSans-48"/>
       <use x="190.869141" xlink:href="#DejaVuSans-72"/>
       <use x="266.064453" xlink:href="#DejaVuSans-122"/>
      </g>
     </g>
    </g>
    <g id="xtick_52">
     <g id="line2d_133">
      <path clip-path="url(#p72ab0bbb96)" d="M 247.239554 1038.04 
L 247.239554 745.2 
" style="fill:none;stroke:#777777;stroke-linecap:square;stroke-width:0.8;"/>
     </g>
     <g id="line2d_134">
      <g>
       <use style="stroke:#000000;stroke-width:0.8;" x="247.239554" xlink:href="#m816ae47b83" y="1038.04"/>
      </g>
     </g>
    </g>
    <g id="xtick_53">
     <g id="line2d_135">
      <path clip-path="url(#p72ab0bbb96)" d="M 303.684049 1038.04 
L 303.684049 745.2 
" style="fill:none;stroke:#777777;stroke-linecap:square;stroke-width:0.8;"/>
     </g>
     <g id="line2d_136">
      <g>
       <use style="stroke:#000000;stroke-width:0.8;" x="303.684049" xlink:href="#m816ae47b83" y="1038.04"/>
      </g>
     </g>
    </g>
    <g id="xtick_54">
     <g id="line2d_137">
      <path clip-path="url(#p72ab0bbb96)" d="M 336.701962 1038.04 
L 336.701962 745.2 
" style="fill:none;stroke:#777777;stroke-linecap:square;stroke-width:0.8;"/>
     </g>
     <g id="line2d_138">
      <g>
       <use style="stroke:#000000;stroke-width:0.8;" x="336.701962" xlink:href="#m816ae47b83" y="1038.04"/>
      </g>
     </g>
    </g>
    <g id="xtick_55">
     <g id="line2d_139">
      <path clip-path="url(#p72ab0bbb96)" d="M 360.128544 1038.04 
L 360.128544 745.2 
" style="fill:none;stroke:#777777;stroke-linecap:square;stroke-width:0.8;"/>
     </g>
     <g id="line2d_140">
      <g>
       <use style="stroke:#000000;stroke-width:0.8;" x="360.128544" xlink:href="#m816ae47b83" y="1038.04"/>
      </g>
     </g>
    </g>
    <g id="xtick_56">
     <g id="line2d_141">
      <path clip-path="url(#p72ab0bbb96)" d="M 378.299612 1038.04 
L 378.299612 745.2 
" style="fill:none;stroke:#777777;stroke-linecap:square;stroke-width:0.8;"/>
     </g>
     <g id="line2d_142">
      <g>
       <use style="stroke:#000000;stroke-width:0.8;" x="378.299612" xlink:href="#m816ae47b83" y="1038.04"/>
      </g>
     </g>
    </g>
    <g id="xtick_57">
     <g id="line2d_143">
      <path clip-path="url(#p72ab0bbb96)" d="M 393.146456 1038.04 
L 393.146456 745.2 
" style="fill:none;stroke:#777777;stroke-linecap:square;stroke-width:0.8;"/>
     </g>
     <g id="line2d_144">
      <g>
       <use style="stroke:#000000;stroke-width:0.8;" x="393.146456" xlink:href="#m816ae47b83" y="1038.04"/>
      </g>
     </g>
    </g>
    <g id="xtick_58">
     <g id="line2d_145">
      <path clip-path="url(#p72ab0bbb96)" d="M 405.699284 1038.04 
L 405.699284 745.2 
" style="fill:none;stroke:#777777;stroke-linecap:square;stroke-width:0.8;"/>
     </g>
     <g id="line2d_146">
      <g>
       <use style="stroke:#000000;stroke-width:0.8;" x="405.699284" xlink:href="#m816ae47b83" y="1038.04"/>
      </g>
     </g>
    </g>
    <g id="xtick_59">
     <g id="line2d_147">
      <path clip-path="url(#p72ab0bbb96)" d="M 416.573038 1038.04 
L 416.573038 745.2 
" style="fill:none;stroke:#777777;stroke-linecap:square;stroke-width:0.8;"/>
     </g>
     <g id="line2d_148">
      <g>
       <use style="stroke:#000000;stroke-width:0.8;" x="416.573038" xlink:href="#m816ae47b83" y="1038.04"/>
      </g>
     </g>
    </g>
    <g id="xtick_60">
     <g id="line2d_149">
      <path clip-path="url(#p72ab0bbb96)" d="M 426.164369 1038.04 
L 426.164369 745.2 
" style="fill:none;stroke:#777777;stroke-linecap:square;stroke-width:0.8;"/>
     </g>
     <g id="line2d_150">
      <g>
       <use style="stroke:#000000;stroke-width:0.8;" x="426.164369" xlink:href="#m816ae47b83" y="1038.04"/>
      </g>
     </g>
    </g>
    <g id="xtick_61">
     <g id="line2d_151">
      <path clip-path="url(#p72ab0bbb96)" d="M 434.744107 1038.04 
L 434.744107 745.2 
" style="fill:none;stroke:#777777;stroke-linecap:square;stroke-width:0.8;"/>
     </g>
     <g id="line2d_152">
      <g>
       <use style="stroke:#000000;stroke-width:0.8;" x="434.744107" xlink:href="#m816ae47b83" y="1038.04"/>
      </g>
     </g>
     <g id="text_32">
      <!-- 1kHz -->
      <g transform="translate(422.28317 1052.638438)scale(0.1 -0.1)">
       <use xlink:href="#DejaVuSans-49"/>
       <use x="63.623047" xlink:href="#DejaVuSans-107"/>
       <use x="121.533203" xlink:href="#DejaVuSans-72"/>
       <use x="196.728516" xlink:href="#DejaVuSans-122"/>
      </g>
     </g>
    </g>
    <g id="xtick_62">
     <g id="line2d_153">
      <path clip-path="url(#p72ab0bbb96)" d="M 434.744107 1038.04 
L 434.744107 745.2 
" style="fill:none;stroke:#777777;stroke-linecap:square;stroke-width:0.8;"/>
     </g>
     <g id="line2d_154">
      <g>
       <use style="stroke:#000000;stroke-width:0.8;" x="434.744107" xlink:href="#m816ae47b83" y="1038.04"/>
      </g>
     </g>
    </g>
    <g id="xtick_63">
     <g id="line2d_155">
      <path clip-path="url(#p72ab0bbb96)" d="M 491.188602 1038.04 
L 491.188602 745.2 
" style="fill:none;stroke:#777777;stroke-linecap:square;stroke-width:0.8;"/>
     </g>
     <g id="line2d_156">
      <g>
       <use style="stroke:#000000;stroke-width:0.8;" x="491.188602" xlink:href="#m816ae47b83" y="1038.04"/>
      </g>
     </g>
    </g>
    <g id="xtick_64">
     <g id="line2d_157">
      <path clip-path="url(#p72ab0bbb96)" d="M 524.206515 1038.04 
L 524.206515 745.2 
" style="fill:none;stroke:#777777;stroke-linecap:square;stroke-width:0.8;"/>
     </g>
     <g id="line2d_158">
      <g>
       <use style="stroke:#000000;stroke-width:0.8;" x="524.206515" xlink:href="#m816ae47b83" y="1038.04"/>
      </g>
     </g>
    </g>
    <g id="xtick_65">
     <g id="line2d_159">
      <path clip-path="url(#p72ab0bbb96)" d="M 547.633097 1038.04 
L 547.633097 745.2 
" style="fill:none;stroke:#777777;stroke-linecap:square;stroke-width:0.8;"/>
     </g>
     <g id="line2d_160">
      <g>
       <use style="stroke:#000000;stroke-width:0.8;" x="547.633097" xlink:href="#m816ae47b83" y="1038.04"/>
      </g>
     </g>
    </g>
    <g id="xtick_66">
     <g id="line2d_161">
      <path clip-path="url(#p72ab0bbb96)" d="M 565.804166 1038.04 
L 565.804166 745.2 
" style="fill:none;stroke:#777777;stroke-linecap:square;stroke-width:0.8;"/>
     </g>
     <g id="line2d_162">
      <g>
       <use style="stroke:#000000;stroke-width:0.8;" x="565.804166" xlink:href="#m816ae47b83" y="1038.04"/>
      </g>
     </g>
    </g>
    <g id="xtick_67">
     <g id="line2d_163">
      <path clip-path="url(#p72ab0bbb96)" d="M 580.65101 1038.04 
L 580.65101 745.2 
" style="fill:none;stroke:#777777;stroke-linecap:square;stroke-width:0.8;"/>
     </g>
     <g id="line2d_164">
      <g>
       <use style="stroke:#000000;stroke-width:0.8;" x="580.65101" xlink:href="#m816ae47b83" y="1038.04"/>
      </g>
     </g>
    </g>
    <g id="xtick_68">
     <g id="line2d_165">
      <path clip-path="url(#p72ab0bbb96)" d="M 593.203838 1038.04 
L 593.203838 745.2 
" style="fill:none;stroke:#777777;stroke-linecap:square;stroke-width:0.8;"/>
     </g>
     <g id="line2d_166">
      <g>
       <use style="stroke:#000000;stroke-width:0.8;" x="593.203838" xlink:href="#m816ae47b83" y="1038.04"/>
      </g>
     </g>
    </g>
    <g id="xtick_69">
     <g id="line2d_167">
      <path clip-path="url(#p72ab0bbb96)" d="M 604.077592 1038.04 
L 604.077592 745.2 
" style="fill:none;stroke:#777777;stroke-linecap:square;stroke-width:0.8;"/>
     </g>
     <g id="line2d_168">
      <g>
       <use style="stroke:#000000;stroke-width:0.8;" x="604.077592" xlink:href="#m816ae47b83" y="1038.04"/>
      </g>
     </g>
    </g>
    <g id="xtick_70">
     <g id="line2d_169">
      <path clip-path="url(#p72ab0bbb96)" d="M 613.668923 1038.04 
L 613.668923 745.2 
" style="fill:none;stroke:#777777;stroke-linecap:square;stroke-width:0.8;"/>
     </g>
     <g id="line2d_170">
      <g>
       <use style="stroke:#000000;stroke-width:0.8;" x="613.668923" xlink:href="#m816ae47b83" y="1038.04"/>
      </g>
     </g>
    </g>
    <g id="xtick_71">
     <g id="line2d_171">
      <path clip-path="url(#p72ab0bbb96)" d="M 622.248661 1038.04 
L 622.248661 745.2 
" style="fill:none;stroke:#777777;stroke-linecap:square;stroke-width:0.8;"/>
     </g>
     <g id="line2d_172">
      <g>
       <use style="stroke:#000000;stroke-width:0.8;" x="622.248661" xlink:href="#m816ae47b83" y="1038.04"/>
      </g>
     </g>
     <g id="text_33">
      <!-- 10kHz -->
      <g transform="translate(606.606473 1052.638438)scale(0.1 -0.1)">
       <use xlink:href="#DejaVuSans-49"/>
       <use x="63.623047" xlink:href="#DejaVuSans-48"/>
       <use x="127.246094" xlink:href="#DejaVuSans-107"/>
       <use x="185.15625" xlink:href="#DejaVuSans-72"/>
       <use x="260.351562" xlink:href="#DejaVuSans-122"/>
      </g>
     </g>
    </g>
    <g id="xtick_72">
     <g id="line2d_173">
      <path clip-path="url(#p72ab0bbb96)" d="M 622.248661 1038.04 
L 622.248661 745.2 
" style="fill:none;stroke:#777777;stroke-linecap:square;stroke-width:0.8;"/>
     </g>
     <g id="line2d_174">
      <g>
       <use style="stroke:#000000;stroke-width:0.8;" x="622.248661" xlink:href="#m816ae47b83" y="1038.04"/>
      </g>
     </g>
    </g>
    <g id="xtick_73">
     <g id="line2d_175">
      <path clip-path="url(#p72ab0bbb96)" d="M 678.693156 1038.04 
L 678.693156 745.2 
" style="fill:none;stroke:#777777;stroke-linecap:square;stroke-width:0.8;"/>
     </g>
     <g id="line2d_176">
      <g>
       <use style="stroke:#000000;stroke-width:0.8;" x="678.693156" xlink:href="#m816ae47b83" y="1038.04"/>
      </g>
     </g>
    </g>
    <g id="xtick_74">
     <g id="line2d_177">
      <path clip-path="url(#p72ab0bbb96)" d="M 693.54 1038.04 
L 693.54 745.2 
" style="fill:none;stroke:#777777;stroke-linecap:square;stroke-width:0.8;"/>
     </g>
     <g id="line2d_178">
      <g>
       <use style="stroke:#000000;stroke-width:0.8;" x="693.54" xlink:href="#m816ae47b83" y="1038.04"/>
      </g>
     </g>
     <g id="text_34">
      <!-- 24kHz -->
      <g transform="translate(677.897813 1052.638438)scale(0.1 -0.1)">
       <use xlink:href="#DejaVuSans-50"/>
       <use x="63.623047" xlink:href="#DejaVuSans-52"/>
       <use x="127.246094" xlink:href="#DejaVuSans-107"/>
       <use x="185.15625" xlink:href="#DejaVuSans-72"/>
       <use x="260.351562" xlink:href="#DejaVuSans-122"/>
      </g>
     </g>
    </g>
    <g id="text_35">
     <!-- Frequency (Hz) -->
     <g transform="translate(338.464844 1066.316563)scale(0.1 -0.1)">
      <use xlink:href="#DejaVuSans-70"/>
      <use x="57.410156" xlink:href="#DejaVuSans-114"/>
      <use x="98.492188" xlink:href="#DejaVuSans-101"/>
      <use x="160.015625" xlink:href="#DejaVuSans-113"/>
      <use x="223.492188" xlink:href="#DejaVuSans-117"/>
      <use x="286.871094" xlink:href="#DejaVuSans-101"/>
      <use x="348.394531" xlink:href="#DejaVuSans-110"/>
      <use x="411.773438" xlink:href="#DejaVuSans-99"/>
      <use x="466.753906" xlink:href="#DejaVuSans-121"/>
      <use x="525.933594" xlink:href="#DejaVuSans-32"/>
      <use x="557.720703" xlink:href="#DejaVuSans-40"/>
      <use x="596.734375" xlink:href="#DejaVuSans-72"/>
      <use x="671.929688" xlink:href="#DejaVuSans-122"/>
      <use x="724.419922" xlink:href="#DejaVuSans-41"/>
     </g>
    </g>
   </g>
   <g id="matplotlib.axis_6">
    <g id="ytick_15">
     <g id="line2d_179">
      <path clip-path="url(#p72ab0bbb96)" d="M 59.735 1007.214737 
L 693.54 1007.214737 
" style="fill:none;stroke:#777777;stroke-linecap:square;stroke-width:0.8;"/>
     </g>
     <g id="line2d_180">
      <g>
       <use style="stroke:#000000;stroke-width:0.8;" x="59.735" xlink:href="#me9cbca6570" y="1007.214737"/>
      </g>
     </g>
     <g id="text_36">
      <!-- −150 -->
      <defs>
       <path d="M 10.796875 72.90625 
L 49.515625 72.90625 
L 49.515625 64.59375 
L 19.828125 64.59375 
L 19.828125 46.734375 
Q 21.96875 47.46875 24.109375 47.828125 
Q 26.265625 48.1875 28.421875 48.1875 
Q 40.625 48.1875 47.75 41.5 
Q 54.890625 34.8125 54.890625 23.390625 
Q 54.890625 11.625 47.5625 5.09375 
Q 40.234375 -1.421875 26.90625 -1.421875 
Q 22.3125 -1.421875 17.546875 -0.640625 
Q 12.796875 0.140625 7.71875 1.703125 
L 7.71875 11.625 
Q 12.109375 9.234375 16.796875 8.0625 
Q 21.484375 6.890625 26.703125 6.890625 
Q 35.15625 6.890625 40.078125 11.328125 
Q 45.015625 15.765625 45.015625 23.390625 
Q 45.015625 31 40.078125 35.4375 
Q 35.15625 39.890625 26.703125 39.890625 
Q 22.75 39.890625 18.8125 39.015625 
Q 14.890625 38.140625 10.796875 36.28125 
z
" id="DejaVuSans-53"/>
      </defs>
      <g transform="translate(25.267812 1011.013956)scale(0.1 -0.1)">
       <use xlink:href="#DejaVuSans-8722"/>
       <use x="83.789062" xlink:href="#DejaVuSans-49"/>
       <use x="147.412109" xlink:href="#DejaVuSans-53"/>
       <use x="211.035156" xlink:href="#DejaVuSans-48"/>
      </g>
     </g>
    </g>
    <g id="ytick_16">
     <g id="line2d_181">
      <path clip-path="url(#p72ab0bbb96)" d="M 59.735 968.683158 
L 693.54 968.683158 
" style="fill:none;stroke:#777777;stroke-linecap:square;stroke-width:0.8;"/>
     </g>
     <g id="line2d_182">
      <g>
       <use style="stroke:#000000;stroke-width:0.8;" x="59.735" xlink:href="#me9cbca6570" y="968.683158"/>
      </g>
     </g>
     <g id="text_37">
      <!-- −100 -->
      <g transform="translate(25.267812 972.482377)scale(0.1 -0.1)">
       <use xlink:href="#DejaVuSans-8722"/>
       <use x="83.789062" xlink:href="#DejaVuSans-49"/>
       <use x="147.412109" xlink:href="#DejaVuSans-48"/>
       <use x="211.035156" xlink:href="#DejaVuSans-48"/>
      </g>
     </g>
    </g>
    <g id="ytick_17">
     <g id="line2d_183">
      <path clip-path="url(#p72ab0bbb96)" d="M 59.735 930.151579 
L 693.54 930.151579 
" style="fill:none;stroke:#777777;stroke-linecap:square;stroke-width:0.8;"/>
     </g>
     <g id="line2d_184">
      <g>
       <use style="stroke:#000000;stroke-width:0.8;" x="59.735" xlink:href="#me9cbca6570" y="930.151579"/>
      </g>
     </g>
     <g id="text_38">
      <!-- −50 -->
      <g transform="translate(31.630312 933.950798)scale(0.1 -0.1)">
       <use xlink:href="#DejaVuSans-8722"/>
       <use x="83.789062" xlink:href="#DejaVuSans-53"/>
       <use x="147.412109" xlink:href="#DejaVuSans-48"/>
      </g>
     </g>
    </g>
    <g id="ytick_18">
     <g id="line2d_185">
      <path clip-path="url(#p72ab0bbb96)" d="M 59.735 891.62 
L 693.54 891.62 
" style="fill:none;stroke:#777777;stroke-linecap:square;stroke-width:0.8;"/>
     </g>
     <g id="line2d_186">
      <g>
       <use style="stroke:#000000;stroke-width:0.8;" x="59.735" xlink:href="#me9cbca6570" y="891.62"/>
      </g>
     </g>
     <g id="text_39">
      <!-- 0 -->
      <g transform="translate(46.3725 895.419219)scale(0.1 -0.1)">
       <use xlink:href="#DejaVuSans-48"/>
      </g>
     </g>
    </g>
    <g id="ytick_19">
     <g id="line2d_187">
      <path clip-path="url(#p72ab0bbb96)" d="M 59.735 853.088421 
L 693.54 853.088421 
" style="fill:none;stroke:#777777;stroke-linecap:square;stroke-width:0.8;"/>
     </g>
     <g id="line2d_188">
      <g>
       <use style="stroke:#000000;stroke-width:0.8;" x="59.735" xlink:href="#me9cbca6570" y="853.088421"/>
      </g>
     </g>
     <g id="text_40">
      <!-- 50 -->
      <g transform="translate(40.01 856.88764)scale(0.1 -0.1)">
       <use xlink:href="#DejaVuSans-53"/>
       <use x="63.623047" xlink:href="#DejaVuSans-48"/>
      </g>
     </g>
    </g>
    <g id="ytick_20">
     <g id="line2d_189">
      <path clip-path="url(#p72ab0bbb96)" d="M 59.735 814.556842 
L 693.54 814.556842 
" style="fill:none;stroke:#777777;stroke-linecap:square;stroke-width:0.8;"/>
     </g>
     <g id="line2d_190">
      <g>
       <use style="stroke:#000000;stroke-width:0.8;" x="59.735" xlink:href="#me9cbca6570" y="814.556842"/>
      </g>
     </g>
     <g id="text_41">
      <!-- 100 -->
      <g transform="translate(33.6475 818.356061)scale(0.1 -0.1)">
       <use xlink:href="#DejaVuSans-49"/>
       <use x="63.623047" xlink:href="#DejaVuSans-48"/>
       <use x="127.246094" xlink:href="#DejaVuSans-48"/>
      </g>
     </g>
    </g>
    <g id="ytick_21">
     <g id="line2d_191">
      <path clip-path="url(#p72ab0bbb96)" d="M 59.735 776.025263 
L 693.54 776.025263 
" style="fill:none;stroke:#777777;stroke-linecap:square;stroke-width:0.8;"/>
     </g>
     <g id="line2d_192">
      <g>
       <use style="stroke:#000000;stroke-width:0.8;" x="59.735" xlink:href="#me9cbca6570" y="776.025263"/>
      </g>
     </g>
     <g id="text_42">
      <!-- 150 -->
      <g transform="translate(33.6475 779.824482)scale(0.1 -0.1)">
       <use xlink:href="#DejaVuSans-49"/>
       <use x="63.623047" xlink:href="#DejaVuSans-53"/>
       <use x="127.246094" xlink:href="#DejaVuSans-48"/>
      </g>
     </g>
    </g>
    <g id="text_43">
     <!-- Phase (${\circ}$) -->
     <defs>
      <path d="M 19.671875 64.796875 
L 19.671875 37.40625 
L 32.078125 37.40625 
Q 38.96875 37.40625 42.71875 40.96875 
Q 46.484375 44.53125 46.484375 51.125 
Q 46.484375 57.671875 42.71875 61.234375 
Q 38.96875 64.796875 32.078125 64.796875 
z
M 9.8125 72.90625 
L 32.078125 72.90625 
Q 44.34375 72.90625 50.609375 67.359375 
Q 56.890625 61.8125 56.890625 51.125 
Q 56.890625 40.328125 50.609375 34.8125 
Q 44.34375 29.296875 32.078125 29.296875 
L 19.671875 29.296875 
L 19.671875 0 
L 9.8125 0 
z
" id="DejaVuSans-80"/>
      <path d="M 54.890625 33.015625 
L 54.890625 0 
L 45.90625 0 
L 45.90625 32.71875 
Q 45.90625 40.484375 42.875 44.328125 
Q 39.84375 48.1875 33.796875 48.1875 
Q 26.515625 48.1875 22.3125 43.546875 
Q 18.109375 38.921875 18.109375 30.90625 
L 18.109375 0 
L 9.078125 0 
L 9.078125 75.984375 
L 18.109375 75.984375 
L 18.109375 46.1875 
Q 21.34375 51.125 25.703125 53.5625 
Q 30.078125 56 35.796875 56 
Q 45.21875 56 50.046875 50.171875 
Q 54.890625 44.34375 54.890625 33.015625 
z
" id="DejaVuSans-104"/>
      <path d="M 31.296875 40.671875 
Q 27.390625 40.671875 24.703125 37.953125 
Q 22.015625 35.25 22.015625 31.34375 
Q 22.015625 27.484375 24.703125 24.828125 
Q 27.390625 22.171875 31.296875 22.171875 
Q 35.203125 22.171875 37.890625 24.828125 
Q 40.578125 27.484375 40.578125 31.34375 
Q 40.578125 35.203125 37.859375 37.9375 
Q 35.15625 40.671875 31.296875 40.671875 
z
M 31.296875 46.96875 
Q 34.421875 46.96875 37.296875 45.765625 
Q 40.1875 44.578125 42.28125 42.328125 
Q 44.53125 40.140625 45.65625 37.34375 
Q 46.78125 34.5625 46.78125 31.34375 
Q 46.78125 24.90625 42.265625 20.4375 
Q 37.75 15.96875 31.203125 15.96875 
Q 24.609375 15.96875 20.21875 20.359375 
Q 15.828125 24.75 15.828125 31.34375 
Q 15.828125 37.890625 20.3125 42.421875 
Q 24.8125 46.96875 31.296875 46.96875 
z
" id="DejaVuSans-8728"/>
     </defs>
     <g transform="translate(19.188125 915.17)rotate(-90)scale(0.1 -0.1)">
      <use transform="translate(0 0.015625)" xlink:href="#DejaVuSans-80"/>
      <use transform="translate(60.302734 0.015625)" xlink:href="#DejaVuSans-104"/>
      <use transform="translate(123.681641 0.015625)" xlink:href="#DejaVuSans-97"/>
      <use transform="translate(184.960938 0.015625)" xlink:href="#DejaVuSans-115"/>
      <use transform="translate(237.060547 0.015625)" xlink:href="#DejaVuSans-101"/>
      <use transform="translate(298.583984 0.015625)" xlink:href="#DejaVuSans-32"/>
      <use transform="translate(330.371094 0.015625)" xlink:href="#DejaVuSans-40"/>
      <use transform="translate(369.384766 0.015625)" xlink:href="#DejaVuSans-8728"/>
      <use transform="translate(431.982422 0.015625)" xlink:href="#DejaVuSans-41"/>
     </g>
    </g>
   </g>
   <g id="line2d_193">
    <path clip-path="url(#p72ab0bbb96)" d="M -1 892.039767 
L 16.20606 892.039805 
L 72.650555 892.45962 
L 105.668468 892.879452 
L 147.266119 893.719198 
L 174.665791 894.559093 
L 195.130876 895.399201 
L 211.471931 896.239593 
L 231.110286 897.500849 
L 246.920836 898.763074 
L 260.155109 900.026497 
L 271.53623 901.291326 
L 284.593284 902.980305 
L 295.843169 904.672677 
L 305.72585 906.368929 
L 314.537919 908.0696 
L 324.360921 910.202417 
L 333.125522 912.343963 
L 341.037779 914.495282 
L 348.248876 916.657416 
L 356.13557 919.267798 
L 363.325431 921.897226 
L 369.931662 924.547641 
L 376.041942 927.221052 
L 381.725563 929.919532 
L 387.890943 933.102276 
L 393.622206 936.325535 
L 398.976485 939.592965 
L 404.000327 942.908387 
L 408.732159 946.275808 
L 413.823329 950.193377 
L 418.61484 954.191016 
L 423.140015 958.275807 
L 427.426909 962.455315 
L 431.499368 966.737648 
L 435.377824 971.13153 
L 439.079925 975.64637 
L 442.621013 980.292356 
L 446.014512 985.080554 
L 449.272234 990.023021 
L 452.787839 995.784165 
L 456.157928 1001.778022 
L 459.39407 1008.027731 
L 462.506507 1014.559233 
L 465.504349 1021.401771 
L 468.395737 1028.588498 
L 468.710755 1029.409858 
L 469.02456 752.808615 
L 471.795677 760.467925 
L 474.475589 768.563219 
L 477.070108 777.146477 
L 479.58451 786.278483 
L 482.023593 796.031025 
L 484.39174 806.489877 
L 486.692959 817.758938 
L 488.930931 829.966192 
L 490.869885 841.733903 
L 492.763742 854.513087 
L 494.614553 868.489318 
L 496.424232 883.911745 
L 498.194567 901.132337 
L 499.712654 918.084997 
L 501.202958 937.360672 
L 502.459007 956.35037 
L 503.695975 978.338219 
L 504.914435 1003.851013 
L 505.916073 1027.424046 
L 506.114931 754.850106 
L 508.656839 814.681077 
L 510.371264 848.786865 
L 512.234782 881.17762 
L 514.595301 917.966303 
L 517.409652 958.067566 
L 520.796094 1002.966405 
L 522.76236 1027.924989 
L 522.924092 1029.50701 
L 523.085504 753.709822 
L 523.567828 760.820475 
L 524.047312 767.362824 
L 524.206515 767.760902 
L 524.365407 767.85162 
L 524.52399 768.865443 
L 524.840232 776.182861 
L 525.312304 789.14792 
L 525.469055 785.376938 
L 525.781655 771.788498 
L 525.937506 776.309446 
L 526.248316 801.018157 
L 526.557945 840.34304 
L 526.712319 879.463119 
L 527.020191 1009.793679 
L 527.173692 759.229221 
L 527.784818 876.992798 
L 528.391393 1024.454695 
L 528.542333 780.895511 
L 529.591152 1023.024879 
L 529.739887 780.29619 
L 530.773491 1023.369505 
L 530.920084 780.678925 
L 531.938909 1023.822209 
L 532.083421 781.128042 
L 533.087883 1024.246322 
L 533.230372 781.548222 
L 534.220871 1024.640652 
L 534.361393 781.939072 
L 535.338312 1025.00852 
L 535.47692 782.303841 
L 536.440626 1025.352746 
L 536.577372 782.645288 
L 537.528217 1025.675403 
L 537.66315 782.965649 
L 538.601474 1025.963347 
L 538.734642 783.256698 
L 539.660769 1025.961177 
L 539.792218 783.281778 
L 540.706462 1023.549697 
L 540.836234 780.39552 
L 541.738897 1011.541636 
L 541.867036 757.571758 
L 541.994973 785.073808 
L 542.250247 939.232083 
L 542.631663 988.752034 
L 542.884951 1004.705431 
L 543.011301 1002.192069 
L 543.263413 988.003053 
L 543.389177 989.030017 
L 543.8903 1005.872518 
L 544.0151 1006.692589 
L 544.264128 1005.997124 
L 544.388357 1006.771003 
L 545.86451 1027.298612 
L 545.986323 1028.893706 
L 546.107955 752.909342 
L 546.954325 763.631139 
L 550.023148 804.081639 
L 552.868727 844.213036 
L 555.293139 881.308665 
L 557.330391 915.730117 
L 559.007303 947.719766 
L 560.446799 979.271007 
L 562.260957 1024.693757 
L 562.360568 1027.262606 
L 562.460058 752.39549 
L 562.559426 754.944963 
L 564.230393 795.002278 
L 565.485448 820.071229 
L 566.815759 842.29225 
L 568.21738 862.09251 
L 569.777256 880.986737 
L 571.486001 898.895483 
L 573.246765 915.039351 
L 575.140623 930.362939 
L 577.157622 944.827973 
L 579.206855 957.935365 
L 581.363596 970.309389 
L 583.618187 981.95064 
L 585.961178 992.875592 
L 588.383404 1003.111595 
L 590.876058 1012.692977 
L 593.498677 1021.885883 
L 595.84173 1029.4358 
L 595.907693 752.212773 
L 595.973604 752.41652 
L 598.758435 760.653609 
L 601.635755 768.474311 
L 604.652107 776.023107 
L 607.731965 783.136975 
L 610.974031 790.063816 
L 614.30264 796.65525 
L 617.803425 803.093897 
L 621.449516 809.332618 
L 625.261832 815.413859 
L 629.254626 821.363991 
L 633.477508 827.255063 
L 637.926251 833.078405 
L 642.666018 838.916072 
L 647.775189 844.854786 
L 653.400405 851.047789 
L 659.783151 857.735488 
L 667.610099 865.598502 
L 690.584393 888.461946 
L 693.520117 891.598395 
L 693.520117 891.598395 
" style="fill:none;stroke:#0072bd;stroke-linecap:square;stroke-width:1.4;"/>
   </g>
   <g id="patch_13">
    <path d="M 59.735 1038.04 
L 59.735 745.2 
" style="fill:none;stroke:#000000;stroke-linecap:square;stroke-linejoin:miter;stroke-width:0.8;"/>
   </g>
   <g id="patch_14">
    <path d="M 693.54 1038.04 
L 693.54 745.2 
" style="fill:none;stroke:#000000;stroke-linecap:square;stroke-linejoin:miter;stroke-width:0.8;"/>
   </g>
   <g id="patch_15">
    <path d="M 59.735 1038.04 
L 693.54 1038.04 
" style="fill:none;stroke:#000000;stroke-linecap:square;stroke-linejoin:miter;stroke-width:0.8;"/>
   </g>
   <g id="patch_16">
    <path d="M 59.735 745.2 
L 693.54 745.2 
" style="fill:none;stroke:#000000;stroke-linecap:square;stroke-linejoin:miter;stroke-width:0.8;"/>
   </g>
  </g>
  <g id="text_44">
   <!-- 12th-order Butterworth filter, bandstop -->
   <defs>
    <path d="M 4.890625 31.390625 
L 31.203125 31.390625 
L 31.203125 23.390625 
L 4.890625 23.390625 
z
" id="DejaVuSans-45"/>
    <path d="M 30.609375 48.390625 
Q 23.390625 48.390625 19.1875 42.75 
Q 14.984375 37.109375 14.984375 27.296875 
Q 14.984375 17.484375 19.15625 11.84375 
Q 23.34375 6.203125 30.609375 6.203125 
Q 37.796875 6.203125 41.984375 11.859375 
Q 46.1875 17.53125 46.1875 27.296875 
Q 46.1875 37.015625 41.984375 42.703125 
Q 37.796875 48.390625 30.609375 48.390625 
z
M 30.609375 56 
Q 42.328125 56 49.015625 48.375 
Q 55.71875 40.765625 55.71875 27.296875 
Q 55.71875 13.875 49.015625 6.21875 
Q 42.328125 -1.421875 30.609375 -1.421875 
Q 18.84375 -1.421875 12.171875 6.21875 
Q 5.515625 13.875 5.515625 27.296875 
Q 5.515625 40.765625 12.171875 48.375 
Q 18.84375 56 30.609375 56 
z
" id="DejaVuSans-111"/>
    <path d="M 4.203125 54.6875 
L 13.1875 54.6875 
L 24.421875 12.015625 
L 35.59375 54.6875 
L 46.1875 54.6875 
L 57.421875 12.015625 
L 68.609375 54.6875 
L 77.59375 54.6875 
L 63.28125 0 
L 52.6875 0 
L 40.921875 44.828125 
L 29.109375 0 
L 18.5 0 
z
" id="DejaVuSans-119"/>
    <path d="M 37.109375 75.984375 
L 37.109375 68.5 
L 28.515625 68.5 
Q 23.6875 68.5 21.796875 66.546875 
Q 19.921875 64.59375 19.921875 59.515625 
L 19.921875 54.6875 
L 34.71875 54.6875 
L 34.71875 47.703125 
L 19.921875 47.703125 
L 19.921875 0 
L 10.890625 0 
L 10.890625 47.703125 
L 2.296875 47.703125 
L 2.296875 54.6875 
L 10.890625 54.6875 
L 10.890625 58.5 
Q 10.890625 67.625 15.140625 71.796875 
Q 19.390625 75.984375 28.609375 75.984375 
z
" id="DejaVuSans-102"/>
    <path d="M 11.71875 12.40625 
L 22.015625 12.40625 
L 22.015625 4 
L 14.015625 -11.625 
L 7.71875 -11.625 
L 11.71875 4 
z
" id="DejaVuSans-44"/>
    <path d="M 48.6875 27.296875 
Q 48.6875 37.203125 44.609375 42.84375 
Q 40.53125 48.484375 33.40625 48.484375 
Q 26.265625 48.484375 22.1875 42.84375 
Q 18.109375 37.203125 18.109375 27.296875 
Q 18.109375 17.390625 22.1875 11.75 
Q 26.265625 6.109375 33.40625 6.109375 
Q 40.53125 6.109375 44.609375 11.75 
Q 48.6875 17.390625 48.6875 27.296875 
z
M 18.109375 46.390625 
Q 20.953125 51.265625 25.265625 53.625 
Q 29.59375 56 35.59375 56 
Q 45.5625 56 51.78125 48.09375 
Q 58.015625 40.1875 58.015625 27.296875 
Q 58.015625 14.40625 51.78125 6.484375 
Q 45.5625 -1.421875 35.59375 -1.421875 
Q 29.59375 -1.421875 25.265625 0.953125 
Q 20.953125 3.328125 18.109375 8.203125 
L 18.109375 0 
L 9.078125 0 
L 9.078125 75.984375 
L 18.109375 75.984375 
z
" id="DejaVuSans-98"/>
   </defs>
   <g transform="translate(203.0925 33.7575)scale(0.16 -0.16)">
    <use xlink:href="#DejaVuSans-49"/>
    <use x="63.623047" xlink:href="#DejaVuSans-50"/>
    <use x="127.246094" xlink:href="#DejaVuSans-116"/>
    <use x="166.455078" xlink:href="#DejaVuSans-104"/>
    <use x="229.833984" xlink:href="#DejaVuSans-45"/>
    <use x="265.933594" xlink:href="#DejaVuSans-111"/>
    <use x="327.115234" xlink:href="#DejaVuSans-114"/>
    <use x="368.212891" xlink:href="#DejaVuSans-100"/>
    <use x="431.689453" xlink:href="#DejaVuSans-101"/>
    <use x="493.212891" xlink:href="#DejaVuSans-114"/>
    <use x="534.326172" xlink:href="#DejaVuSans-32"/>
    <use x="566.113281" xlink:href="#DejaVuSans-66"/>
    <use x="634.716797" xlink:href="#DejaVuSans-117"/>
    <use x="698.095703" xlink:href="#DejaVuSans-116"/>
    <use x="737.304688" xlink:href="#DejaVuSans-116"/>
    <use x="776.513672" xlink:href="#DejaVuSans-101"/>
    <use x="838.037109" xlink:href="#DejaVuSans-114"/>
    <use x="879.150391" xlink:href="#DejaVuSans-119"/>
    <use x="960.9375" xlink:href="#DejaVuSans-111"/>
    <use x="1022.119141" xlink:href="#DejaVuSans-114"/>
    <use x="1063.232422" xlink:href="#DejaVuSans-116"/>
    <use x="1102.441406" xlink:href="#DejaVuSans-104"/>
    <use x="1165.820312" xlink:href="#DejaVuSans-32"/>
    <use x="1197.607422" xlink:href="#DejaVuSans-102"/>
    <use x="1232.8125" xlink:href="#DejaVuSans-105"/>
    <use x="1260.595703" xlink:href="#DejaVuSans-108"/>
    <use x="1288.378906" xlink:href="#DejaVuSans-116"/>
    <use x="1327.587891" xlink:href="#DejaVuSans-101"/>
    <use x="1389.111328" xlink:href="#DejaVuSans-114"/>
    <use x="1430.224609" xlink:href="#DejaVuSans-44"/>
    <use x="1462.011719" xlink:href="#DejaVuSans-32"/>
    <use x="1493.798828" xlink:href="#DejaVuSans-98"/>
    <use x="1557.275391" xlink:href="#DejaVuSans-97"/>
    <use x="1618.554688" xlink:href="#DejaVuSans-110"/>
    <use x="1681.933594" xlink:href="#DejaVuSans-100"/>
    <use x="1745.410156" xlink:href="#DejaVuSans-115"/>
    <use x="1797.509766" xlink:href="#DejaVuSans-116"/>
    <use x="1836.71875" xlink:href="#DejaVuSans-111"/>
    <use x="1897.900391" xlink:href="#DejaVuSans-112"/>
   </g>
  </g>
 </g>
 <defs>
  <clipPath id="pe1ad9ad180">
   <rect height="292.84" width="633.805" x="59.735" y="75.6"/>
  </clipPath>
  <clipPath id="p652a3695bd">
   <rect height="292.84" width="633.805" x="59.735" y="410.4"/>
  </clipPath>
  <clipPath id="p72ab0bbb96">
   <rect height="292.84" width="633.805" x="59.735" y="745.2"/>
  </clipPath>
 </defs>
</svg>
