<?xml version="1.0" encoding="utf-8" standalone="no"?>
<!DOCTYPE svg PUBLIC "-//W3C//DTD SVG 1.1//EN"
  "http://www.w3.org/Graphics/SVG/1.1/DTD/svg11.dtd">
<!-- Created with matplotlib (https://matplotlib.org/) -->
<svg height="1080pt" version="1.1" viewBox="0 0 720 1080" width="720pt" xmlns="http://www.w3.org/2000/svg" xmlns:xlink="http://www.w3.org/1999/xlink">
 <defs>
  <style type="text/css">
*{stroke-linecap:butt;stroke-linejoin:round;}
  </style>
 </defs>
 <g id="figure_1">
  <g id="patch_1">
   <path d="M 0 1080 
L 720 1080 
L 720 0 
L 0 0 
z
" style="fill:#ffffff;"/>
  </g>
  <g id="axes_1">
   <g id="patch_2">
    <path d="M 62.57 368.44 
L 693.54 368.44 
L 693.54 75.6 
L 62.57 75.6 
z
" style="fill:#ffffff;"/>
   </g>
   <g id="matplotlib.axis_1">
    <g id="xtick_1">
     <g id="line2d_1">
      <path clip-path="url(#p093e4a304d)" d="M 62.57 368.44 
L 62.57 75.6 
" style="fill:none;stroke:#777777;stroke-linecap:square;stroke-width:0.8;"/>
     </g>
     <g id="line2d_2">
      <defs>
       <path d="M 0 0 
L 0 3.5 
" id="m1a58169807" style="stroke:#000000;stroke-width:0.8;"/>
      </defs>
      <g>
       <use style="stroke:#000000;stroke-width:0.8;" x="62.57" xlink:href="#m1a58169807" y="368.44"/>
      </g>
     </g>
     <g id="text_1">
      <!-- 0 -->
      <defs>
       <path d="M 31.78125 66.40625 
Q 24.171875 66.40625 20.328125 58.90625 
Q 16.5 51.421875 16.5 36.375 
Q 16.5 21.390625 20.328125 13.890625 
Q 24.171875 6.390625 31.78125 6.390625 
Q 39.453125 6.390625 43.28125 13.890625 
Q 47.125 21.390625 47.125 36.375 
Q 47.125 51.421875 43.28125 58.90625 
Q 39.453125 66.40625 31.78125 66.40625 
z
M 31.78125 74.21875 
Q 44.046875 74.21875 50.515625 64.515625 
Q 56.984375 54.828125 56.984375 36.375 
Q 56.984375 17.96875 50.515625 8.265625 
Q 44.046875 -1.421875 31.78125 -1.421875 
Q 19.53125 -1.421875 13.0625 8.265625 
Q 6.59375 17.96875 6.59375 36.375 
Q 6.59375 54.828125 13.0625 64.515625 
Q 19.53125 74.21875 31.78125 74.21875 
z
" id="DejaVuSans-48"/>
      </defs>
      <g transform="translate(59.38875 383.038438)scale(0.1 -0.1)">
       <use xlink:href="#DejaVuSans-48"/>
      </g>
     </g>
    </g>
    <g id="xtick_2">
     <g id="line2d_3">
      <path clip-path="url(#p093e4a304d)" d="M 185.926794 368.44 
L 185.926794 75.6 
" style="fill:none;stroke:#777777;stroke-linecap:square;stroke-width:0.8;"/>
     </g>
     <g id="line2d_4">
      <g>
       <use style="stroke:#000000;stroke-width:0.8;" x="185.926794" xlink:href="#m1a58169807" y="368.44"/>
      </g>
     </g>
     <g id="text_2">
      <!-- 200 -->
      <defs>
       <path d="M 19.1875 8.296875 
L 53.609375 8.296875 
L 53.609375 0 
L 7.328125 0 
L 7.328125 8.296875 
Q 12.9375 14.109375 22.625 23.890625 
Q 32.328125 33.6875 34.8125 36.53125 
Q 39.546875 41.84375 41.421875 45.53125 
Q 43.3125 49.21875 43.3125 52.78125 
Q 43.3125 58.59375 39.234375 62.25 
Q 35.15625 65.921875 28.609375 65.921875 
Q 23.96875 65.921875 18.8125 64.3125 
Q 13.671875 62.703125 7.8125 59.421875 
L 7.8125 69.390625 
Q 13.765625 71.78125 18.9375 73 
Q 24.125 74.21875 28.421875 74.21875 
Q 39.75 74.21875 46.484375 68.546875 
Q 53.21875 62.890625 53.21875 53.421875 
Q 53.21875 48.921875 51.53125 44.890625 
Q 49.859375 40.875 45.40625 35.40625 
Q 44.1875 33.984375 37.640625 27.21875 
Q 31.109375 20.453125 19.1875 8.296875 
z
" id="DejaVuSans-50"/>
      </defs>
      <g transform="translate(176.383044 383.038438)scale(0.1 -0.1)">
       <use xlink:href="#DejaVuSans-50"/>
       <use x="63.623047" xlink:href="#DejaVuSans-48"/>
       <use x="127.246094" xlink:href="#DejaVuSans-48"/>
      </g>
     </g>
    </g>
    <g id="xtick_3">
     <g id="line2d_5">
      <path clip-path="url(#p093e4a304d)" d="M 309.283587 368.44 
L 309.283587 75.6 
" style="fill:none;stroke:#777777;stroke-linecap:square;stroke-width:0.8;"/>
     </g>
     <g id="line2d_6">
      <g>
       <use style="stroke:#000000;stroke-width:0.8;" x="309.283587" xlink:href="#m1a58169807" y="368.44"/>
      </g>
     </g>
     <g id="text_3">
      <!-- 400 -->
      <defs>
       <path d="M 37.796875 64.3125 
L 12.890625 25.390625 
L 37.796875 25.390625 
z
M 35.203125 72.90625 
L 47.609375 72.90625 
L 47.609375 25.390625 
L 58.015625 25.390625 
L 58.015625 17.1875 
L 47.609375 17.1875 
L 47.609375 0 
L 37.796875 0 
L 37.796875 17.1875 
L 4.890625 17.1875 
L 4.890625 26.703125 
z
" id="DejaVuSans-52"/>
      </defs>
      <g transform="translate(299.739837 383.038438)scale(0.1 -0.1)">
       <use xlink:href="#DejaVuSans-52"/>
       <use x="63.623047" xlink:href="#DejaVuSans-48"/>
       <use x="127.246094" xlink:href="#DejaVuSans-48"/>
      </g>
     </g>
    </g>
    <g id="xtick_4">
     <g id="line2d_7">
      <path clip-path="url(#p093e4a304d)" d="M 432.640381 368.44 
L 432.640381 75.6 
" style="fill:none;stroke:#777777;stroke-linecap:square;stroke-width:0.8;"/>
     </g>
     <g id="line2d_8">
      <g>
       <use style="stroke:#000000;stroke-width:0.8;" x="432.640381" xlink:href="#m1a58169807" y="368.44"/>
      </g>
     </g>
     <g id="text_4">
      <!-- 600 -->
      <defs>
       <path d="M 33.015625 40.375 
Q 26.375 40.375 22.484375 35.828125 
Q 18.609375 31.296875 18.609375 23.390625 
Q 18.609375 15.53125 22.484375 10.953125 
Q 26.375 6.390625 33.015625 6.390625 
Q 39.65625 6.390625 43.53125 10.953125 
Q 47.40625 15.53125 47.40625 23.390625 
Q 47.40625 31.296875 43.53125 35.828125 
Q 39.65625 40.375 33.015625 40.375 
z
M 52.59375 71.296875 
L 52.59375 62.3125 
Q 48.875 64.0625 45.09375 64.984375 
Q 41.3125 65.921875 37.59375 65.921875 
Q 27.828125 65.921875 22.671875 59.328125 
Q 17.53125 52.734375 16.796875 39.40625 
Q 19.671875 43.65625 24.015625 45.921875 
Q 28.375 48.1875 33.59375 48.1875 
Q 44.578125 48.1875 50.953125 41.515625 
Q 57.328125 34.859375 57.328125 23.390625 
Q 57.328125 12.15625 50.6875 5.359375 
Q 44.046875 -1.421875 33.015625 -1.421875 
Q 20.359375 -1.421875 13.671875 8.265625 
Q 6.984375 17.96875 6.984375 36.375 
Q 6.984375 53.65625 15.1875 63.9375 
Q 23.390625 74.21875 37.203125 74.21875 
Q 40.921875 74.21875 44.703125 73.484375 
Q 48.484375 72.75 52.59375 71.296875 
z
" id="DejaVuSans-54"/>
      </defs>
      <g transform="translate(423.096631 383.038438)scale(0.1 -0.1)">
       <use xlink:href="#DejaVuSans-54"/>
       <use x="63.623047" xlink:href="#DejaVuSans-48"/>
       <use x="127.246094" xlink:href="#DejaVuSans-48"/>
      </g>
     </g>
    </g>
    <g id="xtick_5">
     <g id="line2d_9">
      <path clip-path="url(#p093e4a304d)" d="M 555.997175 368.44 
L 555.997175 75.6 
" style="fill:none;stroke:#777777;stroke-linecap:square;stroke-width:0.8;"/>
     </g>
     <g id="line2d_10">
      <g>
       <use style="stroke:#000000;stroke-width:0.8;" x="555.997175" xlink:href="#m1a58169807" y="368.44"/>
      </g>
     </g>
     <g id="text_5">
      <!-- 800 -->
      <defs>
       <path d="M 31.78125 34.625 
Q 24.75 34.625 20.71875 30.859375 
Q 16.703125 27.09375 16.703125 20.515625 
Q 16.703125 13.921875 20.71875 10.15625 
Q 24.75 6.390625 31.78125 6.390625 
Q 38.8125 6.390625 42.859375 10.171875 
Q 46.921875 13.96875 46.921875 20.515625 
Q 46.921875 27.09375 42.890625 30.859375 
Q 38.875 34.625 31.78125 34.625 
z
M 21.921875 38.8125 
Q 15.578125 40.375 12.03125 44.71875 
Q 8.5 49.078125 8.5 55.328125 
Q 8.5 64.0625 14.71875 69.140625 
Q 20.953125 74.21875 31.78125 74.21875 
Q 42.671875 74.21875 48.875 69.140625 
Q 55.078125 64.0625 55.078125 55.328125 
Q 55.078125 49.078125 51.53125 44.71875 
Q 48 40.375 41.703125 38.8125 
Q 48.828125 37.15625 52.796875 32.3125 
Q 56.78125 27.484375 56.78125 20.515625 
Q 56.78125 9.90625 50.3125 4.234375 
Q 43.84375 -1.421875 31.78125 -1.421875 
Q 19.734375 -1.421875 13.25 4.234375 
Q 6.78125 9.90625 6.78125 20.515625 
Q 6.78125 27.484375 10.78125 32.3125 
Q 14.796875 37.15625 21.921875 38.8125 
z
M 18.3125 54.390625 
Q 18.3125 48.734375 21.84375 45.5625 
Q 25.390625 42.390625 31.78125 42.390625 
Q 38.140625 42.390625 41.71875 45.5625 
Q 45.3125 48.734375 45.3125 54.390625 
Q 45.3125 60.0625 41.71875 63.234375 
Q 38.140625 66.40625 31.78125 66.40625 
Q 25.390625 66.40625 21.84375 63.234375 
Q 18.3125 60.0625 18.3125 54.390625 
z
" id="DejaVuSans-56"/>
      </defs>
      <g transform="translate(546.453425 383.038438)scale(0.1 -0.1)">
       <use xlink:href="#DejaVuSans-56"/>
       <use x="63.623047" xlink:href="#DejaVuSans-48"/>
       <use x="127.246094" xlink:href="#DejaVuSans-48"/>
      </g>
     </g>
    </g>
    <g id="xtick_6">
     <g id="line2d_11">
      <path clip-path="url(#p093e4a304d)" d="M 679.353969 368.44 
L 679.353969 75.6 
" style="fill:none;stroke:#777777;stroke-linecap:square;stroke-width:0.8;"/>
     </g>
     <g id="line2d_12">
      <g>
       <use style="stroke:#000000;stroke-width:0.8;" x="679.353969" xlink:href="#m1a58169807" y="368.44"/>
      </g>
     </g>
     <g id="text_6">
      <!-- 1000 -->
      <defs>
       <path d="M 12.40625 8.296875 
L 28.515625 8.296875 
L 28.515625 63.921875 
L 10.984375 60.40625 
L 10.984375 69.390625 
L 28.421875 72.90625 
L 38.28125 72.90625 
L 38.28125 8.296875 
L 54.390625 8.296875 
L 54.390625 0 
L 12.40625 0 
z
" id="DejaVuSans-49"/>
      </defs>
      <g transform="translate(666.628969 383.038438)scale(0.1 -0.1)">
       <use xlink:href="#DejaVuSans-49"/>
       <use x="63.623047" xlink:href="#DejaVuSans-48"/>
       <use x="127.246094" xlink:href="#DejaVuSans-48"/>
       <use x="190.869141" xlink:href="#DejaVuSans-48"/>
      </g>
     </g>
    </g>
    <g id="text_7">
     <!-- Samples -->
     <defs>
      <path d="M 53.515625 70.515625 
L 53.515625 60.890625 
Q 47.90625 63.578125 42.921875 64.890625 
Q 37.9375 66.21875 33.296875 66.21875 
Q 25.25 66.21875 20.875 63.09375 
Q 16.5 59.96875 16.5 54.203125 
Q 16.5 49.359375 19.40625 46.890625 
Q 22.3125 44.4375 30.421875 42.921875 
L 36.375 41.703125 
Q 47.40625 39.59375 52.65625 34.296875 
Q 57.90625 29 57.90625 20.125 
Q 57.90625 9.515625 50.796875 4.046875 
Q 43.703125 -1.421875 29.984375 -1.421875 
Q 24.8125 -1.421875 18.96875 -0.25 
Q 13.140625 0.921875 6.890625 3.21875 
L 6.890625 13.375 
Q 12.890625 10.015625 18.65625 8.296875 
Q 24.421875 6.59375 29.984375 6.59375 
Q 38.421875 6.59375 43.015625 9.90625 
Q 47.609375 13.234375 47.609375 19.390625 
Q 47.609375 24.75 44.3125 27.78125 
Q 41.015625 30.8125 33.5 32.328125 
L 27.484375 33.5 
Q 16.453125 35.6875 11.515625 40.375 
Q 6.59375 45.0625 6.59375 53.421875 
Q 6.59375 63.09375 13.40625 68.65625 
Q 20.21875 74.21875 32.171875 74.21875 
Q 37.3125 74.21875 42.625 73.28125 
Q 47.953125 72.359375 53.515625 70.515625 
z
" id="DejaVuSans-83"/>
      <path d="M 34.28125 27.484375 
Q 23.390625 27.484375 19.1875 25 
Q 14.984375 22.515625 14.984375 16.5 
Q 14.984375 11.71875 18.140625 8.90625 
Q 21.296875 6.109375 26.703125 6.109375 
Q 34.1875 6.109375 38.703125 11.40625 
Q 43.21875 16.703125 43.21875 25.484375 
L 43.21875 27.484375 
z
M 52.203125 31.203125 
L 52.203125 0 
L 43.21875 0 
L 43.21875 8.296875 
Q 40.140625 3.328125 35.546875 0.953125 
Q 30.953125 -1.421875 24.3125 -1.421875 
Q 15.921875 -1.421875 10.953125 3.296875 
Q 6 8.015625 6 15.921875 
Q 6 25.140625 12.171875 29.828125 
Q 18.359375 34.515625 30.609375 34.515625 
L 43.21875 34.515625 
L 43.21875 35.40625 
Q 43.21875 41.609375 39.140625 45 
Q 35.0625 48.390625 27.6875 48.390625 
Q 23 48.390625 18.546875 47.265625 
Q 14.109375 46.140625 10.015625 43.890625 
L 10.015625 52.203125 
Q 14.9375 54.109375 19.578125 55.046875 
Q 24.21875 56 28.609375 56 
Q 40.484375 56 46.34375 49.84375 
Q 52.203125 43.703125 52.203125 31.203125 
z
" id="DejaVuSans-97"/>
      <path d="M 52 44.1875 
Q 55.375 50.25 60.0625 53.125 
Q 64.75 56 71.09375 56 
Q 79.640625 56 84.28125 50.015625 
Q 88.921875 44.046875 88.921875 33.015625 
L 88.921875 0 
L 79.890625 0 
L 79.890625 32.71875 
Q 79.890625 40.578125 77.09375 44.375 
Q 74.3125 48.1875 68.609375 48.1875 
Q 61.625 48.1875 57.5625 43.546875 
Q 53.515625 38.921875 53.515625 30.90625 
L 53.515625 0 
L 44.484375 0 
L 44.484375 32.71875 
Q 44.484375 40.625 41.703125 44.40625 
Q 38.921875 48.1875 33.109375 48.1875 
Q 26.21875 48.1875 22.15625 43.53125 
Q 18.109375 38.875 18.109375 30.90625 
L 18.109375 0 
L 9.078125 0 
L 9.078125 54.6875 
L 18.109375 54.6875 
L 18.109375 46.1875 
Q 21.1875 51.21875 25.484375 53.609375 
Q 29.78125 56 35.6875 56 
Q 41.65625 56 45.828125 52.96875 
Q 50 49.953125 52 44.1875 
z
" id="DejaVuSans-109"/>
      <path d="M 18.109375 8.203125 
L 18.109375 -20.796875 
L 9.078125 -20.796875 
L 9.078125 54.6875 
L 18.109375 54.6875 
L 18.109375 46.390625 
Q 20.953125 51.265625 25.265625 53.625 
Q 29.59375 56 35.59375 56 
Q 45.5625 56 51.78125 48.09375 
Q 58.015625 40.1875 58.015625 27.296875 
Q 58.015625 14.40625 51.78125 6.484375 
Q 45.5625 -1.421875 35.59375 -1.421875 
Q 29.59375 -1.421875 25.265625 0.953125 
Q 20.953125 3.328125 18.109375 8.203125 
z
M 48.6875 27.296875 
Q 48.6875 37.203125 44.609375 42.84375 
Q 40.53125 48.484375 33.40625 48.484375 
Q 26.265625 48.484375 22.1875 42.84375 
Q 18.109375 37.203125 18.109375 27.296875 
Q 18.109375 17.390625 22.1875 11.75 
Q 26.265625 6.109375 33.40625 6.109375 
Q 40.53125 6.109375 44.609375 11.75 
Q 48.6875 17.390625 48.6875 27.296875 
z
" id="DejaVuSans-112"/>
      <path d="M 9.421875 75.984375 
L 18.40625 75.984375 
L 18.40625 0 
L 9.421875 0 
z
" id="DejaVuSans-108"/>
      <path d="M 56.203125 29.59375 
L 56.203125 25.203125 
L 14.890625 25.203125 
Q 15.484375 15.921875 20.484375 11.0625 
Q 25.484375 6.203125 34.421875 6.203125 
Q 39.59375 6.203125 44.453125 7.46875 
Q 49.3125 8.734375 54.109375 11.28125 
L 54.109375 2.78125 
Q 49.265625 0.734375 44.1875 -0.34375 
Q 39.109375 -1.421875 33.890625 -1.421875 
Q 20.796875 -1.421875 13.15625 6.1875 
Q 5.515625 13.8125 5.515625 26.8125 
Q 5.515625 40.234375 12.765625 48.109375 
Q 20.015625 56 32.328125 56 
Q 43.359375 56 49.78125 48.890625 
Q 56.203125 41.796875 56.203125 29.59375 
z
M 47.21875 32.234375 
Q 47.125 39.59375 43.09375 43.984375 
Q 39.0625 48.390625 32.421875 48.390625 
Q 24.90625 48.390625 20.390625 44.140625 
Q 15.875 39.890625 15.1875 32.171875 
z
" id="DejaVuSans-101"/>
      <path d="M 44.28125 53.078125 
L 44.28125 44.578125 
Q 40.484375 46.53125 36.375 47.5 
Q 32.28125 48.484375 27.875 48.484375 
Q 21.1875 48.484375 17.84375 46.4375 
Q 14.5 44.390625 14.5 40.28125 
Q 14.5 37.15625 16.890625 35.375 
Q 19.28125 33.59375 26.515625 31.984375 
L 29.59375 31.296875 
Q 39.15625 29.25 43.1875 25.515625 
Q 47.21875 21.78125 47.21875 15.09375 
Q 47.21875 7.46875 41.1875 3.015625 
Q 35.15625 -1.421875 24.609375 -1.421875 
Q 20.21875 -1.421875 15.453125 -0.5625 
Q 10.6875 0.296875 5.421875 2 
L 5.421875 11.28125 
Q 10.40625 8.6875 15.234375 7.390625 
Q 20.0625 6.109375 24.8125 6.109375 
Q 31.15625 6.109375 34.5625 8.28125 
Q 37.984375 10.453125 37.984375 14.40625 
Q 37.984375 18.0625 35.515625 20.015625 
Q 33.0625 21.96875 24.703125 23.78125 
L 21.578125 24.515625 
Q 13.234375 26.265625 9.515625 29.90625 
Q 5.8125 33.546875 5.8125 39.890625 
Q 5.8125 47.609375 11.28125 51.796875 
Q 16.75 56 26.8125 56 
Q 31.78125 56 36.171875 55.265625 
Q 40.578125 54.546875 44.28125 53.078125 
z
" id="DejaVuSans-115"/>
     </defs>
     <g transform="translate(356.701875 396.716563)scale(0.1 -0.1)">
      <use xlink:href="#DejaVuSans-83"/>
      <use x="63.476562" xlink:href="#DejaVuSans-97"/>
      <use x="124.755859" xlink:href="#DejaVuSans-109"/>
      <use x="222.167969" xlink:href="#DejaVuSans-112"/>
      <use x="285.644531" xlink:href="#DejaVuSans-108"/>
      <use x="313.427734" xlink:href="#DejaVuSans-101"/>
      <use x="374.951172" xlink:href="#DejaVuSans-115"/>
     </g>
    </g>
   </g>
   <g id="matplotlib.axis_2">
    <g id="ytick_1">
     <g id="line2d_13">
      <path clip-path="url(#p093e4a304d)" d="M 62.57 329.445351 
L 693.54 329.445351 
" style="fill:none;stroke:#777777;stroke-linecap:square;stroke-width:0.8;"/>
     </g>
     <g id="line2d_14">
      <defs>
       <path d="M 0 0 
L -3.5 0 
" id="m0747facce7" style="stroke:#000000;stroke-width:0.8;"/>
      </defs>
      <g>
       <use style="stroke:#000000;stroke-width:0.8;" x="62.57" xlink:href="#m0747facce7" y="329.445351"/>
      </g>
     </g>
     <g id="text_8">
      <!-- −0.01 -->
      <defs>
       <path d="M 10.59375 35.5 
L 73.1875 35.5 
L 73.1875 27.203125 
L 10.59375 27.203125 
z
" id="DejaVuSans-8722"/>
       <path d="M 10.6875 12.40625 
L 21 12.40625 
L 21 0 
L 10.6875 0 
z
" id="DejaVuSans-46"/>
      </defs>
      <g transform="translate(24.924688 333.24457)scale(0.1 -0.1)">
       <use xlink:href="#DejaVuSans-8722"/>
       <use x="83.789062" xlink:href="#DejaVuSans-48"/>
       <use x="147.412109" xlink:href="#DejaVuSans-46"/>
       <use x="179.199219" xlink:href="#DejaVuSans-48"/>
       <use x="242.822266" xlink:href="#DejaVuSans-49"/>
      </g>
     </g>
    </g>
    <g id="ytick_2">
     <g id="line2d_15">
      <path clip-path="url(#p093e4a304d)" d="M 62.57 288.431442 
L 693.54 288.431442 
" style="fill:none;stroke:#777777;stroke-linecap:square;stroke-width:0.8;"/>
     </g>
     <g id="line2d_16">
      <g>
       <use style="stroke:#000000;stroke-width:0.8;" x="62.57" xlink:href="#m0747facce7" y="288.431442"/>
      </g>
     </g>
     <g id="text_9">
      <!-- 0.00 -->
      <g transform="translate(33.304375 292.23066)scale(0.1 -0.1)">
       <use xlink:href="#DejaVuSans-48"/>
       <use x="63.623047" xlink:href="#DejaVuSans-46"/>
       <use x="95.410156" xlink:href="#DejaVuSans-48"/>
       <use x="159.033203" xlink:href="#DejaVuSans-48"/>
      </g>
     </g>
    </g>
    <g id="ytick_3">
     <g id="line2d_17">
      <path clip-path="url(#p093e4a304d)" d="M 62.57 247.417532 
L 693.54 247.417532 
" style="fill:none;stroke:#777777;stroke-linecap:square;stroke-width:0.8;"/>
     </g>
     <g id="line2d_18">
      <g>
       <use style="stroke:#000000;stroke-width:0.8;" x="62.57" xlink:href="#m0747facce7" y="247.417532"/>
      </g>
     </g>
     <g id="text_10">
      <!-- 0.01 -->
      <g transform="translate(33.304375 251.216751)scale(0.1 -0.1)">
       <use xlink:href="#DejaVuSans-48"/>
       <use x="63.623047" xlink:href="#DejaVuSans-46"/>
       <use x="95.410156" xlink:href="#DejaVuSans-48"/>
       <use x="159.033203" xlink:href="#DejaVuSans-49"/>
      </g>
     </g>
    </g>
    <g id="ytick_4">
     <g id="line2d_19">
      <path clip-path="url(#p093e4a304d)" d="M 62.57 206.403623 
L 693.54 206.403623 
" style="fill:none;stroke:#777777;stroke-linecap:square;stroke-width:0.8;"/>
     </g>
     <g id="line2d_20">
      <g>
       <use style="stroke:#000000;stroke-width:0.8;" x="62.57" xlink:href="#m0747facce7" y="206.403623"/>
      </g>
     </g>
     <g id="text_11">
      <!-- 0.02 -->
      <g transform="translate(33.304375 210.202842)scale(0.1 -0.1)">
       <use xlink:href="#DejaVuSans-48"/>
       <use x="63.623047" xlink:href="#DejaVuSans-46"/>
       <use x="95.410156" xlink:href="#DejaVuSans-48"/>
       <use x="159.033203" xlink:href="#DejaVuSans-50"/>
      </g>
     </g>
    </g>
    <g id="ytick_5">
     <g id="line2d_21">
      <path clip-path="url(#p093e4a304d)" d="M 62.57 165.389713 
L 693.54 165.389713 
" style="fill:none;stroke:#777777;stroke-linecap:square;stroke-width:0.8;"/>
     </g>
     <g id="line2d_22">
      <g>
       <use style="stroke:#000000;stroke-width:0.8;" x="62.57" xlink:href="#m0747facce7" y="165.389713"/>
      </g>
     </g>
     <g id="text_12">
      <!-- 0.03 -->
      <defs>
       <path d="M 40.578125 39.3125 
Q 47.65625 37.796875 51.625 33 
Q 55.609375 28.21875 55.609375 21.1875 
Q 55.609375 10.40625 48.1875 4.484375 
Q 40.765625 -1.421875 27.09375 -1.421875 
Q 22.515625 -1.421875 17.65625 -0.515625 
Q 12.796875 0.390625 7.625 2.203125 
L 7.625 11.71875 
Q 11.71875 9.328125 16.59375 8.109375 
Q 21.484375 6.890625 26.8125 6.890625 
Q 36.078125 6.890625 40.9375 10.546875 
Q 45.796875 14.203125 45.796875 21.1875 
Q 45.796875 27.640625 41.28125 31.265625 
Q 36.765625 34.90625 28.71875 34.90625 
L 20.21875 34.90625 
L 20.21875 43.015625 
L 29.109375 43.015625 
Q 36.375 43.015625 40.234375 45.921875 
Q 44.09375 48.828125 44.09375 54.296875 
Q 44.09375 59.90625 40.109375 62.90625 
Q 36.140625 65.921875 28.71875 65.921875 
Q 24.65625 65.921875 20.015625 65.03125 
Q 15.375 64.15625 9.8125 62.3125 
L 9.8125 71.09375 
Q 15.4375 72.65625 20.34375 73.4375 
Q 25.25 74.21875 29.59375 74.21875 
Q 40.828125 74.21875 47.359375 69.109375 
Q 53.90625 64.015625 53.90625 55.328125 
Q 53.90625 49.265625 50.4375 45.09375 
Q 46.96875 40.921875 40.578125 39.3125 
z
" id="DejaVuSans-51"/>
      </defs>
      <g transform="translate(33.304375 169.188932)scale(0.1 -0.1)">
       <use xlink:href="#DejaVuSans-48"/>
       <use x="63.623047" xlink:href="#DejaVuSans-46"/>
       <use x="95.410156" xlink:href="#DejaVuSans-48"/>
       <use x="159.033203" xlink:href="#DejaVuSans-51"/>
      </g>
     </g>
    </g>
    <g id="ytick_6">
     <g id="line2d_23">
      <path clip-path="url(#p093e4a304d)" d="M 62.57 124.375804 
L 693.54 124.375804 
" style="fill:none;stroke:#777777;stroke-linecap:square;stroke-width:0.8;"/>
     </g>
     <g id="line2d_24">
      <g>
       <use style="stroke:#000000;stroke-width:0.8;" x="62.57" xlink:href="#m0747facce7" y="124.375804"/>
      </g>
     </g>
     <g id="text_13">
      <!-- 0.04 -->
      <g transform="translate(33.304375 128.175023)scale(0.1 -0.1)">
       <use xlink:href="#DejaVuSans-48"/>
       <use x="63.623047" xlink:href="#DejaVuSans-46"/>
       <use x="95.410156" xlink:href="#DejaVuSans-48"/>
       <use x="159.033203" xlink:href="#DejaVuSans-52"/>
      </g>
     </g>
    </g>
    <g id="ytick_7">
     <g id="line2d_25">
      <path clip-path="url(#p093e4a304d)" d="M 62.57 83.361895 
L 693.54 83.361895 
" style="fill:none;stroke:#777777;stroke-linecap:square;stroke-width:0.8;"/>
     </g>
     <g id="line2d_26">
      <g>
       <use style="stroke:#000000;stroke-width:0.8;" x="62.57" xlink:href="#m0747facce7" y="83.361895"/>
      </g>
     </g>
     <g id="text_14">
      <!-- 0.05 -->
      <defs>
       <path d="M 10.796875 72.90625 
L 49.515625 72.90625 
L 49.515625 64.59375 
L 19.828125 64.59375 
L 19.828125 46.734375 
Q 21.96875 47.46875 24.109375 47.828125 
Q 26.265625 48.1875 28.421875 48.1875 
Q 40.625 48.1875 47.75 41.5 
Q 54.890625 34.8125 54.890625 23.390625 
Q 54.890625 11.625 47.5625 5.09375 
Q 40.234375 -1.421875 26.90625 -1.421875 
Q 22.3125 -1.421875 17.546875 -0.640625 
Q 12.796875 0.140625 7.71875 1.703125 
L 7.71875 11.625 
Q 12.109375 9.234375 16.796875 8.0625 
Q 21.484375 6.890625 26.703125 6.890625 
Q 35.15625 6.890625 40.078125 11.328125 
Q 45.015625 15.765625 45.015625 23.390625 
Q 45.015625 31 40.078125 35.4375 
Q 35.15625 39.890625 26.703125 39.890625 
Q 22.75 39.890625 18.8125 39.015625 
Q 14.890625 38.140625 10.796875 36.28125 
z
" id="DejaVuSans-53"/>
      </defs>
      <g transform="translate(33.304375 87.161113)scale(0.1 -0.1)">
       <use xlink:href="#DejaVuSans-48"/>
       <use x="63.623047" xlink:href="#DejaVuSans-46"/>
       <use x="95.410156" xlink:href="#DejaVuSans-48"/>
       <use x="159.033203" xlink:href="#DejaVuSans-53"/>
      </g>
     </g>
    </g>
    <g id="text_15">
     <!-- Amplitude -->
     <defs>
      <path d="M 34.1875 63.1875 
L 20.796875 26.90625 
L 47.609375 26.90625 
z
M 28.609375 72.90625 
L 39.796875 72.90625 
L 67.578125 0 
L 57.328125 0 
L 50.6875 18.703125 
L 17.828125 18.703125 
L 11.1875 0 
L 0.78125 0 
z
" id="DejaVuSans-65"/>
      <path d="M 9.421875 54.6875 
L 18.40625 54.6875 
L 18.40625 0 
L 9.421875 0 
z
M 9.421875 75.984375 
L 18.40625 75.984375 
L 18.40625 64.59375 
L 9.421875 64.59375 
z
" id="DejaVuSans-105"/>
      <path d="M 18.3125 70.21875 
L 18.3125 54.6875 
L 36.8125 54.6875 
L 36.8125 47.703125 
L 18.3125 47.703125 
L 18.3125 18.015625 
Q 18.3125 11.328125 20.140625 9.421875 
Q 21.96875 7.515625 27.59375 7.515625 
L 36.8125 7.515625 
L 36.8125 0 
L 27.59375 0 
Q 17.1875 0 13.234375 3.875 
Q 9.28125 7.765625 9.28125 18.015625 
L 9.28125 47.703125 
L 2.6875 47.703125 
L 2.6875 54.6875 
L 9.28125 54.6875 
L 9.28125 70.21875 
z
" id="DejaVuSans-116"/>
      <path d="M 8.5 21.578125 
L 8.5 54.6875 
L 17.484375 54.6875 
L 17.484375 21.921875 
Q 17.484375 14.15625 20.5 10.265625 
Q 23.53125 6.390625 29.59375 6.390625 
Q 36.859375 6.390625 41.078125 11.03125 
Q 45.3125 15.671875 45.3125 23.6875 
L 45.3125 54.6875 
L 54.296875 54.6875 
L 54.296875 0 
L 45.3125 0 
L 45.3125 8.40625 
Q 42.046875 3.421875 37.71875 1 
Q 33.40625 -1.421875 27.6875 -1.421875 
Q 18.265625 -1.421875 13.375 4.4375 
Q 8.5 10.296875 8.5 21.578125 
z
M 31.109375 56 
z
" id="DejaVuSans-117"/>
      <path d="M 45.40625 46.390625 
L 45.40625 75.984375 
L 54.390625 75.984375 
L 54.390625 0 
L 45.40625 0 
L 45.40625 8.203125 
Q 42.578125 3.328125 38.25 0.953125 
Q 33.9375 -1.421875 27.875 -1.421875 
Q 17.96875 -1.421875 11.734375 6.484375 
Q 5.515625 14.40625 5.515625 27.296875 
Q 5.515625 40.1875 11.734375 48.09375 
Q 17.96875 56 27.875 56 
Q 33.9375 56 38.25 53.625 
Q 42.578125 51.265625 45.40625 46.390625 
z
M 14.796875 27.296875 
Q 14.796875 17.390625 18.875 11.75 
Q 22.953125 6.109375 30.078125 6.109375 
Q 37.203125 6.109375 41.296875 11.75 
Q 45.40625 17.390625 45.40625 27.296875 
Q 45.40625 37.203125 41.296875 42.84375 
Q 37.203125 48.484375 30.078125 48.484375 
Q 22.953125 48.484375 18.875 42.84375 
Q 14.796875 37.203125 14.796875 27.296875 
z
" id="DejaVuSans-100"/>
     </defs>
     <g transform="translate(18.845 247.642656)rotate(-90)scale(0.1 -0.1)">
      <use xlink:href="#DejaVuSans-65"/>
      <use x="68.408203" xlink:href="#DejaVuSans-109"/>
      <use x="165.820312" xlink:href="#DejaVuSans-112"/>
      <use x="229.296875" xlink:href="#DejaVuSans-108"/>
      <use x="257.080078" xlink:href="#DejaVuSans-105"/>
      <use x="284.863281" xlink:href="#DejaVuSans-116"/>
      <use x="324.072266" xlink:href="#DejaVuSans-117"/>
      <use x="387.451172" xlink:href="#DejaVuSans-100"/>
      <use x="450.927734" xlink:href="#DejaVuSans-101"/>
     </g>
    </g>
   </g>
   <g id="line2d_27">
    <path clip-path="url(#p093e4a304d)" d="M 62.57 287.964827 
L 63.186784 287.95958 
L 65.037136 286.006833 
L 65.65392 284.983496 
L 66.270704 283.61939 
L 66.887488 281.869245 
L 67.504272 279.691296 
L 68.121056 277.041377 
L 69.354624 270.13573 
L 70.588192 260.78314 
L 71.82176 248.708753 
L 73.055327 233.830817 
L 74.288895 216.328818 
L 76.139247 186.279305 
L 79.223167 133.928118 
L 80.456735 115.898682 
L 81.690303 101.653867 
L 82.307087 96.370304 
L 82.923871 92.510993 
L 83.540655 90.201596 
L 84.157439 89.544762 
L 84.774223 90.616825 
L 85.391007 93.465051 
L 86.007791 98.105525 
L 86.624575 104.521747 
L 87.241359 112.664018 
L 88.474927 133.76383 
L 89.708495 160.370735 
L 91.558847 207.297596 
L 94.642766 288.499475 
L 95.876334 316.392111 
L 97.109902 339.198375 
L 97.726686 348.325921 
L 98.34347 355.80026 
L 98.960254 361.560034 
L 99.577038 365.577417 
L 100.193822 367.858011 
L 100.810606 368.44 
L 101.42739 367.392602 
L 102.044174 364.813869 
L 102.660958 360.827906 
L 103.277742 355.581587 
L 104.51131 341.986752 
L 106.361662 316.690803 
L 108.828798 282.032159 
L 110.062366 267.465067 
L 111.295934 256.146501 
L 111.912717 251.915121 
L 112.529501 248.700253 
L 113.146285 246.520536 
L 113.763069 245.371443 
L 114.379853 245.226407 
L 114.996637 246.038377 
L 115.613421 247.741768 
L 116.230205 250.254728 
L 116.846989 253.481667 
L 118.080557 261.642888 
L 119.930909 276.369625 
L 121.781261 291.212533 
L 123.014829 299.758767 
L 124.248397 306.474687 
L 124.865181 309.011236 
L 125.481965 310.957077 
L 126.098749 312.298145 
L 126.715533 313.034582 
L 127.332317 313.180049 
L 127.949101 312.760766 
L 128.565885 311.814318 
L 129.182669 310.388263 
L 129.799453 308.538578 
L 131.033021 303.824271 
L 132.883372 295.270061 
L 134.733724 286.634221 
L 135.967292 281.668773 
L 137.20086 277.780375 
L 137.817644 276.319437 
L 138.434428 275.205779 
L 139.051212 274.447377 
L 139.667996 274.043779 
L 140.28478 273.98653 
L 140.901564 274.259757 
L 141.518348 274.840888 
L 142.135132 275.701498 
L 143.3687 278.123826 
L 144.602268 281.219036 
L 148.302972 291.213787 
L 149.53654 293.797928 
L 150.770108 295.659921 
L 151.386891 296.287414 
L 152.003675 296.705398 
L 152.620459 296.914727 
L 153.237243 296.920952 
L 153.854027 296.733959 
L 154.470811 296.367534 
L 155.704379 295.16795 
L 156.937947 293.490101 
L 159.405083 289.48154 
L 161.255435 286.659456 
L 162.489003 285.164276 
L 163.722571 284.100964 
L 164.956139 283.521723 
L 165.572923 283.416818 
L 166.189707 283.431078 
L 167.423275 283.790048 
L 168.656843 284.523771 
L 169.890411 285.53154 
L 174.824682 290.017732 
L 176.05825 290.758707 
L 177.291818 291.223283 
L 178.525386 291.397046 
L 179.758954 291.292607 
L 180.992522 290.945897 
L 182.842874 290.092669 
L 187.777146 287.453935 
L 189.010714 287.028301 
L 190.244282 286.767269 
L 191.477849 286.678052 
L 192.711417 286.752018 
L 194.561769 287.117473 
L 197.028905 287.89311 
L 200.112825 288.877272 
L 201.963177 289.276558 
L 203.813529 289.457745 
L 205.663881 289.416745 
L 208.131017 289.088586 
L 214.91564 287.922958 
L 217.382776 287.819444 
L 219.849912 287.935596 
L 224.784184 288.481802 
L 228.484888 288.764261 
L 231.568807 288.770021 
L 235.886295 288.521838 
L 241.437351 288.232678 
L 245.754839 288.264028 
L 257.473734 288.547515 
L 274.743685 288.417054 
L 285.229013 288.459688 
L 301.88218 288.433441 
L 325.319971 288.428183 
L 389.465503 288.431693 
L 693.54 288.431442 
L 693.54 288.431442 
" style="fill:none;stroke:#0072bd;stroke-linecap:square;stroke-width:1.4;"/>
   </g>
   <g id="patch_3">
    <path d="M 62.57 368.44 
L 62.57 75.6 
" style="fill:none;stroke:#000000;stroke-linecap:square;stroke-linejoin:miter;stroke-width:0.8;"/>
   </g>
   <g id="patch_4">
    <path d="M 693.54 368.44 
L 693.54 75.6 
" style="fill:none;stroke:#000000;stroke-linecap:square;stroke-linejoin:miter;stroke-width:0.8;"/>
   </g>
   <g id="patch_5">
    <path d="M 62.57 368.44 
L 693.54 368.44 
" style="fill:none;stroke:#000000;stroke-linecap:square;stroke-linejoin:miter;stroke-width:0.8;"/>
   </g>
   <g id="patch_6">
    <path d="M 62.57 75.6 
L 693.54 75.6 
" style="fill:none;stroke:#000000;stroke-linecap:square;stroke-linejoin:miter;stroke-width:0.8;"/>
   </g>
  </g>
  <g id="axes_2">
   <g id="patch_7">
    <path d="M 62.57 703.24 
L 693.54 703.24 
L 693.54 410.4 
L 62.57 410.4 
z
" style="fill:#ffffff;"/>
   </g>
   <g id="matplotlib.axis_3">
    <g id="xtick_7">
     <g id="line2d_28">
      <path clip-path="url(#pc1f1bd4bb6)" d="M 62.57 703.24 
L 62.57 410.4 
" style="fill:none;stroke:#777777;stroke-linecap:square;stroke-width:0.8;"/>
     </g>
     <g id="line2d_29">
      <g>
       <use style="stroke:#000000;stroke-width:0.8;" x="62.57" xlink:href="#m1a58169807" y="703.24"/>
      </g>
     </g>
     <g id="text_16">
      <!-- 10Hz -->
      <defs>
       <path d="M 9.8125 72.90625 
L 19.671875 72.90625 
L 19.671875 43.015625 
L 55.515625 43.015625 
L 55.515625 72.90625 
L 65.375 72.90625 
L 65.375 0 
L 55.515625 0 
L 55.515625 34.71875 
L 19.671875 34.71875 
L 19.671875 0 
L 9.8125 0 
z
" id="DejaVuSans-72"/>
       <path d="M 5.515625 54.6875 
L 48.1875 54.6875 
L 48.1875 46.484375 
L 14.40625 7.171875 
L 48.1875 7.171875 
L 48.1875 0 
L 4.296875 0 
L 4.296875 8.203125 
L 38.09375 47.515625 
L 5.515625 47.515625 
z
" id="DejaVuSans-122"/>
      </defs>
      <g transform="translate(49.823125 717.838438)scale(0.1 -0.1)">
       <use xlink:href="#DejaVuSans-49"/>
       <use x="63.623047" xlink:href="#DejaVuSans-48"/>
       <use x="127.246094" xlink:href="#DejaVuSans-72"/>
       <use x="202.441406" xlink:href="#DejaVuSans-122"/>
      </g>
     </g>
    </g>
    <g id="xtick_8">
     <g id="line2d_30">
      <path clip-path="url(#pc1f1bd4bb6)" d="M 62.57 703.24 
L 62.57 410.4 
" style="fill:none;stroke:#777777;stroke-linecap:square;stroke-width:0.8;"/>
     </g>
     <g id="line2d_31">
      <g>
       <use style="stroke:#000000;stroke-width:0.8;" x="62.57" xlink:href="#m1a58169807" y="703.24"/>
      </g>
     </g>
    </g>
    <g id="xtick_9">
     <g id="line2d_32">
      <path clip-path="url(#pc1f1bd4bb6)" d="M 118.76202 703.24 
L 118.76202 410.4 
" style="fill:none;stroke:#777777;stroke-linecap:square;stroke-width:0.8;"/>
     </g>
     <g id="line2d_33">
      <g>
       <use style="stroke:#000000;stroke-width:0.8;" x="118.76202" xlink:href="#m1a58169807" y="703.24"/>
      </g>
     </g>
    </g>
    <g id="xtick_10">
     <g id="line2d_34">
      <path clip-path="url(#pc1f1bd4bb6)" d="M 151.632244 703.24 
L 151.632244 410.4 
" style="fill:none;stroke:#777777;stroke-linecap:square;stroke-width:0.8;"/>
     </g>
     <g id="line2d_35">
      <g>
       <use style="stroke:#000000;stroke-width:0.8;" x="151.632244" xlink:href="#m1a58169807" y="703.24"/>
      </g>
     </g>
    </g>
    <g id="xtick_11">
     <g id="line2d_36">
      <path clip-path="url(#pc1f1bd4bb6)" d="M 174.954039 703.24 
L 174.954039 410.4 
" style="fill:none;stroke:#777777;stroke-linecap:square;stroke-width:0.8;"/>
     </g>
     <g id="line2d_37">
      <g>
       <use style="stroke:#000000;stroke-width:0.8;" x="174.954039" xlink:href="#m1a58169807" y="703.24"/>
      </g>
     </g>
    </g>
    <g id="xtick_12">
     <g id="line2d_38">
      <path clip-path="url(#pc1f1bd4bb6)" d="M 193.043829 703.24 
L 193.043829 410.4 
" style="fill:none;stroke:#777777;stroke-linecap:square;stroke-width:0.8;"/>
     </g>
     <g id="line2d_39">
      <g>
       <use style="stroke:#000000;stroke-width:0.8;" x="193.043829" xlink:href="#m1a58169807" y="703.24"/>
      </g>
     </g>
    </g>
    <g id="xtick_13">
     <g id="line2d_40">
      <path clip-path="url(#pc1f1bd4bb6)" d="M 207.824264 703.24 
L 207.824264 410.4 
" style="fill:none;stroke:#777777;stroke-linecap:square;stroke-width:0.8;"/>
     </g>
     <g id="line2d_41">
      <g>
       <use style="stroke:#000000;stroke-width:0.8;" x="207.824264" xlink:href="#m1a58169807" y="703.24"/>
      </g>
     </g>
    </g>
    <g id="xtick_14">
     <g id="line2d_42">
      <path clip-path="url(#pc1f1bd4bb6)" d="M 220.320943 703.24 
L 220.320943 410.4 
" style="fill:none;stroke:#777777;stroke-linecap:square;stroke-width:0.8;"/>
     </g>
     <g id="line2d_43">
      <g>
       <use style="stroke:#000000;stroke-width:0.8;" x="220.320943" xlink:href="#m1a58169807" y="703.24"/>
      </g>
     </g>
    </g>
    <g id="xtick_15">
     <g id="line2d_44">
      <path clip-path="url(#pc1f1bd4bb6)" d="M 231.146059 703.24 
L 231.146059 410.4 
" style="fill:none;stroke:#777777;stroke-linecap:square;stroke-width:0.8;"/>
     </g>
     <g id="line2d_45">
      <g>
       <use style="stroke:#000000;stroke-width:0.8;" x="231.146059" xlink:href="#m1a58169807" y="703.24"/>
      </g>
     </g>
    </g>
    <g id="xtick_16">
     <g id="line2d_46">
      <path clip-path="url(#pc1f1bd4bb6)" d="M 240.694488 703.24 
L 240.694488 410.4 
" style="fill:none;stroke:#777777;stroke-linecap:square;stroke-width:0.8;"/>
     </g>
     <g id="line2d_47">
      <g>
       <use style="stroke:#000000;stroke-width:0.8;" x="240.694488" xlink:href="#m1a58169807" y="703.24"/>
      </g>
     </g>
    </g>
    <g id="xtick_17">
     <g id="line2d_48">
      <path clip-path="url(#pc1f1bd4bb6)" d="M 249.235849 703.24 
L 249.235849 410.4 
" style="fill:none;stroke:#777777;stroke-linecap:square;stroke-width:0.8;"/>
     </g>
     <g id="line2d_49">
      <g>
       <use style="stroke:#000000;stroke-width:0.8;" x="249.235849" xlink:href="#m1a58169807" y="703.24"/>
      </g>
     </g>
     <g id="text_17">
      <!-- 100Hz -->
      <g transform="translate(233.307724 717.838438)scale(0.1 -0.1)">
       <use xlink:href="#DejaVuSans-49"/>
       <use x="63.623047" xlink:href="#DejaVuSans-48"/>
       <use x="127.246094" xlink:href="#DejaVuSans-48"/>
       <use x="190.869141" xlink:href="#DejaVuSans-72"/>
       <use x="266.064453" xlink:href="#DejaVuSans-122"/>
      </g>
     </g>
    </g>
    <g id="xtick_18">
     <g id="line2d_50">
      <path clip-path="url(#pc1f1bd4bb6)" d="M 249.235849 703.24 
L 249.235849 410.4 
" style="fill:none;stroke:#777777;stroke-linecap:square;stroke-width:0.8;"/>
     </g>
     <g id="line2d_51">
      <g>
       <use style="stroke:#000000;stroke-width:0.8;" x="249.235849" xlink:href="#m1a58169807" y="703.24"/>
      </g>
     </g>
    </g>
    <g id="xtick_19">
     <g id="line2d_52">
      <path clip-path="url(#pc1f1bd4bb6)" d="M 305.427868 703.24 
L 305.427868 410.4 
" style="fill:none;stroke:#777777;stroke-linecap:square;stroke-width:0.8;"/>
     </g>
     <g id="line2d_53">
      <g>
       <use style="stroke:#000000;stroke-width:0.8;" x="305.427868" xlink:href="#m1a58169807" y="703.24"/>
      </g>
     </g>
    </g>
    <g id="xtick_20">
     <g id="line2d_54">
      <path clip-path="url(#pc1f1bd4bb6)" d="M 338.298093 703.24 
L 338.298093 410.4 
" style="fill:none;stroke:#777777;stroke-linecap:square;stroke-width:0.8;"/>
     </g>
     <g id="line2d_55">
      <g>
       <use style="stroke:#000000;stroke-width:0.8;" x="338.298093" xlink:href="#m1a58169807" y="703.24"/>
      </g>
     </g>
    </g>
    <g id="xtick_21">
     <g id="line2d_56">
      <path clip-path="url(#pc1f1bd4bb6)" d="M 361.619888 703.24 
L 361.619888 410.4 
" style="fill:none;stroke:#777777;stroke-linecap:square;stroke-width:0.8;"/>
     </g>
     <g id="line2d_57">
      <g>
       <use style="stroke:#000000;stroke-width:0.8;" x="361.619888" xlink:href="#m1a58169807" y="703.24"/>
      </g>
     </g>
    </g>
    <g id="xtick_22">
     <g id="line2d_58">
      <path clip-path="url(#pc1f1bd4bb6)" d="M 379.709678 703.24 
L 379.709678 410.4 
" style="fill:none;stroke:#777777;stroke-linecap:square;stroke-width:0.8;"/>
     </g>
     <g id="line2d_59">
      <g>
       <use style="stroke:#000000;stroke-width:0.8;" x="379.709678" xlink:href="#m1a58169807" y="703.24"/>
      </g>
     </g>
    </g>
    <g id="xtick_23">
     <g id="line2d_60">
      <path clip-path="url(#pc1f1bd4bb6)" d="M 394.490112 703.24 
L 394.490112 410.4 
" style="fill:none;stroke:#777777;stroke-linecap:square;stroke-width:0.8;"/>
     </g>
     <g id="line2d_61">
      <g>
       <use style="stroke:#000000;stroke-width:0.8;" x="394.490112" xlink:href="#m1a58169807" y="703.24"/>
      </g>
     </g>
    </g>
    <g id="xtick_24">
     <g id="line2d_62">
      <path clip-path="url(#pc1f1bd4bb6)" d="M 406.986791 703.24 
L 406.986791 410.4 
" style="fill:none;stroke:#777777;stroke-linecap:square;stroke-width:0.8;"/>
     </g>
     <g id="line2d_63">
      <g>
       <use style="stroke:#000000;stroke-width:0.8;" x="406.986791" xlink:href="#m1a58169807" y="703.24"/>
      </g>
     </g>
    </g>
    <g id="xtick_25">
     <g id="line2d_64">
      <path clip-path="url(#pc1f1bd4bb6)" d="M 417.811907 703.24 
L 417.811907 410.4 
" style="fill:none;stroke:#777777;stroke-linecap:square;stroke-width:0.8;"/>
     </g>
     <g id="line2d_65">
      <g>
       <use style="stroke:#000000;stroke-width:0.8;" x="417.811907" xlink:href="#m1a58169807" y="703.24"/>
      </g>
     </g>
    </g>
    <g id="xtick_26">
     <g id="line2d_66">
      <path clip-path="url(#pc1f1bd4bb6)" d="M 427.360336 703.24 
L 427.360336 410.4 
" style="fill:none;stroke:#777777;stroke-linecap:square;stroke-width:0.8;"/>
     </g>
     <g id="line2d_67">
      <g>
       <use style="stroke:#000000;stroke-width:0.8;" x="427.360336" xlink:href="#m1a58169807" y="703.24"/>
      </g>
     </g>
    </g>
    <g id="xtick_27">
     <g id="line2d_68">
      <path clip-path="url(#pc1f1bd4bb6)" d="M 435.901697 703.24 
L 435.901697 410.4 
" style="fill:none;stroke:#777777;stroke-linecap:square;stroke-width:0.8;"/>
     </g>
     <g id="line2d_69">
      <g>
       <use style="stroke:#000000;stroke-width:0.8;" x="435.901697" xlink:href="#m1a58169807" y="703.24"/>
      </g>
     </g>
     <g id="text_18">
      <!-- 1kHz -->
      <defs>
       <path d="M 9.078125 75.984375 
L 18.109375 75.984375 
L 18.109375 31.109375 
L 44.921875 54.6875 
L 56.390625 54.6875 
L 27.390625 29.109375 
L 57.625 0 
L 45.90625 0 
L 18.109375 26.703125 
L 18.109375 0 
L 9.078125 0 
z
" id="DejaVuSans-107"/>
      </defs>
      <g transform="translate(423.44076 717.838438)scale(0.1 -0.1)">
       <use xlink:href="#DejaVuSans-49"/>
       <use x="63.623047" xlink:href="#DejaVuSans-107"/>
       <use x="121.533203" xlink:href="#DejaVuSans-72"/>
       <use x="196.728516" xlink:href="#DejaVuSans-122"/>
      </g>
     </g>
    </g>
    <g id="xtick_28">
     <g id="line2d_70">
      <path clip-path="url(#pc1f1bd4bb6)" d="M 435.901697 703.24 
L 435.901697 410.4 
" style="fill:none;stroke:#777777;stroke-linecap:square;stroke-width:0.8;"/>
     </g>
     <g id="line2d_71">
      <g>
       <use style="stroke:#000000;stroke-width:0.8;" x="435.901697" xlink:href="#m1a58169807" y="703.24"/>
      </g>
     </g>
    </g>
    <g id="xtick_29">
     <g id="line2d_72">
      <path clip-path="url(#pc1f1bd4bb6)" d="M 492.093717 703.24 
L 492.093717 410.4 
" style="fill:none;stroke:#777777;stroke-linecap:square;stroke-width:0.8;"/>
     </g>
     <g id="line2d_73">
      <g>
       <use style="stroke:#000000;stroke-width:0.8;" x="492.093717" xlink:href="#m1a58169807" y="703.24"/>
      </g>
     </g>
    </g>
    <g id="xtick_30">
     <g id="line2d_74">
      <path clip-path="url(#pc1f1bd4bb6)" d="M 524.963941 703.24 
L 524.963941 410.4 
" style="fill:none;stroke:#777777;stroke-linecap:square;stroke-width:0.8;"/>
     </g>
     <g id="line2d_75">
      <g>
       <use style="stroke:#000000;stroke-width:0.8;" x="524.963941" xlink:href="#m1a58169807" y="703.24"/>
      </g>
     </g>
    </g>
    <g id="xtick_31">
     <g id="line2d_76">
      <path clip-path="url(#pc1f1bd4bb6)" d="M 548.285736 703.24 
L 548.285736 410.4 
" style="fill:none;stroke:#777777;stroke-linecap:square;stroke-width:0.8;"/>
     </g>
     <g id="line2d_77">
      <g>
       <use style="stroke:#000000;stroke-width:0.8;" x="548.285736" xlink:href="#m1a58169807" y="703.24"/>
      </g>
     </g>
    </g>
    <g id="xtick_32">
     <g id="line2d_78">
      <path clip-path="url(#pc1f1bd4bb6)" d="M 566.375526 703.24 
L 566.375526 410.4 
" style="fill:none;stroke:#777777;stroke-linecap:square;stroke-width:0.8;"/>
     </g>
     <g id="line2d_79">
      <g>
       <use style="stroke:#000000;stroke-width:0.8;" x="566.375526" xlink:href="#m1a58169807" y="703.24"/>
      </g>
     </g>
    </g>
    <g id="xtick_33">
     <g id="line2d_80">
      <path clip-path="url(#pc1f1bd4bb6)" d="M 581.155961 703.24 
L 581.155961 410.4 
" style="fill:none;stroke:#777777;stroke-linecap:square;stroke-width:0.8;"/>
     </g>
     <g id="line2d_81">
      <g>
       <use style="stroke:#000000;stroke-width:0.8;" x="581.155961" xlink:href="#m1a58169807" y="703.24"/>
      </g>
     </g>
    </g>
    <g id="xtick_34">
     <g id="line2d_82">
      <path clip-path="url(#pc1f1bd4bb6)" d="M 593.65264 703.24 
L 593.65264 410.4 
" style="fill:none;stroke:#777777;stroke-linecap:square;stroke-width:0.8;"/>
     </g>
     <g id="line2d_83">
      <g>
       <use style="stroke:#000000;stroke-width:0.8;" x="593.65264" xlink:href="#m1a58169807" y="703.24"/>
      </g>
     </g>
    </g>
    <g id="xtick_35">
     <g id="line2d_84">
      <path clip-path="url(#pc1f1bd4bb6)" d="M 604.477756 703.24 
L 604.477756 410.4 
" style="fill:none;stroke:#777777;stroke-linecap:square;stroke-width:0.8;"/>
     </g>
     <g id="line2d_85">
      <g>
       <use style="stroke:#000000;stroke-width:0.8;" x="604.477756" xlink:href="#m1a58169807" y="703.24"/>
      </g>
     </g>
    </g>
    <g id="xtick_36">
     <g id="line2d_86">
      <path clip-path="url(#pc1f1bd4bb6)" d="M 614.026185 703.24 
L 614.026185 410.4 
" style="fill:none;stroke:#777777;stroke-linecap:square;stroke-width:0.8;"/>
     </g>
     <g id="line2d_87">
      <g>
       <use style="stroke:#000000;stroke-width:0.8;" x="614.026185" xlink:href="#m1a58169807" y="703.24"/>
      </g>
     </g>
    </g>
    <g id="xtick_37">
     <g id="line2d_88">
      <path clip-path="url(#pc1f1bd4bb6)" d="M 622.567546 703.24 
L 622.567546 410.4 
" style="fill:none;stroke:#777777;stroke-linecap:square;stroke-width:0.8;"/>
     </g>
     <g id="line2d_89">
      <g>
       <use style="stroke:#000000;stroke-width:0.8;" x="622.567546" xlink:href="#m1a58169807" y="703.24"/>
      </g>
     </g>
     <g id="text_19">
      <!-- 10kHz -->
      <g transform="translate(606.925358 717.838438)scale(0.1 -0.1)">
       <use xlink:href="#DejaVuSans-49"/>
       <use x="63.623047" xlink:href="#DejaVuSans-48"/>
       <use x="127.246094" xlink:href="#DejaVuSans-107"/>
       <use x="185.15625" xlink:href="#DejaVuSans-72"/>
       <use x="260.351562" xlink:href="#DejaVuSans-122"/>
      </g>
     </g>
    </g>
    <g id="xtick_38">
     <g id="line2d_90">
      <path clip-path="url(#pc1f1bd4bb6)" d="M 622.567546 703.24 
L 622.567546 410.4 
" style="fill:none;stroke:#777777;stroke-linecap:square;stroke-width:0.8;"/>
     </g>
     <g id="line2d_91">
      <g>
       <use style="stroke:#000000;stroke-width:0.8;" x="622.567546" xlink:href="#m1a58169807" y="703.24"/>
      </g>
     </g>
    </g>
    <g id="xtick_39">
     <g id="line2d_92">
      <path clip-path="url(#pc1f1bd4bb6)" d="M 678.759566 703.24 
L 678.759566 410.4 
" style="fill:none;stroke:#777777;stroke-linecap:square;stroke-width:0.8;"/>
     </g>
     <g id="line2d_93">
      <g>
       <use style="stroke:#000000;stroke-width:0.8;" x="678.759566" xlink:href="#m1a58169807" y="703.24"/>
      </g>
     </g>
    </g>
    <g id="xtick_40">
     <g id="line2d_94">
      <path clip-path="url(#pc1f1bd4bb6)" d="M 693.54 703.24 
L 693.54 410.4 
" style="fill:none;stroke:#777777;stroke-linecap:square;stroke-width:0.8;"/>
     </g>
     <g id="line2d_95">
      <g>
       <use style="stroke:#000000;stroke-width:0.8;" x="693.54" xlink:href="#m1a58169807" y="703.24"/>
      </g>
     </g>
     <g id="text_20">
      <!-- 24kHz -->
      <g transform="translate(677.897812 717.838438)scale(0.1 -0.1)">
       <use xlink:href="#DejaVuSans-50"/>
       <use x="63.623047" xlink:href="#DejaVuSans-52"/>
       <use x="127.246094" xlink:href="#DejaVuSans-107"/>
       <use x="185.15625" xlink:href="#DejaVuSans-72"/>
       <use x="260.351562" xlink:href="#DejaVuSans-122"/>
      </g>
     </g>
    </g>
    <g id="text_21">
     <!-- Frequency (Hz) -->
     <defs>
      <path d="M 9.8125 72.90625 
L 51.703125 72.90625 
L 51.703125 64.59375 
L 19.671875 64.59375 
L 19.671875 43.109375 
L 48.578125 43.109375 
L 48.578125 34.8125 
L 19.671875 34.8125 
L 19.671875 0 
L 9.8125 0 
z
" id="DejaVuSans-70"/>
      <path d="M 41.109375 46.296875 
Q 39.59375 47.171875 37.8125 47.578125 
Q 36.03125 48 33.890625 48 
Q 26.265625 48 22.1875 43.046875 
Q 18.109375 38.09375 18.109375 28.8125 
L 18.109375 0 
L 9.078125 0 
L 9.078125 54.6875 
L 18.109375 54.6875 
L 18.109375 46.1875 
Q 20.953125 51.171875 25.484375 53.578125 
Q 30.03125 56 36.53125 56 
Q 37.453125 56 38.578125 55.875 
Q 39.703125 55.765625 41.0625 55.515625 
z
" id="DejaVuSans-114"/>
      <path d="M 14.796875 27.296875 
Q 14.796875 17.390625 18.875 11.75 
Q 22.953125 6.109375 30.078125 6.109375 
Q 37.203125 6.109375 41.296875 11.75 
Q 45.40625 17.390625 45.40625 27.296875 
Q 45.40625 37.203125 41.296875 42.84375 
Q 37.203125 48.484375 30.078125 48.484375 
Q 22.953125 48.484375 18.875 42.84375 
Q 14.796875 37.203125 14.796875 27.296875 
z
M 45.40625 8.203125 
Q 42.578125 3.328125 38.25 0.953125 
Q 33.9375 -1.421875 27.875 -1.421875 
Q 17.96875 -1.421875 11.734375 6.484375 
Q 5.515625 14.40625 5.515625 27.296875 
Q 5.515625 40.1875 11.734375 48.09375 
Q 17.96875 56 27.875 56 
Q 33.9375 56 38.25 53.625 
Q 42.578125 51.265625 45.40625 46.390625 
L 45.40625 54.6875 
L 54.390625 54.6875 
L 54.390625 -20.796875 
L 45.40625 -20.796875 
z
" id="DejaVuSans-113"/>
      <path d="M 54.890625 33.015625 
L 54.890625 0 
L 45.90625 0 
L 45.90625 32.71875 
Q 45.90625 40.484375 42.875 44.328125 
Q 39.84375 48.1875 33.796875 48.1875 
Q 26.515625 48.1875 22.3125 43.546875 
Q 18.109375 38.921875 18.109375 30.90625 
L 18.109375 0 
L 9.078125 0 
L 9.078125 54.6875 
L 18.109375 54.6875 
L 18.109375 46.1875 
Q 21.34375 51.125 25.703125 53.5625 
Q 30.078125 56 35.796875 56 
Q 45.21875 56 50.046875 50.171875 
Q 54.890625 44.34375 54.890625 33.015625 
z
" id="DejaVuSans-110"/>
      <path d="M 48.78125 52.59375 
L 48.78125 44.1875 
Q 44.96875 46.296875 41.140625 47.34375 
Q 37.3125 48.390625 33.40625 48.390625 
Q 24.65625 48.390625 19.8125 42.84375 
Q 14.984375 37.3125 14.984375 27.296875 
Q 14.984375 17.28125 19.8125 11.734375 
Q 24.65625 6.203125 33.40625 6.203125 
Q 37.3125 6.203125 41.140625 7.25 
Q 44.96875 8.296875 48.78125 10.40625 
L 48.78125 2.09375 
Q 45.015625 0.34375 40.984375 -0.53125 
Q 36.96875 -1.421875 32.421875 -1.421875 
Q 20.0625 -1.421875 12.78125 6.34375 
Q 5.515625 14.109375 5.515625 27.296875 
Q 5.515625 40.671875 12.859375 48.328125 
Q 20.21875 56 33.015625 56 
Q 37.15625 56 41.109375 55.140625 
Q 45.0625 54.296875 48.78125 52.59375 
z
" id="DejaVuSans-99"/>
      <path d="M 32.171875 -5.078125 
Q 28.375 -14.84375 24.75 -17.8125 
Q 21.140625 -20.796875 15.09375 -20.796875 
L 7.90625 -20.796875 
L 7.90625 -13.28125 
L 13.1875 -13.28125 
Q 16.890625 -13.28125 18.9375 -11.515625 
Q 21 -9.765625 23.484375 -3.21875 
L 25.09375 0.875 
L 2.984375 54.6875 
L 12.5 54.6875 
L 29.59375 11.921875 
L 46.6875 54.6875 
L 56.203125 54.6875 
z
" id="DejaVuSans-121"/>
      <path id="DejaVuSans-32"/>
      <path d="M 31 75.875 
Q 24.46875 64.65625 21.28125 53.65625 
Q 18.109375 42.671875 18.109375 31.390625 
Q 18.109375 20.125 21.3125 9.0625 
Q 24.515625 -2 31 -13.1875 
L 23.1875 -13.1875 
Q 15.875 -1.703125 12.234375 9.375 
Q 8.59375 20.453125 8.59375 31.390625 
Q 8.59375 42.28125 12.203125 53.3125 
Q 15.828125 64.359375 23.1875 75.875 
z
" id="DejaVuSans-40"/>
      <path d="M 8.015625 75.875 
L 15.828125 75.875 
Q 23.140625 64.359375 26.78125 53.3125 
Q 30.421875 42.28125 30.421875 31.390625 
Q 30.421875 20.453125 26.78125 9.375 
Q 23.140625 -1.703125 15.828125 -13.1875 
L 8.015625 -13.1875 
Q 14.5 -2 17.703125 9.0625 
Q 20.90625 20.125 20.90625 31.390625 
Q 20.90625 42.671875 17.703125 53.65625 
Q 14.5 64.65625 8.015625 75.875 
z
" id="DejaVuSans-41"/>
     </defs>
     <g transform="translate(339.882344 731.516563)scale(0.1 -0.1)">
      <use xlink:href="#DejaVuSans-70"/>
      <use x="57.410156" xlink:href="#DejaVuSans-114"/>
      <use x="98.492188" xlink:href="#DejaVuSans-101"/>
      <use x="160.015625" xlink:href="#DejaVuSans-113"/>
      <use x="223.492188" xlink:href="#DejaVuSans-117"/>
      <use x="286.871094" xlink:href="#DejaVuSans-101"/>
      <use x="348.394531" xlink:href="#DejaVuSans-110"/>
      <use x="411.773438" xlink:href="#DejaVuSans-99"/>
      <use x="466.753906" xlink:href="#DejaVuSans-121"/>
      <use x="525.933594" xlink:href="#DejaVuSans-32"/>
      <use x="557.720703" xlink:href="#DejaVuSans-40"/>
      <use x="596.734375" xlink:href="#DejaVuSans-72"/>
      <use x="671.929688" xlink:href="#DejaVuSans-122"/>
      <use x="724.419922" xlink:href="#DejaVuSans-41"/>
     </g>
    </g>
   </g>
   <g id="matplotlib.axis_4">
    <g id="ytick_8">
     <g id="line2d_96">
      <path clip-path="url(#pc1f1bd4bb6)" d="M 62.57 703.24 
L 693.54 703.24 
" style="fill:none;stroke:#777777;stroke-linecap:square;stroke-width:0.8;"/>
     </g>
     <g id="line2d_97">
      <g>
       <use style="stroke:#000000;stroke-width:0.8;" x="62.57" xlink:href="#m0747facce7" y="703.24"/>
      </g>
     </g>
     <g id="text_22">
      <!-- −160 -->
      <g transform="translate(28.102813 707.039219)scale(0.1 -0.1)">
       <use xlink:href="#DejaVuSans-8722"/>
       <use x="83.789062" xlink:href="#DejaVuSans-49"/>
       <use x="147.412109" xlink:href="#DejaVuSans-54"/>
       <use x="211.035156" xlink:href="#DejaVuSans-48"/>
      </g>
     </g>
    </g>
    <g id="ytick_9">
     <g id="line2d_98">
      <path clip-path="url(#pc1f1bd4bb6)" d="M 62.57 668.788235 
L 693.54 668.788235 
" style="fill:none;stroke:#777777;stroke-linecap:square;stroke-width:0.8;"/>
     </g>
     <g id="line2d_99">
      <g>
       <use style="stroke:#000000;stroke-width:0.8;" x="62.57" xlink:href="#m0747facce7" y="668.788235"/>
      </g>
     </g>
     <g id="text_23">
      <!-- −140 -->
      <g transform="translate(28.102813 672.587454)scale(0.1 -0.1)">
       <use xlink:href="#DejaVuSans-8722"/>
       <use x="83.789062" xlink:href="#DejaVuSans-49"/>
       <use x="147.412109" xlink:href="#DejaVuSans-52"/>
       <use x="211.035156" xlink:href="#DejaVuSans-48"/>
      </g>
     </g>
    </g>
    <g id="ytick_10">
     <g id="line2d_100">
      <path clip-path="url(#pc1f1bd4bb6)" d="M 62.57 634.336471 
L 693.54 634.336471 
" style="fill:none;stroke:#777777;stroke-linecap:square;stroke-width:0.8;"/>
     </g>
     <g id="line2d_101">
      <g>
       <use style="stroke:#000000;stroke-width:0.8;" x="62.57" xlink:href="#m0747facce7" y="634.336471"/>
      </g>
     </g>
     <g id="text_24">
      <!-- −120 -->
      <g transform="translate(28.102813 638.135689)scale(0.1 -0.1)">
       <use xlink:href="#DejaVuSans-8722"/>
       <use x="83.789062" xlink:href="#DejaVuSans-49"/>
       <use x="147.412109" xlink:href="#DejaVuSans-50"/>
       <use x="211.035156" xlink:href="#DejaVuSans-48"/>
      </g>
     </g>
    </g>
    <g id="ytick_11">
     <g id="line2d_102">
      <path clip-path="url(#pc1f1bd4bb6)" d="M 62.57 599.884706 
L 693.54 599.884706 
" style="fill:none;stroke:#777777;stroke-linecap:square;stroke-width:0.8;"/>
     </g>
     <g id="line2d_103">
      <g>
       <use style="stroke:#000000;stroke-width:0.8;" x="62.57" xlink:href="#m0747facce7" y="599.884706"/>
      </g>
     </g>
     <g id="text_25">
      <!-- −100 -->
      <g transform="translate(28.102813 603.683925)scale(0.1 -0.1)">
       <use xlink:href="#DejaVuSans-8722"/>
       <use x="83.789062" xlink:href="#DejaVuSans-49"/>
       <use x="147.412109" xlink:href="#DejaVuSans-48"/>
       <use x="211.035156" xlink:href="#DejaVuSans-48"/>
      </g>
     </g>
    </g>
    <g id="ytick_12">
     <g id="line2d_104">
      <path clip-path="url(#pc1f1bd4bb6)" d="M 62.57 565.432941 
L 693.54 565.432941 
" style="fill:none;stroke:#777777;stroke-linecap:square;stroke-width:0.8;"/>
     </g>
     <g id="line2d_105">
      <g>
       <use style="stroke:#000000;stroke-width:0.8;" x="62.57" xlink:href="#m0747facce7" y="565.432941"/>
      </g>
     </g>
     <g id="text_26">
      <!-- −80 -->
      <g transform="translate(34.465313 569.23216)scale(0.1 -0.1)">
       <use xlink:href="#DejaVuSans-8722"/>
       <use x="83.789062" xlink:href="#DejaVuSans-56"/>
       <use x="147.412109" xlink:href="#DejaVuSans-48"/>
      </g>
     </g>
    </g>
    <g id="ytick_13">
     <g id="line2d_106">
      <path clip-path="url(#pc1f1bd4bb6)" d="M 62.57 530.981176 
L 693.54 530.981176 
" style="fill:none;stroke:#777777;stroke-linecap:square;stroke-width:0.8;"/>
     </g>
     <g id="line2d_107">
      <g>
       <use style="stroke:#000000;stroke-width:0.8;" x="62.57" xlink:href="#m0747facce7" y="530.981176"/>
      </g>
     </g>
     <g id="text_27">
      <!-- −60 -->
      <g transform="translate(34.465313 534.780395)scale(0.1 -0.1)">
       <use xlink:href="#DejaVuSans-8722"/>
       <use x="83.789062" xlink:href="#DejaVuSans-54"/>
       <use x="147.412109" xlink:href="#DejaVuSans-48"/>
      </g>
     </g>
    </g>
    <g id="ytick_14">
     <g id="line2d_108">
      <path clip-path="url(#pc1f1bd4bb6)" d="M 62.57 496.529412 
L 693.54 496.529412 
" style="fill:none;stroke:#777777;stroke-linecap:square;stroke-width:0.8;"/>
     </g>
     <g id="line2d_109">
      <g>
       <use style="stroke:#000000;stroke-width:0.8;" x="62.57" xlink:href="#m0747facce7" y="496.529412"/>
      </g>
     </g>
     <g id="text_28">
      <!-- −40 -->
      <g transform="translate(34.465313 500.328631)scale(0.1 -0.1)">
       <use xlink:href="#DejaVuSans-8722"/>
       <use x="83.789062" xlink:href="#DejaVuSans-52"/>
       <use x="147.412109" xlink:href="#DejaVuSans-48"/>
      </g>
     </g>
    </g>
    <g id="ytick_15">
     <g id="line2d_110">
      <path clip-path="url(#pc1f1bd4bb6)" d="M 62.57 462.077647 
L 693.54 462.077647 
" style="fill:none;stroke:#777777;stroke-linecap:square;stroke-width:0.8;"/>
     </g>
     <g id="line2d_111">
      <g>
       <use style="stroke:#000000;stroke-width:0.8;" x="62.57" xlink:href="#m0747facce7" y="462.077647"/>
      </g>
     </g>
     <g id="text_29">
      <!-- −20 -->
      <g transform="translate(34.465313 465.876866)scale(0.1 -0.1)">
       <use xlink:href="#DejaVuSans-8722"/>
       <use x="83.789062" xlink:href="#DejaVuSans-50"/>
       <use x="147.412109" xlink:href="#DejaVuSans-48"/>
      </g>
     </g>
    </g>
    <g id="ytick_16">
     <g id="line2d_112">
      <path clip-path="url(#pc1f1bd4bb6)" d="M 62.57 427.625882 
L 693.54 427.625882 
" style="fill:none;stroke:#777777;stroke-linecap:square;stroke-width:0.8;"/>
     </g>
     <g id="line2d_113">
      <g>
       <use style="stroke:#000000;stroke-width:0.8;" x="62.57" xlink:href="#m0747facce7" y="427.625882"/>
      </g>
     </g>
     <g id="text_30">
      <!-- 0 -->
      <g transform="translate(49.2075 431.425101)scale(0.1 -0.1)">
       <use xlink:href="#DejaVuSans-48"/>
      </g>
     </g>
    </g>
    <g id="text_31">
     <!-- Gain (dB) -->
     <defs>
      <path d="M 59.515625 10.40625 
L 59.515625 29.984375 
L 43.40625 29.984375 
L 43.40625 38.09375 
L 69.28125 38.09375 
L 69.28125 6.78125 
Q 63.578125 2.734375 56.6875 0.65625 
Q 49.8125 -1.421875 42 -1.421875 
Q 24.90625 -1.421875 15.25 8.5625 
Q 5.609375 18.5625 5.609375 36.375 
Q 5.609375 54.25 15.25 64.234375 
Q 24.90625 74.21875 42 74.21875 
Q 49.125 74.21875 55.546875 72.453125 
Q 61.96875 70.703125 67.390625 67.28125 
L 67.390625 56.78125 
Q 61.921875 61.421875 55.765625 63.765625 
Q 49.609375 66.109375 42.828125 66.109375 
Q 29.4375 66.109375 22.71875 58.640625 
Q 16.015625 51.171875 16.015625 36.375 
Q 16.015625 21.625 22.71875 14.15625 
Q 29.4375 6.6875 42.828125 6.6875 
Q 48.046875 6.6875 52.140625 7.59375 
Q 56.25 8.5 59.515625 10.40625 
z
" id="DejaVuSans-71"/>
      <path d="M 19.671875 34.8125 
L 19.671875 8.109375 
L 35.5 8.109375 
Q 43.453125 8.109375 47.28125 11.40625 
Q 51.125 14.703125 51.125 21.484375 
Q 51.125 28.328125 47.28125 31.5625 
Q 43.453125 34.8125 35.5 34.8125 
z
M 19.671875 64.796875 
L 19.671875 42.828125 
L 34.28125 42.828125 
Q 41.5 42.828125 45.03125 45.53125 
Q 48.578125 48.25 48.578125 53.8125 
Q 48.578125 59.328125 45.03125 62.0625 
Q 41.5 64.796875 34.28125 64.796875 
z
M 9.8125 72.90625 
L 35.015625 72.90625 
Q 46.296875 72.90625 52.390625 68.21875 
Q 58.5 63.53125 58.5 54.890625 
Q 58.5 48.1875 55.375 44.234375 
Q 52.25 40.28125 46.1875 39.3125 
Q 53.46875 37.75 57.5 32.78125 
Q 61.53125 27.828125 61.53125 20.40625 
Q 61.53125 10.640625 54.890625 5.3125 
Q 48.25 0 35.984375 0 
L 9.8125 0 
z
" id="DejaVuSans-66"/>
     </defs>
     <g transform="translate(22.023125 580.411406)rotate(-90)scale(0.1 -0.1)">
      <use xlink:href="#DejaVuSans-71"/>
      <use x="77.490234" xlink:href="#DejaVuSans-97"/>
      <use x="138.769531" xlink:href="#DejaVuSans-105"/>
      <use x="166.552734" xlink:href="#DejaVuSans-110"/>
      <use x="229.931641" xlink:href="#DejaVuSans-32"/>
      <use x="261.71875" xlink:href="#DejaVuSans-40"/>
      <use x="300.732422" xlink:href="#DejaVuSans-100"/>
      <use x="364.208984" xlink:href="#DejaVuSans-66"/>
      <use x="432.8125" xlink:href="#DejaVuSans-41"/>
     </g>
    </g>
   </g>
   <g id="line2d_114">
    <path clip-path="url(#pc1f1bd4bb6)" d="M -1 427.625882 
L 429.135237 427.731111 
L 434.62501 427.972617 
L 437.934366 428.334297 
L 440.218121 428.776372 
L 442.439299 429.446695 
L 444.173439 430.197391 
L 445.871259 431.176397 
L 447.53425 432.407203 
L 449.163811 433.896405 
L 450.761261 435.631805 
L 452.7148 438.103765 
L 454.998555 441.41659 
L 457.584085 445.600117 
L 460.791587 451.249943 
L 464.546984 458.320246 
L 468.771922 466.737014 
L 473.088345 475.837232 
L 476.90056 484.374726 
L 480.267187 492.415601 
L 483.49956 500.723528 
L 486.353447 508.710943 
L 488.863491 516.445752 
L 491.057945 523.993089 
L 492.95992 531.419383 
L 494.588312 538.796731 
L 495.958507 546.206539 
L 497.082907 553.737866 
L 497.971332 561.462963 
L 498.631319 569.328493 
L 499.068344 576.780315 
L 499.503026 589.207344 
L 499.935389 620.35998 
L 500.150709 596.165383 
L 500.579641 582.881745 
L 501.006316 576.808185 
L 501.642146 571.746265 
L 502.273028 568.849122 
L 502.899038 567.098291 
L 503.520252 566.072363 
L 504.136741 565.558426 
L 504.748578 565.436424 
L 505.355831 565.634712 
L 505.958569 566.110199 
L 506.55686 566.838721 
L 507.347773 568.188366 
L 508.131044 569.982827 
L 508.90682 572.277106 
L 509.675242 575.189387 
L 510.436449 578.953086 
L 511.190575 584.064249 
L 511.751601 589.489149 
L 512.123473 594.580241 
L 512.493647 602.235617 
L 512.678102 608.236464 
L 512.862138 618.292701 
L 513.045758 663.067489 
L 513.228962 620.026297 
L 513.594134 603.196152 
L 514.138825 592.94734 
L 514.679881 587.116809 
L 515.395718 581.996178 
L 516.105289 578.4126 
L 516.983606 575.14599 
L 517.85251 572.723078 
L 518.883049 570.548007 
L 519.900652 568.932424 
L 520.905639 567.726643 
L 521.89832 566.836945 
L 523.041291 566.116178 
L 524.168371 565.673506 
L 525.279996 565.462503 
L 526.532035 565.463606 
L 527.765032 565.691018 
L 529.1301 566.189535 
L 530.472562 566.926592 
L 531.793155 567.893801 
L 533.235683 569.240982 
L 534.652991 570.893137 
L 536.045945 572.889416 
L 537.279463 575.036875 
L 538.494492 577.603403 
L 539.55944 580.349848 
L 540.610579 583.712125 
L 541.519276 587.407011 
L 542.290134 591.463374 
L 542.926963 595.895054 
L 543.558829 602.116135 
L 544.060799 609.932388 
L 544.435248 620.564718 
L 544.683923 637.808684 
L 544.807975 676.136692 
L 545.05551 625.879523 
L 545.425403 612.570396 
L 545.915982 603.989241 
L 546.52506 597.575606 
L 547.249965 592.455981 
L 548.087575 588.216785 
L 549.034364 584.627025 
L 550.086451 581.543971 
L 551.239641 578.873121 
L 552.489487 576.548618 
L 553.831332 574.522672 
L 555.260364 572.759415 
L 556.771661 571.231132 
L 558.465048 569.838035 
L 560.226338 568.672993 
L 562.150589 567.666668 
L 564.225568 566.836945 
L 566.438836 566.194637 
L 568.777946 565.745713 
L 571.320039 565.487665 
L 574.04453 565.443065 
L 576.847577 565.620378 
L 579.798809 566.030572 
L 582.879209 566.688809 
L 585.996129 567.587722 
L 589.06947 568.706125 
L 592.099742 570.046675 
L 595.020813 571.584438 
L 597.775815 573.287068 
L 600.315347 575.113039 
L 602.71708 577.116142 
L 604.872632 579.200218 
L 606.857116 581.426222 
L 608.681507 583.813823 
L 610.300129 586.299306 
L 611.778613 588.98411 
L 613.07056 591.784859 
L 614.237025 594.838932 
L 615.283078 598.208967 
L 616.213122 601.985363 
L 617.030964 606.305697 
L 617.689439 610.971863 
L 618.242463 616.432504 
L 618.692148 623.029901 
L 619.040186 631.37082 
L 619.287873 642.654926 
L 619.436123 659.361297 
L 619.485479 676.565298 
L 619.534806 674.405036 
L 619.731812 642.487326 
L 620.026426 629.92692 
L 620.46635 620.761665 
L 621.000812 614.168567 
L 621.675981 608.636411 
L 622.440778 604.175039 
L 623.339702 600.246891 
L 624.36826 596.774232 
L 625.521451 593.687098 
L 626.793844 590.927414 
L 628.179654 588.448114 
L 629.716326 586.151412 
L 631.394989 584.036364 
L 633.248052 582.054441 
L 635.303637 580.181232 
L 637.585137 578.406708 
L 640.110822 576.729209 
L 642.893576 575.151544 
L 645.976379 573.662593 
L 649.391005 572.263394 
L 653.190198 570.951321 
L 657.377736 569.74344 
L 662.004581 568.642792 
L 667.097752 567.66279 
L 672.635995 566.826353 
L 678.537592 566.161433 
L 684.637181 565.698063 
L 690.659161 565.462185 
L 693.520206 565.432943 
L 693.520206 565.432943 
" style="fill:none;stroke:#0072bd;stroke-linecap:square;stroke-width:1.4;"/>
   </g>
   <g id="patch_8">
    <path d="M 62.57 703.24 
L 62.57 410.4 
" style="fill:none;stroke:#000000;stroke-linecap:square;stroke-linejoin:miter;stroke-width:0.8;"/>
   </g>
   <g id="patch_9">
    <path d="M 693.54 703.24 
L 693.54 410.4 
" style="fill:none;stroke:#000000;stroke-linecap:square;stroke-linejoin:miter;stroke-width:0.8;"/>
   </g>
   <g id="patch_10">
    <path d="M 62.57 703.24 
L 693.54 703.24 
" style="fill:none;stroke:#000000;stroke-linecap:square;stroke-linejoin:miter;stroke-width:0.8;"/>
   </g>
   <g id="patch_11">
    <path d="M 62.57 410.4 
L 693.54 410.4 
" style="fill:none;stroke:#000000;stroke-linecap:square;stroke-linejoin:miter;stroke-width:0.8;"/>
   </g>
  </g>
  <g id="axes_3">
   <g id="patch_12">
    <path d="M 62.57 1038.04 
L 693.54 1038.04 
L 693.54 745.2 
L 62.57 745.2 
z
" style="fill:#ffffff;"/>
   </g>
   <g id="matplotlib.axis_5">
    <g id="xtick_41">
     <g id="line2d_115">
      <path clip-path="url(#pa737ddefca)" d="M 62.57 1038.04 
L 62.57 745.2 
" style="fill:none;stroke:#777777;stroke-linecap:square;stroke-width:0.8;"/>
     </g>
     <g id="line2d_116">
      <g>
       <use style="stroke:#000000;stroke-width:0.8;" x="62.57" xlink:href="#m1a58169807" y="1038.04"/>
      </g>
     </g>
     <g id="text_32">
      <!-- 10Hz -->
      <g transform="translate(49.823125 1052.638438)scale(0.1 -0.1)">
       <use xlink:href="#DejaVuSans-49"/>
       <use x="63.623047" xlink:href="#DejaVuSans-48"/>
       <use x="127.246094" xlink:href="#DejaVuSans-72"/>
       <use x="202.441406" xlink:href="#DejaVuSans-122"/>
      </g>
     </g>
    </g>
    <g id="xtick_42">
     <g id="line2d_117">
      <path clip-path="url(#pa737ddefca)" d="M 62.57 1038.04 
L 62.57 745.2 
" style="fill:none;stroke:#777777;stroke-linecap:square;stroke-width:0.8;"/>
     </g>
     <g id="line2d_118">
      <g>
       <use style="stroke:#000000;stroke-width:0.8;" x="62.57" xlink:href="#m1a58169807" y="1038.04"/>
      </g>
     </g>
    </g>
    <g id="xtick_43">
     <g id="line2d_119">
      <path clip-path="url(#pa737ddefca)" d="M 118.76202 1038.04 
L 118.76202 745.2 
" style="fill:none;stroke:#777777;stroke-linecap:square;stroke-width:0.8;"/>
     </g>
     <g id="line2d_120">
      <g>
       <use style="stroke:#000000;stroke-width:0.8;" x="118.76202" xlink:href="#m1a58169807" y="1038.04"/>
      </g>
     </g>
    </g>
    <g id="xtick_44">
     <g id="line2d_121">
      <path clip-path="url(#pa737ddefca)" d="M 151.632244 1038.04 
L 151.632244 745.2 
" style="fill:none;stroke:#777777;stroke-linecap:square;stroke-width:0.8;"/>
     </g>
     <g id="line2d_122">
      <g>
       <use style="stroke:#000000;stroke-width:0.8;" x="151.632244" xlink:href="#m1a58169807" y="1038.04"/>
      </g>
     </g>
    </g>
    <g id="xtick_45">
     <g id="line2d_123">
      <path clip-path="url(#pa737ddefca)" d="M 174.954039 1038.04 
L 174.954039 745.2 
" style="fill:none;stroke:#777777;stroke-linecap:square;stroke-width:0.8;"/>
     </g>
     <g id="line2d_124">
      <g>
       <use style="stroke:#000000;stroke-width:0.8;" x="174.954039" xlink:href="#m1a58169807" y="1038.04"/>
      </g>
     </g>
    </g>
    <g id="xtick_46">
     <g id="line2d_125">
      <path clip-path="url(#pa737ddefca)" d="M 193.043829 1038.04 
L 193.043829 745.2 
" style="fill:none;stroke:#777777;stroke-linecap:square;stroke-width:0.8;"/>
     </g>
     <g id="line2d_126">
      <g>
       <use style="stroke:#000000;stroke-width:0.8;" x="193.043829" xlink:href="#m1a58169807" y="1038.04"/>
      </g>
     </g>
    </g>
    <g id="xtick_47">
     <g id="line2d_127">
      <path clip-path="url(#pa737ddefca)" d="M 207.824264 1038.04 
L 207.824264 745.2 
" style="fill:none;stroke:#777777;stroke-linecap:square;stroke-width:0.8;"/>
     </g>
     <g id="line2d_128">
      <g>
       <use style="stroke:#000000;stroke-width:0.8;" x="207.824264" xlink:href="#m1a58169807" y="1038.04"/>
      </g>
     </g>
    </g>
    <g id="xtick_48">
     <g id="line2d_129">
      <path clip-path="url(#pa737ddefca)" d="M 220.320943 1038.04 
L 220.320943 745.2 
" style="fill:none;stroke:#777777;stroke-linecap:square;stroke-width:0.8;"/>
     </g>
     <g id="line2d_130">
      <g>
       <use style="stroke:#000000;stroke-width:0.8;" x="220.320943" xlink:href="#m1a58169807" y="1038.04"/>
      </g>
     </g>
    </g>
    <g id="xtick_49">
     <g id="line2d_131">
      <path clip-path="url(#pa737ddefca)" d="M 231.146059 1038.04 
L 231.146059 745.2 
" style="fill:none;stroke:#777777;stroke-linecap:square;stroke-width:0.8;"/>
     </g>
     <g id="line2d_132">
      <g>
       <use style="stroke:#000000;stroke-width:0.8;" x="231.146059" xlink:href="#m1a58169807" y="1038.04"/>
      </g>
     </g>
    </g>
    <g id="xtick_50">
     <g id="line2d_133">
      <path clip-path="url(#pa737ddefca)" d="M 240.694488 1038.04 
L 240.694488 745.2 
" style="fill:none;stroke:#777777;stroke-linecap:square;stroke-width:0.8;"/>
     </g>
     <g id="line2d_134">
      <g>
       <use style="stroke:#000000;stroke-width:0.8;" x="240.694488" xlink:href="#m1a58169807" y="1038.04"/>
      </g>
     </g>
    </g>
    <g id="xtick_51">
     <g id="line2d_135">
      <path clip-path="url(#pa737ddefca)" d="M 249.235849 1038.04 
L 249.235849 745.2 
" style="fill:none;stroke:#777777;stroke-linecap:square;stroke-width:0.8;"/>
     </g>
     <g id="line2d_136">
      <g>
       <use style="stroke:#000000;stroke-width:0.8;" x="249.235849" xlink:href="#m1a58169807" y="1038.04"/>
      </g>
     </g>
     <g id="text_33">
      <!-- 100Hz -->
      <g transform="translate(233.307724 1052.638438)scale(0.1 -0.1)">
       <use xlink:href="#DejaVuSans-49"/>
       <use x="63.623047" xlink:href="#DejaVuSans-48"/>
       <use x="127.246094" xlink:href="#DejaVuSans-48"/>
       <use x="190.869141" xlink:href="#DejaVuSans-72"/>
       <use x="266.064453" xlink:href="#DejaVuSans-122"/>
      </g>
     </g>
    </g>
    <g id="xtick_52">
     <g id="line2d_137">
      <path clip-path="url(#pa737ddefca)" d="M 249.235849 1038.04 
L 249.235849 745.2 
" style="fill:none;stroke:#777777;stroke-linecap:square;stroke-width:0.8;"/>
     </g>
     <g id="line2d_138">
      <g>
       <use style="stroke:#000000;stroke-width:0.8;" x="249.235849" xlink:href="#m1a58169807" y="1038.04"/>
      </g>
     </g>
    </g>
    <g id="xtick_53">
     <g id="line2d_139">
      <path clip-path="url(#pa737ddefca)" d="M 305.427868 1038.04 
L 305.427868 745.2 
" style="fill:none;stroke:#777777;stroke-linecap:square;stroke-width:0.8;"/>
     </g>
     <g id="line2d_140">
      <g>
       <use style="stroke:#000000;stroke-width:0.8;" x="305.427868" xlink:href="#m1a58169807" y="1038.04"/>
      </g>
     </g>
    </g>
    <g id="xtick_54">
     <g id="line2d_141">
      <path clip-path="url(#pa737ddefca)" d="M 338.298093 1038.04 
L 338.298093 745.2 
" style="fill:none;stroke:#777777;stroke-linecap:square;stroke-width:0.8;"/>
     </g>
     <g id="line2d_142">
      <g>
       <use style="stroke:#000000;stroke-width:0.8;" x="338.298093" xlink:href="#m1a58169807" y="1038.04"/>
      </g>
     </g>
    </g>
    <g id="xtick_55">
     <g id="line2d_143">
      <path clip-path="url(#pa737ddefca)" d="M 361.619888 1038.04 
L 361.619888 745.2 
" style="fill:none;stroke:#777777;stroke-linecap:square;stroke-width:0.8;"/>
     </g>
     <g id="line2d_144">
      <g>
       <use style="stroke:#000000;stroke-width:0.8;" x="361.619888" xlink:href="#m1a58169807" y="1038.04"/>
      </g>
     </g>
    </g>
    <g id="xtick_56">
     <g id="line2d_145">
      <path clip-path="url(#pa737ddefca)" d="M 379.709678 1038.04 
L 379.709678 745.2 
" style="fill:none;stroke:#777777;stroke-linecap:square;stroke-width:0.8;"/>
     </g>
     <g id="line2d_146">
      <g>
       <use style="stroke:#000000;stroke-width:0.8;" x="379.709678" xlink:href="#m1a58169807" y="1038.04"/>
      </g>
     </g>
    </g>
    <g id="xtick_57">
     <g id="line2d_147">
      <path clip-path="url(#pa737ddefca)" d="M 394.490112 1038.04 
L 394.490112 745.2 
" style="fill:none;stroke:#777777;stroke-linecap:square;stroke-width:0.8;"/>
     </g>
     <g id="line2d_148">
      <g>
       <use style="stroke:#000000;stroke-width:0.8;" x="394.490112" xlink:href="#m1a58169807" y="1038.04"/>
      </g>
     </g>
    </g>
    <g id="xtick_58">
     <g id="line2d_149">
      <path clip-path="url(#pa737ddefca)" d="M 406.986791 1038.04 
L 406.986791 745.2 
" style="fill:none;stroke:#777777;stroke-linecap:square;stroke-width:0.8;"/>
     </g>
     <g id="line2d_150">
      <g>
       <use style="stroke:#000000;stroke-width:0.8;" x="406.986791" xlink:href="#m1a58169807" y="1038.04"/>
      </g>
     </g>
    </g>
    <g id="xtick_59">
     <g id="line2d_151">
      <path clip-path="url(#pa737ddefca)" d="M 417.811907 1038.04 
L 417.811907 745.2 
" style="fill:none;stroke:#777777;stroke-linecap:square;stroke-width:0.8;"/>
     </g>
     <g id="line2d_152">
      <g>
       <use style="stroke:#000000;stroke-width:0.8;" x="417.811907" xlink:href="#m1a58169807" y="1038.04"/>
      </g>
     </g>
    </g>
    <g id="xtick_60">
     <g id="line2d_153">
      <path clip-path="url(#pa737ddefca)" d="M 427.360336 1038.04 
L 427.360336 745.2 
" style="fill:none;stroke:#777777;stroke-linecap:square;stroke-width:0.8;"/>
     </g>
     <g id="line2d_154">
      <g>
       <use style="stroke:#000000;stroke-width:0.8;" x="427.360336" xlink:href="#m1a58169807" y="1038.04"/>
      </g>
     </g>
    </g>
    <g id="xtick_61">
     <g id="line2d_155">
      <path clip-path="url(#pa737ddefca)" d="M 435.901697 1038.04 
L 435.901697 745.2 
" style="fill:none;stroke:#777777;stroke-linecap:square;stroke-width:0.8;"/>
     </g>
     <g id="line2d_156">
      <g>
       <use style="stroke:#000000;stroke-width:0.8;" x="435.901697" xlink:href="#m1a58169807" y="1038.04"/>
      </g>
     </g>
     <g id="text_34">
      <!-- 1kHz -->
      <g transform="translate(423.44076 1052.638438)scale(0.1 -0.1)">
       <use xlink:href="#DejaVuSans-49"/>
       <use x="63.623047" xlink:href="#DejaVuSans-107"/>
       <use x="121.533203" xlink:href="#DejaVuSans-72"/>
       <use x="196.728516" xlink:href="#DejaVuSans-122"/>
      </g>
     </g>
    </g>
    <g id="xtick_62">
     <g id="line2d_157">
      <path clip-path="url(#pa737ddefca)" d="M 435.901697 1038.04 
L 435.901697 745.2 
" style="fill:none;stroke:#777777;stroke-linecap:square;stroke-width:0.8;"/>
     </g>
     <g id="line2d_158">
      <g>
       <use style="stroke:#000000;stroke-width:0.8;" x="435.901697" xlink:href="#m1a58169807" y="1038.04"/>
      </g>
     </g>
    </g>
    <g id="xtick_63">
     <g id="line2d_159">
      <path clip-path="url(#pa737ddefca)" d="M 492.093717 1038.04 
L 492.093717 745.2 
" style="fill:none;stroke:#777777;stroke-linecap:square;stroke-width:0.8;"/>
     </g>
     <g id="line2d_160">
      <g>
       <use style="stroke:#000000;stroke-width:0.8;" x="492.093717" xlink:href="#m1a58169807" y="1038.04"/>
      </g>
     </g>
    </g>
    <g id="xtick_64">
     <g id="line2d_161">
      <path clip-path="url(#pa737ddefca)" d="M 524.963941 1038.04 
L 524.963941 745.2 
" style="fill:none;stroke:#777777;stroke-linecap:square;stroke-width:0.8;"/>
     </g>
     <g id="line2d_162">
      <g>
       <use style="stroke:#000000;stroke-width:0.8;" x="524.963941" xlink:href="#m1a58169807" y="1038.04"/>
      </g>
     </g>
    </g>
    <g id="xtick_65">
     <g id="line2d_163">
      <path clip-path="url(#pa737ddefca)" d="M 548.285736 1038.04 
L 548.285736 745.2 
" style="fill:none;stroke:#777777;stroke-linecap:square;stroke-width:0.8;"/>
     </g>
     <g id="line2d_164">
      <g>
       <use style="stroke:#000000;stroke-width:0.8;" x="548.285736" xlink:href="#m1a58169807" y="1038.04"/>
      </g>
     </g>
    </g>
    <g id="xtick_66">
     <g id="line2d_165">
      <path clip-path="url(#pa737ddefca)" d="M 566.375526 1038.04 
L 566.375526 745.2 
" style="fill:none;stroke:#777777;stroke-linecap:square;stroke-width:0.8;"/>
     </g>
     <g id="line2d_166">
      <g>
       <use style="stroke:#000000;stroke-width:0.8;" x="566.375526" xlink:href="#m1a58169807" y="1038.04"/>
      </g>
     </g>
    </g>
    <g id="xtick_67">
     <g id="line2d_167">
      <path clip-path="url(#pa737ddefca)" d="M 581.155961 1038.04 
L 581.155961 745.2 
" style="fill:none;stroke:#777777;stroke-linecap:square;stroke-width:0.8;"/>
     </g>
     <g id="line2d_168">
      <g>
       <use style="stroke:#000000;stroke-width:0.8;" x="581.155961" xlink:href="#m1a58169807" y="1038.04"/>
      </g>
     </g>
    </g>
    <g id="xtick_68">
     <g id="line2d_169">
      <path clip-path="url(#pa737ddefca)" d="M 593.65264 1038.04 
L 593.65264 745.2 
" style="fill:none;stroke:#777777;stroke-linecap:square;stroke-width:0.8;"/>
     </g>
     <g id="line2d_170">
      <g>
       <use style="stroke:#000000;stroke-width:0.8;" x="593.65264" xlink:href="#m1a58169807" y="1038.04"/>
      </g>
     </g>
    </g>
    <g id="xtick_69">
     <g id="line2d_171">
      <path clip-path="url(#pa737ddefca)" d="M 604.477756 1038.04 
L 604.477756 745.2 
" style="fill:none;stroke:#777777;stroke-linecap:square;stroke-width:0.8;"/>
     </g>
     <g id="line2d_172">
      <g>
       <use style="stroke:#000000;stroke-width:0.8;" x="604.477756" xlink:href="#m1a58169807" y="1038.04"/>
      </g>
     </g>
    </g>
    <g id="xtick_70">
     <g id="line2d_173">
      <path clip-path="url(#pa737ddefca)" d="M 614.026185 1038.04 
L 614.026185 745.2 
" style="fill:none;stroke:#777777;stroke-linecap:square;stroke-width:0.8;"/>
     </g>
     <g id="line2d_174">
      <g>
       <use style="stroke:#000000;stroke-width:0.8;" x="614.026185" xlink:href="#m1a58169807" y="1038.04"/>
      </g>
     </g>
    </g>
    <g id="xtick_71">
     <g id="line2d_175">
      <path clip-path="url(#pa737ddefca)" d="M 622.567546 1038.04 
L 622.567546 745.2 
" style="fill:none;stroke:#777777;stroke-linecap:square;stroke-width:0.8;"/>
     </g>
     <g id="line2d_176">
      <g>
       <use style="stroke:#000000;stroke-width:0.8;" x="622.567546" xlink:href="#m1a58169807" y="1038.04"/>
      </g>
     </g>
     <g id="text_35">
      <!-- 10kHz -->
      <g transform="translate(606.925358 1052.638438)scale(0.1 -0.1)">
       <use xlink:href="#DejaVuSans-49"/>
       <use x="63.623047" xlink:href="#DejaVuSans-48"/>
       <use x="127.246094" xlink:href="#DejaVuSans-107"/>
       <use x="185.15625" xlink:href="#DejaVuSans-72"/>
       <use x="260.351562" xlink:href="#DejaVuSans-122"/>
      </g>
     </g>
    </g>
    <g id="xtick_72">
     <g id="line2d_177">
      <path clip-path="url(#pa737ddefca)" d="M 622.567546 1038.04 
L 622.567546 745.2 
" style="fill:none;stroke:#777777;stroke-linecap:square;stroke-width:0.8;"/>
     </g>
     <g id="line2d_178">
      <g>
       <use style="stroke:#000000;stroke-width:0.8;" x="622.567546" xlink:href="#m1a58169807" y="1038.04"/>
      </g>
     </g>
    </g>
    <g id="xtick_73">
     <g id="line2d_179">
      <path clip-path="url(#pa737ddefca)" d="M 678.759566 1038.04 
L 678.759566 745.2 
" style="fill:none;stroke:#777777;stroke-linecap:square;stroke-width:0.8;"/>
     </g>
     <g id="line2d_180">
      <g>
       <use style="stroke:#000000;stroke-width:0.8;" x="678.759566" xlink:href="#m1a58169807" y="1038.04"/>
      </g>
     </g>
    </g>
    <g id="xtick_74">
     <g id="line2d_181">
      <path clip-path="url(#pa737ddefca)" d="M 693.54 1038.04 
L 693.54 745.2 
" style="fill:none;stroke:#777777;stroke-linecap:square;stroke-width:0.8;"/>
     </g>
     <g id="line2d_182">
      <g>
       <use style="stroke:#000000;stroke-width:0.8;" x="693.54" xlink:href="#m1a58169807" y="1038.04"/>
      </g>
     </g>
     <g id="text_36">
      <!-- 24kHz -->
      <g transform="translate(677.897812 1052.638438)scale(0.1 -0.1)">
       <use xlink:href="#DejaVuSans-50"/>
       <use x="63.623047" xlink:href="#DejaVuSans-52"/>
       <use x="127.246094" xlink:href="#DejaVuSans-107"/>
       <use x="185.15625" xlink:href="#DejaVuSans-72"/>
       <use x="260.351562" xlink:href="#DejaVuSans-122"/>
      </g>
     </g>
    </g>
    <g id="text_37">
     <!-- Frequency (Hz) -->
     <g transform="translate(339.882344 1066.316563)scale(0.1 -0.1)">
      <use xlink:href="#DejaVuSans-70"/>
      <use x="57.410156" xlink:href="#DejaVuSans-114"/>
      <use x="98.492188" xlink:href="#DejaVuSans-101"/>
      <use x="160.015625" xlink:href="#DejaVuSans-113"/>
      <use x="223.492188" xlink:href="#DejaVuSans-117"/>
      <use x="286.871094" xlink:href="#DejaVuSans-101"/>
      <use x="348.394531" xlink:href="#DejaVuSans-110"/>
      <use x="411.773438" xlink:href="#DejaVuSans-99"/>
      <use x="466.753906" xlink:href="#DejaVuSans-121"/>
      <use x="525.933594" xlink:href="#DejaVuSans-32"/>
      <use x="557.720703" xlink:href="#DejaVuSans-40"/>
      <use x="596.734375" xlink:href="#DejaVuSans-72"/>
      <use x="671.929688" xlink:href="#DejaVuSans-122"/>
      <use x="724.419922" xlink:href="#DejaVuSans-41"/>
     </g>
    </g>
   </g>
   <g id="matplotlib.axis_6">
    <g id="ytick_17">
     <g id="line2d_183">
      <path clip-path="url(#pa737ddefca)" d="M 62.57 1007.214737 
L 693.54 1007.214737 
" style="fill:none;stroke:#777777;stroke-linecap:square;stroke-width:0.8;"/>
     </g>
     <g id="line2d_184">
      <g>
       <use style="stroke:#000000;stroke-width:0.8;" x="62.57" xlink:href="#m0747facce7" y="1007.214737"/>
      </g>
     </g>
     <g id="text_38">
      <!-- −150 -->
      <g transform="translate(28.102813 1011.013956)scale(0.1 -0.1)">
       <use xlink:href="#DejaVuSans-8722"/>
       <use x="83.789062" xlink:href="#DejaVuSans-49"/>
       <use x="147.412109" xlink:href="#DejaVuSans-53"/>
       <use x="211.035156" xlink:href="#DejaVuSans-48"/>
      </g>
     </g>
    </g>
    <g id="ytick_18">
     <g id="line2d_185">
      <path clip-path="url(#pa737ddefca)" d="M 62.57 968.683158 
L 693.54 968.683158 
" style="fill:none;stroke:#777777;stroke-linecap:square;stroke-width:0.8;"/>
     </g>
     <g id="line2d_186">
      <g>
       <use style="stroke:#000000;stroke-width:0.8;" x="62.57" xlink:href="#m0747facce7" y="968.683158"/>
      </g>
     </g>
     <g id="text_39">
      <!-- −100 -->
      <g transform="translate(28.102813 972.482377)scale(0.1 -0.1)">
       <use xlink:href="#DejaVuSans-8722"/>
       <use x="83.789062" xlink:href="#DejaVuSans-49"/>
       <use x="147.412109" xlink:href="#DejaVuSans-48"/>
       <use x="211.035156" xlink:href="#DejaVuSans-48"/>
      </g>
     </g>
    </g>
    <g id="ytick_19">
     <g id="line2d_187">
      <path clip-path="url(#pa737ddefca)" d="M 62.57 930.151579 
L 693.54 930.151579 
" style="fill:none;stroke:#777777;stroke-linecap:square;stroke-width:0.8;"/>
     </g>
     <g id="line2d_188">
      <g>
       <use style="stroke:#000000;stroke-width:0.8;" x="62.57" xlink:href="#m0747facce7" y="930.151579"/>
      </g>
     </g>
     <g id="text_40">
      <!-- −50 -->
      <g transform="translate(34.465313 933.950798)scale(0.1 -0.1)">
       <use xlink:href="#DejaVuSans-8722"/>
       <use x="83.789062" xlink:href="#DejaVuSans-53"/>
       <use x="147.412109" xlink:href="#DejaVuSans-48"/>
      </g>
     </g>
    </g>
    <g id="ytick_20">
     <g id="line2d_189">
      <path clip-path="url(#pa737ddefca)" d="M 62.57 891.62 
L 693.54 891.62 
" style="fill:none;stroke:#777777;stroke-linecap:square;stroke-width:0.8;"/>
     </g>
     <g id="line2d_190">
      <g>
       <use style="stroke:#000000;stroke-width:0.8;" x="62.57" xlink:href="#m0747facce7" y="891.62"/>
      </g>
     </g>
     <g id="text_41">
      <!-- 0 -->
      <g transform="translate(49.2075 895.419219)scale(0.1 -0.1)">
       <use xlink:href="#DejaVuSans-48"/>
      </g>
     </g>
    </g>
    <g id="ytick_21">
     <g id="line2d_191">
      <path clip-path="url(#pa737ddefca)" d="M 62.57 853.088421 
L 693.54 853.088421 
" style="fill:none;stroke:#777777;stroke-linecap:square;stroke-width:0.8;"/>
     </g>
     <g id="line2d_192">
      <g>
       <use style="stroke:#000000;stroke-width:0.8;" x="62.57" xlink:href="#m0747facce7" y="853.088421"/>
      </g>
     </g>
     <g id="text_42">
      <!-- 50 -->
      <g transform="translate(42.845 856.88764)scale(0.1 -0.1)">
       <use xlink:href="#DejaVuSans-53"/>
       <use x="63.623047" xlink:href="#DejaVuSans-48"/>
      </g>
     </g>
    </g>
    <g id="ytick_22">
     <g id="line2d_193">
      <path clip-path="url(#pa737ddefca)" d="M 62.57 814.556842 
L 693.54 814.556842 
" style="fill:none;stroke:#777777;stroke-linecap:square;stroke-width:0.8;"/>
     </g>
     <g id="line2d_194">
      <g>
       <use style="stroke:#000000;stroke-width:0.8;" x="62.57" xlink:href="#m0747facce7" y="814.556842"/>
      </g>
     </g>
     <g id="text_43">
      <!-- 100 -->
      <g transform="translate(36.4825 818.356061)scale(0.1 -0.1)">
       <use xlink:href="#DejaVuSans-49"/>
       <use x="63.623047" xlink:href="#DejaVuSans-48"/>
       <use x="127.246094" xlink:href="#DejaVuSans-48"/>
      </g>
     </g>
    </g>
    <g id="ytick_23">
     <g id="line2d_195">
      <path clip-path="url(#pa737ddefca)" d="M 62.57 776.025263 
L 693.54 776.025263 
" style="fill:none;stroke:#777777;stroke-linecap:square;stroke-width:0.8;"/>
     </g>
     <g id="line2d_196">
      <g>
       <use style="stroke:#000000;stroke-width:0.8;" x="62.57" xlink:href="#m0747facce7" y="776.025263"/>
      </g>
     </g>
     <g id="text_44">
      <!-- 150 -->
      <g transform="translate(36.4825 779.824482)scale(0.1 -0.1)">
       <use xlink:href="#DejaVuSans-49"/>
       <use x="63.623047" xlink:href="#DejaVuSans-53"/>
       <use x="127.246094" xlink:href="#DejaVuSans-48"/>
      </g>
     </g>
    </g>
    <g id="text_45">
     <!-- Phase (${\circ}$) -->
     <defs>
      <path d="M 19.671875 64.796875 
L 19.671875 37.40625 
L 32.078125 37.40625 
Q 38.96875 37.40625 42.71875 40.96875 
Q 46.484375 44.53125 46.484375 51.125 
Q 46.484375 57.671875 42.71875 61.234375 
Q 38.96875 64.796875 32.078125 64.796875 
z
M 9.8125 72.90625 
L 32.078125 72.90625 
Q 44.34375 72.90625 50.609375 67.359375 
Q 56.890625 61.8125 56.890625 51.125 
Q 56.890625 40.328125 50.609375 34.8125 
Q 44.34375 29.296875 32.078125 29.296875 
L 19.671875 29.296875 
L 19.671875 0 
L 9.8125 0 
z
" id="DejaVuSans-80"/>
      <path d="M 54.890625 33.015625 
L 54.890625 0 
L 45.90625 0 
L 45.90625 32.71875 
Q 45.90625 40.484375 42.875 44.328125 
Q 39.84375 48.1875 33.796875 48.1875 
Q 26.515625 48.1875 22.3125 43.546875 
Q 18.109375 38.921875 18.109375 30.90625 
L 18.109375 0 
L 9.078125 0 
L 9.078125 75.984375 
L 18.109375 75.984375 
L 18.109375 46.1875 
Q 21.34375 51.125 25.703125 53.5625 
Q 30.078125 56 35.796875 56 
Q 45.21875 56 50.046875 50.171875 
Q 54.890625 44.34375 54.890625 33.015625 
z
" id="DejaVuSans-104"/>
      <path d="M 31.296875 40.671875 
Q 27.390625 40.671875 24.703125 37.953125 
Q 22.015625 35.25 22.015625 31.34375 
Q 22.015625 27.484375 24.703125 24.828125 
Q 27.390625 22.171875 31.296875 22.171875 
Q 35.203125 22.171875 37.890625 24.828125 
Q 40.578125 27.484375 40.578125 31.34375 
Q 40.578125 35.203125 37.859375 37.9375 
Q 35.15625 40.671875 31.296875 40.671875 
z
M 31.296875 46.96875 
Q 34.421875 46.96875 37.296875 45.765625 
Q 40.1875 44.578125 42.28125 42.328125 
Q 44.53125 40.140625 45.65625 37.34375 
Q 46.78125 34.5625 46.78125 31.34375 
Q 46.78125 24.90625 42.265625 20.4375 
Q 37.75 15.96875 31.203125 15.96875 
Q 24.609375 15.96875 20.21875 20.359375 
Q 15.828125 24.75 15.828125 31.34375 
Q 15.828125 37.890625 20.3125 42.421875 
Q 24.8125 46.96875 31.296875 46.96875 
z
" id="DejaVuSans-8728"/>
     </defs>
     <g transform="translate(22.023125 915.17)rotate(-90)scale(0.1 -0.1)">
      <use transform="translate(0 0.015625)" xlink:href="#DejaVuSans-80"/>
      <use transform="translate(60.302734 0.015625)" xlink:href="#DejaVuSans-104"/>
      <use transform="translate(123.681641 0.015625)" xlink:href="#DejaVuSans-97"/>
      <use transform="translate(184.960938 0.015625)" xlink:href="#DejaVuSans-115"/>
      <use transform="translate(237.060547 0.015625)" xlink:href="#DejaVuSans-101"/>
      <use transform="translate(298.583984 0.015625)" xlink:href="#DejaVuSans-32"/>
      <use transform="translate(330.371094 0.015625)" xlink:href="#DejaVuSans-40"/>
      <use transform="translate(369.384766 0.015625)" xlink:href="#DejaVuSans-8728"/>
      <use transform="translate(431.982422 0.015625)" xlink:href="#DejaVuSans-41"/>
     </g>
    </g>
   </g>
   <g id="line2d_197">
    <path clip-path="url(#pa737ddefca)" d="M -1 892.583011 
L 19.235765 892.583115 
L 75.427784 893.546257 
L 108.298009 894.509452 
L 131.619804 895.472727 
L 149.709594 896.436109 
L 164.490028 897.399625 
L 176.986708 898.363301 
L 187.811824 899.327165 
L 205.901613 901.255561 
L 220.682048 903.185029 
L 233.178727 905.115785 
L 244.003843 907.048046 
L 253.552272 908.982031 
L 262.093633 910.91796 
L 269.820234 912.856055 
L 276.874067 914.796538 
L 286.422496 917.712234 
L 294.963857 920.634582 
L 302.690458 923.564363 
L 309.744292 926.502374 
L 316.23319 929.449426 
L 322.240971 932.406351 
L 327.834082 935.373998 
L 333.066087 938.353237 
L 339.554985 942.345142 
L 345.562766 946.361448 
L 351.155877 950.404445 
L 356.387882 954.476529 
L 361.302596 958.580218 
L 365.936311 962.718163 
L 370.31943 966.893168 
L 374.477672 971.10821 
L 379.392386 976.438171 
L 384.026101 981.842365 
L 388.40922 987.328137 
L 392.567462 992.903606 
L 396.522781 998.577821 
L 400.294063 1004.360962 
L 403.897676 1010.264599 
L 407.347896 1016.302027 
L 410.657252 1022.4887 
L 413.836795 1028.842794 
L 414.458008 752.708167 
L 417.494616 759.292065 
L 420.421574 766.096774 
L 423.246527 773.154931 
L 425.976346 780.506087 
L 428.617229 788.197834 
L 431.17479 796.286312 
L 433.654125 804.835039 
L 436.059879 813.910204 
L 438.396292 823.5696 
L 440.667252 833.84225 
L 443.311006 846.931201 
L 446.290216 862.946222 
L 454.622369 908.742416 
L 457.219734 921.433574 
L 459.736458 932.693036 
L 462.52018 944.043917 
L 465.211479 954.061613 
L 468.136091 964.052749 
L 471.266517 973.887411 
L 474.575872 983.480164 
L 478.038375 992.773599 
L 481.629706 1001.728294 
L 485.327256 1010.317497 
L 489.110273 1018.524343 
L 492.95992 1026.340139 
L 494.588312 1029.497482 
L 494.818292 752.509264 
L 498.850126 759.949472 
L 499.719496 761.492297 
L 499.935389 900.585913 
L 504.136741 907.732109 
L 508.325685 914.419048 
L 512.678102 920.943644 
L 513.045758 921.476662 
L 513.228962 783.026826 
L 517.679473 789.240957 
L 522.226531 795.201991 
L 526.842047 800.883719 
L 531.501543 806.271789 
L 536.321687 811.506113 
L 541.260686 816.538644 
L 544.683923 819.843693 
L 544.807975 958.673639 
L 549.503645 962.973588 
L 554.713713 967.456617 
L 560.123785 971.81608 
L 565.675838 976.00123 
L 571.40937 980.04074 
L 577.263952 983.893553 
L 583.342897 987.627611 
L 589.641885 991.2354 
L 596.213011 994.741352 
L 603.080342 998.151289 
L 610.300129 1001.485302 
L 617.941281 1004.765528 
L 619.485479 1005.400458 
L 619.534806 866.706409 
L 619.633369 866.746877 
L 627.690622 869.916601 
L 636.672245 873.209935 
L 646.72029 876.652226 
L 658.878754 880.571805 
L 692.72444 891.334465 
L 693.520206 891.613036 
L 693.520206 891.613036 
" style="fill:none;stroke:#0072bd;stroke-linecap:square;stroke-width:1.4;"/>
   </g>
   <g id="patch_13">
    <path d="M 62.57 1038.04 
L 62.57 745.2 
" style="fill:none;stroke:#000000;stroke-linecap:square;stroke-linejoin:miter;stroke-width:0.8;"/>
   </g>
   <g id="patch_14">
    <path d="M 693.54 1038.04 
L 693.54 745.2 
" style="fill:none;stroke:#000000;stroke-linecap:square;stroke-linejoin:miter;stroke-width:0.8;"/>
   </g>
   <g id="patch_15">
    <path d="M 62.57 1038.04 
L 693.54 1038.04 
" style="fill:none;stroke:#000000;stroke-linecap:square;stroke-linejoin:miter;stroke-width:0.8;"/>
   </g>
   <g id="patch_16">
    <path d="M 62.57 745.2 
L 693.54 745.2 
" style="fill:none;stroke:#000000;stroke-linecap:square;stroke-linejoin:miter;stroke-width:0.8;"/>
   </g>
  </g>
  <g id="text_46">
   <!-- 8th-order Chebyshev type II filter, lowpass -->
   <defs>
    <path d="M 4.890625 31.390625 
L 31.203125 31.390625 
L 31.203125 23.390625 
L 4.890625 23.390625 
z
" id="DejaVuSans-45"/>
    <path d="M 30.609375 48.390625 
Q 23.390625 48.390625 19.1875 42.75 
Q 14.984375 37.109375 14.984375 27.296875 
Q 14.984375 17.484375 19.15625 11.84375 
Q 23.34375 6.203125 30.609375 6.203125 
Q 37.796875 6.203125 41.984375 11.859375 
Q 46.1875 17.53125 46.1875 27.296875 
Q 46.1875 37.015625 41.984375 42.703125 
Q 37.796875 48.390625 30.609375 48.390625 
z
M 30.609375 56 
Q 42.328125 56 49.015625 48.375 
Q 55.71875 40.765625 55.71875 27.296875 
Q 55.71875 13.875 49.015625 6.21875 
Q 42.328125 -1.421875 30.609375 -1.421875 
Q 18.84375 -1.421875 12.171875 6.21875 
Q 5.515625 13.875 5.515625 27.296875 
Q 5.515625 40.765625 12.171875 48.375 
Q 18.84375 56 30.609375 56 
z
" id="DejaVuSans-111"/>
    <path d="M 64.40625 67.28125 
L 64.40625 56.890625 
Q 59.421875 61.53125 53.78125 63.8125 
Q 48.140625 66.109375 41.796875 66.109375 
Q 29.296875 66.109375 22.65625 58.46875 
Q 16.015625 50.828125 16.015625 36.375 
Q 16.015625 21.96875 22.65625 14.328125 
Q 29.296875 6.6875 41.796875 6.6875 
Q 48.140625 6.6875 53.78125 8.984375 
Q 59.421875 11.28125 64.40625 15.921875 
L 64.40625 5.609375 
Q 59.234375 2.09375 53.4375 0.328125 
Q 47.65625 -1.421875 41.21875 -1.421875 
Q 24.65625 -1.421875 15.125 8.703125 
Q 5.609375 18.84375 5.609375 36.375 
Q 5.609375 53.953125 15.125 64.078125 
Q 24.65625 74.21875 41.21875 74.21875 
Q 47.75 74.21875 53.53125 72.484375 
Q 59.328125 70.75 64.40625 67.28125 
z
" id="DejaVuSans-67"/>
    <path d="M 48.6875 27.296875 
Q 48.6875 37.203125 44.609375 42.84375 
Q 40.53125 48.484375 33.40625 48.484375 
Q 26.265625 48.484375 22.1875 42.84375 
Q 18.109375 37.203125 18.109375 27.296875 
Q 18.109375 17.390625 22.1875 11.75 
Q 26.265625 6.109375 33.40625 6.109375 
Q 40.53125 6.109375 44.609375 11.75 
Q 48.6875 17.390625 48.6875 27.296875 
z
M 18.109375 46.390625 
Q 20.953125 51.265625 25.265625 53.625 
Q 29.59375 56 35.59375 56 
Q 45.5625 56 51.78125 48.09375 
Q 58.015625 40.1875 58.015625 27.296875 
Q 58.015625 14.40625 51.78125 6.484375 
Q 45.5625 -1.421875 35.59375 -1.421875 
Q 29.59375 -1.421875 25.265625 0.953125 
Q 20.953125 3.328125 18.109375 8.203125 
L 18.109375 0 
L 9.078125 0 
L 9.078125 75.984375 
L 18.109375 75.984375 
z
" id="DejaVuSans-98"/>
    <path d="M 2.984375 54.6875 
L 12.5 54.6875 
L 29.59375 8.796875 
L 46.6875 54.6875 
L 56.203125 54.6875 
L 35.6875 0 
L 23.484375 0 
z
" id="DejaVuSans-118"/>
    <path d="M 9.8125 72.90625 
L 19.671875 72.90625 
L 19.671875 0 
L 9.8125 0 
z
" id="DejaVuSans-73"/>
    <path d="M 37.109375 75.984375 
L 37.109375 68.5 
L 28.515625 68.5 
Q 23.6875 68.5 21.796875 66.546875 
Q 19.921875 64.59375 19.921875 59.515625 
L 19.921875 54.6875 
L 34.71875 54.6875 
L 34.71875 47.703125 
L 19.921875 47.703125 
L 19.921875 0 
L 10.890625 0 
L 10.890625 47.703125 
L 2.296875 47.703125 
L 2.296875 54.6875 
L 10.890625 54.6875 
L 10.890625 58.5 
Q 10.890625 67.625 15.140625 71.796875 
Q 19.390625 75.984375 28.609375 75.984375 
z
" id="DejaVuSans-102"/>
    <path d="M 11.71875 12.40625 
L 22.015625 12.40625 
L 22.015625 4 
L 14.015625 -11.625 
L 7.71875 -11.625 
L 11.71875 4 
z
" id="DejaVuSans-44"/>
    <path d="M 4.203125 54.6875 
L 13.1875 54.6875 
L 24.421875 12.015625 
L 35.59375 54.6875 
L 46.1875 54.6875 
L 57.421875 12.015625 
L 68.609375 54.6875 
L 77.59375 54.6875 
L 63.28125 0 
L 52.6875 0 
L 40.921875 44.828125 
L 29.109375 0 
L 18.5 0 
z
" id="DejaVuSans-119"/>
   </defs>
   <g transform="translate(189.62375 33.7575)scale(0.16 -0.16)">
    <use xlink:href="#DejaVuSans-56"/>
    <use x="63.623047" xlink:href="#DejaVuSans-116"/>
    <use x="102.832031" xlink:href="#DejaVuSans-104"/>
    <use x="166.210938" xlink:href="#DejaVuSans-45"/>
    <use x="202.310547" xlink:href="#DejaVuSans-111"/>
    <use x="263.492188" xlink:href="#DejaVuSans-114"/>
    <use x="304.589844" xlink:href="#DejaVuSans-100"/>
    <use x="368.066406" xlink:href="#DejaVuSans-101"/>
    <use x="429.589844" xlink:href="#DejaVuSans-114"/>
    <use x="470.703125" xlink:href="#DejaVuSans-32"/>
    <use x="502.490234" xlink:href="#DejaVuSans-67"/>
    <use x="572.314453" xlink:href="#DejaVuSans-104"/>
    <use x="635.693359" xlink:href="#DejaVuSans-101"/>
    <use x="697.216797" xlink:href="#DejaVuSans-98"/>
    <use x="760.693359" xlink:href="#DejaVuSans-121"/>
    <use x="819.873047" xlink:href="#DejaVuSans-115"/>
    <use x="871.972656" xlink:href="#DejaVuSans-104"/>
    <use x="935.351562" xlink:href="#DejaVuSans-101"/>
    <use x="996.875" xlink:href="#DejaVuSans-118"/>
    <use x="1056.054688" xlink:href="#DejaVuSans-32"/>
    <use x="1087.841797" xlink:href="#DejaVuSans-116"/>
    <use x="1127.050781" xlink:href="#DejaVuSans-121"/>
    <use x="1186.230469" xlink:href="#DejaVuSans-112"/>
    <use x="1249.707031" xlink:href="#DejaVuSans-101"/>
    <use x="1311.230469" xlink:href="#DejaVuSans-32"/>
    <use x="1343.017578" xlink:href="#DejaVuSans-73"/>
    <use x="1372.509766" xlink:href="#DejaVuSans-73"/>
    <use x="1402.001953" xlink:href="#DejaVuSans-32"/>
    <use x="1433.789062" xlink:href="#DejaVuSans-102"/>
    <use x="1468.994141" xlink:href="#DejaVuSans-105"/>
    <use x="1496.777344" xlink:href="#DejaVuSans-108"/>
    <use x="1524.560547" xlink:href="#DejaVuSans-116"/>
    <use x="1563.769531" xlink:href="#DejaVuSans-101"/>
    <use x="1625.292969" xlink:href="#DejaVuSans-114"/>
    <use x="1666.40625" xlink:href="#DejaVuSans-44"/>
    <use x="1698.193359" xlink:href="#DejaVuSans-32"/>
    <use x="1729.980469" xlink:href="#DejaVuSans-108"/>
    <use x="1757.763672" xlink:href="#DejaVuSans-111"/>
    <use x="1818.945312" xlink:href="#DejaVuSans-119"/>
    <use x="1900.732422" xlink:href="#DejaVuSans-112"/>
    <use x="1964.208984" xlink:href="#DejaVuSans-97"/>
    <use x="2025.488281" xlink:href="#DejaVuSans-115"/>
    <use x="2077.587891" xlink:href="#DejaVuSans-115"/>
   </g>
  </g>
 </g>
 <defs>
  <clipPath id="p093e4a304d">
   <rect height="292.84" width="630.97" x="62.57" y="75.6"/>
  </clipPath>
  <clipPath id="pc1f1bd4bb6">
   <rect height="292.84" width="630.97" x="62.57" y="410.4"/>
  </clipPath>
  <clipPath id="pa737ddefca">
   <rect height="292.84" width="630.97" x="62.57" y="745.2"/>
  </clipPath>
 </defs>
</svg>
