<?xml version="1.0" encoding="utf-8" standalone="no"?>
<!DOCTYPE svg PUBLIC "-//W3C//DTD SVG 1.1//EN"
  "http://www.w3.org/Graphics/SVG/1.1/DTD/svg11.dtd">
<!-- Created with matplotlib (https://matplotlib.org/) -->
<svg height="432pt" version="1.1" viewBox="0 0 864 432" width="864pt" xmlns="http://www.w3.org/2000/svg" xmlns:xlink="http://www.w3.org/1999/xlink">
 <defs>
  <style type="text/css">
*{stroke-linecap:butt;stroke-linejoin:round;}
  </style>
 </defs>
 <g id="figure_1">
  <g id="patch_1">
   <path d="M 0 432 
L 864 432 
L 864 0 
L 0 0 
z
" style="fill:#ffffff;"/>
  </g>
  <g id="axes_1">
   <g id="patch_2">
    <path d="M 47.855 388.6 
L 416.8575 388.6 
L 416.8575 36.72 
L 47.855 36.72 
z
" style="fill:#ffffff;"/>
   </g>
   <g id="matplotlib.axis_1">
    <g id="xtick_1">
     <g id="line2d_1">
      <path clip-path="url(#p29883769eb)" d="M 47.855 388.6 
L 47.855 36.72 
" style="fill:none;stroke:#777777;stroke-linecap:square;stroke-width:0.8;"/>
     </g>
     <g id="line2d_2">
      <defs>
       <path d="M 0 0 
L 0 3.5 
" id="m4d0c9e832b" style="stroke:#000000;stroke-width:0.8;"/>
      </defs>
      <g>
       <use style="stroke:#000000;stroke-width:0.8;" x="47.855" xlink:href="#m4d0c9e832b" y="388.6"/>
      </g>
     </g>
     <g id="text_1">
      <!-- 0 -->
      <defs>
       <path d="M 31.78125 66.40625 
Q 24.171875 66.40625 20.328125 58.90625 
Q 16.5 51.421875 16.5 36.375 
Q 16.5 21.390625 20.328125 13.890625 
Q 24.171875 6.390625 31.78125 6.390625 
Q 39.453125 6.390625 43.28125 13.890625 
Q 47.125 21.390625 47.125 36.375 
Q 47.125 51.421875 43.28125 58.90625 
Q 39.453125 66.40625 31.78125 66.40625 
z
M 31.78125 74.21875 
Q 44.046875 74.21875 50.515625 64.515625 
Q 56.984375 54.828125 56.984375 36.375 
Q 56.984375 17.96875 50.515625 8.265625 
Q 44.046875 -1.421875 31.78125 -1.421875 
Q 19.53125 -1.421875 13.0625 8.265625 
Q 6.59375 17.96875 6.59375 36.375 
Q 6.59375 54.828125 13.0625 64.515625 
Q 19.53125 74.21875 31.78125 74.21875 
z
" id="DejaVuSans-48"/>
      </defs>
      <g transform="translate(44.67375 403.198438)scale(0.1 -0.1)">
       <use xlink:href="#DejaVuSans-48"/>
      </g>
     </g>
    </g>
    <g id="xtick_2">
     <g id="line2d_3">
      <path clip-path="url(#p29883769eb)" d="M 106.426825 388.6 
L 106.426825 36.72 
" style="fill:none;stroke:#777777;stroke-linecap:square;stroke-width:0.8;"/>
     </g>
     <g id="line2d_4">
      <g>
       <use style="stroke:#000000;stroke-width:0.8;" x="106.426825" xlink:href="#m4d0c9e832b" y="388.6"/>
      </g>
     </g>
     <g id="text_2">
      <!-- 10 -->
      <defs>
       <path d="M 12.40625 8.296875 
L 28.515625 8.296875 
L 28.515625 63.921875 
L 10.984375 60.40625 
L 10.984375 69.390625 
L 28.421875 72.90625 
L 38.28125 72.90625 
L 38.28125 8.296875 
L 54.390625 8.296875 
L 54.390625 0 
L 12.40625 0 
z
" id="DejaVuSans-49"/>
      </defs>
      <g transform="translate(100.064325 403.198438)scale(0.1 -0.1)">
       <use xlink:href="#DejaVuSans-49"/>
       <use x="63.623047" xlink:href="#DejaVuSans-48"/>
      </g>
     </g>
    </g>
    <g id="xtick_3">
     <g id="line2d_5">
      <path clip-path="url(#p29883769eb)" d="M 164.998651 388.6 
L 164.998651 36.72 
" style="fill:none;stroke:#777777;stroke-linecap:square;stroke-width:0.8;"/>
     </g>
     <g id="line2d_6">
      <g>
       <use style="stroke:#000000;stroke-width:0.8;" x="164.998651" xlink:href="#m4d0c9e832b" y="388.6"/>
      </g>
     </g>
     <g id="text_3">
      <!-- 20 -->
      <defs>
       <path d="M 19.1875 8.296875 
L 53.609375 8.296875 
L 53.609375 0 
L 7.328125 0 
L 7.328125 8.296875 
Q 12.9375 14.109375 22.625 23.890625 
Q 32.328125 33.6875 34.8125 36.53125 
Q 39.546875 41.84375 41.421875 45.53125 
Q 43.3125 49.21875 43.3125 52.78125 
Q 43.3125 58.59375 39.234375 62.25 
Q 35.15625 65.921875 28.609375 65.921875 
Q 23.96875 65.921875 18.8125 64.3125 
Q 13.671875 62.703125 7.8125 59.421875 
L 7.8125 69.390625 
Q 13.765625 71.78125 18.9375 73 
Q 24.125 74.21875 28.421875 74.21875 
Q 39.75 74.21875 46.484375 68.546875 
Q 53.21875 62.890625 53.21875 53.421875 
Q 53.21875 48.921875 51.53125 44.890625 
Q 49.859375 40.875 45.40625 35.40625 
Q 44.1875 33.984375 37.640625 27.21875 
Q 31.109375 20.453125 19.1875 8.296875 
z
" id="DejaVuSans-50"/>
      </defs>
      <g transform="translate(158.636151 403.198438)scale(0.1 -0.1)">
       <use xlink:href="#DejaVuSans-50"/>
       <use x="63.623047" xlink:href="#DejaVuSans-48"/>
      </g>
     </g>
    </g>
    <g id="xtick_4">
     <g id="line2d_7">
      <path clip-path="url(#p29883769eb)" d="M 223.570476 388.6 
L 223.570476 36.72 
" style="fill:none;stroke:#777777;stroke-linecap:square;stroke-width:0.8;"/>
     </g>
     <g id="line2d_8">
      <g>
       <use style="stroke:#000000;stroke-width:0.8;" x="223.570476" xlink:href="#m4d0c9e832b" y="388.6"/>
      </g>
     </g>
     <g id="text_4">
      <!-- 30 -->
      <defs>
       <path d="M 40.578125 39.3125 
Q 47.65625 37.796875 51.625 33 
Q 55.609375 28.21875 55.609375 21.1875 
Q 55.609375 10.40625 48.1875 4.484375 
Q 40.765625 -1.421875 27.09375 -1.421875 
Q 22.515625 -1.421875 17.65625 -0.515625 
Q 12.796875 0.390625 7.625 2.203125 
L 7.625 11.71875 
Q 11.71875 9.328125 16.59375 8.109375 
Q 21.484375 6.890625 26.8125 6.890625 
Q 36.078125 6.890625 40.9375 10.546875 
Q 45.796875 14.203125 45.796875 21.1875 
Q 45.796875 27.640625 41.28125 31.265625 
Q 36.765625 34.90625 28.71875 34.90625 
L 20.21875 34.90625 
L 20.21875 43.015625 
L 29.109375 43.015625 
Q 36.375 43.015625 40.234375 45.921875 
Q 44.09375 48.828125 44.09375 54.296875 
Q 44.09375 59.90625 40.109375 62.90625 
Q 36.140625 65.921875 28.71875 65.921875 
Q 24.65625 65.921875 20.015625 65.03125 
Q 15.375 64.15625 9.8125 62.3125 
L 9.8125 71.09375 
Q 15.4375 72.65625 20.34375 73.4375 
Q 25.25 74.21875 29.59375 74.21875 
Q 40.828125 74.21875 47.359375 69.109375 
Q 53.90625 64.015625 53.90625 55.328125 
Q 53.90625 49.265625 50.4375 45.09375 
Q 46.96875 40.921875 40.578125 39.3125 
z
" id="DejaVuSans-51"/>
      </defs>
      <g transform="translate(217.207976 403.198438)scale(0.1 -0.1)">
       <use xlink:href="#DejaVuSans-51"/>
       <use x="63.623047" xlink:href="#DejaVuSans-48"/>
      </g>
     </g>
    </g>
    <g id="xtick_5">
     <g id="line2d_9">
      <path clip-path="url(#p29883769eb)" d="M 282.142302 388.6 
L 282.142302 36.72 
" style="fill:none;stroke:#777777;stroke-linecap:square;stroke-width:0.8;"/>
     </g>
     <g id="line2d_10">
      <g>
       <use style="stroke:#000000;stroke-width:0.8;" x="282.142302" xlink:href="#m4d0c9e832b" y="388.6"/>
      </g>
     </g>
     <g id="text_5">
      <!-- 40 -->
      <defs>
       <path d="M 37.796875 64.3125 
L 12.890625 25.390625 
L 37.796875 25.390625 
z
M 35.203125 72.90625 
L 47.609375 72.90625 
L 47.609375 25.390625 
L 58.015625 25.390625 
L 58.015625 17.1875 
L 47.609375 17.1875 
L 47.609375 0 
L 37.796875 0 
L 37.796875 17.1875 
L 4.890625 17.1875 
L 4.890625 26.703125 
z
" id="DejaVuSans-52"/>
      </defs>
      <g transform="translate(275.779802 403.198438)scale(0.1 -0.1)">
       <use xlink:href="#DejaVuSans-52"/>
       <use x="63.623047" xlink:href="#DejaVuSans-48"/>
      </g>
     </g>
    </g>
    <g id="xtick_6">
     <g id="line2d_11">
      <path clip-path="url(#p29883769eb)" d="M 340.714127 388.6 
L 340.714127 36.72 
" style="fill:none;stroke:#777777;stroke-linecap:square;stroke-width:0.8;"/>
     </g>
     <g id="line2d_12">
      <g>
       <use style="stroke:#000000;stroke-width:0.8;" x="340.714127" xlink:href="#m4d0c9e832b" y="388.6"/>
      </g>
     </g>
     <g id="text_6">
      <!-- 50 -->
      <defs>
       <path d="M 10.796875 72.90625 
L 49.515625 72.90625 
L 49.515625 64.59375 
L 19.828125 64.59375 
L 19.828125 46.734375 
Q 21.96875 47.46875 24.109375 47.828125 
Q 26.265625 48.1875 28.421875 48.1875 
Q 40.625 48.1875 47.75 41.5 
Q 54.890625 34.8125 54.890625 23.390625 
Q 54.890625 11.625 47.5625 5.09375 
Q 40.234375 -1.421875 26.90625 -1.421875 
Q 22.3125 -1.421875 17.546875 -0.640625 
Q 12.796875 0.140625 7.71875 1.703125 
L 7.71875 11.625 
Q 12.109375 9.234375 16.796875 8.0625 
Q 21.484375 6.890625 26.703125 6.890625 
Q 35.15625 6.890625 40.078125 11.328125 
Q 45.015625 15.765625 45.015625 23.390625 
Q 45.015625 31 40.078125 35.4375 
Q 35.15625 39.890625 26.703125 39.890625 
Q 22.75 39.890625 18.8125 39.015625 
Q 14.890625 38.140625 10.796875 36.28125 
z
" id="DejaVuSans-53"/>
      </defs>
      <g transform="translate(334.351627 403.198438)scale(0.1 -0.1)">
       <use xlink:href="#DejaVuSans-53"/>
       <use x="63.623047" xlink:href="#DejaVuSans-48"/>
      </g>
     </g>
    </g>
    <g id="xtick_7">
     <g id="line2d_13">
      <path clip-path="url(#p29883769eb)" d="M 399.285952 388.6 
L 399.285952 36.72 
" style="fill:none;stroke:#777777;stroke-linecap:square;stroke-width:0.8;"/>
     </g>
     <g id="line2d_14">
      <g>
       <use style="stroke:#000000;stroke-width:0.8;" x="399.285952" xlink:href="#m4d0c9e832b" y="388.6"/>
      </g>
     </g>
     <g id="text_7">
      <!-- 60 -->
      <defs>
       <path d="M 33.015625 40.375 
Q 26.375 40.375 22.484375 35.828125 
Q 18.609375 31.296875 18.609375 23.390625 
Q 18.609375 15.53125 22.484375 10.953125 
Q 26.375 6.390625 33.015625 6.390625 
Q 39.65625 6.390625 43.53125 10.953125 
Q 47.40625 15.53125 47.40625 23.390625 
Q 47.40625 31.296875 43.53125 35.828125 
Q 39.65625 40.375 33.015625 40.375 
z
M 52.59375 71.296875 
L 52.59375 62.3125 
Q 48.875 64.0625 45.09375 64.984375 
Q 41.3125 65.921875 37.59375 65.921875 
Q 27.828125 65.921875 22.671875 59.328125 
Q 17.53125 52.734375 16.796875 39.40625 
Q 19.671875 43.65625 24.015625 45.921875 
Q 28.375 48.1875 33.59375 48.1875 
Q 44.578125 48.1875 50.953125 41.515625 
Q 57.328125 34.859375 57.328125 23.390625 
Q 57.328125 12.15625 50.6875 5.359375 
Q 44.046875 -1.421875 33.015625 -1.421875 
Q 20.359375 -1.421875 13.671875 8.265625 
Q 6.984375 17.96875 6.984375 36.375 
Q 6.984375 53.65625 15.1875 63.9375 
Q 23.390625 74.21875 37.203125 74.21875 
Q 40.921875 74.21875 44.703125 73.484375 
Q 48.484375 72.75 52.59375 71.296875 
z
" id="DejaVuSans-54"/>
      </defs>
      <g transform="translate(392.923452 403.198438)scale(0.1 -0.1)">
       <use xlink:href="#DejaVuSans-54"/>
       <use x="63.623047" xlink:href="#DejaVuSans-48"/>
      </g>
     </g>
    </g>
    <g id="text_8">
     <!-- Samples -->
     <defs>
      <path d="M 53.515625 70.515625 
L 53.515625 60.890625 
Q 47.90625 63.578125 42.921875 64.890625 
Q 37.9375 66.21875 33.296875 66.21875 
Q 25.25 66.21875 20.875 63.09375 
Q 16.5 59.96875 16.5 54.203125 
Q 16.5 49.359375 19.40625 46.890625 
Q 22.3125 44.4375 30.421875 42.921875 
L 36.375 41.703125 
Q 47.40625 39.59375 52.65625 34.296875 
Q 57.90625 29 57.90625 20.125 
Q 57.90625 9.515625 50.796875 4.046875 
Q 43.703125 -1.421875 29.984375 -1.421875 
Q 24.8125 -1.421875 18.96875 -0.25 
Q 13.140625 0.921875 6.890625 3.21875 
L 6.890625 13.375 
Q 12.890625 10.015625 18.65625 8.296875 
Q 24.421875 6.59375 29.984375 6.59375 
Q 38.421875 6.59375 43.015625 9.90625 
Q 47.609375 13.234375 47.609375 19.390625 
Q 47.609375 24.75 44.3125 27.78125 
Q 41.015625 30.8125 33.5 32.328125 
L 27.484375 33.5 
Q 16.453125 35.6875 11.515625 40.375 
Q 6.59375 45.0625 6.59375 53.421875 
Q 6.59375 63.09375 13.40625 68.65625 
Q 20.21875 74.21875 32.171875 74.21875 
Q 37.3125 74.21875 42.625 73.28125 
Q 47.953125 72.359375 53.515625 70.515625 
z
" id="DejaVuSans-83"/>
      <path d="M 34.28125 27.484375 
Q 23.390625 27.484375 19.1875 25 
Q 14.984375 22.515625 14.984375 16.5 
Q 14.984375 11.71875 18.140625 8.90625 
Q 21.296875 6.109375 26.703125 6.109375 
Q 34.1875 6.109375 38.703125 11.40625 
Q 43.21875 16.703125 43.21875 25.484375 
L 43.21875 27.484375 
z
M 52.203125 31.203125 
L 52.203125 0 
L 43.21875 0 
L 43.21875 8.296875 
Q 40.140625 3.328125 35.546875 0.953125 
Q 30.953125 -1.421875 24.3125 -1.421875 
Q 15.921875 -1.421875 10.953125 3.296875 
Q 6 8.015625 6 15.921875 
Q 6 25.140625 12.171875 29.828125 
Q 18.359375 34.515625 30.609375 34.515625 
L 43.21875 34.515625 
L 43.21875 35.40625 
Q 43.21875 41.609375 39.140625 45 
Q 35.0625 48.390625 27.6875 48.390625 
Q 23 48.390625 18.546875 47.265625 
Q 14.109375 46.140625 10.015625 43.890625 
L 10.015625 52.203125 
Q 14.9375 54.109375 19.578125 55.046875 
Q 24.21875 56 28.609375 56 
Q 40.484375 56 46.34375 49.84375 
Q 52.203125 43.703125 52.203125 31.203125 
z
" id="DejaVuSans-97"/>
      <path d="M 52 44.1875 
Q 55.375 50.25 60.0625 53.125 
Q 64.75 56 71.09375 56 
Q 79.640625 56 84.28125 50.015625 
Q 88.921875 44.046875 88.921875 33.015625 
L 88.921875 0 
L 79.890625 0 
L 79.890625 32.71875 
Q 79.890625 40.578125 77.09375 44.375 
Q 74.3125 48.1875 68.609375 48.1875 
Q 61.625 48.1875 57.5625 43.546875 
Q 53.515625 38.921875 53.515625 30.90625 
L 53.515625 0 
L 44.484375 0 
L 44.484375 32.71875 
Q 44.484375 40.625 41.703125 44.40625 
Q 38.921875 48.1875 33.109375 48.1875 
Q 26.21875 48.1875 22.15625 43.53125 
Q 18.109375 38.875 18.109375 30.90625 
L 18.109375 0 
L 9.078125 0 
L 9.078125 54.6875 
L 18.109375 54.6875 
L 18.109375 46.1875 
Q 21.1875 51.21875 25.484375 53.609375 
Q 29.78125 56 35.6875 56 
Q 41.65625 56 45.828125 52.96875 
Q 50 49.953125 52 44.1875 
z
" id="DejaVuSans-109"/>
      <path d="M 18.109375 8.203125 
L 18.109375 -20.796875 
L 9.078125 -20.796875 
L 9.078125 54.6875 
L 18.109375 54.6875 
L 18.109375 46.390625 
Q 20.953125 51.265625 25.265625 53.625 
Q 29.59375 56 35.59375 56 
Q 45.5625 56 51.78125 48.09375 
Q 58.015625 40.1875 58.015625 27.296875 
Q 58.015625 14.40625 51.78125 6.484375 
Q 45.5625 -1.421875 35.59375 -1.421875 
Q 29.59375 -1.421875 25.265625 0.953125 
Q 20.953125 3.328125 18.109375 8.203125 
z
M 48.6875 27.296875 
Q 48.6875 37.203125 44.609375 42.84375 
Q 40.53125 48.484375 33.40625 48.484375 
Q 26.265625 48.484375 22.1875 42.84375 
Q 18.109375 37.203125 18.109375 27.296875 
Q 18.109375 17.390625 22.1875 11.75 
Q 26.265625 6.109375 33.40625 6.109375 
Q 40.53125 6.109375 44.609375 11.75 
Q 48.6875 17.390625 48.6875 27.296875 
z
" id="DejaVuSans-112"/>
      <path d="M 9.421875 75.984375 
L 18.40625 75.984375 
L 18.40625 0 
L 9.421875 0 
z
" id="DejaVuSans-108"/>
      <path d="M 56.203125 29.59375 
L 56.203125 25.203125 
L 14.890625 25.203125 
Q 15.484375 15.921875 20.484375 11.0625 
Q 25.484375 6.203125 34.421875 6.203125 
Q 39.59375 6.203125 44.453125 7.46875 
Q 49.3125 8.734375 54.109375 11.28125 
L 54.109375 2.78125 
Q 49.265625 0.734375 44.1875 -0.34375 
Q 39.109375 -1.421875 33.890625 -1.421875 
Q 20.796875 -1.421875 13.15625 6.1875 
Q 5.515625 13.8125 5.515625 26.8125 
Q 5.515625 40.234375 12.765625 48.109375 
Q 20.015625 56 32.328125 56 
Q 43.359375 56 49.78125 48.890625 
Q 56.203125 41.796875 56.203125 29.59375 
z
M 47.21875 32.234375 
Q 47.125 39.59375 43.09375 43.984375 
Q 39.0625 48.390625 32.421875 48.390625 
Q 24.90625 48.390625 20.390625 44.140625 
Q 15.875 39.890625 15.1875 32.171875 
z
" id="DejaVuSans-101"/>
      <path d="M 44.28125 53.078125 
L 44.28125 44.578125 
Q 40.484375 46.53125 36.375 47.5 
Q 32.28125 48.484375 27.875 48.484375 
Q 21.1875 48.484375 17.84375 46.4375 
Q 14.5 44.390625 14.5 40.28125 
Q 14.5 37.15625 16.890625 35.375 
Q 19.28125 33.59375 26.515625 31.984375 
L 29.59375 31.296875 
Q 39.15625 29.25 43.1875 25.515625 
Q 47.21875 21.78125 47.21875 15.09375 
Q 47.21875 7.46875 41.1875 3.015625 
Q 35.15625 -1.421875 24.609375 -1.421875 
Q 20.21875 -1.421875 15.453125 -0.5625 
Q 10.6875 0.296875 5.421875 2 
L 5.421875 11.28125 
Q 10.40625 8.6875 15.234375 7.390625 
Q 20.0625 6.109375 24.8125 6.109375 
Q 31.15625 6.109375 34.5625 8.28125 
Q 37.984375 10.453125 37.984375 14.40625 
Q 37.984375 18.0625 35.515625 20.015625 
Q 33.0625 21.96875 24.703125 23.78125 
L 21.578125 24.515625 
Q 13.234375 26.265625 9.515625 29.90625 
Q 5.8125 33.546875 5.8125 39.890625 
Q 5.8125 47.609375 11.28125 51.796875 
Q 16.75 56 26.8125 56 
Q 31.78125 56 36.171875 55.265625 
Q 40.578125 54.546875 44.28125 53.078125 
z
" id="DejaVuSans-115"/>
     </defs>
     <g transform="translate(211.003125 416.876562)scale(0.1 -0.1)">
      <use xlink:href="#DejaVuSans-83"/>
      <use x="63.476562" xlink:href="#DejaVuSans-97"/>
      <use x="124.755859" xlink:href="#DejaVuSans-109"/>
      <use x="222.167969" xlink:href="#DejaVuSans-112"/>
      <use x="285.644531" xlink:href="#DejaVuSans-108"/>
      <use x="313.427734" xlink:href="#DejaVuSans-101"/>
      <use x="374.951172" xlink:href="#DejaVuSans-115"/>
     </g>
    </g>
   </g>
   <g id="matplotlib.axis_2">
    <g id="ytick_1">
     <g id="line2d_15">
      <path clip-path="url(#p29883769eb)" d="M 47.855 388.6 
L 416.8575 388.6 
" style="fill:none;stroke:#777777;stroke-linecap:square;stroke-width:0.8;"/>
     </g>
     <g id="line2d_16">
      <defs>
       <path d="M 0 0 
L -3.5 0 
" id="mba8e81eeee" style="stroke:#000000;stroke-width:0.8;"/>
      </defs>
      <g>
       <use style="stroke:#000000;stroke-width:0.8;" x="47.855" xlink:href="#mba8e81eeee" y="388.6"/>
      </g>
     </g>
     <g id="text_9">
      <!-- 0.0 -->
      <defs>
       <path d="M 10.6875 12.40625 
L 21 12.40625 
L 21 0 
L 10.6875 0 
z
" id="DejaVuSans-46"/>
      </defs>
      <g transform="translate(24.951875 392.399219)scale(0.1 -0.1)">
       <use xlink:href="#DejaVuSans-48"/>
       <use x="63.623047" xlink:href="#DejaVuSans-46"/>
       <use x="95.410156" xlink:href="#DejaVuSans-48"/>
      </g>
     </g>
    </g>
    <g id="ytick_2">
     <g id="line2d_17">
      <path clip-path="url(#p29883769eb)" d="M 47.855 321.492701 
L 416.8575 321.492701 
" style="fill:none;stroke:#777777;stroke-linecap:square;stroke-width:0.8;"/>
     </g>
     <g id="line2d_18">
      <g>
       <use style="stroke:#000000;stroke-width:0.8;" x="47.855" xlink:href="#mba8e81eeee" y="321.492701"/>
      </g>
     </g>
     <g id="text_10">
      <!-- 0.2 -->
      <g transform="translate(24.951875 325.29192)scale(0.1 -0.1)">
       <use xlink:href="#DejaVuSans-48"/>
       <use x="63.623047" xlink:href="#DejaVuSans-46"/>
       <use x="95.410156" xlink:href="#DejaVuSans-50"/>
      </g>
     </g>
    </g>
    <g id="ytick_3">
     <g id="line2d_19">
      <path clip-path="url(#p29883769eb)" d="M 47.855 254.385402 
L 416.8575 254.385402 
" style="fill:none;stroke:#777777;stroke-linecap:square;stroke-width:0.8;"/>
     </g>
     <g id="line2d_20">
      <g>
       <use style="stroke:#000000;stroke-width:0.8;" x="47.855" xlink:href="#mba8e81eeee" y="254.385402"/>
      </g>
     </g>
     <g id="text_11">
      <!-- 0.4 -->
      <g transform="translate(24.951875 258.184621)scale(0.1 -0.1)">
       <use xlink:href="#DejaVuSans-48"/>
       <use x="63.623047" xlink:href="#DejaVuSans-46"/>
       <use x="95.410156" xlink:href="#DejaVuSans-52"/>
      </g>
     </g>
    </g>
    <g id="ytick_4">
     <g id="line2d_21">
      <path clip-path="url(#p29883769eb)" d="M 47.855 187.278103 
L 416.8575 187.278103 
" style="fill:none;stroke:#777777;stroke-linecap:square;stroke-width:0.8;"/>
     </g>
     <g id="line2d_22">
      <g>
       <use style="stroke:#000000;stroke-width:0.8;" x="47.855" xlink:href="#mba8e81eeee" y="187.278103"/>
      </g>
     </g>
     <g id="text_12">
      <!-- 0.6 -->
      <g transform="translate(24.951875 191.077322)scale(0.1 -0.1)">
       <use xlink:href="#DejaVuSans-48"/>
       <use x="63.623047" xlink:href="#DejaVuSans-46"/>
       <use x="95.410156" xlink:href="#DejaVuSans-54"/>
      </g>
     </g>
    </g>
    <g id="ytick_5">
     <g id="line2d_23">
      <path clip-path="url(#p29883769eb)" d="M 47.855 120.170805 
L 416.8575 120.170805 
" style="fill:none;stroke:#777777;stroke-linecap:square;stroke-width:0.8;"/>
     </g>
     <g id="line2d_24">
      <g>
       <use style="stroke:#000000;stroke-width:0.8;" x="47.855" xlink:href="#mba8e81eeee" y="120.170805"/>
      </g>
     </g>
     <g id="text_13">
      <!-- 0.8 -->
      <defs>
       <path d="M 31.78125 34.625 
Q 24.75 34.625 20.71875 30.859375 
Q 16.703125 27.09375 16.703125 20.515625 
Q 16.703125 13.921875 20.71875 10.15625 
Q 24.75 6.390625 31.78125 6.390625 
Q 38.8125 6.390625 42.859375 10.171875 
Q 46.921875 13.96875 46.921875 20.515625 
Q 46.921875 27.09375 42.890625 30.859375 
Q 38.875 34.625 31.78125 34.625 
z
M 21.921875 38.8125 
Q 15.578125 40.375 12.03125 44.71875 
Q 8.5 49.078125 8.5 55.328125 
Q 8.5 64.0625 14.71875 69.140625 
Q 20.953125 74.21875 31.78125 74.21875 
Q 42.671875 74.21875 48.875 69.140625 
Q 55.078125 64.0625 55.078125 55.328125 
Q 55.078125 49.078125 51.53125 44.71875 
Q 48 40.375 41.703125 38.8125 
Q 48.828125 37.15625 52.796875 32.3125 
Q 56.78125 27.484375 56.78125 20.515625 
Q 56.78125 9.90625 50.3125 4.234375 
Q 43.84375 -1.421875 31.78125 -1.421875 
Q 19.734375 -1.421875 13.25 4.234375 
Q 6.78125 9.90625 6.78125 20.515625 
Q 6.78125 27.484375 10.78125 32.3125 
Q 14.796875 37.15625 21.921875 38.8125 
z
M 18.3125 54.390625 
Q 18.3125 48.734375 21.84375 45.5625 
Q 25.390625 42.390625 31.78125 42.390625 
Q 38.140625 42.390625 41.71875 45.5625 
Q 45.3125 48.734375 45.3125 54.390625 
Q 45.3125 60.0625 41.71875 63.234375 
Q 38.140625 66.40625 31.78125 66.40625 
Q 25.390625 66.40625 21.84375 63.234375 
Q 18.3125 60.0625 18.3125 54.390625 
z
" id="DejaVuSans-56"/>
      </defs>
      <g transform="translate(24.951875 123.970023)scale(0.1 -0.1)">
       <use xlink:href="#DejaVuSans-48"/>
       <use x="63.623047" xlink:href="#DejaVuSans-46"/>
       <use x="95.410156" xlink:href="#DejaVuSans-56"/>
      </g>
     </g>
    </g>
    <g id="ytick_6">
     <g id="line2d_25">
      <path clip-path="url(#p29883769eb)" d="M 47.855 53.063506 
L 416.8575 53.063506 
" style="fill:none;stroke:#777777;stroke-linecap:square;stroke-width:0.8;"/>
     </g>
     <g id="line2d_26">
      <g>
       <use style="stroke:#000000;stroke-width:0.8;" x="47.855" xlink:href="#mba8e81eeee" y="53.063506"/>
      </g>
     </g>
     <g id="text_14">
      <!-- 1.0 -->
      <g transform="translate(24.951875 56.862724)scale(0.1 -0.1)">
       <use xlink:href="#DejaVuSans-49"/>
       <use x="63.623047" xlink:href="#DejaVuSans-46"/>
       <use x="95.410156" xlink:href="#DejaVuSans-48"/>
      </g>
     </g>
    </g>
    <g id="text_15">
     <!-- Amplitude -->
     <defs>
      <path d="M 34.1875 63.1875 
L 20.796875 26.90625 
L 47.609375 26.90625 
z
M 28.609375 72.90625 
L 39.796875 72.90625 
L 67.578125 0 
L 57.328125 0 
L 50.6875 18.703125 
L 17.828125 18.703125 
L 11.1875 0 
L 0.78125 0 
z
" id="DejaVuSans-65"/>
      <path d="M 9.421875 54.6875 
L 18.40625 54.6875 
L 18.40625 0 
L 9.421875 0 
z
M 9.421875 75.984375 
L 18.40625 75.984375 
L 18.40625 64.59375 
L 9.421875 64.59375 
z
" id="DejaVuSans-105"/>
      <path d="M 18.3125 70.21875 
L 18.3125 54.6875 
L 36.8125 54.6875 
L 36.8125 47.703125 
L 18.3125 47.703125 
L 18.3125 18.015625 
Q 18.3125 11.328125 20.140625 9.421875 
Q 21.96875 7.515625 27.59375 7.515625 
L 36.8125 7.515625 
L 36.8125 0 
L 27.59375 0 
Q 17.1875 0 13.234375 3.875 
Q 9.28125 7.765625 9.28125 18.015625 
L 9.28125 47.703125 
L 2.6875 47.703125 
L 2.6875 54.6875 
L 9.28125 54.6875 
L 9.28125 70.21875 
z
" id="DejaVuSans-116"/>
      <path d="M 8.5 21.578125 
L 8.5 54.6875 
L 17.484375 54.6875 
L 17.484375 21.921875 
Q 17.484375 14.15625 20.5 10.265625 
Q 23.53125 6.390625 29.59375 6.390625 
Q 36.859375 6.390625 41.078125 11.03125 
Q 45.3125 15.671875 45.3125 23.6875 
L 45.3125 54.6875 
L 54.296875 54.6875 
L 54.296875 0 
L 45.3125 0 
L 45.3125 8.40625 
Q 42.046875 3.421875 37.71875 1 
Q 33.40625 -1.421875 27.6875 -1.421875 
Q 18.265625 -1.421875 13.375 4.4375 
Q 8.5 10.296875 8.5 21.578125 
z
M 31.109375 56 
z
" id="DejaVuSans-117"/>
      <path d="M 45.40625 46.390625 
L 45.40625 75.984375 
L 54.390625 75.984375 
L 54.390625 0 
L 45.40625 0 
L 45.40625 8.203125 
Q 42.578125 3.328125 38.25 0.953125 
Q 33.9375 -1.421875 27.875 -1.421875 
Q 17.96875 -1.421875 11.734375 6.484375 
Q 5.515625 14.40625 5.515625 27.296875 
Q 5.515625 40.1875 11.734375 48.09375 
Q 17.96875 56 27.875 56 
Q 33.9375 56 38.25 53.625 
Q 42.578125 51.265625 45.40625 46.390625 
z
M 14.796875 27.296875 
Q 14.796875 17.390625 18.875 11.75 
Q 22.953125 6.109375 30.078125 6.109375 
Q 37.203125 6.109375 41.296875 11.75 
Q 45.40625 17.390625 45.40625 27.296875 
Q 45.40625 37.203125 41.296875 42.84375 
Q 37.203125 48.484375 30.078125 48.484375 
Q 22.953125 48.484375 18.875 42.84375 
Q 14.796875 37.203125 14.796875 27.296875 
z
" id="DejaVuSans-100"/>
     </defs>
     <g transform="translate(18.872187 238.282656)rotate(-90)scale(0.1 -0.1)">
      <use xlink:href="#DejaVuSans-65"/>
      <use x="68.408203" xlink:href="#DejaVuSans-109"/>
      <use x="165.820312" xlink:href="#DejaVuSans-112"/>
      <use x="229.296875" xlink:href="#DejaVuSans-108"/>
      <use x="257.080078" xlink:href="#DejaVuSans-105"/>
      <use x="284.863281" xlink:href="#DejaVuSans-116"/>
      <use x="324.072266" xlink:href="#DejaVuSans-117"/>
      <use x="387.451172" xlink:href="#DejaVuSans-100"/>
      <use x="450.927734" xlink:href="#DejaVuSans-101"/>
     </g>
    </g>
   </g>
   <g id="line2d_27">
    <path clip-path="url(#p29883769eb)" d="M 47.855 388.6 
L 53.712183 388.564718 
L 59.569365 388.318585 
L 65.426548 387.654944 
L 71.28373 386.375466 
L 77.140913 384.294154 
L 82.998095 381.241172 
L 88.855278 377.066419 
L 94.71246 371.642821 
L 100.569643 364.869266 
L 106.426825 356.67315 
L 112.284008 347.012488 
L 118.14119 335.877559 
L 123.998373 323.292055 
L 129.855556 309.313708 
L 135.712738 294.034385 
L 141.569921 277.579645 
L 147.427103 260.107751 
L 153.284286 241.808148 
L 159.141468 222.899428 
L 164.998651 203.626786 
L 170.855833 184.25902 
L 176.713016 165.085086 
L 182.570198 146.410275 
L 188.427381 128.55203 
L 194.284563 111.835487 
L 200.141746 96.588775 
L 205.998929 83.138141 
L 211.856111 71.802977 
L 217.713294 62.890796 
L 223.570476 56.692242 
L 229.427659 53.47619 
L 235.284841 53.47619 
L 241.142024 56.692242 
L 246.999206 62.890796 
L 252.856389 71.802977 
L 258.713571 83.138141 
L 264.570754 96.588775 
L 270.427937 111.835487 
L 276.285119 128.55203 
L 282.142302 146.410275 
L 287.999484 165.085086 
L 293.856667 184.25902 
L 299.713849 203.626786 
L 305.571032 222.899428 
L 311.428214 241.808148 
L 317.285397 260.107751 
L 323.142579 277.579645 
L 328.999762 294.034385 
L 334.856944 309.313708 
L 340.714127 323.292055 
L 346.57131 335.877559 
L 352.428492 347.012488 
L 358.285675 356.67315 
L 364.142857 364.869266 
L 370.00004 371.642821 
L 375.857222 377.066419 
L 381.714405 381.241172 
L 387.571587 384.294154 
L 393.42877 386.375466 
L 399.285952 387.654944 
L 405.143135 388.318585 
L 411.000317 388.564718 
L 416.8575 388.6 
" style="fill:none;stroke:#0072bd;stroke-linecap:square;stroke-width:1.4;"/>
    <defs>
     <path d="M 0 1.5 
C 0.397805 1.5 0.77937 1.341951 1.06066 1.06066 
C 1.341951 0.77937 1.5 0.397805 1.5 0 
C 1.5 -0.397805 1.341951 -0.77937 1.06066 -1.06066 
C 0.77937 -1.341951 0.397805 -1.5 0 -1.5 
C -0.397805 -1.5 -0.77937 -1.341951 -1.06066 -1.06066 
C -1.341951 -0.77937 -1.5 -0.397805 -1.5 0 
C -1.5 0.397805 -1.341951 0.77937 -1.06066 1.06066 
C -0.77937 1.341951 -0.397805 1.5 0 1.5 
z
" id="m52d6644334" style="stroke:#0072bd;"/>
    </defs>
    <g clip-path="url(#p29883769eb)">
     <use style="fill:#0072bd;stroke:#0072bd;" x="47.855" xlink:href="#m52d6644334" y="388.6"/>
     <use style="fill:#0072bd;stroke:#0072bd;" x="53.712183" xlink:href="#m52d6644334" y="388.564718"/>
     <use style="fill:#0072bd;stroke:#0072bd;" x="59.569365" xlink:href="#m52d6644334" y="388.318585"/>
     <use style="fill:#0072bd;stroke:#0072bd;" x="65.426548" xlink:href="#m52d6644334" y="387.654944"/>
     <use style="fill:#0072bd;stroke:#0072bd;" x="71.28373" xlink:href="#m52d6644334" y="386.375466"/>
     <use style="fill:#0072bd;stroke:#0072bd;" x="77.140913" xlink:href="#m52d6644334" y="384.294154"/>
     <use style="fill:#0072bd;stroke:#0072bd;" x="82.998095" xlink:href="#m52d6644334" y="381.241172"/>
     <use style="fill:#0072bd;stroke:#0072bd;" x="88.855278" xlink:href="#m52d6644334" y="377.066419"/>
     <use style="fill:#0072bd;stroke:#0072bd;" x="94.71246" xlink:href="#m52d6644334" y="371.642821"/>
     <use style="fill:#0072bd;stroke:#0072bd;" x="100.569643" xlink:href="#m52d6644334" y="364.869266"/>
     <use style="fill:#0072bd;stroke:#0072bd;" x="106.426825" xlink:href="#m52d6644334" y="356.67315"/>
     <use style="fill:#0072bd;stroke:#0072bd;" x="112.284008" xlink:href="#m52d6644334" y="347.012488"/>
     <use style="fill:#0072bd;stroke:#0072bd;" x="118.14119" xlink:href="#m52d6644334" y="335.877559"/>
     <use style="fill:#0072bd;stroke:#0072bd;" x="123.998373" xlink:href="#m52d6644334" y="323.292055"/>
     <use style="fill:#0072bd;stroke:#0072bd;" x="129.855556" xlink:href="#m52d6644334" y="309.313708"/>
     <use style="fill:#0072bd;stroke:#0072bd;" x="135.712738" xlink:href="#m52d6644334" y="294.034385"/>
     <use style="fill:#0072bd;stroke:#0072bd;" x="141.569921" xlink:href="#m52d6644334" y="277.579645"/>
     <use style="fill:#0072bd;stroke:#0072bd;" x="147.427103" xlink:href="#m52d6644334" y="260.107751"/>
     <use style="fill:#0072bd;stroke:#0072bd;" x="153.284286" xlink:href="#m52d6644334" y="241.808148"/>
     <use style="fill:#0072bd;stroke:#0072bd;" x="159.141468" xlink:href="#m52d6644334" y="222.899428"/>
     <use style="fill:#0072bd;stroke:#0072bd;" x="164.998651" xlink:href="#m52d6644334" y="203.626786"/>
     <use style="fill:#0072bd;stroke:#0072bd;" x="170.855833" xlink:href="#m52d6644334" y="184.25902"/>
     <use style="fill:#0072bd;stroke:#0072bd;" x="176.713016" xlink:href="#m52d6644334" y="165.085086"/>
     <use style="fill:#0072bd;stroke:#0072bd;" x="182.570198" xlink:href="#m52d6644334" y="146.410275"/>
     <use style="fill:#0072bd;stroke:#0072bd;" x="188.427381" xlink:href="#m52d6644334" y="128.55203"/>
     <use style="fill:#0072bd;stroke:#0072bd;" x="194.284563" xlink:href="#m52d6644334" y="111.835487"/>
     <use style="fill:#0072bd;stroke:#0072bd;" x="200.141746" xlink:href="#m52d6644334" y="96.588775"/>
     <use style="fill:#0072bd;stroke:#0072bd;" x="205.998929" xlink:href="#m52d6644334" y="83.138141"/>
     <use style="fill:#0072bd;stroke:#0072bd;" x="211.856111" xlink:href="#m52d6644334" y="71.802977"/>
     <use style="fill:#0072bd;stroke:#0072bd;" x="217.713294" xlink:href="#m52d6644334" y="62.890796"/>
     <use style="fill:#0072bd;stroke:#0072bd;" x="223.570476" xlink:href="#m52d6644334" y="56.692242"/>
     <use style="fill:#0072bd;stroke:#0072bd;" x="229.427659" xlink:href="#m52d6644334" y="53.47619"/>
     <use style="fill:#0072bd;stroke:#0072bd;" x="235.284841" xlink:href="#m52d6644334" y="53.47619"/>
     <use style="fill:#0072bd;stroke:#0072bd;" x="241.142024" xlink:href="#m52d6644334" y="56.692242"/>
     <use style="fill:#0072bd;stroke:#0072bd;" x="246.999206" xlink:href="#m52d6644334" y="62.890796"/>
     <use style="fill:#0072bd;stroke:#0072bd;" x="252.856389" xlink:href="#m52d6644334" y="71.802977"/>
     <use style="fill:#0072bd;stroke:#0072bd;" x="258.713571" xlink:href="#m52d6644334" y="83.138141"/>
     <use style="fill:#0072bd;stroke:#0072bd;" x="264.570754" xlink:href="#m52d6644334" y="96.588775"/>
     <use style="fill:#0072bd;stroke:#0072bd;" x="270.427937" xlink:href="#m52d6644334" y="111.835487"/>
     <use style="fill:#0072bd;stroke:#0072bd;" x="276.285119" xlink:href="#m52d6644334" y="128.55203"/>
     <use style="fill:#0072bd;stroke:#0072bd;" x="282.142302" xlink:href="#m52d6644334" y="146.410275"/>
     <use style="fill:#0072bd;stroke:#0072bd;" x="287.999484" xlink:href="#m52d6644334" y="165.085086"/>
     <use style="fill:#0072bd;stroke:#0072bd;" x="293.856667" xlink:href="#m52d6644334" y="184.25902"/>
     <use style="fill:#0072bd;stroke:#0072bd;" x="299.713849" xlink:href="#m52d6644334" y="203.626786"/>
     <use style="fill:#0072bd;stroke:#0072bd;" x="305.571032" xlink:href="#m52d6644334" y="222.899428"/>
     <use style="fill:#0072bd;stroke:#0072bd;" x="311.428214" xlink:href="#m52d6644334" y="241.808148"/>
     <use style="fill:#0072bd;stroke:#0072bd;" x="317.285397" xlink:href="#m52d6644334" y="260.107751"/>
     <use style="fill:#0072bd;stroke:#0072bd;" x="323.142579" xlink:href="#m52d6644334" y="277.579645"/>
     <use style="fill:#0072bd;stroke:#0072bd;" x="328.999762" xlink:href="#m52d6644334" y="294.034385"/>
     <use style="fill:#0072bd;stroke:#0072bd;" x="334.856944" xlink:href="#m52d6644334" y="309.313708"/>
     <use style="fill:#0072bd;stroke:#0072bd;" x="340.714127" xlink:href="#m52d6644334" y="323.292055"/>
     <use style="fill:#0072bd;stroke:#0072bd;" x="346.57131" xlink:href="#m52d6644334" y="335.877559"/>
     <use style="fill:#0072bd;stroke:#0072bd;" x="352.428492" xlink:href="#m52d6644334" y="347.012488"/>
     <use style="fill:#0072bd;stroke:#0072bd;" x="358.285675" xlink:href="#m52d6644334" y="356.67315"/>
     <use style="fill:#0072bd;stroke:#0072bd;" x="364.142857" xlink:href="#m52d6644334" y="364.869266"/>
     <use style="fill:#0072bd;stroke:#0072bd;" x="370.00004" xlink:href="#m52d6644334" y="371.642821"/>
     <use style="fill:#0072bd;stroke:#0072bd;" x="375.857222" xlink:href="#m52d6644334" y="377.066419"/>
     <use style="fill:#0072bd;stroke:#0072bd;" x="381.714405" xlink:href="#m52d6644334" y="381.241172"/>
     <use style="fill:#0072bd;stroke:#0072bd;" x="387.571587" xlink:href="#m52d6644334" y="384.294154"/>
     <use style="fill:#0072bd;stroke:#0072bd;" x="393.42877" xlink:href="#m52d6644334" y="386.375466"/>
     <use style="fill:#0072bd;stroke:#0072bd;" x="399.285952" xlink:href="#m52d6644334" y="387.654944"/>
     <use style="fill:#0072bd;stroke:#0072bd;" x="405.143135" xlink:href="#m52d6644334" y="388.318585"/>
     <use style="fill:#0072bd;stroke:#0072bd;" x="411.000317" xlink:href="#m52d6644334" y="388.564718"/>
     <use style="fill:#0072bd;stroke:#0072bd;" x="416.8575" xlink:href="#m52d6644334" y="388.6"/>
    </g>
   </g>
   <g id="patch_3">
    <path d="M 47.855 388.6 
L 47.855 36.72 
" style="fill:none;stroke:#000000;stroke-linecap:square;stroke-linejoin:miter;stroke-width:0.8;"/>
   </g>
   <g id="patch_4">
    <path d="M 416.8575 388.6 
L 416.8575 36.72 
" style="fill:none;stroke:#000000;stroke-linecap:square;stroke-linejoin:miter;stroke-width:0.8;"/>
   </g>
   <g id="patch_5">
    <path d="M 47.855 388.6 
L 416.8575 388.6 
" style="fill:none;stroke:#000000;stroke-linecap:square;stroke-linejoin:miter;stroke-width:0.8;"/>
   </g>
   <g id="patch_6">
    <path d="M 47.855 36.72 
L 416.8575 36.72 
" style="fill:none;stroke:#000000;stroke-linecap:square;stroke-linejoin:miter;stroke-width:0.8;"/>
   </g>
  </g>
  <g id="axes_2">
   <g id="patch_7">
    <path d="M 476.2325 388.6 
L 845.235 388.6 
L 845.235 36.72 
L 476.2325 36.72 
z
" style="fill:#ffffff;"/>
   </g>
   <g id="matplotlib.axis_3">
    <g id="xtick_8">
     <g id="line2d_28">
      <path clip-path="url(#p9bfbf75de8)" d="M 476.2325 388.6 
L 476.2325 36.72 
" style="fill:none;stroke:#777777;stroke-linecap:square;stroke-width:0.8;"/>
     </g>
     <g id="line2d_29">
      <g>
       <use style="stroke:#000000;stroke-width:0.8;" x="476.2325" xlink:href="#m4d0c9e832b" y="388.6"/>
      </g>
     </g>
     <g id="text_16">
      <!-- 0.0 -->
      <g transform="translate(468.280937 403.198438)scale(0.1 -0.1)">
       <use xlink:href="#DejaVuSans-48"/>
       <use x="63.623047" xlink:href="#DejaVuSans-46"/>
       <use x="95.410156" xlink:href="#DejaVuSans-48"/>
      </g>
     </g>
    </g>
    <g id="xtick_9">
     <g id="line2d_30">
      <path clip-path="url(#p9bfbf75de8)" d="M 550.033 388.6 
L 550.033 36.72 
" style="fill:none;stroke:#777777;stroke-linecap:square;stroke-width:0.8;"/>
     </g>
     <g id="line2d_31">
      <g>
       <use style="stroke:#000000;stroke-width:0.8;" x="550.033" xlink:href="#m4d0c9e832b" y="388.6"/>
      </g>
     </g>
     <g id="text_17">
      <!-- 0.2 -->
      <g transform="translate(542.081437 403.198438)scale(0.1 -0.1)">
       <use xlink:href="#DejaVuSans-48"/>
       <use x="63.623047" xlink:href="#DejaVuSans-46"/>
       <use x="95.410156" xlink:href="#DejaVuSans-50"/>
      </g>
     </g>
    </g>
    <g id="xtick_10">
     <g id="line2d_32">
      <path clip-path="url(#p9bfbf75de8)" d="M 623.8335 388.6 
L 623.8335 36.72 
" style="fill:none;stroke:#777777;stroke-linecap:square;stroke-width:0.8;"/>
     </g>
     <g id="line2d_33">
      <g>
       <use style="stroke:#000000;stroke-width:0.8;" x="623.8335" xlink:href="#m4d0c9e832b" y="388.6"/>
      </g>
     </g>
     <g id="text_18">
      <!-- 0.4 -->
      <g transform="translate(615.881937 403.198438)scale(0.1 -0.1)">
       <use xlink:href="#DejaVuSans-48"/>
       <use x="63.623047" xlink:href="#DejaVuSans-46"/>
       <use x="95.410156" xlink:href="#DejaVuSans-52"/>
      </g>
     </g>
    </g>
    <g id="xtick_11">
     <g id="line2d_34">
      <path clip-path="url(#p9bfbf75de8)" d="M 697.634 388.6 
L 697.634 36.72 
" style="fill:none;stroke:#777777;stroke-linecap:square;stroke-width:0.8;"/>
     </g>
     <g id="line2d_35">
      <g>
       <use style="stroke:#000000;stroke-width:0.8;" x="697.634" xlink:href="#m4d0c9e832b" y="388.6"/>
      </g>
     </g>
     <g id="text_19">
      <!-- 0.6 -->
      <g transform="translate(689.682437 403.198438)scale(0.1 -0.1)">
       <use xlink:href="#DejaVuSans-48"/>
       <use x="63.623047" xlink:href="#DejaVuSans-46"/>
       <use x="95.410156" xlink:href="#DejaVuSans-54"/>
      </g>
     </g>
    </g>
    <g id="xtick_12">
     <g id="line2d_36">
      <path clip-path="url(#p9bfbf75de8)" d="M 771.4345 388.6 
L 771.4345 36.72 
" style="fill:none;stroke:#777777;stroke-linecap:square;stroke-width:0.8;"/>
     </g>
     <g id="line2d_37">
      <g>
       <use style="stroke:#000000;stroke-width:0.8;" x="771.4345" xlink:href="#m4d0c9e832b" y="388.6"/>
      </g>
     </g>
     <g id="text_20">
      <!-- 0.8 -->
      <g transform="translate(763.482937 403.198438)scale(0.1 -0.1)">
       <use xlink:href="#DejaVuSans-48"/>
       <use x="63.623047" xlink:href="#DejaVuSans-46"/>
       <use x="95.410156" xlink:href="#DejaVuSans-56"/>
      </g>
     </g>
    </g>
    <g id="xtick_13">
     <g id="line2d_38">
      <path clip-path="url(#p9bfbf75de8)" d="M 845.235 388.6 
L 845.235 36.72 
" style="fill:none;stroke:#777777;stroke-linecap:square;stroke-width:0.8;"/>
     </g>
     <g id="line2d_39">
      <g>
       <use style="stroke:#000000;stroke-width:0.8;" x="845.235" xlink:href="#m4d0c9e832b" y="388.6"/>
      </g>
     </g>
     <g id="text_21">
      <!-- 1.0 -->
      <g transform="translate(837.283437 403.198438)scale(0.1 -0.1)">
       <use xlink:href="#DejaVuSans-49"/>
       <use x="63.623047" xlink:href="#DejaVuSans-46"/>
       <use x="95.410156" xlink:href="#DejaVuSans-48"/>
      </g>
     </g>
    </g>
    <g id="text_22">
     <!-- Normalized Frequency ($\times \pi$ rad/sample) -->
     <defs>
      <path d="M 9.8125 72.90625 
L 23.09375 72.90625 
L 55.421875 11.921875 
L 55.421875 72.90625 
L 64.984375 72.90625 
L 64.984375 0 
L 51.703125 0 
L 19.390625 60.984375 
L 19.390625 0 
L 9.8125 0 
z
" id="DejaVuSans-78"/>
      <path d="M 30.609375 48.390625 
Q 23.390625 48.390625 19.1875 42.75 
Q 14.984375 37.109375 14.984375 27.296875 
Q 14.984375 17.484375 19.15625 11.84375 
Q 23.34375 6.203125 30.609375 6.203125 
Q 37.796875 6.203125 41.984375 11.859375 
Q 46.1875 17.53125 46.1875 27.296875 
Q 46.1875 37.015625 41.984375 42.703125 
Q 37.796875 48.390625 30.609375 48.390625 
z
M 30.609375 56 
Q 42.328125 56 49.015625 48.375 
Q 55.71875 40.765625 55.71875 27.296875 
Q 55.71875 13.875 49.015625 6.21875 
Q 42.328125 -1.421875 30.609375 -1.421875 
Q 18.84375 -1.421875 12.171875 6.21875 
Q 5.515625 13.875 5.515625 27.296875 
Q 5.515625 40.765625 12.171875 48.375 
Q 18.84375 56 30.609375 56 
z
" id="DejaVuSans-111"/>
      <path d="M 41.109375 46.296875 
Q 39.59375 47.171875 37.8125 47.578125 
Q 36.03125 48 33.890625 48 
Q 26.265625 48 22.1875 43.046875 
Q 18.109375 38.09375 18.109375 28.8125 
L 18.109375 0 
L 9.078125 0 
L 9.078125 54.6875 
L 18.109375 54.6875 
L 18.109375 46.1875 
Q 20.953125 51.171875 25.484375 53.578125 
Q 30.03125 56 36.53125 56 
Q 37.453125 56 38.578125 55.875 
Q 39.703125 55.765625 41.0625 55.515625 
z
" id="DejaVuSans-114"/>
      <path d="M 5.515625 54.6875 
L 48.1875 54.6875 
L 48.1875 46.484375 
L 14.40625 7.171875 
L 48.1875 7.171875 
L 48.1875 0 
L 4.296875 0 
L 4.296875 8.203125 
L 38.09375 47.515625 
L 5.515625 47.515625 
z
" id="DejaVuSans-122"/>
      <path id="DejaVuSans-32"/>
      <path d="M 9.8125 72.90625 
L 51.703125 72.90625 
L 51.703125 64.59375 
L 19.671875 64.59375 
L 19.671875 43.109375 
L 48.578125 43.109375 
L 48.578125 34.8125 
L 19.671875 34.8125 
L 19.671875 0 
L 9.8125 0 
z
" id="DejaVuSans-70"/>
      <path d="M 14.796875 27.296875 
Q 14.796875 17.390625 18.875 11.75 
Q 22.953125 6.109375 30.078125 6.109375 
Q 37.203125 6.109375 41.296875 11.75 
Q 45.40625 17.390625 45.40625 27.296875 
Q 45.40625 37.203125 41.296875 42.84375 
Q 37.203125 48.484375 30.078125 48.484375 
Q 22.953125 48.484375 18.875 42.84375 
Q 14.796875 37.203125 14.796875 27.296875 
z
M 45.40625 8.203125 
Q 42.578125 3.328125 38.25 0.953125 
Q 33.9375 -1.421875 27.875 -1.421875 
Q 17.96875 -1.421875 11.734375 6.484375 
Q 5.515625 14.40625 5.515625 27.296875 
Q 5.515625 40.1875 11.734375 48.09375 
Q 17.96875 56 27.875 56 
Q 33.9375 56 38.25 53.625 
Q 42.578125 51.265625 45.40625 46.390625 
L 45.40625 54.6875 
L 54.390625 54.6875 
L 54.390625 -20.796875 
L 45.40625 -20.796875 
z
" id="DejaVuSans-113"/>
      <path d="M 54.890625 33.015625 
L 54.890625 0 
L 45.90625 0 
L 45.90625 32.71875 
Q 45.90625 40.484375 42.875 44.328125 
Q 39.84375 48.1875 33.796875 48.1875 
Q 26.515625 48.1875 22.3125 43.546875 
Q 18.109375 38.921875 18.109375 30.90625 
L 18.109375 0 
L 9.078125 0 
L 9.078125 54.6875 
L 18.109375 54.6875 
L 18.109375 46.1875 
Q 21.34375 51.125 25.703125 53.5625 
Q 30.078125 56 35.796875 56 
Q 45.21875 56 50.046875 50.171875 
Q 54.890625 44.34375 54.890625 33.015625 
z
" id="DejaVuSans-110"/>
      <path d="M 48.78125 52.59375 
L 48.78125 44.1875 
Q 44.96875 46.296875 41.140625 47.34375 
Q 37.3125 48.390625 33.40625 48.390625 
Q 24.65625 48.390625 19.8125 42.84375 
Q 14.984375 37.3125 14.984375 27.296875 
Q 14.984375 17.28125 19.8125 11.734375 
Q 24.65625 6.203125 33.40625 6.203125 
Q 37.3125 6.203125 41.140625 7.25 
Q 44.96875 8.296875 48.78125 10.40625 
L 48.78125 2.09375 
Q 45.015625 0.34375 40.984375 -0.53125 
Q 36.96875 -1.421875 32.421875 -1.421875 
Q 20.0625 -1.421875 12.78125 6.34375 
Q 5.515625 14.109375 5.515625 27.296875 
Q 5.515625 40.671875 12.859375 48.328125 
Q 20.21875 56 33.015625 56 
Q 37.15625 56 41.109375 55.140625 
Q 45.0625 54.296875 48.78125 52.59375 
z
" id="DejaVuSans-99"/>
      <path d="M 32.171875 -5.078125 
Q 28.375 -14.84375 24.75 -17.8125 
Q 21.140625 -20.796875 15.09375 -20.796875 
L 7.90625 -20.796875 
L 7.90625 -13.28125 
L 13.1875 -13.28125 
Q 16.890625 -13.28125 18.9375 -11.515625 
Q 21 -9.765625 23.484375 -3.21875 
L 25.09375 0.875 
L 2.984375 54.6875 
L 12.5 54.6875 
L 29.59375 11.921875 
L 46.6875 54.6875 
L 56.203125 54.6875 
z
" id="DejaVuSans-121"/>
      <path d="M 31 75.875 
Q 24.46875 64.65625 21.28125 53.65625 
Q 18.109375 42.671875 18.109375 31.390625 
Q 18.109375 20.125 21.3125 9.0625 
Q 24.515625 -2 31 -13.1875 
L 23.1875 -13.1875 
Q 15.875 -1.703125 12.234375 9.375 
Q 8.59375 20.453125 8.59375 31.390625 
Q 8.59375 42.28125 12.203125 53.3125 
Q 15.828125 64.359375 23.1875 75.875 
z
" id="DejaVuSans-40"/>
      <path d="M 70.125 53.71875 
L 47.796875 31.296875 
L 70.125 8.984375 
L 64.3125 3.078125 
L 41.890625 25.484375 
L 19.484375 3.078125 
L 13.71875 8.984375 
L 35.984375 31.296875 
L 13.71875 53.71875 
L 19.484375 59.625 
L 41.890625 37.203125 
L 64.3125 59.625 
z
" id="DejaVuSans-215"/>
      <path d="M 9.125 54.6875 
L 61.53125 54.6875 
L 59.765625 45.703125 
L 52.875 45.703125 
L 46.34375 12.109375 
Q 45.65625 8.59375 46.578125 7.03125 
Q 47.46875 5.515625 50.140625 5.515625 
Q 50.875 5.515625 51.953125 5.671875 
Q 53.078125 5.765625 53.421875 5.8125 
L 52.15625 -0.6875 
Q 50.34375 -1.3125 48.484375 -1.609375 
Q 46.578125 -1.90625 44.78125 -1.90625 
Q 38.921875 -1.90625 37.3125 1.265625 
Q 35.6875 4.5 37.359375 13.09375 
L 43.703125 45.703125 
L 23.53125 45.703125 
L 14.65625 0 
L 5.46875 0 
L 14.359375 45.703125 
L 7.375 45.703125 
z
" id="DejaVuSans-Oblique-960"/>
      <path d="M 25.390625 72.90625 
L 33.6875 72.90625 
L 8.296875 -9.28125 
L 0 -9.28125 
z
" id="DejaVuSans-47"/>
      <path d="M 8.015625 75.875 
L 15.828125 75.875 
Q 23.140625 64.359375 26.78125 53.3125 
Q 30.421875 42.28125 30.421875 31.390625 
Q 30.421875 20.453125 26.78125 9.375 
Q 23.140625 -1.703125 15.828125 -13.1875 
L 8.015625 -13.1875 
Q 14.5 -2 17.703125 9.0625 
Q 20.90625 20.125 20.90625 31.390625 
Q 20.90625 42.671875 17.703125 53.65625 
Q 14.5 64.65625 8.015625 75.875 
z
" id="DejaVuSans-41"/>
     </defs>
     <g transform="translate(561.93375 416.878125)scale(0.1 -0.1)">
      <use transform="translate(0 0.015625)" xlink:href="#DejaVuSans-78"/>
      <use transform="translate(74.804688 0.015625)" xlink:href="#DejaVuSans-111"/>
      <use transform="translate(135.986328 0.015625)" xlink:href="#DejaVuSans-114"/>
      <use transform="translate(177.099609 0.015625)" xlink:href="#DejaVuSans-109"/>
      <use transform="translate(274.511719 0.015625)" xlink:href="#DejaVuSans-97"/>
      <use transform="translate(335.791016 0.015625)" xlink:href="#DejaVuSans-108"/>
      <use transform="translate(363.574219 0.015625)" xlink:href="#DejaVuSans-105"/>
      <use transform="translate(391.357422 0.015625)" xlink:href="#DejaVuSans-122"/>
      <use transform="translate(443.847656 0.015625)" xlink:href="#DejaVuSans-101"/>
      <use transform="translate(505.371094 0.015625)" xlink:href="#DejaVuSans-100"/>
      <use transform="translate(568.847656 0.015625)" xlink:href="#DejaVuSans-32"/>
      <use transform="translate(600.634766 0.015625)" xlink:href="#DejaVuSans-70"/>
      <use transform="translate(658.154297 0.015625)" xlink:href="#DejaVuSans-114"/>
      <use transform="translate(699.267578 0.015625)" xlink:href="#DejaVuSans-101"/>
      <use transform="translate(760.791016 0.015625)" xlink:href="#DejaVuSans-113"/>
      <use transform="translate(824.267578 0.015625)" xlink:href="#DejaVuSans-117"/>
      <use transform="translate(887.646484 0.015625)" xlink:href="#DejaVuSans-101"/>
      <use transform="translate(949.169922 0.015625)" xlink:href="#DejaVuSans-110"/>
      <use transform="translate(1012.548828 0.015625)" xlink:href="#DejaVuSans-99"/>
      <use transform="translate(1067.529297 0.015625)" xlink:href="#DejaVuSans-121"/>
      <use transform="translate(1126.708984 0.015625)" xlink:href="#DejaVuSans-32"/>
      <use transform="translate(1158.496094 0.015625)" xlink:href="#DejaVuSans-40"/>
      <use transform="translate(1197.509766 0.015625)" xlink:href="#DejaVuSans-215"/>
      <use transform="translate(1281.298828 0.015625)" xlink:href="#DejaVuSans-Oblique-960"/>
      <use transform="translate(1341.503906 0.015625)" xlink:href="#DejaVuSans-32"/>
      <use transform="translate(1373.291016 0.015625)" xlink:href="#DejaVuSans-114"/>
      <use transform="translate(1414.404297 0.015625)" xlink:href="#DejaVuSans-97"/>
      <use transform="translate(1475.683594 0.015625)" xlink:href="#DejaVuSans-100"/>
      <use transform="translate(1539.160156 0.015625)" xlink:href="#DejaVuSans-47"/>
      <use transform="translate(1572.851562 0.015625)" xlink:href="#DejaVuSans-115"/>
      <use transform="translate(1624.951172 0.015625)" xlink:href="#DejaVuSans-97"/>
      <use transform="translate(1686.230469 0.015625)" xlink:href="#DejaVuSans-109"/>
      <use transform="translate(1783.642578 0.015625)" xlink:href="#DejaVuSans-112"/>
      <use transform="translate(1847.119141 0.015625)" xlink:href="#DejaVuSans-108"/>
      <use transform="translate(1874.902344 0.015625)" xlink:href="#DejaVuSans-101"/>
      <use transform="translate(1936.425781 0.015625)" xlink:href="#DejaVuSans-41"/>
     </g>
    </g>
   </g>
   <g id="matplotlib.axis_4">
    <g id="ytick_7">
     <g id="line2d_40">
      <path clip-path="url(#p9bfbf75de8)" d="M 476.2325 348.589657 
L 845.235 348.589657 
" style="fill:none;stroke:#777777;stroke-linecap:square;stroke-width:0.8;"/>
     </g>
     <g id="line2d_41">
      <g>
       <use style="stroke:#000000;stroke-width:0.8;" x="476.2325" xlink:href="#mba8e81eeee" y="348.589657"/>
      </g>
     </g>
     <g id="text_23">
      <!-- −150 -->
      <defs>
       <path d="M 10.59375 35.5 
L 73.1875 35.5 
L 73.1875 27.203125 
L 10.59375 27.203125 
z
" id="DejaVuSans-8722"/>
      </defs>
      <g transform="translate(441.765312 352.388876)scale(0.1 -0.1)">
       <use xlink:href="#DejaVuSans-8722"/>
       <use x="83.789062" xlink:href="#DejaVuSans-49"/>
       <use x="147.412109" xlink:href="#DejaVuSans-53"/>
       <use x="211.035156" xlink:href="#DejaVuSans-48"/>
      </g>
     </g>
    </g>
    <g id="ytick_8">
     <g id="line2d_42">
      <path clip-path="url(#p9bfbf75de8)" d="M 476.2325 307.067292 
L 845.235 307.067292 
" style="fill:none;stroke:#777777;stroke-linecap:square;stroke-width:0.8;"/>
     </g>
     <g id="line2d_43">
      <g>
       <use style="stroke:#000000;stroke-width:0.8;" x="476.2325" xlink:href="#mba8e81eeee" y="307.067292"/>
      </g>
     </g>
     <g id="text_24">
      <!-- −125 -->
      <g transform="translate(441.765312 310.866511)scale(0.1 -0.1)">
       <use xlink:href="#DejaVuSans-8722"/>
       <use x="83.789062" xlink:href="#DejaVuSans-49"/>
       <use x="147.412109" xlink:href="#DejaVuSans-50"/>
       <use x="211.035156" xlink:href="#DejaVuSans-53"/>
      </g>
     </g>
    </g>
    <g id="ytick_9">
     <g id="line2d_44">
      <path clip-path="url(#p9bfbf75de8)" d="M 476.2325 265.544927 
L 845.235 265.544927 
" style="fill:none;stroke:#777777;stroke-linecap:square;stroke-width:0.8;"/>
     </g>
     <g id="line2d_45">
      <g>
       <use style="stroke:#000000;stroke-width:0.8;" x="476.2325" xlink:href="#mba8e81eeee" y="265.544927"/>
      </g>
     </g>
     <g id="text_25">
      <!-- −100 -->
      <g transform="translate(441.765312 269.344146)scale(0.1 -0.1)">
       <use xlink:href="#DejaVuSans-8722"/>
       <use x="83.789062" xlink:href="#DejaVuSans-49"/>
       <use x="147.412109" xlink:href="#DejaVuSans-48"/>
       <use x="211.035156" xlink:href="#DejaVuSans-48"/>
      </g>
     </g>
    </g>
    <g id="ytick_10">
     <g id="line2d_46">
      <path clip-path="url(#p9bfbf75de8)" d="M 476.2325 224.022562 
L 845.235 224.022562 
" style="fill:none;stroke:#777777;stroke-linecap:square;stroke-width:0.8;"/>
     </g>
     <g id="line2d_47">
      <g>
       <use style="stroke:#000000;stroke-width:0.8;" x="476.2325" xlink:href="#mba8e81eeee" y="224.022562"/>
      </g>
     </g>
     <g id="text_26">
      <!-- −75 -->
      <defs>
       <path d="M 8.203125 72.90625 
L 55.078125 72.90625 
L 55.078125 68.703125 
L 28.609375 0 
L 18.3125 0 
L 43.21875 64.59375 
L 8.203125 64.59375 
z
" id="DejaVuSans-55"/>
      </defs>
      <g transform="translate(448.127812 227.821781)scale(0.1 -0.1)">
       <use xlink:href="#DejaVuSans-8722"/>
       <use x="83.789062" xlink:href="#DejaVuSans-55"/>
       <use x="147.412109" xlink:href="#DejaVuSans-53"/>
      </g>
     </g>
    </g>
    <g id="ytick_11">
     <g id="line2d_48">
      <path clip-path="url(#p9bfbf75de8)" d="M 476.2325 182.500198 
L 845.235 182.500198 
" style="fill:none;stroke:#777777;stroke-linecap:square;stroke-width:0.8;"/>
     </g>
     <g id="line2d_49">
      <g>
       <use style="stroke:#000000;stroke-width:0.8;" x="476.2325" xlink:href="#mba8e81eeee" y="182.500198"/>
      </g>
     </g>
     <g id="text_27">
      <!-- −50 -->
      <g transform="translate(448.127812 186.299416)scale(0.1 -0.1)">
       <use xlink:href="#DejaVuSans-8722"/>
       <use x="83.789062" xlink:href="#DejaVuSans-53"/>
       <use x="147.412109" xlink:href="#DejaVuSans-48"/>
      </g>
     </g>
    </g>
    <g id="ytick_12">
     <g id="line2d_50">
      <path clip-path="url(#p9bfbf75de8)" d="M 476.2325 140.977833 
L 845.235 140.977833 
" style="fill:none;stroke:#777777;stroke-linecap:square;stroke-width:0.8;"/>
     </g>
     <g id="line2d_51">
      <g>
       <use style="stroke:#000000;stroke-width:0.8;" x="476.2325" xlink:href="#mba8e81eeee" y="140.977833"/>
      </g>
     </g>
     <g id="text_28">
      <!-- −25 -->
      <g transform="translate(448.127812 144.777051)scale(0.1 -0.1)">
       <use xlink:href="#DejaVuSans-8722"/>
       <use x="83.789062" xlink:href="#DejaVuSans-50"/>
       <use x="147.412109" xlink:href="#DejaVuSans-53"/>
      </g>
     </g>
    </g>
    <g id="ytick_13">
     <g id="line2d_52">
      <path clip-path="url(#p9bfbf75de8)" d="M 476.2325 99.455468 
L 845.235 99.455468 
" style="fill:none;stroke:#777777;stroke-linecap:square;stroke-width:0.8;"/>
     </g>
     <g id="line2d_53">
      <g>
       <use style="stroke:#000000;stroke-width:0.8;" x="476.2325" xlink:href="#mba8e81eeee" y="99.455468"/>
      </g>
     </g>
     <g id="text_29">
      <!-- 0 -->
      <g transform="translate(462.87 103.254686)scale(0.1 -0.1)">
       <use xlink:href="#DejaVuSans-48"/>
      </g>
     </g>
    </g>
    <g id="ytick_14">
     <g id="line2d_54">
      <path clip-path="url(#p9bfbf75de8)" d="M 476.2325 57.933103 
L 845.235 57.933103 
" style="fill:none;stroke:#777777;stroke-linecap:square;stroke-width:0.8;"/>
     </g>
     <g id="line2d_55">
      <g>
       <use style="stroke:#000000;stroke-width:0.8;" x="476.2325" xlink:href="#mba8e81eeee" y="57.933103"/>
      </g>
     </g>
     <g id="text_30">
      <!-- 25 -->
      <g transform="translate(456.5075 61.732322)scale(0.1 -0.1)">
       <use xlink:href="#DejaVuSans-50"/>
       <use x="63.623047" xlink:href="#DejaVuSans-53"/>
      </g>
     </g>
    </g>
    <g id="text_31">
     <!-- Gain (dB) -->
     <defs>
      <path d="M 59.515625 10.40625 
L 59.515625 29.984375 
L 43.40625 29.984375 
L 43.40625 38.09375 
L 69.28125 38.09375 
L 69.28125 6.78125 
Q 63.578125 2.734375 56.6875 0.65625 
Q 49.8125 -1.421875 42 -1.421875 
Q 24.90625 -1.421875 15.25 8.5625 
Q 5.609375 18.5625 5.609375 36.375 
Q 5.609375 54.25 15.25 64.234375 
Q 24.90625 74.21875 42 74.21875 
Q 49.125 74.21875 55.546875 72.453125 
Q 61.96875 70.703125 67.390625 67.28125 
L 67.390625 56.78125 
Q 61.921875 61.421875 55.765625 63.765625 
Q 49.609375 66.109375 42.828125 66.109375 
Q 29.4375 66.109375 22.71875 58.640625 
Q 16.015625 51.171875 16.015625 36.375 
Q 16.015625 21.625 22.71875 14.15625 
Q 29.4375 6.6875 42.828125 6.6875 
Q 48.046875 6.6875 52.140625 7.59375 
Q 56.25 8.5 59.515625 10.40625 
z
" id="DejaVuSans-71"/>
      <path d="M 19.671875 34.8125 
L 19.671875 8.109375 
L 35.5 8.109375 
Q 43.453125 8.109375 47.28125 11.40625 
Q 51.125 14.703125 51.125 21.484375 
Q 51.125 28.328125 47.28125 31.5625 
Q 43.453125 34.8125 35.5 34.8125 
z
M 19.671875 64.796875 
L 19.671875 42.828125 
L 34.28125 42.828125 
Q 41.5 42.828125 45.03125 45.53125 
Q 48.578125 48.25 48.578125 53.8125 
Q 48.578125 59.328125 45.03125 62.0625 
Q 41.5 64.796875 34.28125 64.796875 
z
M 9.8125 72.90625 
L 35.015625 72.90625 
Q 46.296875 72.90625 52.390625 68.21875 
Q 58.5 63.53125 58.5 54.890625 
Q 58.5 48.1875 55.375 44.234375 
Q 52.25 40.28125 46.1875 39.3125 
Q 53.46875 37.75 57.5 32.78125 
Q 61.53125 27.828125 61.53125 20.40625 
Q 61.53125 10.640625 54.890625 5.3125 
Q 48.25 0 35.984375 0 
L 9.8125 0 
z
" id="DejaVuSans-66"/>
     </defs>
     <g transform="translate(435.685625 236.251406)rotate(-90)scale(0.1 -0.1)">
      <use xlink:href="#DejaVuSans-71"/>
      <use x="77.490234" xlink:href="#DejaVuSans-97"/>
      <use x="138.769531" xlink:href="#DejaVuSans-105"/>
      <use x="166.552734" xlink:href="#DejaVuSans-110"/>
      <use x="229.931641" xlink:href="#DejaVuSans-32"/>
      <use x="261.71875" xlink:href="#DejaVuSans-40"/>
      <use x="300.732422" xlink:href="#DejaVuSans-100"/>
      <use x="364.208984" xlink:href="#DejaVuSans-66"/>
      <use x="432.8125" xlink:href="#DejaVuSans-41"/>
     </g>
    </g>
   </g>
   <g id="line2d_56">
    <path clip-path="url(#p9bfbf75de8)" d="M 476.2325 52.714545 
L 477.673916 52.816685 
L 479.115332 53.123689 
L 480.556748 53.637332 
L 481.998164 54.36063 
L 483.43958 55.297938 
L 484.880996 56.455088 
L 486.322412 57.839597 
L 487.763828 59.460935 
L 489.205244 61.330903 
L 490.64666 63.464148 
L 492.088076 65.878867 
L 493.529492 68.597788 
L 494.970908 71.649583 
L 496.412324 75.070913 
L 497.85374 78.909525 
L 499.295156 83.229084 
L 500.736572 88.117074 
L 502.177988 93.698475 
L 503.619404 100.161126 
L 505.06082 107.807417 
L 506.502236 117.173918 
L 507.222944 122.805222 
L 507.943652 129.366151 
L 508.66436 137.276874 
L 509.385068 147.352038 
L 510.105776 161.534233 
L 510.826484 187.002217 
L 511.547192 222.09514 
L 512.2679 175.672558 
L 512.988608 160.015186 
L 513.709316 150.848271 
L 514.430024 144.63708 
L 515.150732 140.144565 
L 515.87144 136.791945 
L 516.592148 134.262411 
L 517.312856 132.364558 
L 518.033564 130.974784 
L 518.754272 130.009544 
L 519.47498 129.410645 
L 520.195688 129.136904 
L 520.916396 129.159166 
L 521.637104 129.457235 
L 522.357812 130.017958 
L 523.078521 130.834067 
L 523.799229 131.903557 
L 524.519937 133.229488 
L 525.240645 134.820171 
L 526.682061 138.859553 
L 528.123477 144.231855 
L 529.564893 151.354017 
L 530.285601 155.811364 
L 531.006309 161.097645 
L 531.727017 167.526195 
L 532.447725 175.666478 
L 533.168433 186.728 
L 533.889141 204.134234 
L 534.609849 251.182517 
L 535.330557 221.705811 
L 536.051265 197.457669 
L 536.771973 185.190053 
L 537.492681 177.178349 
L 538.213389 171.406442 
L 538.934097 167.040536 
L 539.654805 163.654979 
L 540.375513 161.003715 
L 541.096221 158.932426 
L 541.816929 157.338767 
L 542.537637 156.152219 
L 543.258345 155.32303 
L 543.979053 154.815754 
L 544.699761 154.605333 
L 545.420469 154.674656 
L 546.141177 155.01305 
L 546.861885 155.615396 
L 547.582593 156.481728 
L 548.303301 157.617217 
L 549.024009 159.032567 
L 549.744717 160.744872 
L 550.465425 162.779092 
L 551.186133 165.170446 
L 551.906841 167.968262 
L 552.627549 171.242293 
L 553.348257 175.093544 
L 554.068965 179.673933 
L 554.789673 185.225009 
L 555.510381 192.163252 
L 556.231089 201.301197 
L 556.951797 214.594426 
L 557.672505 239.556006 
L 558.393213 294.32783 
L 559.113921 227.100684 
L 559.834629 210.263272 
L 560.555337 200.235415 
L 561.276045 193.252397 
L 561.996753 188.034909 
L 562.717461 183.990343 
L 563.438169 180.795668 
L 564.158877 178.255996 
L 564.879585 176.245452 
L 565.600293 174.678822 
L 566.321001 173.4966 
L 567.041709 172.656506 
L 567.762417 172.128437 
L 568.483125 171.891354 
L 569.203833 171.931348 
L 569.924541 172.240457 
L 570.645249 172.816041 
L 571.365957 173.660563 
L 572.086665 174.781785 
L 572.807373 176.193374 
L 573.528081 177.916049 
L 574.248789 179.979471 
L 574.969497 182.42529 
L 575.690205 185.312077 
L 576.410913 188.723609 
L 577.131621 192.783468 
L 577.852329 197.682678 
L 578.573037 203.737338 
L 579.293745 211.52658 
L 580.014453 222.301794 
L 580.735161 239.79733 
L 581.455869 299.768875 
L 582.176577 260.067641 
L 582.897285 232.385712 
L 583.617993 219.383442 
L 584.338701 210.910648 
L 585.059409 204.756815 
L 585.780117 200.043922 
L 586.500825 196.33128 
L 587.221533 193.36639 
L 587.942241 190.991709 
L 588.662949 189.10307 
L 589.383657 187.628831 
L 590.104365 186.518488 
L 590.825073 185.736061 
L 591.545781 185.256091 
L 592.266489 185.061154 
L 592.987197 185.140322 
L 593.707905 185.488272 
L 594.428613 186.104866 
L 595.149321 186.99514 
L 595.870029 188.169702 
L 596.590737 189.645593 
L 597.311445 191.447789 
L 598.032153 193.611632 
L 598.752861 196.186756 
L 599.473569 199.243563 
L 600.194277 202.884403 
L 600.914985 207.264075 
L 601.635693 212.630835 
L 602.356401 219.419045 
L 603.077109 228.500629 
L 603.797817 242.125972 
L 604.518525 272.345363 
L 605.239233 279.908855 
L 605.959941 256.285921 
L 606.680649 237.196948 
L 607.401357 226.52981 
L 608.122065 219.18471 
L 608.842773 213.695547 
L 609.563481 209.419233 
L 610.284189 206.014161 
L 611.004897 203.277197 
L 611.725605 201.078299 
L 612.446313 199.329944 
L 613.167021 197.971246 
L 613.887729 196.959052 
L 614.608437 196.262688 
L 615.329146 195.860726 
L 616.049854 195.738991 
L 616.770562 195.889349 
L 617.49127 196.309053 
L 618.211978 197.000535 
L 618.932686 197.971594 
L 619.653394 199.23603 
L 620.374102 200.814829 
L 621.09481 202.738125 
L 621.815518 205.048386 
L 622.536226 207.805622 
L 623.256934 211.096233 
L 623.977642 215.04888 
L 624.69835 219.865325 
L 625.419058 225.887358 
L 626.139766 233.768229 
L 626.860474 245.052241 
L 627.581182 265.841503 
L 628.30189 278.332429 
L 629.022598 301.417004 
L 629.743306 256.598138 
L 630.464014 241.612169 
L 631.184722 232.48217 
L 631.90543 225.974712 
L 632.626138 221.018367 
L 633.346846 217.113004 
L 634.067554 213.982623 
L 634.788262 211.458784 
L 635.50897 209.431677 
L 636.229678 207.826491 
L 636.950386 206.590829 
L 637.671094 205.687537 
L 638.391802 205.090405 
L 639.11251 204.781532 
L 639.833218 204.749707 
L 640.553926 204.989468 
L 641.274634 205.500669 
L 641.995342 206.28848 
L 642.71605 207.363802 
L 643.436758 208.744204 
L 644.157466 210.455531 
L 644.878174 212.534551 
L 645.598882 215.033283 
L 646.31959 218.02629 
L 647.040298 221.623588 
L 647.761006 225.99531 
L 648.481714 231.423965 
L 649.202422 238.433904 
L 649.92313 248.204725 
L 650.643838 264.79686 
L 651.364546 286.431007 
L 652.085254 274.474742 
L 652.805962 297.768796 
L 653.52667 258.473234 
L 654.247378 245.766651 
L 654.968086 237.673866 
L 655.688794 231.788672 
L 656.409502 227.254898 
L 657.13021 223.659089 
L 657.850918 220.768022 
L 658.571626 218.437158 
L 659.292334 216.571269 
L 660.013042 215.10507 
L 660.73375 213.992769 
L 661.454458 213.202056 
L 662.175166 212.710487 
L 662.895874 212.503282 
L 663.616582 212.571998 
L 664.33729 212.913836 
L 665.057998 213.531414 
L 665.778706 214.433 
L 666.499414 215.633228 
L 667.220122 217.154448 
L 667.94083 219.028995 
L 668.661538 221.302937 
L 669.382246 224.042387 
L 670.102954 227.34466 
L 670.823662 231.359425 
L 671.54437 236.333197 
L 672.265078 242.718175 
L 672.985786 251.511855 
L 673.706494 265.963905 
L 674.427202 296.384905 
L 675.14791 272.732026 
L 675.868618 275.403696 
L 676.589326 291.825604 
L 677.310034 261.278583 
L 678.030742 249.809154 
L 678.75145 242.387589 
L 679.472158 236.946803 
L 680.192866 232.736282 
L 680.913574 229.390272 
L 681.634282 226.701153 
L 682.35499 224.539674 
L 683.075698 222.820467 
L 683.796406 221.485033 
L 684.517114 220.492531 
L 685.237822 219.814487 
L 685.95853 219.431633 
L 686.679238 219.332007 
L 687.399946 219.509882 
L 688.120654 219.965281 
L 688.841362 220.704001 
L 689.56207 221.738144 
L 690.282778 223.087276 
L 691.003486 224.780451 
L 691.724194 226.859638 
L 692.444902 229.385529 
L 693.16561 232.447884 
L 693.886318 236.185253 
L 694.607026 240.826713 
L 695.327734 246.794729 
L 696.048442 255.028559 
L 696.76915 268.613713 
L 697.489858 299.949039 
L 698.210566 272.692318 
L 698.931274 269.919204 
L 699.651982 275.86464 
L 700.37269 296.639729 
L 701.093398 264.969192 
L 701.814106 253.915194 
L 702.534814 246.841716 
L 703.255522 241.677336 
L 703.97623 237.691035 
L 704.696938 234.532255 
L 705.417646 232.004009 
L 706.138354 229.98456 
L 706.859062 228.39404 
L 707.579771 227.178156 
L 708.300479 226.299465 
L 709.021187 225.732412 
L 709.741895 225.46042 
L 710.462603 225.474201 
L 711.183311 225.7709 
L 711.904019 226.353853 
L 712.624727 227.232936 
L 713.345435 228.425581 
L 714.066143 229.958689 
L 714.786851 231.871956 
L 715.507559 234.223652 
L 716.228267 237.101047 
L 716.948975 240.640657 
L 717.669683 245.072004 
L 718.390391 250.828531 
L 719.111099 258.911073 
L 719.831807 272.877691 
L 720.552515 293.421068 
L 721.273223 272.077881 
L 721.993931 267.689727 
L 722.714639 268.35187 
L 723.435347 274.710489 
L 724.156055 372.605455 
L 724.876763 269.946629 
L 725.597471 258.330595 
L 726.318179 251.243178 
L 727.038887 246.167823 
L 727.759595 242.29399 
L 728.480303 239.25058 
L 729.201011 236.835078 
L 729.921719 234.924927 
L 730.642427 233.4411 
L 731.363135 232.330789 
L 732.083843 231.558352 
L 732.804551 231.100285 
L 733.525259 230.942356 
L 734.245967 231.078069 
L 734.966675 231.508011 
L 735.687383 232.239973 
L 736.408091 233.289846 
L 737.128799 234.68354 
L 737.849507 236.460489 
L 738.570215 238.679902 
L 739.290923 241.432374 
L 740.011631 244.8631 
L 740.732339 249.224018 
L 741.453047 255.013257 
L 742.173755 263.474277 
L 742.894463 279.993064 
L 743.615171 284.90076 
L 744.335879 270.413816 
L 745.056587 265.871093 
L 745.777295 264.850897 
L 746.498003 266.573216 
L 747.218711 272.141283 
L 747.939419 291.039708 
L 749.380835 263.480086 
L 750.101543 255.841233 
L 750.822251 250.602383 
L 751.542959 246.696478 
L 752.263667 243.677206 
L 752.984375 241.313895 
L 753.705083 239.47214 
L 754.425791 238.067835 
L 755.146499 237.046339 
L 755.867207 236.37199 
L 756.587915 236.022483 
L 757.308623 235.98585 
L 758.029331 236.259003 
L 758.750039 236.847429 
L 759.470747 237.765943 
L 760.191455 239.040746 
L 760.912163 240.713435 
L 761.632871 242.848482 
L 762.353579 245.547669 
L 763.074287 248.980307 
L 763.794995 253.455349 
L 764.515703 259.632734 
L 765.236411 269.417843 
L 765.957119 297.284391 
L 766.677827 277.607688 
L 767.398535 267.874409 
L 768.119243 263.786762 
L 768.839951 262.180587 
L 769.560659 262.342599 
L 770.281367 264.284874 
L 771.002075 268.76437 
L 771.722783 279.180255 
L 772.443491 295.578569 
L 773.164199 270.317442 
L 773.884907 261.024017 
L 774.605615 255.204327 
L 775.326323 251.051101 
L 776.047031 247.927982 
L 776.767739 245.535243 
L 777.488447 243.708593 
L 778.209155 242.349872 
L 778.929863 241.39791 
L 779.650571 240.814681 
L 780.371279 240.578289 
L 781.091987 240.67949 
L 781.812695 241.120382 
L 782.533403 241.914818 
L 783.254111 243.090699 
L 783.974819 244.694992 
L 784.695527 246.803685 
L 785.416235 249.542068 
L 786.136943 253.130129 
L 786.857651 258.001642 
L 787.578359 265.211629 
L 789.019775 291.108471 
L 789.740483 271.560954 
L 790.461191 264.790219 
L 791.181899 261.305772 
L 791.902607 259.559817 
L 792.623315 259.061701 
L 793.344023 259.681517 
L 794.064731 261.527733 
L 794.785439 265.047262 
L 795.506147 271.625583 
L 796.226855 288.772121 
L 796.947563 282.21421 
L 797.668271 267.590996 
L 798.388979 260.3146 
L 799.109687 255.541887 
L 799.830396 252.116823 
L 800.551104 249.577487 
L 801.271812 247.694166 
L 801.99252 246.338717 
L 802.713228 245.435842 
L 803.433936 244.941845 
L 804.154644 244.834701 
L 804.875352 245.109739 
L 805.59606 245.778875 
L 806.316768 246.873065 
L 807.037476 248.449123 
L 807.758184 250.604466 
L 808.478892 253.509586 
L 809.1996 257.48821 
L 809.920308 263.261479 
L 810.641016 273.054865 
L 811.361724 313.297756 
L 812.082432 276.076115 
L 812.80314 266.39063 
L 813.523848 261.418403 
L 814.244556 258.468636 
L 814.965264 256.753615 
L 815.685972 255.959089 
L 816.40668 255.961113 
L 817.127388 256.748586 
L 817.848096 258.416991 
L 818.568804 261.224739 
L 819.289512 265.801767 
L 820.01022 274.079771 
L 820.730928 302.099721 
L 821.451636 278.013525 
L 822.172344 266.603717 
L 822.893052 260.438388 
L 823.61376 256.370974 
L 824.334468 253.506834 
L 825.055176 251.468093 
L 825.775884 250.064562 
L 826.496592 249.193243 
L 827.2173 248.799861 
L 827.938008 248.862844 
L 828.658716 249.387814 
L 829.379424 250.409179 
L 830.100132 251.999793 
L 830.82084 254.295126 
L 831.541548 257.552638 
L 832.262256 262.321249 
L 832.982964 270.103219 
L 833.703672 289.138063 
L 834.42438 281.398895 
L 835.145088 268.12163 
L 835.865796 261.79357 
L 836.586504 257.901237 
L 837.307212 255.348261 
L 838.02792 253.704315 
L 838.748628 252.76758 
L 839.469336 252.441674 
L 840.190044 252.692863 
L 840.910752 253.537296 
L 841.63146 255.046691 
L 842.352168 257.377389 
L 843.072876 260.853046 
L 843.793584 266.228933 
L 844.514292 275.947618 
L 844.514292 275.947618 
" style="fill:none;stroke:#0072bd;stroke-linecap:square;stroke-width:1.4;"/>
   </g>
   <g id="patch_8">
    <path d="M 476.2325 388.6 
L 476.2325 36.72 
" style="fill:none;stroke:#000000;stroke-linecap:square;stroke-linejoin:miter;stroke-width:0.8;"/>
   </g>
   <g id="patch_9">
    <path d="M 845.235 388.6 
L 845.235 36.72 
" style="fill:none;stroke:#000000;stroke-linecap:square;stroke-linejoin:miter;stroke-width:0.8;"/>
   </g>
   <g id="patch_10">
    <path d="M 476.2325 388.6 
L 845.235 388.6 
" style="fill:none;stroke:#000000;stroke-linecap:square;stroke-linejoin:miter;stroke-width:0.8;"/>
   </g>
   <g id="patch_11">
    <path d="M 476.2325 36.72 
L 845.235 36.72 
" style="fill:none;stroke:#000000;stroke-linecap:square;stroke-linejoin:miter;stroke-width:0.8;"/>
   </g>
  </g>
  <g id="text_32">
   <!-- Bohman window -->
   <defs>
    <path d="M 54.890625 33.015625 
L 54.890625 0 
L 45.90625 0 
L 45.90625 32.71875 
Q 45.90625 40.484375 42.875 44.328125 
Q 39.84375 48.1875 33.796875 48.1875 
Q 26.515625 48.1875 22.3125 43.546875 
Q 18.109375 38.921875 18.109375 30.90625 
L 18.109375 0 
L 9.078125 0 
L 9.078125 75.984375 
L 18.109375 75.984375 
L 18.109375 46.1875 
Q 21.34375 51.125 25.703125 53.5625 
Q 30.078125 56 35.796875 56 
Q 45.21875 56 50.046875 50.171875 
Q 54.890625 44.34375 54.890625 33.015625 
z
" id="DejaVuSans-104"/>
    <path d="M 4.203125 54.6875 
L 13.1875 54.6875 
L 24.421875 12.015625 
L 35.59375 54.6875 
L 46.1875 54.6875 
L 57.421875 12.015625 
L 68.609375 54.6875 
L 77.59375 54.6875 
L 63.28125 0 
L 52.6875 0 
L 40.921875 44.828125 
L 29.109375 0 
L 18.5 0 
z
" id="DejaVuSans-119"/>
   </defs>
   <g transform="translate(365.8875 20.7975)scale(0.16 -0.16)">
    <use xlink:href="#DejaVuSans-66"/>
    <use x="68.603516" xlink:href="#DejaVuSans-111"/>
    <use x="129.785156" xlink:href="#DejaVuSans-104"/>
    <use x="193.164062" xlink:href="#DejaVuSans-109"/>
    <use x="290.576172" xlink:href="#DejaVuSans-97"/>
    <use x="351.855469" xlink:href="#DejaVuSans-110"/>
    <use x="415.234375" xlink:href="#DejaVuSans-32"/>
    <use x="447.021484" xlink:href="#DejaVuSans-119"/>
    <use x="528.808594" xlink:href="#DejaVuSans-105"/>
    <use x="556.591797" xlink:href="#DejaVuSans-110"/>
    <use x="619.970703" xlink:href="#DejaVuSans-100"/>
    <use x="683.447266" xlink:href="#DejaVuSans-111"/>
    <use x="744.628906" xlink:href="#DejaVuSans-119"/>
   </g>
  </g>
 </g>
 <defs>
  <clipPath id="p29883769eb">
   <rect height="351.88" width="369.0025" x="47.855" y="36.72"/>
  </clipPath>
  <clipPath id="p9bfbf75de8">
   <rect height="351.88" width="369.0025" x="476.2325" y="36.72"/>
  </clipPath>
 </defs>
</svg>
