<?xml version="1.0" encoding="utf-8" standalone="no"?>
<!DOCTYPE svg PUBLIC "-//W3C//DTD SVG 1.1//EN"
  "http://www.w3.org/Graphics/SVG/1.1/DTD/svg11.dtd">
<!-- Created with matplotlib (https://matplotlib.org/) -->
<svg height="432pt" version="1.1" viewBox="0 0 864 432" width="864pt" xmlns="http://www.w3.org/2000/svg" xmlns:xlink="http://www.w3.org/1999/xlink">
 <defs>
  <style type="text/css">
*{stroke-linecap:butt;stroke-linejoin:round;}
  </style>
 </defs>
 <g id="figure_1">
  <g id="patch_1">
   <path d="M 0 432 
L 864 432 
L 864 0 
L 0 0 
z
" style="fill:#ffffff;"/>
  </g>
  <g id="axes_1">
   <g id="patch_2">
    <path d="M 47.72 387.16 
L 418.77 387.16 
L 418.77 39.24 
L 47.72 39.24 
z
" style="fill:#ffffff;"/>
   </g>
   <g id="matplotlib.axis_1">
    <g id="xtick_1">
     <g id="line2d_1">
      <path clip-path="url(#p79177e7d8d)" d="M 47.72 387.16 
L 47.72 39.24 
" style="fill:none;stroke:#777777;stroke-linecap:square;stroke-width:0.8;"/>
     </g>
     <g id="line2d_2">
      <defs>
       <path d="M 0 0 
L 0 3.5 
" id="m84aad1aeff" style="stroke:#000000;stroke-width:0.8;"/>
      </defs>
      <g>
       <use style="stroke:#000000;stroke-width:0.8;" x="47.72" xlink:href="#m84aad1aeff" y="387.16"/>
      </g>
     </g>
     <g id="text_1">
      <!-- 0 -->
      <defs>
       <path d="M 31.78125 66.40625 
Q 24.171875 66.40625 20.328125 58.90625 
Q 16.5 51.421875 16.5 36.375 
Q 16.5 21.390625 20.328125 13.890625 
Q 24.171875 6.390625 31.78125 6.390625 
Q 39.453125 6.390625 43.28125 13.890625 
Q 47.125 21.390625 47.125 36.375 
Q 47.125 51.421875 43.28125 58.90625 
Q 39.453125 66.40625 31.78125 66.40625 
z
M 31.78125 74.21875 
Q 44.046875 74.21875 50.515625 64.515625 
Q 56.984375 54.828125 56.984375 36.375 
Q 56.984375 17.96875 50.515625 8.265625 
Q 44.046875 -1.421875 31.78125 -1.421875 
Q 19.53125 -1.421875 13.0625 8.265625 
Q 6.59375 17.96875 6.59375 36.375 
Q 6.59375 54.828125 13.0625 64.515625 
Q 19.53125 74.21875 31.78125 74.21875 
z
" id="DejaVuSans-48"/>
      </defs>
      <g transform="translate(44.53875 401.758438)scale(0.1 -0.1)">
       <use xlink:href="#DejaVuSans-48"/>
      </g>
     </g>
    </g>
    <g id="xtick_2">
     <g id="line2d_3">
      <path clip-path="url(#p79177e7d8d)" d="M 106.616825 387.16 
L 106.616825 39.24 
" style="fill:none;stroke:#777777;stroke-linecap:square;stroke-width:0.8;"/>
     </g>
     <g id="line2d_4">
      <g>
       <use style="stroke:#000000;stroke-width:0.8;" x="106.616825" xlink:href="#m84aad1aeff" y="387.16"/>
      </g>
     </g>
     <g id="text_2">
      <!-- 10 -->
      <defs>
       <path d="M 12.40625 8.296875 
L 28.515625 8.296875 
L 28.515625 63.921875 
L 10.984375 60.40625 
L 10.984375 69.390625 
L 28.421875 72.90625 
L 38.28125 72.90625 
L 38.28125 8.296875 
L 54.390625 8.296875 
L 54.390625 0 
L 12.40625 0 
z
" id="DejaVuSans-49"/>
      </defs>
      <g transform="translate(100.254325 401.758438)scale(0.1 -0.1)">
       <use xlink:href="#DejaVuSans-49"/>
       <use x="63.623047" xlink:href="#DejaVuSans-48"/>
      </g>
     </g>
    </g>
    <g id="xtick_3">
     <g id="line2d_5">
      <path clip-path="url(#p79177e7d8d)" d="M 165.513651 387.16 
L 165.513651 39.24 
" style="fill:none;stroke:#777777;stroke-linecap:square;stroke-width:0.8;"/>
     </g>
     <g id="line2d_6">
      <g>
       <use style="stroke:#000000;stroke-width:0.8;" x="165.513651" xlink:href="#m84aad1aeff" y="387.16"/>
      </g>
     </g>
     <g id="text_3">
      <!-- 20 -->
      <defs>
       <path d="M 19.1875 8.296875 
L 53.609375 8.296875 
L 53.609375 0 
L 7.328125 0 
L 7.328125 8.296875 
Q 12.9375 14.109375 22.625 23.890625 
Q 32.328125 33.6875 34.8125 36.53125 
Q 39.546875 41.84375 41.421875 45.53125 
Q 43.3125 49.21875 43.3125 52.78125 
Q 43.3125 58.59375 39.234375 62.25 
Q 35.15625 65.921875 28.609375 65.921875 
Q 23.96875 65.921875 18.8125 64.3125 
Q 13.671875 62.703125 7.8125 59.421875 
L 7.8125 69.390625 
Q 13.765625 71.78125 18.9375 73 
Q 24.125 74.21875 28.421875 74.21875 
Q 39.75 74.21875 46.484375 68.546875 
Q 53.21875 62.890625 53.21875 53.421875 
Q 53.21875 48.921875 51.53125 44.890625 
Q 49.859375 40.875 45.40625 35.40625 
Q 44.1875 33.984375 37.640625 27.21875 
Q 31.109375 20.453125 19.1875 8.296875 
z
" id="DejaVuSans-50"/>
      </defs>
      <g transform="translate(159.151151 401.758438)scale(0.1 -0.1)">
       <use xlink:href="#DejaVuSans-50"/>
       <use x="63.623047" xlink:href="#DejaVuSans-48"/>
      </g>
     </g>
    </g>
    <g id="xtick_4">
     <g id="line2d_7">
      <path clip-path="url(#p79177e7d8d)" d="M 224.410476 387.16 
L 224.410476 39.24 
" style="fill:none;stroke:#777777;stroke-linecap:square;stroke-width:0.8;"/>
     </g>
     <g id="line2d_8">
      <g>
       <use style="stroke:#000000;stroke-width:0.8;" x="224.410476" xlink:href="#m84aad1aeff" y="387.16"/>
      </g>
     </g>
     <g id="text_4">
      <!-- 30 -->
      <defs>
       <path d="M 40.578125 39.3125 
Q 47.65625 37.796875 51.625 33 
Q 55.609375 28.21875 55.609375 21.1875 
Q 55.609375 10.40625 48.1875 4.484375 
Q 40.765625 -1.421875 27.09375 -1.421875 
Q 22.515625 -1.421875 17.65625 -0.515625 
Q 12.796875 0.390625 7.625 2.203125 
L 7.625 11.71875 
Q 11.71875 9.328125 16.59375 8.109375 
Q 21.484375 6.890625 26.8125 6.890625 
Q 36.078125 6.890625 40.9375 10.546875 
Q 45.796875 14.203125 45.796875 21.1875 
Q 45.796875 27.640625 41.28125 31.265625 
Q 36.765625 34.90625 28.71875 34.90625 
L 20.21875 34.90625 
L 20.21875 43.015625 
L 29.109375 43.015625 
Q 36.375 43.015625 40.234375 45.921875 
Q 44.09375 48.828125 44.09375 54.296875 
Q 44.09375 59.90625 40.109375 62.90625 
Q 36.140625 65.921875 28.71875 65.921875 
Q 24.65625 65.921875 20.015625 65.03125 
Q 15.375 64.15625 9.8125 62.3125 
L 9.8125 71.09375 
Q 15.4375 72.65625 20.34375 73.4375 
Q 25.25 74.21875 29.59375 74.21875 
Q 40.828125 74.21875 47.359375 69.109375 
Q 53.90625 64.015625 53.90625 55.328125 
Q 53.90625 49.265625 50.4375 45.09375 
Q 46.96875 40.921875 40.578125 39.3125 
z
" id="DejaVuSans-51"/>
      </defs>
      <g transform="translate(218.047976 401.758438)scale(0.1 -0.1)">
       <use xlink:href="#DejaVuSans-51"/>
       <use x="63.623047" xlink:href="#DejaVuSans-48"/>
      </g>
     </g>
    </g>
    <g id="xtick_5">
     <g id="line2d_9">
      <path clip-path="url(#p79177e7d8d)" d="M 283.307302 387.16 
L 283.307302 39.24 
" style="fill:none;stroke:#777777;stroke-linecap:square;stroke-width:0.8;"/>
     </g>
     <g id="line2d_10">
      <g>
       <use style="stroke:#000000;stroke-width:0.8;" x="283.307302" xlink:href="#m84aad1aeff" y="387.16"/>
      </g>
     </g>
     <g id="text_5">
      <!-- 40 -->
      <defs>
       <path d="M 37.796875 64.3125 
L 12.890625 25.390625 
L 37.796875 25.390625 
z
M 35.203125 72.90625 
L 47.609375 72.90625 
L 47.609375 25.390625 
L 58.015625 25.390625 
L 58.015625 17.1875 
L 47.609375 17.1875 
L 47.609375 0 
L 37.796875 0 
L 37.796875 17.1875 
L 4.890625 17.1875 
L 4.890625 26.703125 
z
" id="DejaVuSans-52"/>
      </defs>
      <g transform="translate(276.944802 401.758438)scale(0.1 -0.1)">
       <use xlink:href="#DejaVuSans-52"/>
       <use x="63.623047" xlink:href="#DejaVuSans-48"/>
      </g>
     </g>
    </g>
    <g id="xtick_6">
     <g id="line2d_11">
      <path clip-path="url(#p79177e7d8d)" d="M 342.204127 387.16 
L 342.204127 39.24 
" style="fill:none;stroke:#777777;stroke-linecap:square;stroke-width:0.8;"/>
     </g>
     <g id="line2d_12">
      <g>
       <use style="stroke:#000000;stroke-width:0.8;" x="342.204127" xlink:href="#m84aad1aeff" y="387.16"/>
      </g>
     </g>
     <g id="text_6">
      <!-- 50 -->
      <defs>
       <path d="M 10.796875 72.90625 
L 49.515625 72.90625 
L 49.515625 64.59375 
L 19.828125 64.59375 
L 19.828125 46.734375 
Q 21.96875 47.46875 24.109375 47.828125 
Q 26.265625 48.1875 28.421875 48.1875 
Q 40.625 48.1875 47.75 41.5 
Q 54.890625 34.8125 54.890625 23.390625 
Q 54.890625 11.625 47.5625 5.09375 
Q 40.234375 -1.421875 26.90625 -1.421875 
Q 22.3125 -1.421875 17.546875 -0.640625 
Q 12.796875 0.140625 7.71875 1.703125 
L 7.71875 11.625 
Q 12.109375 9.234375 16.796875 8.0625 
Q 21.484375 6.890625 26.703125 6.890625 
Q 35.15625 6.890625 40.078125 11.328125 
Q 45.015625 15.765625 45.015625 23.390625 
Q 45.015625 31 40.078125 35.4375 
Q 35.15625 39.890625 26.703125 39.890625 
Q 22.75 39.890625 18.8125 39.015625 
Q 14.890625 38.140625 10.796875 36.28125 
z
" id="DejaVuSans-53"/>
      </defs>
      <g transform="translate(335.841627 401.758438)scale(0.1 -0.1)">
       <use xlink:href="#DejaVuSans-53"/>
       <use x="63.623047" xlink:href="#DejaVuSans-48"/>
      </g>
     </g>
    </g>
    <g id="xtick_7">
     <g id="line2d_13">
      <path clip-path="url(#p79177e7d8d)" d="M 401.100952 387.16 
L 401.100952 39.24 
" style="fill:none;stroke:#777777;stroke-linecap:square;stroke-width:0.8;"/>
     </g>
     <g id="line2d_14">
      <g>
       <use style="stroke:#000000;stroke-width:0.8;" x="401.100952" xlink:href="#m84aad1aeff" y="387.16"/>
      </g>
     </g>
     <g id="text_7">
      <!-- 60 -->
      <defs>
       <path d="M 33.015625 40.375 
Q 26.375 40.375 22.484375 35.828125 
Q 18.609375 31.296875 18.609375 23.390625 
Q 18.609375 15.53125 22.484375 10.953125 
Q 26.375 6.390625 33.015625 6.390625 
Q 39.65625 6.390625 43.53125 10.953125 
Q 47.40625 15.53125 47.40625 23.390625 
Q 47.40625 31.296875 43.53125 35.828125 
Q 39.65625 40.375 33.015625 40.375 
z
M 52.59375 71.296875 
L 52.59375 62.3125 
Q 48.875 64.0625 45.09375 64.984375 
Q 41.3125 65.921875 37.59375 65.921875 
Q 27.828125 65.921875 22.671875 59.328125 
Q 17.53125 52.734375 16.796875 39.40625 
Q 19.671875 43.65625 24.015625 45.921875 
Q 28.375 48.1875 33.59375 48.1875 
Q 44.578125 48.1875 50.953125 41.515625 
Q 57.328125 34.859375 57.328125 23.390625 
Q 57.328125 12.15625 50.6875 5.359375 
Q 44.046875 -1.421875 33.015625 -1.421875 
Q 20.359375 -1.421875 13.671875 8.265625 
Q 6.984375 17.96875 6.984375 36.375 
Q 6.984375 53.65625 15.1875 63.9375 
Q 23.390625 74.21875 37.203125 74.21875 
Q 40.921875 74.21875 44.703125 73.484375 
Q 48.484375 72.75 52.59375 71.296875 
z
" id="DejaVuSans-54"/>
      </defs>
      <g transform="translate(394.738452 401.758438)scale(0.1 -0.1)">
       <use xlink:href="#DejaVuSans-54"/>
       <use x="63.623047" xlink:href="#DejaVuSans-48"/>
      </g>
     </g>
    </g>
    <g id="text_8">
     <!-- Samples -->
     <defs>
      <path d="M 53.515625 70.515625 
L 53.515625 60.890625 
Q 47.90625 63.578125 42.921875 64.890625 
Q 37.9375 66.21875 33.296875 66.21875 
Q 25.25 66.21875 20.875 63.09375 
Q 16.5 59.96875 16.5 54.203125 
Q 16.5 49.359375 19.40625 46.890625 
Q 22.3125 44.4375 30.421875 42.921875 
L 36.375 41.703125 
Q 47.40625 39.59375 52.65625 34.296875 
Q 57.90625 29 57.90625 20.125 
Q 57.90625 9.515625 50.796875 4.046875 
Q 43.703125 -1.421875 29.984375 -1.421875 
Q 24.8125 -1.421875 18.96875 -0.25 
Q 13.140625 0.921875 6.890625 3.21875 
L 6.890625 13.375 
Q 12.890625 10.015625 18.65625 8.296875 
Q 24.421875 6.59375 29.984375 6.59375 
Q 38.421875 6.59375 43.015625 9.90625 
Q 47.609375 13.234375 47.609375 19.390625 
Q 47.609375 24.75 44.3125 27.78125 
Q 41.015625 30.8125 33.5 32.328125 
L 27.484375 33.5 
Q 16.453125 35.6875 11.515625 40.375 
Q 6.59375 45.0625 6.59375 53.421875 
Q 6.59375 63.09375 13.40625 68.65625 
Q 20.21875 74.21875 32.171875 74.21875 
Q 37.3125 74.21875 42.625 73.28125 
Q 47.953125 72.359375 53.515625 70.515625 
z
" id="DejaVuSans-83"/>
      <path d="M 34.28125 27.484375 
Q 23.390625 27.484375 19.1875 25 
Q 14.984375 22.515625 14.984375 16.5 
Q 14.984375 11.71875 18.140625 8.90625 
Q 21.296875 6.109375 26.703125 6.109375 
Q 34.1875 6.109375 38.703125 11.40625 
Q 43.21875 16.703125 43.21875 25.484375 
L 43.21875 27.484375 
z
M 52.203125 31.203125 
L 52.203125 0 
L 43.21875 0 
L 43.21875 8.296875 
Q 40.140625 3.328125 35.546875 0.953125 
Q 30.953125 -1.421875 24.3125 -1.421875 
Q 15.921875 -1.421875 10.953125 3.296875 
Q 6 8.015625 6 15.921875 
Q 6 25.140625 12.171875 29.828125 
Q 18.359375 34.515625 30.609375 34.515625 
L 43.21875 34.515625 
L 43.21875 35.40625 
Q 43.21875 41.609375 39.140625 45 
Q 35.0625 48.390625 27.6875 48.390625 
Q 23 48.390625 18.546875 47.265625 
Q 14.109375 46.140625 10.015625 43.890625 
L 10.015625 52.203125 
Q 14.9375 54.109375 19.578125 55.046875 
Q 24.21875 56 28.609375 56 
Q 40.484375 56 46.34375 49.84375 
Q 52.203125 43.703125 52.203125 31.203125 
z
" id="DejaVuSans-97"/>
      <path d="M 52 44.1875 
Q 55.375 50.25 60.0625 53.125 
Q 64.75 56 71.09375 56 
Q 79.640625 56 84.28125 50.015625 
Q 88.921875 44.046875 88.921875 33.015625 
L 88.921875 0 
L 79.890625 0 
L 79.890625 32.71875 
Q 79.890625 40.578125 77.09375 44.375 
Q 74.3125 48.1875 68.609375 48.1875 
Q 61.625 48.1875 57.5625 43.546875 
Q 53.515625 38.921875 53.515625 30.90625 
L 53.515625 0 
L 44.484375 0 
L 44.484375 32.71875 
Q 44.484375 40.625 41.703125 44.40625 
Q 38.921875 48.1875 33.109375 48.1875 
Q 26.21875 48.1875 22.15625 43.53125 
Q 18.109375 38.875 18.109375 30.90625 
L 18.109375 0 
L 9.078125 0 
L 9.078125 54.6875 
L 18.109375 54.6875 
L 18.109375 46.1875 
Q 21.1875 51.21875 25.484375 53.609375 
Q 29.78125 56 35.6875 56 
Q 41.65625 56 45.828125 52.96875 
Q 50 49.953125 52 44.1875 
z
" id="DejaVuSans-109"/>
      <path d="M 18.109375 8.203125 
L 18.109375 -20.796875 
L 9.078125 -20.796875 
L 9.078125 54.6875 
L 18.109375 54.6875 
L 18.109375 46.390625 
Q 20.953125 51.265625 25.265625 53.625 
Q 29.59375 56 35.59375 56 
Q 45.5625 56 51.78125 48.09375 
Q 58.015625 40.1875 58.015625 27.296875 
Q 58.015625 14.40625 51.78125 6.484375 
Q 45.5625 -1.421875 35.59375 -1.421875 
Q 29.59375 -1.421875 25.265625 0.953125 
Q 20.953125 3.328125 18.109375 8.203125 
z
M 48.6875 27.296875 
Q 48.6875 37.203125 44.609375 42.84375 
Q 40.53125 48.484375 33.40625 48.484375 
Q 26.265625 48.484375 22.1875 42.84375 
Q 18.109375 37.203125 18.109375 27.296875 
Q 18.109375 17.390625 22.1875 11.75 
Q 26.265625 6.109375 33.40625 6.109375 
Q 40.53125 6.109375 44.609375 11.75 
Q 48.6875 17.390625 48.6875 27.296875 
z
" id="DejaVuSans-112"/>
      <path d="M 9.421875 75.984375 
L 18.40625 75.984375 
L 18.40625 0 
L 9.421875 0 
z
" id="DejaVuSans-108"/>
      <path d="M 56.203125 29.59375 
L 56.203125 25.203125 
L 14.890625 25.203125 
Q 15.484375 15.921875 20.484375 11.0625 
Q 25.484375 6.203125 34.421875 6.203125 
Q 39.59375 6.203125 44.453125 7.46875 
Q 49.3125 8.734375 54.109375 11.28125 
L 54.109375 2.78125 
Q 49.265625 0.734375 44.1875 -0.34375 
Q 39.109375 -1.421875 33.890625 -1.421875 
Q 20.796875 -1.421875 13.15625 6.1875 
Q 5.515625 13.8125 5.515625 26.8125 
Q 5.515625 40.234375 12.765625 48.109375 
Q 20.015625 56 32.328125 56 
Q 43.359375 56 49.78125 48.890625 
Q 56.203125 41.796875 56.203125 29.59375 
z
M 47.21875 32.234375 
Q 47.125 39.59375 43.09375 43.984375 
Q 39.0625 48.390625 32.421875 48.390625 
Q 24.90625 48.390625 20.390625 44.140625 
Q 15.875 39.890625 15.1875 32.171875 
z
" id="DejaVuSans-101"/>
      <path d="M 44.28125 53.078125 
L 44.28125 44.578125 
Q 40.484375 46.53125 36.375 47.5 
Q 32.28125 48.484375 27.875 48.484375 
Q 21.1875 48.484375 17.84375 46.4375 
Q 14.5 44.390625 14.5 40.28125 
Q 14.5 37.15625 16.890625 35.375 
Q 19.28125 33.59375 26.515625 31.984375 
L 29.59375 31.296875 
Q 39.15625 29.25 43.1875 25.515625 
Q 47.21875 21.78125 47.21875 15.09375 
Q 47.21875 7.46875 41.1875 3.015625 
Q 35.15625 -1.421875 24.609375 -1.421875 
Q 20.21875 -1.421875 15.453125 -0.5625 
Q 10.6875 0.296875 5.421875 2 
L 5.421875 11.28125 
Q 10.40625 8.6875 15.234375 7.390625 
Q 20.0625 6.109375 24.8125 6.109375 
Q 31.15625 6.109375 34.5625 8.28125 
Q 37.984375 10.453125 37.984375 14.40625 
Q 37.984375 18.0625 35.515625 20.015625 
Q 33.0625 21.96875 24.703125 23.78125 
L 21.578125 24.515625 
Q 13.234375 26.265625 9.515625 29.90625 
Q 5.8125 33.546875 5.8125 39.890625 
Q 5.8125 47.609375 11.28125 51.796875 
Q 16.75 56 26.8125 56 
Q 31.78125 56 36.171875 55.265625 
Q 40.578125 54.546875 44.28125 53.078125 
z
" id="DejaVuSans-115"/>
     </defs>
     <g transform="translate(211.891875 415.436563)scale(0.1 -0.1)">
      <use xlink:href="#DejaVuSans-83"/>
      <use x="63.476562" xlink:href="#DejaVuSans-97"/>
      <use x="124.755859" xlink:href="#DejaVuSans-109"/>
      <use x="222.167969" xlink:href="#DejaVuSans-112"/>
      <use x="285.644531" xlink:href="#DejaVuSans-108"/>
      <use x="313.427734" xlink:href="#DejaVuSans-101"/>
      <use x="374.951172" xlink:href="#DejaVuSans-115"/>
     </g>
    </g>
   </g>
   <g id="matplotlib.axis_2">
    <g id="ytick_1">
     <g id="line2d_15">
      <path clip-path="url(#p79177e7d8d)" d="M 47.72 343.913245 
L 418.77 343.913245 
" style="fill:none;stroke:#777777;stroke-linecap:square;stroke-width:0.8;"/>
     </g>
     <g id="line2d_16">
      <defs>
       <path d="M 0 0 
L -3.5 0 
" id="m223692a064" style="stroke:#000000;stroke-width:0.8;"/>
      </defs>
      <g>
       <use style="stroke:#000000;stroke-width:0.8;" x="47.72" xlink:href="#m223692a064" y="343.913245"/>
      </g>
     </g>
     <g id="text_9">
      <!-- 0.2 -->
      <defs>
       <path d="M 10.6875 12.40625 
L 21 12.40625 
L 21 0 
L 10.6875 0 
z
" id="DejaVuSans-46"/>
      </defs>
      <g transform="translate(24.816875 347.712463)scale(0.1 -0.1)">
       <use xlink:href="#DejaVuSans-48"/>
       <use x="63.623047" xlink:href="#DejaVuSans-46"/>
       <use x="95.410156" xlink:href="#DejaVuSans-50"/>
      </g>
     </g>
    </g>
    <g id="ytick_2">
     <g id="line2d_17">
      <path clip-path="url(#p79177e7d8d)" d="M 47.72 271.835319 
L 418.77 271.835319 
" style="fill:none;stroke:#777777;stroke-linecap:square;stroke-width:0.8;"/>
     </g>
     <g id="line2d_18">
      <g>
       <use style="stroke:#000000;stroke-width:0.8;" x="47.72" xlink:href="#m223692a064" y="271.835319"/>
      </g>
     </g>
     <g id="text_10">
      <!-- 0.4 -->
      <g transform="translate(24.816875 275.634538)scale(0.1 -0.1)">
       <use xlink:href="#DejaVuSans-48"/>
       <use x="63.623047" xlink:href="#DejaVuSans-46"/>
       <use x="95.410156" xlink:href="#DejaVuSans-52"/>
      </g>
     </g>
    </g>
    <g id="ytick_3">
     <g id="line2d_19">
      <path clip-path="url(#p79177e7d8d)" d="M 47.72 199.757394 
L 418.77 199.757394 
" style="fill:none;stroke:#777777;stroke-linecap:square;stroke-width:0.8;"/>
     </g>
     <g id="line2d_20">
      <g>
       <use style="stroke:#000000;stroke-width:0.8;" x="47.72" xlink:href="#m223692a064" y="199.757394"/>
      </g>
     </g>
     <g id="text_11">
      <!-- 0.6 -->
      <g transform="translate(24.816875 203.556612)scale(0.1 -0.1)">
       <use xlink:href="#DejaVuSans-48"/>
       <use x="63.623047" xlink:href="#DejaVuSans-46"/>
       <use x="95.410156" xlink:href="#DejaVuSans-54"/>
      </g>
     </g>
    </g>
    <g id="ytick_4">
     <g id="line2d_21">
      <path clip-path="url(#p79177e7d8d)" d="M 47.72 127.679468 
L 418.77 127.679468 
" style="fill:none;stroke:#777777;stroke-linecap:square;stroke-width:0.8;"/>
     </g>
     <g id="line2d_22">
      <g>
       <use style="stroke:#000000;stroke-width:0.8;" x="47.72" xlink:href="#m223692a064" y="127.679468"/>
      </g>
     </g>
     <g id="text_12">
      <!-- 0.8 -->
      <defs>
       <path d="M 31.78125 34.625 
Q 24.75 34.625 20.71875 30.859375 
Q 16.703125 27.09375 16.703125 20.515625 
Q 16.703125 13.921875 20.71875 10.15625 
Q 24.75 6.390625 31.78125 6.390625 
Q 38.8125 6.390625 42.859375 10.171875 
Q 46.921875 13.96875 46.921875 20.515625 
Q 46.921875 27.09375 42.890625 30.859375 
Q 38.875 34.625 31.78125 34.625 
z
M 21.921875 38.8125 
Q 15.578125 40.375 12.03125 44.71875 
Q 8.5 49.078125 8.5 55.328125 
Q 8.5 64.0625 14.71875 69.140625 
Q 20.953125 74.21875 31.78125 74.21875 
Q 42.671875 74.21875 48.875 69.140625 
Q 55.078125 64.0625 55.078125 55.328125 
Q 55.078125 49.078125 51.53125 44.71875 
Q 48 40.375 41.703125 38.8125 
Q 48.828125 37.15625 52.796875 32.3125 
Q 56.78125 27.484375 56.78125 20.515625 
Q 56.78125 9.90625 50.3125 4.234375 
Q 43.84375 -1.421875 31.78125 -1.421875 
Q 19.734375 -1.421875 13.25 4.234375 
Q 6.78125 9.90625 6.78125 20.515625 
Q 6.78125 27.484375 10.78125 32.3125 
Q 14.796875 37.15625 21.921875 38.8125 
z
M 18.3125 54.390625 
Q 18.3125 48.734375 21.84375 45.5625 
Q 25.390625 42.390625 31.78125 42.390625 
Q 38.140625 42.390625 41.71875 45.5625 
Q 45.3125 48.734375 45.3125 54.390625 
Q 45.3125 60.0625 41.71875 63.234375 
Q 38.140625 66.40625 31.78125 66.40625 
Q 25.390625 66.40625 21.84375 63.234375 
Q 18.3125 60.0625 18.3125 54.390625 
z
" id="DejaVuSans-56"/>
      </defs>
      <g transform="translate(24.816875 131.478687)scale(0.1 -0.1)">
       <use xlink:href="#DejaVuSans-48"/>
       <use x="63.623047" xlink:href="#DejaVuSans-46"/>
       <use x="95.410156" xlink:href="#DejaVuSans-56"/>
      </g>
     </g>
    </g>
    <g id="ytick_5">
     <g id="line2d_23">
      <path clip-path="url(#p79177e7d8d)" d="M 47.72 55.601542 
L 418.77 55.601542 
" style="fill:none;stroke:#777777;stroke-linecap:square;stroke-width:0.8;"/>
     </g>
     <g id="line2d_24">
      <g>
       <use style="stroke:#000000;stroke-width:0.8;" x="47.72" xlink:href="#m223692a064" y="55.601542"/>
      </g>
     </g>
     <g id="text_13">
      <!-- 1.0 -->
      <g transform="translate(24.816875 59.400761)scale(0.1 -0.1)">
       <use xlink:href="#DejaVuSans-49"/>
       <use x="63.623047" xlink:href="#DejaVuSans-46"/>
       <use x="95.410156" xlink:href="#DejaVuSans-48"/>
      </g>
     </g>
    </g>
    <g id="text_14">
     <!-- Amplitude -->
     <defs>
      <path d="M 34.1875 63.1875 
L 20.796875 26.90625 
L 47.609375 26.90625 
z
M 28.609375 72.90625 
L 39.796875 72.90625 
L 67.578125 0 
L 57.328125 0 
L 50.6875 18.703125 
L 17.828125 18.703125 
L 11.1875 0 
L 0.78125 0 
z
" id="DejaVuSans-65"/>
      <path d="M 9.421875 54.6875 
L 18.40625 54.6875 
L 18.40625 0 
L 9.421875 0 
z
M 9.421875 75.984375 
L 18.40625 75.984375 
L 18.40625 64.59375 
L 9.421875 64.59375 
z
" id="DejaVuSans-105"/>
      <path d="M 18.3125 70.21875 
L 18.3125 54.6875 
L 36.8125 54.6875 
L 36.8125 47.703125 
L 18.3125 47.703125 
L 18.3125 18.015625 
Q 18.3125 11.328125 20.140625 9.421875 
Q 21.96875 7.515625 27.59375 7.515625 
L 36.8125 7.515625 
L 36.8125 0 
L 27.59375 0 
Q 17.1875 0 13.234375 3.875 
Q 9.28125 7.765625 9.28125 18.015625 
L 9.28125 47.703125 
L 2.6875 47.703125 
L 2.6875 54.6875 
L 9.28125 54.6875 
L 9.28125 70.21875 
z
" id="DejaVuSans-116"/>
      <path d="M 8.5 21.578125 
L 8.5 54.6875 
L 17.484375 54.6875 
L 17.484375 21.921875 
Q 17.484375 14.15625 20.5 10.265625 
Q 23.53125 6.390625 29.59375 6.390625 
Q 36.859375 6.390625 41.078125 11.03125 
Q 45.3125 15.671875 45.3125 23.6875 
L 45.3125 54.6875 
L 54.296875 54.6875 
L 54.296875 0 
L 45.3125 0 
L 45.3125 8.40625 
Q 42.046875 3.421875 37.71875 1 
Q 33.40625 -1.421875 27.6875 -1.421875 
Q 18.265625 -1.421875 13.375 4.4375 
Q 8.5 10.296875 8.5 21.578125 
z
M 31.109375 56 
z
" id="DejaVuSans-117"/>
      <path d="M 45.40625 46.390625 
L 45.40625 75.984375 
L 54.390625 75.984375 
L 54.390625 0 
L 45.40625 0 
L 45.40625 8.203125 
Q 42.578125 3.328125 38.25 0.953125 
Q 33.9375 -1.421875 27.875 -1.421875 
Q 17.96875 -1.421875 11.734375 6.484375 
Q 5.515625 14.40625 5.515625 27.296875 
Q 5.515625 40.1875 11.734375 48.09375 
Q 17.96875 56 27.875 56 
Q 33.9375 56 38.25 53.625 
Q 42.578125 51.265625 45.40625 46.390625 
z
M 14.796875 27.296875 
Q 14.796875 17.390625 18.875 11.75 
Q 22.953125 6.109375 30.078125 6.109375 
Q 37.203125 6.109375 41.296875 11.75 
Q 45.40625 17.390625 45.40625 27.296875 
Q 45.40625 37.203125 41.296875 42.84375 
Q 37.203125 48.484375 30.078125 48.484375 
Q 22.953125 48.484375 18.875 42.84375 
Q 14.796875 37.203125 14.796875 27.296875 
z
" id="DejaVuSans-100"/>
     </defs>
     <g transform="translate(18.737188 238.822656)rotate(-90)scale(0.1 -0.1)">
      <use xlink:href="#DejaVuSans-65"/>
      <use x="68.408203" xlink:href="#DejaVuSans-109"/>
      <use x="165.820312" xlink:href="#DejaVuSans-112"/>
      <use x="229.296875" xlink:href="#DejaVuSans-108"/>
      <use x="257.080078" xlink:href="#DejaVuSans-105"/>
      <use x="284.863281" xlink:href="#DejaVuSans-116"/>
      <use x="324.072266" xlink:href="#DejaVuSans-117"/>
      <use x="387.451172" xlink:href="#DejaVuSans-100"/>
      <use x="450.927734" xlink:href="#DejaVuSans-101"/>
     </g>
    </g>
   </g>
   <g id="line2d_25">
    <path clip-path="url(#p79177e7d8d)" d="M 47.72 387.16 
L 53.609683 386.336206 
L 59.499365 383.87301 
L 65.389048 379.794894 
L 71.27873 374.142387 
L 77.168413 366.971666 
L 83.058095 358.353998 
L 88.947778 348.375028 
L 94.83746 337.133932 
L 100.727143 324.74243 
L 106.616825 311.323672 
L 112.506508 297.011022 
L 118.39619 281.946724 
L 124.285873 266.280495 
L 130.175556 250.168032 
L 136.065238 233.769468 
L 141.954921 217.24778 
L 147.844603 200.767168 
L 153.734286 184.491422 
L 159.623968 168.5823 
L 165.513651 153.197912 
L 171.403333 138.491157 
L 177.293016 124.608195 
L 183.182698 111.687003 
L 189.072381 99.855997 
L 194.962063 89.232759 
L 200.851746 79.922867 
L 206.741429 72.018847 
L 212.631111 65.599253 
L 218.520794 60.727886 
L 224.410476 57.453159 
L 230.300159 55.807619 
L 236.189841 55.807619 
L 242.079524 57.453159 
L 247.969206 60.727886 
L 253.858889 65.599253 
L 259.748571 72.018847 
L 265.638254 79.922867 
L 271.527937 89.232759 
L 277.417619 99.855997 
L 283.307302 111.687003 
L 289.196984 124.608195 
L 295.086667 138.491157 
L 300.976349 153.197912 
L 306.866032 168.5823 
L 312.755714 184.491422 
L 318.645397 200.767168 
L 324.535079 217.24778 
L 330.424762 233.769468 
L 336.314444 250.168032 
L 342.204127 266.280495 
L 348.09381 281.946724 
L 353.983492 297.011022 
L 359.873175 311.323672 
L 365.762857 324.74243 
L 371.65254 337.133932 
L 377.542222 348.375028 
L 383.431905 358.353998 
L 389.321587 366.971666 
L 395.21127 374.142387 
L 401.100952 379.794894 
L 406.990635 383.87301 
L 412.880317 386.336206 
L 418.77 387.16 
" style="fill:none;stroke:#0072bd;stroke-linecap:square;stroke-width:1.4;"/>
    <defs>
     <path d="M 0 1.5 
C 0.397805 1.5 0.77937 1.341951 1.06066 1.06066 
C 1.341951 0.77937 1.5 0.397805 1.5 0 
C 1.5 -0.397805 1.341951 -0.77937 1.06066 -1.06066 
C 0.77937 -1.341951 0.397805 -1.5 0 -1.5 
C -0.397805 -1.5 -0.77937 -1.341951 -1.06066 -1.06066 
C -1.341951 -0.77937 -1.5 -0.397805 -1.5 0 
C -1.5 0.397805 -1.341951 0.77937 -1.06066 1.06066 
C -0.77937 1.341951 -0.397805 1.5 0 1.5 
z
" id="m68fddb1e47" style="stroke:#0072bd;"/>
    </defs>
    <g clip-path="url(#p79177e7d8d)">
     <use style="fill:#0072bd;stroke:#0072bd;" x="47.72" xlink:href="#m68fddb1e47" y="387.16"/>
     <use style="fill:#0072bd;stroke:#0072bd;" x="53.609683" xlink:href="#m68fddb1e47" y="386.336206"/>
     <use style="fill:#0072bd;stroke:#0072bd;" x="59.499365" xlink:href="#m68fddb1e47" y="383.87301"/>
     <use style="fill:#0072bd;stroke:#0072bd;" x="65.389048" xlink:href="#m68fddb1e47" y="379.794894"/>
     <use style="fill:#0072bd;stroke:#0072bd;" x="71.27873" xlink:href="#m68fddb1e47" y="374.142387"/>
     <use style="fill:#0072bd;stroke:#0072bd;" x="77.168413" xlink:href="#m68fddb1e47" y="366.971666"/>
     <use style="fill:#0072bd;stroke:#0072bd;" x="83.058095" xlink:href="#m68fddb1e47" y="358.353998"/>
     <use style="fill:#0072bd;stroke:#0072bd;" x="88.947778" xlink:href="#m68fddb1e47" y="348.375028"/>
     <use style="fill:#0072bd;stroke:#0072bd;" x="94.83746" xlink:href="#m68fddb1e47" y="337.133932"/>
     <use style="fill:#0072bd;stroke:#0072bd;" x="100.727143" xlink:href="#m68fddb1e47" y="324.74243"/>
     <use style="fill:#0072bd;stroke:#0072bd;" x="106.616825" xlink:href="#m68fddb1e47" y="311.323672"/>
     <use style="fill:#0072bd;stroke:#0072bd;" x="112.506508" xlink:href="#m68fddb1e47" y="297.011022"/>
     <use style="fill:#0072bd;stroke:#0072bd;" x="118.39619" xlink:href="#m68fddb1e47" y="281.946724"/>
     <use style="fill:#0072bd;stroke:#0072bd;" x="124.285873" xlink:href="#m68fddb1e47" y="266.280495"/>
     <use style="fill:#0072bd;stroke:#0072bd;" x="130.175556" xlink:href="#m68fddb1e47" y="250.168032"/>
     <use style="fill:#0072bd;stroke:#0072bd;" x="136.065238" xlink:href="#m68fddb1e47" y="233.769468"/>
     <use style="fill:#0072bd;stroke:#0072bd;" x="141.954921" xlink:href="#m68fddb1e47" y="217.24778"/>
     <use style="fill:#0072bd;stroke:#0072bd;" x="147.844603" xlink:href="#m68fddb1e47" y="200.767168"/>
     <use style="fill:#0072bd;stroke:#0072bd;" x="153.734286" xlink:href="#m68fddb1e47" y="184.491422"/>
     <use style="fill:#0072bd;stroke:#0072bd;" x="159.623968" xlink:href="#m68fddb1e47" y="168.5823"/>
     <use style="fill:#0072bd;stroke:#0072bd;" x="165.513651" xlink:href="#m68fddb1e47" y="153.197912"/>
     <use style="fill:#0072bd;stroke:#0072bd;" x="171.403333" xlink:href="#m68fddb1e47" y="138.491157"/>
     <use style="fill:#0072bd;stroke:#0072bd;" x="177.293016" xlink:href="#m68fddb1e47" y="124.608195"/>
     <use style="fill:#0072bd;stroke:#0072bd;" x="183.182698" xlink:href="#m68fddb1e47" y="111.687003"/>
     <use style="fill:#0072bd;stroke:#0072bd;" x="189.072381" xlink:href="#m68fddb1e47" y="99.855997"/>
     <use style="fill:#0072bd;stroke:#0072bd;" x="194.962063" xlink:href="#m68fddb1e47" y="89.232759"/>
     <use style="fill:#0072bd;stroke:#0072bd;" x="200.851746" xlink:href="#m68fddb1e47" y="79.922867"/>
     <use style="fill:#0072bd;stroke:#0072bd;" x="206.741429" xlink:href="#m68fddb1e47" y="72.018847"/>
     <use style="fill:#0072bd;stroke:#0072bd;" x="212.631111" xlink:href="#m68fddb1e47" y="65.599253"/>
     <use style="fill:#0072bd;stroke:#0072bd;" x="218.520794" xlink:href="#m68fddb1e47" y="60.727886"/>
     <use style="fill:#0072bd;stroke:#0072bd;" x="224.410476" xlink:href="#m68fddb1e47" y="57.453159"/>
     <use style="fill:#0072bd;stroke:#0072bd;" x="230.300159" xlink:href="#m68fddb1e47" y="55.807619"/>
     <use style="fill:#0072bd;stroke:#0072bd;" x="236.189841" xlink:href="#m68fddb1e47" y="55.807619"/>
     <use style="fill:#0072bd;stroke:#0072bd;" x="242.079524" xlink:href="#m68fddb1e47" y="57.453159"/>
     <use style="fill:#0072bd;stroke:#0072bd;" x="247.969206" xlink:href="#m68fddb1e47" y="60.727886"/>
     <use style="fill:#0072bd;stroke:#0072bd;" x="253.858889" xlink:href="#m68fddb1e47" y="65.599253"/>
     <use style="fill:#0072bd;stroke:#0072bd;" x="259.748571" xlink:href="#m68fddb1e47" y="72.018847"/>
     <use style="fill:#0072bd;stroke:#0072bd;" x="265.638254" xlink:href="#m68fddb1e47" y="79.922867"/>
     <use style="fill:#0072bd;stroke:#0072bd;" x="271.527937" xlink:href="#m68fddb1e47" y="89.232759"/>
     <use style="fill:#0072bd;stroke:#0072bd;" x="277.417619" xlink:href="#m68fddb1e47" y="99.855997"/>
     <use style="fill:#0072bd;stroke:#0072bd;" x="283.307302" xlink:href="#m68fddb1e47" y="111.687003"/>
     <use style="fill:#0072bd;stroke:#0072bd;" x="289.196984" xlink:href="#m68fddb1e47" y="124.608195"/>
     <use style="fill:#0072bd;stroke:#0072bd;" x="295.086667" xlink:href="#m68fddb1e47" y="138.491157"/>
     <use style="fill:#0072bd;stroke:#0072bd;" x="300.976349" xlink:href="#m68fddb1e47" y="153.197912"/>
     <use style="fill:#0072bd;stroke:#0072bd;" x="306.866032" xlink:href="#m68fddb1e47" y="168.5823"/>
     <use style="fill:#0072bd;stroke:#0072bd;" x="312.755714" xlink:href="#m68fddb1e47" y="184.491422"/>
     <use style="fill:#0072bd;stroke:#0072bd;" x="318.645397" xlink:href="#m68fddb1e47" y="200.767168"/>
     <use style="fill:#0072bd;stroke:#0072bd;" x="324.535079" xlink:href="#m68fddb1e47" y="217.24778"/>
     <use style="fill:#0072bd;stroke:#0072bd;" x="330.424762" xlink:href="#m68fddb1e47" y="233.769468"/>
     <use style="fill:#0072bd;stroke:#0072bd;" x="336.314444" xlink:href="#m68fddb1e47" y="250.168032"/>
     <use style="fill:#0072bd;stroke:#0072bd;" x="342.204127" xlink:href="#m68fddb1e47" y="266.280495"/>
     <use style="fill:#0072bd;stroke:#0072bd;" x="348.09381" xlink:href="#m68fddb1e47" y="281.946724"/>
     <use style="fill:#0072bd;stroke:#0072bd;" x="353.983492" xlink:href="#m68fddb1e47" y="297.011022"/>
     <use style="fill:#0072bd;stroke:#0072bd;" x="359.873175" xlink:href="#m68fddb1e47" y="311.323672"/>
     <use style="fill:#0072bd;stroke:#0072bd;" x="365.762857" xlink:href="#m68fddb1e47" y="324.74243"/>
     <use style="fill:#0072bd;stroke:#0072bd;" x="371.65254" xlink:href="#m68fddb1e47" y="337.133932"/>
     <use style="fill:#0072bd;stroke:#0072bd;" x="377.542222" xlink:href="#m68fddb1e47" y="348.375028"/>
     <use style="fill:#0072bd;stroke:#0072bd;" x="383.431905" xlink:href="#m68fddb1e47" y="358.353998"/>
     <use style="fill:#0072bd;stroke:#0072bd;" x="389.321587" xlink:href="#m68fddb1e47" y="366.971666"/>
     <use style="fill:#0072bd;stroke:#0072bd;" x="395.21127" xlink:href="#m68fddb1e47" y="374.142387"/>
     <use style="fill:#0072bd;stroke:#0072bd;" x="401.100952" xlink:href="#m68fddb1e47" y="379.794894"/>
     <use style="fill:#0072bd;stroke:#0072bd;" x="406.990635" xlink:href="#m68fddb1e47" y="383.87301"/>
     <use style="fill:#0072bd;stroke:#0072bd;" x="412.880317" xlink:href="#m68fddb1e47" y="386.336206"/>
     <use style="fill:#0072bd;stroke:#0072bd;" x="418.77" xlink:href="#m68fddb1e47" y="387.16"/>
    </g>
   </g>
   <g id="patch_3">
    <path d="M 47.72 387.16 
L 47.72 39.24 
" style="fill:none;stroke:#000000;stroke-linecap:square;stroke-linejoin:miter;stroke-width:0.8;"/>
   </g>
   <g id="patch_4">
    <path d="M 418.77 387.16 
L 418.77 39.24 
" style="fill:none;stroke:#000000;stroke-linecap:square;stroke-linejoin:miter;stroke-width:0.8;"/>
   </g>
   <g id="patch_5">
    <path d="M 47.72 387.16 
L 418.77 387.16 
" style="fill:none;stroke:#000000;stroke-linecap:square;stroke-linejoin:miter;stroke-width:0.8;"/>
   </g>
   <g id="patch_6">
    <path d="M 47.72 39.24 
L 418.77 39.24 
" style="fill:none;stroke:#000000;stroke-linecap:square;stroke-linejoin:miter;stroke-width:0.8;"/>
   </g>
  </g>
  <g id="axes_2">
   <g id="patch_7">
    <path d="M 474.23 387.16 
L 845.28 387.16 
L 845.28 39.24 
L 474.23 39.24 
z
" style="fill:#ffffff;"/>
   </g>
   <g id="matplotlib.axis_3">
    <g id="xtick_8">
     <g id="line2d_26">
      <path clip-path="url(#p6edaed3a83)" d="M 474.23 387.16 
L 474.23 39.24 
" style="fill:none;stroke:#777777;stroke-linecap:square;stroke-width:0.8;"/>
     </g>
     <g id="line2d_27">
      <g>
       <use style="stroke:#000000;stroke-width:0.8;" x="474.23" xlink:href="#m84aad1aeff" y="387.16"/>
      </g>
     </g>
     <g id="text_15">
      <!-- 0.0 -->
      <g transform="translate(466.278437 401.758438)scale(0.1 -0.1)">
       <use xlink:href="#DejaVuSans-48"/>
       <use x="63.623047" xlink:href="#DejaVuSans-46"/>
       <use x="95.410156" xlink:href="#DejaVuSans-48"/>
      </g>
     </g>
    </g>
    <g id="xtick_9">
     <g id="line2d_28">
      <path clip-path="url(#p6edaed3a83)" d="M 548.44 387.16 
L 548.44 39.24 
" style="fill:none;stroke:#777777;stroke-linecap:square;stroke-width:0.8;"/>
     </g>
     <g id="line2d_29">
      <g>
       <use style="stroke:#000000;stroke-width:0.8;" x="548.44" xlink:href="#m84aad1aeff" y="387.16"/>
      </g>
     </g>
     <g id="text_16">
      <!-- 0.2 -->
      <g transform="translate(540.488437 401.758438)scale(0.1 -0.1)">
       <use xlink:href="#DejaVuSans-48"/>
       <use x="63.623047" xlink:href="#DejaVuSans-46"/>
       <use x="95.410156" xlink:href="#DejaVuSans-50"/>
      </g>
     </g>
    </g>
    <g id="xtick_10">
     <g id="line2d_30">
      <path clip-path="url(#p6edaed3a83)" d="M 622.65 387.16 
L 622.65 39.24 
" style="fill:none;stroke:#777777;stroke-linecap:square;stroke-width:0.8;"/>
     </g>
     <g id="line2d_31">
      <g>
       <use style="stroke:#000000;stroke-width:0.8;" x="622.65" xlink:href="#m84aad1aeff" y="387.16"/>
      </g>
     </g>
     <g id="text_17">
      <!-- 0.4 -->
      <g transform="translate(614.698437 401.758438)scale(0.1 -0.1)">
       <use xlink:href="#DejaVuSans-48"/>
       <use x="63.623047" xlink:href="#DejaVuSans-46"/>
       <use x="95.410156" xlink:href="#DejaVuSans-52"/>
      </g>
     </g>
    </g>
    <g id="xtick_11">
     <g id="line2d_32">
      <path clip-path="url(#p6edaed3a83)" d="M 696.86 387.16 
L 696.86 39.24 
" style="fill:none;stroke:#777777;stroke-linecap:square;stroke-width:0.8;"/>
     </g>
     <g id="line2d_33">
      <g>
       <use style="stroke:#000000;stroke-width:0.8;" x="696.86" xlink:href="#m84aad1aeff" y="387.16"/>
      </g>
     </g>
     <g id="text_18">
      <!-- 0.6 -->
      <g transform="translate(688.908437 401.758438)scale(0.1 -0.1)">
       <use xlink:href="#DejaVuSans-48"/>
       <use x="63.623047" xlink:href="#DejaVuSans-46"/>
       <use x="95.410156" xlink:href="#DejaVuSans-54"/>
      </g>
     </g>
    </g>
    <g id="xtick_12">
     <g id="line2d_34">
      <path clip-path="url(#p6edaed3a83)" d="M 771.07 387.16 
L 771.07 39.24 
" style="fill:none;stroke:#777777;stroke-linecap:square;stroke-width:0.8;"/>
     </g>
     <g id="line2d_35">
      <g>
       <use style="stroke:#000000;stroke-width:0.8;" x="771.07" xlink:href="#m84aad1aeff" y="387.16"/>
      </g>
     </g>
     <g id="text_19">
      <!-- 0.8 -->
      <g transform="translate(763.118437 401.758438)scale(0.1 -0.1)">
       <use xlink:href="#DejaVuSans-48"/>
       <use x="63.623047" xlink:href="#DejaVuSans-46"/>
       <use x="95.410156" xlink:href="#DejaVuSans-56"/>
      </g>
     </g>
    </g>
    <g id="xtick_13">
     <g id="line2d_36">
      <path clip-path="url(#p6edaed3a83)" d="M 845.28 387.16 
L 845.28 39.24 
" style="fill:none;stroke:#777777;stroke-linecap:square;stroke-width:0.8;"/>
     </g>
     <g id="line2d_37">
      <g>
       <use style="stroke:#000000;stroke-width:0.8;" x="845.28" xlink:href="#m84aad1aeff" y="387.16"/>
      </g>
     </g>
     <g id="text_20">
      <!-- 1.0 -->
      <g transform="translate(837.328437 401.758438)scale(0.1 -0.1)">
       <use xlink:href="#DejaVuSans-49"/>
       <use x="63.623047" xlink:href="#DejaVuSans-46"/>
       <use x="95.410156" xlink:href="#DejaVuSans-48"/>
      </g>
     </g>
    </g>
    <g id="text_21">
     <!-- Normalized Frequency ($\times \pi$ rad/sample) -->
     <defs>
      <path d="M 9.8125 72.90625 
L 23.09375 72.90625 
L 55.421875 11.921875 
L 55.421875 72.90625 
L 64.984375 72.90625 
L 64.984375 0 
L 51.703125 0 
L 19.390625 60.984375 
L 19.390625 0 
L 9.8125 0 
z
" id="DejaVuSans-78"/>
      <path d="M 30.609375 48.390625 
Q 23.390625 48.390625 19.1875 42.75 
Q 14.984375 37.109375 14.984375 27.296875 
Q 14.984375 17.484375 19.15625 11.84375 
Q 23.34375 6.203125 30.609375 6.203125 
Q 37.796875 6.203125 41.984375 11.859375 
Q 46.1875 17.53125 46.1875 27.296875 
Q 46.1875 37.015625 41.984375 42.703125 
Q 37.796875 48.390625 30.609375 48.390625 
z
M 30.609375 56 
Q 42.328125 56 49.015625 48.375 
Q 55.71875 40.765625 55.71875 27.296875 
Q 55.71875 13.875 49.015625 6.21875 
Q 42.328125 -1.421875 30.609375 -1.421875 
Q 18.84375 -1.421875 12.171875 6.21875 
Q 5.515625 13.875 5.515625 27.296875 
Q 5.515625 40.765625 12.171875 48.375 
Q 18.84375 56 30.609375 56 
z
" id="DejaVuSans-111"/>
      <path d="M 41.109375 46.296875 
Q 39.59375 47.171875 37.8125 47.578125 
Q 36.03125 48 33.890625 48 
Q 26.265625 48 22.1875 43.046875 
Q 18.109375 38.09375 18.109375 28.8125 
L 18.109375 0 
L 9.078125 0 
L 9.078125 54.6875 
L 18.109375 54.6875 
L 18.109375 46.1875 
Q 20.953125 51.171875 25.484375 53.578125 
Q 30.03125 56 36.53125 56 
Q 37.453125 56 38.578125 55.875 
Q 39.703125 55.765625 41.0625 55.515625 
z
" id="DejaVuSans-114"/>
      <path d="M 5.515625 54.6875 
L 48.1875 54.6875 
L 48.1875 46.484375 
L 14.40625 7.171875 
L 48.1875 7.171875 
L 48.1875 0 
L 4.296875 0 
L 4.296875 8.203125 
L 38.09375 47.515625 
L 5.515625 47.515625 
z
" id="DejaVuSans-122"/>
      <path id="DejaVuSans-32"/>
      <path d="M 9.8125 72.90625 
L 51.703125 72.90625 
L 51.703125 64.59375 
L 19.671875 64.59375 
L 19.671875 43.109375 
L 48.578125 43.109375 
L 48.578125 34.8125 
L 19.671875 34.8125 
L 19.671875 0 
L 9.8125 0 
z
" id="DejaVuSans-70"/>
      <path d="M 14.796875 27.296875 
Q 14.796875 17.390625 18.875 11.75 
Q 22.953125 6.109375 30.078125 6.109375 
Q 37.203125 6.109375 41.296875 11.75 
Q 45.40625 17.390625 45.40625 27.296875 
Q 45.40625 37.203125 41.296875 42.84375 
Q 37.203125 48.484375 30.078125 48.484375 
Q 22.953125 48.484375 18.875 42.84375 
Q 14.796875 37.203125 14.796875 27.296875 
z
M 45.40625 8.203125 
Q 42.578125 3.328125 38.25 0.953125 
Q 33.9375 -1.421875 27.875 -1.421875 
Q 17.96875 -1.421875 11.734375 6.484375 
Q 5.515625 14.40625 5.515625 27.296875 
Q 5.515625 40.1875 11.734375 48.09375 
Q 17.96875 56 27.875 56 
Q 33.9375 56 38.25 53.625 
Q 42.578125 51.265625 45.40625 46.390625 
L 45.40625 54.6875 
L 54.390625 54.6875 
L 54.390625 -20.796875 
L 45.40625 -20.796875 
z
" id="DejaVuSans-113"/>
      <path d="M 54.890625 33.015625 
L 54.890625 0 
L 45.90625 0 
L 45.90625 32.71875 
Q 45.90625 40.484375 42.875 44.328125 
Q 39.84375 48.1875 33.796875 48.1875 
Q 26.515625 48.1875 22.3125 43.546875 
Q 18.109375 38.921875 18.109375 30.90625 
L 18.109375 0 
L 9.078125 0 
L 9.078125 54.6875 
L 18.109375 54.6875 
L 18.109375 46.1875 
Q 21.34375 51.125 25.703125 53.5625 
Q 30.078125 56 35.796875 56 
Q 45.21875 56 50.046875 50.171875 
Q 54.890625 44.34375 54.890625 33.015625 
z
" id="DejaVuSans-110"/>
      <path d="M 48.78125 52.59375 
L 48.78125 44.1875 
Q 44.96875 46.296875 41.140625 47.34375 
Q 37.3125 48.390625 33.40625 48.390625 
Q 24.65625 48.390625 19.8125 42.84375 
Q 14.984375 37.3125 14.984375 27.296875 
Q 14.984375 17.28125 19.8125 11.734375 
Q 24.65625 6.203125 33.40625 6.203125 
Q 37.3125 6.203125 41.140625 7.25 
Q 44.96875 8.296875 48.78125 10.40625 
L 48.78125 2.09375 
Q 45.015625 0.34375 40.984375 -0.53125 
Q 36.96875 -1.421875 32.421875 -1.421875 
Q 20.0625 -1.421875 12.78125 6.34375 
Q 5.515625 14.109375 5.515625 27.296875 
Q 5.515625 40.671875 12.859375 48.328125 
Q 20.21875 56 33.015625 56 
Q 37.15625 56 41.109375 55.140625 
Q 45.0625 54.296875 48.78125 52.59375 
z
" id="DejaVuSans-99"/>
      <path d="M 32.171875 -5.078125 
Q 28.375 -14.84375 24.75 -17.8125 
Q 21.140625 -20.796875 15.09375 -20.796875 
L 7.90625 -20.796875 
L 7.90625 -13.28125 
L 13.1875 -13.28125 
Q 16.890625 -13.28125 18.9375 -11.515625 
Q 21 -9.765625 23.484375 -3.21875 
L 25.09375 0.875 
L 2.984375 54.6875 
L 12.5 54.6875 
L 29.59375 11.921875 
L 46.6875 54.6875 
L 56.203125 54.6875 
z
" id="DejaVuSans-121"/>
      <path d="M 31 75.875 
Q 24.46875 64.65625 21.28125 53.65625 
Q 18.109375 42.671875 18.109375 31.390625 
Q 18.109375 20.125 21.3125 9.0625 
Q 24.515625 -2 31 -13.1875 
L 23.1875 -13.1875 
Q 15.875 -1.703125 12.234375 9.375 
Q 8.59375 20.453125 8.59375 31.390625 
Q 8.59375 42.28125 12.203125 53.3125 
Q 15.828125 64.359375 23.1875 75.875 
z
" id="DejaVuSans-40"/>
      <path d="M 70.125 53.71875 
L 47.796875 31.296875 
L 70.125 8.984375 
L 64.3125 3.078125 
L 41.890625 25.484375 
L 19.484375 3.078125 
L 13.71875 8.984375 
L 35.984375 31.296875 
L 13.71875 53.71875 
L 19.484375 59.625 
L 41.890625 37.203125 
L 64.3125 59.625 
z
" id="DejaVuSans-215"/>
      <path d="M 9.125 54.6875 
L 61.53125 54.6875 
L 59.765625 45.703125 
L 52.875 45.703125 
L 46.34375 12.109375 
Q 45.65625 8.59375 46.578125 7.03125 
Q 47.46875 5.515625 50.140625 5.515625 
Q 50.875 5.515625 51.953125 5.671875 
Q 53.078125 5.765625 53.421875 5.8125 
L 52.15625 -0.6875 
Q 50.34375 -1.3125 48.484375 -1.609375 
Q 46.578125 -1.90625 44.78125 -1.90625 
Q 38.921875 -1.90625 37.3125 1.265625 
Q 35.6875 4.5 37.359375 13.09375 
L 43.703125 45.703125 
L 23.53125 45.703125 
L 14.65625 0 
L 5.46875 0 
L 14.359375 45.703125 
L 7.375 45.703125 
z
" id="DejaVuSans-Oblique-960"/>
      <path d="M 25.390625 72.90625 
L 33.6875 72.90625 
L 8.296875 -9.28125 
L 0 -9.28125 
z
" id="DejaVuSans-47"/>
      <path d="M 8.015625 75.875 
L 15.828125 75.875 
Q 23.140625 64.359375 26.78125 53.3125 
Q 30.421875 42.28125 30.421875 31.390625 
Q 30.421875 20.453125 26.78125 9.375 
Q 23.140625 -1.703125 15.828125 -13.1875 
L 8.015625 -13.1875 
Q 14.5 -2 17.703125 9.0625 
Q 20.90625 20.125 20.90625 31.390625 
Q 20.90625 42.671875 17.703125 53.65625 
Q 14.5 64.65625 8.015625 75.875 
z
" id="DejaVuSans-41"/>
     </defs>
     <g transform="translate(560.955 415.438125)scale(0.1 -0.1)">
      <use transform="translate(0 0.015625)" xlink:href="#DejaVuSans-78"/>
      <use transform="translate(74.804688 0.015625)" xlink:href="#DejaVuSans-111"/>
      <use transform="translate(135.986328 0.015625)" xlink:href="#DejaVuSans-114"/>
      <use transform="translate(177.099609 0.015625)" xlink:href="#DejaVuSans-109"/>
      <use transform="translate(274.511719 0.015625)" xlink:href="#DejaVuSans-97"/>
      <use transform="translate(335.791016 0.015625)" xlink:href="#DejaVuSans-108"/>
      <use transform="translate(363.574219 0.015625)" xlink:href="#DejaVuSans-105"/>
      <use transform="translate(391.357422 0.015625)" xlink:href="#DejaVuSans-122"/>
      <use transform="translate(443.847656 0.015625)" xlink:href="#DejaVuSans-101"/>
      <use transform="translate(505.371094 0.015625)" xlink:href="#DejaVuSans-100"/>
      <use transform="translate(568.847656 0.015625)" xlink:href="#DejaVuSans-32"/>
      <use transform="translate(600.634766 0.015625)" xlink:href="#DejaVuSans-70"/>
      <use transform="translate(658.154297 0.015625)" xlink:href="#DejaVuSans-114"/>
      <use transform="translate(699.267578 0.015625)" xlink:href="#DejaVuSans-101"/>
      <use transform="translate(760.791016 0.015625)" xlink:href="#DejaVuSans-113"/>
      <use transform="translate(824.267578 0.015625)" xlink:href="#DejaVuSans-117"/>
      <use transform="translate(887.646484 0.015625)" xlink:href="#DejaVuSans-101"/>
      <use transform="translate(949.169922 0.015625)" xlink:href="#DejaVuSans-110"/>
      <use transform="translate(1012.548828 0.015625)" xlink:href="#DejaVuSans-99"/>
      <use transform="translate(1067.529297 0.015625)" xlink:href="#DejaVuSans-121"/>
      <use transform="translate(1126.708984 0.015625)" xlink:href="#DejaVuSans-32"/>
      <use transform="translate(1158.496094 0.015625)" xlink:href="#DejaVuSans-40"/>
      <use transform="translate(1197.509766 0.015625)" xlink:href="#DejaVuSans-215"/>
      <use transform="translate(1281.298828 0.015625)" xlink:href="#DejaVuSans-Oblique-960"/>
      <use transform="translate(1341.503906 0.015625)" xlink:href="#DejaVuSans-32"/>
      <use transform="translate(1373.291016 0.015625)" xlink:href="#DejaVuSans-114"/>
      <use transform="translate(1414.404297 0.015625)" xlink:href="#DejaVuSans-97"/>
      <use transform="translate(1475.683594 0.015625)" xlink:href="#DejaVuSans-100"/>
      <use transform="translate(1539.160156 0.015625)" xlink:href="#DejaVuSans-47"/>
      <use transform="translate(1572.851562 0.015625)" xlink:href="#DejaVuSans-115"/>
      <use transform="translate(1624.951172 0.015625)" xlink:href="#DejaVuSans-97"/>
      <use transform="translate(1686.230469 0.015625)" xlink:href="#DejaVuSans-109"/>
      <use transform="translate(1783.642578 0.015625)" xlink:href="#DejaVuSans-112"/>
      <use transform="translate(1847.119141 0.015625)" xlink:href="#DejaVuSans-108"/>
      <use transform="translate(1874.902344 0.015625)" xlink:href="#DejaVuSans-101"/>
      <use transform="translate(1936.425781 0.015625)" xlink:href="#DejaVuSans-41"/>
     </g>
    </g>
   </g>
   <g id="matplotlib.axis_4">
    <g id="ytick_6">
     <g id="line2d_38">
      <path clip-path="url(#p6edaed3a83)" d="M 474.23 357.720863 
L 845.28 357.720863 
" style="fill:none;stroke:#777777;stroke-linecap:square;stroke-width:0.8;"/>
     </g>
     <g id="line2d_39">
      <g>
       <use style="stroke:#000000;stroke-width:0.8;" x="474.23" xlink:href="#m223692a064" y="357.720863"/>
      </g>
     </g>
     <g id="text_22">
      <!-- −80 -->
      <defs>
       <path d="M 10.59375 35.5 
L 73.1875 35.5 
L 73.1875 27.203125 
L 10.59375 27.203125 
z
" id="DejaVuSans-8722"/>
      </defs>
      <g transform="translate(446.125312 361.520082)scale(0.1 -0.1)">
       <use xlink:href="#DejaVuSans-8722"/>
       <use x="83.789062" xlink:href="#DejaVuSans-56"/>
       <use x="147.412109" xlink:href="#DejaVuSans-48"/>
      </g>
     </g>
    </g>
    <g id="ytick_7">
     <g id="line2d_40">
      <path clip-path="url(#p6edaed3a83)" d="M 474.23 303.016407 
L 845.28 303.016407 
" style="fill:none;stroke:#777777;stroke-linecap:square;stroke-width:0.8;"/>
     </g>
     <g id="line2d_41">
      <g>
       <use style="stroke:#000000;stroke-width:0.8;" x="474.23" xlink:href="#m223692a064" y="303.016407"/>
      </g>
     </g>
     <g id="text_23">
      <!-- −60 -->
      <g transform="translate(446.125312 306.815626)scale(0.1 -0.1)">
       <use xlink:href="#DejaVuSans-8722"/>
       <use x="83.789062" xlink:href="#DejaVuSans-54"/>
       <use x="147.412109" xlink:href="#DejaVuSans-48"/>
      </g>
     </g>
    </g>
    <g id="ytick_8">
     <g id="line2d_42">
      <path clip-path="url(#p6edaed3a83)" d="M 474.23 248.311951 
L 845.28 248.311951 
" style="fill:none;stroke:#777777;stroke-linecap:square;stroke-width:0.8;"/>
     </g>
     <g id="line2d_43">
      <g>
       <use style="stroke:#000000;stroke-width:0.8;" x="474.23" xlink:href="#m223692a064" y="248.311951"/>
      </g>
     </g>
     <g id="text_24">
      <!-- −40 -->
      <g transform="translate(446.125312 252.11117)scale(0.1 -0.1)">
       <use xlink:href="#DejaVuSans-8722"/>
       <use x="83.789062" xlink:href="#DejaVuSans-52"/>
       <use x="147.412109" xlink:href="#DejaVuSans-48"/>
      </g>
     </g>
    </g>
    <g id="ytick_9">
     <g id="line2d_44">
      <path clip-path="url(#p6edaed3a83)" d="M 474.23 193.607495 
L 845.28 193.607495 
" style="fill:none;stroke:#777777;stroke-linecap:square;stroke-width:0.8;"/>
     </g>
     <g id="line2d_45">
      <g>
       <use style="stroke:#000000;stroke-width:0.8;" x="474.23" xlink:href="#m223692a064" y="193.607495"/>
      </g>
     </g>
     <g id="text_25">
      <!-- −20 -->
      <g transform="translate(446.125312 197.406714)scale(0.1 -0.1)">
       <use xlink:href="#DejaVuSans-8722"/>
       <use x="83.789062" xlink:href="#DejaVuSans-50"/>
       <use x="147.412109" xlink:href="#DejaVuSans-48"/>
      </g>
     </g>
    </g>
    <g id="ytick_10">
     <g id="line2d_46">
      <path clip-path="url(#p6edaed3a83)" d="M 474.23 138.90304 
L 845.28 138.90304 
" style="fill:none;stroke:#777777;stroke-linecap:square;stroke-width:0.8;"/>
     </g>
     <g id="line2d_47">
      <g>
       <use style="stroke:#000000;stroke-width:0.8;" x="474.23" xlink:href="#m223692a064" y="138.90304"/>
      </g>
     </g>
     <g id="text_26">
      <!-- 0 -->
      <g transform="translate(460.8675 142.702258)scale(0.1 -0.1)">
       <use xlink:href="#DejaVuSans-48"/>
      </g>
     </g>
    </g>
    <g id="ytick_11">
     <g id="line2d_48">
      <path clip-path="url(#p6edaed3a83)" d="M 474.23 84.198584 
L 845.28 84.198584 
" style="fill:none;stroke:#777777;stroke-linecap:square;stroke-width:0.8;"/>
     </g>
     <g id="line2d_49">
      <g>
       <use style="stroke:#000000;stroke-width:0.8;" x="474.23" xlink:href="#m223692a064" y="84.198584"/>
      </g>
     </g>
     <g id="text_27">
      <!-- 20 -->
      <g transform="translate(454.505 87.997803)scale(0.1 -0.1)">
       <use xlink:href="#DejaVuSans-50"/>
       <use x="63.623047" xlink:href="#DejaVuSans-48"/>
      </g>
     </g>
    </g>
    <g id="text_28">
     <!-- Gain (dB) -->
     <defs>
      <path d="M 59.515625 10.40625 
L 59.515625 29.984375 
L 43.40625 29.984375 
L 43.40625 38.09375 
L 69.28125 38.09375 
L 69.28125 6.78125 
Q 63.578125 2.734375 56.6875 0.65625 
Q 49.8125 -1.421875 42 -1.421875 
Q 24.90625 -1.421875 15.25 8.5625 
Q 5.609375 18.5625 5.609375 36.375 
Q 5.609375 54.25 15.25 64.234375 
Q 24.90625 74.21875 42 74.21875 
Q 49.125 74.21875 55.546875 72.453125 
Q 61.96875 70.703125 67.390625 67.28125 
L 67.390625 56.78125 
Q 61.921875 61.421875 55.765625 63.765625 
Q 49.609375 66.109375 42.828125 66.109375 
Q 29.4375 66.109375 22.71875 58.640625 
Q 16.015625 51.171875 16.015625 36.375 
Q 16.015625 21.625 22.71875 14.15625 
Q 29.4375 6.6875 42.828125 6.6875 
Q 48.046875 6.6875 52.140625 7.59375 
Q 56.25 8.5 59.515625 10.40625 
z
" id="DejaVuSans-71"/>
      <path d="M 19.671875 34.8125 
L 19.671875 8.109375 
L 35.5 8.109375 
Q 43.453125 8.109375 47.28125 11.40625 
Q 51.125 14.703125 51.125 21.484375 
Q 51.125 28.328125 47.28125 31.5625 
Q 43.453125 34.8125 35.5 34.8125 
z
M 19.671875 64.796875 
L 19.671875 42.828125 
L 34.28125 42.828125 
Q 41.5 42.828125 45.03125 45.53125 
Q 48.578125 48.25 48.578125 53.8125 
Q 48.578125 59.328125 45.03125 62.0625 
Q 41.5 64.796875 34.28125 64.796875 
z
M 9.8125 72.90625 
L 35.015625 72.90625 
Q 46.296875 72.90625 52.390625 68.21875 
Q 58.5 63.53125 58.5 54.890625 
Q 58.5 48.1875 55.375 44.234375 
Q 52.25 40.28125 46.1875 39.3125 
Q 53.46875 37.75 57.5 32.78125 
Q 61.53125 27.828125 61.53125 20.40625 
Q 61.53125 10.640625 54.890625 5.3125 
Q 48.25 0 35.984375 0 
L 9.8125 0 
z
" id="DejaVuSans-66"/>
     </defs>
     <g transform="translate(440.045625 236.791406)rotate(-90)scale(0.1 -0.1)">
      <use xlink:href="#DejaVuSans-71"/>
      <use x="77.490234" xlink:href="#DejaVuSans-97"/>
      <use x="138.769531" xlink:href="#DejaVuSans-105"/>
      <use x="166.552734" xlink:href="#DejaVuSans-110"/>
      <use x="229.931641" xlink:href="#DejaVuSans-32"/>
      <use x="261.71875" xlink:href="#DejaVuSans-40"/>
      <use x="300.732422" xlink:href="#DejaVuSans-100"/>
      <use x="364.208984" xlink:href="#DejaVuSans-66"/>
      <use x="432.8125" xlink:href="#DejaVuSans-41"/>
     </g>
    </g>
   </g>
   <g id="line2d_50">
    <path clip-path="url(#p6edaed3a83)" d="M 474.23 55.054545 
L 474.954707 55.126767 
L 475.679414 55.343639 
L 476.404121 55.70579 
L 477.128828 56.214276 
L 478.578242 57.676723 
L 480.027656 59.748768 
L 481.47707 62.456837 
L 482.926484 65.837803 
L 484.375898 69.941778 
L 485.825312 74.836483 
L 487.274727 80.614226 
L 488.724141 87.403574 
L 490.173555 95.390117 
L 491.622969 104.856747 
L 493.072383 116.271803 
L 494.521797 130.519522 
L 495.246504 139.258042 
L 495.971211 149.707007 
L 496.695918 163.005254 
L 497.420625 182.487577 
L 498.145332 236.823771 
L 498.870039 199.657126 
L 499.594746 187.19669 
L 500.319453 183.483906 
L 501.04416 183.612343 
L 501.768867 186.301767 
L 502.493574 191.172182 
L 503.218281 198.256785 
L 503.942988 207.904042 
L 504.667695 220.763699 
L 506.117109 252.968885 
L 506.841816 249.93983 
L 508.29123 217.79677 
L 509.015937 205.997821 
L 509.740645 196.968513 
L 510.465352 190.004272 
L 511.190059 184.634933 
L 511.914766 180.557704 
L 512.639473 177.578933 
L 513.36418 175.579349 
L 514.088887 174.495612 
L 514.813594 174.313136 
L 515.538301 175.068822 
L 516.263008 176.866708 
L 516.987715 179.917748 
L 517.712422 184.638623 
L 518.437129 191.935939 
L 519.161836 204.325986 
L 519.886543 235.995749 
L 520.61125 221.045177 
L 521.335957 199.130525 
L 522.060664 188.400707 
L 522.785371 181.652712 
L 523.510078 177.106927 
L 524.234785 174.056539 
L 524.959492 172.163692 
L 525.684199 171.259332 
L 526.408906 171.2717 
L 527.133613 172.201523 
L 527.85832 174.122595 
L 528.583027 177.20821 
L 529.307734 181.806389 
L 530.032441 188.6519 
L 530.757148 199.62542 
L 531.481855 222.690559 
L 532.206562 232.32003 
L 532.93127 202.944156 
L 533.655977 190.815476 
L 534.380684 183.534314 
L 535.105391 178.736218 
L 535.830098 175.553721 
L 536.554805 173.586708 
L 537.279512 172.636412 
L 538.004219 172.614203 
L 538.728926 173.509027 
L 539.453633 175.383738 
L 540.17834 178.397364 
L 540.903047 182.87247 
L 541.627754 189.483557 
L 542.352461 199.908508 
L 543.801875 241.405452 
L 544.526582 206.656523 
L 545.251289 193.750512 
L 545.975996 186.162006 
L 546.700703 181.199831 
L 547.42541 177.913952 
L 548.150117 175.873347 
L 548.874824 174.864651 
L 549.599531 174.790861 
L 550.324238 175.63492 
L 551.048945 177.453919 
L 551.773652 180.399243 
L 552.498359 184.779851 
L 553.223066 191.238624 
L 553.947773 201.350799 
L 554.67248 220.974368 
L 555.397187 249.050769 
L 556.121895 210.014437 
L 556.846602 196.597795 
L 557.571309 188.803013 
L 558.296016 183.724005 
L 559.020723 180.358865 
L 559.74543 178.257534 
L 560.470137 177.197718 
L 561.194844 177.07728 
L 561.919551 177.87544 
L 562.644258 179.645664 
L 563.368965 182.534483 
L 564.093672 186.842227 
L 564.818379 193.19191 
L 565.543086 203.095563 
L 566.267793 222.027487 
L 566.9925 255.676049 
L 567.717207 213.008726 
L 568.441914 199.22403 
L 569.166621 191.278737 
L 569.891328 186.111564 
L 570.616035 182.684257 
L 571.340742 180.533584 
L 572.065449 179.431111 
L 572.790156 179.271172 
L 573.514863 180.030406 
L 574.23957 181.75975 
L 574.964277 184.602333 
L 575.688984 188.852438 
L 576.413691 195.119247 
L 577.138398 204.871347 
L 577.863105 223.328589 
L 578.587812 261.542833 
L 579.31252 215.677897 
L 580.037227 201.611633 
L 580.761934 193.550408 
L 581.486641 188.313887 
L 582.211348 184.836532 
L 582.936055 182.645318 
L 583.660762 181.507266 
L 584.385469 181.314094 
L 585.110176 182.040529 
L 585.834883 183.735621 
L 586.55959 186.53995 
L 587.284297 190.74328 
L 588.009004 196.944493 
L 588.733711 206.580135 
L 589.458418 224.687048 
L 590.183125 266.826325 
L 590.907832 218.06552 
L 591.632539 203.774651 
L 592.357246 195.62061 
L 593.081953 190.327794 
L 593.80666 186.809189 
L 594.531367 184.584122 
L 595.256074 183.41607 
L 595.980781 183.194718 
L 596.705488 183.893302 
L 597.430195 185.559396 
L 598.154902 188.331584 
L 598.879609 192.49609 
L 599.604316 198.643757 
L 600.329023 208.186299 
L 601.05373 226.021408 
L 601.778437 271.650596 
L 602.503145 220.210396 
L 603.227852 205.734664 
L 603.952559 197.504102 
L 604.677266 192.164428 
L 605.401973 188.611126 
L 606.12668 186.357323 
L 606.851387 185.163635 
L 607.576094 184.918107 
L 608.300801 185.592768 
L 609.025508 187.233996 
L 609.750215 189.978757 
L 610.474922 194.110404 
L 611.199629 200.213283 
L 611.924336 209.679145 
L 612.649043 227.295479 
L 613.37375 276.107559 
L 614.098457 222.144962 
L 614.823164 207.513304 
L 615.547871 199.21817 
L 616.272578 193.838683 
L 616.997285 190.255677 
L 617.721992 187.977111 
L 618.446699 186.761225 
L 619.171406 186.494699 
L 619.896113 187.148559 
L 620.62082 188.768189 
L 621.345527 191.489205 
L 622.070234 195.592571 
L 622.794941 201.657232 
L 623.519648 211.058431 
L 624.244355 228.493607 
L 624.969062 280.268021 
L 625.69377 223.89584 
L 626.418477 209.130023 
L 627.143184 200.779351 
L 627.867891 195.365451 
L 628.592598 191.756623 
L 629.317305 189.456425 
L 630.042012 188.221074 
L 630.766719 187.936091 
L 631.491426 188.571653 
L 632.216133 190.172294 
L 632.94084 192.872483 
L 633.665547 196.951148 
L 634.390254 202.982648 
L 635.114961 212.328255 
L 635.839668 229.609979 
L 636.564375 284.188547 
L 637.289082 225.484818 
L 638.013789 210.601642 
L 638.738496 202.202428 
L 639.463203 196.758339 
L 640.18791 193.126761 
L 640.912617 190.80743 
L 641.637324 189.554814 
L 642.362031 189.25343 
L 643.086738 189.872717 
L 643.811445 191.456476 
L 644.536152 194.138178 
L 645.260859 198.19499 
L 645.985566 204.1973 
L 646.710273 213.494333 
L 647.43498 230.643617 
L 648.159687 287.915954 
L 648.884395 226.929782 
L 649.609102 211.942481 
L 650.333809 203.500252 
L 651.058516 198.029337 
L 651.783223 194.377474 
L 652.50793 192.041034 
L 653.232637 190.772941 
L 653.957344 190.456832 
L 654.682051 191.061497 
L 655.406758 192.63009 
L 656.131465 195.295207 
L 656.856172 199.332461 
L 657.580879 205.308753 
L 658.305586 214.562753 
L 659.030293 231.595912 
L 659.755 291.490455 
L 660.479707 228.245498 
L 661.204414 213.164673 
L 661.929121 204.683865 
L 662.653828 199.18884 
L 663.378535 195.518697 
L 664.103242 193.1668 
L 664.827949 191.884699 
L 665.552656 191.555245 
L 666.277363 192.14665 
L 667.00207 193.701491 
L 667.726777 196.351581 
L 668.451484 200.37115 
L 669.176191 206.323994 
L 669.900898 215.539404 
L 670.625605 232.46935 
L 671.350312 294.94797 
L 672.07502 229.444236 
L 672.799727 214.278493 
L 673.524434 205.762712 
L 674.249141 200.245796 
L 674.973848 196.55902 
L 675.698555 194.19303 
L 676.423262 192.898138 
L 677.147969 192.556484 
L 677.872676 193.135758 
L 678.597383 194.67802 
L 679.32209 197.314374 
L 680.046797 201.317803 
L 680.771504 207.249302 
L 681.496211 216.429734 
L 682.220918 233.266844 
L 682.945625 298.322005 
L 683.670332 230.536253 
L 684.395039 215.292654 
L 685.119746 206.744863 
L 685.844453 201.207889 
L 686.56916 197.505844 
L 687.293867 195.126896 
L 688.018574 193.820226 
L 688.743281 193.467329 
L 689.467988 194.035419 
L 690.192695 195.56608 
L 690.917402 198.189774 
L 691.642109 202.178345 
L 692.366816 208.090239 
L 693.091523 217.238659 
L 693.81623 233.991382 
L 694.540937 301.645304 
L 695.265645 231.530176 
L 695.990352 216.214564 
L 696.715059 207.63722 
L 697.439766 202.081709 
L 698.164473 198.365534 
L 698.88918 195.974579 
L 699.613887 194.656983 
L 700.338594 194.293646 
L 701.063301 194.851345 
L 701.788008 196.371229 
L 702.512715 198.983164 
L 703.237422 202.95795 
L 703.962129 208.851689 
L 704.686836 217.970554 
L 705.411543 234.645836 
L 706.13625 304.951507 
L 706.860957 232.433294 
L 707.585664 217.050537 
L 708.310371 208.445689 
L 709.035078 202.872915 
L 709.759785 199.143566 
L 710.484492 196.741403 
L 711.209199 195.413597 
L 711.933906 195.040498 
L 712.658613 195.588477 
L 713.38332 197.098276 
L 714.108027 199.699213 
L 714.832734 203.661114 
L 715.557441 209.537911 
L 716.282148 218.629272 
L 717.006855 235.232871 
L 717.731562 308.277018 
L 718.45627 233.251795 
L 719.180977 217.805964 
L 719.905684 209.175327 
L 720.630391 203.586361 
L 721.355098 199.844643 
L 722.079805 197.431946 
L 722.804512 196.094536 
L 723.529219 195.712249 
L 724.253926 196.251073 
L 724.978633 197.751374 
L 725.70334 200.341954 
L 726.428047 204.291732 
L 727.152754 210.152606 
L 727.877461 219.21818 
L 728.602168 235.754897 
L 729.326875 311.663378 
L 730.051582 233.990949 
L 730.776289 218.485453 
L 731.500996 209.830469 
L 732.225703 204.226212 
L 732.95041 200.472805 
L 733.675117 198.050142 
L 734.399824 196.703642 
L 735.124531 196.312651 
L 735.849238 196.842801 
L 736.573945 198.334101 
L 737.298652 200.914866 
L 738.023359 204.85316 
L 738.748066 210.698971 
L 739.472773 219.740199 
L 740.19748 236.214055 
L 740.922187 315.160554 
L 741.646895 234.655248 
L 742.371602 219.092945 
L 743.096309 210.414825 
L 743.821016 204.796035 
L 744.545723 201.031512 
L 745.27043 198.599367 
L 745.995137 197.244209 
L 746.719844 196.844924 
L 747.444551 197.366806 
L 748.169258 198.849523 
L 748.893965 201.420932 
L 749.618672 205.348283 
L 750.343379 211.179753 
L 751.068086 220.197848 
L 751.792793 236.612213 
L 752.5175 318.831932 
L 753.242207 235.248531 
L 753.966914 219.631804 
L 754.691621 210.931564 
L 755.416328 205.298879 
L 756.141035 201.523721 
L 756.865742 199.082498 
L 757.590449 197.719049 
L 758.315156 197.311816 
L 759.039863 197.825772 
L 759.76457 199.30026 
L 760.489277 201.862698 
L 761.213984 205.779559 
L 761.938691 211.597296 
L 762.663398 220.593271 
L 763.388105 236.95097 
L 764.112813 322.762418 
L 764.83752 235.77407 
L 765.562227 220.104896 
L 766.286934 211.383381 
L 767.011641 205.737334 
L 767.736348 201.951944 
L 768.461055 199.501984 
L 769.185762 198.130548 
L 769.910469 197.715658 
L 770.635176 198.221974 
L 771.359883 199.688528 
L 772.08459 202.242316 
L 772.809297 206.149068 
L 773.534004 211.953576 
L 774.258711 220.928279 
L 774.983418 237.231668 
L 775.708125 327.072648 
L 776.432832 236.234648 
L 777.157539 220.514644 
L 777.882246 211.772553 
L 778.606953 206.113585 
L 779.33166 202.318299 
L 780.056367 199.859882 
L 780.781074 198.480714 
L 781.505781 198.058406 
L 782.230488 198.557318 
L 782.955195 200.016183 
L 783.679902 202.561588 
L 784.404609 206.458542 
L 785.129316 212.250239 
L 785.854023 221.204367 
L 786.57873 237.455402 
L 787.303437 331.946085 
L 788.028145 236.632622 
L 788.752852 220.863084 
L 789.477559 212.100984 
L 790.202266 206.429454 
L 790.926973 202.624544 
L 791.65168 200.157901 
L 792.376387 198.771207 
L 793.101094 198.341678 
L 793.825801 198.833379 
L 794.550508 200.284754 
L 795.275215 202.82199 
L 795.999922 206.709401 
L 796.724629 212.488625 
L 797.449336 221.422744 
L 798.174043 237.623022 
L 798.89875 337.686586 
L 799.623457 236.969967 
L 800.348164 221.151902 
L 801.072871 212.37024 
L 801.797578 206.686434 
L 802.522285 202.872118 
L 803.246992 200.397433 
L 803.971699 199.003377 
L 804.696406 198.566781 
L 805.421113 199.051425 
L 806.14582 200.495465 
L 806.870527 203.024703 
L 807.595234 206.90277 
L 808.319941 212.669786 
L 809.044648 221.584346 
L 809.769355 237.735148 
L 810.494062 344.860207 
L 811.21877 237.24832 
L 811.943477 221.382466 
L 812.668184 212.581582 
L 813.392891 206.885718 
L 814.117598 203.062162 
L 814.842305 200.579573 
L 815.567012 199.178282 
L 816.291719 198.734737 
L 817.016426 199.212439 
L 817.741133 200.649263 
L 818.46584 203.170631 
L 819.190547 207.039503 
L 819.915254 212.794512 
L 820.639961 221.68985 
L 821.364668 237.792167 
L 822.089375 354.733891 
L 822.814082 237.469009 
L 823.538789 221.555852 
L 824.263496 212.735983 
L 824.988203 207.028216 
L 825.71291 203.195538 
L 826.437617 200.705145 
L 827.162324 199.296707 
L 827.887031 198.846296 
L 828.611738 199.317137 
L 829.336445 200.746827 
L 830.061152 203.260413 
L 830.785859 207.120194 
L 831.510566 212.863332 
L 832.235273 221.739686 
L 832.95998 237.794244 
L 833.684687 371.345455 
L 834.409395 237.63308 
L 835.134102 221.672862 
L 835.858809 212.834149 
L 836.583516 207.114574 
L 837.308223 203.272847 
L 838.03293 200.774712 
L 838.757637 199.359181 
L 839.482344 198.901954 
L 840.207051 199.36598 
L 840.931758 200.788584 
L 841.656465 203.294438 
L 842.381172 207.145185 
L 843.105879 212.876531 
L 843.830586 221.734041 
L 844.555293 237.741313 
L 844.555293 237.741313 
" style="fill:none;stroke:#0072bd;stroke-linecap:square;stroke-width:1.4;"/>
   </g>
   <g id="patch_8">
    <path d="M 474.23 387.16 
L 474.23 39.24 
" style="fill:none;stroke:#000000;stroke-linecap:square;stroke-linejoin:miter;stroke-width:0.8;"/>
   </g>
   <g id="patch_9">
    <path d="M 845.28 387.16 
L 845.28 39.24 
" style="fill:none;stroke:#000000;stroke-linecap:square;stroke-linejoin:miter;stroke-width:0.8;"/>
   </g>
   <g id="patch_10">
    <path d="M 474.23 387.16 
L 845.28 387.16 
" style="fill:none;stroke:#000000;stroke-linecap:square;stroke-linejoin:miter;stroke-width:0.8;"/>
   </g>
   <g id="patch_11">
    <path d="M 474.23 39.24 
L 845.28 39.24 
" style="fill:none;stroke:#000000;stroke-linecap:square;stroke-linejoin:miter;stroke-width:0.8;"/>
   </g>
  </g>
  <g id="text_29">
   <!-- Hamming window -->
   <defs>
    <path d="M 9.8125 72.90625 
L 19.671875 72.90625 
L 19.671875 43.015625 
L 55.515625 43.015625 
L 55.515625 72.90625 
L 65.375 72.90625 
L 65.375 0 
L 55.515625 0 
L 55.515625 34.71875 
L 19.671875 34.71875 
L 19.671875 0 
L 9.8125 0 
z
" id="DejaVuSans-72"/>
    <path d="M 45.40625 27.984375 
Q 45.40625 37.75 41.375 43.109375 
Q 37.359375 48.484375 30.078125 48.484375 
Q 22.859375 48.484375 18.828125 43.109375 
Q 14.796875 37.75 14.796875 27.984375 
Q 14.796875 18.265625 18.828125 12.890625 
Q 22.859375 7.515625 30.078125 7.515625 
Q 37.359375 7.515625 41.375 12.890625 
Q 45.40625 18.265625 45.40625 27.984375 
z
M 54.390625 6.78125 
Q 54.390625 -7.171875 48.1875 -13.984375 
Q 42 -20.796875 29.203125 -20.796875 
Q 24.46875 -20.796875 20.265625 -20.09375 
Q 16.0625 -19.390625 12.109375 -17.921875 
L 12.109375 -9.1875 
Q 16.0625 -11.328125 19.921875 -12.34375 
Q 23.78125 -13.375 27.78125 -13.375 
Q 36.625 -13.375 41.015625 -8.765625 
Q 45.40625 -4.15625 45.40625 5.171875 
L 45.40625 9.625 
Q 42.625 4.78125 38.28125 2.390625 
Q 33.9375 0 27.875 0 
Q 17.828125 0 11.671875 7.65625 
Q 5.515625 15.328125 5.515625 27.984375 
Q 5.515625 40.671875 11.671875 48.328125 
Q 17.828125 56 27.875 56 
Q 33.9375 56 38.28125 53.609375 
Q 42.625 51.21875 45.40625 46.390625 
L 45.40625 54.6875 
L 54.390625 54.6875 
z
" id="DejaVuSans-103"/>
    <path d="M 4.203125 54.6875 
L 13.1875 54.6875 
L 24.421875 12.015625 
L 35.59375 54.6875 
L 46.1875 54.6875 
L 57.421875 12.015625 
L 68.609375 54.6875 
L 77.59375 54.6875 
L 63.28125 0 
L 52.6875 0 
L 40.921875 44.828125 
L 29.109375 0 
L 18.5 0 
z
" id="DejaVuSans-119"/>
   </defs>
   <g transform="translate(360.23125 20.7975)scale(0.16 -0.16)">
    <use xlink:href="#DejaVuSans-72"/>
    <use x="75.195312" xlink:href="#DejaVuSans-97"/>
    <use x="136.474609" xlink:href="#DejaVuSans-109"/>
    <use x="233.886719" xlink:href="#DejaVuSans-109"/>
    <use x="331.298828" xlink:href="#DejaVuSans-105"/>
    <use x="359.082031" xlink:href="#DejaVuSans-110"/>
    <use x="422.460938" xlink:href="#DejaVuSans-103"/>
    <use x="485.9375" xlink:href="#DejaVuSans-32"/>
    <use x="517.724609" xlink:href="#DejaVuSans-119"/>
    <use x="599.511719" xlink:href="#DejaVuSans-105"/>
    <use x="627.294922" xlink:href="#DejaVuSans-110"/>
    <use x="690.673828" xlink:href="#DejaVuSans-100"/>
    <use x="754.150391" xlink:href="#DejaVuSans-111"/>
    <use x="815.332031" xlink:href="#DejaVuSans-119"/>
   </g>
  </g>
 </g>
 <defs>
  <clipPath id="p79177e7d8d">
   <rect height="347.92" width="371.05" x="47.72" y="39.24"/>
  </clipPath>
  <clipPath id="p6edaed3a83">
   <rect height="347.92" width="371.05" x="474.23" y="39.24"/>
  </clipPath>
 </defs>
</svg>
