<?xml version="1.0" encoding="utf-8" standalone="no"?>
<!DOCTYPE svg PUBLIC "-//W3C//DTD SVG 1.1//EN"
  "http://www.w3.org/Graphics/SVG/1.1/DTD/svg11.dtd">
<!-- Created with matplotlib (https://matplotlib.org/) -->
<svg height="432pt" version="1.1" viewBox="0 0 864 432" width="864pt" xmlns="http://www.w3.org/2000/svg" xmlns:xlink="http://www.w3.org/1999/xlink">
 <defs>
  <style type="text/css">
*{stroke-linecap:butt;stroke-linejoin:round;}
  </style>
 </defs>
 <g id="figure_1">
  <g id="patch_1">
   <path d="M 0 432 
L 864 432 
L 864 0 
L 0 0 
z
" style="fill:#ffffff;"/>
  </g>
  <g id="axes_1">
   <g id="patch_2">
    <path d="M 47.72 387.16 
L 415.575 387.16 
L 415.575 39.24 
L 47.72 39.24 
z
" style="fill:#ffffff;"/>
   </g>
   <g id="matplotlib.axis_1">
    <g id="xtick_1">
     <g id="line2d_1">
      <path clip-path="url(#p27494a8a68)" d="M 47.72 387.16 
L 47.72 39.24 
" style="fill:none;stroke:#777777;stroke-linecap:square;stroke-width:0.8;"/>
     </g>
     <g id="line2d_2">
      <defs>
       <path d="M 0 0 
L 0 3.5 
" id="mf5a66f271b" style="stroke:#000000;stroke-width:0.8;"/>
      </defs>
      <g>
       <use style="stroke:#000000;stroke-width:0.8;" x="47.72" xlink:href="#mf5a66f271b" y="387.16"/>
      </g>
     </g>
     <g id="text_1">
      <!-- 0 -->
      <defs>
       <path d="M 31.78125 66.40625 
Q 24.171875 66.40625 20.328125 58.90625 
Q 16.5 51.421875 16.5 36.375 
Q 16.5 21.390625 20.328125 13.890625 
Q 24.171875 6.390625 31.78125 6.390625 
Q 39.453125 6.390625 43.28125 13.890625 
Q 47.125 21.390625 47.125 36.375 
Q 47.125 51.421875 43.28125 58.90625 
Q 39.453125 66.40625 31.78125 66.40625 
z
M 31.78125 74.21875 
Q 44.046875 74.21875 50.515625 64.515625 
Q 56.984375 54.828125 56.984375 36.375 
Q 56.984375 17.96875 50.515625 8.265625 
Q 44.046875 -1.421875 31.78125 -1.421875 
Q 19.53125 -1.421875 13.0625 8.265625 
Q 6.59375 17.96875 6.59375 36.375 
Q 6.59375 54.828125 13.0625 64.515625 
Q 19.53125 74.21875 31.78125 74.21875 
z
" id="DejaVuSans-48"/>
      </defs>
      <g transform="translate(44.53875 401.758438)scale(0.1 -0.1)">
       <use xlink:href="#DejaVuSans-48"/>
      </g>
     </g>
    </g>
    <g id="xtick_2">
     <g id="line2d_3">
      <path clip-path="url(#p27494a8a68)" d="M 106.109683 387.16 
L 106.109683 39.24 
" style="fill:none;stroke:#777777;stroke-linecap:square;stroke-width:0.8;"/>
     </g>
     <g id="line2d_4">
      <g>
       <use style="stroke:#000000;stroke-width:0.8;" x="106.109683" xlink:href="#mf5a66f271b" y="387.16"/>
      </g>
     </g>
     <g id="text_2">
      <!-- 10 -->
      <defs>
       <path d="M 12.40625 8.296875 
L 28.515625 8.296875 
L 28.515625 63.921875 
L 10.984375 60.40625 
L 10.984375 69.390625 
L 28.421875 72.90625 
L 38.28125 72.90625 
L 38.28125 8.296875 
L 54.390625 8.296875 
L 54.390625 0 
L 12.40625 0 
z
" id="DejaVuSans-49"/>
      </defs>
      <g transform="translate(99.747183 401.758438)scale(0.1 -0.1)">
       <use xlink:href="#DejaVuSans-49"/>
       <use x="63.623047" xlink:href="#DejaVuSans-48"/>
      </g>
     </g>
    </g>
    <g id="xtick_3">
     <g id="line2d_5">
      <path clip-path="url(#p27494a8a68)" d="M 164.499365 387.16 
L 164.499365 39.24 
" style="fill:none;stroke:#777777;stroke-linecap:square;stroke-width:0.8;"/>
     </g>
     <g id="line2d_6">
      <g>
       <use style="stroke:#000000;stroke-width:0.8;" x="164.499365" xlink:href="#mf5a66f271b" y="387.16"/>
      </g>
     </g>
     <g id="text_3">
      <!-- 20 -->
      <defs>
       <path d="M 19.1875 8.296875 
L 53.609375 8.296875 
L 53.609375 0 
L 7.328125 0 
L 7.328125 8.296875 
Q 12.9375 14.109375 22.625 23.890625 
Q 32.328125 33.6875 34.8125 36.53125 
Q 39.546875 41.84375 41.421875 45.53125 
Q 43.3125 49.21875 43.3125 52.78125 
Q 43.3125 58.59375 39.234375 62.25 
Q 35.15625 65.921875 28.609375 65.921875 
Q 23.96875 65.921875 18.8125 64.3125 
Q 13.671875 62.703125 7.8125 59.421875 
L 7.8125 69.390625 
Q 13.765625 71.78125 18.9375 73 
Q 24.125 74.21875 28.421875 74.21875 
Q 39.75 74.21875 46.484375 68.546875 
Q 53.21875 62.890625 53.21875 53.421875 
Q 53.21875 48.921875 51.53125 44.890625 
Q 49.859375 40.875 45.40625 35.40625 
Q 44.1875 33.984375 37.640625 27.21875 
Q 31.109375 20.453125 19.1875 8.296875 
z
" id="DejaVuSans-50"/>
      </defs>
      <g transform="translate(158.136865 401.758438)scale(0.1 -0.1)">
       <use xlink:href="#DejaVuSans-50"/>
       <use x="63.623047" xlink:href="#DejaVuSans-48"/>
      </g>
     </g>
    </g>
    <g id="xtick_4">
     <g id="line2d_7">
      <path clip-path="url(#p27494a8a68)" d="M 222.889048 387.16 
L 222.889048 39.24 
" style="fill:none;stroke:#777777;stroke-linecap:square;stroke-width:0.8;"/>
     </g>
     <g id="line2d_8">
      <g>
       <use style="stroke:#000000;stroke-width:0.8;" x="222.889048" xlink:href="#mf5a66f271b" y="387.16"/>
      </g>
     </g>
     <g id="text_4">
      <!-- 30 -->
      <defs>
       <path d="M 40.578125 39.3125 
Q 47.65625 37.796875 51.625 33 
Q 55.609375 28.21875 55.609375 21.1875 
Q 55.609375 10.40625 48.1875 4.484375 
Q 40.765625 -1.421875 27.09375 -1.421875 
Q 22.515625 -1.421875 17.65625 -0.515625 
Q 12.796875 0.390625 7.625 2.203125 
L 7.625 11.71875 
Q 11.71875 9.328125 16.59375 8.109375 
Q 21.484375 6.890625 26.8125 6.890625 
Q 36.078125 6.890625 40.9375 10.546875 
Q 45.796875 14.203125 45.796875 21.1875 
Q 45.796875 27.640625 41.28125 31.265625 
Q 36.765625 34.90625 28.71875 34.90625 
L 20.21875 34.90625 
L 20.21875 43.015625 
L 29.109375 43.015625 
Q 36.375 43.015625 40.234375 45.921875 
Q 44.09375 48.828125 44.09375 54.296875 
Q 44.09375 59.90625 40.109375 62.90625 
Q 36.140625 65.921875 28.71875 65.921875 
Q 24.65625 65.921875 20.015625 65.03125 
Q 15.375 64.15625 9.8125 62.3125 
L 9.8125 71.09375 
Q 15.4375 72.65625 20.34375 73.4375 
Q 25.25 74.21875 29.59375 74.21875 
Q 40.828125 74.21875 47.359375 69.109375 
Q 53.90625 64.015625 53.90625 55.328125 
Q 53.90625 49.265625 50.4375 45.09375 
Q 46.96875 40.921875 40.578125 39.3125 
z
" id="DejaVuSans-51"/>
      </defs>
      <g transform="translate(216.526548 401.758438)scale(0.1 -0.1)">
       <use xlink:href="#DejaVuSans-51"/>
       <use x="63.623047" xlink:href="#DejaVuSans-48"/>
      </g>
     </g>
    </g>
    <g id="xtick_5">
     <g id="line2d_9">
      <path clip-path="url(#p27494a8a68)" d="M 281.27873 387.16 
L 281.27873 39.24 
" style="fill:none;stroke:#777777;stroke-linecap:square;stroke-width:0.8;"/>
     </g>
     <g id="line2d_10">
      <g>
       <use style="stroke:#000000;stroke-width:0.8;" x="281.27873" xlink:href="#mf5a66f271b" y="387.16"/>
      </g>
     </g>
     <g id="text_5">
      <!-- 40 -->
      <defs>
       <path d="M 37.796875 64.3125 
L 12.890625 25.390625 
L 37.796875 25.390625 
z
M 35.203125 72.90625 
L 47.609375 72.90625 
L 47.609375 25.390625 
L 58.015625 25.390625 
L 58.015625 17.1875 
L 47.609375 17.1875 
L 47.609375 0 
L 37.796875 0 
L 37.796875 17.1875 
L 4.890625 17.1875 
L 4.890625 26.703125 
z
" id="DejaVuSans-52"/>
      </defs>
      <g transform="translate(274.91623 401.758438)scale(0.1 -0.1)">
       <use xlink:href="#DejaVuSans-52"/>
       <use x="63.623047" xlink:href="#DejaVuSans-48"/>
      </g>
     </g>
    </g>
    <g id="xtick_6">
     <g id="line2d_11">
      <path clip-path="url(#p27494a8a68)" d="M 339.668413 387.16 
L 339.668413 39.24 
" style="fill:none;stroke:#777777;stroke-linecap:square;stroke-width:0.8;"/>
     </g>
     <g id="line2d_12">
      <g>
       <use style="stroke:#000000;stroke-width:0.8;" x="339.668413" xlink:href="#mf5a66f271b" y="387.16"/>
      </g>
     </g>
     <g id="text_6">
      <!-- 50 -->
      <defs>
       <path d="M 10.796875 72.90625 
L 49.515625 72.90625 
L 49.515625 64.59375 
L 19.828125 64.59375 
L 19.828125 46.734375 
Q 21.96875 47.46875 24.109375 47.828125 
Q 26.265625 48.1875 28.421875 48.1875 
Q 40.625 48.1875 47.75 41.5 
Q 54.890625 34.8125 54.890625 23.390625 
Q 54.890625 11.625 47.5625 5.09375 
Q 40.234375 -1.421875 26.90625 -1.421875 
Q 22.3125 -1.421875 17.546875 -0.640625 
Q 12.796875 0.140625 7.71875 1.703125 
L 7.71875 11.625 
Q 12.109375 9.234375 16.796875 8.0625 
Q 21.484375 6.890625 26.703125 6.890625 
Q 35.15625 6.890625 40.078125 11.328125 
Q 45.015625 15.765625 45.015625 23.390625 
Q 45.015625 31 40.078125 35.4375 
Q 35.15625 39.890625 26.703125 39.890625 
Q 22.75 39.890625 18.8125 39.015625 
Q 14.890625 38.140625 10.796875 36.28125 
z
" id="DejaVuSans-53"/>
      </defs>
      <g transform="translate(333.305913 401.758438)scale(0.1 -0.1)">
       <use xlink:href="#DejaVuSans-53"/>
       <use x="63.623047" xlink:href="#DejaVuSans-48"/>
      </g>
     </g>
    </g>
    <g id="xtick_7">
     <g id="line2d_13">
      <path clip-path="url(#p27494a8a68)" d="M 398.058095 387.16 
L 398.058095 39.24 
" style="fill:none;stroke:#777777;stroke-linecap:square;stroke-width:0.8;"/>
     </g>
     <g id="line2d_14">
      <g>
       <use style="stroke:#000000;stroke-width:0.8;" x="398.058095" xlink:href="#mf5a66f271b" y="387.16"/>
      </g>
     </g>
     <g id="text_7">
      <!-- 60 -->
      <defs>
       <path d="M 33.015625 40.375 
Q 26.375 40.375 22.484375 35.828125 
Q 18.609375 31.296875 18.609375 23.390625 
Q 18.609375 15.53125 22.484375 10.953125 
Q 26.375 6.390625 33.015625 6.390625 
Q 39.65625 6.390625 43.53125 10.953125 
Q 47.40625 15.53125 47.40625 23.390625 
Q 47.40625 31.296875 43.53125 35.828125 
Q 39.65625 40.375 33.015625 40.375 
z
M 52.59375 71.296875 
L 52.59375 62.3125 
Q 48.875 64.0625 45.09375 64.984375 
Q 41.3125 65.921875 37.59375 65.921875 
Q 27.828125 65.921875 22.671875 59.328125 
Q 17.53125 52.734375 16.796875 39.40625 
Q 19.671875 43.65625 24.015625 45.921875 
Q 28.375 48.1875 33.59375 48.1875 
Q 44.578125 48.1875 50.953125 41.515625 
Q 57.328125 34.859375 57.328125 23.390625 
Q 57.328125 12.15625 50.6875 5.359375 
Q 44.046875 -1.421875 33.015625 -1.421875 
Q 20.359375 -1.421875 13.671875 8.265625 
Q 6.984375 17.96875 6.984375 36.375 
Q 6.984375 53.65625 15.1875 63.9375 
Q 23.390625 74.21875 37.203125 74.21875 
Q 40.921875 74.21875 44.703125 73.484375 
Q 48.484375 72.75 52.59375 71.296875 
z
" id="DejaVuSans-54"/>
      </defs>
      <g transform="translate(391.695595 401.758438)scale(0.1 -0.1)">
       <use xlink:href="#DejaVuSans-54"/>
       <use x="63.623047" xlink:href="#DejaVuSans-48"/>
      </g>
     </g>
    </g>
    <g id="text_8">
     <!-- Samples -->
     <defs>
      <path d="M 53.515625 70.515625 
L 53.515625 60.890625 
Q 47.90625 63.578125 42.921875 64.890625 
Q 37.9375 66.21875 33.296875 66.21875 
Q 25.25 66.21875 20.875 63.09375 
Q 16.5 59.96875 16.5 54.203125 
Q 16.5 49.359375 19.40625 46.890625 
Q 22.3125 44.4375 30.421875 42.921875 
L 36.375 41.703125 
Q 47.40625 39.59375 52.65625 34.296875 
Q 57.90625 29 57.90625 20.125 
Q 57.90625 9.515625 50.796875 4.046875 
Q 43.703125 -1.421875 29.984375 -1.421875 
Q 24.8125 -1.421875 18.96875 -0.25 
Q 13.140625 0.921875 6.890625 3.21875 
L 6.890625 13.375 
Q 12.890625 10.015625 18.65625 8.296875 
Q 24.421875 6.59375 29.984375 6.59375 
Q 38.421875 6.59375 43.015625 9.90625 
Q 47.609375 13.234375 47.609375 19.390625 
Q 47.609375 24.75 44.3125 27.78125 
Q 41.015625 30.8125 33.5 32.328125 
L 27.484375 33.5 
Q 16.453125 35.6875 11.515625 40.375 
Q 6.59375 45.0625 6.59375 53.421875 
Q 6.59375 63.09375 13.40625 68.65625 
Q 20.21875 74.21875 32.171875 74.21875 
Q 37.3125 74.21875 42.625 73.28125 
Q 47.953125 72.359375 53.515625 70.515625 
z
" id="DejaVuSans-83"/>
      <path d="M 34.28125 27.484375 
Q 23.390625 27.484375 19.1875 25 
Q 14.984375 22.515625 14.984375 16.5 
Q 14.984375 11.71875 18.140625 8.90625 
Q 21.296875 6.109375 26.703125 6.109375 
Q 34.1875 6.109375 38.703125 11.40625 
Q 43.21875 16.703125 43.21875 25.484375 
L 43.21875 27.484375 
z
M 52.203125 31.203125 
L 52.203125 0 
L 43.21875 0 
L 43.21875 8.296875 
Q 40.140625 3.328125 35.546875 0.953125 
Q 30.953125 -1.421875 24.3125 -1.421875 
Q 15.921875 -1.421875 10.953125 3.296875 
Q 6 8.015625 6 15.921875 
Q 6 25.140625 12.171875 29.828125 
Q 18.359375 34.515625 30.609375 34.515625 
L 43.21875 34.515625 
L 43.21875 35.40625 
Q 43.21875 41.609375 39.140625 45 
Q 35.0625 48.390625 27.6875 48.390625 
Q 23 48.390625 18.546875 47.265625 
Q 14.109375 46.140625 10.015625 43.890625 
L 10.015625 52.203125 
Q 14.9375 54.109375 19.578125 55.046875 
Q 24.21875 56 28.609375 56 
Q 40.484375 56 46.34375 49.84375 
Q 52.203125 43.703125 52.203125 31.203125 
z
" id="DejaVuSans-97"/>
      <path d="M 52 44.1875 
Q 55.375 50.25 60.0625 53.125 
Q 64.75 56 71.09375 56 
Q 79.640625 56 84.28125 50.015625 
Q 88.921875 44.046875 88.921875 33.015625 
L 88.921875 0 
L 79.890625 0 
L 79.890625 32.71875 
Q 79.890625 40.578125 77.09375 44.375 
Q 74.3125 48.1875 68.609375 48.1875 
Q 61.625 48.1875 57.5625 43.546875 
Q 53.515625 38.921875 53.515625 30.90625 
L 53.515625 0 
L 44.484375 0 
L 44.484375 32.71875 
Q 44.484375 40.625 41.703125 44.40625 
Q 38.921875 48.1875 33.109375 48.1875 
Q 26.21875 48.1875 22.15625 43.53125 
Q 18.109375 38.875 18.109375 30.90625 
L 18.109375 0 
L 9.078125 0 
L 9.078125 54.6875 
L 18.109375 54.6875 
L 18.109375 46.1875 
Q 21.1875 51.21875 25.484375 53.609375 
Q 29.78125 56 35.6875 56 
Q 41.65625 56 45.828125 52.96875 
Q 50 49.953125 52 44.1875 
z
" id="DejaVuSans-109"/>
      <path d="M 18.109375 8.203125 
L 18.109375 -20.796875 
L 9.078125 -20.796875 
L 9.078125 54.6875 
L 18.109375 54.6875 
L 18.109375 46.390625 
Q 20.953125 51.265625 25.265625 53.625 
Q 29.59375 56 35.59375 56 
Q 45.5625 56 51.78125 48.09375 
Q 58.015625 40.1875 58.015625 27.296875 
Q 58.015625 14.40625 51.78125 6.484375 
Q 45.5625 -1.421875 35.59375 -1.421875 
Q 29.59375 -1.421875 25.265625 0.953125 
Q 20.953125 3.328125 18.109375 8.203125 
z
M 48.6875 27.296875 
Q 48.6875 37.203125 44.609375 42.84375 
Q 40.53125 48.484375 33.40625 48.484375 
Q 26.265625 48.484375 22.1875 42.84375 
Q 18.109375 37.203125 18.109375 27.296875 
Q 18.109375 17.390625 22.1875 11.75 
Q 26.265625 6.109375 33.40625 6.109375 
Q 40.53125 6.109375 44.609375 11.75 
Q 48.6875 17.390625 48.6875 27.296875 
z
" id="DejaVuSans-112"/>
      <path d="M 9.421875 75.984375 
L 18.40625 75.984375 
L 18.40625 0 
L 9.421875 0 
z
" id="DejaVuSans-108"/>
      <path d="M 56.203125 29.59375 
L 56.203125 25.203125 
L 14.890625 25.203125 
Q 15.484375 15.921875 20.484375 11.0625 
Q 25.484375 6.203125 34.421875 6.203125 
Q 39.59375 6.203125 44.453125 7.46875 
Q 49.3125 8.734375 54.109375 11.28125 
L 54.109375 2.78125 
Q 49.265625 0.734375 44.1875 -0.34375 
Q 39.109375 -1.421875 33.890625 -1.421875 
Q 20.796875 -1.421875 13.15625 6.1875 
Q 5.515625 13.8125 5.515625 26.8125 
Q 5.515625 40.234375 12.765625 48.109375 
Q 20.015625 56 32.328125 56 
Q 43.359375 56 49.78125 48.890625 
Q 56.203125 41.796875 56.203125 29.59375 
z
M 47.21875 32.234375 
Q 47.125 39.59375 43.09375 43.984375 
Q 39.0625 48.390625 32.421875 48.390625 
Q 24.90625 48.390625 20.390625 44.140625 
Q 15.875 39.890625 15.1875 32.171875 
z
" id="DejaVuSans-101"/>
      <path d="M 44.28125 53.078125 
L 44.28125 44.578125 
Q 40.484375 46.53125 36.375 47.5 
Q 32.28125 48.484375 27.875 48.484375 
Q 21.1875 48.484375 17.84375 46.4375 
Q 14.5 44.390625 14.5 40.28125 
Q 14.5 37.15625 16.890625 35.375 
Q 19.28125 33.59375 26.515625 31.984375 
L 29.59375 31.296875 
Q 39.15625 29.25 43.1875 25.515625 
Q 47.21875 21.78125 47.21875 15.09375 
Q 47.21875 7.46875 41.1875 3.015625 
Q 35.15625 -1.421875 24.609375 -1.421875 
Q 20.21875 -1.421875 15.453125 -0.5625 
Q 10.6875 0.296875 5.421875 2 
L 5.421875 11.28125 
Q 10.40625 8.6875 15.234375 7.390625 
Q 20.0625 6.109375 24.8125 6.109375 
Q 31.15625 6.109375 34.5625 8.28125 
Q 37.984375 10.453125 37.984375 14.40625 
Q 37.984375 18.0625 35.515625 20.015625 
Q 33.0625 21.96875 24.703125 23.78125 
L 21.578125 24.515625 
Q 13.234375 26.265625 9.515625 29.90625 
Q 5.8125 33.546875 5.8125 39.890625 
Q 5.8125 47.609375 11.28125 51.796875 
Q 16.75 56 26.8125 56 
Q 31.78125 56 36.171875 55.265625 
Q 40.578125 54.546875 44.28125 53.078125 
z
" id="DejaVuSans-115"/>
     </defs>
     <g transform="translate(210.294375 415.436563)scale(0.1 -0.1)">
      <use xlink:href="#DejaVuSans-83"/>
      <use x="63.476562" xlink:href="#DejaVuSans-97"/>
      <use x="124.755859" xlink:href="#DejaVuSans-109"/>
      <use x="222.167969" xlink:href="#DejaVuSans-112"/>
      <use x="285.644531" xlink:href="#DejaVuSans-108"/>
      <use x="313.427734" xlink:href="#DejaVuSans-101"/>
      <use x="374.951172" xlink:href="#DejaVuSans-115"/>
     </g>
    </g>
   </g>
   <g id="matplotlib.axis_2">
    <g id="ytick_1">
     <g id="line2d_15">
      <path clip-path="url(#p27494a8a68)" d="M 47.72 324.09616 
L 415.575 324.09616 
" style="fill:none;stroke:#777777;stroke-linecap:square;stroke-width:0.8;"/>
     </g>
     <g id="line2d_16">
      <defs>
       <path d="M 0 0 
L -3.5 0 
" id="m971e6caaf5" style="stroke:#000000;stroke-width:0.8;"/>
      </defs>
      <g>
       <use style="stroke:#000000;stroke-width:0.8;" x="47.72" xlink:href="#m971e6caaf5" y="324.09616"/>
      </g>
     </g>
     <g id="text_9">
      <!-- 0.2 -->
      <defs>
       <path d="M 10.6875 12.40625 
L 21 12.40625 
L 21 0 
L 10.6875 0 
z
" id="DejaVuSans-46"/>
      </defs>
      <g transform="translate(24.816875 327.895379)scale(0.1 -0.1)">
       <use xlink:href="#DejaVuSans-48"/>
       <use x="63.623047" xlink:href="#DejaVuSans-46"/>
       <use x="95.410156" xlink:href="#DejaVuSans-50"/>
      </g>
     </g>
    </g>
    <g id="ytick_2">
     <g id="line2d_17">
      <path clip-path="url(#p27494a8a68)" d="M 47.72 255.687926 
L 415.575 255.687926 
" style="fill:none;stroke:#777777;stroke-linecap:square;stroke-width:0.8;"/>
     </g>
     <g id="line2d_18">
      <g>
       <use style="stroke:#000000;stroke-width:0.8;" x="47.72" xlink:href="#m971e6caaf5" y="255.687926"/>
      </g>
     </g>
     <g id="text_10">
      <!-- 0.4 -->
      <g transform="translate(24.816875 259.487145)scale(0.1 -0.1)">
       <use xlink:href="#DejaVuSans-48"/>
       <use x="63.623047" xlink:href="#DejaVuSans-46"/>
       <use x="95.410156" xlink:href="#DejaVuSans-52"/>
      </g>
     </g>
    </g>
    <g id="ytick_3">
     <g id="line2d_19">
      <path clip-path="url(#p27494a8a68)" d="M 47.72 187.279693 
L 415.575 187.279693 
" style="fill:none;stroke:#777777;stroke-linecap:square;stroke-width:0.8;"/>
     </g>
     <g id="line2d_20">
      <g>
       <use style="stroke:#000000;stroke-width:0.8;" x="47.72" xlink:href="#m971e6caaf5" y="187.279693"/>
      </g>
     </g>
     <g id="text_11">
      <!-- 0.6 -->
      <g transform="translate(24.816875 191.078912)scale(0.1 -0.1)">
       <use xlink:href="#DejaVuSans-48"/>
       <use x="63.623047" xlink:href="#DejaVuSans-46"/>
       <use x="95.410156" xlink:href="#DejaVuSans-54"/>
      </g>
     </g>
    </g>
    <g id="ytick_4">
     <g id="line2d_21">
      <path clip-path="url(#p27494a8a68)" d="M 47.72 118.871459 
L 415.575 118.871459 
" style="fill:none;stroke:#777777;stroke-linecap:square;stroke-width:0.8;"/>
     </g>
     <g id="line2d_22">
      <g>
       <use style="stroke:#000000;stroke-width:0.8;" x="47.72" xlink:href="#m971e6caaf5" y="118.871459"/>
      </g>
     </g>
     <g id="text_12">
      <!-- 0.8 -->
      <defs>
       <path d="M 31.78125 34.625 
Q 24.75 34.625 20.71875 30.859375 
Q 16.703125 27.09375 16.703125 20.515625 
Q 16.703125 13.921875 20.71875 10.15625 
Q 24.75 6.390625 31.78125 6.390625 
Q 38.8125 6.390625 42.859375 10.171875 
Q 46.921875 13.96875 46.921875 20.515625 
Q 46.921875 27.09375 42.890625 30.859375 
Q 38.875 34.625 31.78125 34.625 
z
M 21.921875 38.8125 
Q 15.578125 40.375 12.03125 44.71875 
Q 8.5 49.078125 8.5 55.328125 
Q 8.5 64.0625 14.71875 69.140625 
Q 20.953125 74.21875 31.78125 74.21875 
Q 42.671875 74.21875 48.875 69.140625 
Q 55.078125 64.0625 55.078125 55.328125 
Q 55.078125 49.078125 51.53125 44.71875 
Q 48 40.375 41.703125 38.8125 
Q 48.828125 37.15625 52.796875 32.3125 
Q 56.78125 27.484375 56.78125 20.515625 
Q 56.78125 9.90625 50.3125 4.234375 
Q 43.84375 -1.421875 31.78125 -1.421875 
Q 19.734375 -1.421875 13.25 4.234375 
Q 6.78125 9.90625 6.78125 20.515625 
Q 6.78125 27.484375 10.78125 32.3125 
Q 14.796875 37.15625 21.921875 38.8125 
z
M 18.3125 54.390625 
Q 18.3125 48.734375 21.84375 45.5625 
Q 25.390625 42.390625 31.78125 42.390625 
Q 38.140625 42.390625 41.71875 45.5625 
Q 45.3125 48.734375 45.3125 54.390625 
Q 45.3125 60.0625 41.71875 63.234375 
Q 38.140625 66.40625 31.78125 66.40625 
Q 25.390625 66.40625 21.84375 63.234375 
Q 18.3125 60.0625 18.3125 54.390625 
z
" id="DejaVuSans-56"/>
      </defs>
      <g transform="translate(24.816875 122.670678)scale(0.1 -0.1)">
       <use xlink:href="#DejaVuSans-48"/>
       <use x="63.623047" xlink:href="#DejaVuSans-46"/>
       <use x="95.410156" xlink:href="#DejaVuSans-56"/>
      </g>
     </g>
    </g>
    <g id="ytick_5">
     <g id="line2d_23">
      <path clip-path="url(#p27494a8a68)" d="M 47.72 50.463226 
L 415.575 50.463226 
" style="fill:none;stroke:#777777;stroke-linecap:square;stroke-width:0.8;"/>
     </g>
     <g id="line2d_24">
      <g>
       <use style="stroke:#000000;stroke-width:0.8;" x="47.72" xlink:href="#m971e6caaf5" y="50.463226"/>
      </g>
     </g>
     <g id="text_13">
      <!-- 1.0 -->
      <g transform="translate(24.816875 54.262445)scale(0.1 -0.1)">
       <use xlink:href="#DejaVuSans-49"/>
       <use x="63.623047" xlink:href="#DejaVuSans-46"/>
       <use x="95.410156" xlink:href="#DejaVuSans-48"/>
      </g>
     </g>
    </g>
    <g id="text_14">
     <!-- Amplitude -->
     <defs>
      <path d="M 34.1875 63.1875 
L 20.796875 26.90625 
L 47.609375 26.90625 
z
M 28.609375 72.90625 
L 39.796875 72.90625 
L 67.578125 0 
L 57.328125 0 
L 50.6875 18.703125 
L 17.828125 18.703125 
L 11.1875 0 
L 0.78125 0 
z
" id="DejaVuSans-65"/>
      <path d="M 9.421875 54.6875 
L 18.40625 54.6875 
L 18.40625 0 
L 9.421875 0 
z
M 9.421875 75.984375 
L 18.40625 75.984375 
L 18.40625 64.59375 
L 9.421875 64.59375 
z
" id="DejaVuSans-105"/>
      <path d="M 18.3125 70.21875 
L 18.3125 54.6875 
L 36.8125 54.6875 
L 36.8125 47.703125 
L 18.3125 47.703125 
L 18.3125 18.015625 
Q 18.3125 11.328125 20.140625 9.421875 
Q 21.96875 7.515625 27.59375 7.515625 
L 36.8125 7.515625 
L 36.8125 0 
L 27.59375 0 
Q 17.1875 0 13.234375 3.875 
Q 9.28125 7.765625 9.28125 18.015625 
L 9.28125 47.703125 
L 2.6875 47.703125 
L 2.6875 54.6875 
L 9.28125 54.6875 
L 9.28125 70.21875 
z
" id="DejaVuSans-116"/>
      <path d="M 8.5 21.578125 
L 8.5 54.6875 
L 17.484375 54.6875 
L 17.484375 21.921875 
Q 17.484375 14.15625 20.5 10.265625 
Q 23.53125 6.390625 29.59375 6.390625 
Q 36.859375 6.390625 41.078125 11.03125 
Q 45.3125 15.671875 45.3125 23.6875 
L 45.3125 54.6875 
L 54.296875 54.6875 
L 54.296875 0 
L 45.3125 0 
L 45.3125 8.40625 
Q 42.046875 3.421875 37.71875 1 
Q 33.40625 -1.421875 27.6875 -1.421875 
Q 18.265625 -1.421875 13.375 4.4375 
Q 8.5 10.296875 8.5 21.578125 
z
M 31.109375 56 
z
" id="DejaVuSans-117"/>
      <path d="M 45.40625 46.390625 
L 45.40625 75.984375 
L 54.390625 75.984375 
L 54.390625 0 
L 45.40625 0 
L 45.40625 8.203125 
Q 42.578125 3.328125 38.25 0.953125 
Q 33.9375 -1.421875 27.875 -1.421875 
Q 17.96875 -1.421875 11.734375 6.484375 
Q 5.515625 14.40625 5.515625 27.296875 
Q 5.515625 40.1875 11.734375 48.09375 
Q 17.96875 56 27.875 56 
Q 33.9375 56 38.25 53.625 
Q 42.578125 51.265625 45.40625 46.390625 
z
M 14.796875 27.296875 
Q 14.796875 17.390625 18.875 11.75 
Q 22.953125 6.109375 30.078125 6.109375 
Q 37.203125 6.109375 41.296875 11.75 
Q 45.40625 17.390625 45.40625 27.296875 
Q 45.40625 37.203125 41.296875 42.84375 
Q 37.203125 48.484375 30.078125 48.484375 
Q 22.953125 48.484375 18.875 42.84375 
Q 14.796875 37.203125 14.796875 27.296875 
z
" id="DejaVuSans-100"/>
     </defs>
     <g transform="translate(18.737188 238.822656)rotate(-90)scale(0.1 -0.1)">
      <use xlink:href="#DejaVuSans-65"/>
      <use x="68.408203" xlink:href="#DejaVuSans-109"/>
      <use x="165.820312" xlink:href="#DejaVuSans-112"/>
      <use x="229.296875" xlink:href="#DejaVuSans-108"/>
      <use x="257.080078" xlink:href="#DejaVuSans-105"/>
      <use x="284.863281" xlink:href="#DejaVuSans-116"/>
      <use x="324.072266" xlink:href="#DejaVuSans-117"/>
      <use x="387.451172" xlink:href="#DejaVuSans-100"/>
      <use x="450.927734" xlink:href="#DejaVuSans-101"/>
     </g>
    </g>
   </g>
   <g id="line2d_25">
    <path clip-path="url(#p27494a8a68)" d="M 47.72 387.16 
L 53.558968 376.471214 
L 59.397937 365.782427 
L 65.236905 355.093641 
L 71.075873 344.404854 
L 76.914841 333.716068 
L 82.75381 323.027281 
L 88.592778 312.338495 
L 94.431746 301.649708 
L 100.270714 290.960922 
L 106.109683 280.272135 
L 111.948651 269.583349 
L 117.787619 258.894562 
L 123.626587 248.205776 
L 129.465556 237.516989 
L 135.304524 226.828203 
L 141.143492 216.139416 
L 146.98246 205.45063 
L 152.821429 194.761843 
L 158.660397 184.073057 
L 164.499365 173.38427 
L 170.338333 162.695484 
L 176.177302 152.006697 
L 182.01627 141.317911 
L 187.855238 130.629124 
L 193.694206 119.940338 
L 199.533175 109.251551 
L 205.372143 98.562765 
L 211.211111 87.873978 
L 217.050079 77.185192 
L 222.889048 66.496406 
L 228.728016 55.807619 
L 234.566984 55.807619 
L 240.405952 66.496406 
L 246.244921 77.185192 
L 252.083889 87.873978 
L 257.922857 98.562765 
L 263.761825 109.251551 
L 269.600794 119.940338 
L 275.439762 130.629124 
L 281.27873 141.317911 
L 287.117698 152.006697 
L 292.956667 162.695484 
L 298.795635 173.38427 
L 304.634603 184.073057 
L 310.473571 194.761843 
L 316.31254 205.45063 
L 322.151508 216.139416 
L 327.990476 226.828203 
L 333.829444 237.516989 
L 339.668413 248.205776 
L 345.507381 258.894562 
L 351.346349 269.583349 
L 357.185317 280.272135 
L 363.024286 290.960922 
L 368.863254 301.649708 
L 374.702222 312.338495 
L 380.54119 323.027281 
L 386.380159 333.716068 
L 392.219127 344.404854 
L 398.058095 355.093641 
L 403.897063 365.782427 
L 409.736032 376.471214 
L 415.575 387.16 
" style="fill:none;stroke:#0072bd;stroke-linecap:square;stroke-width:1.4;"/>
    <defs>
     <path d="M 0 1.5 
C 0.397805 1.5 0.77937 1.341951 1.06066 1.06066 
C 1.341951 0.77937 1.5 0.397805 1.5 0 
C 1.5 -0.397805 1.341951 -0.77937 1.06066 -1.06066 
C 0.77937 -1.341951 0.397805 -1.5 0 -1.5 
C -0.397805 -1.5 -0.77937 -1.341951 -1.06066 -1.06066 
C -1.341951 -0.77937 -1.5 -0.397805 -1.5 0 
C -1.5 0.397805 -1.341951 0.77937 -1.06066 1.06066 
C -0.77937 1.341951 -0.397805 1.5 0 1.5 
z
" id="m6e1c2f29eb" style="stroke:#0072bd;"/>
    </defs>
    <g clip-path="url(#p27494a8a68)">
     <use style="fill:#0072bd;stroke:#0072bd;" x="47.72" xlink:href="#m6e1c2f29eb" y="387.16"/>
     <use style="fill:#0072bd;stroke:#0072bd;" x="53.558968" xlink:href="#m6e1c2f29eb" y="376.471214"/>
     <use style="fill:#0072bd;stroke:#0072bd;" x="59.397937" xlink:href="#m6e1c2f29eb" y="365.782427"/>
     <use style="fill:#0072bd;stroke:#0072bd;" x="65.236905" xlink:href="#m6e1c2f29eb" y="355.093641"/>
     <use style="fill:#0072bd;stroke:#0072bd;" x="71.075873" xlink:href="#m6e1c2f29eb" y="344.404854"/>
     <use style="fill:#0072bd;stroke:#0072bd;" x="76.914841" xlink:href="#m6e1c2f29eb" y="333.716068"/>
     <use style="fill:#0072bd;stroke:#0072bd;" x="82.75381" xlink:href="#m6e1c2f29eb" y="323.027281"/>
     <use style="fill:#0072bd;stroke:#0072bd;" x="88.592778" xlink:href="#m6e1c2f29eb" y="312.338495"/>
     <use style="fill:#0072bd;stroke:#0072bd;" x="94.431746" xlink:href="#m6e1c2f29eb" y="301.649708"/>
     <use style="fill:#0072bd;stroke:#0072bd;" x="100.270714" xlink:href="#m6e1c2f29eb" y="290.960922"/>
     <use style="fill:#0072bd;stroke:#0072bd;" x="106.109683" xlink:href="#m6e1c2f29eb" y="280.272135"/>
     <use style="fill:#0072bd;stroke:#0072bd;" x="111.948651" xlink:href="#m6e1c2f29eb" y="269.583349"/>
     <use style="fill:#0072bd;stroke:#0072bd;" x="117.787619" xlink:href="#m6e1c2f29eb" y="258.894562"/>
     <use style="fill:#0072bd;stroke:#0072bd;" x="123.626587" xlink:href="#m6e1c2f29eb" y="248.205776"/>
     <use style="fill:#0072bd;stroke:#0072bd;" x="129.465556" xlink:href="#m6e1c2f29eb" y="237.516989"/>
     <use style="fill:#0072bd;stroke:#0072bd;" x="135.304524" xlink:href="#m6e1c2f29eb" y="226.828203"/>
     <use style="fill:#0072bd;stroke:#0072bd;" x="141.143492" xlink:href="#m6e1c2f29eb" y="216.139416"/>
     <use style="fill:#0072bd;stroke:#0072bd;" x="146.98246" xlink:href="#m6e1c2f29eb" y="205.45063"/>
     <use style="fill:#0072bd;stroke:#0072bd;" x="152.821429" xlink:href="#m6e1c2f29eb" y="194.761843"/>
     <use style="fill:#0072bd;stroke:#0072bd;" x="158.660397" xlink:href="#m6e1c2f29eb" y="184.073057"/>
     <use style="fill:#0072bd;stroke:#0072bd;" x="164.499365" xlink:href="#m6e1c2f29eb" y="173.38427"/>
     <use style="fill:#0072bd;stroke:#0072bd;" x="170.338333" xlink:href="#m6e1c2f29eb" y="162.695484"/>
     <use style="fill:#0072bd;stroke:#0072bd;" x="176.177302" xlink:href="#m6e1c2f29eb" y="152.006697"/>
     <use style="fill:#0072bd;stroke:#0072bd;" x="182.01627" xlink:href="#m6e1c2f29eb" y="141.317911"/>
     <use style="fill:#0072bd;stroke:#0072bd;" x="187.855238" xlink:href="#m6e1c2f29eb" y="130.629124"/>
     <use style="fill:#0072bd;stroke:#0072bd;" x="193.694206" xlink:href="#m6e1c2f29eb" y="119.940338"/>
     <use style="fill:#0072bd;stroke:#0072bd;" x="199.533175" xlink:href="#m6e1c2f29eb" y="109.251551"/>
     <use style="fill:#0072bd;stroke:#0072bd;" x="205.372143" xlink:href="#m6e1c2f29eb" y="98.562765"/>
     <use style="fill:#0072bd;stroke:#0072bd;" x="211.211111" xlink:href="#m6e1c2f29eb" y="87.873978"/>
     <use style="fill:#0072bd;stroke:#0072bd;" x="217.050079" xlink:href="#m6e1c2f29eb" y="77.185192"/>
     <use style="fill:#0072bd;stroke:#0072bd;" x="222.889048" xlink:href="#m6e1c2f29eb" y="66.496406"/>
     <use style="fill:#0072bd;stroke:#0072bd;" x="228.728016" xlink:href="#m6e1c2f29eb" y="55.807619"/>
     <use style="fill:#0072bd;stroke:#0072bd;" x="234.566984" xlink:href="#m6e1c2f29eb" y="55.807619"/>
     <use style="fill:#0072bd;stroke:#0072bd;" x="240.405952" xlink:href="#m6e1c2f29eb" y="66.496406"/>
     <use style="fill:#0072bd;stroke:#0072bd;" x="246.244921" xlink:href="#m6e1c2f29eb" y="77.185192"/>
     <use style="fill:#0072bd;stroke:#0072bd;" x="252.083889" xlink:href="#m6e1c2f29eb" y="87.873978"/>
     <use style="fill:#0072bd;stroke:#0072bd;" x="257.922857" xlink:href="#m6e1c2f29eb" y="98.562765"/>
     <use style="fill:#0072bd;stroke:#0072bd;" x="263.761825" xlink:href="#m6e1c2f29eb" y="109.251551"/>
     <use style="fill:#0072bd;stroke:#0072bd;" x="269.600794" xlink:href="#m6e1c2f29eb" y="119.940338"/>
     <use style="fill:#0072bd;stroke:#0072bd;" x="275.439762" xlink:href="#m6e1c2f29eb" y="130.629124"/>
     <use style="fill:#0072bd;stroke:#0072bd;" x="281.27873" xlink:href="#m6e1c2f29eb" y="141.317911"/>
     <use style="fill:#0072bd;stroke:#0072bd;" x="287.117698" xlink:href="#m6e1c2f29eb" y="152.006697"/>
     <use style="fill:#0072bd;stroke:#0072bd;" x="292.956667" xlink:href="#m6e1c2f29eb" y="162.695484"/>
     <use style="fill:#0072bd;stroke:#0072bd;" x="298.795635" xlink:href="#m6e1c2f29eb" y="173.38427"/>
     <use style="fill:#0072bd;stroke:#0072bd;" x="304.634603" xlink:href="#m6e1c2f29eb" y="184.073057"/>
     <use style="fill:#0072bd;stroke:#0072bd;" x="310.473571" xlink:href="#m6e1c2f29eb" y="194.761843"/>
     <use style="fill:#0072bd;stroke:#0072bd;" x="316.31254" xlink:href="#m6e1c2f29eb" y="205.45063"/>
     <use style="fill:#0072bd;stroke:#0072bd;" x="322.151508" xlink:href="#m6e1c2f29eb" y="216.139416"/>
     <use style="fill:#0072bd;stroke:#0072bd;" x="327.990476" xlink:href="#m6e1c2f29eb" y="226.828203"/>
     <use style="fill:#0072bd;stroke:#0072bd;" x="333.829444" xlink:href="#m6e1c2f29eb" y="237.516989"/>
     <use style="fill:#0072bd;stroke:#0072bd;" x="339.668413" xlink:href="#m6e1c2f29eb" y="248.205776"/>
     <use style="fill:#0072bd;stroke:#0072bd;" x="345.507381" xlink:href="#m6e1c2f29eb" y="258.894562"/>
     <use style="fill:#0072bd;stroke:#0072bd;" x="351.346349" xlink:href="#m6e1c2f29eb" y="269.583349"/>
     <use style="fill:#0072bd;stroke:#0072bd;" x="357.185317" xlink:href="#m6e1c2f29eb" y="280.272135"/>
     <use style="fill:#0072bd;stroke:#0072bd;" x="363.024286" xlink:href="#m6e1c2f29eb" y="290.960922"/>
     <use style="fill:#0072bd;stroke:#0072bd;" x="368.863254" xlink:href="#m6e1c2f29eb" y="301.649708"/>
     <use style="fill:#0072bd;stroke:#0072bd;" x="374.702222" xlink:href="#m6e1c2f29eb" y="312.338495"/>
     <use style="fill:#0072bd;stroke:#0072bd;" x="380.54119" xlink:href="#m6e1c2f29eb" y="323.027281"/>
     <use style="fill:#0072bd;stroke:#0072bd;" x="386.380159" xlink:href="#m6e1c2f29eb" y="333.716068"/>
     <use style="fill:#0072bd;stroke:#0072bd;" x="392.219127" xlink:href="#m6e1c2f29eb" y="344.404854"/>
     <use style="fill:#0072bd;stroke:#0072bd;" x="398.058095" xlink:href="#m6e1c2f29eb" y="355.093641"/>
     <use style="fill:#0072bd;stroke:#0072bd;" x="403.897063" xlink:href="#m6e1c2f29eb" y="365.782427"/>
     <use style="fill:#0072bd;stroke:#0072bd;" x="409.736032" xlink:href="#m6e1c2f29eb" y="376.471214"/>
     <use style="fill:#0072bd;stroke:#0072bd;" x="415.575" xlink:href="#m6e1c2f29eb" y="387.16"/>
    </g>
   </g>
   <g id="patch_3">
    <path d="M 47.72 387.16 
L 47.72 39.24 
" style="fill:none;stroke:#000000;stroke-linecap:square;stroke-linejoin:miter;stroke-width:0.8;"/>
   </g>
   <g id="patch_4">
    <path d="M 415.575 387.16 
L 415.575 39.24 
" style="fill:none;stroke:#000000;stroke-linecap:square;stroke-linejoin:miter;stroke-width:0.8;"/>
   </g>
   <g id="patch_5">
    <path d="M 47.72 387.16 
L 415.575 387.16 
" style="fill:none;stroke:#000000;stroke-linecap:square;stroke-linejoin:miter;stroke-width:0.8;"/>
   </g>
   <g id="patch_6">
    <path d="M 47.72 39.24 
L 415.575 39.24 
" style="fill:none;stroke:#000000;stroke-linecap:square;stroke-linejoin:miter;stroke-width:0.8;"/>
   </g>
  </g>
  <g id="axes_2">
   <g id="patch_7">
    <path d="M 477.425 387.16 
L 845.28 387.16 
L 845.28 39.24 
L 477.425 39.24 
z
" style="fill:#ffffff;"/>
   </g>
   <g id="matplotlib.axis_3">
    <g id="xtick_8">
     <g id="line2d_26">
      <path clip-path="url(#pc114ec78aa)" d="M 477.425 387.16 
L 477.425 39.24 
" style="fill:none;stroke:#777777;stroke-linecap:square;stroke-width:0.8;"/>
     </g>
     <g id="line2d_27">
      <g>
       <use style="stroke:#000000;stroke-width:0.8;" x="477.425" xlink:href="#mf5a66f271b" y="387.16"/>
      </g>
     </g>
     <g id="text_15">
      <!-- 0.0 -->
      <g transform="translate(469.473437 401.758438)scale(0.1 -0.1)">
       <use xlink:href="#DejaVuSans-48"/>
       <use x="63.623047" xlink:href="#DejaVuSans-46"/>
       <use x="95.410156" xlink:href="#DejaVuSans-48"/>
      </g>
     </g>
    </g>
    <g id="xtick_9">
     <g id="line2d_28">
      <path clip-path="url(#pc114ec78aa)" d="M 550.996 387.16 
L 550.996 39.24 
" style="fill:none;stroke:#777777;stroke-linecap:square;stroke-width:0.8;"/>
     </g>
     <g id="line2d_29">
      <g>
       <use style="stroke:#000000;stroke-width:0.8;" x="550.996" xlink:href="#mf5a66f271b" y="387.16"/>
      </g>
     </g>
     <g id="text_16">
      <!-- 0.2 -->
      <g transform="translate(543.044437 401.758438)scale(0.1 -0.1)">
       <use xlink:href="#DejaVuSans-48"/>
       <use x="63.623047" xlink:href="#DejaVuSans-46"/>
       <use x="95.410156" xlink:href="#DejaVuSans-50"/>
      </g>
     </g>
    </g>
    <g id="xtick_10">
     <g id="line2d_30">
      <path clip-path="url(#pc114ec78aa)" d="M 624.567 387.16 
L 624.567 39.24 
" style="fill:none;stroke:#777777;stroke-linecap:square;stroke-width:0.8;"/>
     </g>
     <g id="line2d_31">
      <g>
       <use style="stroke:#000000;stroke-width:0.8;" x="624.567" xlink:href="#mf5a66f271b" y="387.16"/>
      </g>
     </g>
     <g id="text_17">
      <!-- 0.4 -->
      <g transform="translate(616.615437 401.758438)scale(0.1 -0.1)">
       <use xlink:href="#DejaVuSans-48"/>
       <use x="63.623047" xlink:href="#DejaVuSans-46"/>
       <use x="95.410156" xlink:href="#DejaVuSans-52"/>
      </g>
     </g>
    </g>
    <g id="xtick_11">
     <g id="line2d_32">
      <path clip-path="url(#pc114ec78aa)" d="M 698.138 387.16 
L 698.138 39.24 
" style="fill:none;stroke:#777777;stroke-linecap:square;stroke-width:0.8;"/>
     </g>
     <g id="line2d_33">
      <g>
       <use style="stroke:#000000;stroke-width:0.8;" x="698.138" xlink:href="#mf5a66f271b" y="387.16"/>
      </g>
     </g>
     <g id="text_18">
      <!-- 0.6 -->
      <g transform="translate(690.186438 401.758438)scale(0.1 -0.1)">
       <use xlink:href="#DejaVuSans-48"/>
       <use x="63.623047" xlink:href="#DejaVuSans-46"/>
       <use x="95.410156" xlink:href="#DejaVuSans-54"/>
      </g>
     </g>
    </g>
    <g id="xtick_12">
     <g id="line2d_34">
      <path clip-path="url(#pc114ec78aa)" d="M 771.709 387.16 
L 771.709 39.24 
" style="fill:none;stroke:#777777;stroke-linecap:square;stroke-width:0.8;"/>
     </g>
     <g id="line2d_35">
      <g>
       <use style="stroke:#000000;stroke-width:0.8;" x="771.709" xlink:href="#mf5a66f271b" y="387.16"/>
      </g>
     </g>
     <g id="text_19">
      <!-- 0.8 -->
      <g transform="translate(763.757438 401.758438)scale(0.1 -0.1)">
       <use xlink:href="#DejaVuSans-48"/>
       <use x="63.623047" xlink:href="#DejaVuSans-46"/>
       <use x="95.410156" xlink:href="#DejaVuSans-56"/>
      </g>
     </g>
    </g>
    <g id="xtick_13">
     <g id="line2d_36">
      <path clip-path="url(#pc114ec78aa)" d="M 845.28 387.16 
L 845.28 39.24 
" style="fill:none;stroke:#777777;stroke-linecap:square;stroke-width:0.8;"/>
     </g>
     <g id="line2d_37">
      <g>
       <use style="stroke:#000000;stroke-width:0.8;" x="845.28" xlink:href="#mf5a66f271b" y="387.16"/>
      </g>
     </g>
     <g id="text_20">
      <!-- 1.0 -->
      <g transform="translate(837.328438 401.758438)scale(0.1 -0.1)">
       <use xlink:href="#DejaVuSans-49"/>
       <use x="63.623047" xlink:href="#DejaVuSans-46"/>
       <use x="95.410156" xlink:href="#DejaVuSans-48"/>
      </g>
     </g>
    </g>
    <g id="text_21">
     <!-- Normalized Frequency ($\times \pi$ rad/sample) -->
     <defs>
      <path d="M 9.8125 72.90625 
L 23.09375 72.90625 
L 55.421875 11.921875 
L 55.421875 72.90625 
L 64.984375 72.90625 
L 64.984375 0 
L 51.703125 0 
L 19.390625 60.984375 
L 19.390625 0 
L 9.8125 0 
z
" id="DejaVuSans-78"/>
      <path d="M 30.609375 48.390625 
Q 23.390625 48.390625 19.1875 42.75 
Q 14.984375 37.109375 14.984375 27.296875 
Q 14.984375 17.484375 19.15625 11.84375 
Q 23.34375 6.203125 30.609375 6.203125 
Q 37.796875 6.203125 41.984375 11.859375 
Q 46.1875 17.53125 46.1875 27.296875 
Q 46.1875 37.015625 41.984375 42.703125 
Q 37.796875 48.390625 30.609375 48.390625 
z
M 30.609375 56 
Q 42.328125 56 49.015625 48.375 
Q 55.71875 40.765625 55.71875 27.296875 
Q 55.71875 13.875 49.015625 6.21875 
Q 42.328125 -1.421875 30.609375 -1.421875 
Q 18.84375 -1.421875 12.171875 6.21875 
Q 5.515625 13.875 5.515625 27.296875 
Q 5.515625 40.765625 12.171875 48.375 
Q 18.84375 56 30.609375 56 
z
" id="DejaVuSans-111"/>
      <path d="M 41.109375 46.296875 
Q 39.59375 47.171875 37.8125 47.578125 
Q 36.03125 48 33.890625 48 
Q 26.265625 48 22.1875 43.046875 
Q 18.109375 38.09375 18.109375 28.8125 
L 18.109375 0 
L 9.078125 0 
L 9.078125 54.6875 
L 18.109375 54.6875 
L 18.109375 46.1875 
Q 20.953125 51.171875 25.484375 53.578125 
Q 30.03125 56 36.53125 56 
Q 37.453125 56 38.578125 55.875 
Q 39.703125 55.765625 41.0625 55.515625 
z
" id="DejaVuSans-114"/>
      <path d="M 5.515625 54.6875 
L 48.1875 54.6875 
L 48.1875 46.484375 
L 14.40625 7.171875 
L 48.1875 7.171875 
L 48.1875 0 
L 4.296875 0 
L 4.296875 8.203125 
L 38.09375 47.515625 
L 5.515625 47.515625 
z
" id="DejaVuSans-122"/>
      <path id="DejaVuSans-32"/>
      <path d="M 9.8125 72.90625 
L 51.703125 72.90625 
L 51.703125 64.59375 
L 19.671875 64.59375 
L 19.671875 43.109375 
L 48.578125 43.109375 
L 48.578125 34.8125 
L 19.671875 34.8125 
L 19.671875 0 
L 9.8125 0 
z
" id="DejaVuSans-70"/>
      <path d="M 14.796875 27.296875 
Q 14.796875 17.390625 18.875 11.75 
Q 22.953125 6.109375 30.078125 6.109375 
Q 37.203125 6.109375 41.296875 11.75 
Q 45.40625 17.390625 45.40625 27.296875 
Q 45.40625 37.203125 41.296875 42.84375 
Q 37.203125 48.484375 30.078125 48.484375 
Q 22.953125 48.484375 18.875 42.84375 
Q 14.796875 37.203125 14.796875 27.296875 
z
M 45.40625 8.203125 
Q 42.578125 3.328125 38.25 0.953125 
Q 33.9375 -1.421875 27.875 -1.421875 
Q 17.96875 -1.421875 11.734375 6.484375 
Q 5.515625 14.40625 5.515625 27.296875 
Q 5.515625 40.1875 11.734375 48.09375 
Q 17.96875 56 27.875 56 
Q 33.9375 56 38.25 53.625 
Q 42.578125 51.265625 45.40625 46.390625 
L 45.40625 54.6875 
L 54.390625 54.6875 
L 54.390625 -20.796875 
L 45.40625 -20.796875 
z
" id="DejaVuSans-113"/>
      <path d="M 54.890625 33.015625 
L 54.890625 0 
L 45.90625 0 
L 45.90625 32.71875 
Q 45.90625 40.484375 42.875 44.328125 
Q 39.84375 48.1875 33.796875 48.1875 
Q 26.515625 48.1875 22.3125 43.546875 
Q 18.109375 38.921875 18.109375 30.90625 
L 18.109375 0 
L 9.078125 0 
L 9.078125 54.6875 
L 18.109375 54.6875 
L 18.109375 46.1875 
Q 21.34375 51.125 25.703125 53.5625 
Q 30.078125 56 35.796875 56 
Q 45.21875 56 50.046875 50.171875 
Q 54.890625 44.34375 54.890625 33.015625 
z
" id="DejaVuSans-110"/>
      <path d="M 48.78125 52.59375 
L 48.78125 44.1875 
Q 44.96875 46.296875 41.140625 47.34375 
Q 37.3125 48.390625 33.40625 48.390625 
Q 24.65625 48.390625 19.8125 42.84375 
Q 14.984375 37.3125 14.984375 27.296875 
Q 14.984375 17.28125 19.8125 11.734375 
Q 24.65625 6.203125 33.40625 6.203125 
Q 37.3125 6.203125 41.140625 7.25 
Q 44.96875 8.296875 48.78125 10.40625 
L 48.78125 2.09375 
Q 45.015625 0.34375 40.984375 -0.53125 
Q 36.96875 -1.421875 32.421875 -1.421875 
Q 20.0625 -1.421875 12.78125 6.34375 
Q 5.515625 14.109375 5.515625 27.296875 
Q 5.515625 40.671875 12.859375 48.328125 
Q 20.21875 56 33.015625 56 
Q 37.15625 56 41.109375 55.140625 
Q 45.0625 54.296875 48.78125 52.59375 
z
" id="DejaVuSans-99"/>
      <path d="M 32.171875 -5.078125 
Q 28.375 -14.84375 24.75 -17.8125 
Q 21.140625 -20.796875 15.09375 -20.796875 
L 7.90625 -20.796875 
L 7.90625 -13.28125 
L 13.1875 -13.28125 
Q 16.890625 -13.28125 18.9375 -11.515625 
Q 21 -9.765625 23.484375 -3.21875 
L 25.09375 0.875 
L 2.984375 54.6875 
L 12.5 54.6875 
L 29.59375 11.921875 
L 46.6875 54.6875 
L 56.203125 54.6875 
z
" id="DejaVuSans-121"/>
      <path d="M 31 75.875 
Q 24.46875 64.65625 21.28125 53.65625 
Q 18.109375 42.671875 18.109375 31.390625 
Q 18.109375 20.125 21.3125 9.0625 
Q 24.515625 -2 31 -13.1875 
L 23.1875 -13.1875 
Q 15.875 -1.703125 12.234375 9.375 
Q 8.59375 20.453125 8.59375 31.390625 
Q 8.59375 42.28125 12.203125 53.3125 
Q 15.828125 64.359375 23.1875 75.875 
z
" id="DejaVuSans-40"/>
      <path d="M 70.125 53.71875 
L 47.796875 31.296875 
L 70.125 8.984375 
L 64.3125 3.078125 
L 41.890625 25.484375 
L 19.484375 3.078125 
L 13.71875 8.984375 
L 35.984375 31.296875 
L 13.71875 53.71875 
L 19.484375 59.625 
L 41.890625 37.203125 
L 64.3125 59.625 
z
" id="DejaVuSans-215"/>
      <path d="M 9.125 54.6875 
L 61.53125 54.6875 
L 59.765625 45.703125 
L 52.875 45.703125 
L 46.34375 12.109375 
Q 45.65625 8.59375 46.578125 7.03125 
Q 47.46875 5.515625 50.140625 5.515625 
Q 50.875 5.515625 51.953125 5.671875 
Q 53.078125 5.765625 53.421875 5.8125 
L 52.15625 -0.6875 
Q 50.34375 -1.3125 48.484375 -1.609375 
Q 46.578125 -1.90625 44.78125 -1.90625 
Q 38.921875 -1.90625 37.3125 1.265625 
Q 35.6875 4.5 37.359375 13.09375 
L 43.703125 45.703125 
L 23.53125 45.703125 
L 14.65625 0 
L 5.46875 0 
L 14.359375 45.703125 
L 7.375 45.703125 
z
" id="DejaVuSans-Oblique-960"/>
      <path d="M 25.390625 72.90625 
L 33.6875 72.90625 
L 8.296875 -9.28125 
L 0 -9.28125 
z
" id="DejaVuSans-47"/>
      <path d="M 8.015625 75.875 
L 15.828125 75.875 
Q 23.140625 64.359375 26.78125 53.3125 
Q 30.421875 42.28125 30.421875 31.390625 
Q 30.421875 20.453125 26.78125 9.375 
Q 23.140625 -1.703125 15.828125 -13.1875 
L 8.015625 -13.1875 
Q 14.5 -2 17.703125 9.0625 
Q 20.90625 20.125 20.90625 31.390625 
Q 20.90625 42.671875 17.703125 53.65625 
Q 14.5 64.65625 8.015625 75.875 
z
" id="DejaVuSans-41"/>
     </defs>
     <g transform="translate(562.5525 415.438125)scale(0.1 -0.1)">
      <use transform="translate(0 0.015625)" xlink:href="#DejaVuSans-78"/>
      <use transform="translate(74.804688 0.015625)" xlink:href="#DejaVuSans-111"/>
      <use transform="translate(135.986328 0.015625)" xlink:href="#DejaVuSans-114"/>
      <use transform="translate(177.099609 0.015625)" xlink:href="#DejaVuSans-109"/>
      <use transform="translate(274.511719 0.015625)" xlink:href="#DejaVuSans-97"/>
      <use transform="translate(335.791016 0.015625)" xlink:href="#DejaVuSans-108"/>
      <use transform="translate(363.574219 0.015625)" xlink:href="#DejaVuSans-105"/>
      <use transform="translate(391.357422 0.015625)" xlink:href="#DejaVuSans-122"/>
      <use transform="translate(443.847656 0.015625)" xlink:href="#DejaVuSans-101"/>
      <use transform="translate(505.371094 0.015625)" xlink:href="#DejaVuSans-100"/>
      <use transform="translate(568.847656 0.015625)" xlink:href="#DejaVuSans-32"/>
      <use transform="translate(600.634766 0.015625)" xlink:href="#DejaVuSans-70"/>
      <use transform="translate(658.154297 0.015625)" xlink:href="#DejaVuSans-114"/>
      <use transform="translate(699.267578 0.015625)" xlink:href="#DejaVuSans-101"/>
      <use transform="translate(760.791016 0.015625)" xlink:href="#DejaVuSans-113"/>
      <use transform="translate(824.267578 0.015625)" xlink:href="#DejaVuSans-117"/>
      <use transform="translate(887.646484 0.015625)" xlink:href="#DejaVuSans-101"/>
      <use transform="translate(949.169922 0.015625)" xlink:href="#DejaVuSans-110"/>
      <use transform="translate(1012.548828 0.015625)" xlink:href="#DejaVuSans-99"/>
      <use transform="translate(1067.529297 0.015625)" xlink:href="#DejaVuSans-121"/>
      <use transform="translate(1126.708984 0.015625)" xlink:href="#DejaVuSans-32"/>
      <use transform="translate(1158.496094 0.015625)" xlink:href="#DejaVuSans-40"/>
      <use transform="translate(1197.509766 0.015625)" xlink:href="#DejaVuSans-215"/>
      <use transform="translate(1281.298828 0.015625)" xlink:href="#DejaVuSans-Oblique-960"/>
      <use transform="translate(1341.503906 0.015625)" xlink:href="#DejaVuSans-32"/>
      <use transform="translate(1373.291016 0.015625)" xlink:href="#DejaVuSans-114"/>
      <use transform="translate(1414.404297 0.015625)" xlink:href="#DejaVuSans-97"/>
      <use transform="translate(1475.683594 0.015625)" xlink:href="#DejaVuSans-100"/>
      <use transform="translate(1539.160156 0.015625)" xlink:href="#DejaVuSans-47"/>
      <use transform="translate(1572.851562 0.015625)" xlink:href="#DejaVuSans-115"/>
      <use transform="translate(1624.951172 0.015625)" xlink:href="#DejaVuSans-97"/>
      <use transform="translate(1686.230469 0.015625)" xlink:href="#DejaVuSans-109"/>
      <use transform="translate(1783.642578 0.015625)" xlink:href="#DejaVuSans-112"/>
      <use transform="translate(1847.119141 0.015625)" xlink:href="#DejaVuSans-108"/>
      <use transform="translate(1874.902344 0.015625)" xlink:href="#DejaVuSans-101"/>
      <use transform="translate(1936.425781 0.015625)" xlink:href="#DejaVuSans-41"/>
     </g>
    </g>
   </g>
   <g id="matplotlib.axis_4">
    <g id="ytick_6">
     <g id="line2d_38">
      <path clip-path="url(#pc114ec78aa)" d="M 477.425 371.345455 
L 845.28 371.345455 
" style="fill:none;stroke:#777777;stroke-linecap:square;stroke-width:0.8;"/>
     </g>
     <g id="line2d_39">
      <g>
       <use style="stroke:#000000;stroke-width:0.8;" x="477.425" xlink:href="#m971e6caaf5" y="371.345455"/>
      </g>
     </g>
     <g id="text_22">
      <!-- −300 -->
      <defs>
       <path d="M 10.59375 35.5 
L 73.1875 35.5 
L 73.1875 27.203125 
L 10.59375 27.203125 
z
" id="DejaVuSans-8722"/>
      </defs>
      <g transform="translate(442.957812 375.144673)scale(0.1 -0.1)">
       <use xlink:href="#DejaVuSans-8722"/>
       <use x="83.789062" xlink:href="#DejaVuSans-51"/>
       <use x="147.412109" xlink:href="#DejaVuSans-48"/>
       <use x="211.035156" xlink:href="#DejaVuSans-48"/>
      </g>
     </g>
    </g>
    <g id="ytick_7">
     <g id="line2d_40">
      <path clip-path="url(#pc114ec78aa)" d="M 477.425 323.437543 
L 845.28 323.437543 
" style="fill:none;stroke:#777777;stroke-linecap:square;stroke-width:0.8;"/>
     </g>
     <g id="line2d_41">
      <g>
       <use style="stroke:#000000;stroke-width:0.8;" x="477.425" xlink:href="#m971e6caaf5" y="323.437543"/>
      </g>
     </g>
     <g id="text_23">
      <!-- −250 -->
      <g transform="translate(442.957812 327.236761)scale(0.1 -0.1)">
       <use xlink:href="#DejaVuSans-8722"/>
       <use x="83.789062" xlink:href="#DejaVuSans-50"/>
       <use x="147.412109" xlink:href="#DejaVuSans-53"/>
       <use x="211.035156" xlink:href="#DejaVuSans-48"/>
      </g>
     </g>
    </g>
    <g id="ytick_8">
     <g id="line2d_42">
      <path clip-path="url(#pc114ec78aa)" d="M 477.425 275.529631 
L 845.28 275.529631 
" style="fill:none;stroke:#777777;stroke-linecap:square;stroke-width:0.8;"/>
     </g>
     <g id="line2d_43">
      <g>
       <use style="stroke:#000000;stroke-width:0.8;" x="477.425" xlink:href="#m971e6caaf5" y="275.529631"/>
      </g>
     </g>
     <g id="text_24">
      <!-- −200 -->
      <g transform="translate(442.957812 279.328849)scale(0.1 -0.1)">
       <use xlink:href="#DejaVuSans-8722"/>
       <use x="83.789062" xlink:href="#DejaVuSans-50"/>
       <use x="147.412109" xlink:href="#DejaVuSans-48"/>
       <use x="211.035156" xlink:href="#DejaVuSans-48"/>
      </g>
     </g>
    </g>
    <g id="ytick_9">
     <g id="line2d_44">
      <path clip-path="url(#pc114ec78aa)" d="M 477.425 227.621719 
L 845.28 227.621719 
" style="fill:none;stroke:#777777;stroke-linecap:square;stroke-width:0.8;"/>
     </g>
     <g id="line2d_45">
      <g>
       <use style="stroke:#000000;stroke-width:0.8;" x="477.425" xlink:href="#m971e6caaf5" y="227.621719"/>
      </g>
     </g>
     <g id="text_25">
      <!-- −150 -->
      <g transform="translate(442.957812 231.420937)scale(0.1 -0.1)">
       <use xlink:href="#DejaVuSans-8722"/>
       <use x="83.789062" xlink:href="#DejaVuSans-49"/>
       <use x="147.412109" xlink:href="#DejaVuSans-53"/>
       <use x="211.035156" xlink:href="#DejaVuSans-48"/>
      </g>
     </g>
    </g>
    <g id="ytick_10">
     <g id="line2d_46">
      <path clip-path="url(#pc114ec78aa)" d="M 477.425 179.713807 
L 845.28 179.713807 
" style="fill:none;stroke:#777777;stroke-linecap:square;stroke-width:0.8;"/>
     </g>
     <g id="line2d_47">
      <g>
       <use style="stroke:#000000;stroke-width:0.8;" x="477.425" xlink:href="#m971e6caaf5" y="179.713807"/>
      </g>
     </g>
     <g id="text_26">
      <!-- −100 -->
      <g transform="translate(442.957812 183.513025)scale(0.1 -0.1)">
       <use xlink:href="#DejaVuSans-8722"/>
       <use x="83.789062" xlink:href="#DejaVuSans-49"/>
       <use x="147.412109" xlink:href="#DejaVuSans-48"/>
       <use x="211.035156" xlink:href="#DejaVuSans-48"/>
      </g>
     </g>
    </g>
    <g id="ytick_11">
     <g id="line2d_48">
      <path clip-path="url(#pc114ec78aa)" d="M 477.425 131.805895 
L 845.28 131.805895 
" style="fill:none;stroke:#777777;stroke-linecap:square;stroke-width:0.8;"/>
     </g>
     <g id="line2d_49">
      <g>
       <use style="stroke:#000000;stroke-width:0.8;" x="477.425" xlink:href="#m971e6caaf5" y="131.805895"/>
      </g>
     </g>
     <g id="text_27">
      <!-- −50 -->
      <g transform="translate(449.320312 135.605113)scale(0.1 -0.1)">
       <use xlink:href="#DejaVuSans-8722"/>
       <use x="83.789062" xlink:href="#DejaVuSans-53"/>
       <use x="147.412109" xlink:href="#DejaVuSans-48"/>
      </g>
     </g>
    </g>
    <g id="ytick_12">
     <g id="line2d_50">
      <path clip-path="url(#pc114ec78aa)" d="M 477.425 83.897983 
L 845.28 83.897983 
" style="fill:none;stroke:#777777;stroke-linecap:square;stroke-width:0.8;"/>
     </g>
     <g id="line2d_51">
      <g>
       <use style="stroke:#000000;stroke-width:0.8;" x="477.425" xlink:href="#m971e6caaf5" y="83.897983"/>
      </g>
     </g>
     <g id="text_28">
      <!-- 0 -->
      <g transform="translate(464.0625 87.697201)scale(0.1 -0.1)">
       <use xlink:href="#DejaVuSans-48"/>
      </g>
     </g>
    </g>
    <g id="text_29">
     <!-- Gain (dB) -->
     <defs>
      <path d="M 59.515625 10.40625 
L 59.515625 29.984375 
L 43.40625 29.984375 
L 43.40625 38.09375 
L 69.28125 38.09375 
L 69.28125 6.78125 
Q 63.578125 2.734375 56.6875 0.65625 
Q 49.8125 -1.421875 42 -1.421875 
Q 24.90625 -1.421875 15.25 8.5625 
Q 5.609375 18.5625 5.609375 36.375 
Q 5.609375 54.25 15.25 64.234375 
Q 24.90625 74.21875 42 74.21875 
Q 49.125 74.21875 55.546875 72.453125 
Q 61.96875 70.703125 67.390625 67.28125 
L 67.390625 56.78125 
Q 61.921875 61.421875 55.765625 63.765625 
Q 49.609375 66.109375 42.828125 66.109375 
Q 29.4375 66.109375 22.71875 58.640625 
Q 16.015625 51.171875 16.015625 36.375 
Q 16.015625 21.625 22.71875 14.15625 
Q 29.4375 6.6875 42.828125 6.6875 
Q 48.046875 6.6875 52.140625 7.59375 
Q 56.25 8.5 59.515625 10.40625 
z
" id="DejaVuSans-71"/>
      <path d="M 19.671875 34.8125 
L 19.671875 8.109375 
L 35.5 8.109375 
Q 43.453125 8.109375 47.28125 11.40625 
Q 51.125 14.703125 51.125 21.484375 
Q 51.125 28.328125 47.28125 31.5625 
Q 43.453125 34.8125 35.5 34.8125 
z
M 19.671875 64.796875 
L 19.671875 42.828125 
L 34.28125 42.828125 
Q 41.5 42.828125 45.03125 45.53125 
Q 48.578125 48.25 48.578125 53.8125 
Q 48.578125 59.328125 45.03125 62.0625 
Q 41.5 64.796875 34.28125 64.796875 
z
M 9.8125 72.90625 
L 35.015625 72.90625 
Q 46.296875 72.90625 52.390625 68.21875 
Q 58.5 63.53125 58.5 54.890625 
Q 58.5 48.1875 55.375 44.234375 
Q 52.25 40.28125 46.1875 39.3125 
Q 53.46875 37.75 57.5 32.78125 
Q 61.53125 27.828125 61.53125 20.40625 
Q 61.53125 10.640625 54.890625 5.3125 
Q 48.25 0 35.984375 0 
L 9.8125 0 
z
" id="DejaVuSans-66"/>
     </defs>
     <g transform="translate(436.878125 236.791406)rotate(-90)scale(0.1 -0.1)">
      <use xlink:href="#DejaVuSans-71"/>
      <use x="77.490234" xlink:href="#DejaVuSans-97"/>
      <use x="138.769531" xlink:href="#DejaVuSans-105"/>
      <use x="166.552734" xlink:href="#DejaVuSans-110"/>
      <use x="229.931641" xlink:href="#DejaVuSans-32"/>
      <use x="261.71875" xlink:href="#DejaVuSans-40"/>
      <use x="300.732422" xlink:href="#DejaVuSans-100"/>
      <use x="364.208984" xlink:href="#DejaVuSans-66"/>
      <use x="432.8125" xlink:href="#DejaVuSans-41"/>
     </g>
    </g>
   </g>
   <g id="line2d_52">
    <path clip-path="url(#pc114ec78aa)" d="M 477.425 55.054545 
L 478.861934 55.161688 
L 480.298867 55.484784 
L 481.735801 56.028971 
L 483.172734 56.803249 
L 484.609668 57.821231 
L 486.046602 59.102376 
L 487.483535 60.673983 
L 488.920469 62.574446 
L 490.357402 64.858765 
L 491.794336 67.608374 
L 493.23127 70.950061 
L 494.668203 75.096257 
L 496.105137 80.444405 
L 496.823604 83.80796 
L 497.54207 87.88435 
L 498.260537 93.068947 
L 498.979004 100.24869 
L 499.697471 112.252308 
L 500.415938 371.345455 
L 501.134404 113.294639 
L 501.852871 102.33539 
L 502.571338 96.204116 
L 503.289805 92.074198 
L 504.008271 89.060885 
L 504.726738 86.77109 
L 505.445205 84.996119 
L 506.163672 83.612394 
L 506.882139 82.541229 
L 507.600605 81.729979 
L 508.319072 81.14225 
L 509.037539 80.752424 
L 509.756006 80.542439 
L 510.474473 80.499812 
L 511.192939 80.61642 
L 511.911406 80.887772 
L 512.629873 81.312612 
L 513.34834 81.8928 
L 514.066807 82.633432 
L 514.785273 83.543243 
L 516.222207 85.928416 
L 516.940674 87.448745 
L 517.659141 89.23339 
L 518.377607 91.335695 
L 519.096074 93.83507 
L 519.814541 96.855851 
L 520.533008 100.607534 
L 521.251475 105.484046 
L 521.969941 112.371037 
L 522.688408 124.096077 
L 523.406875 371.345455 
L 524.125342 124.619729 
L 524.843809 113.418595 
L 525.562275 107.05602 
L 526.280742 102.70469 
L 526.999209 99.479213 
L 527.717676 96.985925 
L 528.436143 95.015596 
L 529.154609 93.444159 
L 529.873076 92.192481 
L 530.591543 91.207501 
L 531.31001 90.452442 
L 532.028477 89.901336 
L 532.746943 89.53579 
L 533.46541 89.343019 
L 534.183877 89.314618 
L 534.902344 89.445833 
L 535.620811 89.735164 
L 536.339277 90.184242 
L 537.057744 90.797951 
L 537.776211 91.584827 
L 538.494678 92.557786 
L 539.213145 93.735355 
L 539.931611 95.143635 
L 540.650078 96.81954 
L 541.368545 98.816267 
L 542.087012 101.213088 
L 542.805479 104.134214 
L 543.523945 107.789016 
L 544.242412 112.571309 
L 544.960879 119.366633 
L 545.679346 131.002457 
L 546.397812 371.345455 
L 547.116279 131.354644 
L 547.834746 120.071082 
L 548.553213 113.628172 
L 549.27168 109.198521 
L 549.990146 105.896662 
L 550.708613 103.328861 
L 551.42708 101.28582 
L 552.145547 99.643408 
L 552.864014 98.322431 
L 553.58248 97.269771 
L 554.300947 96.448594 
L 555.019414 95.832879 
L 555.737881 95.404185 
L 556.456348 95.149675 
L 557.174814 95.0609 
L 557.893281 95.133062 
L 558.611748 95.364619 
L 559.330215 95.757161 
L 560.048682 96.315533 
L 560.767148 97.048234 
L 561.485615 97.968146 
L 562.204082 99.09376 
L 562.922549 100.451145 
L 563.641016 102.077184 
L 564.359482 104.025043 
L 565.077949 106.373967 
L 565.796416 109.248136 
L 566.514883 112.856898 
L 567.23335 117.594038 
L 567.951816 124.345075 
L 568.670283 135.937453 
L 569.38875 371.345455 
L 570.107217 136.205179 
L 570.825684 124.880559 
L 571.54415 118.397345 
L 572.262617 113.928123 
L 572.981084 110.587409 
L 573.699551 107.981449 
L 574.418018 105.900928 
L 575.136484 104.221698 
L 575.854951 102.864548 
L 576.573418 101.776344 
L 577.291885 100.920237 
L 578.010352 100.270191 
L 578.728818 99.807748 
L 579.447285 99.520061 
L 580.165752 99.398666 
L 580.884219 99.438751 
L 581.602686 99.638762 
L 582.321152 100.000276 
L 583.039619 100.528127 
L 583.758086 101.230803 
L 584.476553 102.121173 
L 585.19502 103.217718 
L 585.913486 104.546499 
L 586.631953 106.144384 
L 587.35042 108.064533 
L 588.068887 110.38618 
L 588.787354 113.233497 
L 589.50582 116.81582 
L 590.224287 121.526929 
L 590.942754 128.252332 
L 591.661221 139.819465 
L 592.379688 371.345455 
L 593.098154 140.037839 
L 593.816621 128.689096 
L 594.535088 122.182117 
L 595.253555 117.689483 
L 595.972021 114.325702 
L 596.690488 111.697011 
L 597.408955 109.594092 
L 598.127422 107.89279 
L 598.845889 106.513885 
L 599.564355 105.40424 
L 600.282822 104.526998 
L 601.001289 103.856119 
L 601.719756 103.373139 
L 602.438223 103.065205 
L 603.156689 102.923848 
L 603.875156 102.944251 
L 604.593623 103.124854 
L 605.31209 103.467231 
L 606.030557 103.976211 
L 606.749023 104.660275 
L 607.46749 105.53229 
L 608.185957 106.610732 
L 608.904424 107.921657 
L 609.622891 109.50193 
L 610.341357 111.404705 
L 611.059824 113.709214 
L 611.778291 116.539624 
L 612.496758 120.105268 
L 613.215225 124.799922 
L 613.933691 131.50909 
L 614.652158 143.060205 
L 615.370625 371.345455 
L 616.089092 143.247179 
L 616.807559 131.883048 
L 617.526025 125.360886 
L 618.244492 120.853267 
L 618.962959 117.4747 
L 619.681426 114.831418 
L 620.399893 112.714099 
L 621.118359 110.998585 
L 621.836826 109.605655 
L 622.555293 108.482167 
L 623.27376 107.591265 
L 623.992227 106.906902 
L 624.710693 106.410616 
L 625.42916 106.089547 
L 626.147627 105.935227 
L 626.866094 105.942835 
L 627.584561 106.11081 
L 628.303027 106.440722 
L 629.021494 106.9374 
L 629.739961 107.60932 
L 630.458428 108.46935 
L 631.176895 109.535963 
L 631.895361 110.83521 
L 632.613828 112.403959 
L 633.332295 114.29536 
L 634.050762 116.588642 
L 634.769229 119.407971 
L 635.487695 122.962679 
L 636.206162 127.646538 
L 636.924629 134.345053 
L 637.643096 145.885654 
L 638.361562 371.345455 
L 639.080029 146.052012 
L 639.798496 134.677776 
L 640.516963 128.145641 
L 641.23543 123.628182 
L 641.953896 120.239904 
L 642.672363 117.58704 
L 643.39083 115.460266 
L 644.109297 113.735424 
L 644.827764 112.33329 
L 645.54623 111.200723 
L 646.264697 110.300862 
L 646.983164 109.607662 
L 647.701631 109.102658 
L 648.420098 108.772991 
L 649.138564 108.61019 
L 649.857031 108.609434 
L 650.575498 108.76916 
L 651.293965 109.090937 
L 652.012432 109.579593 
L 652.730898 110.243604 
L 653.449365 111.095836 
L 654.167832 112.154761 
L 654.886299 113.446431 
L 655.604766 115.00771 
L 656.323232 116.891749 
L 657.041699 119.177776 
L 657.760166 121.989956 
L 658.478633 125.537621 
L 659.1971 130.214541 
L 659.915566 136.90622 
L 660.634033 148.440089 
L 661.3525 371.345455 
L 662.070967 148.593288 
L 662.789434 137.212624 
L 663.5079 130.674161 
L 664.226367 126.150474 
L 664.944834 122.756066 
L 665.663301 120.097171 
L 666.381768 117.964464 
L 667.100234 116.233786 
L 667.818701 114.825913 
L 668.537168 113.687702 
L 669.255635 112.782294 
L 669.974102 112.083642 
L 670.692568 111.57328 
L 671.411035 111.23835 
L 672.129502 111.070379 
L 672.847969 111.064546 
L 673.566436 111.219289 
L 674.284902 111.536176 
L 675.003369 112.020034 
L 675.721836 112.679339 
L 676.440303 113.526957 
L 677.15877 114.581358 
L 677.877236 115.868596 
L 678.595703 117.425534 
L 679.31417 119.305322 
L 680.032637 121.587189 
L 680.751104 124.395298 
L 681.46957 127.938982 
L 682.188037 132.612012 
L 682.906504 139.299889 
L 683.624971 150.830046 
L 684.343438 371.345455 
L 685.061904 150.976089 
L 685.780371 139.59198 
L 686.498838 133.050161 
L 687.217305 128.523207 
L 687.935771 125.125622 
L 688.654238 122.463638 
L 689.372705 120.32793 
L 690.091172 118.59434 
L 690.809639 117.183645 
L 691.528105 116.0427 
L 692.246572 115.134647 
L 692.965039 114.433439 
L 693.683506 113.92061 
L 694.401973 113.583302 
L 695.120439 113.413042 
L 695.838906 113.40501 
L 696.557373 113.557644 
L 697.27584 113.872511 
L 697.994307 114.354438 
L 698.712773 115.011904 
L 699.43124 115.857772 
L 700.149707 116.910515 
L 700.868174 118.196185 
L 701.586641 119.751646 
L 702.305107 121.630049 
L 703.023574 123.910623 
L 703.742041 126.717531 
L 704.460508 130.260106 
L 705.178975 134.932121 
L 705.897441 141.619076 
L 706.615908 153.148405 
L 707.334375 371.345455 
L 708.052842 153.293074 
L 708.771309 141.908421 
L 709.489775 135.366154 
L 710.208242 130.838848 
L 710.926709 127.441007 
L 711.645176 124.778865 
L 712.363643 122.643098 
L 713.082109 120.909547 
L 713.800576 119.49899 
L 714.519043 118.358283 
L 715.23751 117.450568 
L 715.955977 116.749801 
L 716.674443 116.237514 
L 717.39291 115.900852 
L 718.111377 115.731341 
L 718.829844 115.724164 
L 719.548311 115.877756 
L 720.266777 116.19369 
L 720.985244 116.676791 
L 721.703711 117.335538 
L 722.422178 118.182797 
L 723.140645 119.237041 
L 723.859111 120.524324 
L 724.577578 122.08151 
L 725.296045 123.961752 
L 726.014512 126.244279 
L 726.732979 129.053257 
L 727.451445 132.598019 
L 728.169912 137.272338 
L 728.888379 143.961719 
L 729.606846 155.493593 
L 730.325313 371.345455 
L 731.043779 155.643723 
L 731.762246 144.261988 
L 732.480713 137.722766 
L 733.19918 133.198633 
L 733.917646 129.804095 
L 734.636113 127.145388 
L 735.35458 125.013189 
L 736.073047 123.283341 
L 736.791514 121.876624 
L 737.50998 120.739897 
L 738.228447 119.836302 
L 738.946914 119.139797 
L 739.665381 118.631918 
L 740.383848 118.29981 
L 741.102314 118.135002 
L 741.820781 118.132679 
L 742.539248 118.291279 
L 743.257715 118.612375 
L 743.976182 119.100797 
L 744.694648 119.765027 
L 745.413115 120.617931 
L 746.131582 121.677986 
L 746.850049 122.971247 
L 747.568516 124.534584 
L 748.286982 126.421151 
L 749.005449 128.710179 
L 749.723916 131.525839 
L 750.442383 135.077465 
L 751.16085 139.758836 
L 751.879316 146.455457 
L 752.597783 157.994765 
L 753.31625 371.345455 
L 754.034717 158.160357 
L 754.753184 146.786656 
L 755.47165 140.255677 
L 756.190117 135.739998 
L 756.908584 132.354131 
L 757.627051 129.704315 
L 758.345518 127.581231 
L 759.063984 125.860728 
L 759.782451 124.463589 
L 760.500918 123.336678 
L 761.219385 122.443143 
L 761.937852 121.756946 
L 762.656318 121.259629 
L 763.374785 120.938342 
L 764.093252 120.784621 
L 764.811719 120.793654 
L 765.530186 120.963888 
L 766.248652 121.296901 
L 766.967119 121.797529 
L 767.685586 122.47426 
L 768.404053 123.339969 
L 769.12252 124.413138 
L 769.840986 125.719832 
L 770.559453 127.296926 
L 771.27792 129.197581 
L 771.996387 131.50104 
L 772.714854 134.33148 
L 773.43332 137.898245 
L 774.151787 142.595121 
L 774.870254 149.307625 
L 775.588721 160.863202 
L 776.307188 371.345455 
L 777.025654 161.062532 
L 777.744121 149.706322 
L 778.462588 143.193263 
L 779.181055 138.695946 
L 779.899521 135.328895 
L 780.617988 132.69836 
L 781.336455 130.595038 
L 782.054922 128.894789 
L 782.773389 127.518412 
L 783.491855 126.412786 
L 784.210322 125.541075 
L 784.928789 124.877256 
L 785.647256 124.402889 
L 786.365723 124.10514 
L 787.084189 123.975566 
L 787.802656 124.009372 
L 788.521123 124.205026 
L 789.23959 124.564127 
L 789.958057 125.091532 
L 790.676523 125.795754 
L 791.39499 126.68969 
L 792.113457 127.791849 
L 792.831924 129.128321 
L 793.550391 130.736008 
L 794.268857 132.668103 
L 794.987324 135.003876 
L 795.705791 137.867538 
L 796.424258 141.468465 
L 797.142725 146.20048 
L 797.861191 152.949135 
L 798.579658 164.541917 
L 799.298125 371.345455 
L 800.016592 164.818979 
L 800.735059 153.503388 
L 801.453525 147.032177 
L 802.171992 142.577992 
L 802.890459 139.255407 
L 803.608926 136.670733 
L 804.327393 134.614726 
L 805.045859 132.96331 
L 805.764326 131.637353 
L 806.482793 130.583806 
L 807.20126 129.76591 
L 807.919727 129.157724 
L 808.638193 128.740895 
L 809.35666 128.502683 
L 810.075127 128.434743 
L 810.793594 128.53239 
L 811.512061 128.794202 
L 812.230527 129.221902 
L 812.948994 129.82048 
L 813.667461 130.598585 
L 814.385928 131.569271 
L 815.104395 132.751207 
L 815.822861 134.17066 
L 816.541328 135.864726 
L 817.259795 137.886801 
L 817.978262 140.316383 
L 818.696729 143.277925 
L 819.415195 146.981071 
L 820.133662 151.819934 
L 820.852129 158.680384 
L 821.570596 170.390257 
L 822.289062 371.345455 
L 823.007529 170.918967 
L 823.725996 159.738823 
L 824.444463 153.410152 
L 825.16293 149.106174 
L 825.881396 145.942112 
L 826.599863 143.524997 
L 827.31833 141.646399 
L 828.036797 140.183161 
L 828.755264 139.057193 
L 829.47373 138.216633 
L 830.192197 137.626087 
L 830.910664 137.261184 
L 831.629131 137.105395 
L 832.347598 137.148112 
L 833.066064 137.383501 
L 833.784531 137.80986 
L 834.502998 138.429348 
L 835.221465 139.248029 
L 835.939932 140.276226 
L 836.658398 141.529236 
L 837.376865 143.028524 
L 838.095332 144.803629 
L 838.813799 146.895179 
L 839.532266 149.359776 
L 840.250732 152.278247 
L 840.969199 155.770356 
L 841.687666 160.023113 
L 842.406133 165.351134 
L 843.1246 172.345568 
L 843.843066 182.33504 
L 844.561533 199.560955 
L 844.561533 199.560955 
" style="fill:none;stroke:#0072bd;stroke-linecap:square;stroke-width:1.4;"/>
   </g>
   <g id="patch_8">
    <path d="M 477.425 387.16 
L 477.425 39.24 
" style="fill:none;stroke:#000000;stroke-linecap:square;stroke-linejoin:miter;stroke-width:0.8;"/>
   </g>
   <g id="patch_9">
    <path d="M 845.28 387.16 
L 845.28 39.24 
" style="fill:none;stroke:#000000;stroke-linecap:square;stroke-linejoin:miter;stroke-width:0.8;"/>
   </g>
   <g id="patch_10">
    <path d="M 477.425 387.16 
L 845.28 387.16 
" style="fill:none;stroke:#000000;stroke-linecap:square;stroke-linejoin:miter;stroke-width:0.8;"/>
   </g>
   <g id="patch_11">
    <path d="M 477.425 39.24 
L 845.28 39.24 
" style="fill:none;stroke:#000000;stroke-linecap:square;stroke-linejoin:miter;stroke-width:0.8;"/>
   </g>
  </g>
  <g id="text_30">
   <!-- Triangular window -->
   <defs>
    <path d="M -0.296875 72.90625 
L 61.375 72.90625 
L 61.375 64.59375 
L 35.5 64.59375 
L 35.5 0 
L 25.59375 0 
L 25.59375 64.59375 
L -0.296875 64.59375 
z
" id="DejaVuSans-84"/>
    <path d="M 45.40625 27.984375 
Q 45.40625 37.75 41.375 43.109375 
Q 37.359375 48.484375 30.078125 48.484375 
Q 22.859375 48.484375 18.828125 43.109375 
Q 14.796875 37.75 14.796875 27.984375 
Q 14.796875 18.265625 18.828125 12.890625 
Q 22.859375 7.515625 30.078125 7.515625 
Q 37.359375 7.515625 41.375 12.890625 
Q 45.40625 18.265625 45.40625 27.984375 
z
M 54.390625 6.78125 
Q 54.390625 -7.171875 48.1875 -13.984375 
Q 42 -20.796875 29.203125 -20.796875 
Q 24.46875 -20.796875 20.265625 -20.09375 
Q 16.0625 -19.390625 12.109375 -17.921875 
L 12.109375 -9.1875 
Q 16.0625 -11.328125 19.921875 -12.34375 
Q 23.78125 -13.375 27.78125 -13.375 
Q 36.625 -13.375 41.015625 -8.765625 
Q 45.40625 -4.15625 45.40625 5.171875 
L 45.40625 9.625 
Q 42.625 4.78125 38.28125 2.390625 
Q 33.9375 0 27.875 0 
Q 17.828125 0 11.671875 7.65625 
Q 5.515625 15.328125 5.515625 27.984375 
Q 5.515625 40.671875 11.671875 48.328125 
Q 17.828125 56 27.875 56 
Q 33.9375 56 38.28125 53.609375 
Q 42.625 51.21875 45.40625 46.390625 
L 45.40625 54.6875 
L 54.390625 54.6875 
z
" id="DejaVuSans-103"/>
    <path d="M 4.203125 54.6875 
L 13.1875 54.6875 
L 24.421875 12.015625 
L 35.59375 54.6875 
L 46.1875 54.6875 
L 57.421875 12.015625 
L 68.609375 54.6875 
L 77.59375 54.6875 
L 63.28125 0 
L 52.6875 0 
L 40.921875 44.828125 
L 29.109375 0 
L 18.5 0 
z
" id="DejaVuSans-119"/>
   </defs>
   <g transform="translate(358.19125 20.7975)scale(0.16 -0.16)">
    <use xlink:href="#DejaVuSans-84"/>
    <use x="60.865234" xlink:href="#DejaVuSans-114"/>
    <use x="101.978516" xlink:href="#DejaVuSans-105"/>
    <use x="129.761719" xlink:href="#DejaVuSans-97"/>
    <use x="191.041016" xlink:href="#DejaVuSans-110"/>
    <use x="254.419922" xlink:href="#DejaVuSans-103"/>
    <use x="317.896484" xlink:href="#DejaVuSans-117"/>
    <use x="381.275391" xlink:href="#DejaVuSans-108"/>
    <use x="409.058594" xlink:href="#DejaVuSans-97"/>
    <use x="470.337891" xlink:href="#DejaVuSans-114"/>
    <use x="511.451172" xlink:href="#DejaVuSans-32"/>
    <use x="543.238281" xlink:href="#DejaVuSans-119"/>
    <use x="625.025391" xlink:href="#DejaVuSans-105"/>
    <use x="652.808594" xlink:href="#DejaVuSans-110"/>
    <use x="716.1875" xlink:href="#DejaVuSans-100"/>
    <use x="779.664062" xlink:href="#DejaVuSans-111"/>
    <use x="840.845703" xlink:href="#DejaVuSans-119"/>
   </g>
  </g>
 </g>
 <defs>
  <clipPath id="p27494a8a68">
   <rect height="347.92" width="367.855" x="47.72" y="39.24"/>
  </clipPath>
  <clipPath id="pc114ec78aa">
   <rect height="347.92" width="367.855" x="477.425" y="39.24"/>
  </clipPath>
 </defs>
</svg>
