<?xml version="1.0" encoding="utf-8" standalone="no"?>
<!DOCTYPE svg PUBLIC "-//W3C//DTD SVG 1.1//EN"
  "http://www.w3.org/Graphics/SVG/1.1/DTD/svg11.dtd">
<!-- Created with matplotlib (https://matplotlib.org/) -->
<svg height="432pt" version="1.1" viewBox="0 0 864 432" width="864pt" xmlns="http://www.w3.org/2000/svg" xmlns:xlink="http://www.w3.org/1999/xlink">
 <defs>
  <style type="text/css">
*{stroke-linecap:butt;stroke-linejoin:round;}
  </style>
 </defs>
 <g id="figure_1">
  <g id="patch_1">
   <path d="M 0 432 
L 864 432 
L 864 0 
L 0 0 
z
" style="fill:#ffffff;"/>
  </g>
  <g id="axes_1">
   <g id="patch_2">
    <path d="M 47.72 387.16 
L 418.77 387.16 
L 418.77 39.24 
L 47.72 39.24 
z
" style="fill:#ffffff;"/>
   </g>
   <g id="matplotlib.axis_1">
    <g id="xtick_1">
     <g id="line2d_1">
      <path clip-path="url(#p474020f3d9)" d="M 47.72 387.16 
L 47.72 39.24 
" style="fill:none;stroke:#777777;stroke-linecap:square;stroke-width:0.8;"/>
     </g>
     <g id="line2d_2">
      <defs>
       <path d="M 0 0 
L 0 3.5 
" id="mc87c468ee3" style="stroke:#000000;stroke-width:0.8;"/>
      </defs>
      <g>
       <use style="stroke:#000000;stroke-width:0.8;" x="47.72" xlink:href="#mc87c468ee3" y="387.16"/>
      </g>
     </g>
     <g id="text_1">
      <!-- 0 -->
      <defs>
       <path d="M 31.78125 66.40625 
Q 24.171875 66.40625 20.328125 58.90625 
Q 16.5 51.421875 16.5 36.375 
Q 16.5 21.390625 20.328125 13.890625 
Q 24.171875 6.390625 31.78125 6.390625 
Q 39.453125 6.390625 43.28125 13.890625 
Q 47.125 21.390625 47.125 36.375 
Q 47.125 51.421875 43.28125 58.90625 
Q 39.453125 66.40625 31.78125 66.40625 
z
M 31.78125 74.21875 
Q 44.046875 74.21875 50.515625 64.515625 
Q 56.984375 54.828125 56.984375 36.375 
Q 56.984375 17.96875 50.515625 8.265625 
Q 44.046875 -1.421875 31.78125 -1.421875 
Q 19.53125 -1.421875 13.0625 8.265625 
Q 6.59375 17.96875 6.59375 36.375 
Q 6.59375 54.828125 13.0625 64.515625 
Q 19.53125 74.21875 31.78125 74.21875 
z
" id="DejaVuSans-48"/>
      </defs>
      <g transform="translate(44.53875 401.758438)scale(0.1 -0.1)">
       <use xlink:href="#DejaVuSans-48"/>
      </g>
     </g>
    </g>
    <g id="xtick_2">
     <g id="line2d_3">
      <path clip-path="url(#p474020f3d9)" d="M 106.616825 387.16 
L 106.616825 39.24 
" style="fill:none;stroke:#777777;stroke-linecap:square;stroke-width:0.8;"/>
     </g>
     <g id="line2d_4">
      <g>
       <use style="stroke:#000000;stroke-width:0.8;" x="106.616825" xlink:href="#mc87c468ee3" y="387.16"/>
      </g>
     </g>
     <g id="text_2">
      <!-- 10 -->
      <defs>
       <path d="M 12.40625 8.296875 
L 28.515625 8.296875 
L 28.515625 63.921875 
L 10.984375 60.40625 
L 10.984375 69.390625 
L 28.421875 72.90625 
L 38.28125 72.90625 
L 38.28125 8.296875 
L 54.390625 8.296875 
L 54.390625 0 
L 12.40625 0 
z
" id="DejaVuSans-49"/>
      </defs>
      <g transform="translate(100.254325 401.758438)scale(0.1 -0.1)">
       <use xlink:href="#DejaVuSans-49"/>
       <use x="63.623047" xlink:href="#DejaVuSans-48"/>
      </g>
     </g>
    </g>
    <g id="xtick_3">
     <g id="line2d_5">
      <path clip-path="url(#p474020f3d9)" d="M 165.513651 387.16 
L 165.513651 39.24 
" style="fill:none;stroke:#777777;stroke-linecap:square;stroke-width:0.8;"/>
     </g>
     <g id="line2d_6">
      <g>
       <use style="stroke:#000000;stroke-width:0.8;" x="165.513651" xlink:href="#mc87c468ee3" y="387.16"/>
      </g>
     </g>
     <g id="text_3">
      <!-- 20 -->
      <defs>
       <path d="M 19.1875 8.296875 
L 53.609375 8.296875 
L 53.609375 0 
L 7.328125 0 
L 7.328125 8.296875 
Q 12.9375 14.109375 22.625 23.890625 
Q 32.328125 33.6875 34.8125 36.53125 
Q 39.546875 41.84375 41.421875 45.53125 
Q 43.3125 49.21875 43.3125 52.78125 
Q 43.3125 58.59375 39.234375 62.25 
Q 35.15625 65.921875 28.609375 65.921875 
Q 23.96875 65.921875 18.8125 64.3125 
Q 13.671875 62.703125 7.8125 59.421875 
L 7.8125 69.390625 
Q 13.765625 71.78125 18.9375 73 
Q 24.125 74.21875 28.421875 74.21875 
Q 39.75 74.21875 46.484375 68.546875 
Q 53.21875 62.890625 53.21875 53.421875 
Q 53.21875 48.921875 51.53125 44.890625 
Q 49.859375 40.875 45.40625 35.40625 
Q 44.1875 33.984375 37.640625 27.21875 
Q 31.109375 20.453125 19.1875 8.296875 
z
" id="DejaVuSans-50"/>
      </defs>
      <g transform="translate(159.151151 401.758438)scale(0.1 -0.1)">
       <use xlink:href="#DejaVuSans-50"/>
       <use x="63.623047" xlink:href="#DejaVuSans-48"/>
      </g>
     </g>
    </g>
    <g id="xtick_4">
     <g id="line2d_7">
      <path clip-path="url(#p474020f3d9)" d="M 224.410476 387.16 
L 224.410476 39.24 
" style="fill:none;stroke:#777777;stroke-linecap:square;stroke-width:0.8;"/>
     </g>
     <g id="line2d_8">
      <g>
       <use style="stroke:#000000;stroke-width:0.8;" x="224.410476" xlink:href="#mc87c468ee3" y="387.16"/>
      </g>
     </g>
     <g id="text_4">
      <!-- 30 -->
      <defs>
       <path d="M 40.578125 39.3125 
Q 47.65625 37.796875 51.625 33 
Q 55.609375 28.21875 55.609375 21.1875 
Q 55.609375 10.40625 48.1875 4.484375 
Q 40.765625 -1.421875 27.09375 -1.421875 
Q 22.515625 -1.421875 17.65625 -0.515625 
Q 12.796875 0.390625 7.625 2.203125 
L 7.625 11.71875 
Q 11.71875 9.328125 16.59375 8.109375 
Q 21.484375 6.890625 26.8125 6.890625 
Q 36.078125 6.890625 40.9375 10.546875 
Q 45.796875 14.203125 45.796875 21.1875 
Q 45.796875 27.640625 41.28125 31.265625 
Q 36.765625 34.90625 28.71875 34.90625 
L 20.21875 34.90625 
L 20.21875 43.015625 
L 29.109375 43.015625 
Q 36.375 43.015625 40.234375 45.921875 
Q 44.09375 48.828125 44.09375 54.296875 
Q 44.09375 59.90625 40.109375 62.90625 
Q 36.140625 65.921875 28.71875 65.921875 
Q 24.65625 65.921875 20.015625 65.03125 
Q 15.375 64.15625 9.8125 62.3125 
L 9.8125 71.09375 
Q 15.4375 72.65625 20.34375 73.4375 
Q 25.25 74.21875 29.59375 74.21875 
Q 40.828125 74.21875 47.359375 69.109375 
Q 53.90625 64.015625 53.90625 55.328125 
Q 53.90625 49.265625 50.4375 45.09375 
Q 46.96875 40.921875 40.578125 39.3125 
z
" id="DejaVuSans-51"/>
      </defs>
      <g transform="translate(218.047976 401.758438)scale(0.1 -0.1)">
       <use xlink:href="#DejaVuSans-51"/>
       <use x="63.623047" xlink:href="#DejaVuSans-48"/>
      </g>
     </g>
    </g>
    <g id="xtick_5">
     <g id="line2d_9">
      <path clip-path="url(#p474020f3d9)" d="M 283.307302 387.16 
L 283.307302 39.24 
" style="fill:none;stroke:#777777;stroke-linecap:square;stroke-width:0.8;"/>
     </g>
     <g id="line2d_10">
      <g>
       <use style="stroke:#000000;stroke-width:0.8;" x="283.307302" xlink:href="#mc87c468ee3" y="387.16"/>
      </g>
     </g>
     <g id="text_5">
      <!-- 40 -->
      <defs>
       <path d="M 37.796875 64.3125 
L 12.890625 25.390625 
L 37.796875 25.390625 
z
M 35.203125 72.90625 
L 47.609375 72.90625 
L 47.609375 25.390625 
L 58.015625 25.390625 
L 58.015625 17.1875 
L 47.609375 17.1875 
L 47.609375 0 
L 37.796875 0 
L 37.796875 17.1875 
L 4.890625 17.1875 
L 4.890625 26.703125 
z
" id="DejaVuSans-52"/>
      </defs>
      <g transform="translate(276.944802 401.758438)scale(0.1 -0.1)">
       <use xlink:href="#DejaVuSans-52"/>
       <use x="63.623047" xlink:href="#DejaVuSans-48"/>
      </g>
     </g>
    </g>
    <g id="xtick_6">
     <g id="line2d_11">
      <path clip-path="url(#p474020f3d9)" d="M 342.204127 387.16 
L 342.204127 39.24 
" style="fill:none;stroke:#777777;stroke-linecap:square;stroke-width:0.8;"/>
     </g>
     <g id="line2d_12">
      <g>
       <use style="stroke:#000000;stroke-width:0.8;" x="342.204127" xlink:href="#mc87c468ee3" y="387.16"/>
      </g>
     </g>
     <g id="text_6">
      <!-- 50 -->
      <defs>
       <path d="M 10.796875 72.90625 
L 49.515625 72.90625 
L 49.515625 64.59375 
L 19.828125 64.59375 
L 19.828125 46.734375 
Q 21.96875 47.46875 24.109375 47.828125 
Q 26.265625 48.1875 28.421875 48.1875 
Q 40.625 48.1875 47.75 41.5 
Q 54.890625 34.8125 54.890625 23.390625 
Q 54.890625 11.625 47.5625 5.09375 
Q 40.234375 -1.421875 26.90625 -1.421875 
Q 22.3125 -1.421875 17.546875 -0.640625 
Q 12.796875 0.140625 7.71875 1.703125 
L 7.71875 11.625 
Q 12.109375 9.234375 16.796875 8.0625 
Q 21.484375 6.890625 26.703125 6.890625 
Q 35.15625 6.890625 40.078125 11.328125 
Q 45.015625 15.765625 45.015625 23.390625 
Q 45.015625 31 40.078125 35.4375 
Q 35.15625 39.890625 26.703125 39.890625 
Q 22.75 39.890625 18.8125 39.015625 
Q 14.890625 38.140625 10.796875 36.28125 
z
" id="DejaVuSans-53"/>
      </defs>
      <g transform="translate(335.841627 401.758438)scale(0.1 -0.1)">
       <use xlink:href="#DejaVuSans-53"/>
       <use x="63.623047" xlink:href="#DejaVuSans-48"/>
      </g>
     </g>
    </g>
    <g id="xtick_7">
     <g id="line2d_13">
      <path clip-path="url(#p474020f3d9)" d="M 401.100952 387.16 
L 401.100952 39.24 
" style="fill:none;stroke:#777777;stroke-linecap:square;stroke-width:0.8;"/>
     </g>
     <g id="line2d_14">
      <g>
       <use style="stroke:#000000;stroke-width:0.8;" x="401.100952" xlink:href="#mc87c468ee3" y="387.16"/>
      </g>
     </g>
     <g id="text_7">
      <!-- 60 -->
      <defs>
       <path d="M 33.015625 40.375 
Q 26.375 40.375 22.484375 35.828125 
Q 18.609375 31.296875 18.609375 23.390625 
Q 18.609375 15.53125 22.484375 10.953125 
Q 26.375 6.390625 33.015625 6.390625 
Q 39.65625 6.390625 43.53125 10.953125 
Q 47.40625 15.53125 47.40625 23.390625 
Q 47.40625 31.296875 43.53125 35.828125 
Q 39.65625 40.375 33.015625 40.375 
z
M 52.59375 71.296875 
L 52.59375 62.3125 
Q 48.875 64.0625 45.09375 64.984375 
Q 41.3125 65.921875 37.59375 65.921875 
Q 27.828125 65.921875 22.671875 59.328125 
Q 17.53125 52.734375 16.796875 39.40625 
Q 19.671875 43.65625 24.015625 45.921875 
Q 28.375 48.1875 33.59375 48.1875 
Q 44.578125 48.1875 50.953125 41.515625 
Q 57.328125 34.859375 57.328125 23.390625 
Q 57.328125 12.15625 50.6875 5.359375 
Q 44.046875 -1.421875 33.015625 -1.421875 
Q 20.359375 -1.421875 13.671875 8.265625 
Q 6.984375 17.96875 6.984375 36.375 
Q 6.984375 53.65625 15.1875 63.9375 
Q 23.390625 74.21875 37.203125 74.21875 
Q 40.921875 74.21875 44.703125 73.484375 
Q 48.484375 72.75 52.59375 71.296875 
z
" id="DejaVuSans-54"/>
      </defs>
      <g transform="translate(394.738452 401.758438)scale(0.1 -0.1)">
       <use xlink:href="#DejaVuSans-54"/>
       <use x="63.623047" xlink:href="#DejaVuSans-48"/>
      </g>
     </g>
    </g>
    <g id="text_8">
     <!-- Samples -->
     <defs>
      <path d="M 53.515625 70.515625 
L 53.515625 60.890625 
Q 47.90625 63.578125 42.921875 64.890625 
Q 37.9375 66.21875 33.296875 66.21875 
Q 25.25 66.21875 20.875 63.09375 
Q 16.5 59.96875 16.5 54.203125 
Q 16.5 49.359375 19.40625 46.890625 
Q 22.3125 44.4375 30.421875 42.921875 
L 36.375 41.703125 
Q 47.40625 39.59375 52.65625 34.296875 
Q 57.90625 29 57.90625 20.125 
Q 57.90625 9.515625 50.796875 4.046875 
Q 43.703125 -1.421875 29.984375 -1.421875 
Q 24.8125 -1.421875 18.96875 -0.25 
Q 13.140625 0.921875 6.890625 3.21875 
L 6.890625 13.375 
Q 12.890625 10.015625 18.65625 8.296875 
Q 24.421875 6.59375 29.984375 6.59375 
Q 38.421875 6.59375 43.015625 9.90625 
Q 47.609375 13.234375 47.609375 19.390625 
Q 47.609375 24.75 44.3125 27.78125 
Q 41.015625 30.8125 33.5 32.328125 
L 27.484375 33.5 
Q 16.453125 35.6875 11.515625 40.375 
Q 6.59375 45.0625 6.59375 53.421875 
Q 6.59375 63.09375 13.40625 68.65625 
Q 20.21875 74.21875 32.171875 74.21875 
Q 37.3125 74.21875 42.625 73.28125 
Q 47.953125 72.359375 53.515625 70.515625 
z
" id="DejaVuSans-83"/>
      <path d="M 34.28125 27.484375 
Q 23.390625 27.484375 19.1875 25 
Q 14.984375 22.515625 14.984375 16.5 
Q 14.984375 11.71875 18.140625 8.90625 
Q 21.296875 6.109375 26.703125 6.109375 
Q 34.1875 6.109375 38.703125 11.40625 
Q 43.21875 16.703125 43.21875 25.484375 
L 43.21875 27.484375 
z
M 52.203125 31.203125 
L 52.203125 0 
L 43.21875 0 
L 43.21875 8.296875 
Q 40.140625 3.328125 35.546875 0.953125 
Q 30.953125 -1.421875 24.3125 -1.421875 
Q 15.921875 -1.421875 10.953125 3.296875 
Q 6 8.015625 6 15.921875 
Q 6 25.140625 12.171875 29.828125 
Q 18.359375 34.515625 30.609375 34.515625 
L 43.21875 34.515625 
L 43.21875 35.40625 
Q 43.21875 41.609375 39.140625 45 
Q 35.0625 48.390625 27.6875 48.390625 
Q 23 48.390625 18.546875 47.265625 
Q 14.109375 46.140625 10.015625 43.890625 
L 10.015625 52.203125 
Q 14.9375 54.109375 19.578125 55.046875 
Q 24.21875 56 28.609375 56 
Q 40.484375 56 46.34375 49.84375 
Q 52.203125 43.703125 52.203125 31.203125 
z
" id="DejaVuSans-97"/>
      <path d="M 52 44.1875 
Q 55.375 50.25 60.0625 53.125 
Q 64.75 56 71.09375 56 
Q 79.640625 56 84.28125 50.015625 
Q 88.921875 44.046875 88.921875 33.015625 
L 88.921875 0 
L 79.890625 0 
L 79.890625 32.71875 
Q 79.890625 40.578125 77.09375 44.375 
Q 74.3125 48.1875 68.609375 48.1875 
Q 61.625 48.1875 57.5625 43.546875 
Q 53.515625 38.921875 53.515625 30.90625 
L 53.515625 0 
L 44.484375 0 
L 44.484375 32.71875 
Q 44.484375 40.625 41.703125 44.40625 
Q 38.921875 48.1875 33.109375 48.1875 
Q 26.21875 48.1875 22.15625 43.53125 
Q 18.109375 38.875 18.109375 30.90625 
L 18.109375 0 
L 9.078125 0 
L 9.078125 54.6875 
L 18.109375 54.6875 
L 18.109375 46.1875 
Q 21.1875 51.21875 25.484375 53.609375 
Q 29.78125 56 35.6875 56 
Q 41.65625 56 45.828125 52.96875 
Q 50 49.953125 52 44.1875 
z
" id="DejaVuSans-109"/>
      <path d="M 18.109375 8.203125 
L 18.109375 -20.796875 
L 9.078125 -20.796875 
L 9.078125 54.6875 
L 18.109375 54.6875 
L 18.109375 46.390625 
Q 20.953125 51.265625 25.265625 53.625 
Q 29.59375 56 35.59375 56 
Q 45.5625 56 51.78125 48.09375 
Q 58.015625 40.1875 58.015625 27.296875 
Q 58.015625 14.40625 51.78125 6.484375 
Q 45.5625 -1.421875 35.59375 -1.421875 
Q 29.59375 -1.421875 25.265625 0.953125 
Q 20.953125 3.328125 18.109375 8.203125 
z
M 48.6875 27.296875 
Q 48.6875 37.203125 44.609375 42.84375 
Q 40.53125 48.484375 33.40625 48.484375 
Q 26.265625 48.484375 22.1875 42.84375 
Q 18.109375 37.203125 18.109375 27.296875 
Q 18.109375 17.390625 22.1875 11.75 
Q 26.265625 6.109375 33.40625 6.109375 
Q 40.53125 6.109375 44.609375 11.75 
Q 48.6875 17.390625 48.6875 27.296875 
z
" id="DejaVuSans-112"/>
      <path d="M 9.421875 75.984375 
L 18.40625 75.984375 
L 18.40625 0 
L 9.421875 0 
z
" id="DejaVuSans-108"/>
      <path d="M 56.203125 29.59375 
L 56.203125 25.203125 
L 14.890625 25.203125 
Q 15.484375 15.921875 20.484375 11.0625 
Q 25.484375 6.203125 34.421875 6.203125 
Q 39.59375 6.203125 44.453125 7.46875 
Q 49.3125 8.734375 54.109375 11.28125 
L 54.109375 2.78125 
Q 49.265625 0.734375 44.1875 -0.34375 
Q 39.109375 -1.421875 33.890625 -1.421875 
Q 20.796875 -1.421875 13.15625 6.1875 
Q 5.515625 13.8125 5.515625 26.8125 
Q 5.515625 40.234375 12.765625 48.109375 
Q 20.015625 56 32.328125 56 
Q 43.359375 56 49.78125 48.890625 
Q 56.203125 41.796875 56.203125 29.59375 
z
M 47.21875 32.234375 
Q 47.125 39.59375 43.09375 43.984375 
Q 39.0625 48.390625 32.421875 48.390625 
Q 24.90625 48.390625 20.390625 44.140625 
Q 15.875 39.890625 15.1875 32.171875 
z
" id="DejaVuSans-101"/>
      <path d="M 44.28125 53.078125 
L 44.28125 44.578125 
Q 40.484375 46.53125 36.375 47.5 
Q 32.28125 48.484375 27.875 48.484375 
Q 21.1875 48.484375 17.84375 46.4375 
Q 14.5 44.390625 14.5 40.28125 
Q 14.5 37.15625 16.890625 35.375 
Q 19.28125 33.59375 26.515625 31.984375 
L 29.59375 31.296875 
Q 39.15625 29.25 43.1875 25.515625 
Q 47.21875 21.78125 47.21875 15.09375 
Q 47.21875 7.46875 41.1875 3.015625 
Q 35.15625 -1.421875 24.609375 -1.421875 
Q 20.21875 -1.421875 15.453125 -0.5625 
Q 10.6875 0.296875 5.421875 2 
L 5.421875 11.28125 
Q 10.40625 8.6875 15.234375 7.390625 
Q 20.0625 6.109375 24.8125 6.109375 
Q 31.15625 6.109375 34.5625 8.28125 
Q 37.984375 10.453125 37.984375 14.40625 
Q 37.984375 18.0625 35.515625 20.015625 
Q 33.0625 21.96875 24.703125 23.78125 
L 21.578125 24.515625 
Q 13.234375 26.265625 9.515625 29.90625 
Q 5.8125 33.546875 5.8125 39.890625 
Q 5.8125 47.609375 11.28125 51.796875 
Q 16.75 56 26.8125 56 
Q 31.78125 56 36.171875 55.265625 
Q 40.578125 54.546875 44.28125 53.078125 
z
" id="DejaVuSans-115"/>
     </defs>
     <g transform="translate(211.891875 415.436563)scale(0.1 -0.1)">
      <use xlink:href="#DejaVuSans-83"/>
      <use x="63.476562" xlink:href="#DejaVuSans-97"/>
      <use x="124.755859" xlink:href="#DejaVuSans-109"/>
      <use x="222.167969" xlink:href="#DejaVuSans-112"/>
      <use x="285.644531" xlink:href="#DejaVuSans-108"/>
      <use x="313.427734" xlink:href="#DejaVuSans-101"/>
      <use x="374.951172" xlink:href="#DejaVuSans-115"/>
     </g>
    </g>
   </g>
   <g id="matplotlib.axis_2">
    <g id="ytick_1">
     <g id="line2d_15">
      <path clip-path="url(#p474020f3d9)" d="M 47.72 387.16 
L 418.77 387.16 
" style="fill:none;stroke:#777777;stroke-linecap:square;stroke-width:0.8;"/>
     </g>
     <g id="line2d_16">
      <defs>
       <path d="M 0 0 
L -3.5 0 
" id="mb88f302533" style="stroke:#000000;stroke-width:0.8;"/>
      </defs>
      <g>
       <use style="stroke:#000000;stroke-width:0.8;" x="47.72" xlink:href="#mb88f302533" y="387.16"/>
      </g>
     </g>
     <g id="text_9">
      <!-- 0.0 -->
      <defs>
       <path d="M 10.6875 12.40625 
L 21 12.40625 
L 21 0 
L 10.6875 0 
z
" id="DejaVuSans-46"/>
      </defs>
      <g transform="translate(24.816875 390.959219)scale(0.1 -0.1)">
       <use xlink:href="#DejaVuSans-48"/>
       <use x="63.623047" xlink:href="#DejaVuSans-46"/>
       <use x="95.410156" xlink:href="#DejaVuSans-48"/>
      </g>
     </g>
    </g>
    <g id="ytick_2">
     <g id="line2d_17">
      <path clip-path="url(#p474020f3d9)" d="M 47.72 320.86205 
L 418.77 320.86205 
" style="fill:none;stroke:#777777;stroke-linecap:square;stroke-width:0.8;"/>
     </g>
     <g id="line2d_18">
      <g>
       <use style="stroke:#000000;stroke-width:0.8;" x="47.72" xlink:href="#mb88f302533" y="320.86205"/>
      </g>
     </g>
     <g id="text_10">
      <!-- 0.2 -->
      <g transform="translate(24.816875 324.661269)scale(0.1 -0.1)">
       <use xlink:href="#DejaVuSans-48"/>
       <use x="63.623047" xlink:href="#DejaVuSans-46"/>
       <use x="95.410156" xlink:href="#DejaVuSans-50"/>
      </g>
     </g>
    </g>
    <g id="ytick_3">
     <g id="line2d_19">
      <path clip-path="url(#p474020f3d9)" d="M 47.72 254.564101 
L 418.77 254.564101 
" style="fill:none;stroke:#777777;stroke-linecap:square;stroke-width:0.8;"/>
     </g>
     <g id="line2d_20">
      <g>
       <use style="stroke:#000000;stroke-width:0.8;" x="47.72" xlink:href="#mb88f302533" y="254.564101"/>
      </g>
     </g>
     <g id="text_11">
      <!-- 0.4 -->
      <g transform="translate(24.816875 258.363319)scale(0.1 -0.1)">
       <use xlink:href="#DejaVuSans-48"/>
       <use x="63.623047" xlink:href="#DejaVuSans-46"/>
       <use x="95.410156" xlink:href="#DejaVuSans-52"/>
      </g>
     </g>
    </g>
    <g id="ytick_4">
     <g id="line2d_21">
      <path clip-path="url(#p474020f3d9)" d="M 47.72 188.266151 
L 418.77 188.266151 
" style="fill:none;stroke:#777777;stroke-linecap:square;stroke-width:0.8;"/>
     </g>
     <g id="line2d_22">
      <g>
       <use style="stroke:#000000;stroke-width:0.8;" x="47.72" xlink:href="#mb88f302533" y="188.266151"/>
      </g>
     </g>
     <g id="text_12">
      <!-- 0.6 -->
      <g transform="translate(24.816875 192.06537)scale(0.1 -0.1)">
       <use xlink:href="#DejaVuSans-48"/>
       <use x="63.623047" xlink:href="#DejaVuSans-46"/>
       <use x="95.410156" xlink:href="#DejaVuSans-54"/>
      </g>
     </g>
    </g>
    <g id="ytick_5">
     <g id="line2d_23">
      <path clip-path="url(#p474020f3d9)" d="M 47.72 121.968201 
L 418.77 121.968201 
" style="fill:none;stroke:#777777;stroke-linecap:square;stroke-width:0.8;"/>
     </g>
     <g id="line2d_24">
      <g>
       <use style="stroke:#000000;stroke-width:0.8;" x="47.72" xlink:href="#mb88f302533" y="121.968201"/>
      </g>
     </g>
     <g id="text_13">
      <!-- 0.8 -->
      <defs>
       <path d="M 31.78125 34.625 
Q 24.75 34.625 20.71875 30.859375 
Q 16.703125 27.09375 16.703125 20.515625 
Q 16.703125 13.921875 20.71875 10.15625 
Q 24.75 6.390625 31.78125 6.390625 
Q 38.8125 6.390625 42.859375 10.171875 
Q 46.921875 13.96875 46.921875 20.515625 
Q 46.921875 27.09375 42.890625 30.859375 
Q 38.875 34.625 31.78125 34.625 
z
M 21.921875 38.8125 
Q 15.578125 40.375 12.03125 44.71875 
Q 8.5 49.078125 8.5 55.328125 
Q 8.5 64.0625 14.71875 69.140625 
Q 20.953125 74.21875 31.78125 74.21875 
Q 42.671875 74.21875 48.875 69.140625 
Q 55.078125 64.0625 55.078125 55.328125 
Q 55.078125 49.078125 51.53125 44.71875 
Q 48 40.375 41.703125 38.8125 
Q 48.828125 37.15625 52.796875 32.3125 
Q 56.78125 27.484375 56.78125 20.515625 
Q 56.78125 9.90625 50.3125 4.234375 
Q 43.84375 -1.421875 31.78125 -1.421875 
Q 19.734375 -1.421875 13.25 4.234375 
Q 6.78125 9.90625 6.78125 20.515625 
Q 6.78125 27.484375 10.78125 32.3125 
Q 14.796875 37.15625 21.921875 38.8125 
z
M 18.3125 54.390625 
Q 18.3125 48.734375 21.84375 45.5625 
Q 25.390625 42.390625 31.78125 42.390625 
Q 38.140625 42.390625 41.71875 45.5625 
Q 45.3125 48.734375 45.3125 54.390625 
Q 45.3125 60.0625 41.71875 63.234375 
Q 38.140625 66.40625 31.78125 66.40625 
Q 25.390625 66.40625 21.84375 63.234375 
Q 18.3125 60.0625 18.3125 54.390625 
z
" id="DejaVuSans-56"/>
      </defs>
      <g transform="translate(24.816875 125.76742)scale(0.1 -0.1)">
       <use xlink:href="#DejaVuSans-48"/>
       <use x="63.623047" xlink:href="#DejaVuSans-46"/>
       <use x="95.410156" xlink:href="#DejaVuSans-56"/>
      </g>
     </g>
    </g>
    <g id="ytick_6">
     <g id="line2d_25">
      <path clip-path="url(#p474020f3d9)" d="M 47.72 55.670252 
L 418.77 55.670252 
" style="fill:none;stroke:#777777;stroke-linecap:square;stroke-width:0.8;"/>
     </g>
     <g id="line2d_26">
      <g>
       <use style="stroke:#000000;stroke-width:0.8;" x="47.72" xlink:href="#mb88f302533" y="55.670252"/>
      </g>
     </g>
     <g id="text_14">
      <!-- 1.0 -->
      <g transform="translate(24.816875 59.46947)scale(0.1 -0.1)">
       <use xlink:href="#DejaVuSans-49"/>
       <use x="63.623047" xlink:href="#DejaVuSans-46"/>
       <use x="95.410156" xlink:href="#DejaVuSans-48"/>
      </g>
     </g>
    </g>
    <g id="text_15">
     <!-- Amplitude -->
     <defs>
      <path d="M 34.1875 63.1875 
L 20.796875 26.90625 
L 47.609375 26.90625 
z
M 28.609375 72.90625 
L 39.796875 72.90625 
L 67.578125 0 
L 57.328125 0 
L 50.6875 18.703125 
L 17.828125 18.703125 
L 11.1875 0 
L 0.78125 0 
z
" id="DejaVuSans-65"/>
      <path d="M 9.421875 54.6875 
L 18.40625 54.6875 
L 18.40625 0 
L 9.421875 0 
z
M 9.421875 75.984375 
L 18.40625 75.984375 
L 18.40625 64.59375 
L 9.421875 64.59375 
z
" id="DejaVuSans-105"/>
      <path d="M 18.3125 70.21875 
L 18.3125 54.6875 
L 36.8125 54.6875 
L 36.8125 47.703125 
L 18.3125 47.703125 
L 18.3125 18.015625 
Q 18.3125 11.328125 20.140625 9.421875 
Q 21.96875 7.515625 27.59375 7.515625 
L 36.8125 7.515625 
L 36.8125 0 
L 27.59375 0 
Q 17.1875 0 13.234375 3.875 
Q 9.28125 7.765625 9.28125 18.015625 
L 9.28125 47.703125 
L 2.6875 47.703125 
L 2.6875 54.6875 
L 9.28125 54.6875 
L 9.28125 70.21875 
z
" id="DejaVuSans-116"/>
      <path d="M 8.5 21.578125 
L 8.5 54.6875 
L 17.484375 54.6875 
L 17.484375 21.921875 
Q 17.484375 14.15625 20.5 10.265625 
Q 23.53125 6.390625 29.59375 6.390625 
Q 36.859375 6.390625 41.078125 11.03125 
Q 45.3125 15.671875 45.3125 23.6875 
L 45.3125 54.6875 
L 54.296875 54.6875 
L 54.296875 0 
L 45.3125 0 
L 45.3125 8.40625 
Q 42.046875 3.421875 37.71875 1 
Q 33.40625 -1.421875 27.6875 -1.421875 
Q 18.265625 -1.421875 13.375 4.4375 
Q 8.5 10.296875 8.5 21.578125 
z
M 31.109375 56 
z
" id="DejaVuSans-117"/>
      <path d="M 45.40625 46.390625 
L 45.40625 75.984375 
L 54.390625 75.984375 
L 54.390625 0 
L 45.40625 0 
L 45.40625 8.203125 
Q 42.578125 3.328125 38.25 0.953125 
Q 33.9375 -1.421875 27.875 -1.421875 
Q 17.96875 -1.421875 11.734375 6.484375 
Q 5.515625 14.40625 5.515625 27.296875 
Q 5.515625 40.1875 11.734375 48.09375 
Q 17.96875 56 27.875 56 
Q 33.9375 56 38.25 53.625 
Q 42.578125 51.265625 45.40625 46.390625 
z
M 14.796875 27.296875 
Q 14.796875 17.390625 18.875 11.75 
Q 22.953125 6.109375 30.078125 6.109375 
Q 37.203125 6.109375 41.296875 11.75 
Q 45.40625 17.390625 45.40625 27.296875 
Q 45.40625 37.203125 41.296875 42.84375 
Q 37.203125 48.484375 30.078125 48.484375 
Q 22.953125 48.484375 18.875 42.84375 
Q 14.796875 37.203125 14.796875 27.296875 
z
" id="DejaVuSans-100"/>
     </defs>
     <g transform="translate(18.737188 238.822656)rotate(-90)scale(0.1 -0.1)">
      <use xlink:href="#DejaVuSans-65"/>
      <use x="68.408203" xlink:href="#DejaVuSans-109"/>
      <use x="165.820312" xlink:href="#DejaVuSans-112"/>
      <use x="229.296875" xlink:href="#DejaVuSans-108"/>
      <use x="257.080078" xlink:href="#DejaVuSans-105"/>
      <use x="284.863281" xlink:href="#DejaVuSans-116"/>
      <use x="324.072266" xlink:href="#DejaVuSans-117"/>
      <use x="387.451172" xlink:href="#DejaVuSans-100"/>
      <use x="450.927734" xlink:href="#DejaVuSans-101"/>
     </g>
    </g>
   </g>
   <g id="line2d_27">
    <path clip-path="url(#p474020f3d9)" d="M 47.72 387.16 
L 53.609683 376.309492 
L 59.499365 364.83485 
L 65.389048 352.784632 
L 71.27873 340.212095 
L 77.168413 327.174884 
L 83.058095 313.734685 
L 88.947778 299.956846 
L 94.83746 285.909967 
L 100.727143 271.665469 
L 106.616825 257.297126 
L 112.506508 242.880586 
L 118.39619 228.492874 
L 124.285873 214.211878 
L 130.175556 200.115823 
L 136.065238 186.282746 
L 141.954921 172.789966 
L 147.844603 159.713549 
L 153.734286 147.127793 
L 159.623968 135.104707 
L 165.513651 123.713518 
L 171.403333 113.020185 
L 177.293016 103.086941 
L 183.182698 93.971855 
L 189.072381 85.728427 
L 194.962063 78.405208 
L 200.851746 72.045461 
L 206.741429 66.686854 
L 212.631111 62.361195 
L 218.520794 59.094202 
L 224.410476 56.905329 
L 230.300159 55.807619 
L 236.189841 55.807619 
L 242.079524 56.905329 
L 247.969206 59.094202 
L 253.858889 62.361195 
L 259.748571 66.686854 
L 265.638254 72.045461 
L 271.527937 78.405208 
L 277.417619 85.728427 
L 283.307302 93.971855 
L 289.196984 103.086941 
L 295.086667 113.020185 
L 300.976349 123.713518 
L 306.866032 135.104707 
L 312.755714 147.127793 
L 318.645397 159.713549 
L 324.535079 172.789966 
L 330.424762 186.282746 
L 336.314444 200.115823 
L 342.204127 214.211878 
L 348.09381 228.492874 
L 353.983492 242.880586 
L 359.873175 257.297126 
L 365.762857 271.665469 
L 371.65254 285.909967 
L 377.542222 299.956846 
L 383.431905 313.734685 
L 389.321587 327.174884 
L 395.21127 340.212095 
L 401.100952 352.784632 
L 406.990635 364.83485 
L 412.880317 376.309492 
L 418.77 387.16 
" style="fill:none;stroke:#0072bd;stroke-linecap:square;stroke-width:1.4;"/>
    <defs>
     <path d="M 0 1.5 
C 0.397805 1.5 0.77937 1.341951 1.06066 1.06066 
C 1.341951 0.77937 1.5 0.397805 1.5 0 
C 1.5 -0.397805 1.341951 -0.77937 1.06066 -1.06066 
C 0.77937 -1.341951 0.397805 -1.5 0 -1.5 
C -0.397805 -1.5 -0.77937 -1.341951 -1.06066 -1.06066 
C -1.341951 -0.77937 -1.5 -0.397805 -1.5 0 
C -1.5 0.397805 -1.341951 0.77937 -1.06066 1.06066 
C -0.77937 1.341951 -0.397805 1.5 0 1.5 
z
" id="mecbbe6fafc" style="stroke:#0072bd;"/>
    </defs>
    <g clip-path="url(#p474020f3d9)">
     <use style="fill:#0072bd;stroke:#0072bd;" x="47.72" xlink:href="#mecbbe6fafc" y="387.16"/>
     <use style="fill:#0072bd;stroke:#0072bd;" x="53.609683" xlink:href="#mecbbe6fafc" y="376.309492"/>
     <use style="fill:#0072bd;stroke:#0072bd;" x="59.499365" xlink:href="#mecbbe6fafc" y="364.83485"/>
     <use style="fill:#0072bd;stroke:#0072bd;" x="65.389048" xlink:href="#mecbbe6fafc" y="352.784632"/>
     <use style="fill:#0072bd;stroke:#0072bd;" x="71.27873" xlink:href="#mecbbe6fafc" y="340.212095"/>
     <use style="fill:#0072bd;stroke:#0072bd;" x="77.168413" xlink:href="#mecbbe6fafc" y="327.174884"/>
     <use style="fill:#0072bd;stroke:#0072bd;" x="83.058095" xlink:href="#mecbbe6fafc" y="313.734685"/>
     <use style="fill:#0072bd;stroke:#0072bd;" x="88.947778" xlink:href="#mecbbe6fafc" y="299.956846"/>
     <use style="fill:#0072bd;stroke:#0072bd;" x="94.83746" xlink:href="#mecbbe6fafc" y="285.909967"/>
     <use style="fill:#0072bd;stroke:#0072bd;" x="100.727143" xlink:href="#mecbbe6fafc" y="271.665469"/>
     <use style="fill:#0072bd;stroke:#0072bd;" x="106.616825" xlink:href="#mecbbe6fafc" y="257.297126"/>
     <use style="fill:#0072bd;stroke:#0072bd;" x="112.506508" xlink:href="#mecbbe6fafc" y="242.880586"/>
     <use style="fill:#0072bd;stroke:#0072bd;" x="118.39619" xlink:href="#mecbbe6fafc" y="228.492874"/>
     <use style="fill:#0072bd;stroke:#0072bd;" x="124.285873" xlink:href="#mecbbe6fafc" y="214.211878"/>
     <use style="fill:#0072bd;stroke:#0072bd;" x="130.175556" xlink:href="#mecbbe6fafc" y="200.115823"/>
     <use style="fill:#0072bd;stroke:#0072bd;" x="136.065238" xlink:href="#mecbbe6fafc" y="186.282746"/>
     <use style="fill:#0072bd;stroke:#0072bd;" x="141.954921" xlink:href="#mecbbe6fafc" y="172.789966"/>
     <use style="fill:#0072bd;stroke:#0072bd;" x="147.844603" xlink:href="#mecbbe6fafc" y="159.713549"/>
     <use style="fill:#0072bd;stroke:#0072bd;" x="153.734286" xlink:href="#mecbbe6fafc" y="147.127793"/>
     <use style="fill:#0072bd;stroke:#0072bd;" x="159.623968" xlink:href="#mecbbe6fafc" y="135.104707"/>
     <use style="fill:#0072bd;stroke:#0072bd;" x="165.513651" xlink:href="#mecbbe6fafc" y="123.713518"/>
     <use style="fill:#0072bd;stroke:#0072bd;" x="171.403333" xlink:href="#mecbbe6fafc" y="113.020185"/>
     <use style="fill:#0072bd;stroke:#0072bd;" x="177.293016" xlink:href="#mecbbe6fafc" y="103.086941"/>
     <use style="fill:#0072bd;stroke:#0072bd;" x="183.182698" xlink:href="#mecbbe6fafc" y="93.971855"/>
     <use style="fill:#0072bd;stroke:#0072bd;" x="189.072381" xlink:href="#mecbbe6fafc" y="85.728427"/>
     <use style="fill:#0072bd;stroke:#0072bd;" x="194.962063" xlink:href="#mecbbe6fafc" y="78.405208"/>
     <use style="fill:#0072bd;stroke:#0072bd;" x="200.851746" xlink:href="#mecbbe6fafc" y="72.045461"/>
     <use style="fill:#0072bd;stroke:#0072bd;" x="206.741429" xlink:href="#mecbbe6fafc" y="66.686854"/>
     <use style="fill:#0072bd;stroke:#0072bd;" x="212.631111" xlink:href="#mecbbe6fafc" y="62.361195"/>
     <use style="fill:#0072bd;stroke:#0072bd;" x="218.520794" xlink:href="#mecbbe6fafc" y="59.094202"/>
     <use style="fill:#0072bd;stroke:#0072bd;" x="224.410476" xlink:href="#mecbbe6fafc" y="56.905329"/>
     <use style="fill:#0072bd;stroke:#0072bd;" x="230.300159" xlink:href="#mecbbe6fafc" y="55.807619"/>
     <use style="fill:#0072bd;stroke:#0072bd;" x="236.189841" xlink:href="#mecbbe6fafc" y="55.807619"/>
     <use style="fill:#0072bd;stroke:#0072bd;" x="242.079524" xlink:href="#mecbbe6fafc" y="56.905329"/>
     <use style="fill:#0072bd;stroke:#0072bd;" x="247.969206" xlink:href="#mecbbe6fafc" y="59.094202"/>
     <use style="fill:#0072bd;stroke:#0072bd;" x="253.858889" xlink:href="#mecbbe6fafc" y="62.361195"/>
     <use style="fill:#0072bd;stroke:#0072bd;" x="259.748571" xlink:href="#mecbbe6fafc" y="66.686854"/>
     <use style="fill:#0072bd;stroke:#0072bd;" x="265.638254" xlink:href="#mecbbe6fafc" y="72.045461"/>
     <use style="fill:#0072bd;stroke:#0072bd;" x="271.527937" xlink:href="#mecbbe6fafc" y="78.405208"/>
     <use style="fill:#0072bd;stroke:#0072bd;" x="277.417619" xlink:href="#mecbbe6fafc" y="85.728427"/>
     <use style="fill:#0072bd;stroke:#0072bd;" x="283.307302" xlink:href="#mecbbe6fafc" y="93.971855"/>
     <use style="fill:#0072bd;stroke:#0072bd;" x="289.196984" xlink:href="#mecbbe6fafc" y="103.086941"/>
     <use style="fill:#0072bd;stroke:#0072bd;" x="295.086667" xlink:href="#mecbbe6fafc" y="113.020185"/>
     <use style="fill:#0072bd;stroke:#0072bd;" x="300.976349" xlink:href="#mecbbe6fafc" y="123.713518"/>
     <use style="fill:#0072bd;stroke:#0072bd;" x="306.866032" xlink:href="#mecbbe6fafc" y="135.104707"/>
     <use style="fill:#0072bd;stroke:#0072bd;" x="312.755714" xlink:href="#mecbbe6fafc" y="147.127793"/>
     <use style="fill:#0072bd;stroke:#0072bd;" x="318.645397" xlink:href="#mecbbe6fafc" y="159.713549"/>
     <use style="fill:#0072bd;stroke:#0072bd;" x="324.535079" xlink:href="#mecbbe6fafc" y="172.789966"/>
     <use style="fill:#0072bd;stroke:#0072bd;" x="330.424762" xlink:href="#mecbbe6fafc" y="186.282746"/>
     <use style="fill:#0072bd;stroke:#0072bd;" x="336.314444" xlink:href="#mecbbe6fafc" y="200.115823"/>
     <use style="fill:#0072bd;stroke:#0072bd;" x="342.204127" xlink:href="#mecbbe6fafc" y="214.211878"/>
     <use style="fill:#0072bd;stroke:#0072bd;" x="348.09381" xlink:href="#mecbbe6fafc" y="228.492874"/>
     <use style="fill:#0072bd;stroke:#0072bd;" x="353.983492" xlink:href="#mecbbe6fafc" y="242.880586"/>
     <use style="fill:#0072bd;stroke:#0072bd;" x="359.873175" xlink:href="#mecbbe6fafc" y="257.297126"/>
     <use style="fill:#0072bd;stroke:#0072bd;" x="365.762857" xlink:href="#mecbbe6fafc" y="271.665469"/>
     <use style="fill:#0072bd;stroke:#0072bd;" x="371.65254" xlink:href="#mecbbe6fafc" y="285.909967"/>
     <use style="fill:#0072bd;stroke:#0072bd;" x="377.542222" xlink:href="#mecbbe6fafc" y="299.956846"/>
     <use style="fill:#0072bd;stroke:#0072bd;" x="383.431905" xlink:href="#mecbbe6fafc" y="313.734685"/>
     <use style="fill:#0072bd;stroke:#0072bd;" x="389.321587" xlink:href="#mecbbe6fafc" y="327.174884"/>
     <use style="fill:#0072bd;stroke:#0072bd;" x="395.21127" xlink:href="#mecbbe6fafc" y="340.212095"/>
     <use style="fill:#0072bd;stroke:#0072bd;" x="401.100952" xlink:href="#mecbbe6fafc" y="352.784632"/>
     <use style="fill:#0072bd;stroke:#0072bd;" x="406.990635" xlink:href="#mecbbe6fafc" y="364.83485"/>
     <use style="fill:#0072bd;stroke:#0072bd;" x="412.880317" xlink:href="#mecbbe6fafc" y="376.309492"/>
     <use style="fill:#0072bd;stroke:#0072bd;" x="418.77" xlink:href="#mecbbe6fafc" y="387.16"/>
    </g>
   </g>
   <g id="patch_3">
    <path d="M 47.72 387.16 
L 47.72 39.24 
" style="fill:none;stroke:#000000;stroke-linecap:square;stroke-linejoin:miter;stroke-width:0.8;"/>
   </g>
   <g id="patch_4">
    <path d="M 418.77 387.16 
L 418.77 39.24 
" style="fill:none;stroke:#000000;stroke-linecap:square;stroke-linejoin:miter;stroke-width:0.8;"/>
   </g>
   <g id="patch_5">
    <path d="M 47.72 387.16 
L 418.77 387.16 
" style="fill:none;stroke:#000000;stroke-linecap:square;stroke-linejoin:miter;stroke-width:0.8;"/>
   </g>
   <g id="patch_6">
    <path d="M 47.72 39.24 
L 418.77 39.24 
" style="fill:none;stroke:#000000;stroke-linecap:square;stroke-linejoin:miter;stroke-width:0.8;"/>
   </g>
  </g>
  <g id="axes_2">
   <g id="patch_7">
    <path d="M 474.23 387.16 
L 845.28 387.16 
L 845.28 39.24 
L 474.23 39.24 
z
" style="fill:#ffffff;"/>
   </g>
   <g id="matplotlib.axis_3">
    <g id="xtick_8">
     <g id="line2d_28">
      <path clip-path="url(#p05bb25f7b1)" d="M 474.23 387.16 
L 474.23 39.24 
" style="fill:none;stroke:#777777;stroke-linecap:square;stroke-width:0.8;"/>
     </g>
     <g id="line2d_29">
      <g>
       <use style="stroke:#000000;stroke-width:0.8;" x="474.23" xlink:href="#mc87c468ee3" y="387.16"/>
      </g>
     </g>
     <g id="text_16">
      <!-- 0.0 -->
      <g transform="translate(466.278437 401.758438)scale(0.1 -0.1)">
       <use xlink:href="#DejaVuSans-48"/>
       <use x="63.623047" xlink:href="#DejaVuSans-46"/>
       <use x="95.410156" xlink:href="#DejaVuSans-48"/>
      </g>
     </g>
    </g>
    <g id="xtick_9">
     <g id="line2d_30">
      <path clip-path="url(#p05bb25f7b1)" d="M 548.44 387.16 
L 548.44 39.24 
" style="fill:none;stroke:#777777;stroke-linecap:square;stroke-width:0.8;"/>
     </g>
     <g id="line2d_31">
      <g>
       <use style="stroke:#000000;stroke-width:0.8;" x="548.44" xlink:href="#mc87c468ee3" y="387.16"/>
      </g>
     </g>
     <g id="text_17">
      <!-- 0.2 -->
      <g transform="translate(540.488437 401.758438)scale(0.1 -0.1)">
       <use xlink:href="#DejaVuSans-48"/>
       <use x="63.623047" xlink:href="#DejaVuSans-46"/>
       <use x="95.410156" xlink:href="#DejaVuSans-50"/>
      </g>
     </g>
    </g>
    <g id="xtick_10">
     <g id="line2d_32">
      <path clip-path="url(#p05bb25f7b1)" d="M 622.65 387.16 
L 622.65 39.24 
" style="fill:none;stroke:#777777;stroke-linecap:square;stroke-width:0.8;"/>
     </g>
     <g id="line2d_33">
      <g>
       <use style="stroke:#000000;stroke-width:0.8;" x="622.65" xlink:href="#mc87c468ee3" y="387.16"/>
      </g>
     </g>
     <g id="text_18">
      <!-- 0.4 -->
      <g transform="translate(614.698437 401.758438)scale(0.1 -0.1)">
       <use xlink:href="#DejaVuSans-48"/>
       <use x="63.623047" xlink:href="#DejaVuSans-46"/>
       <use x="95.410156" xlink:href="#DejaVuSans-52"/>
      </g>
     </g>
    </g>
    <g id="xtick_11">
     <g id="line2d_34">
      <path clip-path="url(#p05bb25f7b1)" d="M 696.86 387.16 
L 696.86 39.24 
" style="fill:none;stroke:#777777;stroke-linecap:square;stroke-width:0.8;"/>
     </g>
     <g id="line2d_35">
      <g>
       <use style="stroke:#000000;stroke-width:0.8;" x="696.86" xlink:href="#mc87c468ee3" y="387.16"/>
      </g>
     </g>
     <g id="text_19">
      <!-- 0.6 -->
      <g transform="translate(688.908437 401.758438)scale(0.1 -0.1)">
       <use xlink:href="#DejaVuSans-48"/>
       <use x="63.623047" xlink:href="#DejaVuSans-46"/>
       <use x="95.410156" xlink:href="#DejaVuSans-54"/>
      </g>
     </g>
    </g>
    <g id="xtick_12">
     <g id="line2d_36">
      <path clip-path="url(#p05bb25f7b1)" d="M 771.07 387.16 
L 771.07 39.24 
" style="fill:none;stroke:#777777;stroke-linecap:square;stroke-width:0.8;"/>
     </g>
     <g id="line2d_37">
      <g>
       <use style="stroke:#000000;stroke-width:0.8;" x="771.07" xlink:href="#mc87c468ee3" y="387.16"/>
      </g>
     </g>
     <g id="text_20">
      <!-- 0.8 -->
      <g transform="translate(763.118437 401.758438)scale(0.1 -0.1)">
       <use xlink:href="#DejaVuSans-48"/>
       <use x="63.623047" xlink:href="#DejaVuSans-46"/>
       <use x="95.410156" xlink:href="#DejaVuSans-56"/>
      </g>
     </g>
    </g>
    <g id="xtick_13">
     <g id="line2d_38">
      <path clip-path="url(#p05bb25f7b1)" d="M 845.28 387.16 
L 845.28 39.24 
" style="fill:none;stroke:#777777;stroke-linecap:square;stroke-width:0.8;"/>
     </g>
     <g id="line2d_39">
      <g>
       <use style="stroke:#000000;stroke-width:0.8;" x="845.28" xlink:href="#mc87c468ee3" y="387.16"/>
      </g>
     </g>
     <g id="text_21">
      <!-- 1.0 -->
      <g transform="translate(837.328437 401.758438)scale(0.1 -0.1)">
       <use xlink:href="#DejaVuSans-49"/>
       <use x="63.623047" xlink:href="#DejaVuSans-46"/>
       <use x="95.410156" xlink:href="#DejaVuSans-48"/>
      </g>
     </g>
    </g>
    <g id="text_22">
     <!-- Normalized Frequency ($\times \pi$ rad/sample) -->
     <defs>
      <path d="M 9.8125 72.90625 
L 23.09375 72.90625 
L 55.421875 11.921875 
L 55.421875 72.90625 
L 64.984375 72.90625 
L 64.984375 0 
L 51.703125 0 
L 19.390625 60.984375 
L 19.390625 0 
L 9.8125 0 
z
" id="DejaVuSans-78"/>
      <path d="M 30.609375 48.390625 
Q 23.390625 48.390625 19.1875 42.75 
Q 14.984375 37.109375 14.984375 27.296875 
Q 14.984375 17.484375 19.15625 11.84375 
Q 23.34375 6.203125 30.609375 6.203125 
Q 37.796875 6.203125 41.984375 11.859375 
Q 46.1875 17.53125 46.1875 27.296875 
Q 46.1875 37.015625 41.984375 42.703125 
Q 37.796875 48.390625 30.609375 48.390625 
z
M 30.609375 56 
Q 42.328125 56 49.015625 48.375 
Q 55.71875 40.765625 55.71875 27.296875 
Q 55.71875 13.875 49.015625 6.21875 
Q 42.328125 -1.421875 30.609375 -1.421875 
Q 18.84375 -1.421875 12.171875 6.21875 
Q 5.515625 13.875 5.515625 27.296875 
Q 5.515625 40.765625 12.171875 48.375 
Q 18.84375 56 30.609375 56 
z
" id="DejaVuSans-111"/>
      <path d="M 41.109375 46.296875 
Q 39.59375 47.171875 37.8125 47.578125 
Q 36.03125 48 33.890625 48 
Q 26.265625 48 22.1875 43.046875 
Q 18.109375 38.09375 18.109375 28.8125 
L 18.109375 0 
L 9.078125 0 
L 9.078125 54.6875 
L 18.109375 54.6875 
L 18.109375 46.1875 
Q 20.953125 51.171875 25.484375 53.578125 
Q 30.03125 56 36.53125 56 
Q 37.453125 56 38.578125 55.875 
Q 39.703125 55.765625 41.0625 55.515625 
z
" id="DejaVuSans-114"/>
      <path d="M 5.515625 54.6875 
L 48.1875 54.6875 
L 48.1875 46.484375 
L 14.40625 7.171875 
L 48.1875 7.171875 
L 48.1875 0 
L 4.296875 0 
L 4.296875 8.203125 
L 38.09375 47.515625 
L 5.515625 47.515625 
z
" id="DejaVuSans-122"/>
      <path id="DejaVuSans-32"/>
      <path d="M 9.8125 72.90625 
L 51.703125 72.90625 
L 51.703125 64.59375 
L 19.671875 64.59375 
L 19.671875 43.109375 
L 48.578125 43.109375 
L 48.578125 34.8125 
L 19.671875 34.8125 
L 19.671875 0 
L 9.8125 0 
z
" id="DejaVuSans-70"/>
      <path d="M 14.796875 27.296875 
Q 14.796875 17.390625 18.875 11.75 
Q 22.953125 6.109375 30.078125 6.109375 
Q 37.203125 6.109375 41.296875 11.75 
Q 45.40625 17.390625 45.40625 27.296875 
Q 45.40625 37.203125 41.296875 42.84375 
Q 37.203125 48.484375 30.078125 48.484375 
Q 22.953125 48.484375 18.875 42.84375 
Q 14.796875 37.203125 14.796875 27.296875 
z
M 45.40625 8.203125 
Q 42.578125 3.328125 38.25 0.953125 
Q 33.9375 -1.421875 27.875 -1.421875 
Q 17.96875 -1.421875 11.734375 6.484375 
Q 5.515625 14.40625 5.515625 27.296875 
Q 5.515625 40.1875 11.734375 48.09375 
Q 17.96875 56 27.875 56 
Q 33.9375 56 38.25 53.625 
Q 42.578125 51.265625 45.40625 46.390625 
L 45.40625 54.6875 
L 54.390625 54.6875 
L 54.390625 -20.796875 
L 45.40625 -20.796875 
z
" id="DejaVuSans-113"/>
      <path d="M 54.890625 33.015625 
L 54.890625 0 
L 45.90625 0 
L 45.90625 32.71875 
Q 45.90625 40.484375 42.875 44.328125 
Q 39.84375 48.1875 33.796875 48.1875 
Q 26.515625 48.1875 22.3125 43.546875 
Q 18.109375 38.921875 18.109375 30.90625 
L 18.109375 0 
L 9.078125 0 
L 9.078125 54.6875 
L 18.109375 54.6875 
L 18.109375 46.1875 
Q 21.34375 51.125 25.703125 53.5625 
Q 30.078125 56 35.796875 56 
Q 45.21875 56 50.046875 50.171875 
Q 54.890625 44.34375 54.890625 33.015625 
z
" id="DejaVuSans-110"/>
      <path d="M 48.78125 52.59375 
L 48.78125 44.1875 
Q 44.96875 46.296875 41.140625 47.34375 
Q 37.3125 48.390625 33.40625 48.390625 
Q 24.65625 48.390625 19.8125 42.84375 
Q 14.984375 37.3125 14.984375 27.296875 
Q 14.984375 17.28125 19.8125 11.734375 
Q 24.65625 6.203125 33.40625 6.203125 
Q 37.3125 6.203125 41.140625 7.25 
Q 44.96875 8.296875 48.78125 10.40625 
L 48.78125 2.09375 
Q 45.015625 0.34375 40.984375 -0.53125 
Q 36.96875 -1.421875 32.421875 -1.421875 
Q 20.0625 -1.421875 12.78125 6.34375 
Q 5.515625 14.109375 5.515625 27.296875 
Q 5.515625 40.671875 12.859375 48.328125 
Q 20.21875 56 33.015625 56 
Q 37.15625 56 41.109375 55.140625 
Q 45.0625 54.296875 48.78125 52.59375 
z
" id="DejaVuSans-99"/>
      <path d="M 32.171875 -5.078125 
Q 28.375 -14.84375 24.75 -17.8125 
Q 21.140625 -20.796875 15.09375 -20.796875 
L 7.90625 -20.796875 
L 7.90625 -13.28125 
L 13.1875 -13.28125 
Q 16.890625 -13.28125 18.9375 -11.515625 
Q 21 -9.765625 23.484375 -3.21875 
L 25.09375 0.875 
L 2.984375 54.6875 
L 12.5 54.6875 
L 29.59375 11.921875 
L 46.6875 54.6875 
L 56.203125 54.6875 
z
" id="DejaVuSans-121"/>
      <path d="M 31 75.875 
Q 24.46875 64.65625 21.28125 53.65625 
Q 18.109375 42.671875 18.109375 31.390625 
Q 18.109375 20.125 21.3125 9.0625 
Q 24.515625 -2 31 -13.1875 
L 23.1875 -13.1875 
Q 15.875 -1.703125 12.234375 9.375 
Q 8.59375 20.453125 8.59375 31.390625 
Q 8.59375 42.28125 12.203125 53.3125 
Q 15.828125 64.359375 23.1875 75.875 
z
" id="DejaVuSans-40"/>
      <path d="M 70.125 53.71875 
L 47.796875 31.296875 
L 70.125 8.984375 
L 64.3125 3.078125 
L 41.890625 25.484375 
L 19.484375 3.078125 
L 13.71875 8.984375 
L 35.984375 31.296875 
L 13.71875 53.71875 
L 19.484375 59.625 
L 41.890625 37.203125 
L 64.3125 59.625 
z
" id="DejaVuSans-215"/>
      <path d="M 9.125 54.6875 
L 61.53125 54.6875 
L 59.765625 45.703125 
L 52.875 45.703125 
L 46.34375 12.109375 
Q 45.65625 8.59375 46.578125 7.03125 
Q 47.46875 5.515625 50.140625 5.515625 
Q 50.875 5.515625 51.953125 5.671875 
Q 53.078125 5.765625 53.421875 5.8125 
L 52.15625 -0.6875 
Q 50.34375 -1.3125 48.484375 -1.609375 
Q 46.578125 -1.90625 44.78125 -1.90625 
Q 38.921875 -1.90625 37.3125 1.265625 
Q 35.6875 4.5 37.359375 13.09375 
L 43.703125 45.703125 
L 23.53125 45.703125 
L 14.65625 0 
L 5.46875 0 
L 14.359375 45.703125 
L 7.375 45.703125 
z
" id="DejaVuSans-Oblique-960"/>
      <path d="M 25.390625 72.90625 
L 33.6875 72.90625 
L 8.296875 -9.28125 
L 0 -9.28125 
z
" id="DejaVuSans-47"/>
      <path d="M 8.015625 75.875 
L 15.828125 75.875 
Q 23.140625 64.359375 26.78125 53.3125 
Q 30.421875 42.28125 30.421875 31.390625 
Q 30.421875 20.453125 26.78125 9.375 
Q 23.140625 -1.703125 15.828125 -13.1875 
L 8.015625 -13.1875 
Q 14.5 -2 17.703125 9.0625 
Q 20.90625 20.125 20.90625 31.390625 
Q 20.90625 42.671875 17.703125 53.65625 
Q 14.5 64.65625 8.015625 75.875 
z
" id="DejaVuSans-41"/>
     </defs>
     <g transform="translate(560.955 415.438125)scale(0.1 -0.1)">
      <use transform="translate(0 0.015625)" xlink:href="#DejaVuSans-78"/>
      <use transform="translate(74.804688 0.015625)" xlink:href="#DejaVuSans-111"/>
      <use transform="translate(135.986328 0.015625)" xlink:href="#DejaVuSans-114"/>
      <use transform="translate(177.099609 0.015625)" xlink:href="#DejaVuSans-109"/>
      <use transform="translate(274.511719 0.015625)" xlink:href="#DejaVuSans-97"/>
      <use transform="translate(335.791016 0.015625)" xlink:href="#DejaVuSans-108"/>
      <use transform="translate(363.574219 0.015625)" xlink:href="#DejaVuSans-105"/>
      <use transform="translate(391.357422 0.015625)" xlink:href="#DejaVuSans-122"/>
      <use transform="translate(443.847656 0.015625)" xlink:href="#DejaVuSans-101"/>
      <use transform="translate(505.371094 0.015625)" xlink:href="#DejaVuSans-100"/>
      <use transform="translate(568.847656 0.015625)" xlink:href="#DejaVuSans-32"/>
      <use transform="translate(600.634766 0.015625)" xlink:href="#DejaVuSans-70"/>
      <use transform="translate(658.154297 0.015625)" xlink:href="#DejaVuSans-114"/>
      <use transform="translate(699.267578 0.015625)" xlink:href="#DejaVuSans-101"/>
      <use transform="translate(760.791016 0.015625)" xlink:href="#DejaVuSans-113"/>
      <use transform="translate(824.267578 0.015625)" xlink:href="#DejaVuSans-117"/>
      <use transform="translate(887.646484 0.015625)" xlink:href="#DejaVuSans-101"/>
      <use transform="translate(949.169922 0.015625)" xlink:href="#DejaVuSans-110"/>
      <use transform="translate(1012.548828 0.015625)" xlink:href="#DejaVuSans-99"/>
      <use transform="translate(1067.529297 0.015625)" xlink:href="#DejaVuSans-121"/>
      <use transform="translate(1126.708984 0.015625)" xlink:href="#DejaVuSans-32"/>
      <use transform="translate(1158.496094 0.015625)" xlink:href="#DejaVuSans-40"/>
      <use transform="translate(1197.509766 0.015625)" xlink:href="#DejaVuSans-215"/>
      <use transform="translate(1281.298828 0.015625)" xlink:href="#DejaVuSans-Oblique-960"/>
      <use transform="translate(1341.503906 0.015625)" xlink:href="#DejaVuSans-32"/>
      <use transform="translate(1373.291016 0.015625)" xlink:href="#DejaVuSans-114"/>
      <use transform="translate(1414.404297 0.015625)" xlink:href="#DejaVuSans-97"/>
      <use transform="translate(1475.683594 0.015625)" xlink:href="#DejaVuSans-100"/>
      <use transform="translate(1539.160156 0.015625)" xlink:href="#DejaVuSans-47"/>
      <use transform="translate(1572.851562 0.015625)" xlink:href="#DejaVuSans-115"/>
      <use transform="translate(1624.951172 0.015625)" xlink:href="#DejaVuSans-97"/>
      <use transform="translate(1686.230469 0.015625)" xlink:href="#DejaVuSans-109"/>
      <use transform="translate(1783.642578 0.015625)" xlink:href="#DejaVuSans-112"/>
      <use transform="translate(1847.119141 0.015625)" xlink:href="#DejaVuSans-108"/>
      <use transform="translate(1874.902344 0.015625)" xlink:href="#DejaVuSans-101"/>
      <use transform="translate(1936.425781 0.015625)" xlink:href="#DejaVuSans-41"/>
     </g>
    </g>
   </g>
   <g id="matplotlib.axis_4">
    <g id="ytick_7">
     <g id="line2d_40">
      <path clip-path="url(#p05bb25f7b1)" d="M 474.23 357.438172 
L 845.28 357.438172 
" style="fill:none;stroke:#777777;stroke-linecap:square;stroke-width:0.8;"/>
     </g>
     <g id="line2d_41">
      <g>
       <use style="stroke:#000000;stroke-width:0.8;" x="474.23" xlink:href="#mb88f302533" y="357.438172"/>
      </g>
     </g>
     <g id="text_23">
      <!-- −80 -->
      <defs>
       <path d="M 10.59375 35.5 
L 73.1875 35.5 
L 73.1875 27.203125 
L 10.59375 27.203125 
z
" id="DejaVuSans-8722"/>
      </defs>
      <g transform="translate(446.125312 361.23739)scale(0.1 -0.1)">
       <use xlink:href="#DejaVuSans-8722"/>
       <use x="83.789062" xlink:href="#DejaVuSans-56"/>
       <use x="147.412109" xlink:href="#DejaVuSans-48"/>
      </g>
     </g>
    </g>
    <g id="ytick_8">
     <g id="line2d_42">
      <path clip-path="url(#p05bb25f7b1)" d="M 474.23 303.14788 
L 845.28 303.14788 
" style="fill:none;stroke:#777777;stroke-linecap:square;stroke-width:0.8;"/>
     </g>
     <g id="line2d_43">
      <g>
       <use style="stroke:#000000;stroke-width:0.8;" x="474.23" xlink:href="#mb88f302533" y="303.14788"/>
      </g>
     </g>
     <g id="text_24">
      <!-- −60 -->
      <g transform="translate(446.125312 306.947098)scale(0.1 -0.1)">
       <use xlink:href="#DejaVuSans-8722"/>
       <use x="83.789062" xlink:href="#DejaVuSans-54"/>
       <use x="147.412109" xlink:href="#DejaVuSans-48"/>
      </g>
     </g>
    </g>
    <g id="ytick_9">
     <g id="line2d_44">
      <path clip-path="url(#p05bb25f7b1)" d="M 474.23 248.857588 
L 845.28 248.857588 
" style="fill:none;stroke:#777777;stroke-linecap:square;stroke-width:0.8;"/>
     </g>
     <g id="line2d_45">
      <g>
       <use style="stroke:#000000;stroke-width:0.8;" x="474.23" xlink:href="#mb88f302533" y="248.857588"/>
      </g>
     </g>
     <g id="text_25">
      <!-- −40 -->
      <g transform="translate(446.125312 252.656806)scale(0.1 -0.1)">
       <use xlink:href="#DejaVuSans-8722"/>
       <use x="83.789062" xlink:href="#DejaVuSans-52"/>
       <use x="147.412109" xlink:href="#DejaVuSans-48"/>
      </g>
     </g>
    </g>
    <g id="ytick_10">
     <g id="line2d_46">
      <path clip-path="url(#p05bb25f7b1)" d="M 474.23 194.567296 
L 845.28 194.567296 
" style="fill:none;stroke:#777777;stroke-linecap:square;stroke-width:0.8;"/>
     </g>
     <g id="line2d_47">
      <g>
       <use style="stroke:#000000;stroke-width:0.8;" x="474.23" xlink:href="#mb88f302533" y="194.567296"/>
      </g>
     </g>
     <g id="text_26">
      <!-- −20 -->
      <g transform="translate(446.125312 198.366514)scale(0.1 -0.1)">
       <use xlink:href="#DejaVuSans-8722"/>
       <use x="83.789062" xlink:href="#DejaVuSans-50"/>
       <use x="147.412109" xlink:href="#DejaVuSans-48"/>
      </g>
     </g>
    </g>
    <g id="ytick_11">
     <g id="line2d_48">
      <path clip-path="url(#p05bb25f7b1)" d="M 474.23 140.277004 
L 845.28 140.277004 
" style="fill:none;stroke:#777777;stroke-linecap:square;stroke-width:0.8;"/>
     </g>
     <g id="line2d_49">
      <g>
       <use style="stroke:#000000;stroke-width:0.8;" x="474.23" xlink:href="#mb88f302533" y="140.277004"/>
      </g>
     </g>
     <g id="text_27">
      <!-- 0 -->
      <g transform="translate(460.8675 144.076222)scale(0.1 -0.1)">
       <use xlink:href="#DejaVuSans-48"/>
      </g>
     </g>
    </g>
    <g id="ytick_12">
     <g id="line2d_50">
      <path clip-path="url(#p05bb25f7b1)" d="M 474.23 85.986712 
L 845.28 85.986712 
" style="fill:none;stroke:#777777;stroke-linecap:square;stroke-width:0.8;"/>
     </g>
     <g id="line2d_51">
      <g>
       <use style="stroke:#000000;stroke-width:0.8;" x="474.23" xlink:href="#mb88f302533" y="85.986712"/>
      </g>
     </g>
     <g id="text_28">
      <!-- 20 -->
      <g transform="translate(454.505 89.78593)scale(0.1 -0.1)">
       <use xlink:href="#DejaVuSans-50"/>
       <use x="63.623047" xlink:href="#DejaVuSans-48"/>
      </g>
     </g>
    </g>
    <g id="text_29">
     <!-- Gain (dB) -->
     <defs>
      <path d="M 59.515625 10.40625 
L 59.515625 29.984375 
L 43.40625 29.984375 
L 43.40625 38.09375 
L 69.28125 38.09375 
L 69.28125 6.78125 
Q 63.578125 2.734375 56.6875 0.65625 
Q 49.8125 -1.421875 42 -1.421875 
Q 24.90625 -1.421875 15.25 8.5625 
Q 5.609375 18.5625 5.609375 36.375 
Q 5.609375 54.25 15.25 64.234375 
Q 24.90625 74.21875 42 74.21875 
Q 49.125 74.21875 55.546875 72.453125 
Q 61.96875 70.703125 67.390625 67.28125 
L 67.390625 56.78125 
Q 61.921875 61.421875 55.765625 63.765625 
Q 49.609375 66.109375 42.828125 66.109375 
Q 29.4375 66.109375 22.71875 58.640625 
Q 16.015625 51.171875 16.015625 36.375 
Q 16.015625 21.625 22.71875 14.15625 
Q 29.4375 6.6875 42.828125 6.6875 
Q 48.046875 6.6875 52.140625 7.59375 
Q 56.25 8.5 59.515625 10.40625 
z
" id="DejaVuSans-71"/>
      <path d="M 19.671875 34.8125 
L 19.671875 8.109375 
L 35.5 8.109375 
Q 43.453125 8.109375 47.28125 11.40625 
Q 51.125 14.703125 51.125 21.484375 
Q 51.125 28.328125 47.28125 31.5625 
Q 43.453125 34.8125 35.5 34.8125 
z
M 19.671875 64.796875 
L 19.671875 42.828125 
L 34.28125 42.828125 
Q 41.5 42.828125 45.03125 45.53125 
Q 48.578125 48.25 48.578125 53.8125 
Q 48.578125 59.328125 45.03125 62.0625 
Q 41.5 64.796875 34.28125 64.796875 
z
M 9.8125 72.90625 
L 35.015625 72.90625 
Q 46.296875 72.90625 52.390625 68.21875 
Q 58.5 63.53125 58.5 54.890625 
Q 58.5 48.1875 55.375 44.234375 
Q 52.25 40.28125 46.1875 39.3125 
Q 53.46875 37.75 57.5 32.78125 
Q 61.53125 27.828125 61.53125 20.40625 
Q 61.53125 10.640625 54.890625 5.3125 
Q 48.25 0 35.984375 0 
L 9.8125 0 
z
" id="DejaVuSans-66"/>
     </defs>
     <g transform="translate(440.045625 236.791406)rotate(-90)scale(0.1 -0.1)">
      <use xlink:href="#DejaVuSans-71"/>
      <use x="77.490234" xlink:href="#DejaVuSans-97"/>
      <use x="138.769531" xlink:href="#DejaVuSans-105"/>
      <use x="166.552734" xlink:href="#DejaVuSans-110"/>
      <use x="229.931641" xlink:href="#DejaVuSans-32"/>
      <use x="261.71875" xlink:href="#DejaVuSans-40"/>
      <use x="300.732422" xlink:href="#DejaVuSans-100"/>
      <use x="364.208984" xlink:href="#DejaVuSans-66"/>
      <use x="432.8125" xlink:href="#DejaVuSans-41"/>
     </g>
    </g>
   </g>
   <g id="line2d_52">
    <path clip-path="url(#p05bb25f7b1)" d="M 474.23 55.054545 
L 474.954707 55.13022 
L 475.679414 55.357595 
L 476.404121 55.737732 
L 477.128828 56.272431 
L 477.853535 56.964273 
L 479.302949 58.834069 
L 480.752363 61.386747 
L 482.201777 64.682258 
L 483.651191 68.809606 
L 485.100605 73.902794 
L 486.55002 80.171986 
L 487.999434 87.971115 
L 489.448848 97.969441 
L 490.173555 104.203536 
L 490.898262 111.711012 
L 491.622969 121.23452 
L 492.347676 134.606183 
L 493.072383 159.306676 
L 493.79709 174.16856 
L 494.521797 146.004621 
L 495.246504 135.950253 
L 495.971211 130.751859 
L 496.695918 127.990985 
L 497.420625 126.798047 
L 498.145332 126.782399 
L 498.870039 127.760705 
L 499.594746 129.666519 
L 500.319453 132.522208 
L 501.04416 136.445828 
L 501.768867 141.699113 
L 502.493574 148.827929 
L 503.218281 159.118427 
L 503.942988 176.824454 
L 504.667695 251.480658 
L 505.392402 177.357344 
L 506.117109 163.183552 
L 506.841816 155.761901 
L 507.566523 151.339835 
L 508.29123 148.731714 
L 509.015937 147.424548 
L 509.740645 147.168736 
L 510.465352 147.848214 
L 511.190059 149.43395 
L 511.914766 151.973469 
L 512.639473 155.607582 
L 513.36418 160.628756 
L 514.088887 167.644691 
L 514.813594 178.124576 
L 515.538301 197.318776 
L 516.263008 234.624621 
L 516.987715 190.7872 
L 517.712422 177.609995 
L 518.437129 170.330696 
L 519.161836 165.827499 
L 519.886543 163.050873 
L 520.61125 161.534268 
L 521.335957 161.047795 
L 522.060664 161.484656 
L 522.785371 162.820048 
L 523.510078 165.102575 
L 524.234785 168.471173 
L 524.959492 173.211832 
L 525.684199 179.914687 
L 526.408906 189.99164 
L 527.133613 208.362794 
L 527.85832 252.638825 
L 528.583027 203.321221 
L 529.307734 189.554866 
L 530.032441 181.927409 
L 530.757148 177.143923 
L 531.481855 174.115385 
L 532.206562 172.36056 
L 532.93127 171.641979 
L 533.655977 171.847455 
L 534.380684 172.946858 
L 535.105391 174.981824 
L 535.830098 178.080031 
L 536.554805 182.50584 
L 537.279512 188.79921 
L 538.004219 198.21868 
L 538.728926 214.866833 
L 539.453633 309.371001 
L 540.17834 215.068311 
L 540.903047 199.904343 
L 541.627754 191.684381 
L 542.352461 186.519809 
L 543.077168 183.195005 
L 543.801875 181.184412 
L 544.526582 180.229909 
L 545.251289 180.20697 
L 545.975996 181.075699 
L 546.700703 182.867194 
L 547.42541 185.69405 
L 548.150117 189.793535 
L 548.874824 195.645527 
L 549.599531 204.334257 
L 550.324238 219.131788 
L 551.048945 268.757539 
L 551.773652 226.589292 
L 552.498359 209.229371 
L 553.223066 200.218357 
L 553.947773 194.594727 
L 554.67248 190.938753 
L 555.397187 188.657115 
L 556.121895 187.461494 
L 556.846602 187.21031 
L 557.571309 187.851194 
L 558.296016 189.402889 
L 559.020723 191.961512 
L 559.74543 195.736166 
L 560.470137 201.146921 
L 561.194844 209.114014 
L 561.919551 222.214899 
L 562.644258 255.545184 
L 563.368965 238.609304 
L 564.093672 217.922264 
L 564.818379 207.907374 
L 565.543086 201.747929 
L 566.267793 197.726792 
L 566.9925 195.158394 
L 567.717207 193.715149 
L 568.441914 193.234339 
L 569.166621 193.649045 
L 569.891328 194.964591 
L 570.616035 197.260315 
L 571.340742 200.718036 
L 572.065449 205.702411 
L 572.790156 212.990204 
L 573.514863 224.614837 
L 574.23957 249.834262 
L 574.964277 252.335681 
L 575.688984 226.291246 
L 576.413691 215.007367 
L 577.138398 208.226178 
L 577.863105 203.803004 
L 578.587812 200.930438 
L 579.31252 199.231644 
L 580.037227 198.518597 
L 580.761934 198.707914 
L 581.486641 199.790735 
L 582.211348 201.82978 
L 582.936055 204.981235 
L 583.660762 209.560056 
L 584.385469 216.221351 
L 585.110176 226.581218 
L 585.834883 246.782972 
L 586.55959 270.856895 
L 587.284297 234.62383 
L 588.009004 221.708533 
L 588.733711 214.202303 
L 589.458418 209.334787 
L 590.183125 206.138108 
L 590.907832 204.174235 
L 591.632539 203.225168 
L 592.357246 203.189044 
L 593.081953 204.042113 
L 593.80666 205.830785 
L 594.531367 208.68747 
L 595.256074 212.88318 
L 595.980781 218.97117 
L 596.705488 228.248119 
L 597.430195 245.009774 
L 598.154902 315.258088 
L 598.879609 243.248433 
L 599.604316 228.166839 
L 600.329023 219.805528 
L 601.05373 214.44352 
L 601.778437 210.899465 
L 602.503145 208.65915 
L 603.227852 207.46906 
L 603.952559 207.206575 
L 604.677266 207.832256 
L 605.401973 209.376493 
L 606.12668 211.949707 
L 606.851387 215.784245 
L 607.576094 221.348374 
L 608.300801 229.692809 
L 609.025508 243.940033 
L 609.750215 288.848499 
L 610.474922 252.632003 
L 611.199629 234.52521 
L 611.924336 225.138895 
L 612.649043 219.221574 
L 613.37375 215.3027 
L 614.098457 212.77245 
L 614.823164 211.335026 
L 615.547871 210.844332 
L 616.272578 211.244275 
L 616.997285 212.549399 
L 617.721992 214.849719 
L 618.446699 218.343544 
L 619.171406 223.428089 
L 619.896113 230.962829 
L 620.62082 243.28718 
L 621.345527 272.626155 
L 622.070234 263.61287 
L 622.794941 240.932068 
L 623.519648 230.290417 
L 624.244355 223.742559 
L 624.969062 219.416184 
L 625.69377 216.58002 
L 626.418477 214.887503 
L 627.143184 214.165764 
L 627.867891 214.340832 
L 628.592598 215.411409 
L 629.317305 217.44844 
L 630.042012 220.620132 
L 630.766719 225.264013 
L 631.491426 232.08919 
L 632.216133 242.891723 
L 632.94084 265.046572 
L 633.665547 278.211484 
L 634.390254 247.563705 
L 635.114961 235.341214 
L 635.839668 228.067968 
L 636.564375 223.294809 
L 637.289082 220.133806 
L 638.013789 218.176817 
L 638.738496 217.220129 
L 639.463203 217.170344 
L 640.18791 218.010115 
L 640.912617 219.792379 
L 641.637324 222.658541 
L 642.362031 226.895645 
L 643.086738 233.093174 
L 643.811445 242.65803 
L 644.536152 260.47851 
L 645.260859 305.101016 
L 645.985566 254.660526 
L 646.710273 240.37264 
L 647.43498 232.251833 
L 648.159687 226.984203 
L 648.884395 223.475906 
L 649.609102 221.243222 
L 650.333809 220.04652 
L 651.058516 219.771012 
L 651.783223 220.382853 
L 652.50793 221.917766 
L 653.232637 224.493066 
L 653.957344 228.352757 
L 654.682051 233.990027 
L 655.406758 242.525553 
L 656.131465 257.395377 
L 656.856172 312.859213 
L 657.580879 262.600999 
L 658.305586 245.47401 
L 659.030293 236.344354 
L 659.755 230.523687 
L 660.479707 226.64136 
L 661.204414 224.119638 
L 661.929121 222.676578 
L 662.653828 222.173535 
L 663.378535 222.559441 
L 664.103242 223.853318 
L 664.827949 226.150602 
L 665.552656 229.658262 
L 666.277363 234.791064 
L 667.00207 242.454318 
L 667.726777 255.165286 
L 668.451484 287.236048 
L 669.176191 272.088461 
L 669.900898 250.752994 
L 670.625605 240.395096 
L 671.350312 233.948496 
L 672.07502 229.660143 
L 672.799727 226.833564 
L 673.524434 225.136381 
L 674.249141 224.40299 
L 674.973848 224.564056 
L 675.698555 225.622144 
L 676.423262 227.652566 
L 677.147969 230.830107 
L 677.872676 235.504928 
L 678.597383 242.417029 
L 679.32209 253.468954 
L 680.046797 276.840568 
L 680.771504 284.775305 
L 681.496211 256.352257 
L 682.220918 244.456303 
L 682.945625 237.291578 
L 683.670332 232.558641 
L 684.395039 229.408466 
L 685.119746 227.447796 
L 685.844453 226.48017 
L 686.56916 226.416575 
L 687.293867 227.243086 
L 688.018574 229.016246 
L 688.743281 231.882563 
L 689.467988 236.138369 
L 690.192695 242.394511 
L 690.917402 252.124534 
L 691.642109 270.597097 
L 692.366816 306.829662 
L 693.091523 262.480258 
L 693.81623 248.586906 
L 694.540937 240.585205 
L 695.265645 235.360817 
L 695.990352 231.864813 
L 696.715059 229.629471 
L 697.439766 228.422561 
L 698.164473 228.133543 
L 698.88918 228.731684 
L 699.613887 230.255754 
L 700.338594 232.827117 
L 701.063301 236.696746 
L 701.788008 242.372957 
L 702.512715 251.019725 
L 703.237422 266.2749 
L 703.962129 332.337483 
L 704.686836 269.476765 
L 705.411543 252.858095 
L 706.13625 243.862592 
L 706.860957 238.089176 
L 707.585664 234.22088 
L 708.310371 231.697587 
L 709.035078 230.24507 
L 709.759785 229.728894 
L 710.484492 230.100891 
L 711.209199 231.382726 
L 711.933906 233.673115 
L 712.658613 237.184365 
L 713.38332 242.342196 
L 714.108027 250.080971 
L 714.832734 263.03381 
L 715.557441 297.054618 
L 717.006855 257.362011 
L 717.731562 247.159742 
L 718.45627 240.765651 
L 719.180977 236.493407 
L 719.905684 233.666435 
L 720.630391 231.960575 
L 721.355098 231.214486 
L 722.079805 231.3616 
L 722.804512 232.406834 
L 723.529219 234.428218 
L 724.253926 237.604706 
L 724.978633 242.294562 
L 725.70334 249.257852 
L 726.428047 260.467683 
L 727.152754 284.671788 
L 727.877461 289.449161 
L 728.602168 262.226716 
L 729.326875 250.517779 
L 730.051582 243.412467 
L 730.776289 238.698151 
L 731.500996 235.548887 
L 732.225703 233.580362 
L 732.95041 232.60052 
L 733.675117 232.523051 
L 734.399824 233.336175 
L 735.124531 235.098744 
L 735.849238 237.960586 
L 736.573945 242.224152 
L 737.298652 248.514514 
L 738.023359 258.350268 
L 738.748066 277.267111 
L 739.472773 308.979194 
L 740.19748 267.644645 
L 740.922187 253.986215 
L 741.646895 246.053091 
L 742.371602 240.850395 
L 743.096309 237.356778 
L 743.821016 235.114461 
L 744.545723 233.895861 
L 745.27043 233.593139 
L 745.995137 234.177567 
L 746.719844 235.689922 
L 747.444551 238.254271 
L 748.169258 242.126302 
L 748.893965 247.824661 
L 749.618672 256.543239 
L 750.343379 272.062905 
L 751.068086 350.235501 
L 751.792793 273.933305 
L 752.5175 257.627894 
L 753.242207 248.713362 
L 753.966914 242.965451 
L 754.691621 239.101242 
L 755.416328 236.571933 
L 756.141035 235.108298 
L 756.865742 234.578659 
L 757.590449 234.93677 
L 758.315156 236.206084 
L 759.039863 238.487567 
L 759.76457 241.997231 
L 760.489277 247.16847 
L 761.213984 254.956205 
L 761.938691 268.077007 
L 762.663398 303.601039 
L 764.112813 261.527034 
L 764.83752 251.422953 
L 765.562227 245.059178 
L 766.286934 240.793022 
L 767.011641 237.961099 
L 767.736348 236.244746 
L 768.461055 235.485495 
L 769.185762 235.618667 
L 769.910469 236.650811 
L 770.635176 238.661873 
L 771.359883 241.83378 
L 772.08459 246.530623 
L 772.809297 253.527025 
L 773.534004 264.847973 
L 774.258711 289.677553 
L 774.983418 292.251771 
L 775.708125 265.803317 
L 776.432832 254.217401 
L 777.157539 247.14859 
L 777.882246 242.44276 
L 778.606953 239.289753 
L 779.33166 237.311423 
L 780.056367 236.318777 
L 780.781074 236.227401 
L 781.505781 237.027046 
L 782.230488 238.778232 
L 782.955195 241.633223 
L 783.679902 245.898994 
L 784.404609 252.211211 
L 785.129316 262.122381 
L 785.854023 281.374679 
L 786.57873 310.088482 
L 787.303437 270.63879 
L 788.028145 257.141083 
L 788.752852 249.25259 
L 789.477559 244.061309 
L 790.202266 240.565345 
L 790.926973 238.313996 
L 791.65168 237.083004 
L 792.376387 236.766485 
L 793.101094 237.33718 
L 793.825801 238.837358 
L 794.550508 241.393127 
L 795.275215 245.263757 
L 795.999922 250.975806 
L 796.724629 259.746281 
L 797.449336 275.468566 
L 798.174043 371.345455 
L 798.89875 276.334985 
L 799.623457 260.251846 
L 800.348164 251.392919 
L 801.072871 245.660073 
L 801.797578 241.795165 
L 802.522285 239.257699 
L 803.246992 237.782147 
L 803.971699 237.238885 
L 804.696406 237.583117 
L 805.421113 238.839664 
L 806.14582 241.111239 
L 806.870527 244.616753 
L 807.595234 249.795655 
L 808.319941 257.6192 
L 809.044648 270.871155 
L 809.769355 307.67435 
L 810.494062 283.453654 
L 811.21877 263.628643 
L 811.943477 253.595468 
L 812.668184 247.251396 
L 813.392891 242.986521 
L 814.117598 240.147457 
L 814.842305 238.419734 
L 815.567012 237.647096 
L 816.291719 237.76633 
L 817.016426 238.785271 
L 817.741133 240.785399 
L 818.46584 243.951038 
L 819.190547 248.651023 
L 819.915254 255.671895 
L 820.639961 267.081558 
L 821.364668 292.437779 
L 822.089375 293.252137 
L 822.814082 267.384941 
L 823.538789 255.892144 
L 824.263496 248.849064 
L 824.988203 244.14694 
L 825.71291 240.987987 
L 826.437617 238.998924 
L 827.162324 237.993189 
L 827.887031 237.887888 
L 828.611738 238.674017 
L 829.336445 240.413472 
L 830.061152 243.260548 
L 830.785859 247.526018 
L 831.510566 253.854505 
L 832.235273 263.82742 
L 832.95998 283.366729 
L 833.684687 309.737669 
L 834.409395 271.694256 
L 835.134102 258.32367 
L 835.858809 250.46893 
L 836.583516 245.284384 
L 837.308223 241.783908 
L 838.03293 239.522573 
L 838.757637 238.278859 
L 839.482344 237.948494 
L 840.207051 238.505457 
L 840.931758 239.993285 
L 841.656465 242.539844 
L 842.381172 246.407515 
L 843.105879 252.129774 
L 843.830586 260.94397 
L 844.555293 276.844013 
L 844.555293 276.844013 
" style="fill:none;stroke:#0072bd;stroke-linecap:square;stroke-width:1.4;"/>
   </g>
   <g id="patch_8">
    <path d="M 474.23 387.16 
L 474.23 39.24 
" style="fill:none;stroke:#000000;stroke-linecap:square;stroke-linejoin:miter;stroke-width:0.8;"/>
   </g>
   <g id="patch_9">
    <path d="M 845.28 387.16 
L 845.28 39.24 
" style="fill:none;stroke:#000000;stroke-linecap:square;stroke-linejoin:miter;stroke-width:0.8;"/>
   </g>
   <g id="patch_10">
    <path d="M 474.23 387.16 
L 845.28 387.16 
" style="fill:none;stroke:#000000;stroke-linecap:square;stroke-linejoin:miter;stroke-width:0.8;"/>
   </g>
   <g id="patch_11">
    <path d="M 474.23 39.24 
L 845.28 39.24 
" style="fill:none;stroke:#000000;stroke-linecap:square;stroke-linejoin:miter;stroke-width:0.8;"/>
   </g>
  </g>
  <g id="text_30">
   <!-- Lanczos window -->
   <defs>
    <path d="M 9.8125 72.90625 
L 19.671875 72.90625 
L 19.671875 8.296875 
L 55.171875 8.296875 
L 55.171875 0 
L 9.8125 0 
z
" id="DejaVuSans-76"/>
    <path d="M 4.203125 54.6875 
L 13.1875 54.6875 
L 24.421875 12.015625 
L 35.59375 54.6875 
L 46.1875 54.6875 
L 57.421875 12.015625 
L 68.609375 54.6875 
L 77.59375 54.6875 
L 63.28125 0 
L 52.6875 0 
L 40.921875 44.828125 
L 29.109375 0 
L 18.5 0 
z
" id="DejaVuSans-119"/>
   </defs>
   <g transform="translate(367.01625 20.7975)scale(0.16 -0.16)">
    <use xlink:href="#DejaVuSans-76"/>
    <use x="55.712891" xlink:href="#DejaVuSans-97"/>
    <use x="116.992188" xlink:href="#DejaVuSans-110"/>
    <use x="180.371094" xlink:href="#DejaVuSans-99"/>
    <use x="235.351562" xlink:href="#DejaVuSans-122"/>
    <use x="287.841797" xlink:href="#DejaVuSans-111"/>
    <use x="349.023438" xlink:href="#DejaVuSans-115"/>
    <use x="401.123047" xlink:href="#DejaVuSans-32"/>
    <use x="432.910156" xlink:href="#DejaVuSans-119"/>
    <use x="514.697266" xlink:href="#DejaVuSans-105"/>
    <use x="542.480469" xlink:href="#DejaVuSans-110"/>
    <use x="605.859375" xlink:href="#DejaVuSans-100"/>
    <use x="669.335938" xlink:href="#DejaVuSans-111"/>
    <use x="730.517578" xlink:href="#DejaVuSans-119"/>
   </g>
  </g>
 </g>
 <defs>
  <clipPath id="p474020f3d9">
   <rect height="347.92" width="371.05" x="47.72" y="39.24"/>
  </clipPath>
  <clipPath id="p05bb25f7b1">
   <rect height="347.92" width="371.05" x="474.23" y="39.24"/>
  </clipPath>
 </defs>
</svg>
