<?xml version="1.0" encoding="utf-8" standalone="no"?>
<!DOCTYPE svg PUBLIC "-//W3C//DTD SVG 1.1//EN"
  "http://www.w3.org/Graphics/SVG/1.1/DTD/svg11.dtd">
<!-- Created with matplotlib (https://matplotlib.org/) -->
<svg height="432pt" version="1.1" viewBox="0 0 864 432" width="864pt" xmlns="http://www.w3.org/2000/svg" xmlns:xlink="http://www.w3.org/1999/xlink">
 <defs>
  <style type="text/css">
*{stroke-linecap:butt;stroke-linejoin:round;}
  </style>
 </defs>
 <g id="figure_1">
  <g id="patch_1">
   <path d="M 0 432 
L 864 432 
L 864 0 
L 0 0 
z
" style="fill:#ffffff;"/>
  </g>
  <g id="axes_1">
   <g id="patch_2">
    <path d="M 47.855 388.6 
L 420.03 388.6 
L 420.03 36.72 
L 47.855 36.72 
z
" style="fill:#ffffff;"/>
   </g>
   <g id="matplotlib.axis_1">
    <g id="xtick_1">
     <g id="line2d_1">
      <path clip-path="url(#p9df6d55b6c)" d="M 47.855 388.6 
L 47.855 36.72 
" style="fill:none;stroke:#777777;stroke-linecap:square;stroke-width:0.8;"/>
     </g>
     <g id="line2d_2">
      <defs>
       <path d="M 0 0 
L 0 3.5 
" id="m08b5520b76" style="stroke:#000000;stroke-width:0.8;"/>
      </defs>
      <g>
       <use style="stroke:#000000;stroke-width:0.8;" x="47.855" xlink:href="#m08b5520b76" y="388.6"/>
      </g>
     </g>
     <g id="text_1">
      <!-- 0 -->
      <defs>
       <path d="M 31.78125 66.40625 
Q 24.171875 66.40625 20.328125 58.90625 
Q 16.5 51.421875 16.5 36.375 
Q 16.5 21.390625 20.328125 13.890625 
Q 24.171875 6.390625 31.78125 6.390625 
Q 39.453125 6.390625 43.28125 13.890625 
Q 47.125 21.390625 47.125 36.375 
Q 47.125 51.421875 43.28125 58.90625 
Q 39.453125 66.40625 31.78125 66.40625 
z
M 31.78125 74.21875 
Q 44.046875 74.21875 50.515625 64.515625 
Q 56.984375 54.828125 56.984375 36.375 
Q 56.984375 17.96875 50.515625 8.265625 
Q 44.046875 -1.421875 31.78125 -1.421875 
Q 19.53125 -1.421875 13.0625 8.265625 
Q 6.59375 17.96875 6.59375 36.375 
Q 6.59375 54.828125 13.0625 64.515625 
Q 19.53125 74.21875 31.78125 74.21875 
z
" id="DejaVuSans-48"/>
      </defs>
      <g transform="translate(44.67375 403.198438)scale(0.1 -0.1)">
       <use xlink:href="#DejaVuSans-48"/>
      </g>
     </g>
    </g>
    <g id="xtick_2">
     <g id="line2d_3">
      <path clip-path="url(#p9df6d55b6c)" d="M 106.930397 388.6 
L 106.930397 36.72 
" style="fill:none;stroke:#777777;stroke-linecap:square;stroke-width:0.8;"/>
     </g>
     <g id="line2d_4">
      <g>
       <use style="stroke:#000000;stroke-width:0.8;" x="106.930397" xlink:href="#m08b5520b76" y="388.6"/>
      </g>
     </g>
     <g id="text_2">
      <!-- 10 -->
      <defs>
       <path d="M 12.40625 8.296875 
L 28.515625 8.296875 
L 28.515625 63.921875 
L 10.984375 60.40625 
L 10.984375 69.390625 
L 28.421875 72.90625 
L 38.28125 72.90625 
L 38.28125 8.296875 
L 54.390625 8.296875 
L 54.390625 0 
L 12.40625 0 
z
" id="DejaVuSans-49"/>
      </defs>
      <g transform="translate(100.567897 403.198438)scale(0.1 -0.1)">
       <use xlink:href="#DejaVuSans-49"/>
       <use x="63.623047" xlink:href="#DejaVuSans-48"/>
      </g>
     </g>
    </g>
    <g id="xtick_3">
     <g id="line2d_5">
      <path clip-path="url(#p9df6d55b6c)" d="M 166.005794 388.6 
L 166.005794 36.72 
" style="fill:none;stroke:#777777;stroke-linecap:square;stroke-width:0.8;"/>
     </g>
     <g id="line2d_6">
      <g>
       <use style="stroke:#000000;stroke-width:0.8;" x="166.005794" xlink:href="#m08b5520b76" y="388.6"/>
      </g>
     </g>
     <g id="text_3">
      <!-- 20 -->
      <defs>
       <path d="M 19.1875 8.296875 
L 53.609375 8.296875 
L 53.609375 0 
L 7.328125 0 
L 7.328125 8.296875 
Q 12.9375 14.109375 22.625 23.890625 
Q 32.328125 33.6875 34.8125 36.53125 
Q 39.546875 41.84375 41.421875 45.53125 
Q 43.3125 49.21875 43.3125 52.78125 
Q 43.3125 58.59375 39.234375 62.25 
Q 35.15625 65.921875 28.609375 65.921875 
Q 23.96875 65.921875 18.8125 64.3125 
Q 13.671875 62.703125 7.8125 59.421875 
L 7.8125 69.390625 
Q 13.765625 71.78125 18.9375 73 
Q 24.125 74.21875 28.421875 74.21875 
Q 39.75 74.21875 46.484375 68.546875 
Q 53.21875 62.890625 53.21875 53.421875 
Q 53.21875 48.921875 51.53125 44.890625 
Q 49.859375 40.875 45.40625 35.40625 
Q 44.1875 33.984375 37.640625 27.21875 
Q 31.109375 20.453125 19.1875 8.296875 
z
" id="DejaVuSans-50"/>
      </defs>
      <g transform="translate(159.643294 403.198438)scale(0.1 -0.1)">
       <use xlink:href="#DejaVuSans-50"/>
       <use x="63.623047" xlink:href="#DejaVuSans-48"/>
      </g>
     </g>
    </g>
    <g id="xtick_4">
     <g id="line2d_7">
      <path clip-path="url(#p9df6d55b6c)" d="M 225.08119 388.6 
L 225.08119 36.72 
" style="fill:none;stroke:#777777;stroke-linecap:square;stroke-width:0.8;"/>
     </g>
     <g id="line2d_8">
      <g>
       <use style="stroke:#000000;stroke-width:0.8;" x="225.08119" xlink:href="#m08b5520b76" y="388.6"/>
      </g>
     </g>
     <g id="text_4">
      <!-- 30 -->
      <defs>
       <path d="M 40.578125 39.3125 
Q 47.65625 37.796875 51.625 33 
Q 55.609375 28.21875 55.609375 21.1875 
Q 55.609375 10.40625 48.1875 4.484375 
Q 40.765625 -1.421875 27.09375 -1.421875 
Q 22.515625 -1.421875 17.65625 -0.515625 
Q 12.796875 0.390625 7.625 2.203125 
L 7.625 11.71875 
Q 11.71875 9.328125 16.59375 8.109375 
Q 21.484375 6.890625 26.8125 6.890625 
Q 36.078125 6.890625 40.9375 10.546875 
Q 45.796875 14.203125 45.796875 21.1875 
Q 45.796875 27.640625 41.28125 31.265625 
Q 36.765625 34.90625 28.71875 34.90625 
L 20.21875 34.90625 
L 20.21875 43.015625 
L 29.109375 43.015625 
Q 36.375 43.015625 40.234375 45.921875 
Q 44.09375 48.828125 44.09375 54.296875 
Q 44.09375 59.90625 40.109375 62.90625 
Q 36.140625 65.921875 28.71875 65.921875 
Q 24.65625 65.921875 20.015625 65.03125 
Q 15.375 64.15625 9.8125 62.3125 
L 9.8125 71.09375 
Q 15.4375 72.65625 20.34375 73.4375 
Q 25.25 74.21875 29.59375 74.21875 
Q 40.828125 74.21875 47.359375 69.109375 
Q 53.90625 64.015625 53.90625 55.328125 
Q 53.90625 49.265625 50.4375 45.09375 
Q 46.96875 40.921875 40.578125 39.3125 
z
" id="DejaVuSans-51"/>
      </defs>
      <g transform="translate(218.71869 403.198438)scale(0.1 -0.1)">
       <use xlink:href="#DejaVuSans-51"/>
       <use x="63.623047" xlink:href="#DejaVuSans-48"/>
      </g>
     </g>
    </g>
    <g id="xtick_5">
     <g id="line2d_9">
      <path clip-path="url(#p9df6d55b6c)" d="M 284.156587 388.6 
L 284.156587 36.72 
" style="fill:none;stroke:#777777;stroke-linecap:square;stroke-width:0.8;"/>
     </g>
     <g id="line2d_10">
      <g>
       <use style="stroke:#000000;stroke-width:0.8;" x="284.156587" xlink:href="#m08b5520b76" y="388.6"/>
      </g>
     </g>
     <g id="text_5">
      <!-- 40 -->
      <defs>
       <path d="M 37.796875 64.3125 
L 12.890625 25.390625 
L 37.796875 25.390625 
z
M 35.203125 72.90625 
L 47.609375 72.90625 
L 47.609375 25.390625 
L 58.015625 25.390625 
L 58.015625 17.1875 
L 47.609375 17.1875 
L 47.609375 0 
L 37.796875 0 
L 37.796875 17.1875 
L 4.890625 17.1875 
L 4.890625 26.703125 
z
" id="DejaVuSans-52"/>
      </defs>
      <g transform="translate(277.794087 403.198438)scale(0.1 -0.1)">
       <use xlink:href="#DejaVuSans-52"/>
       <use x="63.623047" xlink:href="#DejaVuSans-48"/>
      </g>
     </g>
    </g>
    <g id="xtick_6">
     <g id="line2d_11">
      <path clip-path="url(#p9df6d55b6c)" d="M 343.231984 388.6 
L 343.231984 36.72 
" style="fill:none;stroke:#777777;stroke-linecap:square;stroke-width:0.8;"/>
     </g>
     <g id="line2d_12">
      <g>
       <use style="stroke:#000000;stroke-width:0.8;" x="343.231984" xlink:href="#m08b5520b76" y="388.6"/>
      </g>
     </g>
     <g id="text_6">
      <!-- 50 -->
      <defs>
       <path d="M 10.796875 72.90625 
L 49.515625 72.90625 
L 49.515625 64.59375 
L 19.828125 64.59375 
L 19.828125 46.734375 
Q 21.96875 47.46875 24.109375 47.828125 
Q 26.265625 48.1875 28.421875 48.1875 
Q 40.625 48.1875 47.75 41.5 
Q 54.890625 34.8125 54.890625 23.390625 
Q 54.890625 11.625 47.5625 5.09375 
Q 40.234375 -1.421875 26.90625 -1.421875 
Q 22.3125 -1.421875 17.546875 -0.640625 
Q 12.796875 0.140625 7.71875 1.703125 
L 7.71875 11.625 
Q 12.109375 9.234375 16.796875 8.0625 
Q 21.484375 6.890625 26.703125 6.890625 
Q 35.15625 6.890625 40.078125 11.328125 
Q 45.015625 15.765625 45.015625 23.390625 
Q 45.015625 31 40.078125 35.4375 
Q 35.15625 39.890625 26.703125 39.890625 
Q 22.75 39.890625 18.8125 39.015625 
Q 14.890625 38.140625 10.796875 36.28125 
z
" id="DejaVuSans-53"/>
      </defs>
      <g transform="translate(336.869484 403.198438)scale(0.1 -0.1)">
       <use xlink:href="#DejaVuSans-53"/>
       <use x="63.623047" xlink:href="#DejaVuSans-48"/>
      </g>
     </g>
    </g>
    <g id="xtick_7">
     <g id="line2d_13">
      <path clip-path="url(#p9df6d55b6c)" d="M 402.307381 388.6 
L 402.307381 36.72 
" style="fill:none;stroke:#777777;stroke-linecap:square;stroke-width:0.8;"/>
     </g>
     <g id="line2d_14">
      <g>
       <use style="stroke:#000000;stroke-width:0.8;" x="402.307381" xlink:href="#m08b5520b76" y="388.6"/>
      </g>
     </g>
     <g id="text_7">
      <!-- 60 -->
      <defs>
       <path d="M 33.015625 40.375 
Q 26.375 40.375 22.484375 35.828125 
Q 18.609375 31.296875 18.609375 23.390625 
Q 18.609375 15.53125 22.484375 10.953125 
Q 26.375 6.390625 33.015625 6.390625 
Q 39.65625 6.390625 43.53125 10.953125 
Q 47.40625 15.53125 47.40625 23.390625 
Q 47.40625 31.296875 43.53125 35.828125 
Q 39.65625 40.375 33.015625 40.375 
z
M 52.59375 71.296875 
L 52.59375 62.3125 
Q 48.875 64.0625 45.09375 64.984375 
Q 41.3125 65.921875 37.59375 65.921875 
Q 27.828125 65.921875 22.671875 59.328125 
Q 17.53125 52.734375 16.796875 39.40625 
Q 19.671875 43.65625 24.015625 45.921875 
Q 28.375 48.1875 33.59375 48.1875 
Q 44.578125 48.1875 50.953125 41.515625 
Q 57.328125 34.859375 57.328125 23.390625 
Q 57.328125 12.15625 50.6875 5.359375 
Q 44.046875 -1.421875 33.015625 -1.421875 
Q 20.359375 -1.421875 13.671875 8.265625 
Q 6.984375 17.96875 6.984375 36.375 
Q 6.984375 53.65625 15.1875 63.9375 
Q 23.390625 74.21875 37.203125 74.21875 
Q 40.921875 74.21875 44.703125 73.484375 
Q 48.484375 72.75 52.59375 71.296875 
z
" id="DejaVuSans-54"/>
      </defs>
      <g transform="translate(395.944881 403.198438)scale(0.1 -0.1)">
       <use xlink:href="#DejaVuSans-54"/>
       <use x="63.623047" xlink:href="#DejaVuSans-48"/>
      </g>
     </g>
    </g>
    <g id="text_8">
     <!-- Samples -->
     <defs>
      <path d="M 53.515625 70.515625 
L 53.515625 60.890625 
Q 47.90625 63.578125 42.921875 64.890625 
Q 37.9375 66.21875 33.296875 66.21875 
Q 25.25 66.21875 20.875 63.09375 
Q 16.5 59.96875 16.5 54.203125 
Q 16.5 49.359375 19.40625 46.890625 
Q 22.3125 44.4375 30.421875 42.921875 
L 36.375 41.703125 
Q 47.40625 39.59375 52.65625 34.296875 
Q 57.90625 29 57.90625 20.125 
Q 57.90625 9.515625 50.796875 4.046875 
Q 43.703125 -1.421875 29.984375 -1.421875 
Q 24.8125 -1.421875 18.96875 -0.25 
Q 13.140625 0.921875 6.890625 3.21875 
L 6.890625 13.375 
Q 12.890625 10.015625 18.65625 8.296875 
Q 24.421875 6.59375 29.984375 6.59375 
Q 38.421875 6.59375 43.015625 9.90625 
Q 47.609375 13.234375 47.609375 19.390625 
Q 47.609375 24.75 44.3125 27.78125 
Q 41.015625 30.8125 33.5 32.328125 
L 27.484375 33.5 
Q 16.453125 35.6875 11.515625 40.375 
Q 6.59375 45.0625 6.59375 53.421875 
Q 6.59375 63.09375 13.40625 68.65625 
Q 20.21875 74.21875 32.171875 74.21875 
Q 37.3125 74.21875 42.625 73.28125 
Q 47.953125 72.359375 53.515625 70.515625 
z
" id="DejaVuSans-83"/>
      <path d="M 34.28125 27.484375 
Q 23.390625 27.484375 19.1875 25 
Q 14.984375 22.515625 14.984375 16.5 
Q 14.984375 11.71875 18.140625 8.90625 
Q 21.296875 6.109375 26.703125 6.109375 
Q 34.1875 6.109375 38.703125 11.40625 
Q 43.21875 16.703125 43.21875 25.484375 
L 43.21875 27.484375 
z
M 52.203125 31.203125 
L 52.203125 0 
L 43.21875 0 
L 43.21875 8.296875 
Q 40.140625 3.328125 35.546875 0.953125 
Q 30.953125 -1.421875 24.3125 -1.421875 
Q 15.921875 -1.421875 10.953125 3.296875 
Q 6 8.015625 6 15.921875 
Q 6 25.140625 12.171875 29.828125 
Q 18.359375 34.515625 30.609375 34.515625 
L 43.21875 34.515625 
L 43.21875 35.40625 
Q 43.21875 41.609375 39.140625 45 
Q 35.0625 48.390625 27.6875 48.390625 
Q 23 48.390625 18.546875 47.265625 
Q 14.109375 46.140625 10.015625 43.890625 
L 10.015625 52.203125 
Q 14.9375 54.109375 19.578125 55.046875 
Q 24.21875 56 28.609375 56 
Q 40.484375 56 46.34375 49.84375 
Q 52.203125 43.703125 52.203125 31.203125 
z
" id="DejaVuSans-97"/>
      <path d="M 52 44.1875 
Q 55.375 50.25 60.0625 53.125 
Q 64.75 56 71.09375 56 
Q 79.640625 56 84.28125 50.015625 
Q 88.921875 44.046875 88.921875 33.015625 
L 88.921875 0 
L 79.890625 0 
L 79.890625 32.71875 
Q 79.890625 40.578125 77.09375 44.375 
Q 74.3125 48.1875 68.609375 48.1875 
Q 61.625 48.1875 57.5625 43.546875 
Q 53.515625 38.921875 53.515625 30.90625 
L 53.515625 0 
L 44.484375 0 
L 44.484375 32.71875 
Q 44.484375 40.625 41.703125 44.40625 
Q 38.921875 48.1875 33.109375 48.1875 
Q 26.21875 48.1875 22.15625 43.53125 
Q 18.109375 38.875 18.109375 30.90625 
L 18.109375 0 
L 9.078125 0 
L 9.078125 54.6875 
L 18.109375 54.6875 
L 18.109375 46.1875 
Q 21.1875 51.21875 25.484375 53.609375 
Q 29.78125 56 35.6875 56 
Q 41.65625 56 45.828125 52.96875 
Q 50 49.953125 52 44.1875 
z
" id="DejaVuSans-109"/>
      <path d="M 18.109375 8.203125 
L 18.109375 -20.796875 
L 9.078125 -20.796875 
L 9.078125 54.6875 
L 18.109375 54.6875 
L 18.109375 46.390625 
Q 20.953125 51.265625 25.265625 53.625 
Q 29.59375 56 35.59375 56 
Q 45.5625 56 51.78125 48.09375 
Q 58.015625 40.1875 58.015625 27.296875 
Q 58.015625 14.40625 51.78125 6.484375 
Q 45.5625 -1.421875 35.59375 -1.421875 
Q 29.59375 -1.421875 25.265625 0.953125 
Q 20.953125 3.328125 18.109375 8.203125 
z
M 48.6875 27.296875 
Q 48.6875 37.203125 44.609375 42.84375 
Q 40.53125 48.484375 33.40625 48.484375 
Q 26.265625 48.484375 22.1875 42.84375 
Q 18.109375 37.203125 18.109375 27.296875 
Q 18.109375 17.390625 22.1875 11.75 
Q 26.265625 6.109375 33.40625 6.109375 
Q 40.53125 6.109375 44.609375 11.75 
Q 48.6875 17.390625 48.6875 27.296875 
z
" id="DejaVuSans-112"/>
      <path d="M 9.421875 75.984375 
L 18.40625 75.984375 
L 18.40625 0 
L 9.421875 0 
z
" id="DejaVuSans-108"/>
      <path d="M 56.203125 29.59375 
L 56.203125 25.203125 
L 14.890625 25.203125 
Q 15.484375 15.921875 20.484375 11.0625 
Q 25.484375 6.203125 34.421875 6.203125 
Q 39.59375 6.203125 44.453125 7.46875 
Q 49.3125 8.734375 54.109375 11.28125 
L 54.109375 2.78125 
Q 49.265625 0.734375 44.1875 -0.34375 
Q 39.109375 -1.421875 33.890625 -1.421875 
Q 20.796875 -1.421875 13.15625 6.1875 
Q 5.515625 13.8125 5.515625 26.8125 
Q 5.515625 40.234375 12.765625 48.109375 
Q 20.015625 56 32.328125 56 
Q 43.359375 56 49.78125 48.890625 
Q 56.203125 41.796875 56.203125 29.59375 
z
M 47.21875 32.234375 
Q 47.125 39.59375 43.09375 43.984375 
Q 39.0625 48.390625 32.421875 48.390625 
Q 24.90625 48.390625 20.390625 44.140625 
Q 15.875 39.890625 15.1875 32.171875 
z
" id="DejaVuSans-101"/>
      <path d="M 44.28125 53.078125 
L 44.28125 44.578125 
Q 40.484375 46.53125 36.375 47.5 
Q 32.28125 48.484375 27.875 48.484375 
Q 21.1875 48.484375 17.84375 46.4375 
Q 14.5 44.390625 14.5 40.28125 
Q 14.5 37.15625 16.890625 35.375 
Q 19.28125 33.59375 26.515625 31.984375 
L 29.59375 31.296875 
Q 39.15625 29.25 43.1875 25.515625 
Q 47.21875 21.78125 47.21875 15.09375 
Q 47.21875 7.46875 41.1875 3.015625 
Q 35.15625 -1.421875 24.609375 -1.421875 
Q 20.21875 -1.421875 15.453125 -0.5625 
Q 10.6875 0.296875 5.421875 2 
L 5.421875 11.28125 
Q 10.40625 8.6875 15.234375 7.390625 
Q 20.0625 6.109375 24.8125 6.109375 
Q 31.15625 6.109375 34.5625 8.28125 
Q 37.984375 10.453125 37.984375 14.40625 
Q 37.984375 18.0625 35.515625 20.015625 
Q 33.0625 21.96875 24.703125 23.78125 
L 21.578125 24.515625 
Q 13.234375 26.265625 9.515625 29.90625 
Q 5.8125 33.546875 5.8125 39.890625 
Q 5.8125 47.609375 11.28125 51.796875 
Q 16.75 56 26.8125 56 
Q 31.78125 56 36.171875 55.265625 
Q 40.578125 54.546875 44.28125 53.078125 
z
" id="DejaVuSans-115"/>
     </defs>
     <g transform="translate(212.589375 416.876562)scale(0.1 -0.1)">
      <use xlink:href="#DejaVuSans-83"/>
      <use x="63.476562" xlink:href="#DejaVuSans-97"/>
      <use x="124.755859" xlink:href="#DejaVuSans-109"/>
      <use x="222.167969" xlink:href="#DejaVuSans-112"/>
      <use x="285.644531" xlink:href="#DejaVuSans-108"/>
      <use x="313.427734" xlink:href="#DejaVuSans-101"/>
      <use x="374.951172" xlink:href="#DejaVuSans-115"/>
     </g>
    </g>
   </g>
   <g id="matplotlib.axis_2">
    <g id="ytick_1">
     <g id="line2d_15">
      <path clip-path="url(#p9df6d55b6c)" d="M 47.855 344.861013 
L 420.03 344.861013 
" style="fill:none;stroke:#777777;stroke-linecap:square;stroke-width:0.8;"/>
     </g>
     <g id="line2d_16">
      <defs>
       <path d="M 0 0 
L -3.5 0 
" id="ma3b96fd830" style="stroke:#000000;stroke-width:0.8;"/>
      </defs>
      <g>
       <use style="stroke:#000000;stroke-width:0.8;" x="47.855" xlink:href="#ma3b96fd830" y="344.861013"/>
      </g>
     </g>
     <g id="text_9">
      <!-- 0.2 -->
      <defs>
       <path d="M 10.6875 12.40625 
L 21 12.40625 
L 21 0 
L 10.6875 0 
z
" id="DejaVuSans-46"/>
      </defs>
      <g transform="translate(24.951875 348.660232)scale(0.1 -0.1)">
       <use xlink:href="#DejaVuSans-48"/>
       <use x="63.623047" xlink:href="#DejaVuSans-46"/>
       <use x="95.410156" xlink:href="#DejaVuSans-50"/>
      </g>
     </g>
    </g>
    <g id="ytick_2">
     <g id="line2d_17">
      <path clip-path="url(#p9df6d55b6c)" d="M 47.855 271.962702 
L 420.03 271.962702 
" style="fill:none;stroke:#777777;stroke-linecap:square;stroke-width:0.8;"/>
     </g>
     <g id="line2d_18">
      <g>
       <use style="stroke:#000000;stroke-width:0.8;" x="47.855" xlink:href="#ma3b96fd830" y="271.962702"/>
      </g>
     </g>
     <g id="text_10">
      <!-- 0.4 -->
      <g transform="translate(24.951875 275.761921)scale(0.1 -0.1)">
       <use xlink:href="#DejaVuSans-48"/>
       <use x="63.623047" xlink:href="#DejaVuSans-46"/>
       <use x="95.410156" xlink:href="#DejaVuSans-52"/>
      </g>
     </g>
    </g>
    <g id="ytick_3">
     <g id="line2d_19">
      <path clip-path="url(#p9df6d55b6c)" d="M 47.855 199.064391 
L 420.03 199.064391 
" style="fill:none;stroke:#777777;stroke-linecap:square;stroke-width:0.8;"/>
     </g>
     <g id="line2d_20">
      <g>
       <use style="stroke:#000000;stroke-width:0.8;" x="47.855" xlink:href="#ma3b96fd830" y="199.064391"/>
      </g>
     </g>
     <g id="text_11">
      <!-- 0.6 -->
      <g transform="translate(24.951875 202.86361)scale(0.1 -0.1)">
       <use xlink:href="#DejaVuSans-48"/>
       <use x="63.623047" xlink:href="#DejaVuSans-46"/>
       <use x="95.410156" xlink:href="#DejaVuSans-54"/>
      </g>
     </g>
    </g>
    <g id="ytick_4">
     <g id="line2d_21">
      <path clip-path="url(#p9df6d55b6c)" d="M 47.855 126.16608 
L 420.03 126.16608 
" style="fill:none;stroke:#777777;stroke-linecap:square;stroke-width:0.8;"/>
     </g>
     <g id="line2d_22">
      <g>
       <use style="stroke:#000000;stroke-width:0.8;" x="47.855" xlink:href="#ma3b96fd830" y="126.16608"/>
      </g>
     </g>
     <g id="text_12">
      <!-- 0.8 -->
      <defs>
       <path d="M 31.78125 34.625 
Q 24.75 34.625 20.71875 30.859375 
Q 16.703125 27.09375 16.703125 20.515625 
Q 16.703125 13.921875 20.71875 10.15625 
Q 24.75 6.390625 31.78125 6.390625 
Q 38.8125 6.390625 42.859375 10.171875 
Q 46.921875 13.96875 46.921875 20.515625 
Q 46.921875 27.09375 42.890625 30.859375 
Q 38.875 34.625 31.78125 34.625 
z
M 21.921875 38.8125 
Q 15.578125 40.375 12.03125 44.71875 
Q 8.5 49.078125 8.5 55.328125 
Q 8.5 64.0625 14.71875 69.140625 
Q 20.953125 74.21875 31.78125 74.21875 
Q 42.671875 74.21875 48.875 69.140625 
Q 55.078125 64.0625 55.078125 55.328125 
Q 55.078125 49.078125 51.53125 44.71875 
Q 48 40.375 41.703125 38.8125 
Q 48.828125 37.15625 52.796875 32.3125 
Q 56.78125 27.484375 56.78125 20.515625 
Q 56.78125 9.90625 50.3125 4.234375 
Q 43.84375 -1.421875 31.78125 -1.421875 
Q 19.734375 -1.421875 13.25 4.234375 
Q 6.78125 9.90625 6.78125 20.515625 
Q 6.78125 27.484375 10.78125 32.3125 
Q 14.796875 37.15625 21.921875 38.8125 
z
M 18.3125 54.390625 
Q 18.3125 48.734375 21.84375 45.5625 
Q 25.390625 42.390625 31.78125 42.390625 
Q 38.140625 42.390625 41.71875 45.5625 
Q 45.3125 48.734375 45.3125 54.390625 
Q 45.3125 60.0625 41.71875 63.234375 
Q 38.140625 66.40625 31.78125 66.40625 
Q 25.390625 66.40625 21.84375 63.234375 
Q 18.3125 60.0625 18.3125 54.390625 
z
" id="DejaVuSans-56"/>
      </defs>
      <g transform="translate(24.951875 129.965298)scale(0.1 -0.1)">
       <use xlink:href="#DejaVuSans-48"/>
       <use x="63.623047" xlink:href="#DejaVuSans-46"/>
       <use x="95.410156" xlink:href="#DejaVuSans-56"/>
      </g>
     </g>
    </g>
    <g id="ytick_5">
     <g id="line2d_23">
      <path clip-path="url(#p9df6d55b6c)" d="M 47.855 53.267768 
L 420.03 53.267768 
" style="fill:none;stroke:#777777;stroke-linecap:square;stroke-width:0.8;"/>
     </g>
     <g id="line2d_24">
      <g>
       <use style="stroke:#000000;stroke-width:0.8;" x="47.855" xlink:href="#ma3b96fd830" y="53.267768"/>
      </g>
     </g>
     <g id="text_13">
      <!-- 1.0 -->
      <g transform="translate(24.951875 57.066987)scale(0.1 -0.1)">
       <use xlink:href="#DejaVuSans-49"/>
       <use x="63.623047" xlink:href="#DejaVuSans-46"/>
       <use x="95.410156" xlink:href="#DejaVuSans-48"/>
      </g>
     </g>
    </g>
    <g id="text_14">
     <!-- Amplitude -->
     <defs>
      <path d="M 34.1875 63.1875 
L 20.796875 26.90625 
L 47.609375 26.90625 
z
M 28.609375 72.90625 
L 39.796875 72.90625 
L 67.578125 0 
L 57.328125 0 
L 50.6875 18.703125 
L 17.828125 18.703125 
L 11.1875 0 
L 0.78125 0 
z
" id="DejaVuSans-65"/>
      <path d="M 9.421875 54.6875 
L 18.40625 54.6875 
L 18.40625 0 
L 9.421875 0 
z
M 9.421875 75.984375 
L 18.40625 75.984375 
L 18.40625 64.59375 
L 9.421875 64.59375 
z
" id="DejaVuSans-105"/>
      <path d="M 18.3125 70.21875 
L 18.3125 54.6875 
L 36.8125 54.6875 
L 36.8125 47.703125 
L 18.3125 47.703125 
L 18.3125 18.015625 
Q 18.3125 11.328125 20.140625 9.421875 
Q 21.96875 7.515625 27.59375 7.515625 
L 36.8125 7.515625 
L 36.8125 0 
L 27.59375 0 
Q 17.1875 0 13.234375 3.875 
Q 9.28125 7.765625 9.28125 18.015625 
L 9.28125 47.703125 
L 2.6875 47.703125 
L 2.6875 54.6875 
L 9.28125 54.6875 
L 9.28125 70.21875 
z
" id="DejaVuSans-116"/>
      <path d="M 8.5 21.578125 
L 8.5 54.6875 
L 17.484375 54.6875 
L 17.484375 21.921875 
Q 17.484375 14.15625 20.5 10.265625 
Q 23.53125 6.390625 29.59375 6.390625 
Q 36.859375 6.390625 41.078125 11.03125 
Q 45.3125 15.671875 45.3125 23.6875 
L 45.3125 54.6875 
L 54.296875 54.6875 
L 54.296875 0 
L 45.3125 0 
L 45.3125 8.40625 
Q 42.046875 3.421875 37.71875 1 
Q 33.40625 -1.421875 27.6875 -1.421875 
Q 18.265625 -1.421875 13.375 4.4375 
Q 8.5 10.296875 8.5 21.578125 
z
M 31.109375 56 
z
" id="DejaVuSans-117"/>
      <path d="M 45.40625 46.390625 
L 45.40625 75.984375 
L 54.390625 75.984375 
L 54.390625 0 
L 45.40625 0 
L 45.40625 8.203125 
Q 42.578125 3.328125 38.25 0.953125 
Q 33.9375 -1.421875 27.875 -1.421875 
Q 17.96875 -1.421875 11.734375 6.484375 
Q 5.515625 14.40625 5.515625 27.296875 
Q 5.515625 40.1875 11.734375 48.09375 
Q 17.96875 56 27.875 56 
Q 33.9375 56 38.25 53.625 
Q 42.578125 51.265625 45.40625 46.390625 
z
M 14.796875 27.296875 
Q 14.796875 17.390625 18.875 11.75 
Q 22.953125 6.109375 30.078125 6.109375 
Q 37.203125 6.109375 41.296875 11.75 
Q 45.40625 17.390625 45.40625 27.296875 
Q 45.40625 37.203125 41.296875 42.84375 
Q 37.203125 48.484375 30.078125 48.484375 
Q 22.953125 48.484375 18.875 42.84375 
Q 14.796875 37.203125 14.796875 27.296875 
z
" id="DejaVuSans-100"/>
     </defs>
     <g transform="translate(18.872187 238.282656)rotate(-90)scale(0.1 -0.1)">
      <use xlink:href="#DejaVuSans-65"/>
      <use x="68.408203" xlink:href="#DejaVuSans-109"/>
      <use x="165.820312" xlink:href="#DejaVuSans-112"/>
      <use x="229.296875" xlink:href="#DejaVuSans-108"/>
      <use x="257.080078" xlink:href="#DejaVuSans-105"/>
      <use x="284.863281" xlink:href="#DejaVuSans-116"/>
      <use x="324.072266" xlink:href="#DejaVuSans-117"/>
      <use x="387.451172" xlink:href="#DejaVuSans-100"/>
      <use x="450.927734" xlink:href="#DejaVuSans-101"/>
     </g>
    </g>
   </g>
   <g id="line2d_25">
    <path clip-path="url(#p9df6d55b6c)" d="M 47.855 388.6 
L 53.76254 387.766829 
L 59.670079 385.275598 
L 65.577619 381.151065 
L 71.485159 375.434221 
L 77.392698 368.181884 
L 83.300238 359.46613 
L 89.207778 349.37358 
L 95.115317 338.004539 
L 101.022857 325.471997 
L 106.930397 311.900509 
L 112.837937 297.424953 
L 118.745476 282.189195 
L 124.653016 266.344653 
L 130.560556 250.0488 
L 136.468095 233.463589 
L 142.375635 216.753852 
L 148.283175 200.085658 
L 154.190714 183.624663 
L 160.098254 167.534465 
L 166.005794 151.974973 
L 171.913333 137.100826 
L 177.820873 123.05985 
L 183.728413 109.99159 
L 189.635952 98.025924 
L 195.543492 87.281773 
L 201.451032 77.865916 
L 207.358571 69.871934 
L 213.266111 63.379272 
L 219.173651 58.45246 
L 225.08119 55.14046 
L 230.98873 53.47619 
L 236.89627 53.47619 
L 242.80381 55.14046 
L 248.711349 58.45246 
L 254.618889 63.379272 
L 260.526429 69.871934 
L 266.433968 77.865916 
L 272.341508 87.281773 
L 278.249048 98.025924 
L 284.156587 109.99159 
L 290.064127 123.05985 
L 295.971667 137.100826 
L 301.879206 151.974973 
L 307.786746 167.534465 
L 313.694286 183.624663 
L 319.601825 200.085658 
L 325.509365 216.753852 
L 331.416905 233.463589 
L 337.324444 250.0488 
L 343.231984 266.344653 
L 349.139524 282.189195 
L 355.047063 297.424953 
L 360.954603 311.900509 
L 366.862143 325.471997 
L 372.769683 338.004539 
L 378.677222 349.37358 
L 384.584762 359.46613 
L 390.492302 368.181884 
L 396.399841 375.434221 
L 402.307381 381.151065 
L 408.214921 385.275598 
L 414.12246 387.766829 
L 420.03 388.6 
" style="fill:none;stroke:#0072bd;stroke-linecap:square;stroke-width:1.4;"/>
    <defs>
     <path d="M 0 1.5 
C 0.397805 1.5 0.77937 1.341951 1.06066 1.06066 
C 1.341951 0.77937 1.5 0.397805 1.5 0 
C 1.5 -0.397805 1.341951 -0.77937 1.06066 -1.06066 
C 0.77937 -1.341951 0.397805 -1.5 0 -1.5 
C -0.397805 -1.5 -0.77937 -1.341951 -1.06066 -1.06066 
C -1.341951 -0.77937 -1.5 -0.397805 -1.5 0 
C -1.5 0.397805 -1.341951 0.77937 -1.06066 1.06066 
C -0.77937 1.341951 -0.397805 1.5 0 1.5 
z
" id="m9d25593061" style="stroke:#0072bd;"/>
    </defs>
    <g clip-path="url(#p9df6d55b6c)">
     <use style="fill:#0072bd;stroke:#0072bd;" x="47.855" xlink:href="#m9d25593061" y="388.6"/>
     <use style="fill:#0072bd;stroke:#0072bd;" x="53.76254" xlink:href="#m9d25593061" y="387.766829"/>
     <use style="fill:#0072bd;stroke:#0072bd;" x="59.670079" xlink:href="#m9d25593061" y="385.275598"/>
     <use style="fill:#0072bd;stroke:#0072bd;" x="65.577619" xlink:href="#m9d25593061" y="381.151065"/>
     <use style="fill:#0072bd;stroke:#0072bd;" x="71.485159" xlink:href="#m9d25593061" y="375.434221"/>
     <use style="fill:#0072bd;stroke:#0072bd;" x="77.392698" xlink:href="#m9d25593061" y="368.181884"/>
     <use style="fill:#0072bd;stroke:#0072bd;" x="83.300238" xlink:href="#m9d25593061" y="359.46613"/>
     <use style="fill:#0072bd;stroke:#0072bd;" x="89.207778" xlink:href="#m9d25593061" y="349.37358"/>
     <use style="fill:#0072bd;stroke:#0072bd;" x="95.115317" xlink:href="#m9d25593061" y="338.004539"/>
     <use style="fill:#0072bd;stroke:#0072bd;" x="101.022857" xlink:href="#m9d25593061" y="325.471997"/>
     <use style="fill:#0072bd;stroke:#0072bd;" x="106.930397" xlink:href="#m9d25593061" y="311.900509"/>
     <use style="fill:#0072bd;stroke:#0072bd;" x="112.837937" xlink:href="#m9d25593061" y="297.424953"/>
     <use style="fill:#0072bd;stroke:#0072bd;" x="118.745476" xlink:href="#m9d25593061" y="282.189195"/>
     <use style="fill:#0072bd;stroke:#0072bd;" x="124.653016" xlink:href="#m9d25593061" y="266.344653"/>
     <use style="fill:#0072bd;stroke:#0072bd;" x="130.560556" xlink:href="#m9d25593061" y="250.0488"/>
     <use style="fill:#0072bd;stroke:#0072bd;" x="136.468095" xlink:href="#m9d25593061" y="233.463589"/>
     <use style="fill:#0072bd;stroke:#0072bd;" x="142.375635" xlink:href="#m9d25593061" y="216.753852"/>
     <use style="fill:#0072bd;stroke:#0072bd;" x="148.283175" xlink:href="#m9d25593061" y="200.085658"/>
     <use style="fill:#0072bd;stroke:#0072bd;" x="154.190714" xlink:href="#m9d25593061" y="183.624663"/>
     <use style="fill:#0072bd;stroke:#0072bd;" x="160.098254" xlink:href="#m9d25593061" y="167.534465"/>
     <use style="fill:#0072bd;stroke:#0072bd;" x="166.005794" xlink:href="#m9d25593061" y="151.974973"/>
     <use style="fill:#0072bd;stroke:#0072bd;" x="171.913333" xlink:href="#m9d25593061" y="137.100826"/>
     <use style="fill:#0072bd;stroke:#0072bd;" x="177.820873" xlink:href="#m9d25593061" y="123.05985"/>
     <use style="fill:#0072bd;stroke:#0072bd;" x="183.728413" xlink:href="#m9d25593061" y="109.99159"/>
     <use style="fill:#0072bd;stroke:#0072bd;" x="189.635952" xlink:href="#m9d25593061" y="98.025924"/>
     <use style="fill:#0072bd;stroke:#0072bd;" x="195.543492" xlink:href="#m9d25593061" y="87.281773"/>
     <use style="fill:#0072bd;stroke:#0072bd;" x="201.451032" xlink:href="#m9d25593061" y="77.865916"/>
     <use style="fill:#0072bd;stroke:#0072bd;" x="207.358571" xlink:href="#m9d25593061" y="69.871934"/>
     <use style="fill:#0072bd;stroke:#0072bd;" x="213.266111" xlink:href="#m9d25593061" y="63.379272"/>
     <use style="fill:#0072bd;stroke:#0072bd;" x="219.173651" xlink:href="#m9d25593061" y="58.45246"/>
     <use style="fill:#0072bd;stroke:#0072bd;" x="225.08119" xlink:href="#m9d25593061" y="55.14046"/>
     <use style="fill:#0072bd;stroke:#0072bd;" x="230.98873" xlink:href="#m9d25593061" y="53.47619"/>
     <use style="fill:#0072bd;stroke:#0072bd;" x="236.89627" xlink:href="#m9d25593061" y="53.47619"/>
     <use style="fill:#0072bd;stroke:#0072bd;" x="242.80381" xlink:href="#m9d25593061" y="55.14046"/>
     <use style="fill:#0072bd;stroke:#0072bd;" x="248.711349" xlink:href="#m9d25593061" y="58.45246"/>
     <use style="fill:#0072bd;stroke:#0072bd;" x="254.618889" xlink:href="#m9d25593061" y="63.379272"/>
     <use style="fill:#0072bd;stroke:#0072bd;" x="260.526429" xlink:href="#m9d25593061" y="69.871934"/>
     <use style="fill:#0072bd;stroke:#0072bd;" x="266.433968" xlink:href="#m9d25593061" y="77.865916"/>
     <use style="fill:#0072bd;stroke:#0072bd;" x="272.341508" xlink:href="#m9d25593061" y="87.281773"/>
     <use style="fill:#0072bd;stroke:#0072bd;" x="278.249048" xlink:href="#m9d25593061" y="98.025924"/>
     <use style="fill:#0072bd;stroke:#0072bd;" x="284.156587" xlink:href="#m9d25593061" y="109.99159"/>
     <use style="fill:#0072bd;stroke:#0072bd;" x="290.064127" xlink:href="#m9d25593061" y="123.05985"/>
     <use style="fill:#0072bd;stroke:#0072bd;" x="295.971667" xlink:href="#m9d25593061" y="137.100826"/>
     <use style="fill:#0072bd;stroke:#0072bd;" x="301.879206" xlink:href="#m9d25593061" y="151.974973"/>
     <use style="fill:#0072bd;stroke:#0072bd;" x="307.786746" xlink:href="#m9d25593061" y="167.534465"/>
     <use style="fill:#0072bd;stroke:#0072bd;" x="313.694286" xlink:href="#m9d25593061" y="183.624663"/>
     <use style="fill:#0072bd;stroke:#0072bd;" x="319.601825" xlink:href="#m9d25593061" y="200.085658"/>
     <use style="fill:#0072bd;stroke:#0072bd;" x="325.509365" xlink:href="#m9d25593061" y="216.753852"/>
     <use style="fill:#0072bd;stroke:#0072bd;" x="331.416905" xlink:href="#m9d25593061" y="233.463589"/>
     <use style="fill:#0072bd;stroke:#0072bd;" x="337.324444" xlink:href="#m9d25593061" y="250.0488"/>
     <use style="fill:#0072bd;stroke:#0072bd;" x="343.231984" xlink:href="#m9d25593061" y="266.344653"/>
     <use style="fill:#0072bd;stroke:#0072bd;" x="349.139524" xlink:href="#m9d25593061" y="282.189195"/>
     <use style="fill:#0072bd;stroke:#0072bd;" x="355.047063" xlink:href="#m9d25593061" y="297.424953"/>
     <use style="fill:#0072bd;stroke:#0072bd;" x="360.954603" xlink:href="#m9d25593061" y="311.900509"/>
     <use style="fill:#0072bd;stroke:#0072bd;" x="366.862143" xlink:href="#m9d25593061" y="325.471997"/>
     <use style="fill:#0072bd;stroke:#0072bd;" x="372.769683" xlink:href="#m9d25593061" y="338.004539"/>
     <use style="fill:#0072bd;stroke:#0072bd;" x="378.677222" xlink:href="#m9d25593061" y="349.37358"/>
     <use style="fill:#0072bd;stroke:#0072bd;" x="384.584762" xlink:href="#m9d25593061" y="359.46613"/>
     <use style="fill:#0072bd;stroke:#0072bd;" x="390.492302" xlink:href="#m9d25593061" y="368.181884"/>
     <use style="fill:#0072bd;stroke:#0072bd;" x="396.399841" xlink:href="#m9d25593061" y="375.434221"/>
     <use style="fill:#0072bd;stroke:#0072bd;" x="402.307381" xlink:href="#m9d25593061" y="381.151065"/>
     <use style="fill:#0072bd;stroke:#0072bd;" x="408.214921" xlink:href="#m9d25593061" y="385.275598"/>
     <use style="fill:#0072bd;stroke:#0072bd;" x="414.12246" xlink:href="#m9d25593061" y="387.766829"/>
     <use style="fill:#0072bd;stroke:#0072bd;" x="420.03" xlink:href="#m9d25593061" y="388.6"/>
    </g>
   </g>
   <g id="patch_3">
    <path d="M 47.855 388.6 
L 47.855 36.72 
" style="fill:none;stroke:#000000;stroke-linecap:square;stroke-linejoin:miter;stroke-width:0.8;"/>
   </g>
   <g id="patch_4">
    <path d="M 420.03 388.6 
L 420.03 36.72 
" style="fill:none;stroke:#000000;stroke-linecap:square;stroke-linejoin:miter;stroke-width:0.8;"/>
   </g>
   <g id="patch_5">
    <path d="M 47.855 388.6 
L 420.03 388.6 
" style="fill:none;stroke:#000000;stroke-linecap:square;stroke-linejoin:miter;stroke-width:0.8;"/>
   </g>
   <g id="patch_6">
    <path d="M 47.855 36.72 
L 420.03 36.72 
" style="fill:none;stroke:#000000;stroke-linecap:square;stroke-linejoin:miter;stroke-width:0.8;"/>
   </g>
  </g>
  <g id="axes_2">
   <g id="patch_7">
    <path d="M 473.06 388.6 
L 845.235 388.6 
L 845.235 36.72 
L 473.06 36.72 
z
" style="fill:#ffffff;"/>
   </g>
   <g id="matplotlib.axis_3">
    <g id="xtick_8">
     <g id="line2d_26">
      <path clip-path="url(#pe1bc435c08)" d="M 473.06 388.6 
L 473.06 36.72 
" style="fill:none;stroke:#777777;stroke-linecap:square;stroke-width:0.8;"/>
     </g>
     <g id="line2d_27">
      <g>
       <use style="stroke:#000000;stroke-width:0.8;" x="473.06" xlink:href="#m08b5520b76" y="388.6"/>
      </g>
     </g>
     <g id="text_15">
      <!-- 0.0 -->
      <g transform="translate(465.108437 403.198438)scale(0.1 -0.1)">
       <use xlink:href="#DejaVuSans-48"/>
       <use x="63.623047" xlink:href="#DejaVuSans-46"/>
       <use x="95.410156" xlink:href="#DejaVuSans-48"/>
      </g>
     </g>
    </g>
    <g id="xtick_9">
     <g id="line2d_28">
      <path clip-path="url(#pe1bc435c08)" d="M 547.495 388.6 
L 547.495 36.72 
" style="fill:none;stroke:#777777;stroke-linecap:square;stroke-width:0.8;"/>
     </g>
     <g id="line2d_29">
      <g>
       <use style="stroke:#000000;stroke-width:0.8;" x="547.495" xlink:href="#m08b5520b76" y="388.6"/>
      </g>
     </g>
     <g id="text_16">
      <!-- 0.2 -->
      <g transform="translate(539.543437 403.198438)scale(0.1 -0.1)">
       <use xlink:href="#DejaVuSans-48"/>
       <use x="63.623047" xlink:href="#DejaVuSans-46"/>
       <use x="95.410156" xlink:href="#DejaVuSans-50"/>
      </g>
     </g>
    </g>
    <g id="xtick_10">
     <g id="line2d_30">
      <path clip-path="url(#pe1bc435c08)" d="M 621.93 388.6 
L 621.93 36.72 
" style="fill:none;stroke:#777777;stroke-linecap:square;stroke-width:0.8;"/>
     </g>
     <g id="line2d_31">
      <g>
       <use style="stroke:#000000;stroke-width:0.8;" x="621.93" xlink:href="#m08b5520b76" y="388.6"/>
      </g>
     </g>
     <g id="text_17">
      <!-- 0.4 -->
      <g transform="translate(613.978437 403.198438)scale(0.1 -0.1)">
       <use xlink:href="#DejaVuSans-48"/>
       <use x="63.623047" xlink:href="#DejaVuSans-46"/>
       <use x="95.410156" xlink:href="#DejaVuSans-52"/>
      </g>
     </g>
    </g>
    <g id="xtick_11">
     <g id="line2d_32">
      <path clip-path="url(#pe1bc435c08)" d="M 696.365 388.6 
L 696.365 36.72 
" style="fill:none;stroke:#777777;stroke-linecap:square;stroke-width:0.8;"/>
     </g>
     <g id="line2d_33">
      <g>
       <use style="stroke:#000000;stroke-width:0.8;" x="696.365" xlink:href="#m08b5520b76" y="388.6"/>
      </g>
     </g>
     <g id="text_18">
      <!-- 0.6 -->
      <g transform="translate(688.413437 403.198438)scale(0.1 -0.1)">
       <use xlink:href="#DejaVuSans-48"/>
       <use x="63.623047" xlink:href="#DejaVuSans-46"/>
       <use x="95.410156" xlink:href="#DejaVuSans-54"/>
      </g>
     </g>
    </g>
    <g id="xtick_12">
     <g id="line2d_34">
      <path clip-path="url(#pe1bc435c08)" d="M 770.8 388.6 
L 770.8 36.72 
" style="fill:none;stroke:#777777;stroke-linecap:square;stroke-width:0.8;"/>
     </g>
     <g id="line2d_35">
      <g>
       <use style="stroke:#000000;stroke-width:0.8;" x="770.8" xlink:href="#m08b5520b76" y="388.6"/>
      </g>
     </g>
     <g id="text_19">
      <!-- 0.8 -->
      <g transform="translate(762.848437 403.198438)scale(0.1 -0.1)">
       <use xlink:href="#DejaVuSans-48"/>
       <use x="63.623047" xlink:href="#DejaVuSans-46"/>
       <use x="95.410156" xlink:href="#DejaVuSans-56"/>
      </g>
     </g>
    </g>
    <g id="xtick_13">
     <g id="line2d_36">
      <path clip-path="url(#pe1bc435c08)" d="M 845.235 388.6 
L 845.235 36.72 
" style="fill:none;stroke:#777777;stroke-linecap:square;stroke-width:0.8;"/>
     </g>
     <g id="line2d_37">
      <g>
       <use style="stroke:#000000;stroke-width:0.8;" x="845.235" xlink:href="#m08b5520b76" y="388.6"/>
      </g>
     </g>
     <g id="text_20">
      <!-- 1.0 -->
      <g transform="translate(837.283437 403.198438)scale(0.1 -0.1)">
       <use xlink:href="#DejaVuSans-49"/>
       <use x="63.623047" xlink:href="#DejaVuSans-46"/>
       <use x="95.410156" xlink:href="#DejaVuSans-48"/>
      </g>
     </g>
    </g>
    <g id="text_21">
     <!-- Normalized Frequency ($\times \pi$ rad/sample) -->
     <defs>
      <path d="M 9.8125 72.90625 
L 23.09375 72.90625 
L 55.421875 11.921875 
L 55.421875 72.90625 
L 64.984375 72.90625 
L 64.984375 0 
L 51.703125 0 
L 19.390625 60.984375 
L 19.390625 0 
L 9.8125 0 
z
" id="DejaVuSans-78"/>
      <path d="M 30.609375 48.390625 
Q 23.390625 48.390625 19.1875 42.75 
Q 14.984375 37.109375 14.984375 27.296875 
Q 14.984375 17.484375 19.15625 11.84375 
Q 23.34375 6.203125 30.609375 6.203125 
Q 37.796875 6.203125 41.984375 11.859375 
Q 46.1875 17.53125 46.1875 27.296875 
Q 46.1875 37.015625 41.984375 42.703125 
Q 37.796875 48.390625 30.609375 48.390625 
z
M 30.609375 56 
Q 42.328125 56 49.015625 48.375 
Q 55.71875 40.765625 55.71875 27.296875 
Q 55.71875 13.875 49.015625 6.21875 
Q 42.328125 -1.421875 30.609375 -1.421875 
Q 18.84375 -1.421875 12.171875 6.21875 
Q 5.515625 13.875 5.515625 27.296875 
Q 5.515625 40.765625 12.171875 48.375 
Q 18.84375 56 30.609375 56 
z
" id="DejaVuSans-111"/>
      <path d="M 41.109375 46.296875 
Q 39.59375 47.171875 37.8125 47.578125 
Q 36.03125 48 33.890625 48 
Q 26.265625 48 22.1875 43.046875 
Q 18.109375 38.09375 18.109375 28.8125 
L 18.109375 0 
L 9.078125 0 
L 9.078125 54.6875 
L 18.109375 54.6875 
L 18.109375 46.1875 
Q 20.953125 51.171875 25.484375 53.578125 
Q 30.03125 56 36.53125 56 
Q 37.453125 56 38.578125 55.875 
Q 39.703125 55.765625 41.0625 55.515625 
z
" id="DejaVuSans-114"/>
      <path d="M 5.515625 54.6875 
L 48.1875 54.6875 
L 48.1875 46.484375 
L 14.40625 7.171875 
L 48.1875 7.171875 
L 48.1875 0 
L 4.296875 0 
L 4.296875 8.203125 
L 38.09375 47.515625 
L 5.515625 47.515625 
z
" id="DejaVuSans-122"/>
      <path id="DejaVuSans-32"/>
      <path d="M 9.8125 72.90625 
L 51.703125 72.90625 
L 51.703125 64.59375 
L 19.671875 64.59375 
L 19.671875 43.109375 
L 48.578125 43.109375 
L 48.578125 34.8125 
L 19.671875 34.8125 
L 19.671875 0 
L 9.8125 0 
z
" id="DejaVuSans-70"/>
      <path d="M 14.796875 27.296875 
Q 14.796875 17.390625 18.875 11.75 
Q 22.953125 6.109375 30.078125 6.109375 
Q 37.203125 6.109375 41.296875 11.75 
Q 45.40625 17.390625 45.40625 27.296875 
Q 45.40625 37.203125 41.296875 42.84375 
Q 37.203125 48.484375 30.078125 48.484375 
Q 22.953125 48.484375 18.875 42.84375 
Q 14.796875 37.203125 14.796875 27.296875 
z
M 45.40625 8.203125 
Q 42.578125 3.328125 38.25 0.953125 
Q 33.9375 -1.421875 27.875 -1.421875 
Q 17.96875 -1.421875 11.734375 6.484375 
Q 5.515625 14.40625 5.515625 27.296875 
Q 5.515625 40.1875 11.734375 48.09375 
Q 17.96875 56 27.875 56 
Q 33.9375 56 38.25 53.625 
Q 42.578125 51.265625 45.40625 46.390625 
L 45.40625 54.6875 
L 54.390625 54.6875 
L 54.390625 -20.796875 
L 45.40625 -20.796875 
z
" id="DejaVuSans-113"/>
      <path d="M 54.890625 33.015625 
L 54.890625 0 
L 45.90625 0 
L 45.90625 32.71875 
Q 45.90625 40.484375 42.875 44.328125 
Q 39.84375 48.1875 33.796875 48.1875 
Q 26.515625 48.1875 22.3125 43.546875 
Q 18.109375 38.921875 18.109375 30.90625 
L 18.109375 0 
L 9.078125 0 
L 9.078125 54.6875 
L 18.109375 54.6875 
L 18.109375 46.1875 
Q 21.34375 51.125 25.703125 53.5625 
Q 30.078125 56 35.796875 56 
Q 45.21875 56 50.046875 50.171875 
Q 54.890625 44.34375 54.890625 33.015625 
z
" id="DejaVuSans-110"/>
      <path d="M 48.78125 52.59375 
L 48.78125 44.1875 
Q 44.96875 46.296875 41.140625 47.34375 
Q 37.3125 48.390625 33.40625 48.390625 
Q 24.65625 48.390625 19.8125 42.84375 
Q 14.984375 37.3125 14.984375 27.296875 
Q 14.984375 17.28125 19.8125 11.734375 
Q 24.65625 6.203125 33.40625 6.203125 
Q 37.3125 6.203125 41.140625 7.25 
Q 44.96875 8.296875 48.78125 10.40625 
L 48.78125 2.09375 
Q 45.015625 0.34375 40.984375 -0.53125 
Q 36.96875 -1.421875 32.421875 -1.421875 
Q 20.0625 -1.421875 12.78125 6.34375 
Q 5.515625 14.109375 5.515625 27.296875 
Q 5.515625 40.671875 12.859375 48.328125 
Q 20.21875 56 33.015625 56 
Q 37.15625 56 41.109375 55.140625 
Q 45.0625 54.296875 48.78125 52.59375 
z
" id="DejaVuSans-99"/>
      <path d="M 32.171875 -5.078125 
Q 28.375 -14.84375 24.75 -17.8125 
Q 21.140625 -20.796875 15.09375 -20.796875 
L 7.90625 -20.796875 
L 7.90625 -13.28125 
L 13.1875 -13.28125 
Q 16.890625 -13.28125 18.9375 -11.515625 
Q 21 -9.765625 23.484375 -3.21875 
L 25.09375 0.875 
L 2.984375 54.6875 
L 12.5 54.6875 
L 29.59375 11.921875 
L 46.6875 54.6875 
L 56.203125 54.6875 
z
" id="DejaVuSans-121"/>
      <path d="M 31 75.875 
Q 24.46875 64.65625 21.28125 53.65625 
Q 18.109375 42.671875 18.109375 31.390625 
Q 18.109375 20.125 21.3125 9.0625 
Q 24.515625 -2 31 -13.1875 
L 23.1875 -13.1875 
Q 15.875 -1.703125 12.234375 9.375 
Q 8.59375 20.453125 8.59375 31.390625 
Q 8.59375 42.28125 12.203125 53.3125 
Q 15.828125 64.359375 23.1875 75.875 
z
" id="DejaVuSans-40"/>
      <path d="M 70.125 53.71875 
L 47.796875 31.296875 
L 70.125 8.984375 
L 64.3125 3.078125 
L 41.890625 25.484375 
L 19.484375 3.078125 
L 13.71875 8.984375 
L 35.984375 31.296875 
L 13.71875 53.71875 
L 19.484375 59.625 
L 41.890625 37.203125 
L 64.3125 59.625 
z
" id="DejaVuSans-215"/>
      <path d="M 9.125 54.6875 
L 61.53125 54.6875 
L 59.765625 45.703125 
L 52.875 45.703125 
L 46.34375 12.109375 
Q 45.65625 8.59375 46.578125 7.03125 
Q 47.46875 5.515625 50.140625 5.515625 
Q 50.875 5.515625 51.953125 5.671875 
Q 53.078125 5.765625 53.421875 5.8125 
L 52.15625 -0.6875 
Q 50.34375 -1.3125 48.484375 -1.609375 
Q 46.578125 -1.90625 44.78125 -1.90625 
Q 38.921875 -1.90625 37.3125 1.265625 
Q 35.6875 4.5 37.359375 13.09375 
L 43.703125 45.703125 
L 23.53125 45.703125 
L 14.65625 0 
L 5.46875 0 
L 14.359375 45.703125 
L 7.375 45.703125 
z
" id="DejaVuSans-Oblique-960"/>
      <path d="M 25.390625 72.90625 
L 33.6875 72.90625 
L 8.296875 -9.28125 
L 0 -9.28125 
z
" id="DejaVuSans-47"/>
      <path d="M 8.015625 75.875 
L 15.828125 75.875 
Q 23.140625 64.359375 26.78125 53.3125 
Q 30.421875 42.28125 30.421875 31.390625 
Q 30.421875 20.453125 26.78125 9.375 
Q 23.140625 -1.703125 15.828125 -13.1875 
L 8.015625 -13.1875 
Q 14.5 -2 17.703125 9.0625 
Q 20.90625 20.125 20.90625 31.390625 
Q 20.90625 42.671875 17.703125 53.65625 
Q 14.5 64.65625 8.015625 75.875 
z
" id="DejaVuSans-41"/>
     </defs>
     <g transform="translate(560.3475 416.878125)scale(0.1 -0.1)">
      <use transform="translate(0 0.015625)" xlink:href="#DejaVuSans-78"/>
      <use transform="translate(74.804688 0.015625)" xlink:href="#DejaVuSans-111"/>
      <use transform="translate(135.986328 0.015625)" xlink:href="#DejaVuSans-114"/>
      <use transform="translate(177.099609 0.015625)" xlink:href="#DejaVuSans-109"/>
      <use transform="translate(274.511719 0.015625)" xlink:href="#DejaVuSans-97"/>
      <use transform="translate(335.791016 0.015625)" xlink:href="#DejaVuSans-108"/>
      <use transform="translate(363.574219 0.015625)" xlink:href="#DejaVuSans-105"/>
      <use transform="translate(391.357422 0.015625)" xlink:href="#DejaVuSans-122"/>
      <use transform="translate(443.847656 0.015625)" xlink:href="#DejaVuSans-101"/>
      <use transform="translate(505.371094 0.015625)" xlink:href="#DejaVuSans-100"/>
      <use transform="translate(568.847656 0.015625)" xlink:href="#DejaVuSans-32"/>
      <use transform="translate(600.634766 0.015625)" xlink:href="#DejaVuSans-70"/>
      <use transform="translate(658.154297 0.015625)" xlink:href="#DejaVuSans-114"/>
      <use transform="translate(699.267578 0.015625)" xlink:href="#DejaVuSans-101"/>
      <use transform="translate(760.791016 0.015625)" xlink:href="#DejaVuSans-113"/>
      <use transform="translate(824.267578 0.015625)" xlink:href="#DejaVuSans-117"/>
      <use transform="translate(887.646484 0.015625)" xlink:href="#DejaVuSans-101"/>
      <use transform="translate(949.169922 0.015625)" xlink:href="#DejaVuSans-110"/>
      <use transform="translate(1012.548828 0.015625)" xlink:href="#DejaVuSans-99"/>
      <use transform="translate(1067.529297 0.015625)" xlink:href="#DejaVuSans-121"/>
      <use transform="translate(1126.708984 0.015625)" xlink:href="#DejaVuSans-32"/>
      <use transform="translate(1158.496094 0.015625)" xlink:href="#DejaVuSans-40"/>
      <use transform="translate(1197.509766 0.015625)" xlink:href="#DejaVuSans-215"/>
      <use transform="translate(1281.298828 0.015625)" xlink:href="#DejaVuSans-Oblique-960"/>
      <use transform="translate(1341.503906 0.015625)" xlink:href="#DejaVuSans-32"/>
      <use transform="translate(1373.291016 0.015625)" xlink:href="#DejaVuSans-114"/>
      <use transform="translate(1414.404297 0.015625)" xlink:href="#DejaVuSans-97"/>
      <use transform="translate(1475.683594 0.015625)" xlink:href="#DejaVuSans-100"/>
      <use transform="translate(1539.160156 0.015625)" xlink:href="#DejaVuSans-47"/>
      <use transform="translate(1572.851562 0.015625)" xlink:href="#DejaVuSans-115"/>
      <use transform="translate(1624.951172 0.015625)" xlink:href="#DejaVuSans-97"/>
      <use transform="translate(1686.230469 0.015625)" xlink:href="#DejaVuSans-109"/>
      <use transform="translate(1783.642578 0.015625)" xlink:href="#DejaVuSans-112"/>
      <use transform="translate(1847.119141 0.015625)" xlink:href="#DejaVuSans-108"/>
      <use transform="translate(1874.902344 0.015625)" xlink:href="#DejaVuSans-101"/>
      <use transform="translate(1936.425781 0.015625)" xlink:href="#DejaVuSans-41"/>
     </g>
    </g>
   </g>
   <g id="matplotlib.axis_4">
    <g id="ytick_6">
     <g id="line2d_38">
      <path clip-path="url(#pe1bc435c08)" d="M 473.06 358.825789 
L 845.235 358.825789 
" style="fill:none;stroke:#777777;stroke-linecap:square;stroke-width:0.8;"/>
     </g>
     <g id="line2d_39">
      <g>
       <use style="stroke:#000000;stroke-width:0.8;" x="473.06" xlink:href="#ma3b96fd830" y="358.825789"/>
      </g>
     </g>
     <g id="text_22">
      <!-- −80 -->
      <defs>
       <path d="M 10.59375 35.5 
L 73.1875 35.5 
L 73.1875 27.203125 
L 10.59375 27.203125 
z
" id="DejaVuSans-8722"/>
      </defs>
      <g transform="translate(444.955312 362.625008)scale(0.1 -0.1)">
       <use xlink:href="#DejaVuSans-8722"/>
       <use x="83.789062" xlink:href="#DejaVuSans-56"/>
       <use x="147.412109" xlink:href="#DejaVuSans-48"/>
      </g>
     </g>
    </g>
    <g id="ytick_7">
     <g id="line2d_40">
      <path clip-path="url(#pe1bc435c08)" d="M 473.06 303.498691 
L 845.235 303.498691 
" style="fill:none;stroke:#777777;stroke-linecap:square;stroke-width:0.8;"/>
     </g>
     <g id="line2d_41">
      <g>
       <use style="stroke:#000000;stroke-width:0.8;" x="473.06" xlink:href="#ma3b96fd830" y="303.498691"/>
      </g>
     </g>
     <g id="text_23">
      <!-- −60 -->
      <g transform="translate(444.955312 307.29791)scale(0.1 -0.1)">
       <use xlink:href="#DejaVuSans-8722"/>
       <use x="83.789062" xlink:href="#DejaVuSans-54"/>
       <use x="147.412109" xlink:href="#DejaVuSans-48"/>
      </g>
     </g>
    </g>
    <g id="ytick_8">
     <g id="line2d_42">
      <path clip-path="url(#pe1bc435c08)" d="M 473.06 248.171593 
L 845.235 248.171593 
" style="fill:none;stroke:#777777;stroke-linecap:square;stroke-width:0.8;"/>
     </g>
     <g id="line2d_43">
      <g>
       <use style="stroke:#000000;stroke-width:0.8;" x="473.06" xlink:href="#ma3b96fd830" y="248.171593"/>
      </g>
     </g>
     <g id="text_24">
      <!-- −40 -->
      <g transform="translate(444.955312 251.970812)scale(0.1 -0.1)">
       <use xlink:href="#DejaVuSans-8722"/>
       <use x="83.789062" xlink:href="#DejaVuSans-52"/>
       <use x="147.412109" xlink:href="#DejaVuSans-48"/>
      </g>
     </g>
    </g>
    <g id="ytick_9">
     <g id="line2d_44">
      <path clip-path="url(#pe1bc435c08)" d="M 473.06 192.844495 
L 845.235 192.844495 
" style="fill:none;stroke:#777777;stroke-linecap:square;stroke-width:0.8;"/>
     </g>
     <g id="line2d_45">
      <g>
       <use style="stroke:#000000;stroke-width:0.8;" x="473.06" xlink:href="#ma3b96fd830" y="192.844495"/>
      </g>
     </g>
     <g id="text_25">
      <!-- −20 -->
      <g transform="translate(444.955312 196.643714)scale(0.1 -0.1)">
       <use xlink:href="#DejaVuSans-8722"/>
       <use x="83.789062" xlink:href="#DejaVuSans-50"/>
       <use x="147.412109" xlink:href="#DejaVuSans-48"/>
      </g>
     </g>
    </g>
    <g id="ytick_10">
     <g id="line2d_46">
      <path clip-path="url(#pe1bc435c08)" d="M 473.06 137.517397 
L 845.235 137.517397 
" style="fill:none;stroke:#777777;stroke-linecap:square;stroke-width:0.8;"/>
     </g>
     <g id="line2d_47">
      <g>
       <use style="stroke:#000000;stroke-width:0.8;" x="473.06" xlink:href="#ma3b96fd830" y="137.517397"/>
      </g>
     </g>
     <g id="text_26">
      <!-- 0 -->
      <g transform="translate(459.6975 141.316616)scale(0.1 -0.1)">
       <use xlink:href="#DejaVuSans-48"/>
      </g>
     </g>
    </g>
    <g id="ytick_11">
     <g id="line2d_48">
      <path clip-path="url(#pe1bc435c08)" d="M 473.06 82.190299 
L 845.235 82.190299 
" style="fill:none;stroke:#777777;stroke-linecap:square;stroke-width:0.8;"/>
     </g>
     <g id="line2d_49">
      <g>
       <use style="stroke:#000000;stroke-width:0.8;" x="473.06" xlink:href="#ma3b96fd830" y="82.190299"/>
      </g>
     </g>
     <g id="text_27">
      <!-- 20 -->
      <g transform="translate(453.335 85.989518)scale(0.1 -0.1)">
       <use xlink:href="#DejaVuSans-50"/>
       <use x="63.623047" xlink:href="#DejaVuSans-48"/>
      </g>
     </g>
    </g>
    <g id="text_28">
     <!-- Gain (dB) -->
     <defs>
      <path d="M 59.515625 10.40625 
L 59.515625 29.984375 
L 43.40625 29.984375 
L 43.40625 38.09375 
L 69.28125 38.09375 
L 69.28125 6.78125 
Q 63.578125 2.734375 56.6875 0.65625 
Q 49.8125 -1.421875 42 -1.421875 
Q 24.90625 -1.421875 15.25 8.5625 
Q 5.609375 18.5625 5.609375 36.375 
Q 5.609375 54.25 15.25 64.234375 
Q 24.90625 74.21875 42 74.21875 
Q 49.125 74.21875 55.546875 72.453125 
Q 61.96875 70.703125 67.390625 67.28125 
L 67.390625 56.78125 
Q 61.921875 61.421875 55.765625 63.765625 
Q 49.609375 66.109375 42.828125 66.109375 
Q 29.4375 66.109375 22.71875 58.640625 
Q 16.015625 51.171875 16.015625 36.375 
Q 16.015625 21.625 22.71875 14.15625 
Q 29.4375 6.6875 42.828125 6.6875 
Q 48.046875 6.6875 52.140625 7.59375 
Q 56.25 8.5 59.515625 10.40625 
z
" id="DejaVuSans-71"/>
      <path d="M 19.671875 34.8125 
L 19.671875 8.109375 
L 35.5 8.109375 
Q 43.453125 8.109375 47.28125 11.40625 
Q 51.125 14.703125 51.125 21.484375 
Q 51.125 28.328125 47.28125 31.5625 
Q 43.453125 34.8125 35.5 34.8125 
z
M 19.671875 64.796875 
L 19.671875 42.828125 
L 34.28125 42.828125 
Q 41.5 42.828125 45.03125 45.53125 
Q 48.578125 48.25 48.578125 53.8125 
Q 48.578125 59.328125 45.03125 62.0625 
Q 41.5 64.796875 34.28125 64.796875 
z
M 9.8125 72.90625 
L 35.015625 72.90625 
Q 46.296875 72.90625 52.390625 68.21875 
Q 58.5 63.53125 58.5 54.890625 
Q 58.5 48.1875 55.375 44.234375 
Q 52.25 40.28125 46.1875 39.3125 
Q 53.46875 37.75 57.5 32.78125 
Q 61.53125 27.828125 61.53125 20.40625 
Q 61.53125 10.640625 54.890625 5.3125 
Q 48.25 0 35.984375 0 
L 9.8125 0 
z
" id="DejaVuSans-66"/>
     </defs>
     <g transform="translate(438.875625 236.251406)rotate(-90)scale(0.1 -0.1)">
      <use xlink:href="#DejaVuSans-71"/>
      <use x="77.490234" xlink:href="#DejaVuSans-97"/>
      <use x="138.769531" xlink:href="#DejaVuSans-105"/>
      <use x="166.552734" xlink:href="#DejaVuSans-110"/>
      <use x="229.931641" xlink:href="#DejaVuSans-32"/>
      <use x="261.71875" xlink:href="#DejaVuSans-40"/>
      <use x="300.732422" xlink:href="#DejaVuSans-100"/>
      <use x="364.208984" xlink:href="#DejaVuSans-66"/>
      <use x="432.8125" xlink:href="#DejaVuSans-41"/>
     </g>
    </g>
   </g>
   <g id="line2d_50">
    <path clip-path="url(#pe1bc435c08)" d="M 473.06 52.714545 
L 473.786904 52.787589 
L 474.513809 53.006929 
L 475.240713 53.373202 
L 475.967617 53.887476 
L 476.694521 54.551269 
L 478.14833 56.335868 
L 479.602139 58.749179 
L 481.055947 61.822933 
L 482.509756 65.600679 
L 483.963564 70.141321 
L 485.417373 75.524674 
L 486.871182 81.860528 
L 488.32499 89.304256 
L 489.778799 98.085694 
L 491.232607 108.568333 
L 492.686416 121.389588 
L 493.41332 129.038459 
L 494.140225 137.87644 
L 494.867129 148.444335 
L 495.594033 161.893941 
L 496.320937 181.598011 
L 497.047842 236.552655 
L 497.774746 198.962982 
L 498.50165 186.360723 
L 499.228555 182.60568 
L 499.955459 182.735579 
L 500.682363 185.455613 
L 501.409268 190.381463 
L 502.136172 197.546702 
L 502.863076 207.303763 
L 503.58998 220.309788 
L 505.043789 252.881531 
L 505.770693 249.818 
L 507.224502 217.309091 
L 507.951406 205.375846 
L 508.678311 196.243768 
L 509.405215 189.20026 
L 510.132119 183.769808 
L 510.859023 179.646171 
L 511.585928 176.633496 
L 512.312832 174.611153 
L 513.039736 173.515082 
L 513.766641 173.330528 
L 514.493545 174.094816 
L 515.220449 175.913165 
L 515.947354 178.998932 
L 516.674258 183.77354 
L 517.401162 191.153913 
L 518.128066 203.684982 
L 518.854971 235.715209 
L 519.581875 220.59447 
L 520.308779 198.430387 
L 521.035684 187.578443 
L 521.762588 180.753643 
L 522.489492 176.156119 
L 523.216396 173.071011 
L 523.943301 171.15662 
L 524.670205 170.241966 
L 525.397109 170.254475 
L 526.124014 171.194881 
L 526.850918 173.137819 
L 527.577822 176.258554 
L 528.304727 180.909069 
L 529.031631 187.832495 
L 529.758535 198.930915 
L 530.485439 222.25858 
L 531.212344 231.997653 
L 531.939248 202.287424 
L 532.666152 190.020697 
L 533.393057 182.656661 
L 534.119961 177.803954 
L 534.846865 174.585234 
L 535.57377 172.595832 
L 536.300674 171.63472 
L 537.027578 171.612258 
L 537.754482 172.517267 
L 538.481387 174.413316 
L 539.208291 177.461243 
L 539.935195 181.987284 
L 540.6621 188.673619 
L 541.389004 199.217226 
L 542.842812 241.186484 
L 543.569717 206.042046 
L 544.296621 192.989139 
L 545.023525 185.314262 
L 545.75043 180.295607 
L 546.477334 176.972329 
L 547.204238 174.908498 
L 547.931143 173.888321 
L 548.658047 173.813691 
L 549.384951 174.667357 
L 550.111855 176.507059 
L 550.83876 179.485907 
L 551.565664 183.916375 
L 552.292568 190.448661 
L 553.019473 200.675932 
L 553.746377 220.522856 
L 554.473281 248.91882 
L 555.200186 209.438179 
L 555.92709 195.86883 
L 556.653994 187.985328 
L 557.380898 182.848511 
L 558.107803 179.44507 
L 558.834707 177.319821 
L 559.561611 176.247942 
L 560.288516 176.126134 
L 561.01542 176.933379 
L 561.742324 178.723751 
L 562.469229 181.645451 
L 563.196133 186.002225 
L 563.923037 192.424179 
L 564.649941 202.440555 
L 565.376846 221.587961 
L 566.10375 255.619508 
L 566.830654 212.466549 
L 567.557559 198.524956 
L 568.284463 190.489231 
L 569.011367 185.263246 
L 569.738271 181.796929 
L 570.465176 179.621777 
L 571.19208 178.506756 
L 571.918984 178.344996 
L 572.645889 179.112872 
L 573.372793 180.8619 
L 574.099697 183.736837 
L 574.826602 188.035316 
L 575.553506 194.373453 
L 576.28041 204.236551 
L 577.007314 222.903872 
L 577.734219 261.553067 
L 578.461123 215.1661 
L 579.188027 200.939735 
L 579.914932 192.786758 
L 580.641836 187.490636 
L 581.36874 183.973701 
L 582.095645 181.757547 
L 582.822549 180.606542 
L 583.549453 180.411171 
L 584.276357 181.145874 
L 585.003262 182.86026 
L 585.730166 185.696507 
L 586.45707 189.94768 
L 587.183975 196.219474 
L 587.910879 205.964788 
L 588.637783 224.277793 
L 589.364687 266.896696 
L 590.091592 217.580899 
L 590.818496 203.127372 
L 591.5454 194.880523 
L 592.272305 189.527464 
L 592.999209 185.968811 
L 593.726113 183.718418 
L 594.453018 182.537071 
L 595.179922 182.3132 
L 595.906826 183.019735 
L 596.63373 184.704793 
L 597.360635 187.508534 
L 598.087539 191.720439 
L 598.814443 197.938079 
L 599.541348 207.589233 
L 600.268252 225.62734 
L 600.995156 271.775876 
L 601.722061 219.750188 
L 602.448965 205.109694 
L 603.175869 196.785453 
L 603.902773 191.385002 
L 604.629678 187.791257 
L 605.356582 185.511801 
L 606.083486 184.304528 
L 606.810391 184.056205 
L 607.537295 184.738545 
L 608.264199 186.398453 
L 608.991104 189.174455 
L 609.718008 193.353128 
L 610.444912 199.525469 
L 611.171816 209.099071 
L 611.898721 226.915913 
L 612.625625 276.283568 
L 613.352529 221.706773 
L 614.079434 206.908578 
L 614.806338 198.519029 
L 615.533242 193.078314 
L 616.260146 189.454526 
L 616.987051 187.150026 
L 617.713955 185.920301 
L 618.440859 185.650741 
L 619.167764 186.312043 
L 619.894668 187.950108 
L 620.621572 190.702094 
L 621.348477 194.852165 
L 622.075381 200.985853 
L 622.802285 210.494055 
L 623.529189 228.127678 
L 624.256094 280.491385 
L 624.982998 223.47758 
L 625.709902 208.543699 
L 626.436807 200.09798 
L 627.163711 194.622459 
L 627.890615 190.972556 
L 628.61752 188.646177 
L 629.344424 187.396766 
L 630.071328 187.108539 
L 630.798232 187.751335 
L 631.525137 189.370195 
L 632.252041 192.101117 
L 632.978945 196.226205 
L 633.70585 202.326355 
L 634.432754 211.778332 
L 635.159658 229.256756 
L 635.886562 284.456533 
L 636.613467 225.084643 
L 637.340371 210.032067 
L 638.067275 201.537254 
L 638.79418 196.031201 
L 639.521084 192.358289 
L 640.247988 190.01256 
L 640.974893 188.745687 
L 641.701797 188.440872 
L 642.428701 189.067208 
L 643.155605 190.668993 
L 643.88251 193.381218 
L 644.609414 197.484204 
L 645.336318 203.554832 
L 646.063223 212.957683 
L 646.790127 230.302159 
L 647.517031 288.226366 
L 648.243936 226.546053 
L 648.97084 211.388168 
L 649.697744 202.84985 
L 650.424648 197.316666 
L 651.151553 193.623238 
L 651.878457 191.260204 
L 652.605361 189.977678 
L 653.332266 189.657971 
L 654.05917 190.269518 
L 654.786074 191.855965 
L 655.512979 194.551416 
L 656.239883 198.634621 
L 656.966787 204.678936 
L 657.693691 214.038264 
L 658.420596 231.265293 
L 659.1475 291.841551 
L 659.874404 227.876745 
L 660.601309 212.624271 
L 661.328213 204.046935 
L 662.055117 198.489366 
L 662.782021 194.77745 
L 663.508926 192.398783 
L 664.23583 191.10209 
L 664.962734 190.768886 
L 665.689639 191.367022 
L 666.416543 192.93956 
L 667.143447 195.619813 
L 667.870352 199.685133 
L 668.597256 205.705732 
L 669.32416 215.026031 
L 670.051064 232.148673 
L 670.777969 295.338419 
L 671.504873 229.089127 
L 672.231777 213.750768 
L 672.958682 205.138061 
L 673.685586 199.558353 
L 674.41249 195.829614 
L 675.139395 193.436694 
L 675.866299 192.127063 
L 676.593203 191.781521 
L 677.320107 192.367389 
L 678.047012 193.927204 
L 678.773916 196.593565 
L 679.50082 200.642561 
L 680.227725 206.641572 
L 680.954629 215.926494 
L 681.681533 232.955244 
L 682.408437 298.750858 
L 683.135342 230.193573 
L 683.862246 214.776472 
L 684.58915 206.131392 
L 685.316055 200.531395 
L 686.042959 196.787214 
L 686.769863 194.381189 
L 687.496768 193.059647 
L 688.223672 192.702733 
L 688.950576 193.277289 
L 689.67748 194.825372 
L 690.404385 197.478928 
L 691.131289 201.512897 
L 691.858193 207.492081 
L 692.585098 216.744627 
L 693.312002 233.688028 
L 694.038906 302.111982 
L 694.765811 231.198808 
L 695.492715 215.708876 
L 696.219619 207.033905 
L 696.946523 201.415161 
L 697.673428 197.65669 
L 698.400332 195.238521 
L 699.127236 193.905928 
L 699.854141 193.538456 
L 700.581045 194.102502 
L 701.307949 195.639685 
L 702.034854 198.281349 
L 702.761758 202.301376 
L 703.488662 208.262197 
L 704.215566 217.484853 
L 704.942471 234.349931 
L 705.669375 305.455815 
L 706.396279 232.112206 
L 707.123184 216.554364 
L 707.850088 207.851575 
L 708.576992 202.215372 
L 709.303896 198.443577 
L 710.030801 196.014072 
L 710.757705 194.671154 
L 711.484609 194.293808 
L 712.211514 194.848024 
L 712.938418 196.375007 
L 713.665322 199.005548 
L 714.392227 203.012543 
L 715.119131 208.956229 
L 715.846035 218.151068 
L 716.572939 234.943648 
L 717.299844 308.819178 
L 718.026748 232.940024 
L 718.753652 217.318389 
L 719.480557 208.589518 
L 720.207461 202.936939 
L 720.934365 199.152634 
L 721.66127 196.712475 
L 722.388174 195.359843 
L 723.115078 194.973204 
L 723.841982 195.518162 
L 724.568887 197.035539 
L 725.295791 199.655605 
L 726.022695 203.650338 
L 726.7496 209.57792 
L 727.476504 218.746678 
L 728.203408 235.471616 
L 728.930312 312.244081 
L 729.657217 233.68759 
L 730.384121 218.005612 
L 731.111025 209.252118 
L 731.83793 203.584073 
L 732.564834 199.787945 
L 733.291738 197.337708 
L 734.018643 195.975882 
L 734.745547 195.58044 
L 735.472451 196.116625 
L 736.199355 197.624898 
L 736.92626 200.235038 
L 737.653164 204.218157 
L 738.380068 210.130504 
L 739.106973 219.27464 
L 739.833877 235.936 
L 740.560781 315.781062 
L 741.287686 234.35945 
L 742.01459 218.620018 
L 742.741494 209.843125 
L 743.468398 204.160382 
L 744.195303 200.353011 
L 744.922207 197.893183 
L 745.649111 196.522601 
L 746.376016 196.118772 
L 747.10292 196.646594 
L 747.829824 198.146187 
L 748.556729 200.746864 
L 749.283633 204.718915 
L 750.010537 210.616759 
L 750.737441 219.737497 
L 751.464346 236.338689 
L 752.19125 319.494227 
L 752.918154 234.959486 
L 753.645059 219.165011 
L 754.371963 210.365745 
L 755.098867 204.668949 
L 755.825771 200.850822 
L 756.552676 198.381814 
L 757.27958 197.002846 
L 758.006484 196.590978 
L 758.733389 197.110784 
L 759.460293 198.602054 
L 760.187197 201.193657 
L 760.914102 205.1551 
L 761.641006 211.039054 
L 762.36791 220.137421 
L 763.094814 236.681301 
L 763.821719 323.469449 
L 764.548623 235.491006 
L 765.275527 219.643487 
L 766.002432 210.822704 
L 766.729336 205.112394 
L 767.45624 201.28392 
L 768.183145 198.806075 
L 768.910049 197.419029 
L 769.636953 196.999417 
L 770.363857 197.511495 
L 771.090762 198.994742 
L 771.817666 201.577597 
L 772.54457 205.528815 
L 773.271475 211.399389 
L 773.998379 220.476242 
L 774.725283 236.965195 
L 775.452187 327.828738 
L 776.179092 235.956827 
L 776.905996 220.057899 
L 777.6329 211.216306 
L 778.359805 205.492928 
L 779.086709 201.654444 
L 779.813613 199.168046 
L 780.540518 197.77318 
L 781.267422 197.346066 
L 781.994326 197.850656 
L 782.72123 199.326126 
L 783.448135 201.900502 
L 784.175039 205.841812 
L 784.901943 211.699429 
L 785.628848 220.755473 
L 786.355752 237.191475 
L 787.082656 332.757645 
L 787.809561 236.35933 
L 788.536465 220.410305 
L 789.263369 211.548475 
L 789.990273 205.812392 
L 790.717178 201.964175 
L 791.444082 199.469457 
L 792.170986 198.06698 
L 792.897891 197.632561 
L 793.624795 198.12986 
L 794.351699 199.597753 
L 795.078604 202.163868 
L 795.805508 206.095526 
L 796.532412 211.940528 
L 797.259316 220.976335 
L 797.986221 237.361003 
L 798.713125 338.563483 
L 799.440029 236.700515 
L 800.166934 220.70241 
L 800.893838 211.820796 
L 801.620742 206.072297 
L 802.347646 202.214567 
L 803.074551 199.711715 
L 803.801455 198.301792 
L 804.528359 197.860227 
L 805.255264 198.350387 
L 805.982168 199.810863 
L 806.709072 202.368889 
L 807.435977 206.291096 
L 808.162881 212.123751 
L 808.889785 221.139776 
L 809.616689 237.474405 
L 810.343594 345.818753 
L 811.070498 236.982036 
L 811.797402 220.935598 
L 812.524307 212.034543 
L 813.251211 206.273849 
L 813.978115 202.406773 
L 814.70502 199.895928 
L 815.431924 198.478688 
L 816.158828 198.030094 
L 816.885732 198.513233 
L 817.612637 199.966411 
L 818.339541 202.516478 
L 819.066445 206.429385 
L 819.79335 212.249896 
L 820.520254 221.24648 
L 821.247158 237.532074 
L 821.974062 355.80482 
L 822.700967 237.205237 
L 823.427871 221.110957 
L 824.154775 212.190702 
L 824.88168 206.417969 
L 825.608584 202.541668 
L 826.335488 200.02293 
L 827.062393 198.598461 
L 827.789297 198.142923 
L 828.516201 198.619123 
L 829.243105 200.065086 
L 829.97001 202.607282 
L 830.696914 206.510994 
L 831.423818 212.3195 
L 832.150723 221.296884 
L 832.877627 237.534174 
L 833.604531 372.605455 
L 834.331436 237.371175 
L 835.05834 221.229299 
L 835.785244 212.289985 
L 836.512148 206.50531 
L 837.239053 202.619857 
L 837.965957 200.093288 
L 838.692861 198.661645 
L 839.419766 198.199214 
L 840.14667 198.668522 
L 840.873574 200.107318 
L 841.600479 202.641694 
L 842.327383 206.536269 
L 843.054287 212.332849 
L 843.781191 221.291175 
L 844.508096 237.480641 
L 844.508096 237.480641 
" style="fill:none;stroke:#0072bd;stroke-linecap:square;stroke-width:1.4;"/>
   </g>
   <g id="patch_8">
    <path d="M 473.06 388.6 
L 473.06 36.72 
" style="fill:none;stroke:#000000;stroke-linecap:square;stroke-linejoin:miter;stroke-width:0.8;"/>
   </g>
   <g id="patch_9">
    <path d="M 845.235 388.6 
L 845.235 36.72 
" style="fill:none;stroke:#000000;stroke-linecap:square;stroke-linejoin:miter;stroke-width:0.8;"/>
   </g>
   <g id="patch_10">
    <path d="M 473.06 388.6 
L 845.235 388.6 
" style="fill:none;stroke:#000000;stroke-linecap:square;stroke-linejoin:miter;stroke-width:0.8;"/>
   </g>
   <g id="patch_11">
    <path d="M 473.06 36.72 
L 845.235 36.72 
" style="fill:none;stroke:#000000;stroke-linecap:square;stroke-linejoin:miter;stroke-width:0.8;"/>
   </g>
  </g>
  <g id="text_29">
   <!-- Hamming window -->
   <defs>
    <path d="M 9.8125 72.90625 
L 19.671875 72.90625 
L 19.671875 43.015625 
L 55.515625 43.015625 
L 55.515625 72.90625 
L 65.375 72.90625 
L 65.375 0 
L 55.515625 0 
L 55.515625 34.71875 
L 19.671875 34.71875 
L 19.671875 0 
L 9.8125 0 
z
" id="DejaVuSans-72"/>
    <path d="M 45.40625 27.984375 
Q 45.40625 37.75 41.375 43.109375 
Q 37.359375 48.484375 30.078125 48.484375 
Q 22.859375 48.484375 18.828125 43.109375 
Q 14.796875 37.75 14.796875 27.984375 
Q 14.796875 18.265625 18.828125 12.890625 
Q 22.859375 7.515625 30.078125 7.515625 
Q 37.359375 7.515625 41.375 12.890625 
Q 45.40625 18.265625 45.40625 27.984375 
z
M 54.390625 6.78125 
Q 54.390625 -7.171875 48.1875 -13.984375 
Q 42 -20.796875 29.203125 -20.796875 
Q 24.46875 -20.796875 20.265625 -20.09375 
Q 16.0625 -19.390625 12.109375 -17.921875 
L 12.109375 -9.1875 
Q 16.0625 -11.328125 19.921875 -12.34375 
Q 23.78125 -13.375 27.78125 -13.375 
Q 36.625 -13.375 41.015625 -8.765625 
Q 45.40625 -4.15625 45.40625 5.171875 
L 45.40625 9.625 
Q 42.625 4.78125 38.28125 2.390625 
Q 33.9375 0 27.875 0 
Q 17.828125 0 11.671875 7.65625 
Q 5.515625 15.328125 5.515625 27.984375 
Q 5.515625 40.671875 11.671875 48.328125 
Q 17.828125 56 27.875 56 
Q 33.9375 56 38.28125 53.609375 
Q 42.625 51.21875 45.40625 46.390625 
L 45.40625 54.6875 
L 54.390625 54.6875 
z
" id="DejaVuSans-103"/>
    <path d="M 4.203125 54.6875 
L 13.1875 54.6875 
L 24.421875 12.015625 
L 35.59375 54.6875 
L 46.1875 54.6875 
L 57.421875 12.015625 
L 68.609375 54.6875 
L 77.59375 54.6875 
L 63.28125 0 
L 52.6875 0 
L 40.921875 44.828125 
L 29.109375 0 
L 18.5 0 
z
" id="DejaVuSans-119"/>
   </defs>
   <g transform="translate(360.23125 20.7975)scale(0.16 -0.16)">
    <use xlink:href="#DejaVuSans-72"/>
    <use x="75.195312" xlink:href="#DejaVuSans-97"/>
    <use x="136.474609" xlink:href="#DejaVuSans-109"/>
    <use x="233.886719" xlink:href="#DejaVuSans-109"/>
    <use x="331.298828" xlink:href="#DejaVuSans-105"/>
    <use x="359.082031" xlink:href="#DejaVuSans-110"/>
    <use x="422.460938" xlink:href="#DejaVuSans-103"/>
    <use x="485.9375" xlink:href="#DejaVuSans-32"/>
    <use x="517.724609" xlink:href="#DejaVuSans-119"/>
    <use x="599.511719" xlink:href="#DejaVuSans-105"/>
    <use x="627.294922" xlink:href="#DejaVuSans-110"/>
    <use x="690.673828" xlink:href="#DejaVuSans-100"/>
    <use x="754.150391" xlink:href="#DejaVuSans-111"/>
    <use x="815.332031" xlink:href="#DejaVuSans-119"/>
   </g>
  </g>
 </g>
 <defs>
  <clipPath id="p9df6d55b6c">
   <rect height="351.88" width="372.175" x="47.855" y="36.72"/>
  </clipPath>
  <clipPath id="pe1bc435c08">
   <rect height="351.88" width="372.175" x="473.06" y="36.72"/>
  </clipPath>
 </defs>
</svg>
