<?xml version="1.0" encoding="utf-8" standalone="no"?>
<!DOCTYPE svg PUBLIC "-//W3C//DTD SVG 1.1//EN"
  "http://www.w3.org/Graphics/SVG/1.1/DTD/svg11.dtd">
<!-- Created with matplotlib (https://matplotlib.org/) -->
<svg height="432pt" version="1.1" viewBox="0 0 864 432" width="864pt" xmlns="http://www.w3.org/2000/svg" xmlns:xlink="http://www.w3.org/1999/xlink">
 <defs>
  <style type="text/css">
*{stroke-linecap:butt;stroke-linejoin:round;}
  </style>
 </defs>
 <g id="figure_1">
  <g id="patch_1">
   <path d="M 0 432 
L 864 432 
L 864 0 
L 0 0 
z
" style="fill:#ffffff;"/>
  </g>
  <g id="axes_1">
   <g id="patch_2">
    <path d="M 47.72 387.16 
L 418.77 387.16 
L 418.77 39.24 
L 47.72 39.24 
z
" style="fill:#ffffff;"/>
   </g>
   <g id="matplotlib.axis_1">
    <g id="xtick_1">
     <g id="line2d_1">
      <path clip-path="url(#pddfd66ca8f)" d="M 47.72 387.16 
L 47.72 39.24 
" style="fill:none;stroke:#777777;stroke-linecap:square;stroke-width:0.8;"/>
     </g>
     <g id="line2d_2">
      <defs>
       <path d="M 0 0 
L 0 3.5 
" id="mb2dcc9b6ff" style="stroke:#000000;stroke-width:0.8;"/>
      </defs>
      <g>
       <use style="stroke:#000000;stroke-width:0.8;" x="47.72" xlink:href="#mb2dcc9b6ff" y="387.16"/>
      </g>
     </g>
     <g id="text_1">
      <!-- 0 -->
      <defs>
       <path d="M 31.78125 66.40625 
Q 24.171875 66.40625 20.328125 58.90625 
Q 16.5 51.421875 16.5 36.375 
Q 16.5 21.390625 20.328125 13.890625 
Q 24.171875 6.390625 31.78125 6.390625 
Q 39.453125 6.390625 43.28125 13.890625 
Q 47.125 21.390625 47.125 36.375 
Q 47.125 51.421875 43.28125 58.90625 
Q 39.453125 66.40625 31.78125 66.40625 
z
M 31.78125 74.21875 
Q 44.046875 74.21875 50.515625 64.515625 
Q 56.984375 54.828125 56.984375 36.375 
Q 56.984375 17.96875 50.515625 8.265625 
Q 44.046875 -1.421875 31.78125 -1.421875 
Q 19.53125 -1.421875 13.0625 8.265625 
Q 6.59375 17.96875 6.59375 36.375 
Q 6.59375 54.828125 13.0625 64.515625 
Q 19.53125 74.21875 31.78125 74.21875 
z
" id="DejaVuSans-48"/>
      </defs>
      <g transform="translate(44.53875 401.758438)scale(0.1 -0.1)">
       <use xlink:href="#DejaVuSans-48"/>
      </g>
     </g>
    </g>
    <g id="xtick_2">
     <g id="line2d_3">
      <path clip-path="url(#pddfd66ca8f)" d="M 106.616825 387.16 
L 106.616825 39.24 
" style="fill:none;stroke:#777777;stroke-linecap:square;stroke-width:0.8;"/>
     </g>
     <g id="line2d_4">
      <g>
       <use style="stroke:#000000;stroke-width:0.8;" x="106.616825" xlink:href="#mb2dcc9b6ff" y="387.16"/>
      </g>
     </g>
     <g id="text_2">
      <!-- 10 -->
      <defs>
       <path d="M 12.40625 8.296875 
L 28.515625 8.296875 
L 28.515625 63.921875 
L 10.984375 60.40625 
L 10.984375 69.390625 
L 28.421875 72.90625 
L 38.28125 72.90625 
L 38.28125 8.296875 
L 54.390625 8.296875 
L 54.390625 0 
L 12.40625 0 
z
" id="DejaVuSans-49"/>
      </defs>
      <g transform="translate(100.254325 401.758438)scale(0.1 -0.1)">
       <use xlink:href="#DejaVuSans-49"/>
       <use x="63.623047" xlink:href="#DejaVuSans-48"/>
      </g>
     </g>
    </g>
    <g id="xtick_3">
     <g id="line2d_5">
      <path clip-path="url(#pddfd66ca8f)" d="M 165.513651 387.16 
L 165.513651 39.24 
" style="fill:none;stroke:#777777;stroke-linecap:square;stroke-width:0.8;"/>
     </g>
     <g id="line2d_6">
      <g>
       <use style="stroke:#000000;stroke-width:0.8;" x="165.513651" xlink:href="#mb2dcc9b6ff" y="387.16"/>
      </g>
     </g>
     <g id="text_3">
      <!-- 20 -->
      <defs>
       <path d="M 19.1875 8.296875 
L 53.609375 8.296875 
L 53.609375 0 
L 7.328125 0 
L 7.328125 8.296875 
Q 12.9375 14.109375 22.625 23.890625 
Q 32.328125 33.6875 34.8125 36.53125 
Q 39.546875 41.84375 41.421875 45.53125 
Q 43.3125 49.21875 43.3125 52.78125 
Q 43.3125 58.59375 39.234375 62.25 
Q 35.15625 65.921875 28.609375 65.921875 
Q 23.96875 65.921875 18.8125 64.3125 
Q 13.671875 62.703125 7.8125 59.421875 
L 7.8125 69.390625 
Q 13.765625 71.78125 18.9375 73 
Q 24.125 74.21875 28.421875 74.21875 
Q 39.75 74.21875 46.484375 68.546875 
Q 53.21875 62.890625 53.21875 53.421875 
Q 53.21875 48.921875 51.53125 44.890625 
Q 49.859375 40.875 45.40625 35.40625 
Q 44.1875 33.984375 37.640625 27.21875 
Q 31.109375 20.453125 19.1875 8.296875 
z
" id="DejaVuSans-50"/>
      </defs>
      <g transform="translate(159.151151 401.758438)scale(0.1 -0.1)">
       <use xlink:href="#DejaVuSans-50"/>
       <use x="63.623047" xlink:href="#DejaVuSans-48"/>
      </g>
     </g>
    </g>
    <g id="xtick_4">
     <g id="line2d_7">
      <path clip-path="url(#pddfd66ca8f)" d="M 224.410476 387.16 
L 224.410476 39.24 
" style="fill:none;stroke:#777777;stroke-linecap:square;stroke-width:0.8;"/>
     </g>
     <g id="line2d_8">
      <g>
       <use style="stroke:#000000;stroke-width:0.8;" x="224.410476" xlink:href="#mb2dcc9b6ff" y="387.16"/>
      </g>
     </g>
     <g id="text_4">
      <!-- 30 -->
      <defs>
       <path d="M 40.578125 39.3125 
Q 47.65625 37.796875 51.625 33 
Q 55.609375 28.21875 55.609375 21.1875 
Q 55.609375 10.40625 48.1875 4.484375 
Q 40.765625 -1.421875 27.09375 -1.421875 
Q 22.515625 -1.421875 17.65625 -0.515625 
Q 12.796875 0.390625 7.625 2.203125 
L 7.625 11.71875 
Q 11.71875 9.328125 16.59375 8.109375 
Q 21.484375 6.890625 26.8125 6.890625 
Q 36.078125 6.890625 40.9375 10.546875 
Q 45.796875 14.203125 45.796875 21.1875 
Q 45.796875 27.640625 41.28125 31.265625 
Q 36.765625 34.90625 28.71875 34.90625 
L 20.21875 34.90625 
L 20.21875 43.015625 
L 29.109375 43.015625 
Q 36.375 43.015625 40.234375 45.921875 
Q 44.09375 48.828125 44.09375 54.296875 
Q 44.09375 59.90625 40.109375 62.90625 
Q 36.140625 65.921875 28.71875 65.921875 
Q 24.65625 65.921875 20.015625 65.03125 
Q 15.375 64.15625 9.8125 62.3125 
L 9.8125 71.09375 
Q 15.4375 72.65625 20.34375 73.4375 
Q 25.25 74.21875 29.59375 74.21875 
Q 40.828125 74.21875 47.359375 69.109375 
Q 53.90625 64.015625 53.90625 55.328125 
Q 53.90625 49.265625 50.4375 45.09375 
Q 46.96875 40.921875 40.578125 39.3125 
z
" id="DejaVuSans-51"/>
      </defs>
      <g transform="translate(218.047976 401.758438)scale(0.1 -0.1)">
       <use xlink:href="#DejaVuSans-51"/>
       <use x="63.623047" xlink:href="#DejaVuSans-48"/>
      </g>
     </g>
    </g>
    <g id="xtick_5">
     <g id="line2d_9">
      <path clip-path="url(#pddfd66ca8f)" d="M 283.307302 387.16 
L 283.307302 39.24 
" style="fill:none;stroke:#777777;stroke-linecap:square;stroke-width:0.8;"/>
     </g>
     <g id="line2d_10">
      <g>
       <use style="stroke:#000000;stroke-width:0.8;" x="283.307302" xlink:href="#mb2dcc9b6ff" y="387.16"/>
      </g>
     </g>
     <g id="text_5">
      <!-- 40 -->
      <defs>
       <path d="M 37.796875 64.3125 
L 12.890625 25.390625 
L 37.796875 25.390625 
z
M 35.203125 72.90625 
L 47.609375 72.90625 
L 47.609375 25.390625 
L 58.015625 25.390625 
L 58.015625 17.1875 
L 47.609375 17.1875 
L 47.609375 0 
L 37.796875 0 
L 37.796875 17.1875 
L 4.890625 17.1875 
L 4.890625 26.703125 
z
" id="DejaVuSans-52"/>
      </defs>
      <g transform="translate(276.944802 401.758438)scale(0.1 -0.1)">
       <use xlink:href="#DejaVuSans-52"/>
       <use x="63.623047" xlink:href="#DejaVuSans-48"/>
      </g>
     </g>
    </g>
    <g id="xtick_6">
     <g id="line2d_11">
      <path clip-path="url(#pddfd66ca8f)" d="M 342.204127 387.16 
L 342.204127 39.24 
" style="fill:none;stroke:#777777;stroke-linecap:square;stroke-width:0.8;"/>
     </g>
     <g id="line2d_12">
      <g>
       <use style="stroke:#000000;stroke-width:0.8;" x="342.204127" xlink:href="#mb2dcc9b6ff" y="387.16"/>
      </g>
     </g>
     <g id="text_6">
      <!-- 50 -->
      <defs>
       <path d="M 10.796875 72.90625 
L 49.515625 72.90625 
L 49.515625 64.59375 
L 19.828125 64.59375 
L 19.828125 46.734375 
Q 21.96875 47.46875 24.109375 47.828125 
Q 26.265625 48.1875 28.421875 48.1875 
Q 40.625 48.1875 47.75 41.5 
Q 54.890625 34.8125 54.890625 23.390625 
Q 54.890625 11.625 47.5625 5.09375 
Q 40.234375 -1.421875 26.90625 -1.421875 
Q 22.3125 -1.421875 17.546875 -0.640625 
Q 12.796875 0.140625 7.71875 1.703125 
L 7.71875 11.625 
Q 12.109375 9.234375 16.796875 8.0625 
Q 21.484375 6.890625 26.703125 6.890625 
Q 35.15625 6.890625 40.078125 11.328125 
Q 45.015625 15.765625 45.015625 23.390625 
Q 45.015625 31 40.078125 35.4375 
Q 35.15625 39.890625 26.703125 39.890625 
Q 22.75 39.890625 18.8125 39.015625 
Q 14.890625 38.140625 10.796875 36.28125 
z
" id="DejaVuSans-53"/>
      </defs>
      <g transform="translate(335.841627 401.758438)scale(0.1 -0.1)">
       <use xlink:href="#DejaVuSans-53"/>
       <use x="63.623047" xlink:href="#DejaVuSans-48"/>
      </g>
     </g>
    </g>
    <g id="xtick_7">
     <g id="line2d_13">
      <path clip-path="url(#pddfd66ca8f)" d="M 401.100952 387.16 
L 401.100952 39.24 
" style="fill:none;stroke:#777777;stroke-linecap:square;stroke-width:0.8;"/>
     </g>
     <g id="line2d_14">
      <g>
       <use style="stroke:#000000;stroke-width:0.8;" x="401.100952" xlink:href="#mb2dcc9b6ff" y="387.16"/>
      </g>
     </g>
     <g id="text_7">
      <!-- 60 -->
      <defs>
       <path d="M 33.015625 40.375 
Q 26.375 40.375 22.484375 35.828125 
Q 18.609375 31.296875 18.609375 23.390625 
Q 18.609375 15.53125 22.484375 10.953125 
Q 26.375 6.390625 33.015625 6.390625 
Q 39.65625 6.390625 43.53125 10.953125 
Q 47.40625 15.53125 47.40625 23.390625 
Q 47.40625 31.296875 43.53125 35.828125 
Q 39.65625 40.375 33.015625 40.375 
z
M 52.59375 71.296875 
L 52.59375 62.3125 
Q 48.875 64.0625 45.09375 64.984375 
Q 41.3125 65.921875 37.59375 65.921875 
Q 27.828125 65.921875 22.671875 59.328125 
Q 17.53125 52.734375 16.796875 39.40625 
Q 19.671875 43.65625 24.015625 45.921875 
Q 28.375 48.1875 33.59375 48.1875 
Q 44.578125 48.1875 50.953125 41.515625 
Q 57.328125 34.859375 57.328125 23.390625 
Q 57.328125 12.15625 50.6875 5.359375 
Q 44.046875 -1.421875 33.015625 -1.421875 
Q 20.359375 -1.421875 13.671875 8.265625 
Q 6.984375 17.96875 6.984375 36.375 
Q 6.984375 53.65625 15.1875 63.9375 
Q 23.390625 74.21875 37.203125 74.21875 
Q 40.921875 74.21875 44.703125 73.484375 
Q 48.484375 72.75 52.59375 71.296875 
z
" id="DejaVuSans-54"/>
      </defs>
      <g transform="translate(394.738452 401.758438)scale(0.1 -0.1)">
       <use xlink:href="#DejaVuSans-54"/>
       <use x="63.623047" xlink:href="#DejaVuSans-48"/>
      </g>
     </g>
    </g>
    <g id="text_8">
     <!-- Samples -->
     <defs>
      <path d="M 53.515625 70.515625 
L 53.515625 60.890625 
Q 47.90625 63.578125 42.921875 64.890625 
Q 37.9375 66.21875 33.296875 66.21875 
Q 25.25 66.21875 20.875 63.09375 
Q 16.5 59.96875 16.5 54.203125 
Q 16.5 49.359375 19.40625 46.890625 
Q 22.3125 44.4375 30.421875 42.921875 
L 36.375 41.703125 
Q 47.40625 39.59375 52.65625 34.296875 
Q 57.90625 29 57.90625 20.125 
Q 57.90625 9.515625 50.796875 4.046875 
Q 43.703125 -1.421875 29.984375 -1.421875 
Q 24.8125 -1.421875 18.96875 -0.25 
Q 13.140625 0.921875 6.890625 3.21875 
L 6.890625 13.375 
Q 12.890625 10.015625 18.65625 8.296875 
Q 24.421875 6.59375 29.984375 6.59375 
Q 38.421875 6.59375 43.015625 9.90625 
Q 47.609375 13.234375 47.609375 19.390625 
Q 47.609375 24.75 44.3125 27.78125 
Q 41.015625 30.8125 33.5 32.328125 
L 27.484375 33.5 
Q 16.453125 35.6875 11.515625 40.375 
Q 6.59375 45.0625 6.59375 53.421875 
Q 6.59375 63.09375 13.40625 68.65625 
Q 20.21875 74.21875 32.171875 74.21875 
Q 37.3125 74.21875 42.625 73.28125 
Q 47.953125 72.359375 53.515625 70.515625 
z
" id="DejaVuSans-83"/>
      <path d="M 34.28125 27.484375 
Q 23.390625 27.484375 19.1875 25 
Q 14.984375 22.515625 14.984375 16.5 
Q 14.984375 11.71875 18.140625 8.90625 
Q 21.296875 6.109375 26.703125 6.109375 
Q 34.1875 6.109375 38.703125 11.40625 
Q 43.21875 16.703125 43.21875 25.484375 
L 43.21875 27.484375 
z
M 52.203125 31.203125 
L 52.203125 0 
L 43.21875 0 
L 43.21875 8.296875 
Q 40.140625 3.328125 35.546875 0.953125 
Q 30.953125 -1.421875 24.3125 -1.421875 
Q 15.921875 -1.421875 10.953125 3.296875 
Q 6 8.015625 6 15.921875 
Q 6 25.140625 12.171875 29.828125 
Q 18.359375 34.515625 30.609375 34.515625 
L 43.21875 34.515625 
L 43.21875 35.40625 
Q 43.21875 41.609375 39.140625 45 
Q 35.0625 48.390625 27.6875 48.390625 
Q 23 48.390625 18.546875 47.265625 
Q 14.109375 46.140625 10.015625 43.890625 
L 10.015625 52.203125 
Q 14.9375 54.109375 19.578125 55.046875 
Q 24.21875 56 28.609375 56 
Q 40.484375 56 46.34375 49.84375 
Q 52.203125 43.703125 52.203125 31.203125 
z
" id="DejaVuSans-97"/>
      <path d="M 52 44.1875 
Q 55.375 50.25 60.0625 53.125 
Q 64.75 56 71.09375 56 
Q 79.640625 56 84.28125 50.015625 
Q 88.921875 44.046875 88.921875 33.015625 
L 88.921875 0 
L 79.890625 0 
L 79.890625 32.71875 
Q 79.890625 40.578125 77.09375 44.375 
Q 74.3125 48.1875 68.609375 48.1875 
Q 61.625 48.1875 57.5625 43.546875 
Q 53.515625 38.921875 53.515625 30.90625 
L 53.515625 0 
L 44.484375 0 
L 44.484375 32.71875 
Q 44.484375 40.625 41.703125 44.40625 
Q 38.921875 48.1875 33.109375 48.1875 
Q 26.21875 48.1875 22.15625 43.53125 
Q 18.109375 38.875 18.109375 30.90625 
L 18.109375 0 
L 9.078125 0 
L 9.078125 54.6875 
L 18.109375 54.6875 
L 18.109375 46.1875 
Q 21.1875 51.21875 25.484375 53.609375 
Q 29.78125 56 35.6875 56 
Q 41.65625 56 45.828125 52.96875 
Q 50 49.953125 52 44.1875 
z
" id="DejaVuSans-109"/>
      <path d="M 18.109375 8.203125 
L 18.109375 -20.796875 
L 9.078125 -20.796875 
L 9.078125 54.6875 
L 18.109375 54.6875 
L 18.109375 46.390625 
Q 20.953125 51.265625 25.265625 53.625 
Q 29.59375 56 35.59375 56 
Q 45.5625 56 51.78125 48.09375 
Q 58.015625 40.1875 58.015625 27.296875 
Q 58.015625 14.40625 51.78125 6.484375 
Q 45.5625 -1.421875 35.59375 -1.421875 
Q 29.59375 -1.421875 25.265625 0.953125 
Q 20.953125 3.328125 18.109375 8.203125 
z
M 48.6875 27.296875 
Q 48.6875 37.203125 44.609375 42.84375 
Q 40.53125 48.484375 33.40625 48.484375 
Q 26.265625 48.484375 22.1875 42.84375 
Q 18.109375 37.203125 18.109375 27.296875 
Q 18.109375 17.390625 22.1875 11.75 
Q 26.265625 6.109375 33.40625 6.109375 
Q 40.53125 6.109375 44.609375 11.75 
Q 48.6875 17.390625 48.6875 27.296875 
z
" id="DejaVuSans-112"/>
      <path d="M 9.421875 75.984375 
L 18.40625 75.984375 
L 18.40625 0 
L 9.421875 0 
z
" id="DejaVuSans-108"/>
      <path d="M 56.203125 29.59375 
L 56.203125 25.203125 
L 14.890625 25.203125 
Q 15.484375 15.921875 20.484375 11.0625 
Q 25.484375 6.203125 34.421875 6.203125 
Q 39.59375 6.203125 44.453125 7.46875 
Q 49.3125 8.734375 54.109375 11.28125 
L 54.109375 2.78125 
Q 49.265625 0.734375 44.1875 -0.34375 
Q 39.109375 -1.421875 33.890625 -1.421875 
Q 20.796875 -1.421875 13.15625 6.1875 
Q 5.515625 13.8125 5.515625 26.8125 
Q 5.515625 40.234375 12.765625 48.109375 
Q 20.015625 56 32.328125 56 
Q 43.359375 56 49.78125 48.890625 
Q 56.203125 41.796875 56.203125 29.59375 
z
M 47.21875 32.234375 
Q 47.125 39.59375 43.09375 43.984375 
Q 39.0625 48.390625 32.421875 48.390625 
Q 24.90625 48.390625 20.390625 44.140625 
Q 15.875 39.890625 15.1875 32.171875 
z
" id="DejaVuSans-101"/>
      <path d="M 44.28125 53.078125 
L 44.28125 44.578125 
Q 40.484375 46.53125 36.375 47.5 
Q 32.28125 48.484375 27.875 48.484375 
Q 21.1875 48.484375 17.84375 46.4375 
Q 14.5 44.390625 14.5 40.28125 
Q 14.5 37.15625 16.890625 35.375 
Q 19.28125 33.59375 26.515625 31.984375 
L 29.59375 31.296875 
Q 39.15625 29.25 43.1875 25.515625 
Q 47.21875 21.78125 47.21875 15.09375 
Q 47.21875 7.46875 41.1875 3.015625 
Q 35.15625 -1.421875 24.609375 -1.421875 
Q 20.21875 -1.421875 15.453125 -0.5625 
Q 10.6875 0.296875 5.421875 2 
L 5.421875 11.28125 
Q 10.40625 8.6875 15.234375 7.390625 
Q 20.0625 6.109375 24.8125 6.109375 
Q 31.15625 6.109375 34.5625 8.28125 
Q 37.984375 10.453125 37.984375 14.40625 
Q 37.984375 18.0625 35.515625 20.015625 
Q 33.0625 21.96875 24.703125 23.78125 
L 21.578125 24.515625 
Q 13.234375 26.265625 9.515625 29.90625 
Q 5.8125 33.546875 5.8125 39.890625 
Q 5.8125 47.609375 11.28125 51.796875 
Q 16.75 56 26.8125 56 
Q 31.78125 56 36.171875 55.265625 
Q 40.578125 54.546875 44.28125 53.078125 
z
" id="DejaVuSans-115"/>
     </defs>
     <g transform="translate(211.891875 415.436563)scale(0.1 -0.1)">
      <use xlink:href="#DejaVuSans-83"/>
      <use x="63.476562" xlink:href="#DejaVuSans-97"/>
      <use x="124.755859" xlink:href="#DejaVuSans-109"/>
      <use x="222.167969" xlink:href="#DejaVuSans-112"/>
      <use x="285.644531" xlink:href="#DejaVuSans-108"/>
      <use x="313.427734" xlink:href="#DejaVuSans-101"/>
      <use x="374.951172" xlink:href="#DejaVuSans-115"/>
     </g>
    </g>
   </g>
   <g id="matplotlib.axis_2">
    <g id="ytick_1">
     <g id="line2d_15">
      <path clip-path="url(#pddfd66ca8f)" d="M 47.72 334.331811 
L 418.77 334.331811 
" style="fill:none;stroke:#777777;stroke-linecap:square;stroke-width:0.8;"/>
     </g>
     <g id="line2d_16">
      <defs>
       <path d="M 0 0 
L -3.5 0 
" id="m699151275d" style="stroke:#000000;stroke-width:0.8;"/>
      </defs>
      <g>
       <use style="stroke:#000000;stroke-width:0.8;" x="47.72" xlink:href="#m699151275d" y="334.331811"/>
      </g>
     </g>
     <g id="text_9">
      <!-- 0.2 -->
      <defs>
       <path d="M 10.6875 12.40625 
L 21 12.40625 
L 21 0 
L 10.6875 0 
z
" id="DejaVuSans-46"/>
      </defs>
      <g transform="translate(24.816875 338.13103)scale(0.1 -0.1)">
       <use xlink:href="#DejaVuSans-48"/>
       <use x="63.623047" xlink:href="#DejaVuSans-46"/>
       <use x="95.410156" xlink:href="#DejaVuSans-50"/>
      </g>
     </g>
    </g>
    <g id="ytick_2">
     <g id="line2d_17">
      <path clip-path="url(#pddfd66ca8f)" d="M 47.72 264.63432 
L 418.77 264.63432 
" style="fill:none;stroke:#777777;stroke-linecap:square;stroke-width:0.8;"/>
     </g>
     <g id="line2d_18">
      <g>
       <use style="stroke:#000000;stroke-width:0.8;" x="47.72" xlink:href="#m699151275d" y="264.63432"/>
      </g>
     </g>
     <g id="text_10">
      <!-- 0.4 -->
      <g transform="translate(24.816875 268.433538)scale(0.1 -0.1)">
       <use xlink:href="#DejaVuSans-48"/>
       <use x="63.623047" xlink:href="#DejaVuSans-46"/>
       <use x="95.410156" xlink:href="#DejaVuSans-52"/>
      </g>
     </g>
    </g>
    <g id="ytick_3">
     <g id="line2d_19">
      <path clip-path="url(#pddfd66ca8f)" d="M 47.72 194.936828 
L 418.77 194.936828 
" style="fill:none;stroke:#777777;stroke-linecap:square;stroke-width:0.8;"/>
     </g>
     <g id="line2d_20">
      <g>
       <use style="stroke:#000000;stroke-width:0.8;" x="47.72" xlink:href="#m699151275d" y="194.936828"/>
      </g>
     </g>
     <g id="text_11">
      <!-- 0.6 -->
      <g transform="translate(24.816875 198.736047)scale(0.1 -0.1)">
       <use xlink:href="#DejaVuSans-48"/>
       <use x="63.623047" xlink:href="#DejaVuSans-46"/>
       <use x="95.410156" xlink:href="#DejaVuSans-54"/>
      </g>
     </g>
    </g>
    <g id="ytick_4">
     <g id="line2d_21">
      <path clip-path="url(#pddfd66ca8f)" d="M 47.72 125.239337 
L 418.77 125.239337 
" style="fill:none;stroke:#777777;stroke-linecap:square;stroke-width:0.8;"/>
     </g>
     <g id="line2d_22">
      <g>
       <use style="stroke:#000000;stroke-width:0.8;" x="47.72" xlink:href="#m699151275d" y="125.239337"/>
      </g>
     </g>
     <g id="text_12">
      <!-- 0.8 -->
      <defs>
       <path d="M 31.78125 34.625 
Q 24.75 34.625 20.71875 30.859375 
Q 16.703125 27.09375 16.703125 20.515625 
Q 16.703125 13.921875 20.71875 10.15625 
Q 24.75 6.390625 31.78125 6.390625 
Q 38.8125 6.390625 42.859375 10.171875 
Q 46.921875 13.96875 46.921875 20.515625 
Q 46.921875 27.09375 42.890625 30.859375 
Q 38.875 34.625 31.78125 34.625 
z
M 21.921875 38.8125 
Q 15.578125 40.375 12.03125 44.71875 
Q 8.5 49.078125 8.5 55.328125 
Q 8.5 64.0625 14.71875 69.140625 
Q 20.953125 74.21875 31.78125 74.21875 
Q 42.671875 74.21875 48.875 69.140625 
Q 55.078125 64.0625 55.078125 55.328125 
Q 55.078125 49.078125 51.53125 44.71875 
Q 48 40.375 41.703125 38.8125 
Q 48.828125 37.15625 52.796875 32.3125 
Q 56.78125 27.484375 56.78125 20.515625 
Q 56.78125 9.90625 50.3125 4.234375 
Q 43.84375 -1.421875 31.78125 -1.421875 
Q 19.734375 -1.421875 13.25 4.234375 
Q 6.78125 9.90625 6.78125 20.515625 
Q 6.78125 27.484375 10.78125 32.3125 
Q 14.796875 37.15625 21.921875 38.8125 
z
M 18.3125 54.390625 
Q 18.3125 48.734375 21.84375 45.5625 
Q 25.390625 42.390625 31.78125 42.390625 
Q 38.140625 42.390625 41.71875 45.5625 
Q 45.3125 48.734375 45.3125 54.390625 
Q 45.3125 60.0625 41.71875 63.234375 
Q 38.140625 66.40625 31.78125 66.40625 
Q 25.390625 66.40625 21.84375 63.234375 
Q 18.3125 60.0625 18.3125 54.390625 
z
" id="DejaVuSans-56"/>
      </defs>
      <g transform="translate(24.816875 129.038556)scale(0.1 -0.1)">
       <use xlink:href="#DejaVuSans-48"/>
       <use x="63.623047" xlink:href="#DejaVuSans-46"/>
       <use x="95.410156" xlink:href="#DejaVuSans-56"/>
      </g>
     </g>
    </g>
    <g id="ytick_5">
     <g id="line2d_23">
      <path clip-path="url(#pddfd66ca8f)" d="M 47.72 55.541846 
L 418.77 55.541846 
" style="fill:none;stroke:#777777;stroke-linecap:square;stroke-width:0.8;"/>
     </g>
     <g id="line2d_24">
      <g>
       <use style="stroke:#000000;stroke-width:0.8;" x="47.72" xlink:href="#m699151275d" y="55.541846"/>
      </g>
     </g>
     <g id="text_13">
      <!-- 1.0 -->
      <g transform="translate(24.816875 59.341064)scale(0.1 -0.1)">
       <use xlink:href="#DejaVuSans-49"/>
       <use x="63.623047" xlink:href="#DejaVuSans-46"/>
       <use x="95.410156" xlink:href="#DejaVuSans-48"/>
      </g>
     </g>
    </g>
    <g id="text_14">
     <!-- Amplitude -->
     <defs>
      <path d="M 34.1875 63.1875 
L 20.796875 26.90625 
L 47.609375 26.90625 
z
M 28.609375 72.90625 
L 39.796875 72.90625 
L 67.578125 0 
L 57.328125 0 
L 50.6875 18.703125 
L 17.828125 18.703125 
L 11.1875 0 
L 0.78125 0 
z
" id="DejaVuSans-65"/>
      <path d="M 9.421875 54.6875 
L 18.40625 54.6875 
L 18.40625 0 
L 9.421875 0 
z
M 9.421875 75.984375 
L 18.40625 75.984375 
L 18.40625 64.59375 
L 9.421875 64.59375 
z
" id="DejaVuSans-105"/>
      <path d="M 18.3125 70.21875 
L 18.3125 54.6875 
L 36.8125 54.6875 
L 36.8125 47.703125 
L 18.3125 47.703125 
L 18.3125 18.015625 
Q 18.3125 11.328125 20.140625 9.421875 
Q 21.96875 7.515625 27.59375 7.515625 
L 36.8125 7.515625 
L 36.8125 0 
L 27.59375 0 
Q 17.1875 0 13.234375 3.875 
Q 9.28125 7.765625 9.28125 18.015625 
L 9.28125 47.703125 
L 2.6875 47.703125 
L 2.6875 54.6875 
L 9.28125 54.6875 
L 9.28125 70.21875 
z
" id="DejaVuSans-116"/>
      <path d="M 8.5 21.578125 
L 8.5 54.6875 
L 17.484375 54.6875 
L 17.484375 21.921875 
Q 17.484375 14.15625 20.5 10.265625 
Q 23.53125 6.390625 29.59375 6.390625 
Q 36.859375 6.390625 41.078125 11.03125 
Q 45.3125 15.671875 45.3125 23.6875 
L 45.3125 54.6875 
L 54.296875 54.6875 
L 54.296875 0 
L 45.3125 0 
L 45.3125 8.40625 
Q 42.046875 3.421875 37.71875 1 
Q 33.40625 -1.421875 27.6875 -1.421875 
Q 18.265625 -1.421875 13.375 4.4375 
Q 8.5 10.296875 8.5 21.578125 
z
M 31.109375 56 
z
" id="DejaVuSans-117"/>
      <path d="M 45.40625 46.390625 
L 45.40625 75.984375 
L 54.390625 75.984375 
L 54.390625 0 
L 45.40625 0 
L 45.40625 8.203125 
Q 42.578125 3.328125 38.25 0.953125 
Q 33.9375 -1.421875 27.875 -1.421875 
Q 17.96875 -1.421875 11.734375 6.484375 
Q 5.515625 14.40625 5.515625 27.296875 
Q 5.515625 40.1875 11.734375 48.09375 
Q 17.96875 56 27.875 56 
Q 33.9375 56 38.25 53.625 
Q 42.578125 51.265625 45.40625 46.390625 
z
M 14.796875 27.296875 
Q 14.796875 17.390625 18.875 11.75 
Q 22.953125 6.109375 30.078125 6.109375 
Q 37.203125 6.109375 41.296875 11.75 
Q 45.40625 17.390625 45.40625 27.296875 
Q 45.40625 37.203125 41.296875 42.84375 
Q 37.203125 48.484375 30.078125 48.484375 
Q 22.953125 48.484375 18.875 42.84375 
Q 14.796875 37.203125 14.796875 27.296875 
z
" id="DejaVuSans-100"/>
     </defs>
     <g transform="translate(18.737188 238.822656)rotate(-90)scale(0.1 -0.1)">
      <use xlink:href="#DejaVuSans-65"/>
      <use x="68.408203" xlink:href="#DejaVuSans-109"/>
      <use x="165.820312" xlink:href="#DejaVuSans-112"/>
      <use x="229.296875" xlink:href="#DejaVuSans-108"/>
      <use x="257.080078" xlink:href="#DejaVuSans-105"/>
      <use x="284.863281" xlink:href="#DejaVuSans-116"/>
      <use x="324.072266" xlink:href="#DejaVuSans-117"/>
      <use x="387.451172" xlink:href="#DejaVuSans-100"/>
      <use x="450.927734" xlink:href="#DejaVuSans-101"/>
     </g>
    </g>
   </g>
   <g id="line2d_25">
    <path clip-path="url(#pddfd66ca8f)" d="M 47.72 387.16 
L 53.609683 383.646235 
L 59.499365 379.55044 
L 65.389048 374.810514 
L 71.27873 369.365001 
L 77.168413 363.154847 
L 83.058095 356.125412 
L 88.947778 348.228703 
L 94.83746 339.425777 
L 100.727143 329.689252 
L 106.616825 319.005845 
L 112.506508 307.378837 
L 118.39619 294.830365 
L 124.285873 281.403419 
L 130.175556 267.163431 
L 136.065238 252.199348 
L 141.954921 236.624069 
L 147.844603 220.574165 
L 153.734286 204.20882 
L 159.623968 187.707943 
L 165.513651 171.269445 
L 171.403333 155.105723 
L 177.293016 139.439398 
L 183.182698 124.498432 
L 189.072381 110.510746 
L 194.962063 97.698531 
L 200.851746 86.272422 
L 206.741429 76.425768 
L 212.631111 68.329202 
L 218.520794 62.125728 
L 224.410476 57.926523 
L 230.300159 55.807619 
L 236.189841 55.807619 
L 242.079524 57.926523 
L 247.969206 62.125728 
L 253.858889 68.329202 
L 259.748571 76.425768 
L 265.638254 86.272422 
L 271.527937 97.698531 
L 277.417619 110.510746 
L 283.307302 124.498432 
L 289.196984 139.439398 
L 295.086667 155.105723 
L 300.976349 171.269445 
L 306.866032 187.707943 
L 312.755714 204.20882 
L 318.645397 220.574165 
L 324.535079 236.624069 
L 330.424762 252.199348 
L 336.314444 267.163431 
L 342.204127 281.403419 
L 348.09381 294.830365 
L 353.983492 307.378837 
L 359.873175 319.005845 
L 365.762857 329.689252 
L 371.65254 339.425777 
L 377.542222 348.228703 
L 383.431905 356.125412 
L 389.321587 363.154847 
L 395.21127 369.365001 
L 401.100952 374.810514 
L 406.990635 379.55044 
L 412.880317 383.646235 
L 418.77 387.16 
" style="fill:none;stroke:#0072bd;stroke-linecap:square;stroke-width:1.4;"/>
    <defs>
     <path d="M 0 1.5 
C 0.397805 1.5 0.77937 1.341951 1.06066 1.06066 
C 1.341951 0.77937 1.5 0.397805 1.5 0 
C 1.5 -0.397805 1.341951 -0.77937 1.06066 -1.06066 
C 0.77937 -1.341951 0.397805 -1.5 0 -1.5 
C -0.397805 -1.5 -0.77937 -1.341951 -1.06066 -1.06066 
C -1.341951 -0.77937 -1.5 -0.397805 -1.5 0 
C -1.5 0.397805 -1.341951 0.77937 -1.06066 1.06066 
C -0.77937 1.341951 -0.397805 1.5 0 1.5 
z
" id="me883282928" style="stroke:#0072bd;"/>
    </defs>
    <g clip-path="url(#pddfd66ca8f)">
     <use style="fill:#0072bd;stroke:#0072bd;" x="47.72" xlink:href="#me883282928" y="387.16"/>
     <use style="fill:#0072bd;stroke:#0072bd;" x="53.609683" xlink:href="#me883282928" y="383.646235"/>
     <use style="fill:#0072bd;stroke:#0072bd;" x="59.499365" xlink:href="#me883282928" y="379.55044"/>
     <use style="fill:#0072bd;stroke:#0072bd;" x="65.389048" xlink:href="#me883282928" y="374.810514"/>
     <use style="fill:#0072bd;stroke:#0072bd;" x="71.27873" xlink:href="#me883282928" y="369.365001"/>
     <use style="fill:#0072bd;stroke:#0072bd;" x="77.168413" xlink:href="#me883282928" y="363.154847"/>
     <use style="fill:#0072bd;stroke:#0072bd;" x="83.058095" xlink:href="#me883282928" y="356.125412"/>
     <use style="fill:#0072bd;stroke:#0072bd;" x="88.947778" xlink:href="#me883282928" y="348.228703"/>
     <use style="fill:#0072bd;stroke:#0072bd;" x="94.83746" xlink:href="#me883282928" y="339.425777"/>
     <use style="fill:#0072bd;stroke:#0072bd;" x="100.727143" xlink:href="#me883282928" y="329.689252"/>
     <use style="fill:#0072bd;stroke:#0072bd;" x="106.616825" xlink:href="#me883282928" y="319.005845"/>
     <use style="fill:#0072bd;stroke:#0072bd;" x="112.506508" xlink:href="#me883282928" y="307.378837"/>
     <use style="fill:#0072bd;stroke:#0072bd;" x="118.39619" xlink:href="#me883282928" y="294.830365"/>
     <use style="fill:#0072bd;stroke:#0072bd;" x="124.285873" xlink:href="#me883282928" y="281.403419"/>
     <use style="fill:#0072bd;stroke:#0072bd;" x="130.175556" xlink:href="#me883282928" y="267.163431"/>
     <use style="fill:#0072bd;stroke:#0072bd;" x="136.065238" xlink:href="#me883282928" y="252.199348"/>
     <use style="fill:#0072bd;stroke:#0072bd;" x="141.954921" xlink:href="#me883282928" y="236.624069"/>
     <use style="fill:#0072bd;stroke:#0072bd;" x="147.844603" xlink:href="#me883282928" y="220.574165"/>
     <use style="fill:#0072bd;stroke:#0072bd;" x="153.734286" xlink:href="#me883282928" y="204.20882"/>
     <use style="fill:#0072bd;stroke:#0072bd;" x="159.623968" xlink:href="#me883282928" y="187.707943"/>
     <use style="fill:#0072bd;stroke:#0072bd;" x="165.513651" xlink:href="#me883282928" y="171.269445"/>
     <use style="fill:#0072bd;stroke:#0072bd;" x="171.403333" xlink:href="#me883282928" y="155.105723"/>
     <use style="fill:#0072bd;stroke:#0072bd;" x="177.293016" xlink:href="#me883282928" y="139.439398"/>
     <use style="fill:#0072bd;stroke:#0072bd;" x="183.182698" xlink:href="#me883282928" y="124.498432"/>
     <use style="fill:#0072bd;stroke:#0072bd;" x="189.072381" xlink:href="#me883282928" y="110.510746"/>
     <use style="fill:#0072bd;stroke:#0072bd;" x="194.962063" xlink:href="#me883282928" y="97.698531"/>
     <use style="fill:#0072bd;stroke:#0072bd;" x="200.851746" xlink:href="#me883282928" y="86.272422"/>
     <use style="fill:#0072bd;stroke:#0072bd;" x="206.741429" xlink:href="#me883282928" y="76.425768"/>
     <use style="fill:#0072bd;stroke:#0072bd;" x="212.631111" xlink:href="#me883282928" y="68.329202"/>
     <use style="fill:#0072bd;stroke:#0072bd;" x="218.520794" xlink:href="#me883282928" y="62.125728"/>
     <use style="fill:#0072bd;stroke:#0072bd;" x="224.410476" xlink:href="#me883282928" y="57.926523"/>
     <use style="fill:#0072bd;stroke:#0072bd;" x="230.300159" xlink:href="#me883282928" y="55.807619"/>
     <use style="fill:#0072bd;stroke:#0072bd;" x="236.189841" xlink:href="#me883282928" y="55.807619"/>
     <use style="fill:#0072bd;stroke:#0072bd;" x="242.079524" xlink:href="#me883282928" y="57.926523"/>
     <use style="fill:#0072bd;stroke:#0072bd;" x="247.969206" xlink:href="#me883282928" y="62.125728"/>
     <use style="fill:#0072bd;stroke:#0072bd;" x="253.858889" xlink:href="#me883282928" y="68.329202"/>
     <use style="fill:#0072bd;stroke:#0072bd;" x="259.748571" xlink:href="#me883282928" y="76.425768"/>
     <use style="fill:#0072bd;stroke:#0072bd;" x="265.638254" xlink:href="#me883282928" y="86.272422"/>
     <use style="fill:#0072bd;stroke:#0072bd;" x="271.527937" xlink:href="#me883282928" y="97.698531"/>
     <use style="fill:#0072bd;stroke:#0072bd;" x="277.417619" xlink:href="#me883282928" y="110.510746"/>
     <use style="fill:#0072bd;stroke:#0072bd;" x="283.307302" xlink:href="#me883282928" y="124.498432"/>
     <use style="fill:#0072bd;stroke:#0072bd;" x="289.196984" xlink:href="#me883282928" y="139.439398"/>
     <use style="fill:#0072bd;stroke:#0072bd;" x="295.086667" xlink:href="#me883282928" y="155.105723"/>
     <use style="fill:#0072bd;stroke:#0072bd;" x="300.976349" xlink:href="#me883282928" y="171.269445"/>
     <use style="fill:#0072bd;stroke:#0072bd;" x="306.866032" xlink:href="#me883282928" y="187.707943"/>
     <use style="fill:#0072bd;stroke:#0072bd;" x="312.755714" xlink:href="#me883282928" y="204.20882"/>
     <use style="fill:#0072bd;stroke:#0072bd;" x="318.645397" xlink:href="#me883282928" y="220.574165"/>
     <use style="fill:#0072bd;stroke:#0072bd;" x="324.535079" xlink:href="#me883282928" y="236.624069"/>
     <use style="fill:#0072bd;stroke:#0072bd;" x="330.424762" xlink:href="#me883282928" y="252.199348"/>
     <use style="fill:#0072bd;stroke:#0072bd;" x="336.314444" xlink:href="#me883282928" y="267.163431"/>
     <use style="fill:#0072bd;stroke:#0072bd;" x="342.204127" xlink:href="#me883282928" y="281.403419"/>
     <use style="fill:#0072bd;stroke:#0072bd;" x="348.09381" xlink:href="#me883282928" y="294.830365"/>
     <use style="fill:#0072bd;stroke:#0072bd;" x="353.983492" xlink:href="#me883282928" y="307.378837"/>
     <use style="fill:#0072bd;stroke:#0072bd;" x="359.873175" xlink:href="#me883282928" y="319.005845"/>
     <use style="fill:#0072bd;stroke:#0072bd;" x="365.762857" xlink:href="#me883282928" y="329.689252"/>
     <use style="fill:#0072bd;stroke:#0072bd;" x="371.65254" xlink:href="#me883282928" y="339.425777"/>
     <use style="fill:#0072bd;stroke:#0072bd;" x="377.542222" xlink:href="#me883282928" y="348.228703"/>
     <use style="fill:#0072bd;stroke:#0072bd;" x="383.431905" xlink:href="#me883282928" y="356.125412"/>
     <use style="fill:#0072bd;stroke:#0072bd;" x="389.321587" xlink:href="#me883282928" y="363.154847"/>
     <use style="fill:#0072bd;stroke:#0072bd;" x="395.21127" xlink:href="#me883282928" y="369.365001"/>
     <use style="fill:#0072bd;stroke:#0072bd;" x="401.100952" xlink:href="#me883282928" y="374.810514"/>
     <use style="fill:#0072bd;stroke:#0072bd;" x="406.990635" xlink:href="#me883282928" y="379.55044"/>
     <use style="fill:#0072bd;stroke:#0072bd;" x="412.880317" xlink:href="#me883282928" y="383.646235"/>
     <use style="fill:#0072bd;stroke:#0072bd;" x="418.77" xlink:href="#me883282928" y="387.16"/>
    </g>
   </g>
   <g id="patch_3">
    <path d="M 47.72 387.16 
L 47.72 39.24 
" style="fill:none;stroke:#000000;stroke-linecap:square;stroke-linejoin:miter;stroke-width:0.8;"/>
   </g>
   <g id="patch_4">
    <path d="M 418.77 387.16 
L 418.77 39.24 
" style="fill:none;stroke:#000000;stroke-linecap:square;stroke-linejoin:miter;stroke-width:0.8;"/>
   </g>
   <g id="patch_5">
    <path d="M 47.72 387.16 
L 418.77 387.16 
" style="fill:none;stroke:#000000;stroke-linecap:square;stroke-linejoin:miter;stroke-width:0.8;"/>
   </g>
   <g id="patch_6">
    <path d="M 47.72 39.24 
L 418.77 39.24 
" style="fill:none;stroke:#000000;stroke-linecap:square;stroke-linejoin:miter;stroke-width:0.8;"/>
   </g>
  </g>
  <g id="axes_2">
   <g id="patch_7">
    <path d="M 474.23 387.16 
L 845.28 387.16 
L 845.28 39.24 
L 474.23 39.24 
z
" style="fill:#ffffff;"/>
   </g>
   <g id="matplotlib.axis_3">
    <g id="xtick_8">
     <g id="line2d_26">
      <path clip-path="url(#p75d7c8ff62)" d="M 474.23 387.16 
L 474.23 39.24 
" style="fill:none;stroke:#777777;stroke-linecap:square;stroke-width:0.8;"/>
     </g>
     <g id="line2d_27">
      <g>
       <use style="stroke:#000000;stroke-width:0.8;" x="474.23" xlink:href="#mb2dcc9b6ff" y="387.16"/>
      </g>
     </g>
     <g id="text_15">
      <!-- 0.0 -->
      <g transform="translate(466.278437 401.758438)scale(0.1 -0.1)">
       <use xlink:href="#DejaVuSans-48"/>
       <use x="63.623047" xlink:href="#DejaVuSans-46"/>
       <use x="95.410156" xlink:href="#DejaVuSans-48"/>
      </g>
     </g>
    </g>
    <g id="xtick_9">
     <g id="line2d_28">
      <path clip-path="url(#p75d7c8ff62)" d="M 548.44 387.16 
L 548.44 39.24 
" style="fill:none;stroke:#777777;stroke-linecap:square;stroke-width:0.8;"/>
     </g>
     <g id="line2d_29">
      <g>
       <use style="stroke:#000000;stroke-width:0.8;" x="548.44" xlink:href="#mb2dcc9b6ff" y="387.16"/>
      </g>
     </g>
     <g id="text_16">
      <!-- 0.2 -->
      <g transform="translate(540.488437 401.758438)scale(0.1 -0.1)">
       <use xlink:href="#DejaVuSans-48"/>
       <use x="63.623047" xlink:href="#DejaVuSans-46"/>
       <use x="95.410156" xlink:href="#DejaVuSans-50"/>
      </g>
     </g>
    </g>
    <g id="xtick_10">
     <g id="line2d_30">
      <path clip-path="url(#p75d7c8ff62)" d="M 622.65 387.16 
L 622.65 39.24 
" style="fill:none;stroke:#777777;stroke-linecap:square;stroke-width:0.8;"/>
     </g>
     <g id="line2d_31">
      <g>
       <use style="stroke:#000000;stroke-width:0.8;" x="622.65" xlink:href="#mb2dcc9b6ff" y="387.16"/>
      </g>
     </g>
     <g id="text_17">
      <!-- 0.4 -->
      <g transform="translate(614.698437 401.758438)scale(0.1 -0.1)">
       <use xlink:href="#DejaVuSans-48"/>
       <use x="63.623047" xlink:href="#DejaVuSans-46"/>
       <use x="95.410156" xlink:href="#DejaVuSans-52"/>
      </g>
     </g>
    </g>
    <g id="xtick_11">
     <g id="line2d_32">
      <path clip-path="url(#p75d7c8ff62)" d="M 696.86 387.16 
L 696.86 39.24 
" style="fill:none;stroke:#777777;stroke-linecap:square;stroke-width:0.8;"/>
     </g>
     <g id="line2d_33">
      <g>
       <use style="stroke:#000000;stroke-width:0.8;" x="696.86" xlink:href="#mb2dcc9b6ff" y="387.16"/>
      </g>
     </g>
     <g id="text_18">
      <!-- 0.6 -->
      <g transform="translate(688.908437 401.758438)scale(0.1 -0.1)">
       <use xlink:href="#DejaVuSans-48"/>
       <use x="63.623047" xlink:href="#DejaVuSans-46"/>
       <use x="95.410156" xlink:href="#DejaVuSans-54"/>
      </g>
     </g>
    </g>
    <g id="xtick_12">
     <g id="line2d_34">
      <path clip-path="url(#p75d7c8ff62)" d="M 771.07 387.16 
L 771.07 39.24 
" style="fill:none;stroke:#777777;stroke-linecap:square;stroke-width:0.8;"/>
     </g>
     <g id="line2d_35">
      <g>
       <use style="stroke:#000000;stroke-width:0.8;" x="771.07" xlink:href="#mb2dcc9b6ff" y="387.16"/>
      </g>
     </g>
     <g id="text_19">
      <!-- 0.8 -->
      <g transform="translate(763.118437 401.758438)scale(0.1 -0.1)">
       <use xlink:href="#DejaVuSans-48"/>
       <use x="63.623047" xlink:href="#DejaVuSans-46"/>
       <use x="95.410156" xlink:href="#DejaVuSans-56"/>
      </g>
     </g>
    </g>
    <g id="xtick_13">
     <g id="line2d_36">
      <path clip-path="url(#p75d7c8ff62)" d="M 845.28 387.16 
L 845.28 39.24 
" style="fill:none;stroke:#777777;stroke-linecap:square;stroke-width:0.8;"/>
     </g>
     <g id="line2d_37">
      <g>
       <use style="stroke:#000000;stroke-width:0.8;" x="845.28" xlink:href="#mb2dcc9b6ff" y="387.16"/>
      </g>
     </g>
     <g id="text_20">
      <!-- 1.0 -->
      <g transform="translate(837.328437 401.758438)scale(0.1 -0.1)">
       <use xlink:href="#DejaVuSans-49"/>
       <use x="63.623047" xlink:href="#DejaVuSans-46"/>
       <use x="95.410156" xlink:href="#DejaVuSans-48"/>
      </g>
     </g>
    </g>
    <g id="text_21">
     <!-- Normalized Frequency ($\times \pi$ rad/sample) -->
     <defs>
      <path d="M 9.8125 72.90625 
L 23.09375 72.90625 
L 55.421875 11.921875 
L 55.421875 72.90625 
L 64.984375 72.90625 
L 64.984375 0 
L 51.703125 0 
L 19.390625 60.984375 
L 19.390625 0 
L 9.8125 0 
z
" id="DejaVuSans-78"/>
      <path d="M 30.609375 48.390625 
Q 23.390625 48.390625 19.1875 42.75 
Q 14.984375 37.109375 14.984375 27.296875 
Q 14.984375 17.484375 19.15625 11.84375 
Q 23.34375 6.203125 30.609375 6.203125 
Q 37.796875 6.203125 41.984375 11.859375 
Q 46.1875 17.53125 46.1875 27.296875 
Q 46.1875 37.015625 41.984375 42.703125 
Q 37.796875 48.390625 30.609375 48.390625 
z
M 30.609375 56 
Q 42.328125 56 49.015625 48.375 
Q 55.71875 40.765625 55.71875 27.296875 
Q 55.71875 13.875 49.015625 6.21875 
Q 42.328125 -1.421875 30.609375 -1.421875 
Q 18.84375 -1.421875 12.171875 6.21875 
Q 5.515625 13.875 5.515625 27.296875 
Q 5.515625 40.765625 12.171875 48.375 
Q 18.84375 56 30.609375 56 
z
" id="DejaVuSans-111"/>
      <path d="M 41.109375 46.296875 
Q 39.59375 47.171875 37.8125 47.578125 
Q 36.03125 48 33.890625 48 
Q 26.265625 48 22.1875 43.046875 
Q 18.109375 38.09375 18.109375 28.8125 
L 18.109375 0 
L 9.078125 0 
L 9.078125 54.6875 
L 18.109375 54.6875 
L 18.109375 46.1875 
Q 20.953125 51.171875 25.484375 53.578125 
Q 30.03125 56 36.53125 56 
Q 37.453125 56 38.578125 55.875 
Q 39.703125 55.765625 41.0625 55.515625 
z
" id="DejaVuSans-114"/>
      <path d="M 5.515625 54.6875 
L 48.1875 54.6875 
L 48.1875 46.484375 
L 14.40625 7.171875 
L 48.1875 7.171875 
L 48.1875 0 
L 4.296875 0 
L 4.296875 8.203125 
L 38.09375 47.515625 
L 5.515625 47.515625 
z
" id="DejaVuSans-122"/>
      <path id="DejaVuSans-32"/>
      <path d="M 9.8125 72.90625 
L 51.703125 72.90625 
L 51.703125 64.59375 
L 19.671875 64.59375 
L 19.671875 43.109375 
L 48.578125 43.109375 
L 48.578125 34.8125 
L 19.671875 34.8125 
L 19.671875 0 
L 9.8125 0 
z
" id="DejaVuSans-70"/>
      <path d="M 14.796875 27.296875 
Q 14.796875 17.390625 18.875 11.75 
Q 22.953125 6.109375 30.078125 6.109375 
Q 37.203125 6.109375 41.296875 11.75 
Q 45.40625 17.390625 45.40625 27.296875 
Q 45.40625 37.203125 41.296875 42.84375 
Q 37.203125 48.484375 30.078125 48.484375 
Q 22.953125 48.484375 18.875 42.84375 
Q 14.796875 37.203125 14.796875 27.296875 
z
M 45.40625 8.203125 
Q 42.578125 3.328125 38.25 0.953125 
Q 33.9375 -1.421875 27.875 -1.421875 
Q 17.96875 -1.421875 11.734375 6.484375 
Q 5.515625 14.40625 5.515625 27.296875 
Q 5.515625 40.1875 11.734375 48.09375 
Q 17.96875 56 27.875 56 
Q 33.9375 56 38.25 53.625 
Q 42.578125 51.265625 45.40625 46.390625 
L 45.40625 54.6875 
L 54.390625 54.6875 
L 54.390625 -20.796875 
L 45.40625 -20.796875 
z
" id="DejaVuSans-113"/>
      <path d="M 54.890625 33.015625 
L 54.890625 0 
L 45.90625 0 
L 45.90625 32.71875 
Q 45.90625 40.484375 42.875 44.328125 
Q 39.84375 48.1875 33.796875 48.1875 
Q 26.515625 48.1875 22.3125 43.546875 
Q 18.109375 38.921875 18.109375 30.90625 
L 18.109375 0 
L 9.078125 0 
L 9.078125 54.6875 
L 18.109375 54.6875 
L 18.109375 46.1875 
Q 21.34375 51.125 25.703125 53.5625 
Q 30.078125 56 35.796875 56 
Q 45.21875 56 50.046875 50.171875 
Q 54.890625 44.34375 54.890625 33.015625 
z
" id="DejaVuSans-110"/>
      <path d="M 48.78125 52.59375 
L 48.78125 44.1875 
Q 44.96875 46.296875 41.140625 47.34375 
Q 37.3125 48.390625 33.40625 48.390625 
Q 24.65625 48.390625 19.8125 42.84375 
Q 14.984375 37.3125 14.984375 27.296875 
Q 14.984375 17.28125 19.8125 11.734375 
Q 24.65625 6.203125 33.40625 6.203125 
Q 37.3125 6.203125 41.140625 7.25 
Q 44.96875 8.296875 48.78125 10.40625 
L 48.78125 2.09375 
Q 45.015625 0.34375 40.984375 -0.53125 
Q 36.96875 -1.421875 32.421875 -1.421875 
Q 20.0625 -1.421875 12.78125 6.34375 
Q 5.515625 14.109375 5.515625 27.296875 
Q 5.515625 40.671875 12.859375 48.328125 
Q 20.21875 56 33.015625 56 
Q 37.15625 56 41.109375 55.140625 
Q 45.0625 54.296875 48.78125 52.59375 
z
" id="DejaVuSans-99"/>
      <path d="M 32.171875 -5.078125 
Q 28.375 -14.84375 24.75 -17.8125 
Q 21.140625 -20.796875 15.09375 -20.796875 
L 7.90625 -20.796875 
L 7.90625 -13.28125 
L 13.1875 -13.28125 
Q 16.890625 -13.28125 18.9375 -11.515625 
Q 21 -9.765625 23.484375 -3.21875 
L 25.09375 0.875 
L 2.984375 54.6875 
L 12.5 54.6875 
L 29.59375 11.921875 
L 46.6875 54.6875 
L 56.203125 54.6875 
z
" id="DejaVuSans-121"/>
      <path d="M 31 75.875 
Q 24.46875 64.65625 21.28125 53.65625 
Q 18.109375 42.671875 18.109375 31.390625 
Q 18.109375 20.125 21.3125 9.0625 
Q 24.515625 -2 31 -13.1875 
L 23.1875 -13.1875 
Q 15.875 -1.703125 12.234375 9.375 
Q 8.59375 20.453125 8.59375 31.390625 
Q 8.59375 42.28125 12.203125 53.3125 
Q 15.828125 64.359375 23.1875 75.875 
z
" id="DejaVuSans-40"/>
      <path d="M 70.125 53.71875 
L 47.796875 31.296875 
L 70.125 8.984375 
L 64.3125 3.078125 
L 41.890625 25.484375 
L 19.484375 3.078125 
L 13.71875 8.984375 
L 35.984375 31.296875 
L 13.71875 53.71875 
L 19.484375 59.625 
L 41.890625 37.203125 
L 64.3125 59.625 
z
" id="DejaVuSans-215"/>
      <path d="M 9.125 54.6875 
L 61.53125 54.6875 
L 59.765625 45.703125 
L 52.875 45.703125 
L 46.34375 12.109375 
Q 45.65625 8.59375 46.578125 7.03125 
Q 47.46875 5.515625 50.140625 5.515625 
Q 50.875 5.515625 51.953125 5.671875 
Q 53.078125 5.765625 53.421875 5.8125 
L 52.15625 -0.6875 
Q 50.34375 -1.3125 48.484375 -1.609375 
Q 46.578125 -1.90625 44.78125 -1.90625 
Q 38.921875 -1.90625 37.3125 1.265625 
Q 35.6875 4.5 37.359375 13.09375 
L 43.703125 45.703125 
L 23.53125 45.703125 
L 14.65625 0 
L 5.46875 0 
L 14.359375 45.703125 
L 7.375 45.703125 
z
" id="DejaVuSans-Oblique-960"/>
      <path d="M 25.390625 72.90625 
L 33.6875 72.90625 
L 8.296875 -9.28125 
L 0 -9.28125 
z
" id="DejaVuSans-47"/>
      <path d="M 8.015625 75.875 
L 15.828125 75.875 
Q 23.140625 64.359375 26.78125 53.3125 
Q 30.421875 42.28125 30.421875 31.390625 
Q 30.421875 20.453125 26.78125 9.375 
Q 23.140625 -1.703125 15.828125 -13.1875 
L 8.015625 -13.1875 
Q 14.5 -2 17.703125 9.0625 
Q 20.90625 20.125 20.90625 31.390625 
Q 20.90625 42.671875 17.703125 53.65625 
Q 14.5 64.65625 8.015625 75.875 
z
" id="DejaVuSans-41"/>
     </defs>
     <g transform="translate(560.955 415.438125)scale(0.1 -0.1)">
      <use transform="translate(0 0.015625)" xlink:href="#DejaVuSans-78"/>
      <use transform="translate(74.804688 0.015625)" xlink:href="#DejaVuSans-111"/>
      <use transform="translate(135.986328 0.015625)" xlink:href="#DejaVuSans-114"/>
      <use transform="translate(177.099609 0.015625)" xlink:href="#DejaVuSans-109"/>
      <use transform="translate(274.511719 0.015625)" xlink:href="#DejaVuSans-97"/>
      <use transform="translate(335.791016 0.015625)" xlink:href="#DejaVuSans-108"/>
      <use transform="translate(363.574219 0.015625)" xlink:href="#DejaVuSans-105"/>
      <use transform="translate(391.357422 0.015625)" xlink:href="#DejaVuSans-122"/>
      <use transform="translate(443.847656 0.015625)" xlink:href="#DejaVuSans-101"/>
      <use transform="translate(505.371094 0.015625)" xlink:href="#DejaVuSans-100"/>
      <use transform="translate(568.847656 0.015625)" xlink:href="#DejaVuSans-32"/>
      <use transform="translate(600.634766 0.015625)" xlink:href="#DejaVuSans-70"/>
      <use transform="translate(658.154297 0.015625)" xlink:href="#DejaVuSans-114"/>
      <use transform="translate(699.267578 0.015625)" xlink:href="#DejaVuSans-101"/>
      <use transform="translate(760.791016 0.015625)" xlink:href="#DejaVuSans-113"/>
      <use transform="translate(824.267578 0.015625)" xlink:href="#DejaVuSans-117"/>
      <use transform="translate(887.646484 0.015625)" xlink:href="#DejaVuSans-101"/>
      <use transform="translate(949.169922 0.015625)" xlink:href="#DejaVuSans-110"/>
      <use transform="translate(1012.548828 0.015625)" xlink:href="#DejaVuSans-99"/>
      <use transform="translate(1067.529297 0.015625)" xlink:href="#DejaVuSans-121"/>
      <use transform="translate(1126.708984 0.015625)" xlink:href="#DejaVuSans-32"/>
      <use transform="translate(1158.496094 0.015625)" xlink:href="#DejaVuSans-40"/>
      <use transform="translate(1197.509766 0.015625)" xlink:href="#DejaVuSans-215"/>
      <use transform="translate(1281.298828 0.015625)" xlink:href="#DejaVuSans-Oblique-960"/>
      <use transform="translate(1341.503906 0.015625)" xlink:href="#DejaVuSans-32"/>
      <use transform="translate(1373.291016 0.015625)" xlink:href="#DejaVuSans-114"/>
      <use transform="translate(1414.404297 0.015625)" xlink:href="#DejaVuSans-97"/>
      <use transform="translate(1475.683594 0.015625)" xlink:href="#DejaVuSans-100"/>
      <use transform="translate(1539.160156 0.015625)" xlink:href="#DejaVuSans-47"/>
      <use transform="translate(1572.851562 0.015625)" xlink:href="#DejaVuSans-115"/>
      <use transform="translate(1624.951172 0.015625)" xlink:href="#DejaVuSans-97"/>
      <use transform="translate(1686.230469 0.015625)" xlink:href="#DejaVuSans-109"/>
      <use transform="translate(1783.642578 0.015625)" xlink:href="#DejaVuSans-112"/>
      <use transform="translate(1847.119141 0.015625)" xlink:href="#DejaVuSans-108"/>
      <use transform="translate(1874.902344 0.015625)" xlink:href="#DejaVuSans-101"/>
      <use transform="translate(1936.425781 0.015625)" xlink:href="#DejaVuSans-41"/>
     </g>
    </g>
   </g>
   <g id="matplotlib.axis_4">
    <g id="ytick_6">
     <g id="line2d_38">
      <path clip-path="url(#p75d7c8ff62)" d="M 474.23 329.967768 
L 845.28 329.967768 
" style="fill:none;stroke:#777777;stroke-linecap:square;stroke-width:0.8;"/>
     </g>
     <g id="line2d_39">
      <g>
       <use style="stroke:#000000;stroke-width:0.8;" x="474.23" xlink:href="#m699151275d" y="329.967768"/>
      </g>
     </g>
     <g id="text_22">
      <!-- −60 -->
      <defs>
       <path d="M 10.59375 35.5 
L 73.1875 35.5 
L 73.1875 27.203125 
L 10.59375 27.203125 
z
" id="DejaVuSans-8722"/>
      </defs>
      <g transform="translate(446.125312 333.766987)scale(0.1 -0.1)">
       <use xlink:href="#DejaVuSans-8722"/>
       <use x="83.789062" xlink:href="#DejaVuSans-54"/>
       <use x="147.412109" xlink:href="#DejaVuSans-48"/>
      </g>
     </g>
    </g>
    <g id="ytick_7">
     <g id="line2d_40">
      <path clip-path="url(#p75d7c8ff62)" d="M 474.23 268.887917 
L 845.28 268.887917 
" style="fill:none;stroke:#777777;stroke-linecap:square;stroke-width:0.8;"/>
     </g>
     <g id="line2d_41">
      <g>
       <use style="stroke:#000000;stroke-width:0.8;" x="474.23" xlink:href="#m699151275d" y="268.887917"/>
      </g>
     </g>
     <g id="text_23">
      <!-- −40 -->
      <g transform="translate(446.125312 272.687135)scale(0.1 -0.1)">
       <use xlink:href="#DejaVuSans-8722"/>
       <use x="83.789062" xlink:href="#DejaVuSans-52"/>
       <use x="147.412109" xlink:href="#DejaVuSans-48"/>
      </g>
     </g>
    </g>
    <g id="ytick_8">
     <g id="line2d_42">
      <path clip-path="url(#p75d7c8ff62)" d="M 474.23 207.808065 
L 845.28 207.808065 
" style="fill:none;stroke:#777777;stroke-linecap:square;stroke-width:0.8;"/>
     </g>
     <g id="line2d_43">
      <g>
       <use style="stroke:#000000;stroke-width:0.8;" x="474.23" xlink:href="#m699151275d" y="207.808065"/>
      </g>
     </g>
     <g id="text_24">
      <!-- −20 -->
      <g transform="translate(446.125312 211.607283)scale(0.1 -0.1)">
       <use xlink:href="#DejaVuSans-8722"/>
       <use x="83.789062" xlink:href="#DejaVuSans-50"/>
       <use x="147.412109" xlink:href="#DejaVuSans-48"/>
      </g>
     </g>
    </g>
    <g id="ytick_9">
     <g id="line2d_44">
      <path clip-path="url(#p75d7c8ff62)" d="M 474.23 146.728213 
L 845.28 146.728213 
" style="fill:none;stroke:#777777;stroke-linecap:square;stroke-width:0.8;"/>
     </g>
     <g id="line2d_45">
      <g>
       <use style="stroke:#000000;stroke-width:0.8;" x="474.23" xlink:href="#m699151275d" y="146.728213"/>
      </g>
     </g>
     <g id="text_25">
      <!-- 0 -->
      <g transform="translate(460.8675 150.527432)scale(0.1 -0.1)">
       <use xlink:href="#DejaVuSans-48"/>
      </g>
     </g>
    </g>
    <g id="ytick_10">
     <g id="line2d_46">
      <path clip-path="url(#p75d7c8ff62)" d="M 474.23 85.648361 
L 845.28 85.648361 
" style="fill:none;stroke:#777777;stroke-linecap:square;stroke-width:0.8;"/>
     </g>
     <g id="line2d_47">
      <g>
       <use style="stroke:#000000;stroke-width:0.8;" x="474.23" xlink:href="#m699151275d" y="85.648361"/>
      </g>
     </g>
     <g id="text_26">
      <!-- 20 -->
      <g transform="translate(454.505 89.44758)scale(0.1 -0.1)">
       <use xlink:href="#DejaVuSans-50"/>
       <use x="63.623047" xlink:href="#DejaVuSans-48"/>
      </g>
     </g>
    </g>
    <g id="text_27">
     <!-- Gain (dB) -->
     <defs>
      <path d="M 59.515625 10.40625 
L 59.515625 29.984375 
L 43.40625 29.984375 
L 43.40625 38.09375 
L 69.28125 38.09375 
L 69.28125 6.78125 
Q 63.578125 2.734375 56.6875 0.65625 
Q 49.8125 -1.421875 42 -1.421875 
Q 24.90625 -1.421875 15.25 8.5625 
Q 5.609375 18.5625 5.609375 36.375 
Q 5.609375 54.25 15.25 64.234375 
Q 24.90625 74.21875 42 74.21875 
Q 49.125 74.21875 55.546875 72.453125 
Q 61.96875 70.703125 67.390625 67.28125 
L 67.390625 56.78125 
Q 61.921875 61.421875 55.765625 63.765625 
Q 49.609375 66.109375 42.828125 66.109375 
Q 29.4375 66.109375 22.71875 58.640625 
Q 16.015625 51.171875 16.015625 36.375 
Q 16.015625 21.625 22.71875 14.15625 
Q 29.4375 6.6875 42.828125 6.6875 
Q 48.046875 6.6875 52.140625 7.59375 
Q 56.25 8.5 59.515625 10.40625 
z
" id="DejaVuSans-71"/>
      <path d="M 19.671875 34.8125 
L 19.671875 8.109375 
L 35.5 8.109375 
Q 43.453125 8.109375 47.28125 11.40625 
Q 51.125 14.703125 51.125 21.484375 
Q 51.125 28.328125 47.28125 31.5625 
Q 43.453125 34.8125 35.5 34.8125 
z
M 19.671875 64.796875 
L 19.671875 42.828125 
L 34.28125 42.828125 
Q 41.5 42.828125 45.03125 45.53125 
Q 48.578125 48.25 48.578125 53.8125 
Q 48.578125 59.328125 45.03125 62.0625 
Q 41.5 64.796875 34.28125 64.796875 
z
M 9.8125 72.90625 
L 35.015625 72.90625 
Q 46.296875 72.90625 52.390625 68.21875 
Q 58.5 63.53125 58.5 54.890625 
Q 58.5 48.1875 55.375 44.234375 
Q 52.25 40.28125 46.1875 39.3125 
Q 53.46875 37.75 57.5 32.78125 
Q 61.53125 27.828125 61.53125 20.40625 
Q 61.53125 10.640625 54.890625 5.3125 
Q 48.25 0 35.984375 0 
L 9.8125 0 
z
" id="DejaVuSans-66"/>
     </defs>
     <g transform="translate(440.045625 236.791406)rotate(-90)scale(0.1 -0.1)">
      <use xlink:href="#DejaVuSans-71"/>
      <use x="77.490234" xlink:href="#DejaVuSans-97"/>
      <use x="138.769531" xlink:href="#DejaVuSans-105"/>
      <use x="166.552734" xlink:href="#DejaVuSans-110"/>
      <use x="229.931641" xlink:href="#DejaVuSans-32"/>
      <use x="261.71875" xlink:href="#DejaVuSans-40"/>
      <use x="300.732422" xlink:href="#DejaVuSans-100"/>
      <use x="364.208984" xlink:href="#DejaVuSans-66"/>
      <use x="432.8125" xlink:href="#DejaVuSans-41"/>
     </g>
    </g>
   </g>
   <g id="line2d_48">
    <path clip-path="url(#p75d7c8ff62)" d="M 474.23 55.054545 
L 474.954707 55.129119 
L 475.679414 55.352998 
L 476.404121 55.726655 
L 477.128828 56.250886 
L 477.853535 56.926809 
L 479.302949 58.73988 
L 480.752363 61.181651 
L 482.201777 64.273782 
L 483.651191 68.044272 
L 485.100605 72.527927 
L 486.55002 77.766606 
L 487.999434 83.808767 
L 489.448848 90.707269 
L 490.898262 98.51311 
L 492.347676 107.260157 
L 494.521797 122.075866 
L 498.870039 153.291572 
L 499.594746 157.388418 
L 500.319453 160.806501 
L 501.04416 163.517918 
L 501.768867 165.590923 
L 502.493574 167.17564 
L 504.667695 171.025004 
L 505.392402 172.672911 
L 506.117109 174.806865 
L 506.841816 177.613317 
L 507.566523 181.320057 
L 508.29123 186.255384 
L 509.015937 192.979255 
L 509.740645 202.653809 
L 510.465352 218.566647 
L 511.190059 263.314621 
L 511.914766 232.333394 
L 512.639473 211.324891 
L 513.36418 200.895231 
L 514.088887 194.550598 
L 514.813594 190.548833 
L 515.538301 188.186374 
L 516.263008 187.134884 
L 516.987715 187.247917 
L 517.712422 188.495662 
L 518.437129 190.952904 
L 519.161836 194.828735 
L 519.886543 200.567339 
L 520.61125 209.152703 
L 521.335957 223.309148 
L 522.060664 257.894546 
L 522.785371 244.485182 
L 523.510078 219.933237 
L 524.234785 208.334721 
L 524.959492 201.270741 
L 525.684199 196.706715 
L 526.408906 193.844783 
L 527.133613 192.31082 
L 527.85832 191.926437 
L 528.583027 192.63005 
L 529.307734 194.453906 
L 530.032441 197.536056 
L 530.757148 202.177888 
L 531.481855 209.008733 
L 532.206562 219.523092 
L 532.93127 238.760802 
L 533.655977 305.059497 
L 534.380684 235.333827 
L 535.105391 218.752947 
L 535.830098 209.540133 
L 536.554805 203.672591 
L 537.279512 199.858402 
L 538.004219 197.535639 
L 538.728926 196.431813 
L 539.453633 196.423447 
L 540.17834 197.486714 
L 540.903047 199.688948 
L 541.627754 203.213721 
L 542.352461 208.44222 
L 543.077168 216.187349 
L 543.801875 228.533904 
L 544.526582 254.27632 
L 545.251289 265.778072 
L 545.975996 232.876155 
L 546.700703 219.457096 
L 547.42541 211.486049 
L 548.150117 206.307308 
L 548.874824 202.950278 
L 549.599531 200.970188 
L 550.324238 200.149816 
L 551.048945 200.398247 
L 551.773652 201.71652 
L 552.498359 204.198034 
L 553.223066 208.064055 
L 553.947773 213.767744 
L 554.67248 222.301929 
L 555.397187 236.408925 
L 556.121895 271.119253 
L 556.846602 257.099031 
L 557.571309 232.528131 
L 558.296016 220.811221 
L 559.020723 213.599825 
L 559.74543 208.868046 
L 560.470137 205.819026 
L 561.194844 204.076763 
L 561.919551 203.458567 
L 562.644258 203.895273 
L 563.368965 205.40597 
L 564.093672 208.104745 
L 564.818379 212.245092 
L 565.543086 218.345517 
L 566.267793 227.573305 
L 566.9925 243.386567 
L 567.717207 292.412185 
L 568.441914 253.646499 
L 569.166621 233.024623 
L 569.891328 222.375137 
L 570.616035 215.677672 
L 571.340742 211.260366 
L 572.065449 208.433954 
L 572.790156 206.867462 
L 573.514863 206.401894 
L 574.23957 206.983835 
L 574.964277 208.646341 
L 575.688984 211.520613 
L 576.413691 215.888275 
L 577.138398 222.32751 
L 577.863105 232.173843 
L 578.587812 249.653776 
L 579.31252 334.985718 
L 580.037227 252.171092 
L 580.761934 233.885349 
L 581.486641 223.970654 
L 582.211348 217.645433 
L 582.936055 213.462435 
L 583.660762 210.805301 
L 584.385469 209.374844 
L 585.110176 209.029423 
L 585.834883 209.727689 
L 586.55959 211.513991 
L 587.284297 214.534093 
L 588.009004 219.094547 
L 588.733711 225.828346 
L 589.458418 236.232945 
L 590.183125 255.352745 
L 590.907832 321.378035 
L 591.632539 251.627285 
L 592.357246 234.89641 
L 593.081953 225.520643 
L 593.80666 219.47868 
L 594.531367 215.477869 
L 595.256074 212.954501 
L 595.980781 211.633085 
L 596.705488 211.385324 
L 597.430195 212.1795 
L 598.154902 214.069384 
L 598.879609 217.213392 
L 599.604316 221.940442 
L 600.329023 228.934163 
L 601.05373 239.847879 
L 601.778437 260.592463 
L 602.503145 301.648654 
L 603.227852 251.568557 
L 603.952559 235.953155 
L 604.677266 226.991344 
L 605.401973 221.173153 
L 606.12668 217.318759 
L 606.851387 214.904321 
L 607.576094 213.672765 
L 608.300801 213.50643 
L 609.025508 214.381532 
L 609.750215 216.359897 
L 610.474922 219.611118 
L 611.199629 224.484381 
L 611.924336 231.710378 
L 612.649043 243.092687 
L 613.37375 265.458118 
L 614.098457 293.279214 
L 614.823164 251.773348 
L 615.547871 237.001366 
L 616.272578 228.368945 
L 616.997285 222.732826 
L 617.721992 218.99925 
L 618.446699 216.675698 
L 619.171406 215.519876 
L 619.896113 215.422857 
L 620.62082 216.367556 
L 621.345527 218.422813 
L 622.070234 221.768228 
L 622.794941 226.771533 
L 623.519648 234.207413 
L 624.244355 246.024621 
L 624.969062 270.017933 
L 625.69377 288.546113 
L 626.418477 252.120858 
L 627.143184 238.012072 
L 627.867891 229.649189 
L 628.592598 224.164803 
L 629.317305 220.533105 
L 630.042012 218.286921 
L 630.766719 217.196134 
L 631.491426 217.159156 
L 632.216133 218.164673 
L 632.94084 220.287733 
L 633.665547 223.717002 
L 634.390254 228.837315 
L 635.114961 236.464719 
L 635.839668 248.688649 
L 636.564375 274.32803 
L 637.289082 285.533588 
L 638.013789 252.540818 
L 638.738496 238.969676 
L 639.463203 230.832453 
L 640.18791 225.477053 
L 640.912617 221.932842 
L 641.637324 219.753645 
L 642.362031 218.719599 
L 643.086738 218.735406 
L 643.811445 219.794806 
L 644.536152 221.978417 
L 645.260859 225.483195 
L 645.985566 230.709876 
L 646.710273 238.513613 
L 647.43498 251.120613 
L 648.159687 278.435962 
L 648.884395 283.479269 
L 649.609102 252.990395 
L 650.333809 239.865961 
L 651.058516 231.921301 
L 651.783223 226.677416 
L 652.50793 223.209509 
L 653.232637 221.089163 
L 653.957344 220.105308 
L 654.682051 220.168123 
L 655.406758 221.275839 
L 656.131465 223.51413 
L 656.856172 227.087604 
L 657.580879 232.411879 
L 658.305586 240.379285 
L 659.030293 253.349474 
L 659.755 282.383354 
L 660.479707 282.008204 
L 661.204414 253.442543 
L 661.929121 240.696888 
L 662.653828 232.91924 
L 663.378535 227.773177 
L 664.103242 224.372728 
L 664.827949 222.304748 
L 665.552656 221.365827 
L 666.277363 221.470983 
L 667.00207 222.62249 
L 667.726777 224.910652 
L 668.451484 228.547199 
L 669.176191 233.961776 
L 669.900898 242.082239 
L 670.625605 255.398923 
L 671.350312 286.207994 
L 672.07502 280.911518 
L 672.799727 253.87972 
L 673.524434 241.460812 
L 674.249141 233.830066 
L 674.973848 228.770913 
L 675.698555 225.430815 
L 676.423262 223.40996 
L 677.147969 222.511699 
L 677.872676 222.655384 
L 678.597383 223.846961 
L 679.32209 226.18102 
L 680.046797 229.875967 
L 680.771504 235.374745 
L 681.496211 243.639343 
L 682.220918 257.288563 
L 682.945625 289.945606 
L 683.670332 280.062771 
L 684.395039 254.290304 
L 685.119746 242.157454 
L 685.844453 234.65753 
L 686.56916 229.676468 
L 687.293867 226.390939 
L 688.018574 224.412924 
L 688.743281 223.551814 
L 689.467988 223.730879 
L 690.192695 224.959443 
L 690.917402 227.336089 
L 691.642109 231.085527 
L 692.366816 236.663386 
L 693.091523 245.064606 
L 693.81623 259.034781 
L 694.540937 293.631506 
L 695.265645 279.38069 
L 695.990352 254.666457 
L 696.715059 242.787299 
L 697.439766 235.405164 
L 698.164473 230.494983 
L 698.88918 227.259271 
L 699.613887 225.320557 
L 700.338594 224.493689 
L 701.063301 224.705519 
L 701.788008 225.968496 
L 702.512715 228.384959 
L 703.237422 232.185608 
L 703.962129 237.838237 
L 704.686836 246.369761 
L 705.411543 260.651411 
L 706.13625 297.302317 
L 706.860957 278.81058 
L 707.585664 255.00281 
L 708.310371 243.351226 
L 709.035078 236.0762 
L 709.759785 231.230949 
L 710.484492 228.041114 
L 711.209199 226.138757 
L 711.933906 225.343706 
L 712.658613 225.586112 
L 713.38332 226.881347 
L 714.108027 229.3353 
L 714.832734 233.184398 
L 715.557441 238.908172 
L 716.282148 247.564708 
L 717.006855 262.150237 
L 717.731562 300.997976 
L 719.180977 255.295625 
L 719.905684 243.850289 
L 720.630391 236.673536 
L 721.355098 231.888265 
L 722.079805 228.741018 
L 722.804512 226.872557 
L 723.529219 226.107291 
L 724.253926 226.378436 
L 724.978633 227.704117 
L 725.70334 230.193604 
L 726.428047 234.088831 
L 727.152754 239.880707 
L 727.877461 248.657853 
L 728.602168 263.541384 
L 729.326875 304.764314 
L 730.051582 277.864233 
L 730.776289 255.542246 
L 731.500996 244.285571 
L 732.225703 237.199733 
L 732.95041 232.470299 
L 733.675117 229.362883 
L 734.399824 227.526251 
L 735.124531 226.78906 
L 735.849238 227.087402 
L 736.573945 228.442004 
L 737.298652 230.965382 
L 738.023359 234.904792 
L 738.748066 240.762232 
L 739.472773 249.656377 
L 740.19748 264.833623 
L 740.922187 308.656694 
L 741.646895 277.440171 
L 742.371602 255.740739 
L 743.096309 244.658106 
L 743.821016 237.657015 
L 744.545723 232.97994 
L 745.27043 229.910034 
L 745.995137 228.103491 
L 746.719844 227.392939 
L 747.444551 227.717179 
L 748.169258 229.099426 
L 748.893965 231.65532 
L 749.618672 235.637292 
L 750.343379 241.558202 
L 751.068086 250.56644 
L 751.792793 266.034622 
L 752.5175 312.745555 
L 753.242207 277.026662 
L 753.966914 255.889637 
L 754.691621 244.968818 
L 755.416328 238.047289 
L 756.141035 233.41964 
L 756.865742 230.385291 
L 757.590449 228.607375 
L 758.315156 227.922255 
L 759.039863 228.271307 
L 759.76457 229.680133 
L 760.489277 232.267401 
L 761.213984 236.290601 
L 761.938691 242.273282 
L 762.663398 251.39335 
L 763.388105 267.151135 
L 764.112813 317.125433 
L 764.83752 276.611751 
L 765.562227 255.987766 
L 766.286934 245.21849 
L 767.011641 238.372152 
L 767.736348 233.791461 
L 768.461055 230.791027 
L 769.185762 229.040509 
L 769.910469 228.379813 
L 770.635176 228.752774 
L 771.359883 230.187296 
L 772.08459 232.805004 
L 772.809297 236.868353 
L 773.534004 242.911464 
L 774.258711 252.141695 
L 774.983418 268.189171 
L 775.708125 321.930817 
L 776.432832 276.185944 
L 777.157539 256.034127 
L 777.882246 245.407738 
L 778.606953 238.63291 
L 779.33166 234.097102 
L 780.056367 231.129207 
L 780.781074 229.405065 
L 781.505781 228.767957 
L 782.230488 229.164084 
L 782.955195 230.623586 
L 783.679902 233.270982 
L 784.404609 237.373633 
L 785.129316 243.476162 
L 785.854023 252.81545 
L 786.57873 269.154131 
L 787.303437 327.366389 
L 788.028145 275.741527 
L 788.752852 256.027796 
L 789.477559 245.537002 
L 790.202266 238.830589 
L 790.926973 234.337929 
L 791.65168 231.401429 
L 792.376387 229.702819 
L 793.101094 229.088618 
L 793.825801 229.507311 
L 794.550508 230.991225 
L 795.275215 233.667728 
L 795.999922 237.809046 
L 796.724629 243.970288 
L 797.449336 253.418069 
L 798.174043 270.050918 
L 798.89875 333.771289 
L 799.623457 275.272068 
L 800.348164 255.967866 
L 801.072871 245.606526 
L 801.797578 238.965944 
L 802.522285 234.514995 
L 803.246992 231.608953 
L 803.971699 229.935192 
L 804.696406 229.343351 
L 805.421113 229.784143 
L 806.14582 231.292034 
L 806.870527 233.997218 
L 807.595234 238.176769 
L 808.319941 244.396315 
L 809.044648 253.952551 
L 809.769355 270.884044 
L 810.494062 341.777446 
L 811.21877 274.77207 
L 811.943477 255.853384 
L 812.668184 245.616358 
L 813.392891 239.039467 
L 814.117598 234.629056 
L 814.842305 231.752719 
L 815.567012 230.103267 
L 816.291719 229.533369 
L 817.016426 229.99591 
L 817.741133 231.527473 
L 818.46584 234.26106 
L 819.190547 238.478601 
L 819.915254 244.756326 
L 820.639961 254.421507 
L 821.364668 271.657724 
L 822.089375 352.799388 
L 822.814082 274.236697 
L 823.538789 255.683315 
L 824.263496 245.56633 
L 824.988203 239.051391 
L 825.71291 234.680585 
L 826.437617 231.833367 
L 827.162324 230.207819 
L 827.887031 229.659562 
L 828.611738 230.143616 
L 829.336445 231.698665 
L 830.061152 234.460517 
L 830.785859 238.715992 
L 831.510566 245.052054 
L 832.235273 254.827209 
L 832.95998 272.37596 
L 833.684687 371.345455 
L 834.409395 273.661575 
L 835.134102 255.456503 
L 835.858809 245.456057 
L 836.583516 239.00169 
L 837.308223 234.669774 
L 838.03293 231.851246 
L 838.757637 230.24932 
L 839.482344 229.722513 
L 840.207051 230.227955 
L 840.931758 231.806419 
L 841.656465 234.596539 
L 842.381172 238.890076 
L 843.105879 245.284921 
L 843.830586 255.171634 
L 844.555293 273.04263 
L 844.555293 273.04263 
" style="fill:none;stroke:#0072bd;stroke-linecap:square;stroke-width:1.4;"/>
   </g>
   <g id="patch_8">
    <path d="M 474.23 387.16 
L 474.23 39.24 
" style="fill:none;stroke:#000000;stroke-linecap:square;stroke-linejoin:miter;stroke-width:0.8;"/>
   </g>
   <g id="patch_9">
    <path d="M 845.28 387.16 
L 845.28 39.24 
" style="fill:none;stroke:#000000;stroke-linecap:square;stroke-linejoin:miter;stroke-width:0.8;"/>
   </g>
   <g id="patch_10">
    <path d="M 474.23 387.16 
L 845.28 387.16 
" style="fill:none;stroke:#000000;stroke-linecap:square;stroke-linejoin:miter;stroke-width:0.8;"/>
   </g>
   <g id="patch_11">
    <path d="M 474.23 39.24 
L 845.28 39.24 
" style="fill:none;stroke:#000000;stroke-linecap:square;stroke-linejoin:miter;stroke-width:0.8;"/>
   </g>
  </g>
  <g id="text_28">
   <!-- Gaussian window -->
   <defs>
    <path d="M 4.203125 54.6875 
L 13.1875 54.6875 
L 24.421875 12.015625 
L 35.59375 54.6875 
L 46.1875 54.6875 
L 57.421875 12.015625 
L 68.609375 54.6875 
L 77.59375 54.6875 
L 63.28125 0 
L 52.6875 0 
L 40.921875 44.828125 
L 29.109375 0 
L 18.5 0 
z
" id="DejaVuSans-119"/>
   </defs>
   <g transform="translate(362.405 20.7975)scale(0.16 -0.16)">
    <use xlink:href="#DejaVuSans-71"/>
    <use x="77.490234" xlink:href="#DejaVuSans-97"/>
    <use x="138.769531" xlink:href="#DejaVuSans-117"/>
    <use x="202.148438" xlink:href="#DejaVuSans-115"/>
    <use x="254.248047" xlink:href="#DejaVuSans-115"/>
    <use x="306.347656" xlink:href="#DejaVuSans-105"/>
    <use x="334.130859" xlink:href="#DejaVuSans-97"/>
    <use x="395.410156" xlink:href="#DejaVuSans-110"/>
    <use x="458.789062" xlink:href="#DejaVuSans-32"/>
    <use x="490.576172" xlink:href="#DejaVuSans-119"/>
    <use x="572.363281" xlink:href="#DejaVuSans-105"/>
    <use x="600.146484" xlink:href="#DejaVuSans-110"/>
    <use x="663.525391" xlink:href="#DejaVuSans-100"/>
    <use x="727.001953" xlink:href="#DejaVuSans-111"/>
    <use x="788.183594" xlink:href="#DejaVuSans-119"/>
   </g>
  </g>
 </g>
 <defs>
  <clipPath id="pddfd66ca8f">
   <rect height="347.92" width="371.05" x="47.72" y="39.24"/>
  </clipPath>
  <clipPath id="p75d7c8ff62">
   <rect height="347.92" width="371.05" x="474.23" y="39.24"/>
  </clipPath>
 </defs>
</svg>
