<?xml version="1.0" encoding="utf-8" standalone="no"?>
<!DOCTYPE svg PUBLIC "-//W3C//DTD SVG 1.1//EN"
  "http://www.w3.org/Graphics/SVG/1.1/DTD/svg11.dtd">
<!-- Created with matplotlib (https://matplotlib.org/) -->
<svg height="432pt" version="1.1" viewBox="0 0 864 432" width="864pt" xmlns="http://www.w3.org/2000/svg" xmlns:xlink="http://www.w3.org/1999/xlink">
 <defs>
  <style type="text/css">
*{stroke-linecap:butt;stroke-linejoin:round;}
  </style>
 </defs>
 <g id="figure_1">
  <g id="patch_1">
   <path d="M 0 432 
L 864 432 
L 864 0 
L 0 0 
z
" style="fill:#ffffff;"/>
  </g>
  <g id="axes_1">
   <g id="patch_2">
    <path d="M 47.72 387.16 
L 415.575 387.16 
L 415.575 39.24 
L 47.72 39.24 
z
" style="fill:#ffffff;"/>
   </g>
   <g id="matplotlib.axis_1">
    <g id="xtick_1">
     <g id="line2d_1">
      <path clip-path="url(#p97ec8ec411)" d="M 47.72 387.16 
L 47.72 39.24 
" style="fill:none;stroke:#777777;stroke-linecap:square;stroke-width:0.8;"/>
     </g>
     <g id="line2d_2">
      <defs>
       <path d="M 0 0 
L 0 3.5 
" id="me300e42347" style="stroke:#000000;stroke-width:0.8;"/>
      </defs>
      <g>
       <use style="stroke:#000000;stroke-width:0.8;" x="47.72" xlink:href="#me300e42347" y="387.16"/>
      </g>
     </g>
     <g id="text_1">
      <!-- 0 -->
      <defs>
       <path d="M 31.78125 66.40625 
Q 24.171875 66.40625 20.328125 58.90625 
Q 16.5 51.421875 16.5 36.375 
Q 16.5 21.390625 20.328125 13.890625 
Q 24.171875 6.390625 31.78125 6.390625 
Q 39.453125 6.390625 43.28125 13.890625 
Q 47.125 21.390625 47.125 36.375 
Q 47.125 51.421875 43.28125 58.90625 
Q 39.453125 66.40625 31.78125 66.40625 
z
M 31.78125 74.21875 
Q 44.046875 74.21875 50.515625 64.515625 
Q 56.984375 54.828125 56.984375 36.375 
Q 56.984375 17.96875 50.515625 8.265625 
Q 44.046875 -1.421875 31.78125 -1.421875 
Q 19.53125 -1.421875 13.0625 8.265625 
Q 6.59375 17.96875 6.59375 36.375 
Q 6.59375 54.828125 13.0625 64.515625 
Q 19.53125 74.21875 31.78125 74.21875 
z
" id="DejaVuSans-48"/>
      </defs>
      <g transform="translate(44.53875 401.758438)scale(0.1 -0.1)">
       <use xlink:href="#DejaVuSans-48"/>
      </g>
     </g>
    </g>
    <g id="xtick_2">
     <g id="line2d_3">
      <path clip-path="url(#p97ec8ec411)" d="M 106.109683 387.16 
L 106.109683 39.24 
" style="fill:none;stroke:#777777;stroke-linecap:square;stroke-width:0.8;"/>
     </g>
     <g id="line2d_4">
      <g>
       <use style="stroke:#000000;stroke-width:0.8;" x="106.109683" xlink:href="#me300e42347" y="387.16"/>
      </g>
     </g>
     <g id="text_2">
      <!-- 10 -->
      <defs>
       <path d="M 12.40625 8.296875 
L 28.515625 8.296875 
L 28.515625 63.921875 
L 10.984375 60.40625 
L 10.984375 69.390625 
L 28.421875 72.90625 
L 38.28125 72.90625 
L 38.28125 8.296875 
L 54.390625 8.296875 
L 54.390625 0 
L 12.40625 0 
z
" id="DejaVuSans-49"/>
      </defs>
      <g transform="translate(99.747183 401.758438)scale(0.1 -0.1)">
       <use xlink:href="#DejaVuSans-49"/>
       <use x="63.623047" xlink:href="#DejaVuSans-48"/>
      </g>
     </g>
    </g>
    <g id="xtick_3">
     <g id="line2d_5">
      <path clip-path="url(#p97ec8ec411)" d="M 164.499365 387.16 
L 164.499365 39.24 
" style="fill:none;stroke:#777777;stroke-linecap:square;stroke-width:0.8;"/>
     </g>
     <g id="line2d_6">
      <g>
       <use style="stroke:#000000;stroke-width:0.8;" x="164.499365" xlink:href="#me300e42347" y="387.16"/>
      </g>
     </g>
     <g id="text_3">
      <!-- 20 -->
      <defs>
       <path d="M 19.1875 8.296875 
L 53.609375 8.296875 
L 53.609375 0 
L 7.328125 0 
L 7.328125 8.296875 
Q 12.9375 14.109375 22.625 23.890625 
Q 32.328125 33.6875 34.8125 36.53125 
Q 39.546875 41.84375 41.421875 45.53125 
Q 43.3125 49.21875 43.3125 52.78125 
Q 43.3125 58.59375 39.234375 62.25 
Q 35.15625 65.921875 28.609375 65.921875 
Q 23.96875 65.921875 18.8125 64.3125 
Q 13.671875 62.703125 7.8125 59.421875 
L 7.8125 69.390625 
Q 13.765625 71.78125 18.9375 73 
Q 24.125 74.21875 28.421875 74.21875 
Q 39.75 74.21875 46.484375 68.546875 
Q 53.21875 62.890625 53.21875 53.421875 
Q 53.21875 48.921875 51.53125 44.890625 
Q 49.859375 40.875 45.40625 35.40625 
Q 44.1875 33.984375 37.640625 27.21875 
Q 31.109375 20.453125 19.1875 8.296875 
z
" id="DejaVuSans-50"/>
      </defs>
      <g transform="translate(158.136865 401.758438)scale(0.1 -0.1)">
       <use xlink:href="#DejaVuSans-50"/>
       <use x="63.623047" xlink:href="#DejaVuSans-48"/>
      </g>
     </g>
    </g>
    <g id="xtick_4">
     <g id="line2d_7">
      <path clip-path="url(#p97ec8ec411)" d="M 222.889048 387.16 
L 222.889048 39.24 
" style="fill:none;stroke:#777777;stroke-linecap:square;stroke-width:0.8;"/>
     </g>
     <g id="line2d_8">
      <g>
       <use style="stroke:#000000;stroke-width:0.8;" x="222.889048" xlink:href="#me300e42347" y="387.16"/>
      </g>
     </g>
     <g id="text_4">
      <!-- 30 -->
      <defs>
       <path d="M 40.578125 39.3125 
Q 47.65625 37.796875 51.625 33 
Q 55.609375 28.21875 55.609375 21.1875 
Q 55.609375 10.40625 48.1875 4.484375 
Q 40.765625 -1.421875 27.09375 -1.421875 
Q 22.515625 -1.421875 17.65625 -0.515625 
Q 12.796875 0.390625 7.625 2.203125 
L 7.625 11.71875 
Q 11.71875 9.328125 16.59375 8.109375 
Q 21.484375 6.890625 26.8125 6.890625 
Q 36.078125 6.890625 40.9375 10.546875 
Q 45.796875 14.203125 45.796875 21.1875 
Q 45.796875 27.640625 41.28125 31.265625 
Q 36.765625 34.90625 28.71875 34.90625 
L 20.21875 34.90625 
L 20.21875 43.015625 
L 29.109375 43.015625 
Q 36.375 43.015625 40.234375 45.921875 
Q 44.09375 48.828125 44.09375 54.296875 
Q 44.09375 59.90625 40.109375 62.90625 
Q 36.140625 65.921875 28.71875 65.921875 
Q 24.65625 65.921875 20.015625 65.03125 
Q 15.375 64.15625 9.8125 62.3125 
L 9.8125 71.09375 
Q 15.4375 72.65625 20.34375 73.4375 
Q 25.25 74.21875 29.59375 74.21875 
Q 40.828125 74.21875 47.359375 69.109375 
Q 53.90625 64.015625 53.90625 55.328125 
Q 53.90625 49.265625 50.4375 45.09375 
Q 46.96875 40.921875 40.578125 39.3125 
z
" id="DejaVuSans-51"/>
      </defs>
      <g transform="translate(216.526548 401.758438)scale(0.1 -0.1)">
       <use xlink:href="#DejaVuSans-51"/>
       <use x="63.623047" xlink:href="#DejaVuSans-48"/>
      </g>
     </g>
    </g>
    <g id="xtick_5">
     <g id="line2d_9">
      <path clip-path="url(#p97ec8ec411)" d="M 281.27873 387.16 
L 281.27873 39.24 
" style="fill:none;stroke:#777777;stroke-linecap:square;stroke-width:0.8;"/>
     </g>
     <g id="line2d_10">
      <g>
       <use style="stroke:#000000;stroke-width:0.8;" x="281.27873" xlink:href="#me300e42347" y="387.16"/>
      </g>
     </g>
     <g id="text_5">
      <!-- 40 -->
      <defs>
       <path d="M 37.796875 64.3125 
L 12.890625 25.390625 
L 37.796875 25.390625 
z
M 35.203125 72.90625 
L 47.609375 72.90625 
L 47.609375 25.390625 
L 58.015625 25.390625 
L 58.015625 17.1875 
L 47.609375 17.1875 
L 47.609375 0 
L 37.796875 0 
L 37.796875 17.1875 
L 4.890625 17.1875 
L 4.890625 26.703125 
z
" id="DejaVuSans-52"/>
      </defs>
      <g transform="translate(274.91623 401.758438)scale(0.1 -0.1)">
       <use xlink:href="#DejaVuSans-52"/>
       <use x="63.623047" xlink:href="#DejaVuSans-48"/>
      </g>
     </g>
    </g>
    <g id="xtick_6">
     <g id="line2d_11">
      <path clip-path="url(#p97ec8ec411)" d="M 339.668413 387.16 
L 339.668413 39.24 
" style="fill:none;stroke:#777777;stroke-linecap:square;stroke-width:0.8;"/>
     </g>
     <g id="line2d_12">
      <g>
       <use style="stroke:#000000;stroke-width:0.8;" x="339.668413" xlink:href="#me300e42347" y="387.16"/>
      </g>
     </g>
     <g id="text_6">
      <!-- 50 -->
      <defs>
       <path d="M 10.796875 72.90625 
L 49.515625 72.90625 
L 49.515625 64.59375 
L 19.828125 64.59375 
L 19.828125 46.734375 
Q 21.96875 47.46875 24.109375 47.828125 
Q 26.265625 48.1875 28.421875 48.1875 
Q 40.625 48.1875 47.75 41.5 
Q 54.890625 34.8125 54.890625 23.390625 
Q 54.890625 11.625 47.5625 5.09375 
Q 40.234375 -1.421875 26.90625 -1.421875 
Q 22.3125 -1.421875 17.546875 -0.640625 
Q 12.796875 0.140625 7.71875 1.703125 
L 7.71875 11.625 
Q 12.109375 9.234375 16.796875 8.0625 
Q 21.484375 6.890625 26.703125 6.890625 
Q 35.15625 6.890625 40.078125 11.328125 
Q 45.015625 15.765625 45.015625 23.390625 
Q 45.015625 31 40.078125 35.4375 
Q 35.15625 39.890625 26.703125 39.890625 
Q 22.75 39.890625 18.8125 39.015625 
Q 14.890625 38.140625 10.796875 36.28125 
z
" id="DejaVuSans-53"/>
      </defs>
      <g transform="translate(333.305913 401.758438)scale(0.1 -0.1)">
       <use xlink:href="#DejaVuSans-53"/>
       <use x="63.623047" xlink:href="#DejaVuSans-48"/>
      </g>
     </g>
    </g>
    <g id="xtick_7">
     <g id="line2d_13">
      <path clip-path="url(#p97ec8ec411)" d="M 398.058095 387.16 
L 398.058095 39.24 
" style="fill:none;stroke:#777777;stroke-linecap:square;stroke-width:0.8;"/>
     </g>
     <g id="line2d_14">
      <g>
       <use style="stroke:#000000;stroke-width:0.8;" x="398.058095" xlink:href="#me300e42347" y="387.16"/>
      </g>
     </g>
     <g id="text_7">
      <!-- 60 -->
      <defs>
       <path d="M 33.015625 40.375 
Q 26.375 40.375 22.484375 35.828125 
Q 18.609375 31.296875 18.609375 23.390625 
Q 18.609375 15.53125 22.484375 10.953125 
Q 26.375 6.390625 33.015625 6.390625 
Q 39.65625 6.390625 43.53125 10.953125 
Q 47.40625 15.53125 47.40625 23.390625 
Q 47.40625 31.296875 43.53125 35.828125 
Q 39.65625 40.375 33.015625 40.375 
z
M 52.59375 71.296875 
L 52.59375 62.3125 
Q 48.875 64.0625 45.09375 64.984375 
Q 41.3125 65.921875 37.59375 65.921875 
Q 27.828125 65.921875 22.671875 59.328125 
Q 17.53125 52.734375 16.796875 39.40625 
Q 19.671875 43.65625 24.015625 45.921875 
Q 28.375 48.1875 33.59375 48.1875 
Q 44.578125 48.1875 50.953125 41.515625 
Q 57.328125 34.859375 57.328125 23.390625 
Q 57.328125 12.15625 50.6875 5.359375 
Q 44.046875 -1.421875 33.015625 -1.421875 
Q 20.359375 -1.421875 13.671875 8.265625 
Q 6.984375 17.96875 6.984375 36.375 
Q 6.984375 53.65625 15.1875 63.9375 
Q 23.390625 74.21875 37.203125 74.21875 
Q 40.921875 74.21875 44.703125 73.484375 
Q 48.484375 72.75 52.59375 71.296875 
z
" id="DejaVuSans-54"/>
      </defs>
      <g transform="translate(391.695595 401.758438)scale(0.1 -0.1)">
       <use xlink:href="#DejaVuSans-54"/>
       <use x="63.623047" xlink:href="#DejaVuSans-48"/>
      </g>
     </g>
    </g>
    <g id="text_8">
     <!-- Samples -->
     <defs>
      <path d="M 53.515625 70.515625 
L 53.515625 60.890625 
Q 47.90625 63.578125 42.921875 64.890625 
Q 37.9375 66.21875 33.296875 66.21875 
Q 25.25 66.21875 20.875 63.09375 
Q 16.5 59.96875 16.5 54.203125 
Q 16.5 49.359375 19.40625 46.890625 
Q 22.3125 44.4375 30.421875 42.921875 
L 36.375 41.703125 
Q 47.40625 39.59375 52.65625 34.296875 
Q 57.90625 29 57.90625 20.125 
Q 57.90625 9.515625 50.796875 4.046875 
Q 43.703125 -1.421875 29.984375 -1.421875 
Q 24.8125 -1.421875 18.96875 -0.25 
Q 13.140625 0.921875 6.890625 3.21875 
L 6.890625 13.375 
Q 12.890625 10.015625 18.65625 8.296875 
Q 24.421875 6.59375 29.984375 6.59375 
Q 38.421875 6.59375 43.015625 9.90625 
Q 47.609375 13.234375 47.609375 19.390625 
Q 47.609375 24.75 44.3125 27.78125 
Q 41.015625 30.8125 33.5 32.328125 
L 27.484375 33.5 
Q 16.453125 35.6875 11.515625 40.375 
Q 6.59375 45.0625 6.59375 53.421875 
Q 6.59375 63.09375 13.40625 68.65625 
Q 20.21875 74.21875 32.171875 74.21875 
Q 37.3125 74.21875 42.625 73.28125 
Q 47.953125 72.359375 53.515625 70.515625 
z
" id="DejaVuSans-83"/>
      <path d="M 34.28125 27.484375 
Q 23.390625 27.484375 19.1875 25 
Q 14.984375 22.515625 14.984375 16.5 
Q 14.984375 11.71875 18.140625 8.90625 
Q 21.296875 6.109375 26.703125 6.109375 
Q 34.1875 6.109375 38.703125 11.40625 
Q 43.21875 16.703125 43.21875 25.484375 
L 43.21875 27.484375 
z
M 52.203125 31.203125 
L 52.203125 0 
L 43.21875 0 
L 43.21875 8.296875 
Q 40.140625 3.328125 35.546875 0.953125 
Q 30.953125 -1.421875 24.3125 -1.421875 
Q 15.921875 -1.421875 10.953125 3.296875 
Q 6 8.015625 6 15.921875 
Q 6 25.140625 12.171875 29.828125 
Q 18.359375 34.515625 30.609375 34.515625 
L 43.21875 34.515625 
L 43.21875 35.40625 
Q 43.21875 41.609375 39.140625 45 
Q 35.0625 48.390625 27.6875 48.390625 
Q 23 48.390625 18.546875 47.265625 
Q 14.109375 46.140625 10.015625 43.890625 
L 10.015625 52.203125 
Q 14.9375 54.109375 19.578125 55.046875 
Q 24.21875 56 28.609375 56 
Q 40.484375 56 46.34375 49.84375 
Q 52.203125 43.703125 52.203125 31.203125 
z
" id="DejaVuSans-97"/>
      <path d="M 52 44.1875 
Q 55.375 50.25 60.0625 53.125 
Q 64.75 56 71.09375 56 
Q 79.640625 56 84.28125 50.015625 
Q 88.921875 44.046875 88.921875 33.015625 
L 88.921875 0 
L 79.890625 0 
L 79.890625 32.71875 
Q 79.890625 40.578125 77.09375 44.375 
Q 74.3125 48.1875 68.609375 48.1875 
Q 61.625 48.1875 57.5625 43.546875 
Q 53.515625 38.921875 53.515625 30.90625 
L 53.515625 0 
L 44.484375 0 
L 44.484375 32.71875 
Q 44.484375 40.625 41.703125 44.40625 
Q 38.921875 48.1875 33.109375 48.1875 
Q 26.21875 48.1875 22.15625 43.53125 
Q 18.109375 38.875 18.109375 30.90625 
L 18.109375 0 
L 9.078125 0 
L 9.078125 54.6875 
L 18.109375 54.6875 
L 18.109375 46.1875 
Q 21.1875 51.21875 25.484375 53.609375 
Q 29.78125 56 35.6875 56 
Q 41.65625 56 45.828125 52.96875 
Q 50 49.953125 52 44.1875 
z
" id="DejaVuSans-109"/>
      <path d="M 18.109375 8.203125 
L 18.109375 -20.796875 
L 9.078125 -20.796875 
L 9.078125 54.6875 
L 18.109375 54.6875 
L 18.109375 46.390625 
Q 20.953125 51.265625 25.265625 53.625 
Q 29.59375 56 35.59375 56 
Q 45.5625 56 51.78125 48.09375 
Q 58.015625 40.1875 58.015625 27.296875 
Q 58.015625 14.40625 51.78125 6.484375 
Q 45.5625 -1.421875 35.59375 -1.421875 
Q 29.59375 -1.421875 25.265625 0.953125 
Q 20.953125 3.328125 18.109375 8.203125 
z
M 48.6875 27.296875 
Q 48.6875 37.203125 44.609375 42.84375 
Q 40.53125 48.484375 33.40625 48.484375 
Q 26.265625 48.484375 22.1875 42.84375 
Q 18.109375 37.203125 18.109375 27.296875 
Q 18.109375 17.390625 22.1875 11.75 
Q 26.265625 6.109375 33.40625 6.109375 
Q 40.53125 6.109375 44.609375 11.75 
Q 48.6875 17.390625 48.6875 27.296875 
z
" id="DejaVuSans-112"/>
      <path d="M 9.421875 75.984375 
L 18.40625 75.984375 
L 18.40625 0 
L 9.421875 0 
z
" id="DejaVuSans-108"/>
      <path d="M 56.203125 29.59375 
L 56.203125 25.203125 
L 14.890625 25.203125 
Q 15.484375 15.921875 20.484375 11.0625 
Q 25.484375 6.203125 34.421875 6.203125 
Q 39.59375 6.203125 44.453125 7.46875 
Q 49.3125 8.734375 54.109375 11.28125 
L 54.109375 2.78125 
Q 49.265625 0.734375 44.1875 -0.34375 
Q 39.109375 -1.421875 33.890625 -1.421875 
Q 20.796875 -1.421875 13.15625 6.1875 
Q 5.515625 13.8125 5.515625 26.8125 
Q 5.515625 40.234375 12.765625 48.109375 
Q 20.015625 56 32.328125 56 
Q 43.359375 56 49.78125 48.890625 
Q 56.203125 41.796875 56.203125 29.59375 
z
M 47.21875 32.234375 
Q 47.125 39.59375 43.09375 43.984375 
Q 39.0625 48.390625 32.421875 48.390625 
Q 24.90625 48.390625 20.390625 44.140625 
Q 15.875 39.890625 15.1875 32.171875 
z
" id="DejaVuSans-101"/>
      <path d="M 44.28125 53.078125 
L 44.28125 44.578125 
Q 40.484375 46.53125 36.375 47.5 
Q 32.28125 48.484375 27.875 48.484375 
Q 21.1875 48.484375 17.84375 46.4375 
Q 14.5 44.390625 14.5 40.28125 
Q 14.5 37.15625 16.890625 35.375 
Q 19.28125 33.59375 26.515625 31.984375 
L 29.59375 31.296875 
Q 39.15625 29.25 43.1875 25.515625 
Q 47.21875 21.78125 47.21875 15.09375 
Q 47.21875 7.46875 41.1875 3.015625 
Q 35.15625 -1.421875 24.609375 -1.421875 
Q 20.21875 -1.421875 15.453125 -0.5625 
Q 10.6875 0.296875 5.421875 2 
L 5.421875 11.28125 
Q 10.40625 8.6875 15.234375 7.390625 
Q 20.0625 6.109375 24.8125 6.109375 
Q 31.15625 6.109375 34.5625 8.28125 
Q 37.984375 10.453125 37.984375 14.40625 
Q 37.984375 18.0625 35.515625 20.015625 
Q 33.0625 21.96875 24.703125 23.78125 
L 21.578125 24.515625 
Q 13.234375 26.265625 9.515625 29.90625 
Q 5.8125 33.546875 5.8125 39.890625 
Q 5.8125 47.609375 11.28125 51.796875 
Q 16.75 56 26.8125 56 
Q 31.78125 56 36.171875 55.265625 
Q 40.578125 54.546875 44.28125 53.078125 
z
" id="DejaVuSans-115"/>
     </defs>
     <g transform="translate(210.294375 415.436563)scale(0.1 -0.1)">
      <use xlink:href="#DejaVuSans-83"/>
      <use x="63.476562" xlink:href="#DejaVuSans-97"/>
      <use x="124.755859" xlink:href="#DejaVuSans-109"/>
      <use x="222.167969" xlink:href="#DejaVuSans-112"/>
      <use x="285.644531" xlink:href="#DejaVuSans-108"/>
      <use x="313.427734" xlink:href="#DejaVuSans-101"/>
      <use x="374.951172" xlink:href="#DejaVuSans-115"/>
     </g>
    </g>
   </g>
   <g id="matplotlib.axis_2">
    <g id="ytick_1">
     <g id="line2d_15">
      <path clip-path="url(#p97ec8ec411)" d="M 47.72 387.16 
L 415.575 387.16 
" style="fill:none;stroke:#777777;stroke-linecap:square;stroke-width:0.8;"/>
     </g>
     <g id="line2d_16">
      <defs>
       <path d="M 0 0 
L -3.5 0 
" id="m3dd7fb2a9f" style="stroke:#000000;stroke-width:0.8;"/>
      </defs>
      <g>
       <use style="stroke:#000000;stroke-width:0.8;" x="47.72" xlink:href="#m3dd7fb2a9f" y="387.16"/>
      </g>
     </g>
     <g id="text_9">
      <!-- 0.0 -->
      <defs>
       <path d="M 10.6875 12.40625 
L 21 12.40625 
L 21 0 
L 10.6875 0 
z
" id="DejaVuSans-46"/>
      </defs>
      <g transform="translate(24.816875 390.959219)scale(0.1 -0.1)">
       <use xlink:href="#DejaVuSans-48"/>
       <use x="63.623047" xlink:href="#DejaVuSans-46"/>
       <use x="95.410156" xlink:href="#DejaVuSans-48"/>
      </g>
     </g>
    </g>
    <g id="ytick_2">
     <g id="line2d_17">
      <path clip-path="url(#p97ec8ec411)" d="M 47.72 320.807916 
L 415.575 320.807916 
" style="fill:none;stroke:#777777;stroke-linecap:square;stroke-width:0.8;"/>
     </g>
     <g id="line2d_18">
      <g>
       <use style="stroke:#000000;stroke-width:0.8;" x="47.72" xlink:href="#m3dd7fb2a9f" y="320.807916"/>
      </g>
     </g>
     <g id="text_10">
      <!-- 0.2 -->
      <g transform="translate(24.816875 324.607134)scale(0.1 -0.1)">
       <use xlink:href="#DejaVuSans-48"/>
       <use x="63.623047" xlink:href="#DejaVuSans-46"/>
       <use x="95.410156" xlink:href="#DejaVuSans-50"/>
      </g>
     </g>
    </g>
    <g id="ytick_3">
     <g id="line2d_19">
      <path clip-path="url(#p97ec8ec411)" d="M 47.72 254.455831 
L 415.575 254.455831 
" style="fill:none;stroke:#777777;stroke-linecap:square;stroke-width:0.8;"/>
     </g>
     <g id="line2d_20">
      <g>
       <use style="stroke:#000000;stroke-width:0.8;" x="47.72" xlink:href="#m3dd7fb2a9f" y="254.455831"/>
      </g>
     </g>
     <g id="text_11">
      <!-- 0.4 -->
      <g transform="translate(24.816875 258.25505)scale(0.1 -0.1)">
       <use xlink:href="#DejaVuSans-48"/>
       <use x="63.623047" xlink:href="#DejaVuSans-46"/>
       <use x="95.410156" xlink:href="#DejaVuSans-52"/>
      </g>
     </g>
    </g>
    <g id="ytick_4">
     <g id="line2d_21">
      <path clip-path="url(#p97ec8ec411)" d="M 47.72 188.103747 
L 415.575 188.103747 
" style="fill:none;stroke:#777777;stroke-linecap:square;stroke-width:0.8;"/>
     </g>
     <g id="line2d_22">
      <g>
       <use style="stroke:#000000;stroke-width:0.8;" x="47.72" xlink:href="#m3dd7fb2a9f" y="188.103747"/>
      </g>
     </g>
     <g id="text_12">
      <!-- 0.6 -->
      <g transform="translate(24.816875 191.902966)scale(0.1 -0.1)">
       <use xlink:href="#DejaVuSans-48"/>
       <use x="63.623047" xlink:href="#DejaVuSans-46"/>
       <use x="95.410156" xlink:href="#DejaVuSans-54"/>
      </g>
     </g>
    </g>
    <g id="ytick_5">
     <g id="line2d_23">
      <path clip-path="url(#p97ec8ec411)" d="M 47.72 121.751663 
L 415.575 121.751663 
" style="fill:none;stroke:#777777;stroke-linecap:square;stroke-width:0.8;"/>
     </g>
     <g id="line2d_24">
      <g>
       <use style="stroke:#000000;stroke-width:0.8;" x="47.72" xlink:href="#m3dd7fb2a9f" y="121.751663"/>
      </g>
     </g>
     <g id="text_13">
      <!-- 0.8 -->
      <defs>
       <path d="M 31.78125 34.625 
Q 24.75 34.625 20.71875 30.859375 
Q 16.703125 27.09375 16.703125 20.515625 
Q 16.703125 13.921875 20.71875 10.15625 
Q 24.75 6.390625 31.78125 6.390625 
Q 38.8125 6.390625 42.859375 10.171875 
Q 46.921875 13.96875 46.921875 20.515625 
Q 46.921875 27.09375 42.890625 30.859375 
Q 38.875 34.625 31.78125 34.625 
z
M 21.921875 38.8125 
Q 15.578125 40.375 12.03125 44.71875 
Q 8.5 49.078125 8.5 55.328125 
Q 8.5 64.0625 14.71875 69.140625 
Q 20.953125 74.21875 31.78125 74.21875 
Q 42.671875 74.21875 48.875 69.140625 
Q 55.078125 64.0625 55.078125 55.328125 
Q 55.078125 49.078125 51.53125 44.71875 
Q 48 40.375 41.703125 38.8125 
Q 48.828125 37.15625 52.796875 32.3125 
Q 56.78125 27.484375 56.78125 20.515625 
Q 56.78125 9.90625 50.3125 4.234375 
Q 43.84375 -1.421875 31.78125 -1.421875 
Q 19.734375 -1.421875 13.25 4.234375 
Q 6.78125 9.90625 6.78125 20.515625 
Q 6.78125 27.484375 10.78125 32.3125 
Q 14.796875 37.15625 21.921875 38.8125 
z
M 18.3125 54.390625 
Q 18.3125 48.734375 21.84375 45.5625 
Q 25.390625 42.390625 31.78125 42.390625 
Q 38.140625 42.390625 41.71875 45.5625 
Q 45.3125 48.734375 45.3125 54.390625 
Q 45.3125 60.0625 41.71875 63.234375 
Q 38.140625 66.40625 31.78125 66.40625 
Q 25.390625 66.40625 21.84375 63.234375 
Q 18.3125 60.0625 18.3125 54.390625 
z
" id="DejaVuSans-56"/>
      </defs>
      <g transform="translate(24.816875 125.550882)scale(0.1 -0.1)">
       <use xlink:href="#DejaVuSans-48"/>
       <use x="63.623047" xlink:href="#DejaVuSans-46"/>
       <use x="95.410156" xlink:href="#DejaVuSans-56"/>
      </g>
     </g>
    </g>
    <g id="ytick_6">
     <g id="line2d_25">
      <path clip-path="url(#p97ec8ec411)" d="M 47.72 55.399579 
L 415.575 55.399579 
" style="fill:none;stroke:#777777;stroke-linecap:square;stroke-width:0.8;"/>
     </g>
     <g id="line2d_26">
      <g>
       <use style="stroke:#000000;stroke-width:0.8;" x="47.72" xlink:href="#m3dd7fb2a9f" y="55.399579"/>
      </g>
     </g>
     <g id="text_14">
      <!-- 1.0 -->
      <g transform="translate(24.816875 59.198797)scale(0.1 -0.1)">
       <use xlink:href="#DejaVuSans-49"/>
       <use x="63.623047" xlink:href="#DejaVuSans-46"/>
       <use x="95.410156" xlink:href="#DejaVuSans-48"/>
      </g>
     </g>
    </g>
    <g id="text_15">
     <!-- Amplitude -->
     <defs>
      <path d="M 34.1875 63.1875 
L 20.796875 26.90625 
L 47.609375 26.90625 
z
M 28.609375 72.90625 
L 39.796875 72.90625 
L 67.578125 0 
L 57.328125 0 
L 50.6875 18.703125 
L 17.828125 18.703125 
L 11.1875 0 
L 0.78125 0 
z
" id="DejaVuSans-65"/>
      <path d="M 9.421875 54.6875 
L 18.40625 54.6875 
L 18.40625 0 
L 9.421875 0 
z
M 9.421875 75.984375 
L 18.40625 75.984375 
L 18.40625 64.59375 
L 9.421875 64.59375 
z
" id="DejaVuSans-105"/>
      <path d="M 18.3125 70.21875 
L 18.3125 54.6875 
L 36.8125 54.6875 
L 36.8125 47.703125 
L 18.3125 47.703125 
L 18.3125 18.015625 
Q 18.3125 11.328125 20.140625 9.421875 
Q 21.96875 7.515625 27.59375 7.515625 
L 36.8125 7.515625 
L 36.8125 0 
L 27.59375 0 
Q 17.1875 0 13.234375 3.875 
Q 9.28125 7.765625 9.28125 18.015625 
L 9.28125 47.703125 
L 2.6875 47.703125 
L 2.6875 54.6875 
L 9.28125 54.6875 
L 9.28125 70.21875 
z
" id="DejaVuSans-116"/>
      <path d="M 8.5 21.578125 
L 8.5 54.6875 
L 17.484375 54.6875 
L 17.484375 21.921875 
Q 17.484375 14.15625 20.5 10.265625 
Q 23.53125 6.390625 29.59375 6.390625 
Q 36.859375 6.390625 41.078125 11.03125 
Q 45.3125 15.671875 45.3125 23.6875 
L 45.3125 54.6875 
L 54.296875 54.6875 
L 54.296875 0 
L 45.3125 0 
L 45.3125 8.40625 
Q 42.046875 3.421875 37.71875 1 
Q 33.40625 -1.421875 27.6875 -1.421875 
Q 18.265625 -1.421875 13.375 4.4375 
Q 8.5 10.296875 8.5 21.578125 
z
M 31.109375 56 
z
" id="DejaVuSans-117"/>
      <path d="M 45.40625 46.390625 
L 45.40625 75.984375 
L 54.390625 75.984375 
L 54.390625 0 
L 45.40625 0 
L 45.40625 8.203125 
Q 42.578125 3.328125 38.25 0.953125 
Q 33.9375 -1.421875 27.875 -1.421875 
Q 17.96875 -1.421875 11.734375 6.484375 
Q 5.515625 14.40625 5.515625 27.296875 
Q 5.515625 40.1875 11.734375 48.09375 
Q 17.96875 56 27.875 56 
Q 33.9375 56 38.25 53.625 
Q 42.578125 51.265625 45.40625 46.390625 
z
M 14.796875 27.296875 
Q 14.796875 17.390625 18.875 11.75 
Q 22.953125 6.109375 30.078125 6.109375 
Q 37.203125 6.109375 41.296875 11.75 
Q 45.40625 17.390625 45.40625 27.296875 
Q 45.40625 37.203125 41.296875 42.84375 
Q 37.203125 48.484375 30.078125 48.484375 
Q 22.953125 48.484375 18.875 42.84375 
Q 14.796875 37.203125 14.796875 27.296875 
z
" id="DejaVuSans-100"/>
     </defs>
     <g transform="translate(18.737188 238.822656)rotate(-90)scale(0.1 -0.1)">
      <use xlink:href="#DejaVuSans-65"/>
      <use x="68.408203" xlink:href="#DejaVuSans-109"/>
      <use x="165.820312" xlink:href="#DejaVuSans-112"/>
      <use x="229.296875" xlink:href="#DejaVuSans-108"/>
      <use x="257.080078" xlink:href="#DejaVuSans-105"/>
      <use x="284.863281" xlink:href="#DejaVuSans-116"/>
      <use x="324.072266" xlink:href="#DejaVuSans-117"/>
      <use x="387.451172" xlink:href="#DejaVuSans-100"/>
      <use x="450.927734" xlink:href="#DejaVuSans-101"/>
     </g>
    </g>
   </g>
   <g id="line2d_27">
    <path clip-path="url(#p97ec8ec411)" d="M 47.72 387.16 
L 53.558968 387.125115 
L 59.397937 386.881752 
L 65.236905 386.225579 
L 71.075873 384.9605 
L 76.914841 382.902611 
L 82.75381 379.883987 
L 88.592778 375.756216 
L 94.431746 370.393654 
L 100.270714 363.696328 
L 106.109683 355.59245 
L 111.948651 346.040507 
L 117.787619 335.030888 
L 123.626587 322.58702 
L 129.465556 308.765983 
L 135.304524 293.658611 
L 141.143492 277.38905 
L 146.98246 260.113781 
L 152.821429 242.02012 
L 158.660397 223.324195 
L 164.499365 204.268444 
L 170.338333 185.11864 
L 176.177302 166.160487 
L 182.01627 147.695839 
L 187.855238 130.038568 
L 193.694206 113.51015 
L 199.533175 98.435021 
L 205.372143 85.135758 
L 211.211111 73.928158 
L 217.050079 65.116274 
L 222.889048 58.987478 
L 228.728016 55.807619 
L 234.566984 55.807619 
L 240.405952 58.987478 
L 246.244921 65.116274 
L 252.083889 73.928158 
L 257.922857 85.135758 
L 263.761825 98.435021 
L 269.600794 113.51015 
L 275.439762 130.038568 
L 281.27873 147.695839 
L 287.117698 166.160487 
L 292.956667 185.11864 
L 298.795635 204.268444 
L 304.634603 223.324195 
L 310.473571 242.02012 
L 316.31254 260.113781 
L 322.151508 277.38905 
L 327.990476 293.658611 
L 333.829444 308.765983 
L 339.668413 322.58702 
L 345.507381 335.030888 
L 351.346349 346.040507 
L 357.185317 355.59245 
L 363.024286 363.696328 
L 368.863254 370.393654 
L 374.702222 375.756216 
L 380.54119 379.883987 
L 386.380159 382.902611 
L 392.219127 384.9605 
L 398.058095 386.225579 
L 403.897063 386.881752 
L 409.736032 387.125115 
L 415.575 387.16 
" style="fill:none;stroke:#0072bd;stroke-linecap:square;stroke-width:1.4;"/>
    <defs>
     <path d="M 0 1.5 
C 0.397805 1.5 0.77937 1.341951 1.06066 1.06066 
C 1.341951 0.77937 1.5 0.397805 1.5 0 
C 1.5 -0.397805 1.341951 -0.77937 1.06066 -1.06066 
C 0.77937 -1.341951 0.397805 -1.5 0 -1.5 
C -0.397805 -1.5 -0.77937 -1.341951 -1.06066 -1.06066 
C -1.341951 -0.77937 -1.5 -0.397805 -1.5 0 
C -1.5 0.397805 -1.341951 0.77937 -1.06066 1.06066 
C -0.77937 1.341951 -0.397805 1.5 0 1.5 
z
" id="m9246c89fba" style="stroke:#0072bd;"/>
    </defs>
    <g clip-path="url(#p97ec8ec411)">
     <use style="fill:#0072bd;stroke:#0072bd;" x="47.72" xlink:href="#m9246c89fba" y="387.16"/>
     <use style="fill:#0072bd;stroke:#0072bd;" x="53.558968" xlink:href="#m9246c89fba" y="387.125115"/>
     <use style="fill:#0072bd;stroke:#0072bd;" x="59.397937" xlink:href="#m9246c89fba" y="386.881752"/>
     <use style="fill:#0072bd;stroke:#0072bd;" x="65.236905" xlink:href="#m9246c89fba" y="386.225579"/>
     <use style="fill:#0072bd;stroke:#0072bd;" x="71.075873" xlink:href="#m9246c89fba" y="384.9605"/>
     <use style="fill:#0072bd;stroke:#0072bd;" x="76.914841" xlink:href="#m9246c89fba" y="382.902611"/>
     <use style="fill:#0072bd;stroke:#0072bd;" x="82.75381" xlink:href="#m9246c89fba" y="379.883987"/>
     <use style="fill:#0072bd;stroke:#0072bd;" x="88.592778" xlink:href="#m9246c89fba" y="375.756216"/>
     <use style="fill:#0072bd;stroke:#0072bd;" x="94.431746" xlink:href="#m9246c89fba" y="370.393654"/>
     <use style="fill:#0072bd;stroke:#0072bd;" x="100.270714" xlink:href="#m9246c89fba" y="363.696328"/>
     <use style="fill:#0072bd;stroke:#0072bd;" x="106.109683" xlink:href="#m9246c89fba" y="355.59245"/>
     <use style="fill:#0072bd;stroke:#0072bd;" x="111.948651" xlink:href="#m9246c89fba" y="346.040507"/>
     <use style="fill:#0072bd;stroke:#0072bd;" x="117.787619" xlink:href="#m9246c89fba" y="335.030888"/>
     <use style="fill:#0072bd;stroke:#0072bd;" x="123.626587" xlink:href="#m9246c89fba" y="322.58702"/>
     <use style="fill:#0072bd;stroke:#0072bd;" x="129.465556" xlink:href="#m9246c89fba" y="308.765983"/>
     <use style="fill:#0072bd;stroke:#0072bd;" x="135.304524" xlink:href="#m9246c89fba" y="293.658611"/>
     <use style="fill:#0072bd;stroke:#0072bd;" x="141.143492" xlink:href="#m9246c89fba" y="277.38905"/>
     <use style="fill:#0072bd;stroke:#0072bd;" x="146.98246" xlink:href="#m9246c89fba" y="260.113781"/>
     <use style="fill:#0072bd;stroke:#0072bd;" x="152.821429" xlink:href="#m9246c89fba" y="242.02012"/>
     <use style="fill:#0072bd;stroke:#0072bd;" x="158.660397" xlink:href="#m9246c89fba" y="223.324195"/>
     <use style="fill:#0072bd;stroke:#0072bd;" x="164.499365" xlink:href="#m9246c89fba" y="204.268444"/>
     <use style="fill:#0072bd;stroke:#0072bd;" x="170.338333" xlink:href="#m9246c89fba" y="185.11864"/>
     <use style="fill:#0072bd;stroke:#0072bd;" x="176.177302" xlink:href="#m9246c89fba" y="166.160487"/>
     <use style="fill:#0072bd;stroke:#0072bd;" x="182.01627" xlink:href="#m9246c89fba" y="147.695839"/>
     <use style="fill:#0072bd;stroke:#0072bd;" x="187.855238" xlink:href="#m9246c89fba" y="130.038568"/>
     <use style="fill:#0072bd;stroke:#0072bd;" x="193.694206" xlink:href="#m9246c89fba" y="113.51015"/>
     <use style="fill:#0072bd;stroke:#0072bd;" x="199.533175" xlink:href="#m9246c89fba" y="98.435021"/>
     <use style="fill:#0072bd;stroke:#0072bd;" x="205.372143" xlink:href="#m9246c89fba" y="85.135758"/>
     <use style="fill:#0072bd;stroke:#0072bd;" x="211.211111" xlink:href="#m9246c89fba" y="73.928158"/>
     <use style="fill:#0072bd;stroke:#0072bd;" x="217.050079" xlink:href="#m9246c89fba" y="65.116274"/>
     <use style="fill:#0072bd;stroke:#0072bd;" x="222.889048" xlink:href="#m9246c89fba" y="58.987478"/>
     <use style="fill:#0072bd;stroke:#0072bd;" x="228.728016" xlink:href="#m9246c89fba" y="55.807619"/>
     <use style="fill:#0072bd;stroke:#0072bd;" x="234.566984" xlink:href="#m9246c89fba" y="55.807619"/>
     <use style="fill:#0072bd;stroke:#0072bd;" x="240.405952" xlink:href="#m9246c89fba" y="58.987478"/>
     <use style="fill:#0072bd;stroke:#0072bd;" x="246.244921" xlink:href="#m9246c89fba" y="65.116274"/>
     <use style="fill:#0072bd;stroke:#0072bd;" x="252.083889" xlink:href="#m9246c89fba" y="73.928158"/>
     <use style="fill:#0072bd;stroke:#0072bd;" x="257.922857" xlink:href="#m9246c89fba" y="85.135758"/>
     <use style="fill:#0072bd;stroke:#0072bd;" x="263.761825" xlink:href="#m9246c89fba" y="98.435021"/>
     <use style="fill:#0072bd;stroke:#0072bd;" x="269.600794" xlink:href="#m9246c89fba" y="113.51015"/>
     <use style="fill:#0072bd;stroke:#0072bd;" x="275.439762" xlink:href="#m9246c89fba" y="130.038568"/>
     <use style="fill:#0072bd;stroke:#0072bd;" x="281.27873" xlink:href="#m9246c89fba" y="147.695839"/>
     <use style="fill:#0072bd;stroke:#0072bd;" x="287.117698" xlink:href="#m9246c89fba" y="166.160487"/>
     <use style="fill:#0072bd;stroke:#0072bd;" x="292.956667" xlink:href="#m9246c89fba" y="185.11864"/>
     <use style="fill:#0072bd;stroke:#0072bd;" x="298.795635" xlink:href="#m9246c89fba" y="204.268444"/>
     <use style="fill:#0072bd;stroke:#0072bd;" x="304.634603" xlink:href="#m9246c89fba" y="223.324195"/>
     <use style="fill:#0072bd;stroke:#0072bd;" x="310.473571" xlink:href="#m9246c89fba" y="242.02012"/>
     <use style="fill:#0072bd;stroke:#0072bd;" x="316.31254" xlink:href="#m9246c89fba" y="260.113781"/>
     <use style="fill:#0072bd;stroke:#0072bd;" x="322.151508" xlink:href="#m9246c89fba" y="277.38905"/>
     <use style="fill:#0072bd;stroke:#0072bd;" x="327.990476" xlink:href="#m9246c89fba" y="293.658611"/>
     <use style="fill:#0072bd;stroke:#0072bd;" x="333.829444" xlink:href="#m9246c89fba" y="308.765983"/>
     <use style="fill:#0072bd;stroke:#0072bd;" x="339.668413" xlink:href="#m9246c89fba" y="322.58702"/>
     <use style="fill:#0072bd;stroke:#0072bd;" x="345.507381" xlink:href="#m9246c89fba" y="335.030888"/>
     <use style="fill:#0072bd;stroke:#0072bd;" x="351.346349" xlink:href="#m9246c89fba" y="346.040507"/>
     <use style="fill:#0072bd;stroke:#0072bd;" x="357.185317" xlink:href="#m9246c89fba" y="355.59245"/>
     <use style="fill:#0072bd;stroke:#0072bd;" x="363.024286" xlink:href="#m9246c89fba" y="363.696328"/>
     <use style="fill:#0072bd;stroke:#0072bd;" x="368.863254" xlink:href="#m9246c89fba" y="370.393654"/>
     <use style="fill:#0072bd;stroke:#0072bd;" x="374.702222" xlink:href="#m9246c89fba" y="375.756216"/>
     <use style="fill:#0072bd;stroke:#0072bd;" x="380.54119" xlink:href="#m9246c89fba" y="379.883987"/>
     <use style="fill:#0072bd;stroke:#0072bd;" x="386.380159" xlink:href="#m9246c89fba" y="382.902611"/>
     <use style="fill:#0072bd;stroke:#0072bd;" x="392.219127" xlink:href="#m9246c89fba" y="384.9605"/>
     <use style="fill:#0072bd;stroke:#0072bd;" x="398.058095" xlink:href="#m9246c89fba" y="386.225579"/>
     <use style="fill:#0072bd;stroke:#0072bd;" x="403.897063" xlink:href="#m9246c89fba" y="386.881752"/>
     <use style="fill:#0072bd;stroke:#0072bd;" x="409.736032" xlink:href="#m9246c89fba" y="387.125115"/>
     <use style="fill:#0072bd;stroke:#0072bd;" x="415.575" xlink:href="#m9246c89fba" y="387.16"/>
    </g>
   </g>
   <g id="patch_3">
    <path d="M 47.72 387.16 
L 47.72 39.24 
" style="fill:none;stroke:#000000;stroke-linecap:square;stroke-linejoin:miter;stroke-width:0.8;"/>
   </g>
   <g id="patch_4">
    <path d="M 415.575 387.16 
L 415.575 39.24 
" style="fill:none;stroke:#000000;stroke-linecap:square;stroke-linejoin:miter;stroke-width:0.8;"/>
   </g>
   <g id="patch_5">
    <path d="M 47.72 387.16 
L 415.575 387.16 
" style="fill:none;stroke:#000000;stroke-linecap:square;stroke-linejoin:miter;stroke-width:0.8;"/>
   </g>
   <g id="patch_6">
    <path d="M 47.72 39.24 
L 415.575 39.24 
" style="fill:none;stroke:#000000;stroke-linecap:square;stroke-linejoin:miter;stroke-width:0.8;"/>
   </g>
  </g>
  <g id="axes_2">
   <g id="patch_7">
    <path d="M 477.425 387.16 
L 845.28 387.16 
L 845.28 39.24 
L 477.425 39.24 
z
" style="fill:#ffffff;"/>
   </g>
   <g id="matplotlib.axis_3">
    <g id="xtick_8">
     <g id="line2d_28">
      <path clip-path="url(#p88d3f29b79)" d="M 477.425 387.16 
L 477.425 39.24 
" style="fill:none;stroke:#777777;stroke-linecap:square;stroke-width:0.8;"/>
     </g>
     <g id="line2d_29">
      <g>
       <use style="stroke:#000000;stroke-width:0.8;" x="477.425" xlink:href="#me300e42347" y="387.16"/>
      </g>
     </g>
     <g id="text_16">
      <!-- 0.0 -->
      <g transform="translate(469.473437 401.758438)scale(0.1 -0.1)">
       <use xlink:href="#DejaVuSans-48"/>
       <use x="63.623047" xlink:href="#DejaVuSans-46"/>
       <use x="95.410156" xlink:href="#DejaVuSans-48"/>
      </g>
     </g>
    </g>
    <g id="xtick_9">
     <g id="line2d_30">
      <path clip-path="url(#p88d3f29b79)" d="M 550.996 387.16 
L 550.996 39.24 
" style="fill:none;stroke:#777777;stroke-linecap:square;stroke-width:0.8;"/>
     </g>
     <g id="line2d_31">
      <g>
       <use style="stroke:#000000;stroke-width:0.8;" x="550.996" xlink:href="#me300e42347" y="387.16"/>
      </g>
     </g>
     <g id="text_17">
      <!-- 0.2 -->
      <g transform="translate(543.044437 401.758438)scale(0.1 -0.1)">
       <use xlink:href="#DejaVuSans-48"/>
       <use x="63.623047" xlink:href="#DejaVuSans-46"/>
       <use x="95.410156" xlink:href="#DejaVuSans-50"/>
      </g>
     </g>
    </g>
    <g id="xtick_10">
     <g id="line2d_32">
      <path clip-path="url(#p88d3f29b79)" d="M 624.567 387.16 
L 624.567 39.24 
" style="fill:none;stroke:#777777;stroke-linecap:square;stroke-width:0.8;"/>
     </g>
     <g id="line2d_33">
      <g>
       <use style="stroke:#000000;stroke-width:0.8;" x="624.567" xlink:href="#me300e42347" y="387.16"/>
      </g>
     </g>
     <g id="text_18">
      <!-- 0.4 -->
      <g transform="translate(616.615437 401.758438)scale(0.1 -0.1)">
       <use xlink:href="#DejaVuSans-48"/>
       <use x="63.623047" xlink:href="#DejaVuSans-46"/>
       <use x="95.410156" xlink:href="#DejaVuSans-52"/>
      </g>
     </g>
    </g>
    <g id="xtick_11">
     <g id="line2d_34">
      <path clip-path="url(#p88d3f29b79)" d="M 698.138 387.16 
L 698.138 39.24 
" style="fill:none;stroke:#777777;stroke-linecap:square;stroke-width:0.8;"/>
     </g>
     <g id="line2d_35">
      <g>
       <use style="stroke:#000000;stroke-width:0.8;" x="698.138" xlink:href="#me300e42347" y="387.16"/>
      </g>
     </g>
     <g id="text_19">
      <!-- 0.6 -->
      <g transform="translate(690.186438 401.758438)scale(0.1 -0.1)">
       <use xlink:href="#DejaVuSans-48"/>
       <use x="63.623047" xlink:href="#DejaVuSans-46"/>
       <use x="95.410156" xlink:href="#DejaVuSans-54"/>
      </g>
     </g>
    </g>
    <g id="xtick_12">
     <g id="line2d_36">
      <path clip-path="url(#p88d3f29b79)" d="M 771.709 387.16 
L 771.709 39.24 
" style="fill:none;stroke:#777777;stroke-linecap:square;stroke-width:0.8;"/>
     </g>
     <g id="line2d_37">
      <g>
       <use style="stroke:#000000;stroke-width:0.8;" x="771.709" xlink:href="#me300e42347" y="387.16"/>
      </g>
     </g>
     <g id="text_20">
      <!-- 0.8 -->
      <g transform="translate(763.757438 401.758438)scale(0.1 -0.1)">
       <use xlink:href="#DejaVuSans-48"/>
       <use x="63.623047" xlink:href="#DejaVuSans-46"/>
       <use x="95.410156" xlink:href="#DejaVuSans-56"/>
      </g>
     </g>
    </g>
    <g id="xtick_13">
     <g id="line2d_38">
      <path clip-path="url(#p88d3f29b79)" d="M 845.28 387.16 
L 845.28 39.24 
" style="fill:none;stroke:#777777;stroke-linecap:square;stroke-width:0.8;"/>
     </g>
     <g id="line2d_39">
      <g>
       <use style="stroke:#000000;stroke-width:0.8;" x="845.28" xlink:href="#me300e42347" y="387.16"/>
      </g>
     </g>
     <g id="text_21">
      <!-- 1.0 -->
      <g transform="translate(837.328438 401.758438)scale(0.1 -0.1)">
       <use xlink:href="#DejaVuSans-49"/>
       <use x="63.623047" xlink:href="#DejaVuSans-46"/>
       <use x="95.410156" xlink:href="#DejaVuSans-48"/>
      </g>
     </g>
    </g>
    <g id="text_22">
     <!-- Normalized Frequency ($\times \pi$ rad/sample) -->
     <defs>
      <path d="M 9.8125 72.90625 
L 23.09375 72.90625 
L 55.421875 11.921875 
L 55.421875 72.90625 
L 64.984375 72.90625 
L 64.984375 0 
L 51.703125 0 
L 19.390625 60.984375 
L 19.390625 0 
L 9.8125 0 
z
" id="DejaVuSans-78"/>
      <path d="M 30.609375 48.390625 
Q 23.390625 48.390625 19.1875 42.75 
Q 14.984375 37.109375 14.984375 27.296875 
Q 14.984375 17.484375 19.15625 11.84375 
Q 23.34375 6.203125 30.609375 6.203125 
Q 37.796875 6.203125 41.984375 11.859375 
Q 46.1875 17.53125 46.1875 27.296875 
Q 46.1875 37.015625 41.984375 42.703125 
Q 37.796875 48.390625 30.609375 48.390625 
z
M 30.609375 56 
Q 42.328125 56 49.015625 48.375 
Q 55.71875 40.765625 55.71875 27.296875 
Q 55.71875 13.875 49.015625 6.21875 
Q 42.328125 -1.421875 30.609375 -1.421875 
Q 18.84375 -1.421875 12.171875 6.21875 
Q 5.515625 13.875 5.515625 27.296875 
Q 5.515625 40.765625 12.171875 48.375 
Q 18.84375 56 30.609375 56 
z
" id="DejaVuSans-111"/>
      <path d="M 41.109375 46.296875 
Q 39.59375 47.171875 37.8125 47.578125 
Q 36.03125 48 33.890625 48 
Q 26.265625 48 22.1875 43.046875 
Q 18.109375 38.09375 18.109375 28.8125 
L 18.109375 0 
L 9.078125 0 
L 9.078125 54.6875 
L 18.109375 54.6875 
L 18.109375 46.1875 
Q 20.953125 51.171875 25.484375 53.578125 
Q 30.03125 56 36.53125 56 
Q 37.453125 56 38.578125 55.875 
Q 39.703125 55.765625 41.0625 55.515625 
z
" id="DejaVuSans-114"/>
      <path d="M 5.515625 54.6875 
L 48.1875 54.6875 
L 48.1875 46.484375 
L 14.40625 7.171875 
L 48.1875 7.171875 
L 48.1875 0 
L 4.296875 0 
L 4.296875 8.203125 
L 38.09375 47.515625 
L 5.515625 47.515625 
z
" id="DejaVuSans-122"/>
      <path id="DejaVuSans-32"/>
      <path d="M 9.8125 72.90625 
L 51.703125 72.90625 
L 51.703125 64.59375 
L 19.671875 64.59375 
L 19.671875 43.109375 
L 48.578125 43.109375 
L 48.578125 34.8125 
L 19.671875 34.8125 
L 19.671875 0 
L 9.8125 0 
z
" id="DejaVuSans-70"/>
      <path d="M 14.796875 27.296875 
Q 14.796875 17.390625 18.875 11.75 
Q 22.953125 6.109375 30.078125 6.109375 
Q 37.203125 6.109375 41.296875 11.75 
Q 45.40625 17.390625 45.40625 27.296875 
Q 45.40625 37.203125 41.296875 42.84375 
Q 37.203125 48.484375 30.078125 48.484375 
Q 22.953125 48.484375 18.875 42.84375 
Q 14.796875 37.203125 14.796875 27.296875 
z
M 45.40625 8.203125 
Q 42.578125 3.328125 38.25 0.953125 
Q 33.9375 -1.421875 27.875 -1.421875 
Q 17.96875 -1.421875 11.734375 6.484375 
Q 5.515625 14.40625 5.515625 27.296875 
Q 5.515625 40.1875 11.734375 48.09375 
Q 17.96875 56 27.875 56 
Q 33.9375 56 38.25 53.625 
Q 42.578125 51.265625 45.40625 46.390625 
L 45.40625 54.6875 
L 54.390625 54.6875 
L 54.390625 -20.796875 
L 45.40625 -20.796875 
z
" id="DejaVuSans-113"/>
      <path d="M 54.890625 33.015625 
L 54.890625 0 
L 45.90625 0 
L 45.90625 32.71875 
Q 45.90625 40.484375 42.875 44.328125 
Q 39.84375 48.1875 33.796875 48.1875 
Q 26.515625 48.1875 22.3125 43.546875 
Q 18.109375 38.921875 18.109375 30.90625 
L 18.109375 0 
L 9.078125 0 
L 9.078125 54.6875 
L 18.109375 54.6875 
L 18.109375 46.1875 
Q 21.34375 51.125 25.703125 53.5625 
Q 30.078125 56 35.796875 56 
Q 45.21875 56 50.046875 50.171875 
Q 54.890625 44.34375 54.890625 33.015625 
z
" id="DejaVuSans-110"/>
      <path d="M 48.78125 52.59375 
L 48.78125 44.1875 
Q 44.96875 46.296875 41.140625 47.34375 
Q 37.3125 48.390625 33.40625 48.390625 
Q 24.65625 48.390625 19.8125 42.84375 
Q 14.984375 37.3125 14.984375 27.296875 
Q 14.984375 17.28125 19.8125 11.734375 
Q 24.65625 6.203125 33.40625 6.203125 
Q 37.3125 6.203125 41.140625 7.25 
Q 44.96875 8.296875 48.78125 10.40625 
L 48.78125 2.09375 
Q 45.015625 0.34375 40.984375 -0.53125 
Q 36.96875 -1.421875 32.421875 -1.421875 
Q 20.0625 -1.421875 12.78125 6.34375 
Q 5.515625 14.109375 5.515625 27.296875 
Q 5.515625 40.671875 12.859375 48.328125 
Q 20.21875 56 33.015625 56 
Q 37.15625 56 41.109375 55.140625 
Q 45.0625 54.296875 48.78125 52.59375 
z
" id="DejaVuSans-99"/>
      <path d="M 32.171875 -5.078125 
Q 28.375 -14.84375 24.75 -17.8125 
Q 21.140625 -20.796875 15.09375 -20.796875 
L 7.90625 -20.796875 
L 7.90625 -13.28125 
L 13.1875 -13.28125 
Q 16.890625 -13.28125 18.9375 -11.515625 
Q 21 -9.765625 23.484375 -3.21875 
L 25.09375 0.875 
L 2.984375 54.6875 
L 12.5 54.6875 
L 29.59375 11.921875 
L 46.6875 54.6875 
L 56.203125 54.6875 
z
" id="DejaVuSans-121"/>
      <path d="M 31 75.875 
Q 24.46875 64.65625 21.28125 53.65625 
Q 18.109375 42.671875 18.109375 31.390625 
Q 18.109375 20.125 21.3125 9.0625 
Q 24.515625 -2 31 -13.1875 
L 23.1875 -13.1875 
Q 15.875 -1.703125 12.234375 9.375 
Q 8.59375 20.453125 8.59375 31.390625 
Q 8.59375 42.28125 12.203125 53.3125 
Q 15.828125 64.359375 23.1875 75.875 
z
" id="DejaVuSans-40"/>
      <path d="M 70.125 53.71875 
L 47.796875 31.296875 
L 70.125 8.984375 
L 64.3125 3.078125 
L 41.890625 25.484375 
L 19.484375 3.078125 
L 13.71875 8.984375 
L 35.984375 31.296875 
L 13.71875 53.71875 
L 19.484375 59.625 
L 41.890625 37.203125 
L 64.3125 59.625 
z
" id="DejaVuSans-215"/>
      <path d="M 9.125 54.6875 
L 61.53125 54.6875 
L 59.765625 45.703125 
L 52.875 45.703125 
L 46.34375 12.109375 
Q 45.65625 8.59375 46.578125 7.03125 
Q 47.46875 5.515625 50.140625 5.515625 
Q 50.875 5.515625 51.953125 5.671875 
Q 53.078125 5.765625 53.421875 5.8125 
L 52.15625 -0.6875 
Q 50.34375 -1.3125 48.484375 -1.609375 
Q 46.578125 -1.90625 44.78125 -1.90625 
Q 38.921875 -1.90625 37.3125 1.265625 
Q 35.6875 4.5 37.359375 13.09375 
L 43.703125 45.703125 
L 23.53125 45.703125 
L 14.65625 0 
L 5.46875 0 
L 14.359375 45.703125 
L 7.375 45.703125 
z
" id="DejaVuSans-Oblique-960"/>
      <path d="M 25.390625 72.90625 
L 33.6875 72.90625 
L 8.296875 -9.28125 
L 0 -9.28125 
z
" id="DejaVuSans-47"/>
      <path d="M 8.015625 75.875 
L 15.828125 75.875 
Q 23.140625 64.359375 26.78125 53.3125 
Q 30.421875 42.28125 30.421875 31.390625 
Q 30.421875 20.453125 26.78125 9.375 
Q 23.140625 -1.703125 15.828125 -13.1875 
L 8.015625 -13.1875 
Q 14.5 -2 17.703125 9.0625 
Q 20.90625 20.125 20.90625 31.390625 
Q 20.90625 42.671875 17.703125 53.65625 
Q 14.5 64.65625 8.015625 75.875 
z
" id="DejaVuSans-41"/>
     </defs>
     <g transform="translate(562.5525 415.438125)scale(0.1 -0.1)">
      <use transform="translate(0 0.015625)" xlink:href="#DejaVuSans-78"/>
      <use transform="translate(74.804688 0.015625)" xlink:href="#DejaVuSans-111"/>
      <use transform="translate(135.986328 0.015625)" xlink:href="#DejaVuSans-114"/>
      <use transform="translate(177.099609 0.015625)" xlink:href="#DejaVuSans-109"/>
      <use transform="translate(274.511719 0.015625)" xlink:href="#DejaVuSans-97"/>
      <use transform="translate(335.791016 0.015625)" xlink:href="#DejaVuSans-108"/>
      <use transform="translate(363.574219 0.015625)" xlink:href="#DejaVuSans-105"/>
      <use transform="translate(391.357422 0.015625)" xlink:href="#DejaVuSans-122"/>
      <use transform="translate(443.847656 0.015625)" xlink:href="#DejaVuSans-101"/>
      <use transform="translate(505.371094 0.015625)" xlink:href="#DejaVuSans-100"/>
      <use transform="translate(568.847656 0.015625)" xlink:href="#DejaVuSans-32"/>
      <use transform="translate(600.634766 0.015625)" xlink:href="#DejaVuSans-70"/>
      <use transform="translate(658.154297 0.015625)" xlink:href="#DejaVuSans-114"/>
      <use transform="translate(699.267578 0.015625)" xlink:href="#DejaVuSans-101"/>
      <use transform="translate(760.791016 0.015625)" xlink:href="#DejaVuSans-113"/>
      <use transform="translate(824.267578 0.015625)" xlink:href="#DejaVuSans-117"/>
      <use transform="translate(887.646484 0.015625)" xlink:href="#DejaVuSans-101"/>
      <use transform="translate(949.169922 0.015625)" xlink:href="#DejaVuSans-110"/>
      <use transform="translate(1012.548828 0.015625)" xlink:href="#DejaVuSans-99"/>
      <use transform="translate(1067.529297 0.015625)" xlink:href="#DejaVuSans-121"/>
      <use transform="translate(1126.708984 0.015625)" xlink:href="#DejaVuSans-32"/>
      <use transform="translate(1158.496094 0.015625)" xlink:href="#DejaVuSans-40"/>
      <use transform="translate(1197.509766 0.015625)" xlink:href="#DejaVuSans-215"/>
      <use transform="translate(1281.298828 0.015625)" xlink:href="#DejaVuSans-Oblique-960"/>
      <use transform="translate(1341.503906 0.015625)" xlink:href="#DejaVuSans-32"/>
      <use transform="translate(1373.291016 0.015625)" xlink:href="#DejaVuSans-114"/>
      <use transform="translate(1414.404297 0.015625)" xlink:href="#DejaVuSans-97"/>
      <use transform="translate(1475.683594 0.015625)" xlink:href="#DejaVuSans-100"/>
      <use transform="translate(1539.160156 0.015625)" xlink:href="#DejaVuSans-47"/>
      <use transform="translate(1572.851562 0.015625)" xlink:href="#DejaVuSans-115"/>
      <use transform="translate(1624.951172 0.015625)" xlink:href="#DejaVuSans-97"/>
      <use transform="translate(1686.230469 0.015625)" xlink:href="#DejaVuSans-109"/>
      <use transform="translate(1783.642578 0.015625)" xlink:href="#DejaVuSans-112"/>
      <use transform="translate(1847.119141 0.015625)" xlink:href="#DejaVuSans-108"/>
      <use transform="translate(1874.902344 0.015625)" xlink:href="#DejaVuSans-101"/>
      <use transform="translate(1936.425781 0.015625)" xlink:href="#DejaVuSans-41"/>
     </g>
    </g>
   </g>
   <g id="matplotlib.axis_4">
    <g id="ytick_7">
     <g id="line2d_40">
      <path clip-path="url(#p88d3f29b79)" d="M 477.425 347.599927 
L 845.28 347.599927 
" style="fill:none;stroke:#777777;stroke-linecap:square;stroke-width:0.8;"/>
     </g>
     <g id="line2d_41">
      <g>
       <use style="stroke:#000000;stroke-width:0.8;" x="477.425" xlink:href="#m3dd7fb2a9f" y="347.599927"/>
      </g>
     </g>
     <g id="text_23">
      <!-- −150 -->
      <defs>
       <path d="M 10.59375 35.5 
L 73.1875 35.5 
L 73.1875 27.203125 
L 10.59375 27.203125 
z
" id="DejaVuSans-8722"/>
      </defs>
      <g transform="translate(442.957812 351.399146)scale(0.1 -0.1)">
       <use xlink:href="#DejaVuSans-8722"/>
       <use x="83.789062" xlink:href="#DejaVuSans-49"/>
       <use x="147.412109" xlink:href="#DejaVuSans-53"/>
       <use x="211.035156" xlink:href="#DejaVuSans-48"/>
      </g>
     </g>
    </g>
    <g id="ytick_8">
     <g id="line2d_42">
      <path clip-path="url(#p88d3f29b79)" d="M 477.425 306.544848 
L 845.28 306.544848 
" style="fill:none;stroke:#777777;stroke-linecap:square;stroke-width:0.8;"/>
     </g>
     <g id="line2d_43">
      <g>
       <use style="stroke:#000000;stroke-width:0.8;" x="477.425" xlink:href="#m3dd7fb2a9f" y="306.544848"/>
      </g>
     </g>
     <g id="text_24">
      <!-- −125 -->
      <g transform="translate(442.957812 310.344067)scale(0.1 -0.1)">
       <use xlink:href="#DejaVuSans-8722"/>
       <use x="83.789062" xlink:href="#DejaVuSans-49"/>
       <use x="147.412109" xlink:href="#DejaVuSans-50"/>
       <use x="211.035156" xlink:href="#DejaVuSans-53"/>
      </g>
     </g>
    </g>
    <g id="ytick_9">
     <g id="line2d_44">
      <path clip-path="url(#p88d3f29b79)" d="M 477.425 265.489769 
L 845.28 265.489769 
" style="fill:none;stroke:#777777;stroke-linecap:square;stroke-width:0.8;"/>
     </g>
     <g id="line2d_45">
      <g>
       <use style="stroke:#000000;stroke-width:0.8;" x="477.425" xlink:href="#m3dd7fb2a9f" y="265.489769"/>
      </g>
     </g>
     <g id="text_25">
      <!-- −100 -->
      <g transform="translate(442.957812 269.288988)scale(0.1 -0.1)">
       <use xlink:href="#DejaVuSans-8722"/>
       <use x="83.789062" xlink:href="#DejaVuSans-49"/>
       <use x="147.412109" xlink:href="#DejaVuSans-48"/>
       <use x="211.035156" xlink:href="#DejaVuSans-48"/>
      </g>
     </g>
    </g>
    <g id="ytick_10">
     <g id="line2d_46">
      <path clip-path="url(#p88d3f29b79)" d="M 477.425 224.43469 
L 845.28 224.43469 
" style="fill:none;stroke:#777777;stroke-linecap:square;stroke-width:0.8;"/>
     </g>
     <g id="line2d_47">
      <g>
       <use style="stroke:#000000;stroke-width:0.8;" x="477.425" xlink:href="#m3dd7fb2a9f" y="224.43469"/>
      </g>
     </g>
     <g id="text_26">
      <!-- −75 -->
      <defs>
       <path d="M 8.203125 72.90625 
L 55.078125 72.90625 
L 55.078125 68.703125 
L 28.609375 0 
L 18.3125 0 
L 43.21875 64.59375 
L 8.203125 64.59375 
z
" id="DejaVuSans-55"/>
      </defs>
      <g transform="translate(449.320312 228.233909)scale(0.1 -0.1)">
       <use xlink:href="#DejaVuSans-8722"/>
       <use x="83.789062" xlink:href="#DejaVuSans-55"/>
       <use x="147.412109" xlink:href="#DejaVuSans-53"/>
      </g>
     </g>
    </g>
    <g id="ytick_11">
     <g id="line2d_48">
      <path clip-path="url(#p88d3f29b79)" d="M 477.425 183.379611 
L 845.28 183.379611 
" style="fill:none;stroke:#777777;stroke-linecap:square;stroke-width:0.8;"/>
     </g>
     <g id="line2d_49">
      <g>
       <use style="stroke:#000000;stroke-width:0.8;" x="477.425" xlink:href="#m3dd7fb2a9f" y="183.379611"/>
      </g>
     </g>
     <g id="text_27">
      <!-- −50 -->
      <g transform="translate(449.320312 187.17883)scale(0.1 -0.1)">
       <use xlink:href="#DejaVuSans-8722"/>
       <use x="83.789062" xlink:href="#DejaVuSans-53"/>
       <use x="147.412109" xlink:href="#DejaVuSans-48"/>
      </g>
     </g>
    </g>
    <g id="ytick_12">
     <g id="line2d_50">
      <path clip-path="url(#p88d3f29b79)" d="M 477.425 142.324532 
L 845.28 142.324532 
" style="fill:none;stroke:#777777;stroke-linecap:square;stroke-width:0.8;"/>
     </g>
     <g id="line2d_51">
      <g>
       <use style="stroke:#000000;stroke-width:0.8;" x="477.425" xlink:href="#m3dd7fb2a9f" y="142.324532"/>
      </g>
     </g>
     <g id="text_28">
      <!-- −25 -->
      <g transform="translate(449.320312 146.123751)scale(0.1 -0.1)">
       <use xlink:href="#DejaVuSans-8722"/>
       <use x="83.789062" xlink:href="#DejaVuSans-50"/>
       <use x="147.412109" xlink:href="#DejaVuSans-53"/>
      </g>
     </g>
    </g>
    <g id="ytick_13">
     <g id="line2d_52">
      <path clip-path="url(#p88d3f29b79)" d="M 477.425 101.269453 
L 845.28 101.269453 
" style="fill:none;stroke:#777777;stroke-linecap:square;stroke-width:0.8;"/>
     </g>
     <g id="line2d_53">
      <g>
       <use style="stroke:#000000;stroke-width:0.8;" x="477.425" xlink:href="#m3dd7fb2a9f" y="101.269453"/>
      </g>
     </g>
     <g id="text_29">
      <!-- 0 -->
      <g transform="translate(464.0625 105.068672)scale(0.1 -0.1)">
       <use xlink:href="#DejaVuSans-48"/>
      </g>
     </g>
    </g>
    <g id="ytick_14">
     <g id="line2d_54">
      <path clip-path="url(#p88d3f29b79)" d="M 477.425 60.214374 
L 845.28 60.214374 
" style="fill:none;stroke:#777777;stroke-linecap:square;stroke-width:0.8;"/>
     </g>
     <g id="line2d_55">
      <g>
       <use style="stroke:#000000;stroke-width:0.8;" x="477.425" xlink:href="#m3dd7fb2a9f" y="60.214374"/>
      </g>
     </g>
     <g id="text_30">
      <!-- 25 -->
      <g transform="translate(457.7 64.013593)scale(0.1 -0.1)">
       <use xlink:href="#DejaVuSans-50"/>
       <use x="63.623047" xlink:href="#DejaVuSans-53"/>
      </g>
     </g>
    </g>
    <g id="text_31">
     <!-- Gain (dB) -->
     <defs>
      <path d="M 59.515625 10.40625 
L 59.515625 29.984375 
L 43.40625 29.984375 
L 43.40625 38.09375 
L 69.28125 38.09375 
L 69.28125 6.78125 
Q 63.578125 2.734375 56.6875 0.65625 
Q 49.8125 -1.421875 42 -1.421875 
Q 24.90625 -1.421875 15.25 8.5625 
Q 5.609375 18.5625 5.609375 36.375 
Q 5.609375 54.25 15.25 64.234375 
Q 24.90625 74.21875 42 74.21875 
Q 49.125 74.21875 55.546875 72.453125 
Q 61.96875 70.703125 67.390625 67.28125 
L 67.390625 56.78125 
Q 61.921875 61.421875 55.765625 63.765625 
Q 49.609375 66.109375 42.828125 66.109375 
Q 29.4375 66.109375 22.71875 58.640625 
Q 16.015625 51.171875 16.015625 36.375 
Q 16.015625 21.625 22.71875 14.15625 
Q 29.4375 6.6875 42.828125 6.6875 
Q 48.046875 6.6875 52.140625 7.59375 
Q 56.25 8.5 59.515625 10.40625 
z
" id="DejaVuSans-71"/>
      <path d="M 19.671875 34.8125 
L 19.671875 8.109375 
L 35.5 8.109375 
Q 43.453125 8.109375 47.28125 11.40625 
Q 51.125 14.703125 51.125 21.484375 
Q 51.125 28.328125 47.28125 31.5625 
Q 43.453125 34.8125 35.5 34.8125 
z
M 19.671875 64.796875 
L 19.671875 42.828125 
L 34.28125 42.828125 
Q 41.5 42.828125 45.03125 45.53125 
Q 48.578125 48.25 48.578125 53.8125 
Q 48.578125 59.328125 45.03125 62.0625 
Q 41.5 64.796875 34.28125 64.796875 
z
M 9.8125 72.90625 
L 35.015625 72.90625 
Q 46.296875 72.90625 52.390625 68.21875 
Q 58.5 63.53125 58.5 54.890625 
Q 58.5 48.1875 55.375 44.234375 
Q 52.25 40.28125 46.1875 39.3125 
Q 53.46875 37.75 57.5 32.78125 
Q 61.53125 27.828125 61.53125 20.40625 
Q 61.53125 10.640625 54.890625 5.3125 
Q 48.25 0 35.984375 0 
L 9.8125 0 
z
" id="DejaVuSans-66"/>
     </defs>
     <g transform="translate(436.878125 236.791406)rotate(-90)scale(0.1 -0.1)">
      <use xlink:href="#DejaVuSans-71"/>
      <use x="77.490234" xlink:href="#DejaVuSans-97"/>
      <use x="138.769531" xlink:href="#DejaVuSans-105"/>
      <use x="166.552734" xlink:href="#DejaVuSans-110"/>
      <use x="229.931641" xlink:href="#DejaVuSans-32"/>
      <use x="261.71875" xlink:href="#DejaVuSans-40"/>
      <use x="300.732422" xlink:href="#DejaVuSans-100"/>
      <use x="364.208984" xlink:href="#DejaVuSans-66"/>
      <use x="432.8125" xlink:href="#DejaVuSans-41"/>
     </g>
    </g>
   </g>
   <g id="line2d_56">
    <path clip-path="url(#p88d3f29b79)" d="M 477.425 55.054545 
L 478.861934 55.155536 
L 480.298867 55.459085 
L 481.735801 55.966947 
L 483.172734 56.682105 
L 484.609668 57.608864 
L 486.046602 58.752993 
L 487.483535 60.121921 
L 488.920469 61.725012 
L 490.357402 63.573936 
L 491.794336 65.683174 
L 493.23127 68.070717 
L 494.668203 70.759041 
L 496.105137 73.776491 
L 497.54207 77.159318 
L 498.979004 80.954731 
L 500.415938 85.225678 
L 501.852871 90.05866 
L 503.289805 95.577248 
L 504.726738 101.96717 
L 506.163672 109.527411 
L 507.600605 118.788502 
L 508.319072 124.356433 
L 509.037539 130.843526 
L 509.756006 138.665223 
L 510.474473 148.627003 
L 511.192939 162.649594 
L 511.911406 187.830965 
L 512.629873 222.528959 
L 513.34834 176.628809 
L 514.066807 161.147642 
L 514.785273 152.08389 
L 515.50374 145.942599 
L 516.222207 141.500642 
L 516.940674 138.185751 
L 517.659141 135.684685 
L 518.377607 133.80819 
L 519.096074 132.434056 
L 519.814541 131.479679 
L 520.533008 130.887519 
L 521.251475 130.616859 
L 521.969941 130.638871 
L 522.688408 130.933586 
L 523.406875 131.487998 
L 524.125342 132.294922 
L 524.843809 133.352377 
L 525.562275 134.663386 
L 526.280742 136.236168 
L 527.717676 140.230091 
L 529.154609 145.541935 
L 530.591543 152.583944 
L 531.31001 156.991129 
L 532.028477 162.21792 
L 532.746943 168.574124 
L 533.46541 176.622797 
L 534.183877 187.559835 
L 534.902344 204.770182 
L 535.620811 251.288991 
L 536.339277 222.144011 
L 537.057744 198.168754 
L 537.776211 186.039195 
L 538.494678 178.117654 
L 539.213145 172.410703 
L 539.931611 168.09393 
L 540.650078 164.746474 
L 541.368545 162.125046 
L 542.087012 160.077068 
L 542.805479 158.501343 
L 543.523945 157.328149 
L 544.242412 156.508291 
L 544.960879 156.006723 
L 545.679346 155.798671 
L 546.397812 155.867214 
L 547.116279 156.201799 
L 547.834746 156.797367 
L 548.553213 157.653949 
L 549.27168 158.776659 
L 549.990146 160.176082 
L 550.708613 161.869117 
L 551.42708 163.880444 
L 552.145547 166.244886 
L 552.864014 169.011215 
L 553.58248 172.248401 
L 554.300947 176.056311 
L 555.019414 180.585153 
L 555.737881 186.073758 
L 556.456348 192.933919 
L 557.174814 201.969027 
L 557.893281 215.112656 
L 558.611748 239.793323 
L 559.330215 293.948754 
L 560.048682 227.478171 
L 560.767148 210.830244 
L 561.485615 200.91524 
L 562.204082 194.010807 
L 562.922549 188.852036 
L 563.641016 184.852987 
L 564.359482 181.694264 
L 565.077949 179.183173 
L 565.796416 177.195255 
L 566.514883 175.646256 
L 567.23335 174.477339 
L 567.951816 173.646699 
L 568.670283 173.124572 
L 569.38875 172.890158 
L 570.107217 172.929701 
L 570.825684 173.235332 
L 571.54415 173.804438 
L 572.262617 174.639456 
L 572.981084 175.74806 
L 573.699551 177.143763 
L 574.418018 178.847051 
L 575.136484 180.887253 
L 575.854951 183.305547 
L 576.573418 186.159846 
L 577.291885 189.532985 
L 578.010352 193.547155 
L 578.728818 198.391231 
L 579.447285 204.377752 
L 580.165752 212.079335 
L 580.884219 222.733287 
L 581.602686 240.031931 
L 582.321152 299.328566 
L 583.039619 260.074124 
L 583.758086 232.703722 
L 584.476553 219.847777 
L 585.19502 211.470335 
L 585.913486 205.385756 
L 586.631953 200.725901 
L 587.35042 197.05504 
L 588.068887 194.123517 
L 588.787354 191.77556 
L 589.50582 189.908175 
L 590.224287 188.450528 
L 590.942754 187.35268 
L 591.661221 186.579058 
L 592.379688 186.10449 
L 593.098154 185.911747 
L 593.816621 185.990024 
L 594.535088 186.334058 
L 595.253555 186.943713 
L 595.972021 187.823968 
L 596.690488 188.985312 
L 597.408955 190.444593 
L 598.127422 192.226508 
L 598.845889 194.365999 
L 599.564355 196.912143 
L 600.282822 199.934549 
L 601.001289 203.534416 
L 601.719756 207.8648 
L 602.438223 213.171164 
L 603.156689 219.88298 
L 603.875156 228.862361 
L 604.593623 242.334367 
L 605.31209 272.213674 
L 606.030557 279.692047 
L 606.749023 256.334962 
L 607.46749 237.460813 
L 608.185957 226.913722 
L 608.904424 219.651282 
L 609.622891 214.223893 
L 610.341357 209.995704 
L 611.059824 206.628952 
L 611.778291 203.922789 
L 612.496758 201.748638 
L 613.215225 200.019959 
L 613.933691 198.676551 
L 614.652158 197.675748 
L 615.370625 196.987221 
L 616.089092 196.589783 
L 616.807559 196.469418 
L 617.526025 196.618083 
L 618.244492 197.033064 
L 618.962959 197.716764 
L 619.681426 198.676895 
L 620.399893 199.927102 
L 621.118359 201.488133 
L 621.836826 203.389784 
L 622.555293 205.674046 
L 623.27376 208.400253 
L 623.992227 211.653832 
L 624.710693 215.561996 
L 625.42916 220.324237 
L 626.147627 226.2785 
L 626.866094 234.07068 
L 627.584561 245.227704 
L 628.303027 265.783007 
L 629.021494 278.133362 
L 629.739961 300.958147 
L 630.458428 256.643665 
L 631.176895 241.826346 
L 631.895361 232.799095 
L 632.613828 226.364871 
L 633.332295 221.464303 
L 634.050762 217.60289 
L 634.769229 214.507738 
L 635.487695 212.012302 
L 636.206162 210.008008 
L 636.924629 208.420887 
L 637.643096 207.199131 
L 638.361562 206.306004 
L 639.080029 205.715592 
L 639.798496 205.410195 
L 640.516963 205.378728 
L 641.23543 205.615791 
L 641.953896 206.121239 
L 642.672363 206.900184 
L 643.39083 207.963405 
L 644.109297 209.328272 
L 644.827764 211.02034 
L 645.54623 213.075962 
L 646.264697 215.546575 
L 646.983164 218.505898 
L 647.701631 222.062714 
L 648.420098 226.385237 
L 649.138564 231.752798 
L 649.857031 238.683849 
L 650.575498 248.344711 
L 651.293965 264.75012 
L 652.012432 286.140801 
L 652.730898 274.319089 
L 653.449365 297.350996 
L 654.167832 258.497659 
L 654.886299 245.934074 
L 655.604766 237.932364 
L 656.323232 232.113401 
L 657.041699 227.630649 
L 657.760166 224.075307 
L 658.478633 221.216776 
L 659.1971 218.912143 
L 659.915566 217.067253 
L 660.634033 215.617553 
L 661.3525 214.51777 
L 662.070967 213.735955 
L 662.789434 213.249919 
L 663.5079 213.045045 
L 664.226367 213.112989 
L 664.944834 213.450979 
L 665.663301 214.061607 
L 666.381768 214.953047 
L 667.100234 216.139768 
L 667.818701 217.643869 
L 668.537168 219.49732 
L 669.255635 221.745671 
L 669.974102 224.454292 
L 670.692568 227.719401 
L 671.411035 231.688985 
L 672.129502 236.606783 
L 672.847969 242.919906 
L 673.566436 251.614623 
L 674.284902 265.904032 
L 675.003369 295.982678 
L 675.721836 272.595985 
L 676.440303 275.237588 
L 677.15877 291.474688 
L 677.877236 261.271438 
L 678.595703 249.931084 
L 679.31417 242.59304 
L 680.032637 237.213483 
L 680.751104 233.050347 
L 681.46957 229.741993 
L 682.188037 227.083137 
L 682.906504 224.945982 
L 683.624971 223.246123 
L 684.343438 221.925717 
L 685.061904 220.944385 
L 685.780371 220.273972 
L 686.498838 219.895426 
L 687.217305 219.796922 
L 687.935771 219.972795 
L 688.654238 220.423069 
L 689.372705 221.153475 
L 690.091172 222.17598 
L 690.809639 223.509929 
L 691.528105 225.18405 
L 692.246572 227.239837 
L 692.965039 229.737302 
L 693.683506 232.765195 
L 694.401973 236.460504 
L 695.120439 241.049729 
L 695.838906 246.950582 
L 696.557373 255.091751 
L 697.27584 268.524019 
L 697.994307 299.506703 
L 698.712773 272.556724 
L 699.43124 269.814818 
L 700.149707 275.693346 
L 700.868174 296.234635 
L 701.586641 264.920513 
L 702.305107 253.990915 
L 703.023574 246.997041 
L 703.742041 241.89078 
L 704.460508 237.94934 
L 705.178975 234.826109 
L 705.897441 232.326315 
L 706.615908 230.329593 
L 707.334375 228.756972 
L 708.052842 227.554771 
L 708.771309 226.685969 
L 709.489775 226.125298 
L 710.208242 225.856366 
L 710.926709 225.869992 
L 711.645176 226.163352 
L 712.363643 226.739744 
L 713.082109 227.608935 
L 713.800576 228.788158 
L 714.519043 230.304012 
L 715.23751 232.195748 
L 715.955977 234.520979 
L 716.674443 237.365992 
L 717.39291 240.865767 
L 718.111377 245.247245 
L 718.829844 250.938989 
L 719.548311 258.930571 
L 720.266777 272.740012 
L 720.985244 293.052197 
L 721.703711 271.949202 
L 722.422178 267.610431 
L 723.140645 268.265123 
L 723.859111 274.552183 
L 724.577578 371.345455 
L 725.296045 269.841935 
L 726.014512 258.356626 
L 726.732979 251.348969 
L 727.451445 246.330732 
L 728.169912 242.500494 
L 728.888379 239.491334 
L 729.606846 237.103015 
L 730.325313 235.214362 
L 731.043779 233.747233 
L 731.762246 232.649417 
L 732.480713 231.885673 
L 733.19918 231.432761 
L 733.917646 231.27661 
L 734.636113 231.410795 
L 735.35458 231.835898 
L 736.073047 232.559624 
L 736.791514 233.597681 
L 737.50998 234.975691 
L 738.228447 236.732642 
L 738.946914 238.927079 
L 739.665381 241.648574 
L 740.383848 245.040691 
L 741.102314 249.352533 
L 741.820781 255.076621 
L 742.539248 263.442421 
L 743.257715 279.775309 
L 743.976182 284.627775 
L 744.694648 270.303864 
L 745.413115 265.812264 
L 746.131582 264.803549 
L 746.850049 266.506486 
L 747.568516 272.01189 
L 748.286982 290.697636 
L 749.723916 263.448165 
L 750.442383 255.895279 
L 751.16085 250.715386 
L 751.879316 246.853437 
L 752.597783 243.868143 
L 753.31625 241.531429 
L 754.034717 239.710401 
L 754.753184 238.321899 
L 755.47165 237.311899 
L 756.190117 236.645139 
L 756.908584 236.299566 
L 757.627051 236.263345 
L 758.345518 236.533424 
L 759.063984 237.115227 
L 759.782451 238.023404 
L 760.500918 239.283861 
L 761.219385 240.937726 
L 761.937852 243.048746 
L 762.656318 245.717556 
L 763.374785 249.111564 
L 764.093252 253.536245 
L 764.811719 259.644111 
L 765.530186 269.3191 
L 766.248652 296.872042 
L 766.967119 277.416777 
L 767.685586 267.793035 
L 768.404053 263.75139 
L 769.12252 262.163291 
L 769.840986 262.323479 
L 770.559453 264.243896 
L 771.27792 268.67298 
L 771.996387 278.971647 
L 772.714854 295.185418 
L 773.43332 270.208575 
L 774.151787 261.019737 
L 774.870254 255.26554 
L 775.588721 251.159054 
L 776.307188 248.071082 
L 777.025654 245.705271 
L 777.744121 243.899178 
L 778.462588 242.555747 
L 779.181055 241.614498 
L 779.899521 241.037833 
L 780.617988 240.804102 
L 781.336455 240.904163 
L 782.054922 241.340093 
L 782.773389 242.12559 
L 783.491855 243.288237 
L 784.210322 244.874475 
L 784.928789 246.959438 
L 785.647256 249.667003 
L 786.365723 253.214685 
L 787.084189 258.031374 
L 787.802656 265.160222 
L 789.23959 290.765625 
L 789.958057 271.438092 
L 790.676523 264.743554 
L 791.39499 261.29832 
L 792.113457 259.572014 
L 792.831924 259.079504 
L 793.550391 259.692344 
L 794.268857 261.517784 
L 794.987324 264.997704 
L 795.705791 271.501994 
L 796.424258 288.455567 
L 797.142725 281.971459 
L 797.861191 267.512812 
L 798.579658 260.318303 
L 799.298125 255.599301 
L 800.016592 252.212783 
L 800.735059 249.702024 
L 801.453525 247.839897 
L 802.171992 246.499702 
L 802.890459 245.606988 
L 803.608926 245.11855 
L 804.327393 245.012612 
L 805.045859 245.284555 
L 805.764326 245.94616 
L 806.482793 247.028036 
L 807.20126 248.586358 
L 807.919727 250.717446 
L 808.638193 253.589872 
L 809.35666 257.523721 
L 810.075127 263.232018 
L 810.793594 272.915191 
L 811.512061 312.705195 
L 812.230527 275.90244 
L 812.948994 266.325955 
L 813.667461 261.409684 
L 814.385928 258.493113 
L 815.104395 256.797393 
L 815.822861 256.011808 
L 816.541328 256.01381 
L 817.259795 256.79242 
L 817.978262 258.442049 
L 818.696729 261.218199 
L 819.415195 265.743718 
L 820.133662 273.928563 
L 820.852129 301.633181 
L 821.570596 277.818047 
L 822.289062 266.536643 
L 823.007529 260.440698 
L 823.725996 256.419058 
L 824.444463 253.587151 
L 825.16293 251.571353 
L 825.881396 250.183618 
L 826.599863 249.322104 
L 827.31833 248.933149 
L 828.036797 248.995423 
L 828.755264 249.514485 
L 829.47373 250.524356 
L 830.192197 252.097069 
L 830.910664 254.366571 
L 831.629131 257.587424 
L 832.347598 262.302369 
L 833.066064 269.996762 
L 833.784531 288.817392 
L 834.502998 281.165319 
L 835.221465 268.037474 
L 835.939932 261.780629 
L 836.658398 257.932099 
L 837.376865 255.407854 
L 838.095332 253.782409 
L 838.813799 252.856216 
L 839.532266 252.533977 
L 840.250732 252.78234 
L 840.969199 253.61727 
L 841.687666 255.109678 
L 842.406133 257.414147 
L 843.1246 260.850689 
L 843.843066 266.166077 
L 844.561533 275.77539 
L 844.561533 275.77539 
" style="fill:none;stroke:#0072bd;stroke-linecap:square;stroke-width:1.4;"/>
   </g>
   <g id="patch_8">
    <path d="M 477.425 387.16 
L 477.425 39.24 
" style="fill:none;stroke:#000000;stroke-linecap:square;stroke-linejoin:miter;stroke-width:0.8;"/>
   </g>
   <g id="patch_9">
    <path d="M 845.28 387.16 
L 845.28 39.24 
" style="fill:none;stroke:#000000;stroke-linecap:square;stroke-linejoin:miter;stroke-width:0.8;"/>
   </g>
   <g id="patch_10">
    <path d="M 477.425 387.16 
L 845.28 387.16 
" style="fill:none;stroke:#000000;stroke-linecap:square;stroke-linejoin:miter;stroke-width:0.8;"/>
   </g>
   <g id="patch_11">
    <path d="M 477.425 39.24 
L 845.28 39.24 
" style="fill:none;stroke:#000000;stroke-linecap:square;stroke-linejoin:miter;stroke-width:0.8;"/>
   </g>
  </g>
  <g id="text_32">
   <!-- Bohman window -->
   <defs>
    <path d="M 54.890625 33.015625 
L 54.890625 0 
L 45.90625 0 
L 45.90625 32.71875 
Q 45.90625 40.484375 42.875 44.328125 
Q 39.84375 48.1875 33.796875 48.1875 
Q 26.515625 48.1875 22.3125 43.546875 
Q 18.109375 38.921875 18.109375 30.90625 
L 18.109375 0 
L 9.078125 0 
L 9.078125 75.984375 
L 18.109375 75.984375 
L 18.109375 46.1875 
Q 21.34375 51.125 25.703125 53.5625 
Q 30.078125 56 35.796875 56 
Q 45.21875 56 50.046875 50.171875 
Q 54.890625 44.34375 54.890625 33.015625 
z
" id="DejaVuSans-104"/>
    <path d="M 4.203125 54.6875 
L 13.1875 54.6875 
L 24.421875 12.015625 
L 35.59375 54.6875 
L 46.1875 54.6875 
L 57.421875 12.015625 
L 68.609375 54.6875 
L 77.59375 54.6875 
L 63.28125 0 
L 52.6875 0 
L 40.921875 44.828125 
L 29.109375 0 
L 18.5 0 
z
" id="DejaVuSans-119"/>
   </defs>
   <g transform="translate(365.8875 20.7975)scale(0.16 -0.16)">
    <use xlink:href="#DejaVuSans-66"/>
    <use x="68.603516" xlink:href="#DejaVuSans-111"/>
    <use x="129.785156" xlink:href="#DejaVuSans-104"/>
    <use x="193.164062" xlink:href="#DejaVuSans-109"/>
    <use x="290.576172" xlink:href="#DejaVuSans-97"/>
    <use x="351.855469" xlink:href="#DejaVuSans-110"/>
    <use x="415.234375" xlink:href="#DejaVuSans-32"/>
    <use x="447.021484" xlink:href="#DejaVuSans-119"/>
    <use x="528.808594" xlink:href="#DejaVuSans-105"/>
    <use x="556.591797" xlink:href="#DejaVuSans-110"/>
    <use x="619.970703" xlink:href="#DejaVuSans-100"/>
    <use x="683.447266" xlink:href="#DejaVuSans-111"/>
    <use x="744.628906" xlink:href="#DejaVuSans-119"/>
   </g>
  </g>
 </g>
 <defs>
  <clipPath id="p97ec8ec411">
   <rect height="347.92" width="367.855" x="47.72" y="39.24"/>
  </clipPath>
  <clipPath id="p88d3f29b79">
   <rect height="347.92" width="367.855" x="477.425" y="39.24"/>
  </clipPath>
 </defs>
</svg>
