<?xml version="1.0" encoding="utf-8" standalone="no"?>
<!DOCTYPE svg PUBLIC "-//W3C//DTD SVG 1.1//EN"
  "http://www.w3.org/Graphics/SVG/1.1/DTD/svg11.dtd">
<!-- Created with matplotlib (https://matplotlib.org/) -->
<svg height="432pt" version="1.1" viewBox="0 0 864 432" width="864pt" xmlns="http://www.w3.org/2000/svg" xmlns:xlink="http://www.w3.org/1999/xlink">
 <defs>
  <style type="text/css">
*{stroke-linecap:butt;stroke-linejoin:round;}
  </style>
 </defs>
 <g id="figure_1">
  <g id="patch_1">
   <path d="M 0 432 
L 864 432 
L 864 0 
L 0 0 
z
" style="fill:#ffffff;"/>
  </g>
  <g id="axes_1">
   <g id="patch_2">
    <path d="M 47.72 387.16 
L 418.77 387.16 
L 418.77 39.24 
L 47.72 39.24 
z
" style="fill:#ffffff;"/>
   </g>
   <g id="matplotlib.axis_1">
    <g id="xtick_1">
     <g id="line2d_1">
      <path clip-path="url(#p5db5ac15e0)" d="M 47.72 387.16 
L 47.72 39.24 
" style="fill:none;stroke:#777777;stroke-linecap:square;stroke-width:0.8;"/>
     </g>
     <g id="line2d_2">
      <defs>
       <path d="M 0 0 
L 0 3.5 
" id="mfa61dcf6dd" style="stroke:#000000;stroke-width:0.8;"/>
      </defs>
      <g>
       <use style="stroke:#000000;stroke-width:0.8;" x="47.72" xlink:href="#mfa61dcf6dd" y="387.16"/>
      </g>
     </g>
     <g id="text_1">
      <!-- 0 -->
      <defs>
       <path d="M 31.78125 66.40625 
Q 24.171875 66.40625 20.328125 58.90625 
Q 16.5 51.421875 16.5 36.375 
Q 16.5 21.390625 20.328125 13.890625 
Q 24.171875 6.390625 31.78125 6.390625 
Q 39.453125 6.390625 43.28125 13.890625 
Q 47.125 21.390625 47.125 36.375 
Q 47.125 51.421875 43.28125 58.90625 
Q 39.453125 66.40625 31.78125 66.40625 
z
M 31.78125 74.21875 
Q 44.046875 74.21875 50.515625 64.515625 
Q 56.984375 54.828125 56.984375 36.375 
Q 56.984375 17.96875 50.515625 8.265625 
Q 44.046875 -1.421875 31.78125 -1.421875 
Q 19.53125 -1.421875 13.0625 8.265625 
Q 6.59375 17.96875 6.59375 36.375 
Q 6.59375 54.828125 13.0625 64.515625 
Q 19.53125 74.21875 31.78125 74.21875 
z
" id="DejaVuSans-48"/>
      </defs>
      <g transform="translate(44.53875 401.758438)scale(0.1 -0.1)">
       <use xlink:href="#DejaVuSans-48"/>
      </g>
     </g>
    </g>
    <g id="xtick_2">
     <g id="line2d_3">
      <path clip-path="url(#p5db5ac15e0)" d="M 106.616825 387.16 
L 106.616825 39.24 
" style="fill:none;stroke:#777777;stroke-linecap:square;stroke-width:0.8;"/>
     </g>
     <g id="line2d_4">
      <g>
       <use style="stroke:#000000;stroke-width:0.8;" x="106.616825" xlink:href="#mfa61dcf6dd" y="387.16"/>
      </g>
     </g>
     <g id="text_2">
      <!-- 10 -->
      <defs>
       <path d="M 12.40625 8.296875 
L 28.515625 8.296875 
L 28.515625 63.921875 
L 10.984375 60.40625 
L 10.984375 69.390625 
L 28.421875 72.90625 
L 38.28125 72.90625 
L 38.28125 8.296875 
L 54.390625 8.296875 
L 54.390625 0 
L 12.40625 0 
z
" id="DejaVuSans-49"/>
      </defs>
      <g transform="translate(100.254325 401.758438)scale(0.1 -0.1)">
       <use xlink:href="#DejaVuSans-49"/>
       <use x="63.623047" xlink:href="#DejaVuSans-48"/>
      </g>
     </g>
    </g>
    <g id="xtick_3">
     <g id="line2d_5">
      <path clip-path="url(#p5db5ac15e0)" d="M 165.513651 387.16 
L 165.513651 39.24 
" style="fill:none;stroke:#777777;stroke-linecap:square;stroke-width:0.8;"/>
     </g>
     <g id="line2d_6">
      <g>
       <use style="stroke:#000000;stroke-width:0.8;" x="165.513651" xlink:href="#mfa61dcf6dd" y="387.16"/>
      </g>
     </g>
     <g id="text_3">
      <!-- 20 -->
      <defs>
       <path d="M 19.1875 8.296875 
L 53.609375 8.296875 
L 53.609375 0 
L 7.328125 0 
L 7.328125 8.296875 
Q 12.9375 14.109375 22.625 23.890625 
Q 32.328125 33.6875 34.8125 36.53125 
Q 39.546875 41.84375 41.421875 45.53125 
Q 43.3125 49.21875 43.3125 52.78125 
Q 43.3125 58.59375 39.234375 62.25 
Q 35.15625 65.921875 28.609375 65.921875 
Q 23.96875 65.921875 18.8125 64.3125 
Q 13.671875 62.703125 7.8125 59.421875 
L 7.8125 69.390625 
Q 13.765625 71.78125 18.9375 73 
Q 24.125 74.21875 28.421875 74.21875 
Q 39.75 74.21875 46.484375 68.546875 
Q 53.21875 62.890625 53.21875 53.421875 
Q 53.21875 48.921875 51.53125 44.890625 
Q 49.859375 40.875 45.40625 35.40625 
Q 44.1875 33.984375 37.640625 27.21875 
Q 31.109375 20.453125 19.1875 8.296875 
z
" id="DejaVuSans-50"/>
      </defs>
      <g transform="translate(159.151151 401.758438)scale(0.1 -0.1)">
       <use xlink:href="#DejaVuSans-50"/>
       <use x="63.623047" xlink:href="#DejaVuSans-48"/>
      </g>
     </g>
    </g>
    <g id="xtick_4">
     <g id="line2d_7">
      <path clip-path="url(#p5db5ac15e0)" d="M 224.410476 387.16 
L 224.410476 39.24 
" style="fill:none;stroke:#777777;stroke-linecap:square;stroke-width:0.8;"/>
     </g>
     <g id="line2d_8">
      <g>
       <use style="stroke:#000000;stroke-width:0.8;" x="224.410476" xlink:href="#mfa61dcf6dd" y="387.16"/>
      </g>
     </g>
     <g id="text_4">
      <!-- 30 -->
      <defs>
       <path d="M 40.578125 39.3125 
Q 47.65625 37.796875 51.625 33 
Q 55.609375 28.21875 55.609375 21.1875 
Q 55.609375 10.40625 48.1875 4.484375 
Q 40.765625 -1.421875 27.09375 -1.421875 
Q 22.515625 -1.421875 17.65625 -0.515625 
Q 12.796875 0.390625 7.625 2.203125 
L 7.625 11.71875 
Q 11.71875 9.328125 16.59375 8.109375 
Q 21.484375 6.890625 26.8125 6.890625 
Q 36.078125 6.890625 40.9375 10.546875 
Q 45.796875 14.203125 45.796875 21.1875 
Q 45.796875 27.640625 41.28125 31.265625 
Q 36.765625 34.90625 28.71875 34.90625 
L 20.21875 34.90625 
L 20.21875 43.015625 
L 29.109375 43.015625 
Q 36.375 43.015625 40.234375 45.921875 
Q 44.09375 48.828125 44.09375 54.296875 
Q 44.09375 59.90625 40.109375 62.90625 
Q 36.140625 65.921875 28.71875 65.921875 
Q 24.65625 65.921875 20.015625 65.03125 
Q 15.375 64.15625 9.8125 62.3125 
L 9.8125 71.09375 
Q 15.4375 72.65625 20.34375 73.4375 
Q 25.25 74.21875 29.59375 74.21875 
Q 40.828125 74.21875 47.359375 69.109375 
Q 53.90625 64.015625 53.90625 55.328125 
Q 53.90625 49.265625 50.4375 45.09375 
Q 46.96875 40.921875 40.578125 39.3125 
z
" id="DejaVuSans-51"/>
      </defs>
      <g transform="translate(218.047976 401.758438)scale(0.1 -0.1)">
       <use xlink:href="#DejaVuSans-51"/>
       <use x="63.623047" xlink:href="#DejaVuSans-48"/>
      </g>
     </g>
    </g>
    <g id="xtick_5">
     <g id="line2d_9">
      <path clip-path="url(#p5db5ac15e0)" d="M 283.307302 387.16 
L 283.307302 39.24 
" style="fill:none;stroke:#777777;stroke-linecap:square;stroke-width:0.8;"/>
     </g>
     <g id="line2d_10">
      <g>
       <use style="stroke:#000000;stroke-width:0.8;" x="283.307302" xlink:href="#mfa61dcf6dd" y="387.16"/>
      </g>
     </g>
     <g id="text_5">
      <!-- 40 -->
      <defs>
       <path d="M 37.796875 64.3125 
L 12.890625 25.390625 
L 37.796875 25.390625 
z
M 35.203125 72.90625 
L 47.609375 72.90625 
L 47.609375 25.390625 
L 58.015625 25.390625 
L 58.015625 17.1875 
L 47.609375 17.1875 
L 47.609375 0 
L 37.796875 0 
L 37.796875 17.1875 
L 4.890625 17.1875 
L 4.890625 26.703125 
z
" id="DejaVuSans-52"/>
      </defs>
      <g transform="translate(276.944802 401.758438)scale(0.1 -0.1)">
       <use xlink:href="#DejaVuSans-52"/>
       <use x="63.623047" xlink:href="#DejaVuSans-48"/>
      </g>
     </g>
    </g>
    <g id="xtick_6">
     <g id="line2d_11">
      <path clip-path="url(#p5db5ac15e0)" d="M 342.204127 387.16 
L 342.204127 39.24 
" style="fill:none;stroke:#777777;stroke-linecap:square;stroke-width:0.8;"/>
     </g>
     <g id="line2d_12">
      <g>
       <use style="stroke:#000000;stroke-width:0.8;" x="342.204127" xlink:href="#mfa61dcf6dd" y="387.16"/>
      </g>
     </g>
     <g id="text_6">
      <!-- 50 -->
      <defs>
       <path d="M 10.796875 72.90625 
L 49.515625 72.90625 
L 49.515625 64.59375 
L 19.828125 64.59375 
L 19.828125 46.734375 
Q 21.96875 47.46875 24.109375 47.828125 
Q 26.265625 48.1875 28.421875 48.1875 
Q 40.625 48.1875 47.75 41.5 
Q 54.890625 34.8125 54.890625 23.390625 
Q 54.890625 11.625 47.5625 5.09375 
Q 40.234375 -1.421875 26.90625 -1.421875 
Q 22.3125 -1.421875 17.546875 -0.640625 
Q 12.796875 0.140625 7.71875 1.703125 
L 7.71875 11.625 
Q 12.109375 9.234375 16.796875 8.0625 
Q 21.484375 6.890625 26.703125 6.890625 
Q 35.15625 6.890625 40.078125 11.328125 
Q 45.015625 15.765625 45.015625 23.390625 
Q 45.015625 31 40.078125 35.4375 
Q 35.15625 39.890625 26.703125 39.890625 
Q 22.75 39.890625 18.8125 39.015625 
Q 14.890625 38.140625 10.796875 36.28125 
z
" id="DejaVuSans-53"/>
      </defs>
      <g transform="translate(335.841627 401.758438)scale(0.1 -0.1)">
       <use xlink:href="#DejaVuSans-53"/>
       <use x="63.623047" xlink:href="#DejaVuSans-48"/>
      </g>
     </g>
    </g>
    <g id="xtick_7">
     <g id="line2d_13">
      <path clip-path="url(#p5db5ac15e0)" d="M 401.100952 387.16 
L 401.100952 39.24 
" style="fill:none;stroke:#777777;stroke-linecap:square;stroke-width:0.8;"/>
     </g>
     <g id="line2d_14">
      <g>
       <use style="stroke:#000000;stroke-width:0.8;" x="401.100952" xlink:href="#mfa61dcf6dd" y="387.16"/>
      </g>
     </g>
     <g id="text_7">
      <!-- 60 -->
      <defs>
       <path d="M 33.015625 40.375 
Q 26.375 40.375 22.484375 35.828125 
Q 18.609375 31.296875 18.609375 23.390625 
Q 18.609375 15.53125 22.484375 10.953125 
Q 26.375 6.390625 33.015625 6.390625 
Q 39.65625 6.390625 43.53125 10.953125 
Q 47.40625 15.53125 47.40625 23.390625 
Q 47.40625 31.296875 43.53125 35.828125 
Q 39.65625 40.375 33.015625 40.375 
z
M 52.59375 71.296875 
L 52.59375 62.3125 
Q 48.875 64.0625 45.09375 64.984375 
Q 41.3125 65.921875 37.59375 65.921875 
Q 27.828125 65.921875 22.671875 59.328125 
Q 17.53125 52.734375 16.796875 39.40625 
Q 19.671875 43.65625 24.015625 45.921875 
Q 28.375 48.1875 33.59375 48.1875 
Q 44.578125 48.1875 50.953125 41.515625 
Q 57.328125 34.859375 57.328125 23.390625 
Q 57.328125 12.15625 50.6875 5.359375 
Q 44.046875 -1.421875 33.015625 -1.421875 
Q 20.359375 -1.421875 13.671875 8.265625 
Q 6.984375 17.96875 6.984375 36.375 
Q 6.984375 53.65625 15.1875 63.9375 
Q 23.390625 74.21875 37.203125 74.21875 
Q 40.921875 74.21875 44.703125 73.484375 
Q 48.484375 72.75 52.59375 71.296875 
z
" id="DejaVuSans-54"/>
      </defs>
      <g transform="translate(394.738452 401.758438)scale(0.1 -0.1)">
       <use xlink:href="#DejaVuSans-54"/>
       <use x="63.623047" xlink:href="#DejaVuSans-48"/>
      </g>
     </g>
    </g>
    <g id="text_8">
     <!-- Samples -->
     <defs>
      <path d="M 53.515625 70.515625 
L 53.515625 60.890625 
Q 47.90625 63.578125 42.921875 64.890625 
Q 37.9375 66.21875 33.296875 66.21875 
Q 25.25 66.21875 20.875 63.09375 
Q 16.5 59.96875 16.5 54.203125 
Q 16.5 49.359375 19.40625 46.890625 
Q 22.3125 44.4375 30.421875 42.921875 
L 36.375 41.703125 
Q 47.40625 39.59375 52.65625 34.296875 
Q 57.90625 29 57.90625 20.125 
Q 57.90625 9.515625 50.796875 4.046875 
Q 43.703125 -1.421875 29.984375 -1.421875 
Q 24.8125 -1.421875 18.96875 -0.25 
Q 13.140625 0.921875 6.890625 3.21875 
L 6.890625 13.375 
Q 12.890625 10.015625 18.65625 8.296875 
Q 24.421875 6.59375 29.984375 6.59375 
Q 38.421875 6.59375 43.015625 9.90625 
Q 47.609375 13.234375 47.609375 19.390625 
Q 47.609375 24.75 44.3125 27.78125 
Q 41.015625 30.8125 33.5 32.328125 
L 27.484375 33.5 
Q 16.453125 35.6875 11.515625 40.375 
Q 6.59375 45.0625 6.59375 53.421875 
Q 6.59375 63.09375 13.40625 68.65625 
Q 20.21875 74.21875 32.171875 74.21875 
Q 37.3125 74.21875 42.625 73.28125 
Q 47.953125 72.359375 53.515625 70.515625 
z
" id="DejaVuSans-83"/>
      <path d="M 34.28125 27.484375 
Q 23.390625 27.484375 19.1875 25 
Q 14.984375 22.515625 14.984375 16.5 
Q 14.984375 11.71875 18.140625 8.90625 
Q 21.296875 6.109375 26.703125 6.109375 
Q 34.1875 6.109375 38.703125 11.40625 
Q 43.21875 16.703125 43.21875 25.484375 
L 43.21875 27.484375 
z
M 52.203125 31.203125 
L 52.203125 0 
L 43.21875 0 
L 43.21875 8.296875 
Q 40.140625 3.328125 35.546875 0.953125 
Q 30.953125 -1.421875 24.3125 -1.421875 
Q 15.921875 -1.421875 10.953125 3.296875 
Q 6 8.015625 6 15.921875 
Q 6 25.140625 12.171875 29.828125 
Q 18.359375 34.515625 30.609375 34.515625 
L 43.21875 34.515625 
L 43.21875 35.40625 
Q 43.21875 41.609375 39.140625 45 
Q 35.0625 48.390625 27.6875 48.390625 
Q 23 48.390625 18.546875 47.265625 
Q 14.109375 46.140625 10.015625 43.890625 
L 10.015625 52.203125 
Q 14.9375 54.109375 19.578125 55.046875 
Q 24.21875 56 28.609375 56 
Q 40.484375 56 46.34375 49.84375 
Q 52.203125 43.703125 52.203125 31.203125 
z
" id="DejaVuSans-97"/>
      <path d="M 52 44.1875 
Q 55.375 50.25 60.0625 53.125 
Q 64.75 56 71.09375 56 
Q 79.640625 56 84.28125 50.015625 
Q 88.921875 44.046875 88.921875 33.015625 
L 88.921875 0 
L 79.890625 0 
L 79.890625 32.71875 
Q 79.890625 40.578125 77.09375 44.375 
Q 74.3125 48.1875 68.609375 48.1875 
Q 61.625 48.1875 57.5625 43.546875 
Q 53.515625 38.921875 53.515625 30.90625 
L 53.515625 0 
L 44.484375 0 
L 44.484375 32.71875 
Q 44.484375 40.625 41.703125 44.40625 
Q 38.921875 48.1875 33.109375 48.1875 
Q 26.21875 48.1875 22.15625 43.53125 
Q 18.109375 38.875 18.109375 30.90625 
L 18.109375 0 
L 9.078125 0 
L 9.078125 54.6875 
L 18.109375 54.6875 
L 18.109375 46.1875 
Q 21.1875 51.21875 25.484375 53.609375 
Q 29.78125 56 35.6875 56 
Q 41.65625 56 45.828125 52.96875 
Q 50 49.953125 52 44.1875 
z
" id="DejaVuSans-109"/>
      <path d="M 18.109375 8.203125 
L 18.109375 -20.796875 
L 9.078125 -20.796875 
L 9.078125 54.6875 
L 18.109375 54.6875 
L 18.109375 46.390625 
Q 20.953125 51.265625 25.265625 53.625 
Q 29.59375 56 35.59375 56 
Q 45.5625 56 51.78125 48.09375 
Q 58.015625 40.1875 58.015625 27.296875 
Q 58.015625 14.40625 51.78125 6.484375 
Q 45.5625 -1.421875 35.59375 -1.421875 
Q 29.59375 -1.421875 25.265625 0.953125 
Q 20.953125 3.328125 18.109375 8.203125 
z
M 48.6875 27.296875 
Q 48.6875 37.203125 44.609375 42.84375 
Q 40.53125 48.484375 33.40625 48.484375 
Q 26.265625 48.484375 22.1875 42.84375 
Q 18.109375 37.203125 18.109375 27.296875 
Q 18.109375 17.390625 22.1875 11.75 
Q 26.265625 6.109375 33.40625 6.109375 
Q 40.53125 6.109375 44.609375 11.75 
Q 48.6875 17.390625 48.6875 27.296875 
z
" id="DejaVuSans-112"/>
      <path d="M 9.421875 75.984375 
L 18.40625 75.984375 
L 18.40625 0 
L 9.421875 0 
z
" id="DejaVuSans-108"/>
      <path d="M 56.203125 29.59375 
L 56.203125 25.203125 
L 14.890625 25.203125 
Q 15.484375 15.921875 20.484375 11.0625 
Q 25.484375 6.203125 34.421875 6.203125 
Q 39.59375 6.203125 44.453125 7.46875 
Q 49.3125 8.734375 54.109375 11.28125 
L 54.109375 2.78125 
Q 49.265625 0.734375 44.1875 -0.34375 
Q 39.109375 -1.421875 33.890625 -1.421875 
Q 20.796875 -1.421875 13.15625 6.1875 
Q 5.515625 13.8125 5.515625 26.8125 
Q 5.515625 40.234375 12.765625 48.109375 
Q 20.015625 56 32.328125 56 
Q 43.359375 56 49.78125 48.890625 
Q 56.203125 41.796875 56.203125 29.59375 
z
M 47.21875 32.234375 
Q 47.125 39.59375 43.09375 43.984375 
Q 39.0625 48.390625 32.421875 48.390625 
Q 24.90625 48.390625 20.390625 44.140625 
Q 15.875 39.890625 15.1875 32.171875 
z
" id="DejaVuSans-101"/>
      <path d="M 44.28125 53.078125 
L 44.28125 44.578125 
Q 40.484375 46.53125 36.375 47.5 
Q 32.28125 48.484375 27.875 48.484375 
Q 21.1875 48.484375 17.84375 46.4375 
Q 14.5 44.390625 14.5 40.28125 
Q 14.5 37.15625 16.890625 35.375 
Q 19.28125 33.59375 26.515625 31.984375 
L 29.59375 31.296875 
Q 39.15625 29.25 43.1875 25.515625 
Q 47.21875 21.78125 47.21875 15.09375 
Q 47.21875 7.46875 41.1875 3.015625 
Q 35.15625 -1.421875 24.609375 -1.421875 
Q 20.21875 -1.421875 15.453125 -0.5625 
Q 10.6875 0.296875 5.421875 2 
L 5.421875 11.28125 
Q 10.40625 8.6875 15.234375 7.390625 
Q 20.0625 6.109375 24.8125 6.109375 
Q 31.15625 6.109375 34.5625 8.28125 
Q 37.984375 10.453125 37.984375 14.40625 
Q 37.984375 18.0625 35.515625 20.015625 
Q 33.0625 21.96875 24.703125 23.78125 
L 21.578125 24.515625 
Q 13.234375 26.265625 9.515625 29.90625 
Q 5.8125 33.546875 5.8125 39.890625 
Q 5.8125 47.609375 11.28125 51.796875 
Q 16.75 56 26.8125 56 
Q 31.78125 56 36.171875 55.265625 
Q 40.578125 54.546875 44.28125 53.078125 
z
" id="DejaVuSans-115"/>
     </defs>
     <g transform="translate(211.891875 415.436563)scale(0.1 -0.1)">
      <use xlink:href="#DejaVuSans-83"/>
      <use x="63.476562" xlink:href="#DejaVuSans-97"/>
      <use x="124.755859" xlink:href="#DejaVuSans-109"/>
      <use x="222.167969" xlink:href="#DejaVuSans-112"/>
      <use x="285.644531" xlink:href="#DejaVuSans-108"/>
      <use x="313.427734" xlink:href="#DejaVuSans-101"/>
      <use x="374.951172" xlink:href="#DejaVuSans-115"/>
     </g>
    </g>
   </g>
   <g id="matplotlib.axis_2">
    <g id="ytick_1">
     <g id="line2d_15">
      <path clip-path="url(#p5db5ac15e0)" d="M 47.72 387.16 
L 418.77 387.16 
" style="fill:none;stroke:#777777;stroke-linecap:square;stroke-width:0.8;"/>
     </g>
     <g id="line2d_16">
      <defs>
       <path d="M 0 0 
L -3.5 0 
" id="ma05dc57272" style="stroke:#000000;stroke-width:0.8;"/>
      </defs>
      <g>
       <use style="stroke:#000000;stroke-width:0.8;" x="47.72" xlink:href="#ma05dc57272" y="387.16"/>
      </g>
     </g>
     <g id="text_9">
      <!-- 0.0 -->
      <defs>
       <path d="M 10.6875 12.40625 
L 21 12.40625 
L 21 0 
L 10.6875 0 
z
" id="DejaVuSans-46"/>
      </defs>
      <g transform="translate(24.816875 390.959219)scale(0.1 -0.1)">
       <use xlink:href="#DejaVuSans-48"/>
       <use x="63.623047" xlink:href="#DejaVuSans-46"/>
       <use x="95.410156" xlink:href="#DejaVuSans-48"/>
      </g>
     </g>
    </g>
    <g id="ytick_2">
     <g id="line2d_17">
      <path clip-path="url(#p5db5ac15e0)" d="M 47.72 320.868919 
L 418.77 320.868919 
" style="fill:none;stroke:#777777;stroke-linecap:square;stroke-width:0.8;"/>
     </g>
     <g id="line2d_18">
      <g>
       <use style="stroke:#000000;stroke-width:0.8;" x="47.72" xlink:href="#ma05dc57272" y="320.868919"/>
      </g>
     </g>
     <g id="text_10">
      <!-- 0.2 -->
      <g transform="translate(24.816875 324.668138)scale(0.1 -0.1)">
       <use xlink:href="#DejaVuSans-48"/>
       <use x="63.623047" xlink:href="#DejaVuSans-46"/>
       <use x="95.410156" xlink:href="#DejaVuSans-50"/>
      </g>
     </g>
    </g>
    <g id="ytick_3">
     <g id="line2d_19">
      <path clip-path="url(#p5db5ac15e0)" d="M 47.72 254.577839 
L 418.77 254.577839 
" style="fill:none;stroke:#777777;stroke-linecap:square;stroke-width:0.8;"/>
     </g>
     <g id="line2d_20">
      <g>
       <use style="stroke:#000000;stroke-width:0.8;" x="47.72" xlink:href="#ma05dc57272" y="254.577839"/>
      </g>
     </g>
     <g id="text_11">
      <!-- 0.4 -->
      <g transform="translate(24.816875 258.377057)scale(0.1 -0.1)">
       <use xlink:href="#DejaVuSans-48"/>
       <use x="63.623047" xlink:href="#DejaVuSans-46"/>
       <use x="95.410156" xlink:href="#DejaVuSans-52"/>
      </g>
     </g>
    </g>
    <g id="ytick_4">
     <g id="line2d_21">
      <path clip-path="url(#p5db5ac15e0)" d="M 47.72 188.286758 
L 418.77 188.286758 
" style="fill:none;stroke:#777777;stroke-linecap:square;stroke-width:0.8;"/>
     </g>
     <g id="line2d_22">
      <g>
       <use style="stroke:#000000;stroke-width:0.8;" x="47.72" xlink:href="#ma05dc57272" y="188.286758"/>
      </g>
     </g>
     <g id="text_12">
      <!-- 0.6 -->
      <g transform="translate(24.816875 192.085977)scale(0.1 -0.1)">
       <use xlink:href="#DejaVuSans-48"/>
       <use x="63.623047" xlink:href="#DejaVuSans-46"/>
       <use x="95.410156" xlink:href="#DejaVuSans-54"/>
      </g>
     </g>
    </g>
    <g id="ytick_5">
     <g id="line2d_23">
      <path clip-path="url(#p5db5ac15e0)" d="M 47.72 121.995677 
L 418.77 121.995677 
" style="fill:none;stroke:#777777;stroke-linecap:square;stroke-width:0.8;"/>
     </g>
     <g id="line2d_24">
      <g>
       <use style="stroke:#000000;stroke-width:0.8;" x="47.72" xlink:href="#ma05dc57272" y="121.995677"/>
      </g>
     </g>
     <g id="text_13">
      <!-- 0.8 -->
      <defs>
       <path d="M 31.78125 34.625 
Q 24.75 34.625 20.71875 30.859375 
Q 16.703125 27.09375 16.703125 20.515625 
Q 16.703125 13.921875 20.71875 10.15625 
Q 24.75 6.390625 31.78125 6.390625 
Q 38.8125 6.390625 42.859375 10.171875 
Q 46.921875 13.96875 46.921875 20.515625 
Q 46.921875 27.09375 42.890625 30.859375 
Q 38.875 34.625 31.78125 34.625 
z
M 21.921875 38.8125 
Q 15.578125 40.375 12.03125 44.71875 
Q 8.5 49.078125 8.5 55.328125 
Q 8.5 64.0625 14.71875 69.140625 
Q 20.953125 74.21875 31.78125 74.21875 
Q 42.671875 74.21875 48.875 69.140625 
Q 55.078125 64.0625 55.078125 55.328125 
Q 55.078125 49.078125 51.53125 44.71875 
Q 48 40.375 41.703125 38.8125 
Q 48.828125 37.15625 52.796875 32.3125 
Q 56.78125 27.484375 56.78125 20.515625 
Q 56.78125 9.90625 50.3125 4.234375 
Q 43.84375 -1.421875 31.78125 -1.421875 
Q 19.734375 -1.421875 13.25 4.234375 
Q 6.78125 9.90625 6.78125 20.515625 
Q 6.78125 27.484375 10.78125 32.3125 
Q 14.796875 37.15625 21.921875 38.8125 
z
M 18.3125 54.390625 
Q 18.3125 48.734375 21.84375 45.5625 
Q 25.390625 42.390625 31.78125 42.390625 
Q 38.140625 42.390625 41.71875 45.5625 
Q 45.3125 48.734375 45.3125 54.390625 
Q 45.3125 60.0625 41.71875 63.234375 
Q 38.140625 66.40625 31.78125 66.40625 
Q 25.390625 66.40625 21.84375 63.234375 
Q 18.3125 60.0625 18.3125 54.390625 
z
" id="DejaVuSans-56"/>
      </defs>
      <g transform="translate(24.816875 125.794896)scale(0.1 -0.1)">
       <use xlink:href="#DejaVuSans-48"/>
       <use x="63.623047" xlink:href="#DejaVuSans-46"/>
       <use x="95.410156" xlink:href="#DejaVuSans-56"/>
      </g>
     </g>
    </g>
    <g id="ytick_6">
     <g id="line2d_25">
      <path clip-path="url(#p5db5ac15e0)" d="M 47.72 55.704597 
L 418.77 55.704597 
" style="fill:none;stroke:#777777;stroke-linecap:square;stroke-width:0.8;"/>
     </g>
     <g id="line2d_26">
      <g>
       <use style="stroke:#000000;stroke-width:0.8;" x="47.72" xlink:href="#ma05dc57272" y="55.704597"/>
      </g>
     </g>
     <g id="text_14">
      <!-- 1.0 -->
      <g transform="translate(24.816875 59.503815)scale(0.1 -0.1)">
       <use xlink:href="#DejaVuSans-49"/>
       <use x="63.623047" xlink:href="#DejaVuSans-46"/>
       <use x="95.410156" xlink:href="#DejaVuSans-48"/>
      </g>
     </g>
    </g>
    <g id="text_15">
     <!-- Amplitude -->
     <defs>
      <path d="M 34.1875 63.1875 
L 20.796875 26.90625 
L 47.609375 26.90625 
z
M 28.609375 72.90625 
L 39.796875 72.90625 
L 67.578125 0 
L 57.328125 0 
L 50.6875 18.703125 
L 17.828125 18.703125 
L 11.1875 0 
L 0.78125 0 
z
" id="DejaVuSans-65"/>
      <path d="M 9.421875 54.6875 
L 18.40625 54.6875 
L 18.40625 0 
L 9.421875 0 
z
M 9.421875 75.984375 
L 18.40625 75.984375 
L 18.40625 64.59375 
L 9.421875 64.59375 
z
" id="DejaVuSans-105"/>
      <path d="M 18.3125 70.21875 
L 18.3125 54.6875 
L 36.8125 54.6875 
L 36.8125 47.703125 
L 18.3125 47.703125 
L 18.3125 18.015625 
Q 18.3125 11.328125 20.140625 9.421875 
Q 21.96875 7.515625 27.59375 7.515625 
L 36.8125 7.515625 
L 36.8125 0 
L 27.59375 0 
Q 17.1875 0 13.234375 3.875 
Q 9.28125 7.765625 9.28125 18.015625 
L 9.28125 47.703125 
L 2.6875 47.703125 
L 2.6875 54.6875 
L 9.28125 54.6875 
L 9.28125 70.21875 
z
" id="DejaVuSans-116"/>
      <path d="M 8.5 21.578125 
L 8.5 54.6875 
L 17.484375 54.6875 
L 17.484375 21.921875 
Q 17.484375 14.15625 20.5 10.265625 
Q 23.53125 6.390625 29.59375 6.390625 
Q 36.859375 6.390625 41.078125 11.03125 
Q 45.3125 15.671875 45.3125 23.6875 
L 45.3125 54.6875 
L 54.296875 54.6875 
L 54.296875 0 
L 45.3125 0 
L 45.3125 8.40625 
Q 42.046875 3.421875 37.71875 1 
Q 33.40625 -1.421875 27.6875 -1.421875 
Q 18.265625 -1.421875 13.375 4.4375 
Q 8.5 10.296875 8.5 21.578125 
z
M 31.109375 56 
z
" id="DejaVuSans-117"/>
      <path d="M 45.40625 46.390625 
L 45.40625 75.984375 
L 54.390625 75.984375 
L 54.390625 0 
L 45.40625 0 
L 45.40625 8.203125 
Q 42.578125 3.328125 38.25 0.953125 
Q 33.9375 -1.421875 27.875 -1.421875 
Q 17.96875 -1.421875 11.734375 6.484375 
Q 5.515625 14.40625 5.515625 27.296875 
Q 5.515625 40.1875 11.734375 48.09375 
Q 17.96875 56 27.875 56 
Q 33.9375 56 38.25 53.625 
Q 42.578125 51.265625 45.40625 46.390625 
z
M 14.796875 27.296875 
Q 14.796875 17.390625 18.875 11.75 
Q 22.953125 6.109375 30.078125 6.109375 
Q 37.203125 6.109375 41.296875 11.75 
Q 45.40625 17.390625 45.40625 27.296875 
Q 45.40625 37.203125 41.296875 42.84375 
Q 37.203125 48.484375 30.078125 48.484375 
Q 22.953125 48.484375 18.875 42.84375 
Q 14.796875 37.203125 14.796875 27.296875 
z
" id="DejaVuSans-100"/>
     </defs>
     <g transform="translate(18.737188 238.822656)rotate(-90)scale(0.1 -0.1)">
      <use xlink:href="#DejaVuSans-65"/>
      <use x="68.408203" xlink:href="#DejaVuSans-109"/>
      <use x="165.820312" xlink:href="#DejaVuSans-112"/>
      <use x="229.296875" xlink:href="#DejaVuSans-108"/>
      <use x="257.080078" xlink:href="#DejaVuSans-105"/>
      <use x="284.863281" xlink:href="#DejaVuSans-116"/>
      <use x="324.072266" xlink:href="#DejaVuSans-117"/>
      <use x="387.451172" xlink:href="#DejaVuSans-100"/>
      <use x="450.927734" xlink:href="#DejaVuSans-101"/>
     </g>
    </g>
   </g>
   <g id="line2d_27">
    <path clip-path="url(#p5db5ac15e0)" d="M 47.72 387.16 
L 53.609683 370.638312 
L 59.499365 354.157699 
L 65.389048 337.759136 
L 71.27873 321.48339 
L 77.168413 305.370927 
L 83.058095 289.461805 
L 88.947778 273.795575 
L 94.83746 258.411188 
L 100.727143 243.34689 
L 106.616825 228.640135 
L 112.506508 214.327484 
L 118.39619 200.444523 
L 124.285873 187.025766 
L 130.175556 174.104574 
L 136.065238 161.713071 
L 141.954921 149.882065 
L 147.844603 138.640969 
L 153.734286 128.017731 
L 159.623968 118.038761 
L 165.513651 108.728869 
L 171.403333 100.111201 
L 177.293016 92.207181 
L 183.182698 85.03646 
L 189.072381 78.616866 
L 194.962063 72.964359 
L 200.851746 68.092992 
L 206.741429 64.014876 
L 212.631111 60.740149 
L 218.520794 58.276954 
L 224.410476 56.631413 
L 230.300159 55.807619 
L 236.189841 55.807619 
L 242.079524 56.631413 
L 247.969206 58.276954 
L 253.858889 60.740149 
L 259.748571 64.014876 
L 265.638254 68.092992 
L 271.527937 72.964359 
L 277.417619 78.616866 
L 283.307302 85.03646 
L 289.196984 92.207181 
L 295.086667 100.111201 
L 300.976349 108.728869 
L 306.866032 118.038761 
L 312.755714 128.017731 
L 318.645397 138.640969 
L 324.535079 149.882065 
L 330.424762 161.713071 
L 336.314444 174.104574 
L 342.204127 187.025766 
L 348.09381 200.444523 
L 353.983492 214.327484 
L 359.873175 228.640135 
L 365.762857 243.34689 
L 371.65254 258.411188 
L 377.542222 273.795575 
L 383.431905 289.461805 
L 389.321587 305.370927 
L 395.21127 321.48339 
L 401.100952 337.759136 
L 406.990635 354.157699 
L 412.880317 370.638312 
L 418.77 387.16 
" style="fill:none;stroke:#0072bd;stroke-linecap:square;stroke-width:1.4;"/>
    <defs>
     <path d="M 0 1.5 
C 0.397805 1.5 0.77937 1.341951 1.06066 1.06066 
C 1.341951 0.77937 1.5 0.397805 1.5 0 
C 1.5 -0.397805 1.341951 -0.77937 1.06066 -1.06066 
C 0.77937 -1.341951 0.397805 -1.5 0 -1.5 
C -0.397805 -1.5 -0.77937 -1.341951 -1.06066 -1.06066 
C -1.341951 -0.77937 -1.5 -0.397805 -1.5 0 
C -1.5 0.397805 -1.341951 0.77937 -1.06066 1.06066 
C -0.77937 1.341951 -0.397805 1.5 0 1.5 
z
" id="mddf2bbd99e" style="stroke:#0072bd;"/>
    </defs>
    <g clip-path="url(#p5db5ac15e0)">
     <use style="fill:#0072bd;stroke:#0072bd;" x="47.72" xlink:href="#mddf2bbd99e" y="387.16"/>
     <use style="fill:#0072bd;stroke:#0072bd;" x="53.609683" xlink:href="#mddf2bbd99e" y="370.638312"/>
     <use style="fill:#0072bd;stroke:#0072bd;" x="59.499365" xlink:href="#mddf2bbd99e" y="354.157699"/>
     <use style="fill:#0072bd;stroke:#0072bd;" x="65.389048" xlink:href="#mddf2bbd99e" y="337.759136"/>
     <use style="fill:#0072bd;stroke:#0072bd;" x="71.27873" xlink:href="#mddf2bbd99e" y="321.48339"/>
     <use style="fill:#0072bd;stroke:#0072bd;" x="77.168413" xlink:href="#mddf2bbd99e" y="305.370927"/>
     <use style="fill:#0072bd;stroke:#0072bd;" x="83.058095" xlink:href="#mddf2bbd99e" y="289.461805"/>
     <use style="fill:#0072bd;stroke:#0072bd;" x="88.947778" xlink:href="#mddf2bbd99e" y="273.795575"/>
     <use style="fill:#0072bd;stroke:#0072bd;" x="94.83746" xlink:href="#mddf2bbd99e" y="258.411188"/>
     <use style="fill:#0072bd;stroke:#0072bd;" x="100.727143" xlink:href="#mddf2bbd99e" y="243.34689"/>
     <use style="fill:#0072bd;stroke:#0072bd;" x="106.616825" xlink:href="#mddf2bbd99e" y="228.640135"/>
     <use style="fill:#0072bd;stroke:#0072bd;" x="112.506508" xlink:href="#mddf2bbd99e" y="214.327484"/>
     <use style="fill:#0072bd;stroke:#0072bd;" x="118.39619" xlink:href="#mddf2bbd99e" y="200.444523"/>
     <use style="fill:#0072bd;stroke:#0072bd;" x="124.285873" xlink:href="#mddf2bbd99e" y="187.025766"/>
     <use style="fill:#0072bd;stroke:#0072bd;" x="130.175556" xlink:href="#mddf2bbd99e" y="174.104574"/>
     <use style="fill:#0072bd;stroke:#0072bd;" x="136.065238" xlink:href="#mddf2bbd99e" y="161.713071"/>
     <use style="fill:#0072bd;stroke:#0072bd;" x="141.954921" xlink:href="#mddf2bbd99e" y="149.882065"/>
     <use style="fill:#0072bd;stroke:#0072bd;" x="147.844603" xlink:href="#mddf2bbd99e" y="138.640969"/>
     <use style="fill:#0072bd;stroke:#0072bd;" x="153.734286" xlink:href="#mddf2bbd99e" y="128.017731"/>
     <use style="fill:#0072bd;stroke:#0072bd;" x="159.623968" xlink:href="#mddf2bbd99e" y="118.038761"/>
     <use style="fill:#0072bd;stroke:#0072bd;" x="165.513651" xlink:href="#mddf2bbd99e" y="108.728869"/>
     <use style="fill:#0072bd;stroke:#0072bd;" x="171.403333" xlink:href="#mddf2bbd99e" y="100.111201"/>
     <use style="fill:#0072bd;stroke:#0072bd;" x="177.293016" xlink:href="#mddf2bbd99e" y="92.207181"/>
     <use style="fill:#0072bd;stroke:#0072bd;" x="183.182698" xlink:href="#mddf2bbd99e" y="85.03646"/>
     <use style="fill:#0072bd;stroke:#0072bd;" x="189.072381" xlink:href="#mddf2bbd99e" y="78.616866"/>
     <use style="fill:#0072bd;stroke:#0072bd;" x="194.962063" xlink:href="#mddf2bbd99e" y="72.964359"/>
     <use style="fill:#0072bd;stroke:#0072bd;" x="200.851746" xlink:href="#mddf2bbd99e" y="68.092992"/>
     <use style="fill:#0072bd;stroke:#0072bd;" x="206.741429" xlink:href="#mddf2bbd99e" y="64.014876"/>
     <use style="fill:#0072bd;stroke:#0072bd;" x="212.631111" xlink:href="#mddf2bbd99e" y="60.740149"/>
     <use style="fill:#0072bd;stroke:#0072bd;" x="218.520794" xlink:href="#mddf2bbd99e" y="58.276954"/>
     <use style="fill:#0072bd;stroke:#0072bd;" x="224.410476" xlink:href="#mddf2bbd99e" y="56.631413"/>
     <use style="fill:#0072bd;stroke:#0072bd;" x="230.300159" xlink:href="#mddf2bbd99e" y="55.807619"/>
     <use style="fill:#0072bd;stroke:#0072bd;" x="236.189841" xlink:href="#mddf2bbd99e" y="55.807619"/>
     <use style="fill:#0072bd;stroke:#0072bd;" x="242.079524" xlink:href="#mddf2bbd99e" y="56.631413"/>
     <use style="fill:#0072bd;stroke:#0072bd;" x="247.969206" xlink:href="#mddf2bbd99e" y="58.276954"/>
     <use style="fill:#0072bd;stroke:#0072bd;" x="253.858889" xlink:href="#mddf2bbd99e" y="60.740149"/>
     <use style="fill:#0072bd;stroke:#0072bd;" x="259.748571" xlink:href="#mddf2bbd99e" y="64.014876"/>
     <use style="fill:#0072bd;stroke:#0072bd;" x="265.638254" xlink:href="#mddf2bbd99e" y="68.092992"/>
     <use style="fill:#0072bd;stroke:#0072bd;" x="271.527937" xlink:href="#mddf2bbd99e" y="72.964359"/>
     <use style="fill:#0072bd;stroke:#0072bd;" x="277.417619" xlink:href="#mddf2bbd99e" y="78.616866"/>
     <use style="fill:#0072bd;stroke:#0072bd;" x="283.307302" xlink:href="#mddf2bbd99e" y="85.03646"/>
     <use style="fill:#0072bd;stroke:#0072bd;" x="289.196984" xlink:href="#mddf2bbd99e" y="92.207181"/>
     <use style="fill:#0072bd;stroke:#0072bd;" x="295.086667" xlink:href="#mddf2bbd99e" y="100.111201"/>
     <use style="fill:#0072bd;stroke:#0072bd;" x="300.976349" xlink:href="#mddf2bbd99e" y="108.728869"/>
     <use style="fill:#0072bd;stroke:#0072bd;" x="306.866032" xlink:href="#mddf2bbd99e" y="118.038761"/>
     <use style="fill:#0072bd;stroke:#0072bd;" x="312.755714" xlink:href="#mddf2bbd99e" y="128.017731"/>
     <use style="fill:#0072bd;stroke:#0072bd;" x="318.645397" xlink:href="#mddf2bbd99e" y="138.640969"/>
     <use style="fill:#0072bd;stroke:#0072bd;" x="324.535079" xlink:href="#mddf2bbd99e" y="149.882065"/>
     <use style="fill:#0072bd;stroke:#0072bd;" x="330.424762" xlink:href="#mddf2bbd99e" y="161.713071"/>
     <use style="fill:#0072bd;stroke:#0072bd;" x="336.314444" xlink:href="#mddf2bbd99e" y="174.104574"/>
     <use style="fill:#0072bd;stroke:#0072bd;" x="342.204127" xlink:href="#mddf2bbd99e" y="187.025766"/>
     <use style="fill:#0072bd;stroke:#0072bd;" x="348.09381" xlink:href="#mddf2bbd99e" y="200.444523"/>
     <use style="fill:#0072bd;stroke:#0072bd;" x="353.983492" xlink:href="#mddf2bbd99e" y="214.327484"/>
     <use style="fill:#0072bd;stroke:#0072bd;" x="359.873175" xlink:href="#mddf2bbd99e" y="228.640135"/>
     <use style="fill:#0072bd;stroke:#0072bd;" x="365.762857" xlink:href="#mddf2bbd99e" y="243.34689"/>
     <use style="fill:#0072bd;stroke:#0072bd;" x="371.65254" xlink:href="#mddf2bbd99e" y="258.411188"/>
     <use style="fill:#0072bd;stroke:#0072bd;" x="377.542222" xlink:href="#mddf2bbd99e" y="273.795575"/>
     <use style="fill:#0072bd;stroke:#0072bd;" x="383.431905" xlink:href="#mddf2bbd99e" y="289.461805"/>
     <use style="fill:#0072bd;stroke:#0072bd;" x="389.321587" xlink:href="#mddf2bbd99e" y="305.370927"/>
     <use style="fill:#0072bd;stroke:#0072bd;" x="395.21127" xlink:href="#mddf2bbd99e" y="321.48339"/>
     <use style="fill:#0072bd;stroke:#0072bd;" x="401.100952" xlink:href="#mddf2bbd99e" y="337.759136"/>
     <use style="fill:#0072bd;stroke:#0072bd;" x="406.990635" xlink:href="#mddf2bbd99e" y="354.157699"/>
     <use style="fill:#0072bd;stroke:#0072bd;" x="412.880317" xlink:href="#mddf2bbd99e" y="370.638312"/>
     <use style="fill:#0072bd;stroke:#0072bd;" x="418.77" xlink:href="#mddf2bbd99e" y="387.16"/>
    </g>
   </g>
   <g id="patch_3">
    <path d="M 47.72 387.16 
L 47.72 39.24 
" style="fill:none;stroke:#000000;stroke-linecap:square;stroke-linejoin:miter;stroke-width:0.8;"/>
   </g>
   <g id="patch_4">
    <path d="M 418.77 387.16 
L 418.77 39.24 
" style="fill:none;stroke:#000000;stroke-linecap:square;stroke-linejoin:miter;stroke-width:0.8;"/>
   </g>
   <g id="patch_5">
    <path d="M 47.72 387.16 
L 418.77 387.16 
" style="fill:none;stroke:#000000;stroke-linecap:square;stroke-linejoin:miter;stroke-width:0.8;"/>
   </g>
   <g id="patch_6">
    <path d="M 47.72 39.24 
L 418.77 39.24 
" style="fill:none;stroke:#000000;stroke-linecap:square;stroke-linejoin:miter;stroke-width:0.8;"/>
   </g>
  </g>
  <g id="axes_2">
   <g id="patch_7">
    <path d="M 474.23 387.16 
L 845.28 387.16 
L 845.28 39.24 
L 474.23 39.24 
z
" style="fill:#ffffff;"/>
   </g>
   <g id="matplotlib.axis_3">
    <g id="xtick_8">
     <g id="line2d_28">
      <path clip-path="url(#pb3dc7ea038)" d="M 474.23 387.16 
L 474.23 39.24 
" style="fill:none;stroke:#777777;stroke-linecap:square;stroke-width:0.8;"/>
     </g>
     <g id="line2d_29">
      <g>
       <use style="stroke:#000000;stroke-width:0.8;" x="474.23" xlink:href="#mfa61dcf6dd" y="387.16"/>
      </g>
     </g>
     <g id="text_16">
      <!-- 0.0 -->
      <g transform="translate(466.278437 401.758438)scale(0.1 -0.1)">
       <use xlink:href="#DejaVuSans-48"/>
       <use x="63.623047" xlink:href="#DejaVuSans-46"/>
       <use x="95.410156" xlink:href="#DejaVuSans-48"/>
      </g>
     </g>
    </g>
    <g id="xtick_9">
     <g id="line2d_30">
      <path clip-path="url(#pb3dc7ea038)" d="M 548.44 387.16 
L 548.44 39.24 
" style="fill:none;stroke:#777777;stroke-linecap:square;stroke-width:0.8;"/>
     </g>
     <g id="line2d_31">
      <g>
       <use style="stroke:#000000;stroke-width:0.8;" x="548.44" xlink:href="#mfa61dcf6dd" y="387.16"/>
      </g>
     </g>
     <g id="text_17">
      <!-- 0.2 -->
      <g transform="translate(540.488437 401.758438)scale(0.1 -0.1)">
       <use xlink:href="#DejaVuSans-48"/>
       <use x="63.623047" xlink:href="#DejaVuSans-46"/>
       <use x="95.410156" xlink:href="#DejaVuSans-50"/>
      </g>
     </g>
    </g>
    <g id="xtick_10">
     <g id="line2d_32">
      <path clip-path="url(#pb3dc7ea038)" d="M 622.65 387.16 
L 622.65 39.24 
" style="fill:none;stroke:#777777;stroke-linecap:square;stroke-width:0.8;"/>
     </g>
     <g id="line2d_33">
      <g>
       <use style="stroke:#000000;stroke-width:0.8;" x="622.65" xlink:href="#mfa61dcf6dd" y="387.16"/>
      </g>
     </g>
     <g id="text_18">
      <!-- 0.4 -->
      <g transform="translate(614.698437 401.758438)scale(0.1 -0.1)">
       <use xlink:href="#DejaVuSans-48"/>
       <use x="63.623047" xlink:href="#DejaVuSans-46"/>
       <use x="95.410156" xlink:href="#DejaVuSans-52"/>
      </g>
     </g>
    </g>
    <g id="xtick_11">
     <g id="line2d_34">
      <path clip-path="url(#pb3dc7ea038)" d="M 696.86 387.16 
L 696.86 39.24 
" style="fill:none;stroke:#777777;stroke-linecap:square;stroke-width:0.8;"/>
     </g>
     <g id="line2d_35">
      <g>
       <use style="stroke:#000000;stroke-width:0.8;" x="696.86" xlink:href="#mfa61dcf6dd" y="387.16"/>
      </g>
     </g>
     <g id="text_19">
      <!-- 0.6 -->
      <g transform="translate(688.908437 401.758438)scale(0.1 -0.1)">
       <use xlink:href="#DejaVuSans-48"/>
       <use x="63.623047" xlink:href="#DejaVuSans-46"/>
       <use x="95.410156" xlink:href="#DejaVuSans-54"/>
      </g>
     </g>
    </g>
    <g id="xtick_12">
     <g id="line2d_36">
      <path clip-path="url(#pb3dc7ea038)" d="M 771.07 387.16 
L 771.07 39.24 
" style="fill:none;stroke:#777777;stroke-linecap:square;stroke-width:0.8;"/>
     </g>
     <g id="line2d_37">
      <g>
       <use style="stroke:#000000;stroke-width:0.8;" x="771.07" xlink:href="#mfa61dcf6dd" y="387.16"/>
      </g>
     </g>
     <g id="text_20">
      <!-- 0.8 -->
      <g transform="translate(763.118437 401.758438)scale(0.1 -0.1)">
       <use xlink:href="#DejaVuSans-48"/>
       <use x="63.623047" xlink:href="#DejaVuSans-46"/>
       <use x="95.410156" xlink:href="#DejaVuSans-56"/>
      </g>
     </g>
    </g>
    <g id="xtick_13">
     <g id="line2d_38">
      <path clip-path="url(#pb3dc7ea038)" d="M 845.28 387.16 
L 845.28 39.24 
" style="fill:none;stroke:#777777;stroke-linecap:square;stroke-width:0.8;"/>
     </g>
     <g id="line2d_39">
      <g>
       <use style="stroke:#000000;stroke-width:0.8;" x="845.28" xlink:href="#mfa61dcf6dd" y="387.16"/>
      </g>
     </g>
     <g id="text_21">
      <!-- 1.0 -->
      <g transform="translate(837.328437 401.758438)scale(0.1 -0.1)">
       <use xlink:href="#DejaVuSans-49"/>
       <use x="63.623047" xlink:href="#DejaVuSans-46"/>
       <use x="95.410156" xlink:href="#DejaVuSans-48"/>
      </g>
     </g>
    </g>
    <g id="text_22">
     <!-- Normalized Frequency ($\times \pi$ rad/sample) -->
     <defs>
      <path d="M 9.8125 72.90625 
L 23.09375 72.90625 
L 55.421875 11.921875 
L 55.421875 72.90625 
L 64.984375 72.90625 
L 64.984375 0 
L 51.703125 0 
L 19.390625 60.984375 
L 19.390625 0 
L 9.8125 0 
z
" id="DejaVuSans-78"/>
      <path d="M 30.609375 48.390625 
Q 23.390625 48.390625 19.1875 42.75 
Q 14.984375 37.109375 14.984375 27.296875 
Q 14.984375 17.484375 19.15625 11.84375 
Q 23.34375 6.203125 30.609375 6.203125 
Q 37.796875 6.203125 41.984375 11.859375 
Q 46.1875 17.53125 46.1875 27.296875 
Q 46.1875 37.015625 41.984375 42.703125 
Q 37.796875 48.390625 30.609375 48.390625 
z
M 30.609375 56 
Q 42.328125 56 49.015625 48.375 
Q 55.71875 40.765625 55.71875 27.296875 
Q 55.71875 13.875 49.015625 6.21875 
Q 42.328125 -1.421875 30.609375 -1.421875 
Q 18.84375 -1.421875 12.171875 6.21875 
Q 5.515625 13.875 5.515625 27.296875 
Q 5.515625 40.765625 12.171875 48.375 
Q 18.84375 56 30.609375 56 
z
" id="DejaVuSans-111"/>
      <path d="M 41.109375 46.296875 
Q 39.59375 47.171875 37.8125 47.578125 
Q 36.03125 48 33.890625 48 
Q 26.265625 48 22.1875 43.046875 
Q 18.109375 38.09375 18.109375 28.8125 
L 18.109375 0 
L 9.078125 0 
L 9.078125 54.6875 
L 18.109375 54.6875 
L 18.109375 46.1875 
Q 20.953125 51.171875 25.484375 53.578125 
Q 30.03125 56 36.53125 56 
Q 37.453125 56 38.578125 55.875 
Q 39.703125 55.765625 41.0625 55.515625 
z
" id="DejaVuSans-114"/>
      <path d="M 5.515625 54.6875 
L 48.1875 54.6875 
L 48.1875 46.484375 
L 14.40625 7.171875 
L 48.1875 7.171875 
L 48.1875 0 
L 4.296875 0 
L 4.296875 8.203125 
L 38.09375 47.515625 
L 5.515625 47.515625 
z
" id="DejaVuSans-122"/>
      <path id="DejaVuSans-32"/>
      <path d="M 9.8125 72.90625 
L 51.703125 72.90625 
L 51.703125 64.59375 
L 19.671875 64.59375 
L 19.671875 43.109375 
L 48.578125 43.109375 
L 48.578125 34.8125 
L 19.671875 34.8125 
L 19.671875 0 
L 9.8125 0 
z
" id="DejaVuSans-70"/>
      <path d="M 14.796875 27.296875 
Q 14.796875 17.390625 18.875 11.75 
Q 22.953125 6.109375 30.078125 6.109375 
Q 37.203125 6.109375 41.296875 11.75 
Q 45.40625 17.390625 45.40625 27.296875 
Q 45.40625 37.203125 41.296875 42.84375 
Q 37.203125 48.484375 30.078125 48.484375 
Q 22.953125 48.484375 18.875 42.84375 
Q 14.796875 37.203125 14.796875 27.296875 
z
M 45.40625 8.203125 
Q 42.578125 3.328125 38.25 0.953125 
Q 33.9375 -1.421875 27.875 -1.421875 
Q 17.96875 -1.421875 11.734375 6.484375 
Q 5.515625 14.40625 5.515625 27.296875 
Q 5.515625 40.1875 11.734375 48.09375 
Q 17.96875 56 27.875 56 
Q 33.9375 56 38.25 53.625 
Q 42.578125 51.265625 45.40625 46.390625 
L 45.40625 54.6875 
L 54.390625 54.6875 
L 54.390625 -20.796875 
L 45.40625 -20.796875 
z
" id="DejaVuSans-113"/>
      <path d="M 54.890625 33.015625 
L 54.890625 0 
L 45.90625 0 
L 45.90625 32.71875 
Q 45.90625 40.484375 42.875 44.328125 
Q 39.84375 48.1875 33.796875 48.1875 
Q 26.515625 48.1875 22.3125 43.546875 
Q 18.109375 38.921875 18.109375 30.90625 
L 18.109375 0 
L 9.078125 0 
L 9.078125 54.6875 
L 18.109375 54.6875 
L 18.109375 46.1875 
Q 21.34375 51.125 25.703125 53.5625 
Q 30.078125 56 35.796875 56 
Q 45.21875 56 50.046875 50.171875 
Q 54.890625 44.34375 54.890625 33.015625 
z
" id="DejaVuSans-110"/>
      <path d="M 48.78125 52.59375 
L 48.78125 44.1875 
Q 44.96875 46.296875 41.140625 47.34375 
Q 37.3125 48.390625 33.40625 48.390625 
Q 24.65625 48.390625 19.8125 42.84375 
Q 14.984375 37.3125 14.984375 27.296875 
Q 14.984375 17.28125 19.8125 11.734375 
Q 24.65625 6.203125 33.40625 6.203125 
Q 37.3125 6.203125 41.140625 7.25 
Q 44.96875 8.296875 48.78125 10.40625 
L 48.78125 2.09375 
Q 45.015625 0.34375 40.984375 -0.53125 
Q 36.96875 -1.421875 32.421875 -1.421875 
Q 20.0625 -1.421875 12.78125 6.34375 
Q 5.515625 14.109375 5.515625 27.296875 
Q 5.515625 40.671875 12.859375 48.328125 
Q 20.21875 56 33.015625 56 
Q 37.15625 56 41.109375 55.140625 
Q 45.0625 54.296875 48.78125 52.59375 
z
" id="DejaVuSans-99"/>
      <path d="M 32.171875 -5.078125 
Q 28.375 -14.84375 24.75 -17.8125 
Q 21.140625 -20.796875 15.09375 -20.796875 
L 7.90625 -20.796875 
L 7.90625 -13.28125 
L 13.1875 -13.28125 
Q 16.890625 -13.28125 18.9375 -11.515625 
Q 21 -9.765625 23.484375 -3.21875 
L 25.09375 0.875 
L 2.984375 54.6875 
L 12.5 54.6875 
L 29.59375 11.921875 
L 46.6875 54.6875 
L 56.203125 54.6875 
z
" id="DejaVuSans-121"/>
      <path d="M 31 75.875 
Q 24.46875 64.65625 21.28125 53.65625 
Q 18.109375 42.671875 18.109375 31.390625 
Q 18.109375 20.125 21.3125 9.0625 
Q 24.515625 -2 31 -13.1875 
L 23.1875 -13.1875 
Q 15.875 -1.703125 12.234375 9.375 
Q 8.59375 20.453125 8.59375 31.390625 
Q 8.59375 42.28125 12.203125 53.3125 
Q 15.828125 64.359375 23.1875 75.875 
z
" id="DejaVuSans-40"/>
      <path d="M 70.125 53.71875 
L 47.796875 31.296875 
L 70.125 8.984375 
L 64.3125 3.078125 
L 41.890625 25.484375 
L 19.484375 3.078125 
L 13.71875 8.984375 
L 35.984375 31.296875 
L 13.71875 53.71875 
L 19.484375 59.625 
L 41.890625 37.203125 
L 64.3125 59.625 
z
" id="DejaVuSans-215"/>
      <path d="M 9.125 54.6875 
L 61.53125 54.6875 
L 59.765625 45.703125 
L 52.875 45.703125 
L 46.34375 12.109375 
Q 45.65625 8.59375 46.578125 7.03125 
Q 47.46875 5.515625 50.140625 5.515625 
Q 50.875 5.515625 51.953125 5.671875 
Q 53.078125 5.765625 53.421875 5.8125 
L 52.15625 -0.6875 
Q 50.34375 -1.3125 48.484375 -1.609375 
Q 46.578125 -1.90625 44.78125 -1.90625 
Q 38.921875 -1.90625 37.3125 1.265625 
Q 35.6875 4.5 37.359375 13.09375 
L 43.703125 45.703125 
L 23.53125 45.703125 
L 14.65625 0 
L 5.46875 0 
L 14.359375 45.703125 
L 7.375 45.703125 
z
" id="DejaVuSans-Oblique-960"/>
      <path d="M 25.390625 72.90625 
L 33.6875 72.90625 
L 8.296875 -9.28125 
L 0 -9.28125 
z
" id="DejaVuSans-47"/>
      <path d="M 8.015625 75.875 
L 15.828125 75.875 
Q 23.140625 64.359375 26.78125 53.3125 
Q 30.421875 42.28125 30.421875 31.390625 
Q 30.421875 20.453125 26.78125 9.375 
Q 23.140625 -1.703125 15.828125 -13.1875 
L 8.015625 -13.1875 
Q 14.5 -2 17.703125 9.0625 
Q 20.90625 20.125 20.90625 31.390625 
Q 20.90625 42.671875 17.703125 53.65625 
Q 14.5 64.65625 8.015625 75.875 
z
" id="DejaVuSans-41"/>
     </defs>
     <g transform="translate(560.955 415.438125)scale(0.1 -0.1)">
      <use transform="translate(0 0.015625)" xlink:href="#DejaVuSans-78"/>
      <use transform="translate(74.804688 0.015625)" xlink:href="#DejaVuSans-111"/>
      <use transform="translate(135.986328 0.015625)" xlink:href="#DejaVuSans-114"/>
      <use transform="translate(177.099609 0.015625)" xlink:href="#DejaVuSans-109"/>
      <use transform="translate(274.511719 0.015625)" xlink:href="#DejaVuSans-97"/>
      <use transform="translate(335.791016 0.015625)" xlink:href="#DejaVuSans-108"/>
      <use transform="translate(363.574219 0.015625)" xlink:href="#DejaVuSans-105"/>
      <use transform="translate(391.357422 0.015625)" xlink:href="#DejaVuSans-122"/>
      <use transform="translate(443.847656 0.015625)" xlink:href="#DejaVuSans-101"/>
      <use transform="translate(505.371094 0.015625)" xlink:href="#DejaVuSans-100"/>
      <use transform="translate(568.847656 0.015625)" xlink:href="#DejaVuSans-32"/>
      <use transform="translate(600.634766 0.015625)" xlink:href="#DejaVuSans-70"/>
      <use transform="translate(658.154297 0.015625)" xlink:href="#DejaVuSans-114"/>
      <use transform="translate(699.267578 0.015625)" xlink:href="#DejaVuSans-101"/>
      <use transform="translate(760.791016 0.015625)" xlink:href="#DejaVuSans-113"/>
      <use transform="translate(824.267578 0.015625)" xlink:href="#DejaVuSans-117"/>
      <use transform="translate(887.646484 0.015625)" xlink:href="#DejaVuSans-101"/>
      <use transform="translate(949.169922 0.015625)" xlink:href="#DejaVuSans-110"/>
      <use transform="translate(1012.548828 0.015625)" xlink:href="#DejaVuSans-99"/>
      <use transform="translate(1067.529297 0.015625)" xlink:href="#DejaVuSans-121"/>
      <use transform="translate(1126.708984 0.015625)" xlink:href="#DejaVuSans-32"/>
      <use transform="translate(1158.496094 0.015625)" xlink:href="#DejaVuSans-40"/>
      <use transform="translate(1197.509766 0.015625)" xlink:href="#DejaVuSans-215"/>
      <use transform="translate(1281.298828 0.015625)" xlink:href="#DejaVuSans-Oblique-960"/>
      <use transform="translate(1341.503906 0.015625)" xlink:href="#DejaVuSans-32"/>
      <use transform="translate(1373.291016 0.015625)" xlink:href="#DejaVuSans-114"/>
      <use transform="translate(1414.404297 0.015625)" xlink:href="#DejaVuSans-97"/>
      <use transform="translate(1475.683594 0.015625)" xlink:href="#DejaVuSans-100"/>
      <use transform="translate(1539.160156 0.015625)" xlink:href="#DejaVuSans-47"/>
      <use transform="translate(1572.851562 0.015625)" xlink:href="#DejaVuSans-115"/>
      <use transform="translate(1624.951172 0.015625)" xlink:href="#DejaVuSans-97"/>
      <use transform="translate(1686.230469 0.015625)" xlink:href="#DejaVuSans-109"/>
      <use transform="translate(1783.642578 0.015625)" xlink:href="#DejaVuSans-112"/>
      <use transform="translate(1847.119141 0.015625)" xlink:href="#DejaVuSans-108"/>
      <use transform="translate(1874.902344 0.015625)" xlink:href="#DejaVuSans-101"/>
      <use transform="translate(1936.425781 0.015625)" xlink:href="#DejaVuSans-41"/>
     </g>
    </g>
   </g>
   <g id="matplotlib.axis_4">
    <g id="ytick_7">
     <g id="line2d_40">
      <path clip-path="url(#pb3dc7ea038)" d="M 474.23 365.860358 
L 845.28 365.860358 
" style="fill:none;stroke:#777777;stroke-linecap:square;stroke-width:0.8;"/>
     </g>
     <g id="line2d_41">
      <g>
       <use style="stroke:#000000;stroke-width:0.8;" x="474.23" xlink:href="#ma05dc57272" y="365.860358"/>
      </g>
     </g>
     <g id="text_23">
      <!-- −80 -->
      <defs>
       <path d="M 10.59375 35.5 
L 73.1875 35.5 
L 73.1875 27.203125 
L 10.59375 27.203125 
z
" id="DejaVuSans-8722"/>
      </defs>
      <g transform="translate(446.125312 369.659577)scale(0.1 -0.1)">
       <use xlink:href="#DejaVuSans-8722"/>
       <use x="83.789062" xlink:href="#DejaVuSans-56"/>
       <use x="147.412109" xlink:href="#DejaVuSans-48"/>
      </g>
     </g>
    </g>
    <g id="ytick_8">
     <g id="line2d_42">
      <path clip-path="url(#pb3dc7ea038)" d="M 474.23 310.390331 
L 845.28 310.390331 
" style="fill:none;stroke:#777777;stroke-linecap:square;stroke-width:0.8;"/>
     </g>
     <g id="line2d_43">
      <g>
       <use style="stroke:#000000;stroke-width:0.8;" x="474.23" xlink:href="#ma05dc57272" y="310.390331"/>
      </g>
     </g>
     <g id="text_24">
      <!-- −60 -->
      <g transform="translate(446.125312 314.189549)scale(0.1 -0.1)">
       <use xlink:href="#DejaVuSans-8722"/>
       <use x="83.789062" xlink:href="#DejaVuSans-54"/>
       <use x="147.412109" xlink:href="#DejaVuSans-48"/>
      </g>
     </g>
    </g>
    <g id="ytick_9">
     <g id="line2d_44">
      <path clip-path="url(#pb3dc7ea038)" d="M 474.23 254.920303 
L 845.28 254.920303 
" style="fill:none;stroke:#777777;stroke-linecap:square;stroke-width:0.8;"/>
     </g>
     <g id="line2d_45">
      <g>
       <use style="stroke:#000000;stroke-width:0.8;" x="474.23" xlink:href="#ma05dc57272" y="254.920303"/>
      </g>
     </g>
     <g id="text_25">
      <!-- −40 -->
      <g transform="translate(446.125312 258.719522)scale(0.1 -0.1)">
       <use xlink:href="#DejaVuSans-8722"/>
       <use x="83.789062" xlink:href="#DejaVuSans-52"/>
       <use x="147.412109" xlink:href="#DejaVuSans-48"/>
      </g>
     </g>
    </g>
    <g id="ytick_10">
     <g id="line2d_46">
      <path clip-path="url(#pb3dc7ea038)" d="M 474.23 199.450275 
L 845.28 199.450275 
" style="fill:none;stroke:#777777;stroke-linecap:square;stroke-width:0.8;"/>
     </g>
     <g id="line2d_47">
      <g>
       <use style="stroke:#000000;stroke-width:0.8;" x="474.23" xlink:href="#ma05dc57272" y="199.450275"/>
      </g>
     </g>
     <g id="text_26">
      <!-- −20 -->
      <g transform="translate(446.125312 203.249494)scale(0.1 -0.1)">
       <use xlink:href="#DejaVuSans-8722"/>
       <use x="83.789062" xlink:href="#DejaVuSans-50"/>
       <use x="147.412109" xlink:href="#DejaVuSans-48"/>
      </g>
     </g>
    </g>
    <g id="ytick_11">
     <g id="line2d_48">
      <path clip-path="url(#pb3dc7ea038)" d="M 474.23 143.980248 
L 845.28 143.980248 
" style="fill:none;stroke:#777777;stroke-linecap:square;stroke-width:0.8;"/>
     </g>
     <g id="line2d_49">
      <g>
       <use style="stroke:#000000;stroke-width:0.8;" x="474.23" xlink:href="#ma05dc57272" y="143.980248"/>
      </g>
     </g>
     <g id="text_27">
      <!-- 0 -->
      <g transform="translate(460.8675 147.779466)scale(0.1 -0.1)">
       <use xlink:href="#DejaVuSans-48"/>
      </g>
     </g>
    </g>
    <g id="ytick_12">
     <g id="line2d_50">
      <path clip-path="url(#pb3dc7ea038)" d="M 474.23 88.51022 
L 845.28 88.51022 
" style="fill:none;stroke:#777777;stroke-linecap:square;stroke-width:0.8;"/>
     </g>
     <g id="line2d_51">
      <g>
       <use style="stroke:#000000;stroke-width:0.8;" x="474.23" xlink:href="#ma05dc57272" y="88.51022"/>
      </g>
     </g>
     <g id="text_28">
      <!-- 20 -->
      <g transform="translate(454.505 92.309439)scale(0.1 -0.1)">
       <use xlink:href="#DejaVuSans-50"/>
       <use x="63.623047" xlink:href="#DejaVuSans-48"/>
      </g>
     </g>
    </g>
    <g id="text_29">
     <!-- Gain (dB) -->
     <defs>
      <path d="M 59.515625 10.40625 
L 59.515625 29.984375 
L 43.40625 29.984375 
L 43.40625 38.09375 
L 69.28125 38.09375 
L 69.28125 6.78125 
Q 63.578125 2.734375 56.6875 0.65625 
Q 49.8125 -1.421875 42 -1.421875 
Q 24.90625 -1.421875 15.25 8.5625 
Q 5.609375 18.5625 5.609375 36.375 
Q 5.609375 54.25 15.25 64.234375 
Q 24.90625 74.21875 42 74.21875 
Q 49.125 74.21875 55.546875 72.453125 
Q 61.96875 70.703125 67.390625 67.28125 
L 67.390625 56.78125 
Q 61.921875 61.421875 55.765625 63.765625 
Q 49.609375 66.109375 42.828125 66.109375 
Q 29.4375 66.109375 22.71875 58.640625 
Q 16.015625 51.171875 16.015625 36.375 
Q 16.015625 21.625 22.71875 14.15625 
Q 29.4375 6.6875 42.828125 6.6875 
Q 48.046875 6.6875 52.140625 7.59375 
Q 56.25 8.5 59.515625 10.40625 
z
" id="DejaVuSans-71"/>
      <path d="M 19.671875 34.8125 
L 19.671875 8.109375 
L 35.5 8.109375 
Q 43.453125 8.109375 47.28125 11.40625 
Q 51.125 14.703125 51.125 21.484375 
Q 51.125 28.328125 47.28125 31.5625 
Q 43.453125 34.8125 35.5 34.8125 
z
M 19.671875 64.796875 
L 19.671875 42.828125 
L 34.28125 42.828125 
Q 41.5 42.828125 45.03125 45.53125 
Q 48.578125 48.25 48.578125 53.8125 
Q 48.578125 59.328125 45.03125 62.0625 
Q 41.5 64.796875 34.28125 64.796875 
z
M 9.8125 72.90625 
L 35.015625 72.90625 
Q 46.296875 72.90625 52.390625 68.21875 
Q 58.5 63.53125 58.5 54.890625 
Q 58.5 48.1875 55.375 44.234375 
Q 52.25 40.28125 46.1875 39.3125 
Q 53.46875 37.75 57.5 32.78125 
Q 61.53125 27.828125 61.53125 20.40625 
Q 61.53125 10.640625 54.890625 5.3125 
Q 48.25 0 35.984375 0 
L 9.8125 0 
z
" id="DejaVuSans-66"/>
     </defs>
     <g transform="translate(440.045625 236.791406)rotate(-90)scale(0.1 -0.1)">
      <use xlink:href="#DejaVuSans-71"/>
      <use x="77.490234" xlink:href="#DejaVuSans-97"/>
      <use x="138.769531" xlink:href="#DejaVuSans-105"/>
      <use x="166.552734" xlink:href="#DejaVuSans-110"/>
      <use x="229.931641" xlink:href="#DejaVuSans-32"/>
      <use x="261.71875" xlink:href="#DejaVuSans-40"/>
      <use x="300.732422" xlink:href="#DejaVuSans-100"/>
      <use x="364.208984" xlink:href="#DejaVuSans-66"/>
      <use x="432.8125" xlink:href="#DejaVuSans-41"/>
     </g>
    </g>
   </g>
   <g id="line2d_52">
    <path clip-path="url(#pb3dc7ea038)" d="M 474.23 55.054545 
L 474.954707 55.13975 
L 475.679414 55.395854 
L 476.404121 55.824338 
L 477.128828 56.42772 
L 477.853535 57.209637 
L 478.578242 58.174959 
L 480.027656 60.682549 
L 481.47707 64.022278 
L 482.926484 68.305244 
L 484.375898 73.705999 
L 485.825312 80.513063 
L 487.274727 89.249255 
L 487.999434 94.642389 
L 488.724141 101.023629 
L 489.448848 108.84096 
L 490.173555 119.017346 
L 490.898262 134.030334 
L 491.622969 167.116029 
L 492.347676 157.662233 
L 493.072383 136.938117 
L 493.79709 127.997911 
L 494.521797 123.082752 
L 495.246504 120.333589 
L 495.971211 119.023235 
L 496.695918 118.808699 
L 497.420625 119.521 
L 498.145332 121.090453 
L 498.870039 123.520556 
L 499.594746 126.887891 
L 500.319453 131.36786 
L 501.04416 137.308409 
L 501.768867 145.436704 
L 502.493574 157.58984 
L 503.218281 181.301676 
L 503.942988 195.825913 
L 504.667695 165.515539 
L 505.392402 154.010612 
L 506.117109 147.534714 
L 506.841816 143.586073 
L 507.566523 141.258483 
L 508.29123 140.135924 
L 509.015937 140.011115 
L 509.740645 140.789284 
L 510.465352 142.453072 
L 511.190059 145.056449 
L 511.914766 148.742867 
L 512.639473 153.802598 
L 513.36418 160.829586 
L 514.088887 171.233578 
L 514.813594 189.852019 
L 515.538301 240.691905 
L 516.263008 186.251805 
L 516.987715 172.10708 
L 517.712422 164.379301 
L 518.437129 159.58784 
L 519.161836 156.594524 
L 519.886543 154.898045 
L 520.61125 154.250381 
L 521.335957 154.532377 
L 522.060664 155.707897 
L 522.785371 157.811542 
L 523.510078 160.960138 
L 524.234785 165.397118 
L 524.959492 171.612961 
L 525.684199 180.713804 
L 526.408906 196.032537 
L 527.133613 246.595827 
L 527.85832 204.191489 
L 528.583027 186.617572 
L 529.307734 177.591626 
L 530.032441 172.024682 
L 530.757148 168.462548 
L 531.481855 166.297586 
L 532.206562 165.234164 
L 532.93127 165.126416 
L 533.655977 165.919081 
L 534.380684 167.628468 
L 535.105391 170.347795 
L 535.830098 174.281097 
L 536.554805 179.836459 
L 537.279512 187.897163 
L 538.004219 200.87215 
L 538.728926 231.454745 
L 539.453633 221.928061 
L 540.17834 199.234057 
L 540.903047 188.711621 
L 541.627754 182.345803 
L 542.352461 178.237106 
L 543.077168 175.642234 
L 543.801875 174.208574 
L 544.526582 173.760109 
L 545.251289 174.221408 
L 545.975996 175.590915 
L 546.700703 177.940404 
L 547.42541 181.44016 
L 548.150117 186.431501 
L 548.874824 193.62981 
L 549.599531 204.838518 
L 550.324238 227.363622 
L 551.048945 242.758653 
L 551.773652 210.892162 
L 552.498359 198.526886 
L 553.223066 191.286504 
L 553.947773 186.618752 
L 554.67248 183.603626 
L 555.397187 181.819182 
L 556.121895 181.054742 
L 556.846602 181.213118 
L 557.571309 182.2749 
L 558.296016 184.291988 
L 559.020723 187.405301 
L 559.74543 191.901213 
L 560.470137 198.365785 
L 561.194844 208.186112 
L 561.919551 226.079444 
L 562.644258 280.572043 
L 563.368965 222.290293 
L 564.093672 207.5179 
L 564.818379 199.279999 
L 565.543086 194.017743 
L 566.267793 190.575624 
L 566.9925 188.445994 
L 567.717207 187.377712 
L 568.441914 187.24969 
L 569.166621 188.024282 
L 569.891328 189.734612 
L 570.616035 192.495654 
L 571.340742 196.5479 
L 572.065449 202.375859 
L 572.790156 211.069447 
L 573.514863 225.890324 
L 574.23957 273.911515 
L 574.964277 234.166265 
L 575.688984 216.025994 
L 576.413691 206.610879 
L 577.138398 200.698434 
L 577.863105 196.810834 
L 578.587812 194.332745 
L 579.31252 192.965103 
L 580.037227 192.560106 
L 580.761934 193.061111 
L 581.486641 194.483151 
L 582.211348 196.917905 
L 582.936055 200.567007 
L 583.660762 205.833826 
L 584.385469 213.589617 
L 585.110176 226.197809 
L 585.834883 255.858583 
L 586.55959 247.674206 
L 587.284297 224.33651 
L 588.009004 213.484598 
L 588.733711 206.844338 
L 589.458418 202.482483 
L 590.183125 199.64595 
L 590.907832 197.978098 
L 591.632539 197.300801 
L 592.357246 197.537232 
L 593.081953 198.684643 
L 593.80666 200.813445 
L 594.531367 204.091894 
L 595.256074 208.857485 
L 595.980781 215.816453 
L 596.705488 226.741531 
L 597.430195 248.722683 
L 598.154902 265.627762 
L 598.879609 232.737207 
L 599.604316 220.064223 
L 600.329023 212.591417 
L 601.05373 207.716004 
L 601.778437 204.505155 
L 602.503145 202.532043 
L 603.227852 201.583593 
L 603.952559 201.561144 
L 604.677266 202.444112 
L 605.401973 204.283148 
L 606.12668 207.217411 
L 606.851387 211.530122 
L 607.576094 217.800228 
L 608.300801 227.393247 
L 609.025508 244.910973 
L 609.750215 304.06017 
L 610.474922 241.585246 
L 611.199629 226.493453 
L 611.924336 218.04696 
L 612.649043 212.606675 
L 613.37375 208.999819 
L 614.098457 206.712693 
L 614.823164 205.491368 
L 615.547871 205.213141 
L 616.272578 205.839177 
L 616.997285 207.401422 
L 617.721992 210.013293 
L 618.446699 213.912638 
L 619.171406 219.57833 
L 619.896113 228.084612 
L 620.62082 242.624229 
L 621.345527 288.548635 
L 622.070234 251.431207 
L 622.794941 232.914814 
L 623.519648 223.301451 
L 624.244355 217.230242 
L 624.969062 213.199395 
L 625.69377 210.585925 
L 626.418477 209.087456 
L 627.143184 208.554385 
L 627.867891 208.928826 
L 628.592598 210.224676 
L 629.317305 212.532209 
L 630.042012 216.050809 
L 630.766719 221.179304 
L 631.491426 228.777248 
L 632.216133 241.163829 
L 632.94084 270.075337 
L 633.665547 263.351993 
L 634.390254 239.48914 
L 635.114961 228.437021 
L 635.839668 221.649783 
L 636.564375 217.159705 
L 637.289082 214.203834 
L 638.013789 212.421534 
L 638.738496 211.632625 
L 639.463203 211.758956 
L 640.18791 212.796656 
L 640.912617 214.814847 
L 641.637324 217.979837 
L 642.362031 222.625411 
L 643.086738 229.448858 
L 643.811445 240.192976 
L 645.260859 280.29446 
L 645.985566 246.423993 
L 646.710273 233.53456 
L 647.43498 225.920507 
L 648.159687 220.927186 
L 648.884395 217.608758 
L 649.609102 215.533494 
L 650.333809 214.485945 
L 651.058516 214.366005 
L 651.783223 215.151957 
L 652.50793 216.893245 
L 653.232637 219.727322 
L 653.957344 223.934324 
L 654.682051 230.086226 
L 655.406758 239.527449 
L 656.131465 256.748325 
L 656.856172 321.60231 
L 657.580879 254.026672 
L 658.305586 238.681096 
L 659.030293 230.093456 
L 659.755 224.541892 
L 660.479707 220.836039 
L 661.204414 218.456088 
L 661.929121 217.145315 
L 662.653828 216.779421 
L 663.378535 217.3184 
L 664.103242 218.793047 
L 664.827949 221.315256 
L 665.552656 225.12028 
L 666.277363 230.681456 
L 667.00207 239.057666 
L 667.726777 253.374774 
L 668.451484 297.452648 
L 669.176191 262.825881 
L 669.900898 243.979264 
L 670.625605 234.218735 
L 671.350312 228.039733 
L 672.07502 223.915994 
L 672.799727 221.216778 
L 673.524434 219.636377 
L 674.249141 219.02339 
L 674.973848 219.318696 
L 675.698555 220.535073 
L 676.423262 222.761416 
L 677.147969 226.19489 
L 677.872676 231.229857 
L 678.597383 238.714384 
L 679.32209 250.92456 
L 680.046797 279.159511 
L 680.771504 273.924708 
L 681.496211 249.561924 
L 682.220918 238.34881 
L 682.945625 231.454311 
L 683.670332 226.875398 
L 684.395039 223.839096 
L 685.119746 221.980732 
L 685.844453 221.11807 
L 686.56916 221.171635 
L 687.293867 222.136441 
L 688.018574 224.08034 
L 688.743281 227.167718 
L 689.467988 231.728701 
L 690.192695 238.451787 
L 690.917402 249.050524 
L 692.366816 290.492562 
L 693.091523 255.618259 
L 693.81623 242.54244 
L 694.540937 234.818549 
L 695.265645 229.738648 
L 695.990352 226.343658 
L 696.715059 224.19689 
L 697.439766 223.080504 
L 698.164473 222.89295 
L 698.88918 223.611381 
L 699.613887 225.284047 
L 700.338594 228.04671 
L 701.063301 232.176467 
L 701.788008 238.238427 
L 702.512715 247.556354 
L 703.237422 264.51291 
L 703.962129 336.64639 
L 704.686836 262.447179 
L 705.411543 246.870063 
L 706.13625 238.16635 
L 706.860957 232.528748 
L 707.585664 228.748965 
L 708.310371 226.300996 
L 709.035078 224.925301 
L 709.759785 224.495975 
L 710.484492 224.971843 
L 711.209199 226.382558 
L 711.933906 228.838506 
L 712.658613 232.572373 
L 713.38332 238.052043 
L 714.108027 246.321332 
L 714.832734 260.44115 
L 715.557441 302.858018 
L 716.282148 270.584962 
L 717.006855 251.42211 
L 717.731562 241.53447 
L 718.45627 235.26821 
L 719.180977 231.072054 
L 719.905684 228.307395 
L 720.630391 226.665158 
L 721.355098 225.992128 
L 722.079805 226.227955 
L 722.804512 227.384297 
L 723.529219 229.548681 
L 724.253926 232.916081 
L 724.978633 237.876452 
L 725.70334 245.266572 
L 726.428047 257.320527 
L 727.152754 284.924834 
L 727.877461 281.185364 
L 728.602168 256.32314 
L 729.326875 244.964906 
L 730.051582 237.979946 
L 730.776289 233.329062 
L 731.500996 230.22909 
L 732.225703 228.311273 
L 732.95041 227.391299 
L 733.675117 227.388369 
L 734.399824 228.296384 
L 735.124531 230.181933 
L 735.849238 233.207499 
L 736.573945 237.699594 
L 737.298652 244.338069 
L 738.023359 254.807883 
L 739.472773 297.685057 
L 740.19748 261.758356 
L 740.922187 248.50823 
L 741.646895 240.688266 
L 742.371602 235.535751 
L 743.096309 232.078126 
L 743.821016 229.873676 
L 744.545723 228.702146 
L 745.27043 228.460539 
L 745.995137 229.124876 
L 746.719844 230.742218 
L 747.444551 233.446655 
L 748.169258 237.512274 
L 748.893965 243.497427 
L 749.618672 252.70564 
L 750.343379 269.415523 
L 751.068086 351.671648 
L 751.792793 268.029236 
L 752.5175 252.228639 
L 753.242207 243.420067 
L 753.966914 237.708025 
L 754.691621 233.86593 
L 755.416328 231.361498 
L 756.141035 229.932338 
L 756.865742 229.450934 
L 757.590449 229.87494 
L 758.315156 231.232869 
L 759.039863 233.633608 
L 759.76457 237.307309 
L 760.489277 242.716476 
L 761.213984 250.890138 
L 761.938691 264.826118 
L 762.663398 305.731192 
L 763.388105 275.688816 
L 764.112813 256.21217 
L 764.83752 246.206391 
L 765.562227 239.862491 
L 766.286934 235.60363 
L 767.011641 232.783211 
L 767.736348 231.08875 
L 768.461055 230.365211 
L 769.185762 230.551004 
L 769.910469 231.656675 
L 770.635176 233.768391 
L 771.359883 237.078952 
L 772.08459 241.973966 
L 772.809297 249.279118 
L 773.534004 261.187541 
L 774.258711 288.195774 
L 774.983418 285.952482 
L 775.708125 260.581098 
L 776.432832 249.0846 
L 777.157539 242.017109 
L 777.882246 237.302362 
L 778.606953 234.146833 
L 779.33166 232.177632 
L 780.056367 231.208353 
L 780.781074 231.156864 
L 781.505781 232.015958 
L 782.230488 233.850964 
L 782.955195 236.822481 
L 783.679902 241.25345 
L 784.404609 247.81521 
L 785.129316 258.164776 
L 785.854023 278.615252 
L 786.57873 302.564118 
L 787.303437 265.52142 
L 788.028145 252.101595 
L 788.752852 244.192001 
L 789.477559 238.973607 
L 790.202266 235.460126 
L 790.926973 233.20475 
L 791.65168 231.984787 
L 792.376387 231.695781 
L 793.101094 232.312622 
L 793.825801 233.881189 
L 794.550508 236.533907 
L 795.275215 240.541892 
L 795.999922 246.456835 
L 796.724629 255.562438 
L 797.449336 272.036715 
L 798.174043 371.345455 
L 798.89875 271.341214 
L 799.623457 255.318859 
L 800.348164 246.410507 
L 801.072871 240.629563 
L 801.797578 236.730785 
L 802.522285 234.175513 
L 803.246992 232.698482 
L 803.971699 232.17055 
L 804.696406 232.548196 
L 805.421113 233.858797 
L 806.14582 236.209754 
L 806.870527 239.828707 
L 807.595234 245.172855 
L 808.319941 253.256716 
L 809.044648 267.016813 
L 809.769355 306.534316 
L 810.494062 278.614436 
L 811.21877 258.820825 
L 811.943477 248.700662 
L 812.668184 242.283592 
L 813.392891 237.966642 
L 814.117598 235.095097 
L 814.842305 233.35303 
L 815.567012 232.583563 
L 816.291719 232.723867 
L 817.016426 233.783374 
L 817.741133 235.846897 
L 818.46584 239.105088 
L 819.190547 243.939259 
L 819.915254 251.164193 
L 820.639961 262.933091 
L 821.364668 289.373403 
L 822.089375 288.625746 
L 822.814082 262.729739 
L 823.538789 251.097318 
L 824.263496 243.950786 
L 824.988203 239.175886 
L 825.71291 235.968556 
L 826.437617 233.95172 
L 827.162324 232.93686 
L 827.887031 232.840506 
L 828.611738 233.654339 
L 829.336445 235.442436 
L 830.061152 238.363526 
L 830.785859 242.737024 
L 831.510566 249.225891 
L 832.235273 259.459819 
L 832.95998 279.577078 
L 833.684687 305.469454 
L 834.409395 267.234278 
L 835.134102 253.645379 
L 835.858809 245.648709 
L 836.583516 240.367322 
L 837.308223 236.800945 
L 838.03293 234.497611 
L 838.757637 233.232165 
L 839.482344 232.898684 
L 840.207051 233.470926 
L 840.931758 234.993588 
L 841.656465 237.597449 
L 842.381172 241.550682 
L 843.105879 247.398415 
L 843.830586 256.404926 
L 844.555293 272.650938 
L 844.555293 272.650938 
" style="fill:none;stroke:#0072bd;stroke-linecap:square;stroke-width:1.4;"/>
   </g>
   <g id="patch_8">
    <path d="M 474.23 387.16 
L 474.23 39.24 
" style="fill:none;stroke:#000000;stroke-linecap:square;stroke-linejoin:miter;stroke-width:0.8;"/>
   </g>
   <g id="patch_9">
    <path d="M 845.28 387.16 
L 845.28 39.24 
" style="fill:none;stroke:#000000;stroke-linecap:square;stroke-linejoin:miter;stroke-width:0.8;"/>
   </g>
   <g id="patch_10">
    <path d="M 474.23 387.16 
L 845.28 387.16 
" style="fill:none;stroke:#000000;stroke-linecap:square;stroke-linejoin:miter;stroke-width:0.8;"/>
   </g>
   <g id="patch_11">
    <path d="M 474.23 39.24 
L 845.28 39.24 
" style="fill:none;stroke:#000000;stroke-linecap:square;stroke-linejoin:miter;stroke-width:0.8;"/>
   </g>
  </g>
  <g id="text_30">
   <!-- Cosine window -->
   <defs>
    <path d="M 64.40625 67.28125 
L 64.40625 56.890625 
Q 59.421875 61.53125 53.78125 63.8125 
Q 48.140625 66.109375 41.796875 66.109375 
Q 29.296875 66.109375 22.65625 58.46875 
Q 16.015625 50.828125 16.015625 36.375 
Q 16.015625 21.96875 22.65625 14.328125 
Q 29.296875 6.6875 41.796875 6.6875 
Q 48.140625 6.6875 53.78125 8.984375 
Q 59.421875 11.28125 64.40625 15.921875 
L 64.40625 5.609375 
Q 59.234375 2.09375 53.4375 0.328125 
Q 47.65625 -1.421875 41.21875 -1.421875 
Q 24.65625 -1.421875 15.125 8.703125 
Q 5.609375 18.84375 5.609375 36.375 
Q 5.609375 53.953125 15.125 64.078125 
Q 24.65625 74.21875 41.21875 74.21875 
Q 47.75 74.21875 53.53125 72.484375 
Q 59.328125 70.75 64.40625 67.28125 
z
" id="DejaVuSans-67"/>
    <path d="M 4.203125 54.6875 
L 13.1875 54.6875 
L 24.421875 12.015625 
L 35.59375 54.6875 
L 46.1875 54.6875 
L 57.421875 12.015625 
L 68.609375 54.6875 
L 77.59375 54.6875 
L 63.28125 0 
L 52.6875 0 
L 40.921875 44.828125 
L 29.109375 0 
L 18.5 0 
z
" id="DejaVuSans-119"/>
   </defs>
   <g transform="translate(372.2425 20.7975)scale(0.16 -0.16)">
    <use xlink:href="#DejaVuSans-67"/>
    <use x="69.824219" xlink:href="#DejaVuSans-111"/>
    <use x="131.005859" xlink:href="#DejaVuSans-115"/>
    <use x="183.105469" xlink:href="#DejaVuSans-105"/>
    <use x="210.888672" xlink:href="#DejaVuSans-110"/>
    <use x="274.267578" xlink:href="#DejaVuSans-101"/>
    <use x="335.791016" xlink:href="#DejaVuSans-32"/>
    <use x="367.578125" xlink:href="#DejaVuSans-119"/>
    <use x="449.365234" xlink:href="#DejaVuSans-105"/>
    <use x="477.148438" xlink:href="#DejaVuSans-110"/>
    <use x="540.527344" xlink:href="#DejaVuSans-100"/>
    <use x="604.003906" xlink:href="#DejaVuSans-111"/>
    <use x="665.185547" xlink:href="#DejaVuSans-119"/>
   </g>
  </g>
 </g>
 <defs>
  <clipPath id="p5db5ac15e0">
   <rect height="347.92" width="371.05" x="47.72" y="39.24"/>
  </clipPath>
  <clipPath id="pb3dc7ea038">
   <rect height="347.92" width="371.05" x="474.23" y="39.24"/>
  </clipPath>
 </defs>
</svg>
