<?xml version="1.0" encoding="utf-8" standalone="no"?>
<!DOCTYPE svg PUBLIC "-//W3C//DTD SVG 1.1//EN"
  "http://www.w3.org/Graphics/SVG/1.1/DTD/svg11.dtd">
<!-- Created with matplotlib (https://matplotlib.org/) -->
<svg height="432pt" version="1.1" viewBox="0 0 864 432" width="864pt" xmlns="http://www.w3.org/2000/svg" xmlns:xlink="http://www.w3.org/1999/xlink">
 <defs>
  <style type="text/css">
*{stroke-linecap:butt;stroke-linejoin:round;}
  </style>
 </defs>
 <g id="figure_1">
  <g id="patch_1">
   <path d="M 0 432 
L 864 432 
L 864 0 
L 0 0 
z
" style="fill:#ffffff;"/>
  </g>
  <g id="axes_1">
   <g id="patch_2">
    <path d="M 47.855 388.6 
L 416.835 388.6 
L 416.835 36.72 
L 47.855 36.72 
z
" style="fill:#ffffff;"/>
   </g>
   <g id="matplotlib.axis_1">
    <g id="xtick_1">
     <g id="line2d_1">
      <path clip-path="url(#p18189ee57d)" d="M 47.855 388.6 
L 47.855 36.72 
" style="fill:none;stroke:#777777;stroke-linecap:square;stroke-width:0.8;"/>
     </g>
     <g id="line2d_2">
      <defs>
       <path d="M 0 0 
L 0 3.5 
" id="mf936eb5a21" style="stroke:#000000;stroke-width:0.8;"/>
      </defs>
      <g>
       <use style="stroke:#000000;stroke-width:0.8;" x="47.855" xlink:href="#mf936eb5a21" y="388.6"/>
      </g>
     </g>
     <g id="text_1">
      <!-- 0 -->
      <defs>
       <path d="M 31.78125 66.40625 
Q 24.171875 66.40625 20.328125 58.90625 
Q 16.5 51.421875 16.5 36.375 
Q 16.5 21.390625 20.328125 13.890625 
Q 24.171875 6.390625 31.78125 6.390625 
Q 39.453125 6.390625 43.28125 13.890625 
Q 47.125 21.390625 47.125 36.375 
Q 47.125 51.421875 43.28125 58.90625 
Q 39.453125 66.40625 31.78125 66.40625 
z
M 31.78125 74.21875 
Q 44.046875 74.21875 50.515625 64.515625 
Q 56.984375 54.828125 56.984375 36.375 
Q 56.984375 17.96875 50.515625 8.265625 
Q 44.046875 -1.421875 31.78125 -1.421875 
Q 19.53125 -1.421875 13.0625 8.265625 
Q 6.59375 17.96875 6.59375 36.375 
Q 6.59375 54.828125 13.0625 64.515625 
Q 19.53125 74.21875 31.78125 74.21875 
z
" id="DejaVuSans-48"/>
      </defs>
      <g transform="translate(44.67375 403.198438)scale(0.1 -0.1)">
       <use xlink:href="#DejaVuSans-48"/>
      </g>
     </g>
    </g>
    <g id="xtick_2">
     <g id="line2d_3">
      <path clip-path="url(#p18189ee57d)" d="M 106.423254 388.6 
L 106.423254 36.72 
" style="fill:none;stroke:#777777;stroke-linecap:square;stroke-width:0.8;"/>
     </g>
     <g id="line2d_4">
      <g>
       <use style="stroke:#000000;stroke-width:0.8;" x="106.423254" xlink:href="#mf936eb5a21" y="388.6"/>
      </g>
     </g>
     <g id="text_2">
      <!-- 10 -->
      <defs>
       <path d="M 12.40625 8.296875 
L 28.515625 8.296875 
L 28.515625 63.921875 
L 10.984375 60.40625 
L 10.984375 69.390625 
L 28.421875 72.90625 
L 38.28125 72.90625 
L 38.28125 8.296875 
L 54.390625 8.296875 
L 54.390625 0 
L 12.40625 0 
z
" id="DejaVuSans-49"/>
      </defs>
      <g transform="translate(100.060754 403.198438)scale(0.1 -0.1)">
       <use xlink:href="#DejaVuSans-49"/>
       <use x="63.623047" xlink:href="#DejaVuSans-48"/>
      </g>
     </g>
    </g>
    <g id="xtick_3">
     <g id="line2d_5">
      <path clip-path="url(#p18189ee57d)" d="M 164.991508 388.6 
L 164.991508 36.72 
" style="fill:none;stroke:#777777;stroke-linecap:square;stroke-width:0.8;"/>
     </g>
     <g id="line2d_6">
      <g>
       <use style="stroke:#000000;stroke-width:0.8;" x="164.991508" xlink:href="#mf936eb5a21" y="388.6"/>
      </g>
     </g>
     <g id="text_3">
      <!-- 20 -->
      <defs>
       <path d="M 19.1875 8.296875 
L 53.609375 8.296875 
L 53.609375 0 
L 7.328125 0 
L 7.328125 8.296875 
Q 12.9375 14.109375 22.625 23.890625 
Q 32.328125 33.6875 34.8125 36.53125 
Q 39.546875 41.84375 41.421875 45.53125 
Q 43.3125 49.21875 43.3125 52.78125 
Q 43.3125 58.59375 39.234375 62.25 
Q 35.15625 65.921875 28.609375 65.921875 
Q 23.96875 65.921875 18.8125 64.3125 
Q 13.671875 62.703125 7.8125 59.421875 
L 7.8125 69.390625 
Q 13.765625 71.78125 18.9375 73 
Q 24.125 74.21875 28.421875 74.21875 
Q 39.75 74.21875 46.484375 68.546875 
Q 53.21875 62.890625 53.21875 53.421875 
Q 53.21875 48.921875 51.53125 44.890625 
Q 49.859375 40.875 45.40625 35.40625 
Q 44.1875 33.984375 37.640625 27.21875 
Q 31.109375 20.453125 19.1875 8.296875 
z
" id="DejaVuSans-50"/>
      </defs>
      <g transform="translate(158.629008 403.198438)scale(0.1 -0.1)">
       <use xlink:href="#DejaVuSans-50"/>
       <use x="63.623047" xlink:href="#DejaVuSans-48"/>
      </g>
     </g>
    </g>
    <g id="xtick_4">
     <g id="line2d_7">
      <path clip-path="url(#p18189ee57d)" d="M 223.559762 388.6 
L 223.559762 36.72 
" style="fill:none;stroke:#777777;stroke-linecap:square;stroke-width:0.8;"/>
     </g>
     <g id="line2d_8">
      <g>
       <use style="stroke:#000000;stroke-width:0.8;" x="223.559762" xlink:href="#mf936eb5a21" y="388.6"/>
      </g>
     </g>
     <g id="text_4">
      <!-- 30 -->
      <defs>
       <path d="M 40.578125 39.3125 
Q 47.65625 37.796875 51.625 33 
Q 55.609375 28.21875 55.609375 21.1875 
Q 55.609375 10.40625 48.1875 4.484375 
Q 40.765625 -1.421875 27.09375 -1.421875 
Q 22.515625 -1.421875 17.65625 -0.515625 
Q 12.796875 0.390625 7.625 2.203125 
L 7.625 11.71875 
Q 11.71875 9.328125 16.59375 8.109375 
Q 21.484375 6.890625 26.8125 6.890625 
Q 36.078125 6.890625 40.9375 10.546875 
Q 45.796875 14.203125 45.796875 21.1875 
Q 45.796875 27.640625 41.28125 31.265625 
Q 36.765625 34.90625 28.71875 34.90625 
L 20.21875 34.90625 
L 20.21875 43.015625 
L 29.109375 43.015625 
Q 36.375 43.015625 40.234375 45.921875 
Q 44.09375 48.828125 44.09375 54.296875 
Q 44.09375 59.90625 40.109375 62.90625 
Q 36.140625 65.921875 28.71875 65.921875 
Q 24.65625 65.921875 20.015625 65.03125 
Q 15.375 64.15625 9.8125 62.3125 
L 9.8125 71.09375 
Q 15.4375 72.65625 20.34375 73.4375 
Q 25.25 74.21875 29.59375 74.21875 
Q 40.828125 74.21875 47.359375 69.109375 
Q 53.90625 64.015625 53.90625 55.328125 
Q 53.90625 49.265625 50.4375 45.09375 
Q 46.96875 40.921875 40.578125 39.3125 
z
" id="DejaVuSans-51"/>
      </defs>
      <g transform="translate(217.197262 403.198438)scale(0.1 -0.1)">
       <use xlink:href="#DejaVuSans-51"/>
       <use x="63.623047" xlink:href="#DejaVuSans-48"/>
      </g>
     </g>
    </g>
    <g id="xtick_5">
     <g id="line2d_9">
      <path clip-path="url(#p18189ee57d)" d="M 282.128016 388.6 
L 282.128016 36.72 
" style="fill:none;stroke:#777777;stroke-linecap:square;stroke-width:0.8;"/>
     </g>
     <g id="line2d_10">
      <g>
       <use style="stroke:#000000;stroke-width:0.8;" x="282.128016" xlink:href="#mf936eb5a21" y="388.6"/>
      </g>
     </g>
     <g id="text_5">
      <!-- 40 -->
      <defs>
       <path d="M 37.796875 64.3125 
L 12.890625 25.390625 
L 37.796875 25.390625 
z
M 35.203125 72.90625 
L 47.609375 72.90625 
L 47.609375 25.390625 
L 58.015625 25.390625 
L 58.015625 17.1875 
L 47.609375 17.1875 
L 47.609375 0 
L 37.796875 0 
L 37.796875 17.1875 
L 4.890625 17.1875 
L 4.890625 26.703125 
z
" id="DejaVuSans-52"/>
      </defs>
      <g transform="translate(275.765516 403.198438)scale(0.1 -0.1)">
       <use xlink:href="#DejaVuSans-52"/>
       <use x="63.623047" xlink:href="#DejaVuSans-48"/>
      </g>
     </g>
    </g>
    <g id="xtick_6">
     <g id="line2d_11">
      <path clip-path="url(#p18189ee57d)" d="M 340.69627 388.6 
L 340.69627 36.72 
" style="fill:none;stroke:#777777;stroke-linecap:square;stroke-width:0.8;"/>
     </g>
     <g id="line2d_12">
      <g>
       <use style="stroke:#000000;stroke-width:0.8;" x="340.69627" xlink:href="#mf936eb5a21" y="388.6"/>
      </g>
     </g>
     <g id="text_6">
      <!-- 50 -->
      <defs>
       <path d="M 10.796875 72.90625 
L 49.515625 72.90625 
L 49.515625 64.59375 
L 19.828125 64.59375 
L 19.828125 46.734375 
Q 21.96875 47.46875 24.109375 47.828125 
Q 26.265625 48.1875 28.421875 48.1875 
Q 40.625 48.1875 47.75 41.5 
Q 54.890625 34.8125 54.890625 23.390625 
Q 54.890625 11.625 47.5625 5.09375 
Q 40.234375 -1.421875 26.90625 -1.421875 
Q 22.3125 -1.421875 17.546875 -0.640625 
Q 12.796875 0.140625 7.71875 1.703125 
L 7.71875 11.625 
Q 12.109375 9.234375 16.796875 8.0625 
Q 21.484375 6.890625 26.703125 6.890625 
Q 35.15625 6.890625 40.078125 11.328125 
Q 45.015625 15.765625 45.015625 23.390625 
Q 45.015625 31 40.078125 35.4375 
Q 35.15625 39.890625 26.703125 39.890625 
Q 22.75 39.890625 18.8125 39.015625 
Q 14.890625 38.140625 10.796875 36.28125 
z
" id="DejaVuSans-53"/>
      </defs>
      <g transform="translate(334.33377 403.198438)scale(0.1 -0.1)">
       <use xlink:href="#DejaVuSans-53"/>
       <use x="63.623047" xlink:href="#DejaVuSans-48"/>
      </g>
     </g>
    </g>
    <g id="xtick_7">
     <g id="line2d_13">
      <path clip-path="url(#p18189ee57d)" d="M 399.264524 388.6 
L 399.264524 36.72 
" style="fill:none;stroke:#777777;stroke-linecap:square;stroke-width:0.8;"/>
     </g>
     <g id="line2d_14">
      <g>
       <use style="stroke:#000000;stroke-width:0.8;" x="399.264524" xlink:href="#mf936eb5a21" y="388.6"/>
      </g>
     </g>
     <g id="text_7">
      <!-- 60 -->
      <defs>
       <path d="M 33.015625 40.375 
Q 26.375 40.375 22.484375 35.828125 
Q 18.609375 31.296875 18.609375 23.390625 
Q 18.609375 15.53125 22.484375 10.953125 
Q 26.375 6.390625 33.015625 6.390625 
Q 39.65625 6.390625 43.53125 10.953125 
Q 47.40625 15.53125 47.40625 23.390625 
Q 47.40625 31.296875 43.53125 35.828125 
Q 39.65625 40.375 33.015625 40.375 
z
M 52.59375 71.296875 
L 52.59375 62.3125 
Q 48.875 64.0625 45.09375 64.984375 
Q 41.3125 65.921875 37.59375 65.921875 
Q 27.828125 65.921875 22.671875 59.328125 
Q 17.53125 52.734375 16.796875 39.40625 
Q 19.671875 43.65625 24.015625 45.921875 
Q 28.375 48.1875 33.59375 48.1875 
Q 44.578125 48.1875 50.953125 41.515625 
Q 57.328125 34.859375 57.328125 23.390625 
Q 57.328125 12.15625 50.6875 5.359375 
Q 44.046875 -1.421875 33.015625 -1.421875 
Q 20.359375 -1.421875 13.671875 8.265625 
Q 6.984375 17.96875 6.984375 36.375 
Q 6.984375 53.65625 15.1875 63.9375 
Q 23.390625 74.21875 37.203125 74.21875 
Q 40.921875 74.21875 44.703125 73.484375 
Q 48.484375 72.75 52.59375 71.296875 
z
" id="DejaVuSans-54"/>
      </defs>
      <g transform="translate(392.902024 403.198438)scale(0.1 -0.1)">
       <use xlink:href="#DejaVuSans-54"/>
       <use x="63.623047" xlink:href="#DejaVuSans-48"/>
      </g>
     </g>
    </g>
    <g id="text_8">
     <!-- Samples -->
     <defs>
      <path d="M 53.515625 70.515625 
L 53.515625 60.890625 
Q 47.90625 63.578125 42.921875 64.890625 
Q 37.9375 66.21875 33.296875 66.21875 
Q 25.25 66.21875 20.875 63.09375 
Q 16.5 59.96875 16.5 54.203125 
Q 16.5 49.359375 19.40625 46.890625 
Q 22.3125 44.4375 30.421875 42.921875 
L 36.375 41.703125 
Q 47.40625 39.59375 52.65625 34.296875 
Q 57.90625 29 57.90625 20.125 
Q 57.90625 9.515625 50.796875 4.046875 
Q 43.703125 -1.421875 29.984375 -1.421875 
Q 24.8125 -1.421875 18.96875 -0.25 
Q 13.140625 0.921875 6.890625 3.21875 
L 6.890625 13.375 
Q 12.890625 10.015625 18.65625 8.296875 
Q 24.421875 6.59375 29.984375 6.59375 
Q 38.421875 6.59375 43.015625 9.90625 
Q 47.609375 13.234375 47.609375 19.390625 
Q 47.609375 24.75 44.3125 27.78125 
Q 41.015625 30.8125 33.5 32.328125 
L 27.484375 33.5 
Q 16.453125 35.6875 11.515625 40.375 
Q 6.59375 45.0625 6.59375 53.421875 
Q 6.59375 63.09375 13.40625 68.65625 
Q 20.21875 74.21875 32.171875 74.21875 
Q 37.3125 74.21875 42.625 73.28125 
Q 47.953125 72.359375 53.515625 70.515625 
z
" id="DejaVuSans-83"/>
      <path d="M 34.28125 27.484375 
Q 23.390625 27.484375 19.1875 25 
Q 14.984375 22.515625 14.984375 16.5 
Q 14.984375 11.71875 18.140625 8.90625 
Q 21.296875 6.109375 26.703125 6.109375 
Q 34.1875 6.109375 38.703125 11.40625 
Q 43.21875 16.703125 43.21875 25.484375 
L 43.21875 27.484375 
z
M 52.203125 31.203125 
L 52.203125 0 
L 43.21875 0 
L 43.21875 8.296875 
Q 40.140625 3.328125 35.546875 0.953125 
Q 30.953125 -1.421875 24.3125 -1.421875 
Q 15.921875 -1.421875 10.953125 3.296875 
Q 6 8.015625 6 15.921875 
Q 6 25.140625 12.171875 29.828125 
Q 18.359375 34.515625 30.609375 34.515625 
L 43.21875 34.515625 
L 43.21875 35.40625 
Q 43.21875 41.609375 39.140625 45 
Q 35.0625 48.390625 27.6875 48.390625 
Q 23 48.390625 18.546875 47.265625 
Q 14.109375 46.140625 10.015625 43.890625 
L 10.015625 52.203125 
Q 14.9375 54.109375 19.578125 55.046875 
Q 24.21875 56 28.609375 56 
Q 40.484375 56 46.34375 49.84375 
Q 52.203125 43.703125 52.203125 31.203125 
z
" id="DejaVuSans-97"/>
      <path d="M 52 44.1875 
Q 55.375 50.25 60.0625 53.125 
Q 64.75 56 71.09375 56 
Q 79.640625 56 84.28125 50.015625 
Q 88.921875 44.046875 88.921875 33.015625 
L 88.921875 0 
L 79.890625 0 
L 79.890625 32.71875 
Q 79.890625 40.578125 77.09375 44.375 
Q 74.3125 48.1875 68.609375 48.1875 
Q 61.625 48.1875 57.5625 43.546875 
Q 53.515625 38.921875 53.515625 30.90625 
L 53.515625 0 
L 44.484375 0 
L 44.484375 32.71875 
Q 44.484375 40.625 41.703125 44.40625 
Q 38.921875 48.1875 33.109375 48.1875 
Q 26.21875 48.1875 22.15625 43.53125 
Q 18.109375 38.875 18.109375 30.90625 
L 18.109375 0 
L 9.078125 0 
L 9.078125 54.6875 
L 18.109375 54.6875 
L 18.109375 46.1875 
Q 21.1875 51.21875 25.484375 53.609375 
Q 29.78125 56 35.6875 56 
Q 41.65625 56 45.828125 52.96875 
Q 50 49.953125 52 44.1875 
z
" id="DejaVuSans-109"/>
      <path d="M 18.109375 8.203125 
L 18.109375 -20.796875 
L 9.078125 -20.796875 
L 9.078125 54.6875 
L 18.109375 54.6875 
L 18.109375 46.390625 
Q 20.953125 51.265625 25.265625 53.625 
Q 29.59375 56 35.59375 56 
Q 45.5625 56 51.78125 48.09375 
Q 58.015625 40.1875 58.015625 27.296875 
Q 58.015625 14.40625 51.78125 6.484375 
Q 45.5625 -1.421875 35.59375 -1.421875 
Q 29.59375 -1.421875 25.265625 0.953125 
Q 20.953125 3.328125 18.109375 8.203125 
z
M 48.6875 27.296875 
Q 48.6875 37.203125 44.609375 42.84375 
Q 40.53125 48.484375 33.40625 48.484375 
Q 26.265625 48.484375 22.1875 42.84375 
Q 18.109375 37.203125 18.109375 27.296875 
Q 18.109375 17.390625 22.1875 11.75 
Q 26.265625 6.109375 33.40625 6.109375 
Q 40.53125 6.109375 44.609375 11.75 
Q 48.6875 17.390625 48.6875 27.296875 
z
" id="DejaVuSans-112"/>
      <path d="M 9.421875 75.984375 
L 18.40625 75.984375 
L 18.40625 0 
L 9.421875 0 
z
" id="DejaVuSans-108"/>
      <path d="M 56.203125 29.59375 
L 56.203125 25.203125 
L 14.890625 25.203125 
Q 15.484375 15.921875 20.484375 11.0625 
Q 25.484375 6.203125 34.421875 6.203125 
Q 39.59375 6.203125 44.453125 7.46875 
Q 49.3125 8.734375 54.109375 11.28125 
L 54.109375 2.78125 
Q 49.265625 0.734375 44.1875 -0.34375 
Q 39.109375 -1.421875 33.890625 -1.421875 
Q 20.796875 -1.421875 13.15625 6.1875 
Q 5.515625 13.8125 5.515625 26.8125 
Q 5.515625 40.234375 12.765625 48.109375 
Q 20.015625 56 32.328125 56 
Q 43.359375 56 49.78125 48.890625 
Q 56.203125 41.796875 56.203125 29.59375 
z
M 47.21875 32.234375 
Q 47.125 39.59375 43.09375 43.984375 
Q 39.0625 48.390625 32.421875 48.390625 
Q 24.90625 48.390625 20.390625 44.140625 
Q 15.875 39.890625 15.1875 32.171875 
z
" id="DejaVuSans-101"/>
      <path d="M 44.28125 53.078125 
L 44.28125 44.578125 
Q 40.484375 46.53125 36.375 47.5 
Q 32.28125 48.484375 27.875 48.484375 
Q 21.1875 48.484375 17.84375 46.4375 
Q 14.5 44.390625 14.5 40.28125 
Q 14.5 37.15625 16.890625 35.375 
Q 19.28125 33.59375 26.515625 31.984375 
L 29.59375 31.296875 
Q 39.15625 29.25 43.1875 25.515625 
Q 47.21875 21.78125 47.21875 15.09375 
Q 47.21875 7.46875 41.1875 3.015625 
Q 35.15625 -1.421875 24.609375 -1.421875 
Q 20.21875 -1.421875 15.453125 -0.5625 
Q 10.6875 0.296875 5.421875 2 
L 5.421875 11.28125 
Q 10.40625 8.6875 15.234375 7.390625 
Q 20.0625 6.109375 24.8125 6.109375 
Q 31.15625 6.109375 34.5625 8.28125 
Q 37.984375 10.453125 37.984375 14.40625 
Q 37.984375 18.0625 35.515625 20.015625 
Q 33.0625 21.96875 24.703125 23.78125 
L 21.578125 24.515625 
Q 13.234375 26.265625 9.515625 29.90625 
Q 5.8125 33.546875 5.8125 39.890625 
Q 5.8125 47.609375 11.28125 51.796875 
Q 16.75 56 26.8125 56 
Q 31.78125 56 36.171875 55.265625 
Q 40.578125 54.546875 44.28125 53.078125 
z
" id="DejaVuSans-115"/>
     </defs>
     <g transform="translate(210.991875 416.876562)scale(0.1 -0.1)">
      <use xlink:href="#DejaVuSans-83"/>
      <use x="63.476562" xlink:href="#DejaVuSans-97"/>
      <use x="124.755859" xlink:href="#DejaVuSans-109"/>
      <use x="222.167969" xlink:href="#DejaVuSans-112"/>
      <use x="285.644531" xlink:href="#DejaVuSans-108"/>
      <use x="313.427734" xlink:href="#DejaVuSans-101"/>
      <use x="374.951172" xlink:href="#DejaVuSans-115"/>
     </g>
    </g>
   </g>
   <g id="matplotlib.axis_2">
    <g id="ytick_1">
     <g id="line2d_15">
      <path clip-path="url(#p18189ee57d)" d="M 47.855 324.818372 
L 416.835 324.818372 
" style="fill:none;stroke:#777777;stroke-linecap:square;stroke-width:0.8;"/>
     </g>
     <g id="line2d_16">
      <defs>
       <path d="M 0 0 
L -3.5 0 
" id="md6ec74d2e9" style="stroke:#000000;stroke-width:0.8;"/>
      </defs>
      <g>
       <use style="stroke:#000000;stroke-width:0.8;" x="47.855" xlink:href="#md6ec74d2e9" y="324.818372"/>
      </g>
     </g>
     <g id="text_9">
      <!-- 0.2 -->
      <defs>
       <path d="M 10.6875 12.40625 
L 21 12.40625 
L 21 0 
L 10.6875 0 
z
" id="DejaVuSans-46"/>
      </defs>
      <g transform="translate(24.951875 328.61759)scale(0.1 -0.1)">
       <use xlink:href="#DejaVuSans-48"/>
       <use x="63.623047" xlink:href="#DejaVuSans-46"/>
       <use x="95.410156" xlink:href="#DejaVuSans-50"/>
      </g>
     </g>
    </g>
    <g id="ytick_2">
     <g id="line2d_17">
      <path clip-path="url(#p18189ee57d)" d="M 47.855 255.631521 
L 416.835 255.631521 
" style="fill:none;stroke:#777777;stroke-linecap:square;stroke-width:0.8;"/>
     </g>
     <g id="line2d_18">
      <g>
       <use style="stroke:#000000;stroke-width:0.8;" x="47.855" xlink:href="#md6ec74d2e9" y="255.631521"/>
      </g>
     </g>
     <g id="text_10">
      <!-- 0.4 -->
      <g transform="translate(24.951875 259.430739)scale(0.1 -0.1)">
       <use xlink:href="#DejaVuSans-48"/>
       <use x="63.623047" xlink:href="#DejaVuSans-46"/>
       <use x="95.410156" xlink:href="#DejaVuSans-52"/>
      </g>
     </g>
    </g>
    <g id="ytick_3">
     <g id="line2d_19">
      <path clip-path="url(#p18189ee57d)" d="M 47.855 186.44467 
L 416.835 186.44467 
" style="fill:none;stroke:#777777;stroke-linecap:square;stroke-width:0.8;"/>
     </g>
     <g id="line2d_20">
      <g>
       <use style="stroke:#000000;stroke-width:0.8;" x="47.855" xlink:href="#md6ec74d2e9" y="186.44467"/>
      </g>
     </g>
     <g id="text_11">
      <!-- 0.6 -->
      <g transform="translate(24.951875 190.243888)scale(0.1 -0.1)">
       <use xlink:href="#DejaVuSans-48"/>
       <use x="63.623047" xlink:href="#DejaVuSans-46"/>
       <use x="95.410156" xlink:href="#DejaVuSans-54"/>
      </g>
     </g>
    </g>
    <g id="ytick_4">
     <g id="line2d_21">
      <path clip-path="url(#p18189ee57d)" d="M 47.855 117.257819 
L 416.835 117.257819 
" style="fill:none;stroke:#777777;stroke-linecap:square;stroke-width:0.8;"/>
     </g>
     <g id="line2d_22">
      <g>
       <use style="stroke:#000000;stroke-width:0.8;" x="47.855" xlink:href="#md6ec74d2e9" y="117.257819"/>
      </g>
     </g>
     <g id="text_12">
      <!-- 0.8 -->
      <defs>
       <path d="M 31.78125 34.625 
Q 24.75 34.625 20.71875 30.859375 
Q 16.703125 27.09375 16.703125 20.515625 
Q 16.703125 13.921875 20.71875 10.15625 
Q 24.75 6.390625 31.78125 6.390625 
Q 38.8125 6.390625 42.859375 10.171875 
Q 46.921875 13.96875 46.921875 20.515625 
Q 46.921875 27.09375 42.890625 30.859375 
Q 38.875 34.625 31.78125 34.625 
z
M 21.921875 38.8125 
Q 15.578125 40.375 12.03125 44.71875 
Q 8.5 49.078125 8.5 55.328125 
Q 8.5 64.0625 14.71875 69.140625 
Q 20.953125 74.21875 31.78125 74.21875 
Q 42.671875 74.21875 48.875 69.140625 
Q 55.078125 64.0625 55.078125 55.328125 
Q 55.078125 49.078125 51.53125 44.71875 
Q 48 40.375 41.703125 38.8125 
Q 48.828125 37.15625 52.796875 32.3125 
Q 56.78125 27.484375 56.78125 20.515625 
Q 56.78125 9.90625 50.3125 4.234375 
Q 43.84375 -1.421875 31.78125 -1.421875 
Q 19.734375 -1.421875 13.25 4.234375 
Q 6.78125 9.90625 6.78125 20.515625 
Q 6.78125 27.484375 10.78125 32.3125 
Q 14.796875 37.15625 21.921875 38.8125 
z
M 18.3125 54.390625 
Q 18.3125 48.734375 21.84375 45.5625 
Q 25.390625 42.390625 31.78125 42.390625 
Q 38.140625 42.390625 41.71875 45.5625 
Q 45.3125 48.734375 45.3125 54.390625 
Q 45.3125 60.0625 41.71875 63.234375 
Q 38.140625 66.40625 31.78125 66.40625 
Q 25.390625 66.40625 21.84375 63.234375 
Q 18.3125 60.0625 18.3125 54.390625 
z
" id="DejaVuSans-56"/>
      </defs>
      <g transform="translate(24.951875 121.057037)scale(0.1 -0.1)">
       <use xlink:href="#DejaVuSans-48"/>
       <use x="63.623047" xlink:href="#DejaVuSans-46"/>
       <use x="95.410156" xlink:href="#DejaVuSans-56"/>
      </g>
     </g>
    </g>
    <g id="ytick_5">
     <g id="line2d_23">
      <path clip-path="url(#p18189ee57d)" d="M 47.855 48.070968 
L 416.835 48.070968 
" style="fill:none;stroke:#777777;stroke-linecap:square;stroke-width:0.8;"/>
     </g>
     <g id="line2d_24">
      <g>
       <use style="stroke:#000000;stroke-width:0.8;" x="47.855" xlink:href="#md6ec74d2e9" y="48.070968"/>
      </g>
     </g>
     <g id="text_13">
      <!-- 1.0 -->
      <g transform="translate(24.951875 51.870186)scale(0.1 -0.1)">
       <use xlink:href="#DejaVuSans-49"/>
       <use x="63.623047" xlink:href="#DejaVuSans-46"/>
       <use x="95.410156" xlink:href="#DejaVuSans-48"/>
      </g>
     </g>
    </g>
    <g id="text_14">
     <!-- Amplitude -->
     <defs>
      <path d="M 34.1875 63.1875 
L 20.796875 26.90625 
L 47.609375 26.90625 
z
M 28.609375 72.90625 
L 39.796875 72.90625 
L 67.578125 0 
L 57.328125 0 
L 50.6875 18.703125 
L 17.828125 18.703125 
L 11.1875 0 
L 0.78125 0 
z
" id="DejaVuSans-65"/>
      <path d="M 9.421875 54.6875 
L 18.40625 54.6875 
L 18.40625 0 
L 9.421875 0 
z
M 9.421875 75.984375 
L 18.40625 75.984375 
L 18.40625 64.59375 
L 9.421875 64.59375 
z
" id="DejaVuSans-105"/>
      <path d="M 18.3125 70.21875 
L 18.3125 54.6875 
L 36.8125 54.6875 
L 36.8125 47.703125 
L 18.3125 47.703125 
L 18.3125 18.015625 
Q 18.3125 11.328125 20.140625 9.421875 
Q 21.96875 7.515625 27.59375 7.515625 
L 36.8125 7.515625 
L 36.8125 0 
L 27.59375 0 
Q 17.1875 0 13.234375 3.875 
Q 9.28125 7.765625 9.28125 18.015625 
L 9.28125 47.703125 
L 2.6875 47.703125 
L 2.6875 54.6875 
L 9.28125 54.6875 
L 9.28125 70.21875 
z
" id="DejaVuSans-116"/>
      <path d="M 8.5 21.578125 
L 8.5 54.6875 
L 17.484375 54.6875 
L 17.484375 21.921875 
Q 17.484375 14.15625 20.5 10.265625 
Q 23.53125 6.390625 29.59375 6.390625 
Q 36.859375 6.390625 41.078125 11.03125 
Q 45.3125 15.671875 45.3125 23.6875 
L 45.3125 54.6875 
L 54.296875 54.6875 
L 54.296875 0 
L 45.3125 0 
L 45.3125 8.40625 
Q 42.046875 3.421875 37.71875 1 
Q 33.40625 -1.421875 27.6875 -1.421875 
Q 18.265625 -1.421875 13.375 4.4375 
Q 8.5 10.296875 8.5 21.578125 
z
M 31.109375 56 
z
" id="DejaVuSans-117"/>
      <path d="M 45.40625 46.390625 
L 45.40625 75.984375 
L 54.390625 75.984375 
L 54.390625 0 
L 45.40625 0 
L 45.40625 8.203125 
Q 42.578125 3.328125 38.25 0.953125 
Q 33.9375 -1.421875 27.875 -1.421875 
Q 17.96875 -1.421875 11.734375 6.484375 
Q 5.515625 14.40625 5.515625 27.296875 
Q 5.515625 40.1875 11.734375 48.09375 
Q 17.96875 56 27.875 56 
Q 33.9375 56 38.25 53.625 
Q 42.578125 51.265625 45.40625 46.390625 
z
M 14.796875 27.296875 
Q 14.796875 17.390625 18.875 11.75 
Q 22.953125 6.109375 30.078125 6.109375 
Q 37.203125 6.109375 41.296875 11.75 
Q 45.40625 17.390625 45.40625 27.296875 
Q 45.40625 37.203125 41.296875 42.84375 
Q 37.203125 48.484375 30.078125 48.484375 
Q 22.953125 48.484375 18.875 42.84375 
Q 14.796875 37.203125 14.796875 27.296875 
z
" id="DejaVuSans-100"/>
     </defs>
     <g transform="translate(18.872187 238.282656)rotate(-90)scale(0.1 -0.1)">
      <use xlink:href="#DejaVuSans-65"/>
      <use x="68.408203" xlink:href="#DejaVuSans-109"/>
      <use x="165.820312" xlink:href="#DejaVuSans-112"/>
      <use x="229.296875" xlink:href="#DejaVuSans-108"/>
      <use x="257.080078" xlink:href="#DejaVuSans-105"/>
      <use x="284.863281" xlink:href="#DejaVuSans-116"/>
      <use x="324.072266" xlink:href="#DejaVuSans-117"/>
      <use x="387.451172" xlink:href="#DejaVuSans-100"/>
      <use x="450.927734" xlink:href="#DejaVuSans-101"/>
     </g>
    </g>
   </g>
   <g id="line2d_25">
    <path clip-path="url(#p18189ee57d)" d="M 47.855 388.6 
L 53.711825 377.789555 
L 59.568651 366.979109 
L 65.425476 356.168664 
L 71.282302 345.358218 
L 77.139127 334.547773 
L 82.995952 323.737327 
L 88.852778 312.926882 
L 94.709603 302.116436 
L 100.566429 291.305991 
L 106.423254 280.495545 
L 112.280079 269.6851 
L 118.136905 258.874654 
L 123.99373 248.064209 
L 129.850556 237.253763 
L 135.707381 226.443318 
L 141.564206 215.632873 
L 147.421032 204.822427 
L 153.277857 194.011982 
L 159.134683 183.201536 
L 164.991508 172.391091 
L 170.848333 161.580645 
L 176.705159 150.7702 
L 182.561984 139.959754 
L 188.41881 129.149309 
L 194.275635 118.338863 
L 200.13246 107.528418 
L 205.989286 96.717972 
L 211.846111 85.907527 
L 217.702937 75.097081 
L 223.559762 64.286636 
L 229.416587 53.47619 
L 235.273413 53.47619 
L 241.130238 64.286636 
L 246.987063 75.097081 
L 252.843889 85.907527 
L 258.700714 96.717972 
L 264.55754 107.528418 
L 270.414365 118.338863 
L 276.27119 129.149309 
L 282.128016 139.959754 
L 287.984841 150.7702 
L 293.841667 161.580645 
L 299.698492 172.391091 
L 305.555317 183.201536 
L 311.412143 194.011982 
L 317.268968 204.822427 
L 323.125794 215.632873 
L 328.982619 226.443318 
L 334.839444 237.253763 
L 340.69627 248.064209 
L 346.553095 258.874654 
L 352.409921 269.6851 
L 358.266746 280.495545 
L 364.123571 291.305991 
L 369.980397 302.116436 
L 375.837222 312.926882 
L 381.694048 323.737327 
L 387.550873 334.547773 
L 393.407698 345.358218 
L 399.264524 356.168664 
L 405.121349 366.979109 
L 410.978175 377.789555 
L 416.835 388.6 
" style="fill:none;stroke:#0072bd;stroke-linecap:square;stroke-width:1.4;"/>
    <defs>
     <path d="M 0 1.5 
C 0.397805 1.5 0.77937 1.341951 1.06066 1.06066 
C 1.341951 0.77937 1.5 0.397805 1.5 0 
C 1.5 -0.397805 1.341951 -0.77937 1.06066 -1.06066 
C 0.77937 -1.341951 0.397805 -1.5 0 -1.5 
C -0.397805 -1.5 -0.77937 -1.341951 -1.06066 -1.06066 
C -1.341951 -0.77937 -1.5 -0.397805 -1.5 0 
C -1.5 0.397805 -1.341951 0.77937 -1.06066 1.06066 
C -0.77937 1.341951 -0.397805 1.5 0 1.5 
z
" id="m70962186fd" style="stroke:#0072bd;"/>
    </defs>
    <g clip-path="url(#p18189ee57d)">
     <use style="fill:#0072bd;stroke:#0072bd;" x="47.855" xlink:href="#m70962186fd" y="388.6"/>
     <use style="fill:#0072bd;stroke:#0072bd;" x="53.711825" xlink:href="#m70962186fd" y="377.789555"/>
     <use style="fill:#0072bd;stroke:#0072bd;" x="59.568651" xlink:href="#m70962186fd" y="366.979109"/>
     <use style="fill:#0072bd;stroke:#0072bd;" x="65.425476" xlink:href="#m70962186fd" y="356.168664"/>
     <use style="fill:#0072bd;stroke:#0072bd;" x="71.282302" xlink:href="#m70962186fd" y="345.358218"/>
     <use style="fill:#0072bd;stroke:#0072bd;" x="77.139127" xlink:href="#m70962186fd" y="334.547773"/>
     <use style="fill:#0072bd;stroke:#0072bd;" x="82.995952" xlink:href="#m70962186fd" y="323.737327"/>
     <use style="fill:#0072bd;stroke:#0072bd;" x="88.852778" xlink:href="#m70962186fd" y="312.926882"/>
     <use style="fill:#0072bd;stroke:#0072bd;" x="94.709603" xlink:href="#m70962186fd" y="302.116436"/>
     <use style="fill:#0072bd;stroke:#0072bd;" x="100.566429" xlink:href="#m70962186fd" y="291.305991"/>
     <use style="fill:#0072bd;stroke:#0072bd;" x="106.423254" xlink:href="#m70962186fd" y="280.495545"/>
     <use style="fill:#0072bd;stroke:#0072bd;" x="112.280079" xlink:href="#m70962186fd" y="269.6851"/>
     <use style="fill:#0072bd;stroke:#0072bd;" x="118.136905" xlink:href="#m70962186fd" y="258.874654"/>
     <use style="fill:#0072bd;stroke:#0072bd;" x="123.99373" xlink:href="#m70962186fd" y="248.064209"/>
     <use style="fill:#0072bd;stroke:#0072bd;" x="129.850556" xlink:href="#m70962186fd" y="237.253763"/>
     <use style="fill:#0072bd;stroke:#0072bd;" x="135.707381" xlink:href="#m70962186fd" y="226.443318"/>
     <use style="fill:#0072bd;stroke:#0072bd;" x="141.564206" xlink:href="#m70962186fd" y="215.632873"/>
     <use style="fill:#0072bd;stroke:#0072bd;" x="147.421032" xlink:href="#m70962186fd" y="204.822427"/>
     <use style="fill:#0072bd;stroke:#0072bd;" x="153.277857" xlink:href="#m70962186fd" y="194.011982"/>
     <use style="fill:#0072bd;stroke:#0072bd;" x="159.134683" xlink:href="#m70962186fd" y="183.201536"/>
     <use style="fill:#0072bd;stroke:#0072bd;" x="164.991508" xlink:href="#m70962186fd" y="172.391091"/>
     <use style="fill:#0072bd;stroke:#0072bd;" x="170.848333" xlink:href="#m70962186fd" y="161.580645"/>
     <use style="fill:#0072bd;stroke:#0072bd;" x="176.705159" xlink:href="#m70962186fd" y="150.7702"/>
     <use style="fill:#0072bd;stroke:#0072bd;" x="182.561984" xlink:href="#m70962186fd" y="139.959754"/>
     <use style="fill:#0072bd;stroke:#0072bd;" x="188.41881" xlink:href="#m70962186fd" y="129.149309"/>
     <use style="fill:#0072bd;stroke:#0072bd;" x="194.275635" xlink:href="#m70962186fd" y="118.338863"/>
     <use style="fill:#0072bd;stroke:#0072bd;" x="200.13246" xlink:href="#m70962186fd" y="107.528418"/>
     <use style="fill:#0072bd;stroke:#0072bd;" x="205.989286" xlink:href="#m70962186fd" y="96.717972"/>
     <use style="fill:#0072bd;stroke:#0072bd;" x="211.846111" xlink:href="#m70962186fd" y="85.907527"/>
     <use style="fill:#0072bd;stroke:#0072bd;" x="217.702937" xlink:href="#m70962186fd" y="75.097081"/>
     <use style="fill:#0072bd;stroke:#0072bd;" x="223.559762" xlink:href="#m70962186fd" y="64.286636"/>
     <use style="fill:#0072bd;stroke:#0072bd;" x="229.416587" xlink:href="#m70962186fd" y="53.47619"/>
     <use style="fill:#0072bd;stroke:#0072bd;" x="235.273413" xlink:href="#m70962186fd" y="53.47619"/>
     <use style="fill:#0072bd;stroke:#0072bd;" x="241.130238" xlink:href="#m70962186fd" y="64.286636"/>
     <use style="fill:#0072bd;stroke:#0072bd;" x="246.987063" xlink:href="#m70962186fd" y="75.097081"/>
     <use style="fill:#0072bd;stroke:#0072bd;" x="252.843889" xlink:href="#m70962186fd" y="85.907527"/>
     <use style="fill:#0072bd;stroke:#0072bd;" x="258.700714" xlink:href="#m70962186fd" y="96.717972"/>
     <use style="fill:#0072bd;stroke:#0072bd;" x="264.55754" xlink:href="#m70962186fd" y="107.528418"/>
     <use style="fill:#0072bd;stroke:#0072bd;" x="270.414365" xlink:href="#m70962186fd" y="118.338863"/>
     <use style="fill:#0072bd;stroke:#0072bd;" x="276.27119" xlink:href="#m70962186fd" y="129.149309"/>
     <use style="fill:#0072bd;stroke:#0072bd;" x="282.128016" xlink:href="#m70962186fd" y="139.959754"/>
     <use style="fill:#0072bd;stroke:#0072bd;" x="287.984841" xlink:href="#m70962186fd" y="150.7702"/>
     <use style="fill:#0072bd;stroke:#0072bd;" x="293.841667" xlink:href="#m70962186fd" y="161.580645"/>
     <use style="fill:#0072bd;stroke:#0072bd;" x="299.698492" xlink:href="#m70962186fd" y="172.391091"/>
     <use style="fill:#0072bd;stroke:#0072bd;" x="305.555317" xlink:href="#m70962186fd" y="183.201536"/>
     <use style="fill:#0072bd;stroke:#0072bd;" x="311.412143" xlink:href="#m70962186fd" y="194.011982"/>
     <use style="fill:#0072bd;stroke:#0072bd;" x="317.268968" xlink:href="#m70962186fd" y="204.822427"/>
     <use style="fill:#0072bd;stroke:#0072bd;" x="323.125794" xlink:href="#m70962186fd" y="215.632873"/>
     <use style="fill:#0072bd;stroke:#0072bd;" x="328.982619" xlink:href="#m70962186fd" y="226.443318"/>
     <use style="fill:#0072bd;stroke:#0072bd;" x="334.839444" xlink:href="#m70962186fd" y="237.253763"/>
     <use style="fill:#0072bd;stroke:#0072bd;" x="340.69627" xlink:href="#m70962186fd" y="248.064209"/>
     <use style="fill:#0072bd;stroke:#0072bd;" x="346.553095" xlink:href="#m70962186fd" y="258.874654"/>
     <use style="fill:#0072bd;stroke:#0072bd;" x="352.409921" xlink:href="#m70962186fd" y="269.6851"/>
     <use style="fill:#0072bd;stroke:#0072bd;" x="358.266746" xlink:href="#m70962186fd" y="280.495545"/>
     <use style="fill:#0072bd;stroke:#0072bd;" x="364.123571" xlink:href="#m70962186fd" y="291.305991"/>
     <use style="fill:#0072bd;stroke:#0072bd;" x="369.980397" xlink:href="#m70962186fd" y="302.116436"/>
     <use style="fill:#0072bd;stroke:#0072bd;" x="375.837222" xlink:href="#m70962186fd" y="312.926882"/>
     <use style="fill:#0072bd;stroke:#0072bd;" x="381.694048" xlink:href="#m70962186fd" y="323.737327"/>
     <use style="fill:#0072bd;stroke:#0072bd;" x="387.550873" xlink:href="#m70962186fd" y="334.547773"/>
     <use style="fill:#0072bd;stroke:#0072bd;" x="393.407698" xlink:href="#m70962186fd" y="345.358218"/>
     <use style="fill:#0072bd;stroke:#0072bd;" x="399.264524" xlink:href="#m70962186fd" y="356.168664"/>
     <use style="fill:#0072bd;stroke:#0072bd;" x="405.121349" xlink:href="#m70962186fd" y="366.979109"/>
     <use style="fill:#0072bd;stroke:#0072bd;" x="410.978175" xlink:href="#m70962186fd" y="377.789555"/>
     <use style="fill:#0072bd;stroke:#0072bd;" x="416.835" xlink:href="#m70962186fd" y="388.6"/>
    </g>
   </g>
   <g id="patch_3">
    <path d="M 47.855 388.6 
L 47.855 36.72 
" style="fill:none;stroke:#000000;stroke-linecap:square;stroke-linejoin:miter;stroke-width:0.8;"/>
   </g>
   <g id="patch_4">
    <path d="M 416.835 388.6 
L 416.835 36.72 
" style="fill:none;stroke:#000000;stroke-linecap:square;stroke-linejoin:miter;stroke-width:0.8;"/>
   </g>
   <g id="patch_5">
    <path d="M 47.855 388.6 
L 416.835 388.6 
" style="fill:none;stroke:#000000;stroke-linecap:square;stroke-linejoin:miter;stroke-width:0.8;"/>
   </g>
   <g id="patch_6">
    <path d="M 47.855 36.72 
L 416.835 36.72 
" style="fill:none;stroke:#000000;stroke-linecap:square;stroke-linejoin:miter;stroke-width:0.8;"/>
   </g>
  </g>
  <g id="axes_2">
   <g id="patch_7">
    <path d="M 476.255 388.6 
L 845.235 388.6 
L 845.235 36.72 
L 476.255 36.72 
z
" style="fill:#ffffff;"/>
   </g>
   <g id="matplotlib.axis_3">
    <g id="xtick_8">
     <g id="line2d_26">
      <path clip-path="url(#p89e61601c2)" d="M 476.255 388.6 
L 476.255 36.72 
" style="fill:none;stroke:#777777;stroke-linecap:square;stroke-width:0.8;"/>
     </g>
     <g id="line2d_27">
      <g>
       <use style="stroke:#000000;stroke-width:0.8;" x="476.255" xlink:href="#mf936eb5a21" y="388.6"/>
      </g>
     </g>
     <g id="text_15">
      <!-- 0.0 -->
      <g transform="translate(468.303437 403.198438)scale(0.1 -0.1)">
       <use xlink:href="#DejaVuSans-48"/>
       <use x="63.623047" xlink:href="#DejaVuSans-46"/>
       <use x="95.410156" xlink:href="#DejaVuSans-48"/>
      </g>
     </g>
    </g>
    <g id="xtick_9">
     <g id="line2d_28">
      <path clip-path="url(#p89e61601c2)" d="M 550.051 388.6 
L 550.051 36.72 
" style="fill:none;stroke:#777777;stroke-linecap:square;stroke-width:0.8;"/>
     </g>
     <g id="line2d_29">
      <g>
       <use style="stroke:#000000;stroke-width:0.8;" x="550.051" xlink:href="#mf936eb5a21" y="388.6"/>
      </g>
     </g>
     <g id="text_16">
      <!-- 0.2 -->
      <g transform="translate(542.099437 403.198438)scale(0.1 -0.1)">
       <use xlink:href="#DejaVuSans-48"/>
       <use x="63.623047" xlink:href="#DejaVuSans-46"/>
       <use x="95.410156" xlink:href="#DejaVuSans-50"/>
      </g>
     </g>
    </g>
    <g id="xtick_10">
     <g id="line2d_30">
      <path clip-path="url(#p89e61601c2)" d="M 623.847 388.6 
L 623.847 36.72 
" style="fill:none;stroke:#777777;stroke-linecap:square;stroke-width:0.8;"/>
     </g>
     <g id="line2d_31">
      <g>
       <use style="stroke:#000000;stroke-width:0.8;" x="623.847" xlink:href="#mf936eb5a21" y="388.6"/>
      </g>
     </g>
     <g id="text_17">
      <!-- 0.4 -->
      <g transform="translate(615.895437 403.198438)scale(0.1 -0.1)">
       <use xlink:href="#DejaVuSans-48"/>
       <use x="63.623047" xlink:href="#DejaVuSans-46"/>
       <use x="95.410156" xlink:href="#DejaVuSans-52"/>
      </g>
     </g>
    </g>
    <g id="xtick_11">
     <g id="line2d_32">
      <path clip-path="url(#p89e61601c2)" d="M 697.643 388.6 
L 697.643 36.72 
" style="fill:none;stroke:#777777;stroke-linecap:square;stroke-width:0.8;"/>
     </g>
     <g id="line2d_33">
      <g>
       <use style="stroke:#000000;stroke-width:0.8;" x="697.643" xlink:href="#mf936eb5a21" y="388.6"/>
      </g>
     </g>
     <g id="text_18">
      <!-- 0.6 -->
      <g transform="translate(689.691437 403.198438)scale(0.1 -0.1)">
       <use xlink:href="#DejaVuSans-48"/>
       <use x="63.623047" xlink:href="#DejaVuSans-46"/>
       <use x="95.410156" xlink:href="#DejaVuSans-54"/>
      </g>
     </g>
    </g>
    <g id="xtick_12">
     <g id="line2d_34">
      <path clip-path="url(#p89e61601c2)" d="M 771.439 388.6 
L 771.439 36.72 
" style="fill:none;stroke:#777777;stroke-linecap:square;stroke-width:0.8;"/>
     </g>
     <g id="line2d_35">
      <g>
       <use style="stroke:#000000;stroke-width:0.8;" x="771.439" xlink:href="#mf936eb5a21" y="388.6"/>
      </g>
     </g>
     <g id="text_19">
      <!-- 0.8 -->
      <g transform="translate(763.487437 403.198438)scale(0.1 -0.1)">
       <use xlink:href="#DejaVuSans-48"/>
       <use x="63.623047" xlink:href="#DejaVuSans-46"/>
       <use x="95.410156" xlink:href="#DejaVuSans-56"/>
      </g>
     </g>
    </g>
    <g id="xtick_13">
     <g id="line2d_36">
      <path clip-path="url(#p89e61601c2)" d="M 845.235 388.6 
L 845.235 36.72 
" style="fill:none;stroke:#777777;stroke-linecap:square;stroke-width:0.8;"/>
     </g>
     <g id="line2d_37">
      <g>
       <use style="stroke:#000000;stroke-width:0.8;" x="845.235" xlink:href="#mf936eb5a21" y="388.6"/>
      </g>
     </g>
     <g id="text_20">
      <!-- 1.0 -->
      <g transform="translate(837.283437 403.198438)scale(0.1 -0.1)">
       <use xlink:href="#DejaVuSans-49"/>
       <use x="63.623047" xlink:href="#DejaVuSans-46"/>
       <use x="95.410156" xlink:href="#DejaVuSans-48"/>
      </g>
     </g>
    </g>
    <g id="text_21">
     <!-- Normalized Frequency ($\times \pi$ rad/sample) -->
     <defs>
      <path d="M 9.8125 72.90625 
L 23.09375 72.90625 
L 55.421875 11.921875 
L 55.421875 72.90625 
L 64.984375 72.90625 
L 64.984375 0 
L 51.703125 0 
L 19.390625 60.984375 
L 19.390625 0 
L 9.8125 0 
z
" id="DejaVuSans-78"/>
      <path d="M 30.609375 48.390625 
Q 23.390625 48.390625 19.1875 42.75 
Q 14.984375 37.109375 14.984375 27.296875 
Q 14.984375 17.484375 19.15625 11.84375 
Q 23.34375 6.203125 30.609375 6.203125 
Q 37.796875 6.203125 41.984375 11.859375 
Q 46.1875 17.53125 46.1875 27.296875 
Q 46.1875 37.015625 41.984375 42.703125 
Q 37.796875 48.390625 30.609375 48.390625 
z
M 30.609375 56 
Q 42.328125 56 49.015625 48.375 
Q 55.71875 40.765625 55.71875 27.296875 
Q 55.71875 13.875 49.015625 6.21875 
Q 42.328125 -1.421875 30.609375 -1.421875 
Q 18.84375 -1.421875 12.171875 6.21875 
Q 5.515625 13.875 5.515625 27.296875 
Q 5.515625 40.765625 12.171875 48.375 
Q 18.84375 56 30.609375 56 
z
" id="DejaVuSans-111"/>
      <path d="M 41.109375 46.296875 
Q 39.59375 47.171875 37.8125 47.578125 
Q 36.03125 48 33.890625 48 
Q 26.265625 48 22.1875 43.046875 
Q 18.109375 38.09375 18.109375 28.8125 
L 18.109375 0 
L 9.078125 0 
L 9.078125 54.6875 
L 18.109375 54.6875 
L 18.109375 46.1875 
Q 20.953125 51.171875 25.484375 53.578125 
Q 30.03125 56 36.53125 56 
Q 37.453125 56 38.578125 55.875 
Q 39.703125 55.765625 41.0625 55.515625 
z
" id="DejaVuSans-114"/>
      <path d="M 5.515625 54.6875 
L 48.1875 54.6875 
L 48.1875 46.484375 
L 14.40625 7.171875 
L 48.1875 7.171875 
L 48.1875 0 
L 4.296875 0 
L 4.296875 8.203125 
L 38.09375 47.515625 
L 5.515625 47.515625 
z
" id="DejaVuSans-122"/>
      <path id="DejaVuSans-32"/>
      <path d="M 9.8125 72.90625 
L 51.703125 72.90625 
L 51.703125 64.59375 
L 19.671875 64.59375 
L 19.671875 43.109375 
L 48.578125 43.109375 
L 48.578125 34.8125 
L 19.671875 34.8125 
L 19.671875 0 
L 9.8125 0 
z
" id="DejaVuSans-70"/>
      <path d="M 14.796875 27.296875 
Q 14.796875 17.390625 18.875 11.75 
Q 22.953125 6.109375 30.078125 6.109375 
Q 37.203125 6.109375 41.296875 11.75 
Q 45.40625 17.390625 45.40625 27.296875 
Q 45.40625 37.203125 41.296875 42.84375 
Q 37.203125 48.484375 30.078125 48.484375 
Q 22.953125 48.484375 18.875 42.84375 
Q 14.796875 37.203125 14.796875 27.296875 
z
M 45.40625 8.203125 
Q 42.578125 3.328125 38.25 0.953125 
Q 33.9375 -1.421875 27.875 -1.421875 
Q 17.96875 -1.421875 11.734375 6.484375 
Q 5.515625 14.40625 5.515625 27.296875 
Q 5.515625 40.1875 11.734375 48.09375 
Q 17.96875 56 27.875 56 
Q 33.9375 56 38.25 53.625 
Q 42.578125 51.265625 45.40625 46.390625 
L 45.40625 54.6875 
L 54.390625 54.6875 
L 54.390625 -20.796875 
L 45.40625 -20.796875 
z
" id="DejaVuSans-113"/>
      <path d="M 54.890625 33.015625 
L 54.890625 0 
L 45.90625 0 
L 45.90625 32.71875 
Q 45.90625 40.484375 42.875 44.328125 
Q 39.84375 48.1875 33.796875 48.1875 
Q 26.515625 48.1875 22.3125 43.546875 
Q 18.109375 38.921875 18.109375 30.90625 
L 18.109375 0 
L 9.078125 0 
L 9.078125 54.6875 
L 18.109375 54.6875 
L 18.109375 46.1875 
Q 21.34375 51.125 25.703125 53.5625 
Q 30.078125 56 35.796875 56 
Q 45.21875 56 50.046875 50.171875 
Q 54.890625 44.34375 54.890625 33.015625 
z
" id="DejaVuSans-110"/>
      <path d="M 48.78125 52.59375 
L 48.78125 44.1875 
Q 44.96875 46.296875 41.140625 47.34375 
Q 37.3125 48.390625 33.40625 48.390625 
Q 24.65625 48.390625 19.8125 42.84375 
Q 14.984375 37.3125 14.984375 27.296875 
Q 14.984375 17.28125 19.8125 11.734375 
Q 24.65625 6.203125 33.40625 6.203125 
Q 37.3125 6.203125 41.140625 7.25 
Q 44.96875 8.296875 48.78125 10.40625 
L 48.78125 2.09375 
Q 45.015625 0.34375 40.984375 -0.53125 
Q 36.96875 -1.421875 32.421875 -1.421875 
Q 20.0625 -1.421875 12.78125 6.34375 
Q 5.515625 14.109375 5.515625 27.296875 
Q 5.515625 40.671875 12.859375 48.328125 
Q 20.21875 56 33.015625 56 
Q 37.15625 56 41.109375 55.140625 
Q 45.0625 54.296875 48.78125 52.59375 
z
" id="DejaVuSans-99"/>
      <path d="M 32.171875 -5.078125 
Q 28.375 -14.84375 24.75 -17.8125 
Q 21.140625 -20.796875 15.09375 -20.796875 
L 7.90625 -20.796875 
L 7.90625 -13.28125 
L 13.1875 -13.28125 
Q 16.890625 -13.28125 18.9375 -11.515625 
Q 21 -9.765625 23.484375 -3.21875 
L 25.09375 0.875 
L 2.984375 54.6875 
L 12.5 54.6875 
L 29.59375 11.921875 
L 46.6875 54.6875 
L 56.203125 54.6875 
z
" id="DejaVuSans-121"/>
      <path d="M 31 75.875 
Q 24.46875 64.65625 21.28125 53.65625 
Q 18.109375 42.671875 18.109375 31.390625 
Q 18.109375 20.125 21.3125 9.0625 
Q 24.515625 -2 31 -13.1875 
L 23.1875 -13.1875 
Q 15.875 -1.703125 12.234375 9.375 
Q 8.59375 20.453125 8.59375 31.390625 
Q 8.59375 42.28125 12.203125 53.3125 
Q 15.828125 64.359375 23.1875 75.875 
z
" id="DejaVuSans-40"/>
      <path d="M 70.125 53.71875 
L 47.796875 31.296875 
L 70.125 8.984375 
L 64.3125 3.078125 
L 41.890625 25.484375 
L 19.484375 3.078125 
L 13.71875 8.984375 
L 35.984375 31.296875 
L 13.71875 53.71875 
L 19.484375 59.625 
L 41.890625 37.203125 
L 64.3125 59.625 
z
" id="DejaVuSans-215"/>
      <path d="M 9.125 54.6875 
L 61.53125 54.6875 
L 59.765625 45.703125 
L 52.875 45.703125 
L 46.34375 12.109375 
Q 45.65625 8.59375 46.578125 7.03125 
Q 47.46875 5.515625 50.140625 5.515625 
Q 50.875 5.515625 51.953125 5.671875 
Q 53.078125 5.765625 53.421875 5.8125 
L 52.15625 -0.6875 
Q 50.34375 -1.3125 48.484375 -1.609375 
Q 46.578125 -1.90625 44.78125 -1.90625 
Q 38.921875 -1.90625 37.3125 1.265625 
Q 35.6875 4.5 37.359375 13.09375 
L 43.703125 45.703125 
L 23.53125 45.703125 
L 14.65625 0 
L 5.46875 0 
L 14.359375 45.703125 
L 7.375 45.703125 
z
" id="DejaVuSans-Oblique-960"/>
      <path d="M 25.390625 72.90625 
L 33.6875 72.90625 
L 8.296875 -9.28125 
L 0 -9.28125 
z
" id="DejaVuSans-47"/>
      <path d="M 8.015625 75.875 
L 15.828125 75.875 
Q 23.140625 64.359375 26.78125 53.3125 
Q 30.421875 42.28125 30.421875 31.390625 
Q 30.421875 20.453125 26.78125 9.375 
Q 23.140625 -1.703125 15.828125 -13.1875 
L 8.015625 -13.1875 
Q 14.5 -2 17.703125 9.0625 
Q 20.90625 20.125 20.90625 31.390625 
Q 20.90625 42.671875 17.703125 53.65625 
Q 14.5 64.65625 8.015625 75.875 
z
" id="DejaVuSans-41"/>
     </defs>
     <g transform="translate(561.945 416.878125)scale(0.1 -0.1)">
      <use transform="translate(0 0.015625)" xlink:href="#DejaVuSans-78"/>
      <use transform="translate(74.804688 0.015625)" xlink:href="#DejaVuSans-111"/>
      <use transform="translate(135.986328 0.015625)" xlink:href="#DejaVuSans-114"/>
      <use transform="translate(177.099609 0.015625)" xlink:href="#DejaVuSans-109"/>
      <use transform="translate(274.511719 0.015625)" xlink:href="#DejaVuSans-97"/>
      <use transform="translate(335.791016 0.015625)" xlink:href="#DejaVuSans-108"/>
      <use transform="translate(363.574219 0.015625)" xlink:href="#DejaVuSans-105"/>
      <use transform="translate(391.357422 0.015625)" xlink:href="#DejaVuSans-122"/>
      <use transform="translate(443.847656 0.015625)" xlink:href="#DejaVuSans-101"/>
      <use transform="translate(505.371094 0.015625)" xlink:href="#DejaVuSans-100"/>
      <use transform="translate(568.847656 0.015625)" xlink:href="#DejaVuSans-32"/>
      <use transform="translate(600.634766 0.015625)" xlink:href="#DejaVuSans-70"/>
      <use transform="translate(658.154297 0.015625)" xlink:href="#DejaVuSans-114"/>
      <use transform="translate(699.267578 0.015625)" xlink:href="#DejaVuSans-101"/>
      <use transform="translate(760.791016 0.015625)" xlink:href="#DejaVuSans-113"/>
      <use transform="translate(824.267578 0.015625)" xlink:href="#DejaVuSans-117"/>
      <use transform="translate(887.646484 0.015625)" xlink:href="#DejaVuSans-101"/>
      <use transform="translate(949.169922 0.015625)" xlink:href="#DejaVuSans-110"/>
      <use transform="translate(1012.548828 0.015625)" xlink:href="#DejaVuSans-99"/>
      <use transform="translate(1067.529297 0.015625)" xlink:href="#DejaVuSans-121"/>
      <use transform="translate(1126.708984 0.015625)" xlink:href="#DejaVuSans-32"/>
      <use transform="translate(1158.496094 0.015625)" xlink:href="#DejaVuSans-40"/>
      <use transform="translate(1197.509766 0.015625)" xlink:href="#DejaVuSans-215"/>
      <use transform="translate(1281.298828 0.015625)" xlink:href="#DejaVuSans-Oblique-960"/>
      <use transform="translate(1341.503906 0.015625)" xlink:href="#DejaVuSans-32"/>
      <use transform="translate(1373.291016 0.015625)" xlink:href="#DejaVuSans-114"/>
      <use transform="translate(1414.404297 0.015625)" xlink:href="#DejaVuSans-97"/>
      <use transform="translate(1475.683594 0.015625)" xlink:href="#DejaVuSans-100"/>
      <use transform="translate(1539.160156 0.015625)" xlink:href="#DejaVuSans-47"/>
      <use transform="translate(1572.851562 0.015625)" xlink:href="#DejaVuSans-115"/>
      <use transform="translate(1624.951172 0.015625)" xlink:href="#DejaVuSans-97"/>
      <use transform="translate(1686.230469 0.015625)" xlink:href="#DejaVuSans-109"/>
      <use transform="translate(1783.642578 0.015625)" xlink:href="#DejaVuSans-112"/>
      <use transform="translate(1847.119141 0.015625)" xlink:href="#DejaVuSans-108"/>
      <use transform="translate(1874.902344 0.015625)" xlink:href="#DejaVuSans-101"/>
      <use transform="translate(1936.425781 0.015625)" xlink:href="#DejaVuSans-41"/>
     </g>
    </g>
   </g>
   <g id="matplotlib.axis_4">
    <g id="ytick_6">
     <g id="line2d_38">
      <path clip-path="url(#p89e61601c2)" d="M 476.255 372.605455 
L 845.235 372.605455 
" style="fill:none;stroke:#777777;stroke-linecap:square;stroke-width:0.8;"/>
     </g>
     <g id="line2d_39">
      <g>
       <use style="stroke:#000000;stroke-width:0.8;" x="476.255" xlink:href="#md6ec74d2e9" y="372.605455"/>
      </g>
     </g>
     <g id="text_22">
      <!-- −300 -->
      <defs>
       <path d="M 10.59375 35.5 
L 73.1875 35.5 
L 73.1875 27.203125 
L 10.59375 27.203125 
z
" id="DejaVuSans-8722"/>
      </defs>
      <g transform="translate(441.787812 376.404673)scale(0.1 -0.1)">
       <use xlink:href="#DejaVuSans-8722"/>
       <use x="83.789062" xlink:href="#DejaVuSans-51"/>
       <use x="147.412109" xlink:href="#DejaVuSans-48"/>
       <use x="211.035156" xlink:href="#DejaVuSans-48"/>
      </g>
     </g>
    </g>
    <g id="ytick_7">
     <g id="line2d_40">
      <path clip-path="url(#p89e61601c2)" d="M 476.255 324.152258 
L 845.235 324.152258 
" style="fill:none;stroke:#777777;stroke-linecap:square;stroke-width:0.8;"/>
     </g>
     <g id="line2d_41">
      <g>
       <use style="stroke:#000000;stroke-width:0.8;" x="476.255" xlink:href="#md6ec74d2e9" y="324.152258"/>
      </g>
     </g>
     <g id="text_23">
      <!-- −250 -->
      <g transform="translate(441.787812 327.951477)scale(0.1 -0.1)">
       <use xlink:href="#DejaVuSans-8722"/>
       <use x="83.789062" xlink:href="#DejaVuSans-50"/>
       <use x="147.412109" xlink:href="#DejaVuSans-53"/>
       <use x="211.035156" xlink:href="#DejaVuSans-48"/>
      </g>
     </g>
    </g>
    <g id="ytick_8">
     <g id="line2d_42">
      <path clip-path="url(#p89e61601c2)" d="M 476.255 275.699062 
L 845.235 275.699062 
" style="fill:none;stroke:#777777;stroke-linecap:square;stroke-width:0.8;"/>
     </g>
     <g id="line2d_43">
      <g>
       <use style="stroke:#000000;stroke-width:0.8;" x="476.255" xlink:href="#md6ec74d2e9" y="275.699062"/>
      </g>
     </g>
     <g id="text_24">
      <!-- −200 -->
      <g transform="translate(441.787812 279.498281)scale(0.1 -0.1)">
       <use xlink:href="#DejaVuSans-8722"/>
       <use x="83.789062" xlink:href="#DejaVuSans-50"/>
       <use x="147.412109" xlink:href="#DejaVuSans-48"/>
       <use x="211.035156" xlink:href="#DejaVuSans-48"/>
      </g>
     </g>
    </g>
    <g id="ytick_9">
     <g id="line2d_44">
      <path clip-path="url(#p89e61601c2)" d="M 476.255 227.245865 
L 845.235 227.245865 
" style="fill:none;stroke:#777777;stroke-linecap:square;stroke-width:0.8;"/>
     </g>
     <g id="line2d_45">
      <g>
       <use style="stroke:#000000;stroke-width:0.8;" x="476.255" xlink:href="#md6ec74d2e9" y="227.245865"/>
      </g>
     </g>
     <g id="text_25">
      <!-- −150 -->
      <g transform="translate(441.787812 231.045084)scale(0.1 -0.1)">
       <use xlink:href="#DejaVuSans-8722"/>
       <use x="83.789062" xlink:href="#DejaVuSans-49"/>
       <use x="147.412109" xlink:href="#DejaVuSans-53"/>
       <use x="211.035156" xlink:href="#DejaVuSans-48"/>
      </g>
     </g>
    </g>
    <g id="ytick_10">
     <g id="line2d_46">
      <path clip-path="url(#p89e61601c2)" d="M 476.255 178.792669 
L 845.235 178.792669 
" style="fill:none;stroke:#777777;stroke-linecap:square;stroke-width:0.8;"/>
     </g>
     <g id="line2d_47">
      <g>
       <use style="stroke:#000000;stroke-width:0.8;" x="476.255" xlink:href="#md6ec74d2e9" y="178.792669"/>
      </g>
     </g>
     <g id="text_26">
      <!-- −100 -->
      <g transform="translate(441.787812 182.591888)scale(0.1 -0.1)">
       <use xlink:href="#DejaVuSans-8722"/>
       <use x="83.789062" xlink:href="#DejaVuSans-49"/>
       <use x="147.412109" xlink:href="#DejaVuSans-48"/>
       <use x="211.035156" xlink:href="#DejaVuSans-48"/>
      </g>
     </g>
    </g>
    <g id="ytick_11">
     <g id="line2d_48">
      <path clip-path="url(#p89e61601c2)" d="M 476.255 130.339473 
L 845.235 130.339473 
" style="fill:none;stroke:#777777;stroke-linecap:square;stroke-width:0.8;"/>
     </g>
     <g id="line2d_49">
      <g>
       <use style="stroke:#000000;stroke-width:0.8;" x="476.255" xlink:href="#md6ec74d2e9" y="130.339473"/>
      </g>
     </g>
     <g id="text_27">
      <!-- −50 -->
      <g transform="translate(448.150312 134.138692)scale(0.1 -0.1)">
       <use xlink:href="#DejaVuSans-8722"/>
       <use x="83.789062" xlink:href="#DejaVuSans-53"/>
       <use x="147.412109" xlink:href="#DejaVuSans-48"/>
      </g>
     </g>
    </g>
    <g id="ytick_12">
     <g id="line2d_50">
      <path clip-path="url(#p89e61601c2)" d="M 476.255 81.886276 
L 845.235 81.886276 
" style="fill:none;stroke:#777777;stroke-linecap:square;stroke-width:0.8;"/>
     </g>
     <g id="line2d_51">
      <g>
       <use style="stroke:#000000;stroke-width:0.8;" x="476.255" xlink:href="#md6ec74d2e9" y="81.886276"/>
      </g>
     </g>
     <g id="text_28">
      <!-- 0 -->
      <g transform="translate(462.8925 85.685495)scale(0.1 -0.1)">
       <use xlink:href="#DejaVuSans-48"/>
      </g>
     </g>
    </g>
    <g id="text_29">
     <!-- Gain (dB) -->
     <defs>
      <path d="M 59.515625 10.40625 
L 59.515625 29.984375 
L 43.40625 29.984375 
L 43.40625 38.09375 
L 69.28125 38.09375 
L 69.28125 6.78125 
Q 63.578125 2.734375 56.6875 0.65625 
Q 49.8125 -1.421875 42 -1.421875 
Q 24.90625 -1.421875 15.25 8.5625 
Q 5.609375 18.5625 5.609375 36.375 
Q 5.609375 54.25 15.25 64.234375 
Q 24.90625 74.21875 42 74.21875 
Q 49.125 74.21875 55.546875 72.453125 
Q 61.96875 70.703125 67.390625 67.28125 
L 67.390625 56.78125 
Q 61.921875 61.421875 55.765625 63.765625 
Q 49.609375 66.109375 42.828125 66.109375 
Q 29.4375 66.109375 22.71875 58.640625 
Q 16.015625 51.171875 16.015625 36.375 
Q 16.015625 21.625 22.71875 14.15625 
Q 29.4375 6.6875 42.828125 6.6875 
Q 48.046875 6.6875 52.140625 7.59375 
Q 56.25 8.5 59.515625 10.40625 
z
" id="DejaVuSans-71"/>
      <path d="M 19.671875 34.8125 
L 19.671875 8.109375 
L 35.5 8.109375 
Q 43.453125 8.109375 47.28125 11.40625 
Q 51.125 14.703125 51.125 21.484375 
Q 51.125 28.328125 47.28125 31.5625 
Q 43.453125 34.8125 35.5 34.8125 
z
M 19.671875 64.796875 
L 19.671875 42.828125 
L 34.28125 42.828125 
Q 41.5 42.828125 45.03125 45.53125 
Q 48.578125 48.25 48.578125 53.8125 
Q 48.578125 59.328125 45.03125 62.0625 
Q 41.5 64.796875 34.28125 64.796875 
z
M 9.8125 72.90625 
L 35.015625 72.90625 
Q 46.296875 72.90625 52.390625 68.21875 
Q 58.5 63.53125 58.5 54.890625 
Q 58.5 48.1875 55.375 44.234375 
Q 52.25 40.28125 46.1875 39.3125 
Q 53.46875 37.75 57.5 32.78125 
Q 61.53125 27.828125 61.53125 20.40625 
Q 61.53125 10.640625 54.890625 5.3125 
Q 48.25 0 35.984375 0 
L 9.8125 0 
z
" id="DejaVuSans-66"/>
     </defs>
     <g transform="translate(435.708125 236.251406)rotate(-90)scale(0.1 -0.1)">
      <use xlink:href="#DejaVuSans-71"/>
      <use x="77.490234" xlink:href="#DejaVuSans-97"/>
      <use x="138.769531" xlink:href="#DejaVuSans-105"/>
      <use x="166.552734" xlink:href="#DejaVuSans-110"/>
      <use x="229.931641" xlink:href="#DejaVuSans-32"/>
      <use x="261.71875" xlink:href="#DejaVuSans-40"/>
      <use x="300.732422" xlink:href="#DejaVuSans-100"/>
      <use x="364.208984" xlink:href="#DejaVuSans-66"/>
      <use x="432.8125" xlink:href="#DejaVuSans-41"/>
     </g>
    </g>
   </g>
   <g id="line2d_52">
    <path clip-path="url(#p89e61601c2)" d="M 476.255 52.714545 
L 477.696328 52.822907 
L 479.137656 53.149681 
L 480.578984 53.700062 
L 482.020312 54.483152 
L 483.461641 55.512721 
L 484.902969 56.808448 
L 486.344297 58.397943 
L 487.785625 60.320037 
L 489.226953 62.630355 
L 490.668281 65.411261 
L 492.109609 68.790982 
L 493.550937 72.984371 
L 494.992266 78.39339 
L 495.71293 81.79523 
L 496.433594 85.918016 
L 497.154258 91.161624 
L 497.874922 98.423087 
L 498.595586 110.563329 
L 499.31625 372.605455 
L 500.036914 111.617523 
L 500.757578 100.533537 
L 501.478242 94.332477 
L 502.198906 90.155553 
L 502.91957 87.107942 
L 503.640234 84.792086 
L 504.360898 82.996912 
L 505.081562 81.597437 
L 505.802227 80.514081 
L 506.522891 79.693597 
L 507.243555 79.099178 
L 507.964219 78.704916 
L 508.684883 78.492541 
L 509.405547 78.449428 
L 510.126211 78.567363 
L 510.846875 78.841804 
L 511.567539 79.27148 
L 512.288203 79.858271 
L 513.008867 80.607333 
L 513.729531 81.5275 
L 515.170859 83.93982 
L 515.891523 85.477453 
L 516.612187 87.282411 
L 517.332852 89.408645 
L 518.053516 91.936467 
L 518.77418 94.991631 
L 519.494844 98.786015 
L 520.215508 103.718031 
L 520.936172 110.683409 
L 521.656836 122.541903 
L 522.3775 372.605455 
L 523.098164 123.071515 
L 523.818828 111.74289 
L 524.539492 105.307897 
L 525.260156 100.90704 
L 525.98082 97.644851 
L 526.701484 95.123184 
L 527.422148 93.130429 
L 528.142812 91.541107 
L 528.863477 90.275182 
L 529.584141 89.278991 
L 530.304805 88.515339 
L 531.025469 87.95796 
L 531.746133 87.588253 
L 532.466797 87.393288 
L 533.187461 87.364563 
L 533.908125 87.497272 
L 534.628789 87.789896 
L 535.349453 88.244086 
L 536.070117 88.86478 
L 536.790781 89.660612 
L 537.511445 90.644646 
L 538.232109 91.835617 
L 538.952773 93.259926 
L 539.673437 94.954906 
L 540.394102 96.974359 
L 541.114766 99.398461 
L 541.83543 102.352835 
L 542.556094 106.049236 
L 543.276758 110.88596 
L 543.997422 117.758628 
L 544.718086 129.52689 
L 545.43875 372.605455 
L 546.159414 129.883086 
L 546.880078 118.471096 
L 547.600742 111.954853 
L 548.321406 107.474784 
L 549.04207 104.135344 
L 549.762734 101.538315 
L 550.483398 99.472021 
L 551.204062 97.810915 
L 551.924727 96.474903 
L 552.645391 95.410262 
L 553.366055 94.579738 
L 554.086719 93.957016 
L 554.807383 93.523441 
L 555.528047 93.266034 
L 556.248711 93.176249 
L 556.969375 93.249233 
L 557.690039 93.483426 
L 558.410703 93.880435 
L 559.131367 94.445163 
L 559.852031 95.186203 
L 560.572695 96.116586 
L 561.293359 97.255011 
L 562.014023 98.627846 
L 562.734687 100.272392 
L 563.455352 102.242422 
L 564.176016 104.618081 
L 564.89668 107.524964 
L 565.617344 111.1748 
L 566.338008 115.965858 
L 567.058672 122.793735 
L 567.779336 134.518056 
L 568.5 372.605455 
L 569.220664 134.788829 
L 569.941328 123.335313 
L 570.661992 116.778308 
L 571.382656 112.258218 
L 572.10332 108.87948 
L 572.823984 106.243859 
L 573.544648 104.139658 
L 574.265312 102.441315 
L 574.985977 101.068718 
L 575.706641 99.968128 
L 576.427305 99.102277 
L 577.147969 98.444832 
L 577.868633 97.977126 
L 578.589297 97.686164 
L 579.309961 97.563387 
L 580.030625 97.603929 
L 580.751289 97.806216 
L 581.471953 98.171845 
L 582.192617 98.705704 
L 582.913281 99.416377 
L 583.633945 100.316882 
L 584.354609 101.425908 
L 585.075273 102.769812 
L 585.795937 104.385885 
L 586.516602 106.327889 
L 587.237266 108.675961 
L 587.95793 111.555686 
L 588.678594 115.178783 
L 589.399258 119.943513 
L 590.119922 126.745464 
L 590.840586 138.444253 
L 591.56125 372.605455 
L 592.281914 138.665112 
L 593.002578 127.187199 
L 593.723242 120.606158 
L 594.443906 116.062389 
L 595.16457 112.660322 
L 595.885234 110.001712 
L 596.605898 107.874857 
L 597.326562 106.154191 
L 598.047227 104.759592 
L 598.767891 103.637316 
L 599.488555 102.75009 
L 600.209219 102.071575 
L 600.929883 101.583098 
L 601.650547 101.271659 
L 602.371211 101.128692 
L 603.091875 101.149328 
L 603.812539 101.331987 
L 604.533203 101.678261 
L 605.253867 102.193034 
L 605.974531 102.884884 
L 606.695195 103.766824 
L 607.415859 104.857541 
L 608.136523 106.183386 
L 608.857187 107.781646 
L 609.577852 109.706079 
L 610.298516 112.036817 
L 611.01918 114.899443 
L 611.739844 118.505671 
L 612.460508 123.253759 
L 613.181172 130.03929 
L 613.901836 141.721879 
L 614.6225 372.605455 
L 615.343164 141.910981 
L 616.063828 130.417505 
L 616.784492 123.821107 
L 617.505156 119.262184 
L 618.22582 115.845161 
L 618.946484 113.171794 
L 619.667148 111.030375 
L 620.387812 109.295336 
L 621.108477 107.886552 
L 621.829141 106.750277 
L 622.549805 105.849234 
L 623.270469 105.157082 
L 623.991133 104.655147 
L 624.711797 104.330424 
L 625.432461 104.174347 
L 626.153125 104.182042 
L 626.873789 104.351929 
L 627.594453 104.685596 
L 628.315117 105.187926 
L 629.035781 105.867495 
L 629.756445 106.737314 
L 630.477109 107.816066 
L 631.197773 109.130102 
L 631.918437 110.716706 
L 632.639102 112.629634 
L 633.359766 114.949018 
L 634.08043 117.800437 
L 634.801094 121.395604 
L 635.521758 126.132775 
L 636.242422 132.907532 
L 636.963086 144.579487 
L 637.68375 372.605455 
L 638.404414 144.747739 
L 639.125078 133.244042 
L 639.845742 126.637559 
L 640.566406 122.068682 
L 641.28707 118.641839 
L 642.007734 115.95878 
L 642.728398 113.8078 
L 643.449062 112.063325 
L 644.169727 110.645233 
L 644.890391 109.499774 
L 645.611055 108.589672 
L 646.331719 107.888582 
L 647.052383 107.37783 
L 647.773047 107.044411 
L 648.493711 106.879756 
L 649.214375 106.878991 
L 649.935039 107.040535 
L 650.655703 107.365975 
L 651.376367 107.860193 
L 652.097031 108.531762 
L 652.817695 109.393694 
L 653.538359 110.464672 
L 654.259023 111.771043 
L 654.979687 113.350093 
L 655.700352 115.255576 
L 656.421016 117.567622 
L 657.14168 120.41181 
L 657.862344 123.999854 
L 658.583008 128.730007 
L 659.303672 135.49785 
L 660.024336 147.162997 
L 660.745 367.76924 
L 661.465664 147.317939 
L 662.186328 135.807741 
L 662.906992 129.194858 
L 663.627656 124.619682 
L 664.34832 121.18664 
L 665.068984 118.497482 
L 665.789648 116.3405 
L 666.510312 114.590123 
L 667.230977 113.166226 
L 667.951641 112.01506 
L 668.672305 111.099347 
L 669.392969 110.392743 
L 670.113633 109.876572 
L 670.834297 109.53783 
L 671.554961 109.367947 
L 672.275625 109.362048 
L 672.996289 109.518552 
L 673.716953 109.839046 
L 674.437617 110.328411 
L 675.158281 110.99522 
L 675.878945 111.852486 
L 676.599609 112.918888 
L 677.320273 114.220777 
L 678.040937 115.795436 
L 678.761602 117.69662 
L 679.482266 120.004458 
L 680.20293 122.84453 
L 680.923594 126.428547 
L 681.644258 131.154765 
L 682.364922 137.918764 
L 683.085586 149.580156 
L 683.80625 372.605455 
L 684.526914 149.727861 
L 685.247578 138.214179 
L 685.968242 131.597902 
L 686.688906 127.019422 
L 687.40957 123.583166 
L 688.130234 120.890883 
L 688.850898 118.730867 
L 689.571562 116.977546 
L 690.292227 115.550794 
L 691.012891 114.396863 
L 691.733555 113.478474 
L 692.454219 112.769285 
L 693.174883 112.250619 
L 693.895547 111.909472 
L 694.616211 111.737274 
L 695.336875 111.729151 
L 696.057539 111.883521 
L 696.778203 112.201972 
L 697.498867 112.689385 
L 698.219531 113.354334 
L 698.940195 114.20983 
L 699.660859 115.274555 
L 700.381523 116.574858 
L 701.102187 118.148024 
L 701.822852 120.047807 
L 702.543516 122.354337 
L 703.26418 125.193194 
L 703.984844 128.776091 
L 704.705508 133.501281 
L 705.426172 140.264348 
L 706.146836 151.924902 
L 706.8675 372.605455 
L 707.588164 152.071218 
L 708.308828 140.556985 
L 709.029492 133.940255 
L 709.750156 129.361419 
L 710.47082 125.924904 
L 711.191484 123.232462 
L 711.912148 121.072386 
L 712.632812 119.319103 
L 713.353477 117.892492 
L 714.074141 116.738801 
L 714.794805 115.820755 
L 715.515469 115.112012 
L 716.236133 114.593894 
L 716.956797 114.2534 
L 717.677461 114.08196 
L 718.398125 114.074701 
L 719.118789 114.230042 
L 719.839453 114.549571 
L 720.560117 115.03817 
L 721.280781 115.704415 
L 722.001445 116.561318 
L 722.722109 117.627562 
L 723.442773 118.929496 
L 724.163437 120.504406 
L 724.884102 122.406049 
L 725.604766 124.714555 
L 726.32543 127.555505 
L 727.046094 131.140613 
L 727.766758 135.868135 
L 728.487422 142.633654 
L 729.208086 154.296783 
L 729.92875 372.605455 
L 730.649414 154.448622 
L 731.370078 142.937341 
L 732.090742 136.323689 
L 732.811406 131.748063 
L 733.53207 128.314889 
L 734.252734 125.625921 
L 734.973398 123.469453 
L 735.694062 121.719916 
L 736.414727 120.297189 
L 737.135391 119.147523 
L 737.856055 118.233644 
L 738.576719 117.529211 
L 739.297383 117.015551 
L 740.018047 116.679663 
L 740.738711 116.512979 
L 741.459375 116.510629 
L 742.180039 116.671035 
L 742.900703 116.995786 
L 743.621367 117.489767 
L 744.342031 118.161557 
L 745.062695 119.024168 
L 745.783359 120.096289 
L 746.504023 121.40427 
L 747.224687 122.985401 
L 747.945352 124.89344 
L 748.666016 127.208522 
L 749.38668 130.056229 
L 750.107344 133.64828 
L 750.828008 138.382934 
L 751.548672 145.155775 
L 752.269336 156.826423 
L 752.99 372.605455 
L 753.710664 156.993899 
L 754.431328 145.490745 
L 755.151992 138.88543 
L 755.872656 134.318354 
L 756.59332 130.893949 
L 757.313984 128.213973 
L 758.034648 126.066725 
L 758.755312 124.326639 
L 759.475977 122.913598 
L 760.196641 121.77386 
L 760.917305 120.870155 
L 761.637969 120.176148 
L 762.358633 119.673171 
L 763.079297 119.348227 
L 763.799961 119.192756 
L 764.520625 119.201892 
L 765.241289 119.374064 
L 765.961953 119.710867 
L 766.682617 120.217193 
L 767.403281 120.901626 
L 768.123945 121.777189 
L 768.844609 122.862573 
L 769.565273 124.184139 
L 770.285937 125.779183 
L 771.006602 127.701472 
L 771.727266 130.031149 
L 772.44793 132.893804 
L 773.168594 136.501166 
L 773.889258 141.251501 
L 774.609922 148.040406 
L 775.330586 159.727508 
L 776.05125 372.605455 
L 776.771914 159.929107 
L 777.492578 148.443642 
L 778.213242 141.856451 
L 778.933906 137.307947 
L 779.65457 133.902571 
L 780.375234 131.242096 
L 781.095898 129.114834 
L 781.816562 127.395233 
L 782.537227 126.003191 
L 783.257891 124.88498 
L 783.978555 124.003348 
L 784.699219 123.331973 
L 785.419883 122.852207 
L 786.140547 122.551069 
L 786.861211 122.42002 
L 787.581875 122.454211 
L 788.302539 122.652092 
L 789.023203 123.01528 
L 789.743867 123.548688 
L 790.464531 124.260925 
L 791.185195 125.165036 
L 791.905859 126.27974 
L 792.626523 127.631423 
L 793.347187 129.257409 
L 794.067852 131.211495 
L 794.788516 133.573854 
L 795.50918 136.470109 
L 796.229844 140.112022 
L 796.950508 144.897896 
L 797.671172 151.723364 
L 798.391836 163.448094 
L 799.1125 372.605455 
L 799.833164 163.72831 
L 800.553828 152.283925 
L 801.274492 145.73906 
L 801.995156 141.234177 
L 802.71582 137.873775 
L 803.436484 135.259683 
L 804.157148 133.180274 
L 804.877812 131.510062 
L 805.598477 130.169013 
L 806.319141 129.103474 
L 807.039805 128.276269 
L 807.760469 127.661161 
L 808.481133 127.239588 
L 809.201797 126.998664 
L 809.922461 126.929952 
L 810.643125 127.028709 
L 811.363789 127.293502 
L 812.084453 127.72607 
L 812.805117 128.33146 
L 813.525781 129.118422 
L 814.246445 130.100156 
L 814.967109 131.295544 
L 815.687773 132.731154 
L 816.408437 134.444501 
L 817.129102 136.489592 
L 817.849766 138.946827 
L 818.57043 141.942077 
L 819.291094 145.687372 
L 820.011758 150.58131 
L 820.732422 157.519846 
L 821.453086 169.363 
L 822.17375 372.605455 
L 822.894414 169.897728 
L 823.615078 158.590332 
L 824.335742 152.189628 
L 825.056406 147.836663 
L 825.77707 144.636587 
L 826.497734 142.191961 
L 827.218398 140.291981 
L 827.939062 138.812089 
L 828.659727 137.673305 
L 829.380391 136.823178 
L 830.101055 136.22591 
L 830.821719 135.856854 
L 831.542383 135.699292 
L 832.263047 135.742495 
L 832.983711 135.980564 
L 833.704375 136.411775 
L 834.425039 137.038314 
L 835.145703 137.866313 
L 835.866367 138.906213 
L 836.587031 140.173484 
L 837.307695 141.689837 
L 838.028359 143.485147 
L 838.749023 145.600502 
L 839.469687 148.093151 
L 840.190352 151.04484 
L 840.911016 154.576696 
L 841.63168 158.877858 
L 842.352344 164.266522 
L 843.073008 171.340566 
L 843.793672 181.443737 
L 844.514336 198.865716 
L 844.514336 198.865716 
" style="fill:none;stroke:#0072bd;stroke-linecap:square;stroke-width:1.4;"/>
   </g>
   <g id="patch_8">
    <path d="M 476.255 388.6 
L 476.255 36.72 
" style="fill:none;stroke:#000000;stroke-linecap:square;stroke-linejoin:miter;stroke-width:0.8;"/>
   </g>
   <g id="patch_9">
    <path d="M 845.235 388.6 
L 845.235 36.72 
" style="fill:none;stroke:#000000;stroke-linecap:square;stroke-linejoin:miter;stroke-width:0.8;"/>
   </g>
   <g id="patch_10">
    <path d="M 476.255 388.6 
L 845.235 388.6 
" style="fill:none;stroke:#000000;stroke-linecap:square;stroke-linejoin:miter;stroke-width:0.8;"/>
   </g>
   <g id="patch_11">
    <path d="M 476.255 36.72 
L 845.235 36.72 
" style="fill:none;stroke:#000000;stroke-linecap:square;stroke-linejoin:miter;stroke-width:0.8;"/>
   </g>
  </g>
  <g id="text_30">
   <!-- Triangular window -->
   <defs>
    <path d="M -0.296875 72.90625 
L 61.375 72.90625 
L 61.375 64.59375 
L 35.5 64.59375 
L 35.5 0 
L 25.59375 0 
L 25.59375 64.59375 
L -0.296875 64.59375 
z
" id="DejaVuSans-84"/>
    <path d="M 45.40625 27.984375 
Q 45.40625 37.75 41.375 43.109375 
Q 37.359375 48.484375 30.078125 48.484375 
Q 22.859375 48.484375 18.828125 43.109375 
Q 14.796875 37.75 14.796875 27.984375 
Q 14.796875 18.265625 18.828125 12.890625 
Q 22.859375 7.515625 30.078125 7.515625 
Q 37.359375 7.515625 41.375 12.890625 
Q 45.40625 18.265625 45.40625 27.984375 
z
M 54.390625 6.78125 
Q 54.390625 -7.171875 48.1875 -13.984375 
Q 42 -20.796875 29.203125 -20.796875 
Q 24.46875 -20.796875 20.265625 -20.09375 
Q 16.0625 -19.390625 12.109375 -17.921875 
L 12.109375 -9.1875 
Q 16.0625 -11.328125 19.921875 -12.34375 
Q 23.78125 -13.375 27.78125 -13.375 
Q 36.625 -13.375 41.015625 -8.765625 
Q 45.40625 -4.15625 45.40625 5.171875 
L 45.40625 9.625 
Q 42.625 4.78125 38.28125 2.390625 
Q 33.9375 0 27.875 0 
Q 17.828125 0 11.671875 7.65625 
Q 5.515625 15.328125 5.515625 27.984375 
Q 5.515625 40.671875 11.671875 48.328125 
Q 17.828125 56 27.875 56 
Q 33.9375 56 38.28125 53.609375 
Q 42.625 51.21875 45.40625 46.390625 
L 45.40625 54.6875 
L 54.390625 54.6875 
z
" id="DejaVuSans-103"/>
    <path d="M 4.203125 54.6875 
L 13.1875 54.6875 
L 24.421875 12.015625 
L 35.59375 54.6875 
L 46.1875 54.6875 
L 57.421875 12.015625 
L 68.609375 54.6875 
L 77.59375 54.6875 
L 63.28125 0 
L 52.6875 0 
L 40.921875 44.828125 
L 29.109375 0 
L 18.5 0 
z
" id="DejaVuSans-119"/>
   </defs>
   <g transform="translate(358.19125 20.7975)scale(0.16 -0.16)">
    <use xlink:href="#DejaVuSans-84"/>
    <use x="60.865234" xlink:href="#DejaVuSans-114"/>
    <use x="101.978516" xlink:href="#DejaVuSans-105"/>
    <use x="129.761719" xlink:href="#DejaVuSans-97"/>
    <use x="191.041016" xlink:href="#DejaVuSans-110"/>
    <use x="254.419922" xlink:href="#DejaVuSans-103"/>
    <use x="317.896484" xlink:href="#DejaVuSans-117"/>
    <use x="381.275391" xlink:href="#DejaVuSans-108"/>
    <use x="409.058594" xlink:href="#DejaVuSans-97"/>
    <use x="470.337891" xlink:href="#DejaVuSans-114"/>
    <use x="511.451172" xlink:href="#DejaVuSans-32"/>
    <use x="543.238281" xlink:href="#DejaVuSans-119"/>
    <use x="625.025391" xlink:href="#DejaVuSans-105"/>
    <use x="652.808594" xlink:href="#DejaVuSans-110"/>
    <use x="716.1875" xlink:href="#DejaVuSans-100"/>
    <use x="779.664062" xlink:href="#DejaVuSans-111"/>
    <use x="840.845703" xlink:href="#DejaVuSans-119"/>
   </g>
  </g>
 </g>
 <defs>
  <clipPath id="p18189ee57d">
   <rect height="351.88" width="368.98" x="47.855" y="36.72"/>
  </clipPath>
  <clipPath id="p89e61601c2">
   <rect height="351.88" width="368.98" x="476.255" y="36.72"/>
  </clipPath>
 </defs>
</svg>
