<?xml version="1.0" encoding="utf-8" standalone="no"?>
<!DOCTYPE svg PUBLIC "-//W3C//DTD SVG 1.1//EN"
  "http://www.w3.org/Graphics/SVG/1.1/DTD/svg11.dtd">
<!-- Created with matplotlib (https://matplotlib.org/) -->
<svg height="432pt" version="1.1" viewBox="0 0 864 432" width="864pt" xmlns="http://www.w3.org/2000/svg" xmlns:xlink="http://www.w3.org/1999/xlink">
 <defs>
  <style type="text/css">
*{stroke-linecap:butt;stroke-linejoin:round;}
  </style>
 </defs>
 <g id="figure_1">
  <g id="patch_1">
   <path d="M 0 432 
L 864 432 
L 864 0 
L 0 0 
z
" style="fill:#ffffff;"/>
  </g>
  <g id="axes_1">
   <g id="patch_2">
    <path d="M 47.855 388.6 
L 416.835 388.6 
L 416.835 36.72 
L 47.855 36.72 
z
" style="fill:#ffffff;"/>
   </g>
   <g id="matplotlib.axis_1">
    <g id="xtick_1">
     <g id="line2d_1">
      <path clip-path="url(#p63898e0c13)" d="M 47.855 388.6 
L 47.855 36.72 
" style="fill:none;stroke:#777777;stroke-linecap:square;stroke-width:0.8;"/>
     </g>
     <g id="line2d_2">
      <defs>
       <path d="M 0 0 
L 0 3.5 
" id="m55447c0352" style="stroke:#000000;stroke-width:0.8;"/>
      </defs>
      <g>
       <use style="stroke:#000000;stroke-width:0.8;" x="47.855" xlink:href="#m55447c0352" y="388.6"/>
      </g>
     </g>
     <g id="text_1">
      <!-- 0 -->
      <defs>
       <path d="M 31.78125 66.40625 
Q 24.171875 66.40625 20.328125 58.90625 
Q 16.5 51.421875 16.5 36.375 
Q 16.5 21.390625 20.328125 13.890625 
Q 24.171875 6.390625 31.78125 6.390625 
Q 39.453125 6.390625 43.28125 13.890625 
Q 47.125 21.390625 47.125 36.375 
Q 47.125 51.421875 43.28125 58.90625 
Q 39.453125 66.40625 31.78125 66.40625 
z
M 31.78125 74.21875 
Q 44.046875 74.21875 50.515625 64.515625 
Q 56.984375 54.828125 56.984375 36.375 
Q 56.984375 17.96875 50.515625 8.265625 
Q 44.046875 -1.421875 31.78125 -1.421875 
Q 19.53125 -1.421875 13.0625 8.265625 
Q 6.59375 17.96875 6.59375 36.375 
Q 6.59375 54.828125 13.0625 64.515625 
Q 19.53125 74.21875 31.78125 74.21875 
z
" id="DejaVuSans-48"/>
      </defs>
      <g transform="translate(44.67375 403.198438)scale(0.1 -0.1)">
       <use xlink:href="#DejaVuSans-48"/>
      </g>
     </g>
    </g>
    <g id="xtick_2">
     <g id="line2d_3">
      <path clip-path="url(#p63898e0c13)" d="M 106.423254 388.6 
L 106.423254 36.72 
" style="fill:none;stroke:#777777;stroke-linecap:square;stroke-width:0.8;"/>
     </g>
     <g id="line2d_4">
      <g>
       <use style="stroke:#000000;stroke-width:0.8;" x="106.423254" xlink:href="#m55447c0352" y="388.6"/>
      </g>
     </g>
     <g id="text_2">
      <!-- 10 -->
      <defs>
       <path d="M 12.40625 8.296875 
L 28.515625 8.296875 
L 28.515625 63.921875 
L 10.984375 60.40625 
L 10.984375 69.390625 
L 28.421875 72.90625 
L 38.28125 72.90625 
L 38.28125 8.296875 
L 54.390625 8.296875 
L 54.390625 0 
L 12.40625 0 
z
" id="DejaVuSans-49"/>
      </defs>
      <g transform="translate(100.060754 403.198438)scale(0.1 -0.1)">
       <use xlink:href="#DejaVuSans-49"/>
       <use x="63.623047" xlink:href="#DejaVuSans-48"/>
      </g>
     </g>
    </g>
    <g id="xtick_3">
     <g id="line2d_5">
      <path clip-path="url(#p63898e0c13)" d="M 164.991508 388.6 
L 164.991508 36.72 
" style="fill:none;stroke:#777777;stroke-linecap:square;stroke-width:0.8;"/>
     </g>
     <g id="line2d_6">
      <g>
       <use style="stroke:#000000;stroke-width:0.8;" x="164.991508" xlink:href="#m55447c0352" y="388.6"/>
      </g>
     </g>
     <g id="text_3">
      <!-- 20 -->
      <defs>
       <path d="M 19.1875 8.296875 
L 53.609375 8.296875 
L 53.609375 0 
L 7.328125 0 
L 7.328125 8.296875 
Q 12.9375 14.109375 22.625 23.890625 
Q 32.328125 33.6875 34.8125 36.53125 
Q 39.546875 41.84375 41.421875 45.53125 
Q 43.3125 49.21875 43.3125 52.78125 
Q 43.3125 58.59375 39.234375 62.25 
Q 35.15625 65.921875 28.609375 65.921875 
Q 23.96875 65.921875 18.8125 64.3125 
Q 13.671875 62.703125 7.8125 59.421875 
L 7.8125 69.390625 
Q 13.765625 71.78125 18.9375 73 
Q 24.125 74.21875 28.421875 74.21875 
Q 39.75 74.21875 46.484375 68.546875 
Q 53.21875 62.890625 53.21875 53.421875 
Q 53.21875 48.921875 51.53125 44.890625 
Q 49.859375 40.875 45.40625 35.40625 
Q 44.1875 33.984375 37.640625 27.21875 
Q 31.109375 20.453125 19.1875 8.296875 
z
" id="DejaVuSans-50"/>
      </defs>
      <g transform="translate(158.629008 403.198438)scale(0.1 -0.1)">
       <use xlink:href="#DejaVuSans-50"/>
       <use x="63.623047" xlink:href="#DejaVuSans-48"/>
      </g>
     </g>
    </g>
    <g id="xtick_4">
     <g id="line2d_7">
      <path clip-path="url(#p63898e0c13)" d="M 223.559762 388.6 
L 223.559762 36.72 
" style="fill:none;stroke:#777777;stroke-linecap:square;stroke-width:0.8;"/>
     </g>
     <g id="line2d_8">
      <g>
       <use style="stroke:#000000;stroke-width:0.8;" x="223.559762" xlink:href="#m55447c0352" y="388.6"/>
      </g>
     </g>
     <g id="text_4">
      <!-- 30 -->
      <defs>
       <path d="M 40.578125 39.3125 
Q 47.65625 37.796875 51.625 33 
Q 55.609375 28.21875 55.609375 21.1875 
Q 55.609375 10.40625 48.1875 4.484375 
Q 40.765625 -1.421875 27.09375 -1.421875 
Q 22.515625 -1.421875 17.65625 -0.515625 
Q 12.796875 0.390625 7.625 2.203125 
L 7.625 11.71875 
Q 11.71875 9.328125 16.59375 8.109375 
Q 21.484375 6.890625 26.8125 6.890625 
Q 36.078125 6.890625 40.9375 10.546875 
Q 45.796875 14.203125 45.796875 21.1875 
Q 45.796875 27.640625 41.28125 31.265625 
Q 36.765625 34.90625 28.71875 34.90625 
L 20.21875 34.90625 
L 20.21875 43.015625 
L 29.109375 43.015625 
Q 36.375 43.015625 40.234375 45.921875 
Q 44.09375 48.828125 44.09375 54.296875 
Q 44.09375 59.90625 40.109375 62.90625 
Q 36.140625 65.921875 28.71875 65.921875 
Q 24.65625 65.921875 20.015625 65.03125 
Q 15.375 64.15625 9.8125 62.3125 
L 9.8125 71.09375 
Q 15.4375 72.65625 20.34375 73.4375 
Q 25.25 74.21875 29.59375 74.21875 
Q 40.828125 74.21875 47.359375 69.109375 
Q 53.90625 64.015625 53.90625 55.328125 
Q 53.90625 49.265625 50.4375 45.09375 
Q 46.96875 40.921875 40.578125 39.3125 
z
" id="DejaVuSans-51"/>
      </defs>
      <g transform="translate(217.197262 403.198438)scale(0.1 -0.1)">
       <use xlink:href="#DejaVuSans-51"/>
       <use x="63.623047" xlink:href="#DejaVuSans-48"/>
      </g>
     </g>
    </g>
    <g id="xtick_5">
     <g id="line2d_9">
      <path clip-path="url(#p63898e0c13)" d="M 282.128016 388.6 
L 282.128016 36.72 
" style="fill:none;stroke:#777777;stroke-linecap:square;stroke-width:0.8;"/>
     </g>
     <g id="line2d_10">
      <g>
       <use style="stroke:#000000;stroke-width:0.8;" x="282.128016" xlink:href="#m55447c0352" y="388.6"/>
      </g>
     </g>
     <g id="text_5">
      <!-- 40 -->
      <defs>
       <path d="M 37.796875 64.3125 
L 12.890625 25.390625 
L 37.796875 25.390625 
z
M 35.203125 72.90625 
L 47.609375 72.90625 
L 47.609375 25.390625 
L 58.015625 25.390625 
L 58.015625 17.1875 
L 47.609375 17.1875 
L 47.609375 0 
L 37.796875 0 
L 37.796875 17.1875 
L 4.890625 17.1875 
L 4.890625 26.703125 
z
" id="DejaVuSans-52"/>
      </defs>
      <g transform="translate(275.765516 403.198438)scale(0.1 -0.1)">
       <use xlink:href="#DejaVuSans-52"/>
       <use x="63.623047" xlink:href="#DejaVuSans-48"/>
      </g>
     </g>
    </g>
    <g id="xtick_6">
     <g id="line2d_11">
      <path clip-path="url(#p63898e0c13)" d="M 340.69627 388.6 
L 340.69627 36.72 
" style="fill:none;stroke:#777777;stroke-linecap:square;stroke-width:0.8;"/>
     </g>
     <g id="line2d_12">
      <g>
       <use style="stroke:#000000;stroke-width:0.8;" x="340.69627" xlink:href="#m55447c0352" y="388.6"/>
      </g>
     </g>
     <g id="text_6">
      <!-- 50 -->
      <defs>
       <path d="M 10.796875 72.90625 
L 49.515625 72.90625 
L 49.515625 64.59375 
L 19.828125 64.59375 
L 19.828125 46.734375 
Q 21.96875 47.46875 24.109375 47.828125 
Q 26.265625 48.1875 28.421875 48.1875 
Q 40.625 48.1875 47.75 41.5 
Q 54.890625 34.8125 54.890625 23.390625 
Q 54.890625 11.625 47.5625 5.09375 
Q 40.234375 -1.421875 26.90625 -1.421875 
Q 22.3125 -1.421875 17.546875 -0.640625 
Q 12.796875 0.140625 7.71875 1.703125 
L 7.71875 11.625 
Q 12.109375 9.234375 16.796875 8.0625 
Q 21.484375 6.890625 26.703125 6.890625 
Q 35.15625 6.890625 40.078125 11.328125 
Q 45.015625 15.765625 45.015625 23.390625 
Q 45.015625 31 40.078125 35.4375 
Q 35.15625 39.890625 26.703125 39.890625 
Q 22.75 39.890625 18.8125 39.015625 
Q 14.890625 38.140625 10.796875 36.28125 
z
" id="DejaVuSans-53"/>
      </defs>
      <g transform="translate(334.33377 403.198438)scale(0.1 -0.1)">
       <use xlink:href="#DejaVuSans-53"/>
       <use x="63.623047" xlink:href="#DejaVuSans-48"/>
      </g>
     </g>
    </g>
    <g id="xtick_7">
     <g id="line2d_13">
      <path clip-path="url(#p63898e0c13)" d="M 399.264524 388.6 
L 399.264524 36.72 
" style="fill:none;stroke:#777777;stroke-linecap:square;stroke-width:0.8;"/>
     </g>
     <g id="line2d_14">
      <g>
       <use style="stroke:#000000;stroke-width:0.8;" x="399.264524" xlink:href="#m55447c0352" y="388.6"/>
      </g>
     </g>
     <g id="text_7">
      <!-- 60 -->
      <defs>
       <path d="M 33.015625 40.375 
Q 26.375 40.375 22.484375 35.828125 
Q 18.609375 31.296875 18.609375 23.390625 
Q 18.609375 15.53125 22.484375 10.953125 
Q 26.375 6.390625 33.015625 6.390625 
Q 39.65625 6.390625 43.53125 10.953125 
Q 47.40625 15.53125 47.40625 23.390625 
Q 47.40625 31.296875 43.53125 35.828125 
Q 39.65625 40.375 33.015625 40.375 
z
M 52.59375 71.296875 
L 52.59375 62.3125 
Q 48.875 64.0625 45.09375 64.984375 
Q 41.3125 65.921875 37.59375 65.921875 
Q 27.828125 65.921875 22.671875 59.328125 
Q 17.53125 52.734375 16.796875 39.40625 
Q 19.671875 43.65625 24.015625 45.921875 
Q 28.375 48.1875 33.59375 48.1875 
Q 44.578125 48.1875 50.953125 41.515625 
Q 57.328125 34.859375 57.328125 23.390625 
Q 57.328125 12.15625 50.6875 5.359375 
Q 44.046875 -1.421875 33.015625 -1.421875 
Q 20.359375 -1.421875 13.671875 8.265625 
Q 6.984375 17.96875 6.984375 36.375 
Q 6.984375 53.65625 15.1875 63.9375 
Q 23.390625 74.21875 37.203125 74.21875 
Q 40.921875 74.21875 44.703125 73.484375 
Q 48.484375 72.75 52.59375 71.296875 
z
" id="DejaVuSans-54"/>
      </defs>
      <g transform="translate(392.902024 403.198438)scale(0.1 -0.1)">
       <use xlink:href="#DejaVuSans-54"/>
       <use x="63.623047" xlink:href="#DejaVuSans-48"/>
      </g>
     </g>
    </g>
    <g id="text_8">
     <!-- Samples -->
     <defs>
      <path d="M 53.515625 70.515625 
L 53.515625 60.890625 
Q 47.90625 63.578125 42.921875 64.890625 
Q 37.9375 66.21875 33.296875 66.21875 
Q 25.25 66.21875 20.875 63.09375 
Q 16.5 59.96875 16.5 54.203125 
Q 16.5 49.359375 19.40625 46.890625 
Q 22.3125 44.4375 30.421875 42.921875 
L 36.375 41.703125 
Q 47.40625 39.59375 52.65625 34.296875 
Q 57.90625 29 57.90625 20.125 
Q 57.90625 9.515625 50.796875 4.046875 
Q 43.703125 -1.421875 29.984375 -1.421875 
Q 24.8125 -1.421875 18.96875 -0.25 
Q 13.140625 0.921875 6.890625 3.21875 
L 6.890625 13.375 
Q 12.890625 10.015625 18.65625 8.296875 
Q 24.421875 6.59375 29.984375 6.59375 
Q 38.421875 6.59375 43.015625 9.90625 
Q 47.609375 13.234375 47.609375 19.390625 
Q 47.609375 24.75 44.3125 27.78125 
Q 41.015625 30.8125 33.5 32.328125 
L 27.484375 33.5 
Q 16.453125 35.6875 11.515625 40.375 
Q 6.59375 45.0625 6.59375 53.421875 
Q 6.59375 63.09375 13.40625 68.65625 
Q 20.21875 74.21875 32.171875 74.21875 
Q 37.3125 74.21875 42.625 73.28125 
Q 47.953125 72.359375 53.515625 70.515625 
z
" id="DejaVuSans-83"/>
      <path d="M 34.28125 27.484375 
Q 23.390625 27.484375 19.1875 25 
Q 14.984375 22.515625 14.984375 16.5 
Q 14.984375 11.71875 18.140625 8.90625 
Q 21.296875 6.109375 26.703125 6.109375 
Q 34.1875 6.109375 38.703125 11.40625 
Q 43.21875 16.703125 43.21875 25.484375 
L 43.21875 27.484375 
z
M 52.203125 31.203125 
L 52.203125 0 
L 43.21875 0 
L 43.21875 8.296875 
Q 40.140625 3.328125 35.546875 0.953125 
Q 30.953125 -1.421875 24.3125 -1.421875 
Q 15.921875 -1.421875 10.953125 3.296875 
Q 6 8.015625 6 15.921875 
Q 6 25.140625 12.171875 29.828125 
Q 18.359375 34.515625 30.609375 34.515625 
L 43.21875 34.515625 
L 43.21875 35.40625 
Q 43.21875 41.609375 39.140625 45 
Q 35.0625 48.390625 27.6875 48.390625 
Q 23 48.390625 18.546875 47.265625 
Q 14.109375 46.140625 10.015625 43.890625 
L 10.015625 52.203125 
Q 14.9375 54.109375 19.578125 55.046875 
Q 24.21875 56 28.609375 56 
Q 40.484375 56 46.34375 49.84375 
Q 52.203125 43.703125 52.203125 31.203125 
z
" id="DejaVuSans-97"/>
      <path d="M 52 44.1875 
Q 55.375 50.25 60.0625 53.125 
Q 64.75 56 71.09375 56 
Q 79.640625 56 84.28125 50.015625 
Q 88.921875 44.046875 88.921875 33.015625 
L 88.921875 0 
L 79.890625 0 
L 79.890625 32.71875 
Q 79.890625 40.578125 77.09375 44.375 
Q 74.3125 48.1875 68.609375 48.1875 
Q 61.625 48.1875 57.5625 43.546875 
Q 53.515625 38.921875 53.515625 30.90625 
L 53.515625 0 
L 44.484375 0 
L 44.484375 32.71875 
Q 44.484375 40.625 41.703125 44.40625 
Q 38.921875 48.1875 33.109375 48.1875 
Q 26.21875 48.1875 22.15625 43.53125 
Q 18.109375 38.875 18.109375 30.90625 
L 18.109375 0 
L 9.078125 0 
L 9.078125 54.6875 
L 18.109375 54.6875 
L 18.109375 46.1875 
Q 21.1875 51.21875 25.484375 53.609375 
Q 29.78125 56 35.6875 56 
Q 41.65625 56 45.828125 52.96875 
Q 50 49.953125 52 44.1875 
z
" id="DejaVuSans-109"/>
      <path d="M 18.109375 8.203125 
L 18.109375 -20.796875 
L 9.078125 -20.796875 
L 9.078125 54.6875 
L 18.109375 54.6875 
L 18.109375 46.390625 
Q 20.953125 51.265625 25.265625 53.625 
Q 29.59375 56 35.59375 56 
Q 45.5625 56 51.78125 48.09375 
Q 58.015625 40.1875 58.015625 27.296875 
Q 58.015625 14.40625 51.78125 6.484375 
Q 45.5625 -1.421875 35.59375 -1.421875 
Q 29.59375 -1.421875 25.265625 0.953125 
Q 20.953125 3.328125 18.109375 8.203125 
z
M 48.6875 27.296875 
Q 48.6875 37.203125 44.609375 42.84375 
Q 40.53125 48.484375 33.40625 48.484375 
Q 26.265625 48.484375 22.1875 42.84375 
Q 18.109375 37.203125 18.109375 27.296875 
Q 18.109375 17.390625 22.1875 11.75 
Q 26.265625 6.109375 33.40625 6.109375 
Q 40.53125 6.109375 44.609375 11.75 
Q 48.6875 17.390625 48.6875 27.296875 
z
" id="DejaVuSans-112"/>
      <path d="M 9.421875 75.984375 
L 18.40625 75.984375 
L 18.40625 0 
L 9.421875 0 
z
" id="DejaVuSans-108"/>
      <path d="M 56.203125 29.59375 
L 56.203125 25.203125 
L 14.890625 25.203125 
Q 15.484375 15.921875 20.484375 11.0625 
Q 25.484375 6.203125 34.421875 6.203125 
Q 39.59375 6.203125 44.453125 7.46875 
Q 49.3125 8.734375 54.109375 11.28125 
L 54.109375 2.78125 
Q 49.265625 0.734375 44.1875 -0.34375 
Q 39.109375 -1.421875 33.890625 -1.421875 
Q 20.796875 -1.421875 13.15625 6.1875 
Q 5.515625 13.8125 5.515625 26.8125 
Q 5.515625 40.234375 12.765625 48.109375 
Q 20.015625 56 32.328125 56 
Q 43.359375 56 49.78125 48.890625 
Q 56.203125 41.796875 56.203125 29.59375 
z
M 47.21875 32.234375 
Q 47.125 39.59375 43.09375 43.984375 
Q 39.0625 48.390625 32.421875 48.390625 
Q 24.90625 48.390625 20.390625 44.140625 
Q 15.875 39.890625 15.1875 32.171875 
z
" id="DejaVuSans-101"/>
      <path d="M 44.28125 53.078125 
L 44.28125 44.578125 
Q 40.484375 46.53125 36.375 47.5 
Q 32.28125 48.484375 27.875 48.484375 
Q 21.1875 48.484375 17.84375 46.4375 
Q 14.5 44.390625 14.5 40.28125 
Q 14.5 37.15625 16.890625 35.375 
Q 19.28125 33.59375 26.515625 31.984375 
L 29.59375 31.296875 
Q 39.15625 29.25 43.1875 25.515625 
Q 47.21875 21.78125 47.21875 15.09375 
Q 47.21875 7.46875 41.1875 3.015625 
Q 35.15625 -1.421875 24.609375 -1.421875 
Q 20.21875 -1.421875 15.453125 -0.5625 
Q 10.6875 0.296875 5.421875 2 
L 5.421875 11.28125 
Q 10.40625 8.6875 15.234375 7.390625 
Q 20.0625 6.109375 24.8125 6.109375 
Q 31.15625 6.109375 34.5625 8.28125 
Q 37.984375 10.453125 37.984375 14.40625 
Q 37.984375 18.0625 35.515625 20.015625 
Q 33.0625 21.96875 24.703125 23.78125 
L 21.578125 24.515625 
Q 13.234375 26.265625 9.515625 29.90625 
Q 5.8125 33.546875 5.8125 39.890625 
Q 5.8125 47.609375 11.28125 51.796875 
Q 16.75 56 26.8125 56 
Q 31.78125 56 36.171875 55.265625 
Q 40.578125 54.546875 44.28125 53.078125 
z
" id="DejaVuSans-115"/>
     </defs>
     <g transform="translate(210.991875 416.876562)scale(0.1 -0.1)">
      <use xlink:href="#DejaVuSans-83"/>
      <use x="63.476562" xlink:href="#DejaVuSans-97"/>
      <use x="124.755859" xlink:href="#DejaVuSans-109"/>
      <use x="222.167969" xlink:href="#DejaVuSans-112"/>
      <use x="285.644531" xlink:href="#DejaVuSans-108"/>
      <use x="313.427734" xlink:href="#DejaVuSans-101"/>
      <use x="374.951172" xlink:href="#DejaVuSans-115"/>
     </g>
    </g>
   </g>
   <g id="matplotlib.axis_2">
    <g id="ytick_1">
     <g id="line2d_15">
      <path clip-path="url(#p63898e0c13)" d="M 47.855 388.6 
L 416.835 388.6 
" style="fill:none;stroke:#777777;stroke-linecap:square;stroke-width:0.8;"/>
     </g>
     <g id="line2d_16">
      <defs>
       <path d="M 0 0 
L -3.5 0 
" id="mdeed6be457" style="stroke:#000000;stroke-width:0.8;"/>
      </defs>
      <g>
       <use style="stroke:#000000;stroke-width:0.8;" x="47.855" xlink:href="#mdeed6be457" y="388.6"/>
      </g>
     </g>
     <g id="text_9">
      <!-- 0.0 -->
      <defs>
       <path d="M 10.6875 12.40625 
L 21 12.40625 
L 21 0 
L 10.6875 0 
z
" id="DejaVuSans-46"/>
      </defs>
      <g transform="translate(24.951875 392.399219)scale(0.1 -0.1)">
       <use xlink:href="#DejaVuSans-48"/>
       <use x="63.623047" xlink:href="#DejaVuSans-46"/>
       <use x="95.410156" xlink:href="#DejaVuSans-48"/>
      </g>
     </g>
    </g>
    <g id="ytick_2">
     <g id="line2d_17">
      <path clip-path="url(#p63898e0c13)" d="M 47.855 320.494194 
L 416.835 320.494194 
" style="fill:none;stroke:#777777;stroke-linecap:square;stroke-width:0.8;"/>
     </g>
     <g id="line2d_18">
      <g>
       <use style="stroke:#000000;stroke-width:0.8;" x="47.855" xlink:href="#mdeed6be457" y="320.494194"/>
      </g>
     </g>
     <g id="text_10">
      <!-- 0.2 -->
      <g transform="translate(24.951875 324.293412)scale(0.1 -0.1)">
       <use xlink:href="#DejaVuSans-48"/>
       <use x="63.623047" xlink:href="#DejaVuSans-46"/>
       <use x="95.410156" xlink:href="#DejaVuSans-50"/>
      </g>
     </g>
    </g>
    <g id="ytick_3">
     <g id="line2d_19">
      <path clip-path="url(#p63898e0c13)" d="M 47.855 252.388387 
L 416.835 252.388387 
" style="fill:none;stroke:#777777;stroke-linecap:square;stroke-width:0.8;"/>
     </g>
     <g id="line2d_20">
      <g>
       <use style="stroke:#000000;stroke-width:0.8;" x="47.855" xlink:href="#mdeed6be457" y="252.388387"/>
      </g>
     </g>
     <g id="text_11">
      <!-- 0.4 -->
      <g transform="translate(24.951875 256.187606)scale(0.1 -0.1)">
       <use xlink:href="#DejaVuSans-48"/>
       <use x="63.623047" xlink:href="#DejaVuSans-46"/>
       <use x="95.410156" xlink:href="#DejaVuSans-52"/>
      </g>
     </g>
    </g>
    <g id="ytick_4">
     <g id="line2d_21">
      <path clip-path="url(#p63898e0c13)" d="M 47.855 184.282581 
L 416.835 184.282581 
" style="fill:none;stroke:#777777;stroke-linecap:square;stroke-width:0.8;"/>
     </g>
     <g id="line2d_22">
      <g>
       <use style="stroke:#000000;stroke-width:0.8;" x="47.855" xlink:href="#mdeed6be457" y="184.282581"/>
      </g>
     </g>
     <g id="text_12">
      <!-- 0.6 -->
      <g transform="translate(24.951875 188.081799)scale(0.1 -0.1)">
       <use xlink:href="#DejaVuSans-48"/>
       <use x="63.623047" xlink:href="#DejaVuSans-46"/>
       <use x="95.410156" xlink:href="#DejaVuSans-54"/>
      </g>
     </g>
    </g>
    <g id="ytick_5">
     <g id="line2d_23">
      <path clip-path="url(#p63898e0c13)" d="M 47.855 116.176774 
L 416.835 116.176774 
" style="fill:none;stroke:#777777;stroke-linecap:square;stroke-width:0.8;"/>
     </g>
     <g id="line2d_24">
      <g>
       <use style="stroke:#000000;stroke-width:0.8;" x="47.855" xlink:href="#mdeed6be457" y="116.176774"/>
      </g>
     </g>
     <g id="text_13">
      <!-- 0.8 -->
      <defs>
       <path d="M 31.78125 34.625 
Q 24.75 34.625 20.71875 30.859375 
Q 16.703125 27.09375 16.703125 20.515625 
Q 16.703125 13.921875 20.71875 10.15625 
Q 24.75 6.390625 31.78125 6.390625 
Q 38.8125 6.390625 42.859375 10.171875 
Q 46.921875 13.96875 46.921875 20.515625 
Q 46.921875 27.09375 42.890625 30.859375 
Q 38.875 34.625 31.78125 34.625 
z
M 21.921875 38.8125 
Q 15.578125 40.375 12.03125 44.71875 
Q 8.5 49.078125 8.5 55.328125 
Q 8.5 64.0625 14.71875 69.140625 
Q 20.953125 74.21875 31.78125 74.21875 
Q 42.671875 74.21875 48.875 69.140625 
Q 55.078125 64.0625 55.078125 55.328125 
Q 55.078125 49.078125 51.53125 44.71875 
Q 48 40.375 41.703125 38.8125 
Q 48.828125 37.15625 52.796875 32.3125 
Q 56.78125 27.484375 56.78125 20.515625 
Q 56.78125 9.90625 50.3125 4.234375 
Q 43.84375 -1.421875 31.78125 -1.421875 
Q 19.734375 -1.421875 13.25 4.234375 
Q 6.78125 9.90625 6.78125 20.515625 
Q 6.78125 27.484375 10.78125 32.3125 
Q 14.796875 37.15625 21.921875 38.8125 
z
M 18.3125 54.390625 
Q 18.3125 48.734375 21.84375 45.5625 
Q 25.390625 42.390625 31.78125 42.390625 
Q 38.140625 42.390625 41.71875 45.5625 
Q 45.3125 48.734375 45.3125 54.390625 
Q 45.3125 60.0625 41.71875 63.234375 
Q 38.140625 66.40625 31.78125 66.40625 
Q 25.390625 66.40625 21.84375 63.234375 
Q 18.3125 60.0625 18.3125 54.390625 
z
" id="DejaVuSans-56"/>
      </defs>
      <g transform="translate(24.951875 119.975993)scale(0.1 -0.1)">
       <use xlink:href="#DejaVuSans-48"/>
       <use x="63.623047" xlink:href="#DejaVuSans-46"/>
       <use x="95.410156" xlink:href="#DejaVuSans-56"/>
      </g>
     </g>
    </g>
    <g id="ytick_6">
     <g id="line2d_25">
      <path clip-path="url(#p63898e0c13)" d="M 47.855 48.070968 
L 416.835 48.070968 
" style="fill:none;stroke:#777777;stroke-linecap:square;stroke-width:0.8;"/>
     </g>
     <g id="line2d_26">
      <g>
       <use style="stroke:#000000;stroke-width:0.8;" x="47.855" xlink:href="#mdeed6be457" y="48.070968"/>
      </g>
     </g>
     <g id="text_14">
      <!-- 1.0 -->
      <g transform="translate(24.951875 51.870186)scale(0.1 -0.1)">
       <use xlink:href="#DejaVuSans-49"/>
       <use x="63.623047" xlink:href="#DejaVuSans-46"/>
       <use x="95.410156" xlink:href="#DejaVuSans-48"/>
      </g>
     </g>
    </g>
    <g id="text_15">
     <!-- Amplitude -->
     <defs>
      <path d="M 34.1875 63.1875 
L 20.796875 26.90625 
L 47.609375 26.90625 
z
M 28.609375 72.90625 
L 39.796875 72.90625 
L 67.578125 0 
L 57.328125 0 
L 50.6875 18.703125 
L 17.828125 18.703125 
L 11.1875 0 
L 0.78125 0 
z
" id="DejaVuSans-65"/>
      <path d="M 9.421875 54.6875 
L 18.40625 54.6875 
L 18.40625 0 
L 9.421875 0 
z
M 9.421875 75.984375 
L 18.40625 75.984375 
L 18.40625 64.59375 
L 9.421875 64.59375 
z
" id="DejaVuSans-105"/>
      <path d="M 18.3125 70.21875 
L 18.3125 54.6875 
L 36.8125 54.6875 
L 36.8125 47.703125 
L 18.3125 47.703125 
L 18.3125 18.015625 
Q 18.3125 11.328125 20.140625 9.421875 
Q 21.96875 7.515625 27.59375 7.515625 
L 36.8125 7.515625 
L 36.8125 0 
L 27.59375 0 
Q 17.1875 0 13.234375 3.875 
Q 9.28125 7.765625 9.28125 18.015625 
L 9.28125 47.703125 
L 2.6875 47.703125 
L 2.6875 54.6875 
L 9.28125 54.6875 
L 9.28125 70.21875 
z
" id="DejaVuSans-116"/>
      <path d="M 8.5 21.578125 
L 8.5 54.6875 
L 17.484375 54.6875 
L 17.484375 21.921875 
Q 17.484375 14.15625 20.5 10.265625 
Q 23.53125 6.390625 29.59375 6.390625 
Q 36.859375 6.390625 41.078125 11.03125 
Q 45.3125 15.671875 45.3125 23.6875 
L 45.3125 54.6875 
L 54.296875 54.6875 
L 54.296875 0 
L 45.3125 0 
L 45.3125 8.40625 
Q 42.046875 3.421875 37.71875 1 
Q 33.40625 -1.421875 27.6875 -1.421875 
Q 18.265625 -1.421875 13.375 4.4375 
Q 8.5 10.296875 8.5 21.578125 
z
M 31.109375 56 
z
" id="DejaVuSans-117"/>
      <path d="M 45.40625 46.390625 
L 45.40625 75.984375 
L 54.390625 75.984375 
L 54.390625 0 
L 45.40625 0 
L 45.40625 8.203125 
Q 42.578125 3.328125 38.25 0.953125 
Q 33.9375 -1.421875 27.875 -1.421875 
Q 17.96875 -1.421875 11.734375 6.484375 
Q 5.515625 14.40625 5.515625 27.296875 
Q 5.515625 40.1875 11.734375 48.09375 
Q 17.96875 56 27.875 56 
Q 33.9375 56 38.25 53.625 
Q 42.578125 51.265625 45.40625 46.390625 
z
M 14.796875 27.296875 
Q 14.796875 17.390625 18.875 11.75 
Q 22.953125 6.109375 30.078125 6.109375 
Q 37.203125 6.109375 41.296875 11.75 
Q 45.40625 17.390625 45.40625 27.296875 
Q 45.40625 37.203125 41.296875 42.84375 
Q 37.203125 48.484375 30.078125 48.484375 
Q 22.953125 48.484375 18.875 42.84375 
Q 14.796875 37.203125 14.796875 27.296875 
z
" id="DejaVuSans-100"/>
     </defs>
     <g transform="translate(18.872187 238.282656)rotate(-90)scale(0.1 -0.1)">
      <use xlink:href="#DejaVuSans-65"/>
      <use x="68.408203" xlink:href="#DejaVuSans-109"/>
      <use x="165.820312" xlink:href="#DejaVuSans-112"/>
      <use x="229.296875" xlink:href="#DejaVuSans-108"/>
      <use x="257.080078" xlink:href="#DejaVuSans-105"/>
      <use x="284.863281" xlink:href="#DejaVuSans-116"/>
      <use x="324.072266" xlink:href="#DejaVuSans-117"/>
      <use x="387.451172" xlink:href="#DejaVuSans-100"/>
      <use x="450.927734" xlink:href="#DejaVuSans-101"/>
     </g>
    </g>
   </g>
   <g id="line2d_27">
    <path clip-path="url(#p63898e0c13)" d="M 47.855 388.6 
L 53.711825 377.789555 
L 59.568651 366.979109 
L 65.425476 356.168664 
L 71.282302 345.358218 
L 77.139127 334.547773 
L 82.995952 323.737327 
L 88.852778 312.926882 
L 94.709603 302.116436 
L 100.566429 291.305991 
L 106.423254 280.495545 
L 112.280079 269.6851 
L 118.136905 258.874654 
L 123.99373 248.064209 
L 129.850556 237.253763 
L 135.707381 226.443318 
L 141.564206 215.632873 
L 147.421032 204.822427 
L 153.277857 194.011982 
L 159.134683 183.201536 
L 164.991508 172.391091 
L 170.848333 161.580645 
L 176.705159 150.7702 
L 182.561984 139.959754 
L 188.41881 129.149309 
L 194.275635 118.338863 
L 200.13246 107.528418 
L 205.989286 96.717972 
L 211.846111 85.907527 
L 217.702937 75.097081 
L 223.559762 64.286636 
L 229.416587 53.47619 
L 235.273413 53.47619 
L 241.130238 64.286636 
L 246.987063 75.097081 
L 252.843889 85.907527 
L 258.700714 96.717972 
L 264.55754 107.528418 
L 270.414365 118.338863 
L 276.27119 129.149309 
L 282.128016 139.959754 
L 287.984841 150.7702 
L 293.841667 161.580645 
L 299.698492 172.391091 
L 305.555317 183.201536 
L 311.412143 194.011982 
L 317.268968 204.822427 
L 323.125794 215.632873 
L 328.982619 226.443318 
L 334.839444 237.253763 
L 340.69627 248.064209 
L 346.553095 258.874654 
L 352.409921 269.6851 
L 358.266746 280.495545 
L 364.123571 291.305991 
L 369.980397 302.116436 
L 375.837222 312.926882 
L 381.694048 323.737327 
L 387.550873 334.547773 
L 393.407698 345.358218 
L 399.264524 356.168664 
L 405.121349 366.979109 
L 410.978175 377.789555 
L 416.835 388.6 
" style="fill:none;stroke:#0072bd;stroke-linecap:square;stroke-width:1.4;"/>
    <defs>
     <path d="M 0 1.5 
C 0.397805 1.5 0.77937 1.341951 1.06066 1.06066 
C 1.341951 0.77937 1.5 0.397805 1.5 0 
C 1.5 -0.397805 1.341951 -0.77937 1.06066 -1.06066 
C 0.77937 -1.341951 0.397805 -1.5 0 -1.5 
C -0.397805 -1.5 -0.77937 -1.341951 -1.06066 -1.06066 
C -1.341951 -0.77937 -1.5 -0.397805 -1.5 0 
C -1.5 0.397805 -1.341951 0.77937 -1.06066 1.06066 
C -0.77937 1.341951 -0.397805 1.5 0 1.5 
z
" id="m08e9ec2d33" style="stroke:#0072bd;"/>
    </defs>
    <g clip-path="url(#p63898e0c13)">
     <use style="fill:#0072bd;stroke:#0072bd;" x="47.855" xlink:href="#m08e9ec2d33" y="388.6"/>
     <use style="fill:#0072bd;stroke:#0072bd;" x="53.711825" xlink:href="#m08e9ec2d33" y="377.789555"/>
     <use style="fill:#0072bd;stroke:#0072bd;" x="59.568651" xlink:href="#m08e9ec2d33" y="366.979109"/>
     <use style="fill:#0072bd;stroke:#0072bd;" x="65.425476" xlink:href="#m08e9ec2d33" y="356.168664"/>
     <use style="fill:#0072bd;stroke:#0072bd;" x="71.282302" xlink:href="#m08e9ec2d33" y="345.358218"/>
     <use style="fill:#0072bd;stroke:#0072bd;" x="77.139127" xlink:href="#m08e9ec2d33" y="334.547773"/>
     <use style="fill:#0072bd;stroke:#0072bd;" x="82.995952" xlink:href="#m08e9ec2d33" y="323.737327"/>
     <use style="fill:#0072bd;stroke:#0072bd;" x="88.852778" xlink:href="#m08e9ec2d33" y="312.926882"/>
     <use style="fill:#0072bd;stroke:#0072bd;" x="94.709603" xlink:href="#m08e9ec2d33" y="302.116436"/>
     <use style="fill:#0072bd;stroke:#0072bd;" x="100.566429" xlink:href="#m08e9ec2d33" y="291.305991"/>
     <use style="fill:#0072bd;stroke:#0072bd;" x="106.423254" xlink:href="#m08e9ec2d33" y="280.495545"/>
     <use style="fill:#0072bd;stroke:#0072bd;" x="112.280079" xlink:href="#m08e9ec2d33" y="269.6851"/>
     <use style="fill:#0072bd;stroke:#0072bd;" x="118.136905" xlink:href="#m08e9ec2d33" y="258.874654"/>
     <use style="fill:#0072bd;stroke:#0072bd;" x="123.99373" xlink:href="#m08e9ec2d33" y="248.064209"/>
     <use style="fill:#0072bd;stroke:#0072bd;" x="129.850556" xlink:href="#m08e9ec2d33" y="237.253763"/>
     <use style="fill:#0072bd;stroke:#0072bd;" x="135.707381" xlink:href="#m08e9ec2d33" y="226.443318"/>
     <use style="fill:#0072bd;stroke:#0072bd;" x="141.564206" xlink:href="#m08e9ec2d33" y="215.632873"/>
     <use style="fill:#0072bd;stroke:#0072bd;" x="147.421032" xlink:href="#m08e9ec2d33" y="204.822427"/>
     <use style="fill:#0072bd;stroke:#0072bd;" x="153.277857" xlink:href="#m08e9ec2d33" y="194.011982"/>
     <use style="fill:#0072bd;stroke:#0072bd;" x="159.134683" xlink:href="#m08e9ec2d33" y="183.201536"/>
     <use style="fill:#0072bd;stroke:#0072bd;" x="164.991508" xlink:href="#m08e9ec2d33" y="172.391091"/>
     <use style="fill:#0072bd;stroke:#0072bd;" x="170.848333" xlink:href="#m08e9ec2d33" y="161.580645"/>
     <use style="fill:#0072bd;stroke:#0072bd;" x="176.705159" xlink:href="#m08e9ec2d33" y="150.7702"/>
     <use style="fill:#0072bd;stroke:#0072bd;" x="182.561984" xlink:href="#m08e9ec2d33" y="139.959754"/>
     <use style="fill:#0072bd;stroke:#0072bd;" x="188.41881" xlink:href="#m08e9ec2d33" y="129.149309"/>
     <use style="fill:#0072bd;stroke:#0072bd;" x="194.275635" xlink:href="#m08e9ec2d33" y="118.338863"/>
     <use style="fill:#0072bd;stroke:#0072bd;" x="200.13246" xlink:href="#m08e9ec2d33" y="107.528418"/>
     <use style="fill:#0072bd;stroke:#0072bd;" x="205.989286" xlink:href="#m08e9ec2d33" y="96.717972"/>
     <use style="fill:#0072bd;stroke:#0072bd;" x="211.846111" xlink:href="#m08e9ec2d33" y="85.907527"/>
     <use style="fill:#0072bd;stroke:#0072bd;" x="217.702937" xlink:href="#m08e9ec2d33" y="75.097081"/>
     <use style="fill:#0072bd;stroke:#0072bd;" x="223.559762" xlink:href="#m08e9ec2d33" y="64.286636"/>
     <use style="fill:#0072bd;stroke:#0072bd;" x="229.416587" xlink:href="#m08e9ec2d33" y="53.47619"/>
     <use style="fill:#0072bd;stroke:#0072bd;" x="235.273413" xlink:href="#m08e9ec2d33" y="53.47619"/>
     <use style="fill:#0072bd;stroke:#0072bd;" x="241.130238" xlink:href="#m08e9ec2d33" y="64.286636"/>
     <use style="fill:#0072bd;stroke:#0072bd;" x="246.987063" xlink:href="#m08e9ec2d33" y="75.097081"/>
     <use style="fill:#0072bd;stroke:#0072bd;" x="252.843889" xlink:href="#m08e9ec2d33" y="85.907527"/>
     <use style="fill:#0072bd;stroke:#0072bd;" x="258.700714" xlink:href="#m08e9ec2d33" y="96.717972"/>
     <use style="fill:#0072bd;stroke:#0072bd;" x="264.55754" xlink:href="#m08e9ec2d33" y="107.528418"/>
     <use style="fill:#0072bd;stroke:#0072bd;" x="270.414365" xlink:href="#m08e9ec2d33" y="118.338863"/>
     <use style="fill:#0072bd;stroke:#0072bd;" x="276.27119" xlink:href="#m08e9ec2d33" y="129.149309"/>
     <use style="fill:#0072bd;stroke:#0072bd;" x="282.128016" xlink:href="#m08e9ec2d33" y="139.959754"/>
     <use style="fill:#0072bd;stroke:#0072bd;" x="287.984841" xlink:href="#m08e9ec2d33" y="150.7702"/>
     <use style="fill:#0072bd;stroke:#0072bd;" x="293.841667" xlink:href="#m08e9ec2d33" y="161.580645"/>
     <use style="fill:#0072bd;stroke:#0072bd;" x="299.698492" xlink:href="#m08e9ec2d33" y="172.391091"/>
     <use style="fill:#0072bd;stroke:#0072bd;" x="305.555317" xlink:href="#m08e9ec2d33" y="183.201536"/>
     <use style="fill:#0072bd;stroke:#0072bd;" x="311.412143" xlink:href="#m08e9ec2d33" y="194.011982"/>
     <use style="fill:#0072bd;stroke:#0072bd;" x="317.268968" xlink:href="#m08e9ec2d33" y="204.822427"/>
     <use style="fill:#0072bd;stroke:#0072bd;" x="323.125794" xlink:href="#m08e9ec2d33" y="215.632873"/>
     <use style="fill:#0072bd;stroke:#0072bd;" x="328.982619" xlink:href="#m08e9ec2d33" y="226.443318"/>
     <use style="fill:#0072bd;stroke:#0072bd;" x="334.839444" xlink:href="#m08e9ec2d33" y="237.253763"/>
     <use style="fill:#0072bd;stroke:#0072bd;" x="340.69627" xlink:href="#m08e9ec2d33" y="248.064209"/>
     <use style="fill:#0072bd;stroke:#0072bd;" x="346.553095" xlink:href="#m08e9ec2d33" y="258.874654"/>
     <use style="fill:#0072bd;stroke:#0072bd;" x="352.409921" xlink:href="#m08e9ec2d33" y="269.6851"/>
     <use style="fill:#0072bd;stroke:#0072bd;" x="358.266746" xlink:href="#m08e9ec2d33" y="280.495545"/>
     <use style="fill:#0072bd;stroke:#0072bd;" x="364.123571" xlink:href="#m08e9ec2d33" y="291.305991"/>
     <use style="fill:#0072bd;stroke:#0072bd;" x="369.980397" xlink:href="#m08e9ec2d33" y="302.116436"/>
     <use style="fill:#0072bd;stroke:#0072bd;" x="375.837222" xlink:href="#m08e9ec2d33" y="312.926882"/>
     <use style="fill:#0072bd;stroke:#0072bd;" x="381.694048" xlink:href="#m08e9ec2d33" y="323.737327"/>
     <use style="fill:#0072bd;stroke:#0072bd;" x="387.550873" xlink:href="#m08e9ec2d33" y="334.547773"/>
     <use style="fill:#0072bd;stroke:#0072bd;" x="393.407698" xlink:href="#m08e9ec2d33" y="345.358218"/>
     <use style="fill:#0072bd;stroke:#0072bd;" x="399.264524" xlink:href="#m08e9ec2d33" y="356.168664"/>
     <use style="fill:#0072bd;stroke:#0072bd;" x="405.121349" xlink:href="#m08e9ec2d33" y="366.979109"/>
     <use style="fill:#0072bd;stroke:#0072bd;" x="410.978175" xlink:href="#m08e9ec2d33" y="377.789555"/>
     <use style="fill:#0072bd;stroke:#0072bd;" x="416.835" xlink:href="#m08e9ec2d33" y="388.6"/>
    </g>
   </g>
   <g id="patch_3">
    <path d="M 47.855 388.6 
L 47.855 36.72 
" style="fill:none;stroke:#000000;stroke-linecap:square;stroke-linejoin:miter;stroke-width:0.8;"/>
   </g>
   <g id="patch_4">
    <path d="M 416.835 388.6 
L 416.835 36.72 
" style="fill:none;stroke:#000000;stroke-linecap:square;stroke-linejoin:miter;stroke-width:0.8;"/>
   </g>
   <g id="patch_5">
    <path d="M 47.855 388.6 
L 416.835 388.6 
" style="fill:none;stroke:#000000;stroke-linecap:square;stroke-linejoin:miter;stroke-width:0.8;"/>
   </g>
   <g id="patch_6">
    <path d="M 47.855 36.72 
L 416.835 36.72 
" style="fill:none;stroke:#000000;stroke-linecap:square;stroke-linejoin:miter;stroke-width:0.8;"/>
   </g>
  </g>
  <g id="axes_2">
   <g id="patch_7">
    <path d="M 476.255 388.6 
L 845.235 388.6 
L 845.235 36.72 
L 476.255 36.72 
z
" style="fill:#ffffff;"/>
   </g>
   <g id="matplotlib.axis_3">
    <g id="xtick_8">
     <g id="line2d_28">
      <path clip-path="url(#p64a8fa4541)" d="M 476.255 388.6 
L 476.255 36.72 
" style="fill:none;stroke:#777777;stroke-linecap:square;stroke-width:0.8;"/>
     </g>
     <g id="line2d_29">
      <g>
       <use style="stroke:#000000;stroke-width:0.8;" x="476.255" xlink:href="#m55447c0352" y="388.6"/>
      </g>
     </g>
     <g id="text_16">
      <!-- 0.0 -->
      <g transform="translate(468.303437 403.198438)scale(0.1 -0.1)">
       <use xlink:href="#DejaVuSans-48"/>
       <use x="63.623047" xlink:href="#DejaVuSans-46"/>
       <use x="95.410156" xlink:href="#DejaVuSans-48"/>
      </g>
     </g>
    </g>
    <g id="xtick_9">
     <g id="line2d_30">
      <path clip-path="url(#p64a8fa4541)" d="M 550.051 388.6 
L 550.051 36.72 
" style="fill:none;stroke:#777777;stroke-linecap:square;stroke-width:0.8;"/>
     </g>
     <g id="line2d_31">
      <g>
       <use style="stroke:#000000;stroke-width:0.8;" x="550.051" xlink:href="#m55447c0352" y="388.6"/>
      </g>
     </g>
     <g id="text_17">
      <!-- 0.2 -->
      <g transform="translate(542.099437 403.198438)scale(0.1 -0.1)">
       <use xlink:href="#DejaVuSans-48"/>
       <use x="63.623047" xlink:href="#DejaVuSans-46"/>
       <use x="95.410156" xlink:href="#DejaVuSans-50"/>
      </g>
     </g>
    </g>
    <g id="xtick_10">
     <g id="line2d_32">
      <path clip-path="url(#p64a8fa4541)" d="M 623.847 388.6 
L 623.847 36.72 
" style="fill:none;stroke:#777777;stroke-linecap:square;stroke-width:0.8;"/>
     </g>
     <g id="line2d_33">
      <g>
       <use style="stroke:#000000;stroke-width:0.8;" x="623.847" xlink:href="#m55447c0352" y="388.6"/>
      </g>
     </g>
     <g id="text_18">
      <!-- 0.4 -->
      <g transform="translate(615.895437 403.198438)scale(0.1 -0.1)">
       <use xlink:href="#DejaVuSans-48"/>
       <use x="63.623047" xlink:href="#DejaVuSans-46"/>
       <use x="95.410156" xlink:href="#DejaVuSans-52"/>
      </g>
     </g>
    </g>
    <g id="xtick_11">
     <g id="line2d_34">
      <path clip-path="url(#p64a8fa4541)" d="M 697.643 388.6 
L 697.643 36.72 
" style="fill:none;stroke:#777777;stroke-linecap:square;stroke-width:0.8;"/>
     </g>
     <g id="line2d_35">
      <g>
       <use style="stroke:#000000;stroke-width:0.8;" x="697.643" xlink:href="#m55447c0352" y="388.6"/>
      </g>
     </g>
     <g id="text_19">
      <!-- 0.6 -->
      <g transform="translate(689.691437 403.198438)scale(0.1 -0.1)">
       <use xlink:href="#DejaVuSans-48"/>
       <use x="63.623047" xlink:href="#DejaVuSans-46"/>
       <use x="95.410156" xlink:href="#DejaVuSans-54"/>
      </g>
     </g>
    </g>
    <g id="xtick_12">
     <g id="line2d_36">
      <path clip-path="url(#p64a8fa4541)" d="M 771.439 388.6 
L 771.439 36.72 
" style="fill:none;stroke:#777777;stroke-linecap:square;stroke-width:0.8;"/>
     </g>
     <g id="line2d_37">
      <g>
       <use style="stroke:#000000;stroke-width:0.8;" x="771.439" xlink:href="#m55447c0352" y="388.6"/>
      </g>
     </g>
     <g id="text_20">
      <!-- 0.8 -->
      <g transform="translate(763.487437 403.198438)scale(0.1 -0.1)">
       <use xlink:href="#DejaVuSans-48"/>
       <use x="63.623047" xlink:href="#DejaVuSans-46"/>
       <use x="95.410156" xlink:href="#DejaVuSans-56"/>
      </g>
     </g>
    </g>
    <g id="xtick_13">
     <g id="line2d_38">
      <path clip-path="url(#p64a8fa4541)" d="M 845.235 388.6 
L 845.235 36.72 
" style="fill:none;stroke:#777777;stroke-linecap:square;stroke-width:0.8;"/>
     </g>
     <g id="line2d_39">
      <g>
       <use style="stroke:#000000;stroke-width:0.8;" x="845.235" xlink:href="#m55447c0352" y="388.6"/>
      </g>
     </g>
     <g id="text_21">
      <!-- 1.0 -->
      <g transform="translate(837.283437 403.198438)scale(0.1 -0.1)">
       <use xlink:href="#DejaVuSans-49"/>
       <use x="63.623047" xlink:href="#DejaVuSans-46"/>
       <use x="95.410156" xlink:href="#DejaVuSans-48"/>
      </g>
     </g>
    </g>
    <g id="text_22">
     <!-- Normalized Frequency ($\times \pi$ rad/sample) -->
     <defs>
      <path d="M 9.8125 72.90625 
L 23.09375 72.90625 
L 55.421875 11.921875 
L 55.421875 72.90625 
L 64.984375 72.90625 
L 64.984375 0 
L 51.703125 0 
L 19.390625 60.984375 
L 19.390625 0 
L 9.8125 0 
z
" id="DejaVuSans-78"/>
      <path d="M 30.609375 48.390625 
Q 23.390625 48.390625 19.1875 42.75 
Q 14.984375 37.109375 14.984375 27.296875 
Q 14.984375 17.484375 19.15625 11.84375 
Q 23.34375 6.203125 30.609375 6.203125 
Q 37.796875 6.203125 41.984375 11.859375 
Q 46.1875 17.53125 46.1875 27.296875 
Q 46.1875 37.015625 41.984375 42.703125 
Q 37.796875 48.390625 30.609375 48.390625 
z
M 30.609375 56 
Q 42.328125 56 49.015625 48.375 
Q 55.71875 40.765625 55.71875 27.296875 
Q 55.71875 13.875 49.015625 6.21875 
Q 42.328125 -1.421875 30.609375 -1.421875 
Q 18.84375 -1.421875 12.171875 6.21875 
Q 5.515625 13.875 5.515625 27.296875 
Q 5.515625 40.765625 12.171875 48.375 
Q 18.84375 56 30.609375 56 
z
" id="DejaVuSans-111"/>
      <path d="M 41.109375 46.296875 
Q 39.59375 47.171875 37.8125 47.578125 
Q 36.03125 48 33.890625 48 
Q 26.265625 48 22.1875 43.046875 
Q 18.109375 38.09375 18.109375 28.8125 
L 18.109375 0 
L 9.078125 0 
L 9.078125 54.6875 
L 18.109375 54.6875 
L 18.109375 46.1875 
Q 20.953125 51.171875 25.484375 53.578125 
Q 30.03125 56 36.53125 56 
Q 37.453125 56 38.578125 55.875 
Q 39.703125 55.765625 41.0625 55.515625 
z
" id="DejaVuSans-114"/>
      <path d="M 5.515625 54.6875 
L 48.1875 54.6875 
L 48.1875 46.484375 
L 14.40625 7.171875 
L 48.1875 7.171875 
L 48.1875 0 
L 4.296875 0 
L 4.296875 8.203125 
L 38.09375 47.515625 
L 5.515625 47.515625 
z
" id="DejaVuSans-122"/>
      <path id="DejaVuSans-32"/>
      <path d="M 9.8125 72.90625 
L 51.703125 72.90625 
L 51.703125 64.59375 
L 19.671875 64.59375 
L 19.671875 43.109375 
L 48.578125 43.109375 
L 48.578125 34.8125 
L 19.671875 34.8125 
L 19.671875 0 
L 9.8125 0 
z
" id="DejaVuSans-70"/>
      <path d="M 14.796875 27.296875 
Q 14.796875 17.390625 18.875 11.75 
Q 22.953125 6.109375 30.078125 6.109375 
Q 37.203125 6.109375 41.296875 11.75 
Q 45.40625 17.390625 45.40625 27.296875 
Q 45.40625 37.203125 41.296875 42.84375 
Q 37.203125 48.484375 30.078125 48.484375 
Q 22.953125 48.484375 18.875 42.84375 
Q 14.796875 37.203125 14.796875 27.296875 
z
M 45.40625 8.203125 
Q 42.578125 3.328125 38.25 0.953125 
Q 33.9375 -1.421875 27.875 -1.421875 
Q 17.96875 -1.421875 11.734375 6.484375 
Q 5.515625 14.40625 5.515625 27.296875 
Q 5.515625 40.1875 11.734375 48.09375 
Q 17.96875 56 27.875 56 
Q 33.9375 56 38.25 53.625 
Q 42.578125 51.265625 45.40625 46.390625 
L 45.40625 54.6875 
L 54.390625 54.6875 
L 54.390625 -20.796875 
L 45.40625 -20.796875 
z
" id="DejaVuSans-113"/>
      <path d="M 54.890625 33.015625 
L 54.890625 0 
L 45.90625 0 
L 45.90625 32.71875 
Q 45.90625 40.484375 42.875 44.328125 
Q 39.84375 48.1875 33.796875 48.1875 
Q 26.515625 48.1875 22.3125 43.546875 
Q 18.109375 38.921875 18.109375 30.90625 
L 18.109375 0 
L 9.078125 0 
L 9.078125 54.6875 
L 18.109375 54.6875 
L 18.109375 46.1875 
Q 21.34375 51.125 25.703125 53.5625 
Q 30.078125 56 35.796875 56 
Q 45.21875 56 50.046875 50.171875 
Q 54.890625 44.34375 54.890625 33.015625 
z
" id="DejaVuSans-110"/>
      <path d="M 48.78125 52.59375 
L 48.78125 44.1875 
Q 44.96875 46.296875 41.140625 47.34375 
Q 37.3125 48.390625 33.40625 48.390625 
Q 24.65625 48.390625 19.8125 42.84375 
Q 14.984375 37.3125 14.984375 27.296875 
Q 14.984375 17.28125 19.8125 11.734375 
Q 24.65625 6.203125 33.40625 6.203125 
Q 37.3125 6.203125 41.140625 7.25 
Q 44.96875 8.296875 48.78125 10.40625 
L 48.78125 2.09375 
Q 45.015625 0.34375 40.984375 -0.53125 
Q 36.96875 -1.421875 32.421875 -1.421875 
Q 20.0625 -1.421875 12.78125 6.34375 
Q 5.515625 14.109375 5.515625 27.296875 
Q 5.515625 40.671875 12.859375 48.328125 
Q 20.21875 56 33.015625 56 
Q 37.15625 56 41.109375 55.140625 
Q 45.0625 54.296875 48.78125 52.59375 
z
" id="DejaVuSans-99"/>
      <path d="M 32.171875 -5.078125 
Q 28.375 -14.84375 24.75 -17.8125 
Q 21.140625 -20.796875 15.09375 -20.796875 
L 7.90625 -20.796875 
L 7.90625 -13.28125 
L 13.1875 -13.28125 
Q 16.890625 -13.28125 18.9375 -11.515625 
Q 21 -9.765625 23.484375 -3.21875 
L 25.09375 0.875 
L 2.984375 54.6875 
L 12.5 54.6875 
L 29.59375 11.921875 
L 46.6875 54.6875 
L 56.203125 54.6875 
z
" id="DejaVuSans-121"/>
      <path d="M 31 75.875 
Q 24.46875 64.65625 21.28125 53.65625 
Q 18.109375 42.671875 18.109375 31.390625 
Q 18.109375 20.125 21.3125 9.0625 
Q 24.515625 -2 31 -13.1875 
L 23.1875 -13.1875 
Q 15.875 -1.703125 12.234375 9.375 
Q 8.59375 20.453125 8.59375 31.390625 
Q 8.59375 42.28125 12.203125 53.3125 
Q 15.828125 64.359375 23.1875 75.875 
z
" id="DejaVuSans-40"/>
      <path d="M 70.125 53.71875 
L 47.796875 31.296875 
L 70.125 8.984375 
L 64.3125 3.078125 
L 41.890625 25.484375 
L 19.484375 3.078125 
L 13.71875 8.984375 
L 35.984375 31.296875 
L 13.71875 53.71875 
L 19.484375 59.625 
L 41.890625 37.203125 
L 64.3125 59.625 
z
" id="DejaVuSans-215"/>
      <path d="M 9.125 54.6875 
L 61.53125 54.6875 
L 59.765625 45.703125 
L 52.875 45.703125 
L 46.34375 12.109375 
Q 45.65625 8.59375 46.578125 7.03125 
Q 47.46875 5.515625 50.140625 5.515625 
Q 50.875 5.515625 51.953125 5.671875 
Q 53.078125 5.765625 53.421875 5.8125 
L 52.15625 -0.6875 
Q 50.34375 -1.3125 48.484375 -1.609375 
Q 46.578125 -1.90625 44.78125 -1.90625 
Q 38.921875 -1.90625 37.3125 1.265625 
Q 35.6875 4.5 37.359375 13.09375 
L 43.703125 45.703125 
L 23.53125 45.703125 
L 14.65625 0 
L 5.46875 0 
L 14.359375 45.703125 
L 7.375 45.703125 
z
" id="DejaVuSans-Oblique-960"/>
      <path d="M 25.390625 72.90625 
L 33.6875 72.90625 
L 8.296875 -9.28125 
L 0 -9.28125 
z
" id="DejaVuSans-47"/>
      <path d="M 8.015625 75.875 
L 15.828125 75.875 
Q 23.140625 64.359375 26.78125 53.3125 
Q 30.421875 42.28125 30.421875 31.390625 
Q 30.421875 20.453125 26.78125 9.375 
Q 23.140625 -1.703125 15.828125 -13.1875 
L 8.015625 -13.1875 
Q 14.5 -2 17.703125 9.0625 
Q 20.90625 20.125 20.90625 31.390625 
Q 20.90625 42.671875 17.703125 53.65625 
Q 14.5 64.65625 8.015625 75.875 
z
" id="DejaVuSans-41"/>
     </defs>
     <g transform="translate(561.945 416.878125)scale(0.1 -0.1)">
      <use transform="translate(0 0.015625)" xlink:href="#DejaVuSans-78"/>
      <use transform="translate(74.804688 0.015625)" xlink:href="#DejaVuSans-111"/>
      <use transform="translate(135.986328 0.015625)" xlink:href="#DejaVuSans-114"/>
      <use transform="translate(177.099609 0.015625)" xlink:href="#DejaVuSans-109"/>
      <use transform="translate(274.511719 0.015625)" xlink:href="#DejaVuSans-97"/>
      <use transform="translate(335.791016 0.015625)" xlink:href="#DejaVuSans-108"/>
      <use transform="translate(363.574219 0.015625)" xlink:href="#DejaVuSans-105"/>
      <use transform="translate(391.357422 0.015625)" xlink:href="#DejaVuSans-122"/>
      <use transform="translate(443.847656 0.015625)" xlink:href="#DejaVuSans-101"/>
      <use transform="translate(505.371094 0.015625)" xlink:href="#DejaVuSans-100"/>
      <use transform="translate(568.847656 0.015625)" xlink:href="#DejaVuSans-32"/>
      <use transform="translate(600.634766 0.015625)" xlink:href="#DejaVuSans-70"/>
      <use transform="translate(658.154297 0.015625)" xlink:href="#DejaVuSans-114"/>
      <use transform="translate(699.267578 0.015625)" xlink:href="#DejaVuSans-101"/>
      <use transform="translate(760.791016 0.015625)" xlink:href="#DejaVuSans-113"/>
      <use transform="translate(824.267578 0.015625)" xlink:href="#DejaVuSans-117"/>
      <use transform="translate(887.646484 0.015625)" xlink:href="#DejaVuSans-101"/>
      <use transform="translate(949.169922 0.015625)" xlink:href="#DejaVuSans-110"/>
      <use transform="translate(1012.548828 0.015625)" xlink:href="#DejaVuSans-99"/>
      <use transform="translate(1067.529297 0.015625)" xlink:href="#DejaVuSans-121"/>
      <use transform="translate(1126.708984 0.015625)" xlink:href="#DejaVuSans-32"/>
      <use transform="translate(1158.496094 0.015625)" xlink:href="#DejaVuSans-40"/>
      <use transform="translate(1197.509766 0.015625)" xlink:href="#DejaVuSans-215"/>
      <use transform="translate(1281.298828 0.015625)" xlink:href="#DejaVuSans-Oblique-960"/>
      <use transform="translate(1341.503906 0.015625)" xlink:href="#DejaVuSans-32"/>
      <use transform="translate(1373.291016 0.015625)" xlink:href="#DejaVuSans-114"/>
      <use transform="translate(1414.404297 0.015625)" xlink:href="#DejaVuSans-97"/>
      <use transform="translate(1475.683594 0.015625)" xlink:href="#DejaVuSans-100"/>
      <use transform="translate(1539.160156 0.015625)" xlink:href="#DejaVuSans-47"/>
      <use transform="translate(1572.851562 0.015625)" xlink:href="#DejaVuSans-115"/>
      <use transform="translate(1624.951172 0.015625)" xlink:href="#DejaVuSans-97"/>
      <use transform="translate(1686.230469 0.015625)" xlink:href="#DejaVuSans-109"/>
      <use transform="translate(1783.642578 0.015625)" xlink:href="#DejaVuSans-112"/>
      <use transform="translate(1847.119141 0.015625)" xlink:href="#DejaVuSans-108"/>
      <use transform="translate(1874.902344 0.015625)" xlink:href="#DejaVuSans-101"/>
      <use transform="translate(1936.425781 0.015625)" xlink:href="#DejaVuSans-41"/>
     </g>
    </g>
   </g>
   <g id="matplotlib.axis_4">
    <g id="ytick_7">
     <g id="line2d_40">
      <path clip-path="url(#p64a8fa4541)" d="M 476.255 372.605455 
L 845.235 372.605455 
" style="fill:none;stroke:#777777;stroke-linecap:square;stroke-width:0.8;"/>
     </g>
     <g id="line2d_41">
      <g>
       <use style="stroke:#000000;stroke-width:0.8;" x="476.255" xlink:href="#mdeed6be457" y="372.605455"/>
      </g>
     </g>
     <g id="text_23">
      <!-- −300 -->
      <defs>
       <path d="M 10.59375 35.5 
L 73.1875 35.5 
L 73.1875 27.203125 
L 10.59375 27.203125 
z
" id="DejaVuSans-8722"/>
      </defs>
      <g transform="translate(441.787812 376.404673)scale(0.1 -0.1)">
       <use xlink:href="#DejaVuSans-8722"/>
       <use x="83.789062" xlink:href="#DejaVuSans-51"/>
       <use x="147.412109" xlink:href="#DejaVuSans-48"/>
       <use x="211.035156" xlink:href="#DejaVuSans-48"/>
      </g>
     </g>
    </g>
    <g id="ytick_8">
     <g id="line2d_42">
      <path clip-path="url(#p64a8fa4541)" d="M 476.255 324.13185 
L 845.235 324.13185 
" style="fill:none;stroke:#777777;stroke-linecap:square;stroke-width:0.8;"/>
     </g>
     <g id="line2d_43">
      <g>
       <use style="stroke:#000000;stroke-width:0.8;" x="476.255" xlink:href="#mdeed6be457" y="324.13185"/>
      </g>
     </g>
     <g id="text_24">
      <!-- −250 -->
      <g transform="translate(441.787812 327.931069)scale(0.1 -0.1)">
       <use xlink:href="#DejaVuSans-8722"/>
       <use x="83.789062" xlink:href="#DejaVuSans-50"/>
       <use x="147.412109" xlink:href="#DejaVuSans-53"/>
       <use x="211.035156" xlink:href="#DejaVuSans-48"/>
      </g>
     </g>
    </g>
    <g id="ytick_9">
     <g id="line2d_44">
      <path clip-path="url(#p64a8fa4541)" d="M 476.255 275.658246 
L 845.235 275.658246 
" style="fill:none;stroke:#777777;stroke-linecap:square;stroke-width:0.8;"/>
     </g>
     <g id="line2d_45">
      <g>
       <use style="stroke:#000000;stroke-width:0.8;" x="476.255" xlink:href="#mdeed6be457" y="275.658246"/>
      </g>
     </g>
     <g id="text_25">
      <!-- −200 -->
      <g transform="translate(441.787812 279.457465)scale(0.1 -0.1)">
       <use xlink:href="#DejaVuSans-8722"/>
       <use x="83.789062" xlink:href="#DejaVuSans-50"/>
       <use x="147.412109" xlink:href="#DejaVuSans-48"/>
       <use x="211.035156" xlink:href="#DejaVuSans-48"/>
      </g>
     </g>
    </g>
    <g id="ytick_10">
     <g id="line2d_46">
      <path clip-path="url(#p64a8fa4541)" d="M 476.255 227.184642 
L 845.235 227.184642 
" style="fill:none;stroke:#777777;stroke-linecap:square;stroke-width:0.8;"/>
     </g>
     <g id="line2d_47">
      <g>
       <use style="stroke:#000000;stroke-width:0.8;" x="476.255" xlink:href="#mdeed6be457" y="227.184642"/>
      </g>
     </g>
     <g id="text_26">
      <!-- −150 -->
      <g transform="translate(441.787812 230.98386)scale(0.1 -0.1)">
       <use xlink:href="#DejaVuSans-8722"/>
       <use x="83.789062" xlink:href="#DejaVuSans-49"/>
       <use x="147.412109" xlink:href="#DejaVuSans-53"/>
       <use x="211.035156" xlink:href="#DejaVuSans-48"/>
      </g>
     </g>
    </g>
    <g id="ytick_11">
     <g id="line2d_48">
      <path clip-path="url(#p64a8fa4541)" d="M 476.255 178.711037 
L 845.235 178.711037 
" style="fill:none;stroke:#777777;stroke-linecap:square;stroke-width:0.8;"/>
     </g>
     <g id="line2d_49">
      <g>
       <use style="stroke:#000000;stroke-width:0.8;" x="476.255" xlink:href="#mdeed6be457" y="178.711037"/>
      </g>
     </g>
     <g id="text_27">
      <!-- −100 -->
      <g transform="translate(441.787812 182.510256)scale(0.1 -0.1)">
       <use xlink:href="#DejaVuSans-8722"/>
       <use x="83.789062" xlink:href="#DejaVuSans-49"/>
       <use x="147.412109" xlink:href="#DejaVuSans-48"/>
       <use x="211.035156" xlink:href="#DejaVuSans-48"/>
      </g>
     </g>
    </g>
    <g id="ytick_12">
     <g id="line2d_50">
      <path clip-path="url(#p64a8fa4541)" d="M 476.255 130.237433 
L 845.235 130.237433 
" style="fill:none;stroke:#777777;stroke-linecap:square;stroke-width:0.8;"/>
     </g>
     <g id="line2d_51">
      <g>
       <use style="stroke:#000000;stroke-width:0.8;" x="476.255" xlink:href="#mdeed6be457" y="130.237433"/>
      </g>
     </g>
     <g id="text_28">
      <!-- −50 -->
      <g transform="translate(448.150312 134.036652)scale(0.1 -0.1)">
       <use xlink:href="#DejaVuSans-8722"/>
       <use x="83.789062" xlink:href="#DejaVuSans-53"/>
       <use x="147.412109" xlink:href="#DejaVuSans-48"/>
      </g>
     </g>
    </g>
    <g id="ytick_13">
     <g id="line2d_52">
      <path clip-path="url(#p64a8fa4541)" d="M 476.255 81.763829 
L 845.235 81.763829 
" style="fill:none;stroke:#777777;stroke-linecap:square;stroke-width:0.8;"/>
     </g>
     <g id="line2d_53">
      <g>
       <use style="stroke:#000000;stroke-width:0.8;" x="476.255" xlink:href="#mdeed6be457" y="81.763829"/>
      </g>
     </g>
     <g id="text_29">
      <!-- 0 -->
      <g transform="translate(462.8925 85.563047)scale(0.1 -0.1)">
       <use xlink:href="#DejaVuSans-48"/>
      </g>
     </g>
    </g>
    <g id="text_30">
     <!-- Gain (dB) -->
     <defs>
      <path d="M 59.515625 10.40625 
L 59.515625 29.984375 
L 43.40625 29.984375 
L 43.40625 38.09375 
L 69.28125 38.09375 
L 69.28125 6.78125 
Q 63.578125 2.734375 56.6875 0.65625 
Q 49.8125 -1.421875 42 -1.421875 
Q 24.90625 -1.421875 15.25 8.5625 
Q 5.609375 18.5625 5.609375 36.375 
Q 5.609375 54.25 15.25 64.234375 
Q 24.90625 74.21875 42 74.21875 
Q 49.125 74.21875 55.546875 72.453125 
Q 61.96875 70.703125 67.390625 67.28125 
L 67.390625 56.78125 
Q 61.921875 61.421875 55.765625 63.765625 
Q 49.609375 66.109375 42.828125 66.109375 
Q 29.4375 66.109375 22.71875 58.640625 
Q 16.015625 51.171875 16.015625 36.375 
Q 16.015625 21.625 22.71875 14.15625 
Q 29.4375 6.6875 42.828125 6.6875 
Q 48.046875 6.6875 52.140625 7.59375 
Q 56.25 8.5 59.515625 10.40625 
z
" id="DejaVuSans-71"/>
      <path d="M 19.671875 34.8125 
L 19.671875 8.109375 
L 35.5 8.109375 
Q 43.453125 8.109375 47.28125 11.40625 
Q 51.125 14.703125 51.125 21.484375 
Q 51.125 28.328125 47.28125 31.5625 
Q 43.453125 34.8125 35.5 34.8125 
z
M 19.671875 64.796875 
L 19.671875 42.828125 
L 34.28125 42.828125 
Q 41.5 42.828125 45.03125 45.53125 
Q 48.578125 48.25 48.578125 53.8125 
Q 48.578125 59.328125 45.03125 62.0625 
Q 41.5 64.796875 34.28125 64.796875 
z
M 9.8125 72.90625 
L 35.015625 72.90625 
Q 46.296875 72.90625 52.390625 68.21875 
Q 58.5 63.53125 58.5 54.890625 
Q 58.5 48.1875 55.375 44.234375 
Q 52.25 40.28125 46.1875 39.3125 
Q 53.46875 37.75 57.5 32.78125 
Q 61.53125 27.828125 61.53125 20.40625 
Q 61.53125 10.640625 54.890625 5.3125 
Q 48.25 0 35.984375 0 
L 9.8125 0 
z
" id="DejaVuSans-66"/>
     </defs>
     <g transform="translate(435.708125 236.251406)rotate(-90)scale(0.1 -0.1)">
      <use xlink:href="#DejaVuSans-71"/>
      <use x="77.490234" xlink:href="#DejaVuSans-97"/>
      <use x="138.769531" xlink:href="#DejaVuSans-105"/>
      <use x="166.552734" xlink:href="#DejaVuSans-110"/>
      <use x="229.931641" xlink:href="#DejaVuSans-32"/>
      <use x="261.71875" xlink:href="#DejaVuSans-40"/>
      <use x="300.732422" xlink:href="#DejaVuSans-100"/>
      <use x="364.208984" xlink:href="#DejaVuSans-66"/>
      <use x="432.8125" xlink:href="#DejaVuSans-41"/>
     </g>
    </g>
   </g>
   <g id="line2d_54">
    <path clip-path="url(#p64a8fa4541)" d="M 476.255 52.714545 
L 477.696328 52.819457 
L 479.137656 53.13578 
L 480.578984 53.668396 
L 482.020312 54.425847 
L 483.461641 55.421022 
L 484.902969 56.672285 
L 486.344297 58.205287 
L 487.785625 60.055893 
L 489.226953 62.275098 
L 490.668281 64.937654 
L 492.109609 68.158403 
L 493.550937 72.126252 
L 494.992266 77.185304 
L 495.71293 80.324305 
L 496.433594 84.074122 
L 497.154258 88.739645 
L 497.874922 94.965118 
L 498.595586 104.616978 
L 499.31625 372.605455 
L 500.036914 140.502255 
L 500.757578 106.578416 
L 501.478242 97.779718 
L 502.198906 92.527939 
L 502.91957 88.875152 
L 503.640234 86.160946 
L 504.360898 84.076189 
L 505.081562 82.45071 
L 505.802227 81.181079 
L 506.522891 80.200166 
L 507.243555 79.462429 
L 507.964219 78.936087 
L 508.684883 78.598661 
L 509.405547 78.434313 
L 510.126211 78.4322 
L 510.846875 78.585461 
L 511.567539 78.890619 
L 512.288203 79.347285 
L 513.008867 79.958109 
L 513.729531 80.728978 
L 514.450195 81.66949 
L 515.891523 84.121963 
L 516.612187 85.682267 
L 517.332852 87.514902 
L 518.053516 89.678545 
L 518.77418 92.262575 
L 519.494844 95.412192 
L 520.215508 99.38777 
L 520.936172 104.73962 
L 521.656836 113.088776 
L 522.3775 372.605455 
L 523.098164 122.406984 
L 523.818828 140.456479 
L 524.539492 114.852605 
L 525.260156 106.685719 
L 525.98082 101.727008 
L 526.701484 98.201401 
L 527.422148 95.526738 
L 528.142812 93.431685 
L 528.863477 91.766288 
L 529.584141 90.438848 
L 530.304805 89.389494 
L 531.025469 88.577425 
L 531.746133 87.974118 
L 532.466797 87.559452 
L 533.187461 87.319392 
L 533.908125 87.244575 
L 534.628789 87.329457 
L 535.349453 87.571845 
L 536.070117 87.972716 
L 536.790781 88.536306 
L 537.511445 89.270471 
L 538.232109 90.187403 
L 538.952773 91.304844 
L 539.673437 92.648101 
L 540.394102 94.253416 
L 541.114766 96.173891 
L 541.83543 98.490593 
L 542.556094 101.335538 
L 543.276758 104.946591 
L 543.997422 109.831849 
L 544.718086 117.522115 
L 545.43875 372.605455 
L 546.159414 123.344724 
L 546.880078 123.132365 
L 547.600742 140.379965 
L 548.321406 119.418671 
L 549.04207 111.58468 
L 549.762734 106.867126 
L 550.483398 103.503424 
L 551.204062 100.939343 
L 551.924727 98.921318 
L 552.645391 97.31046 
L 553.366055 96.022223 
L 554.086719 95.001581 
L 554.807383 94.211171 
L 555.528047 93.625038 
L 556.248711 93.225081 
L 556.969375 92.998959 
L 557.690039 92.938831 
L 558.410703 93.040633 
L 559.131367 93.303725 
L 559.852031 93.730846 
L 560.572695 94.328367 
L 561.293359 95.106898 
L 562.014023 96.082379 
L 562.734687 97.27793 
L 563.455352 98.726987 
L 564.176016 100.478856 
L 564.89668 102.609204 
L 565.617344 105.241952 
L 566.338008 108.602086 
L 567.058672 113.175702 
L 567.779336 120.452392 
L 568.5 372.605455 
L 569.220664 124.651356 
L 569.941328 122.153748 
L 570.661992 124.22933 
L 571.382656 140.272376 
L 572.10332 122.566432 
L 572.823984 114.898281 
L 573.544648 110.353808 
L 574.265312 107.126714 
L 574.985977 104.669729 
L 575.706641 102.737415 
L 576.427305 101.196985 
L 577.147969 99.968299 
L 577.868633 98.999572 
L 578.589297 98.255918 
L 579.309961 97.713362 
L 580.030625 97.355488 
L 580.751289 97.171482 
L 581.471953 97.154994 
L 582.192617 97.303533 
L 582.913281 97.618239 
L 583.633945 98.104013 
L 584.354609 98.770006 
L 585.075273 99.630606 
L 585.795937 100.707162 
L 586.516602 102.03096 
L 587.237266 103.648545 
L 587.95793 105.631848 
L 588.678594 108.099476 
L 589.399258 111.268449 
L 590.119922 115.612205 
L 590.840586 122.598758 
L 591.56125 372.605455 
L 592.281914 125.830336 
L 593.002578 122.350446 
L 593.723242 122.233283 
L 594.443906 125.188945 
L 595.16457 140.13323 
L 595.885234 124.968305 
L 596.605898 117.36743 
L 597.326562 112.947794 
L 598.047227 109.832392 
L 598.767891 107.470688 
L 599.488555 105.620264 
L 600.209219 104.151621 
L 600.929883 102.98738 
L 601.650547 102.077998 
L 602.371211 101.390451 
L 603.091875 100.902381 
L 603.812539 100.598861 
L 604.533203 100.470548 
L 605.253867 100.512657 
L 605.974531 100.724472 
L 606.695195 101.109297 
L 607.415859 101.674816 
L 608.136523 102.433967 
L 608.857187 103.406556 
L 609.577852 104.622116 
L 610.298516 106.125064 
L 611.01918 107.984598 
L 611.739844 110.315635 
L 612.460508 113.329949 
L 613.181172 117.493129 
L 613.901836 124.260736 
L 614.6225 372.605455 
L 615.343164 126.836355 
L 616.063828 122.796902 
L 616.784492 121.725926 
L 617.505156 122.568679 
L 618.22582 125.969778 
L 618.946484 139.961889 
L 619.667148 126.909188 
L 620.387812 119.311132 
L 621.108477 114.982831 
L 621.829141 111.959674 
L 622.549805 109.682172 
L 623.270469 107.90799 
L 623.991133 106.509233 
L 624.711797 105.410263 
L 625.432461 104.563155 
L 626.153125 103.936372 
L 626.873789 103.508973 
L 627.594453 103.26746 
L 628.315117 103.204026 
L 629.035781 103.315648 
L 629.756445 103.603764 
L 630.477109 104.074459 
L 631.197773 104.739204 
L 631.918437 105.616356 
L 632.639102 106.733916 
L 633.359766 108.134555 
L 634.08043 109.885362 
L 634.801094 112.098548 
L 635.521758 114.982237 
L 636.242422 118.996837 
L 636.963086 125.59017 
L 637.68375 372.605455 
L 638.404414 127.682606 
L 639.125078 123.274881 
L 639.845742 121.657374 
L 640.566406 121.570351 
L 641.28707 122.931009 
L 642.007734 126.587595 
L 642.728398 139.757548 
L 643.449062 128.535295 
L 644.169727 120.893882 
L 644.890391 116.633082 
L 645.611055 113.687573 
L 646.331719 111.485358 
L 647.052383 109.782376 
L 647.773047 108.451281 
L 648.493711 107.417538 
L 649.214375 106.634458 
L 649.935039 106.071787 
L 650.655703 105.709936 
L 651.376367 105.536898 
L 652.097031 105.546601 
L 652.817695 105.738159 
L 653.538359 106.115781 
L 654.259023 106.689332 
L 654.979687 107.475702 
L 655.700352 108.501445 
L 656.421016 109.807704 
L 657.14168 111.459835 
L 657.862344 113.567952 
L 658.583008 116.337501 
L 659.303672 120.225277 
L 660.024336 126.673985 
L 660.745 367.767203 
L 661.465664 128.388807 
L 662.186328 123.715621 
L 662.906992 121.737 
L 663.627656 121.114369 
L 664.34832 121.566796 
L 665.068984 123.250159 
L 665.789648 127.063436 
L 666.510312 139.519212 
L 667.230977 129.931288 
L 667.951641 122.210701 
L 668.672305 117.999991 
L 669.392969 115.121268 
L 670.113633 112.98757 
L 670.834297 111.351927 
L 671.554961 110.086867 
L 672.275625 109.11856 
L 672.996289 108.401345 
L 673.716953 107.906183 
L 674.437617 107.614897 
L 675.158281 107.517168 
L 675.878945 107.609033 
L 676.599609 107.892357 
L 677.320273 108.37512 
L 678.040937 109.072602 
L 678.761602 110.009884 
L 679.482266 111.226666 
L 680.20293 112.78678 
L 680.923594 114.798616 
L 681.644258 117.465538 
L 682.364922 121.241688 
L 683.085586 127.566195 
L 683.80625 372.605455 
L 684.526914 128.972195 
L 685.247578 124.094989 
L 685.968242 121.855273 
L 686.688906 120.877531 
L 687.40957 120.804028 
L 688.130234 121.599078 
L 688.850898 123.502153 
L 689.571562 127.415115 
L 690.292227 139.245675 
L 691.733555 123.32092 
L 692.454219 119.147293 
L 693.174883 116.327349 
L 693.895547 114.257277 
L 694.616211 112.686392 
L 695.336875 111.48666 
L 696.057539 110.584739 
L 696.778203 109.935916 
L 697.498867 109.512425 
L 698.219531 109.2977 
L 698.940195 109.283481 
L 699.660859 109.468528 
L 700.381523 109.858456 
L 701.102187 110.466651 
L 701.822852 111.316575 
L 702.543516 112.446456 
L 703.26418 113.918682 
L 703.984844 115.840123 
L 704.705508 118.412431 
L 705.426172 122.087678 
L 706.146836 128.302363 
L 706.8675 372.605455 
L 707.588164 129.446354 
L 708.308828 124.404539 
L 709.029492 121.96365 
L 709.750156 120.728486 
L 710.47082 120.305154 
L 711.191484 120.583135 
L 711.912148 121.616626 
L 712.632812 123.67883 
L 713.353477 127.656347 
L 714.074141 138.935485 
L 714.794805 132.228456 
L 715.515469 124.263688 
L 716.236133 120.117293 
L 716.956797 117.350345 
L 717.677461 115.340637 
L 718.398125 113.833198 
L 719.118789 112.69917 
L 719.839453 111.865605 
L 720.560117 111.288797 
L 721.280781 110.942444 
L 722.001445 110.811958 
L 722.722109 110.891754 
L 723.442773 111.184313 
L 724.163437 111.700637 
L 724.884102 112.462282 
L 725.604766 113.505851 
L 726.32543 114.892256 
L 727.046094 116.726926 
L 727.766758 119.209995 
L 728.487422 122.791831 
L 729.208086 128.906881 
L 729.92875 372.605455 
L 730.649414 129.821599 
L 731.370078 124.641709 
L 732.090742 122.03815 
L 732.811406 120.604216 
L 733.53207 119.92668 
L 734.252734 119.859624 
L 734.973398 120.384324 
L 735.694062 121.594732 
L 736.414727 123.777771 
L 737.135391 127.797286 
L 737.856055 138.586909 
L 738.576719 133.190303 
L 739.297383 125.06587 
L 740.018047 120.939214 
L 740.738711 118.221296 
L 741.459375 116.270153 
L 742.180039 114.826115 
L 742.900703 113.759375 
L 743.621367 112.997419 
L 744.342031 112.49773 
L 745.062695 112.23584 
L 745.783359 112.199752 
L 746.504023 112.387554 
L 747.224687 112.80708 
L 747.945352 113.477487 
L 748.666016 114.433456 
L 749.38668 115.734269 
L 750.107344 117.483877 
L 750.828008 119.880972 
L 751.548672 123.374412 
L 752.269336 129.396943 
L 752.99 372.605455 
L 753.710664 130.105563 
L 754.431328 124.80604 
L 755.151992 122.06576 
L 755.872656 120.47079 
L 756.59332 119.596577 
L 757.313984 119.278214 
L 758.034648 119.462316 
L 758.755312 120.171762 
L 759.475977 121.520002 
L 760.196641 123.798459 
L 760.917305 127.845183 
L 761.637969 138.197876 
L 762.358633 134.054195 
L 763.079297 125.746395 
L 763.799961 121.63384 
L 764.520625 118.962549 
L 765.241289 117.069545 
L 765.961953 115.690187 
L 766.682617 114.693709 
L 767.403281 114.008203 
L 768.123945 113.592703 
L 768.844609 113.425186 
L 769.565273 113.497243 
L 770.285937 113.812263 
L 771.006602 114.386206 
L 771.727266 115.251333 
L 772.44793 116.464994 
L 773.168594 118.129501 
L 773.889258 120.442066 
L 774.609922 123.850104 
L 775.330586 129.784857 
L 776.05125 372.605455 
L 776.771914 130.303692 
L 777.492578 124.897576 
L 778.213242 122.038616 
L 778.933906 120.308059 
L 779.65457 119.274224 
L 780.375234 118.76105 
L 781.095898 118.6965 
L 781.816562 119.069514 
L 782.537227 119.924254 
L 783.257891 121.384217 
L 783.978555 123.740684 
L 784.699219 127.804915 
L 785.419883 137.765915 
L 786.140547 134.833778 
L 786.861211 126.318778 
L 787.581875 122.216237 
L 788.302539 119.590602 
L 789.023203 117.756701 
L 789.743867 116.444752 
L 790.464531 115.523164 
L 791.185195 114.92098 
L 791.905859 114.59939 
L 792.626523 114.539806 
L 793.347187 114.739038 
L 794.067852 115.208547 
L 794.788516 115.977367 
L 795.50918 117.100407 
L 796.229844 118.678035 
L 796.950508 120.905819 
L 797.671172 124.229687 
L 798.391836 130.079442 
L 799.1125 372.605455 
L 799.833164 130.419605 
L 800.553828 124.916122 
L 801.274492 121.951229 
L 801.995156 120.102779 
L 802.71582 118.934323 
L 803.436484 118.26277 
L 804.157148 118.005098 
L 804.877812 118.131925 
L 805.598477 118.654176 
L 806.319141 119.627788 
L 807.039805 121.181438 
L 807.760469 123.603792 
L 808.481133 127.679342 
L 809.201797 137.288064 
L 809.922461 135.539535 
L 810.643125 126.792663 
L 811.363789 122.697438 
L 812.084453 120.117902 
L 812.805117 118.345555 
L 813.525781 117.105441 
L 814.246445 116.265441 
L 814.967109 115.756139 
L 815.687773 115.541866 
L 816.408437 115.609099 
L 817.129102 115.962631 
L 817.849766 116.626947 
L 818.57043 117.653696 
L 819.291094 119.140786 
L 820.011758 121.281825 
L 820.732422 124.521094 
L 821.453086 130.286903 
L 822.17375 372.605455 
L 822.894414 130.45532 
L 823.615078 124.860864 
L 824.335742 121.799042 
L 825.056406 119.845186 
L 825.77707 118.559487 
L 826.497734 117.754143 
L 827.218398 117.339195 
L 827.939062 117.274443 
L 828.659727 117.55281 
L 829.380391 118.197682 
L 830.101055 119.271851 
L 830.821719 120.906483 
L 831.542383 123.38628 
L 832.263047 127.469519 
L 832.983711 136.76076 
L 833.704375 136.17968 
L 834.425039 127.174774 
L 835.145703 123.085513 
L 835.866367 120.554018 
L 836.587031 118.847394 
L 837.307695 117.685633 
L 838.028359 116.936631 
L 838.749023 116.533481 
L 839.469687 116.44528 
L 840.190352 116.66633 
L 840.911016 117.214358 
L 841.63168 118.136413 
L 842.352344 119.527107 
L 843.073008 121.577571 
L 843.793672 124.730114 
L 844.514336 130.411387 
L 844.514336 130.411387 
" style="fill:none;stroke:#0072bd;stroke-linecap:square;stroke-width:1.4;"/>
   </g>
   <g id="patch_8">
    <path d="M 476.255 388.6 
L 476.255 36.72 
" style="fill:none;stroke:#000000;stroke-linecap:square;stroke-linejoin:miter;stroke-width:0.8;"/>
   </g>
   <g id="patch_9">
    <path d="M 845.235 388.6 
L 845.235 36.72 
" style="fill:none;stroke:#000000;stroke-linecap:square;stroke-linejoin:miter;stroke-width:0.8;"/>
   </g>
   <g id="patch_10">
    <path d="M 476.255 388.6 
L 845.235 388.6 
" style="fill:none;stroke:#000000;stroke-linecap:square;stroke-linejoin:miter;stroke-width:0.8;"/>
   </g>
   <g id="patch_11">
    <path d="M 476.255 36.72 
L 845.235 36.72 
" style="fill:none;stroke:#000000;stroke-linecap:square;stroke-linejoin:miter;stroke-width:0.8;"/>
   </g>
  </g>
  <g id="text_31">
   <!-- Bartlett window -->
   <defs>
    <path d="M 4.203125 54.6875 
L 13.1875 54.6875 
L 24.421875 12.015625 
L 35.59375 54.6875 
L 46.1875 54.6875 
L 57.421875 12.015625 
L 68.609375 54.6875 
L 77.59375 54.6875 
L 63.28125 0 
L 52.6875 0 
L 40.921875 44.828125 
L 29.109375 0 
L 18.5 0 
z
" id="DejaVuSans-119"/>
   </defs>
   <g transform="translate(368.8725 20.7975)scale(0.16 -0.16)">
    <use xlink:href="#DejaVuSans-66"/>
    <use x="68.603516" xlink:href="#DejaVuSans-97"/>
    <use x="129.882812" xlink:href="#DejaVuSans-114"/>
    <use x="170.996094" xlink:href="#DejaVuSans-116"/>
    <use x="210.205078" xlink:href="#DejaVuSans-108"/>
    <use x="237.988281" xlink:href="#DejaVuSans-101"/>
    <use x="299.511719" xlink:href="#DejaVuSans-116"/>
    <use x="338.720703" xlink:href="#DejaVuSans-116"/>
    <use x="377.929688" xlink:href="#DejaVuSans-32"/>
    <use x="409.716797" xlink:href="#DejaVuSans-119"/>
    <use x="491.503906" xlink:href="#DejaVuSans-105"/>
    <use x="519.287109" xlink:href="#DejaVuSans-110"/>
    <use x="582.666016" xlink:href="#DejaVuSans-100"/>
    <use x="646.142578" xlink:href="#DejaVuSans-111"/>
    <use x="707.324219" xlink:href="#DejaVuSans-119"/>
   </g>
  </g>
 </g>
 <defs>
  <clipPath id="p63898e0c13">
   <rect height="351.88" width="368.98" x="47.855" y="36.72"/>
  </clipPath>
  <clipPath id="p64a8fa4541">
   <rect height="351.88" width="368.98" x="476.255" y="36.72"/>
  </clipPath>
 </defs>
</svg>
