<?xml version="1.0" encoding="utf-8" standalone="no"?>
<!DOCTYPE svg PUBLIC "-//W3C//DTD SVG 1.1//EN"
  "http://www.w3.org/Graphics/SVG/1.1/DTD/svg11.dtd">
<!-- Created with matplotlib (https://matplotlib.org/) -->
<svg height="432pt" version="1.1" viewBox="0 0 864 432" width="864pt" xmlns="http://www.w3.org/2000/svg" xmlns:xlink="http://www.w3.org/1999/xlink">
 <defs>
  <style type="text/css">
*{stroke-linecap:butt;stroke-linejoin:round;}
  </style>
 </defs>
 <g id="figure_1">
  <g id="patch_1">
   <path d="M 0 432 
L 864 432 
L 864 0 
L 0 0 
z
" style="fill:#ffffff;"/>
  </g>
  <g id="axes_1">
   <g id="patch_2">
    <path d="M 38.27 387.16 
L 410.85 387.16 
L 410.85 39.24 
L 38.27 39.24 
z
" style="fill:#ffffff;"/>
   </g>
   <g id="matplotlib.axis_1">
    <g id="xtick_1">
     <g id="line2d_1">
      <path clip-path="url(#pf343411e61)" d="M 38.27 387.16 
L 38.27 39.24 
" style="fill:none;stroke:#777777;stroke-linecap:square;stroke-width:0.8;"/>
     </g>
     <g id="line2d_2">
      <defs>
       <path d="M 0 0 
L 0 3.5 
" id="m8074d2e5c9" style="stroke:#000000;stroke-width:0.8;"/>
      </defs>
      <g>
       <use style="stroke:#000000;stroke-width:0.8;" x="38.27" xlink:href="#m8074d2e5c9" y="387.16"/>
      </g>
     </g>
     <g id="text_1">
      <!-- 0 -->
      <defs>
       <path d="M 31.78125 66.40625 
Q 24.171875 66.40625 20.328125 58.90625 
Q 16.5 51.421875 16.5 36.375 
Q 16.5 21.390625 20.328125 13.890625 
Q 24.171875 6.390625 31.78125 6.390625 
Q 39.453125 6.390625 43.28125 13.890625 
Q 47.125 21.390625 47.125 36.375 
Q 47.125 51.421875 43.28125 58.90625 
Q 39.453125 66.40625 31.78125 66.40625 
z
M 31.78125 74.21875 
Q 44.046875 74.21875 50.515625 64.515625 
Q 56.984375 54.828125 56.984375 36.375 
Q 56.984375 17.96875 50.515625 8.265625 
Q 44.046875 -1.421875 31.78125 -1.421875 
Q 19.53125 -1.421875 13.0625 8.265625 
Q 6.59375 17.96875 6.59375 36.375 
Q 6.59375 54.828125 13.0625 64.515625 
Q 19.53125 74.21875 31.78125 74.21875 
z
" id="DejaVuSans-48"/>
      </defs>
      <g transform="translate(35.08875 401.758438)scale(0.1 -0.1)">
       <use xlink:href="#DejaVuSans-48"/>
      </g>
     </g>
    </g>
    <g id="xtick_2">
     <g id="line2d_3">
      <path clip-path="url(#pf343411e61)" d="M 97.409683 387.16 
L 97.409683 39.24 
" style="fill:none;stroke:#777777;stroke-linecap:square;stroke-width:0.8;"/>
     </g>
     <g id="line2d_4">
      <g>
       <use style="stroke:#000000;stroke-width:0.8;" x="97.409683" xlink:href="#m8074d2e5c9" y="387.16"/>
      </g>
     </g>
     <g id="text_2">
      <!-- 10 -->
      <defs>
       <path d="M 12.40625 8.296875 
L 28.515625 8.296875 
L 28.515625 63.921875 
L 10.984375 60.40625 
L 10.984375 69.390625 
L 28.421875 72.90625 
L 38.28125 72.90625 
L 38.28125 8.296875 
L 54.390625 8.296875 
L 54.390625 0 
L 12.40625 0 
z
" id="DejaVuSans-49"/>
      </defs>
      <g transform="translate(91.047183 401.758438)scale(0.1 -0.1)">
       <use xlink:href="#DejaVuSans-49"/>
       <use x="63.623047" xlink:href="#DejaVuSans-48"/>
      </g>
     </g>
    </g>
    <g id="xtick_3">
     <g id="line2d_5">
      <path clip-path="url(#pf343411e61)" d="M 156.549365 387.16 
L 156.549365 39.24 
" style="fill:none;stroke:#777777;stroke-linecap:square;stroke-width:0.8;"/>
     </g>
     <g id="line2d_6">
      <g>
       <use style="stroke:#000000;stroke-width:0.8;" x="156.549365" xlink:href="#m8074d2e5c9" y="387.16"/>
      </g>
     </g>
     <g id="text_3">
      <!-- 20 -->
      <defs>
       <path d="M 19.1875 8.296875 
L 53.609375 8.296875 
L 53.609375 0 
L 7.328125 0 
L 7.328125 8.296875 
Q 12.9375 14.109375 22.625 23.890625 
Q 32.328125 33.6875 34.8125 36.53125 
Q 39.546875 41.84375 41.421875 45.53125 
Q 43.3125 49.21875 43.3125 52.78125 
Q 43.3125 58.59375 39.234375 62.25 
Q 35.15625 65.921875 28.609375 65.921875 
Q 23.96875 65.921875 18.8125 64.3125 
Q 13.671875 62.703125 7.8125 59.421875 
L 7.8125 69.390625 
Q 13.765625 71.78125 18.9375 73 
Q 24.125 74.21875 28.421875 74.21875 
Q 39.75 74.21875 46.484375 68.546875 
Q 53.21875 62.890625 53.21875 53.421875 
Q 53.21875 48.921875 51.53125 44.890625 
Q 49.859375 40.875 45.40625 35.40625 
Q 44.1875 33.984375 37.640625 27.21875 
Q 31.109375 20.453125 19.1875 8.296875 
z
" id="DejaVuSans-50"/>
      </defs>
      <g transform="translate(150.186865 401.758438)scale(0.1 -0.1)">
       <use xlink:href="#DejaVuSans-50"/>
       <use x="63.623047" xlink:href="#DejaVuSans-48"/>
      </g>
     </g>
    </g>
    <g id="xtick_4">
     <g id="line2d_7">
      <path clip-path="url(#pf343411e61)" d="M 215.689048 387.16 
L 215.689048 39.24 
" style="fill:none;stroke:#777777;stroke-linecap:square;stroke-width:0.8;"/>
     </g>
     <g id="line2d_8">
      <g>
       <use style="stroke:#000000;stroke-width:0.8;" x="215.689048" xlink:href="#m8074d2e5c9" y="387.16"/>
      </g>
     </g>
     <g id="text_4">
      <!-- 30 -->
      <defs>
       <path d="M 40.578125 39.3125 
Q 47.65625 37.796875 51.625 33 
Q 55.609375 28.21875 55.609375 21.1875 
Q 55.609375 10.40625 48.1875 4.484375 
Q 40.765625 -1.421875 27.09375 -1.421875 
Q 22.515625 -1.421875 17.65625 -0.515625 
Q 12.796875 0.390625 7.625 2.203125 
L 7.625 11.71875 
Q 11.71875 9.328125 16.59375 8.109375 
Q 21.484375 6.890625 26.8125 6.890625 
Q 36.078125 6.890625 40.9375 10.546875 
Q 45.796875 14.203125 45.796875 21.1875 
Q 45.796875 27.640625 41.28125 31.265625 
Q 36.765625 34.90625 28.71875 34.90625 
L 20.21875 34.90625 
L 20.21875 43.015625 
L 29.109375 43.015625 
Q 36.375 43.015625 40.234375 45.921875 
Q 44.09375 48.828125 44.09375 54.296875 
Q 44.09375 59.90625 40.109375 62.90625 
Q 36.140625 65.921875 28.71875 65.921875 
Q 24.65625 65.921875 20.015625 65.03125 
Q 15.375 64.15625 9.8125 62.3125 
L 9.8125 71.09375 
Q 15.4375 72.65625 20.34375 73.4375 
Q 25.25 74.21875 29.59375 74.21875 
Q 40.828125 74.21875 47.359375 69.109375 
Q 53.90625 64.015625 53.90625 55.328125 
Q 53.90625 49.265625 50.4375 45.09375 
Q 46.96875 40.921875 40.578125 39.3125 
z
" id="DejaVuSans-51"/>
      </defs>
      <g transform="translate(209.326548 401.758438)scale(0.1 -0.1)">
       <use xlink:href="#DejaVuSans-51"/>
       <use x="63.623047" xlink:href="#DejaVuSans-48"/>
      </g>
     </g>
    </g>
    <g id="xtick_5">
     <g id="line2d_9">
      <path clip-path="url(#pf343411e61)" d="M 274.82873 387.16 
L 274.82873 39.24 
" style="fill:none;stroke:#777777;stroke-linecap:square;stroke-width:0.8;"/>
     </g>
     <g id="line2d_10">
      <g>
       <use style="stroke:#000000;stroke-width:0.8;" x="274.82873" xlink:href="#m8074d2e5c9" y="387.16"/>
      </g>
     </g>
     <g id="text_5">
      <!-- 40 -->
      <defs>
       <path d="M 37.796875 64.3125 
L 12.890625 25.390625 
L 37.796875 25.390625 
z
M 35.203125 72.90625 
L 47.609375 72.90625 
L 47.609375 25.390625 
L 58.015625 25.390625 
L 58.015625 17.1875 
L 47.609375 17.1875 
L 47.609375 0 
L 37.796875 0 
L 37.796875 17.1875 
L 4.890625 17.1875 
L 4.890625 26.703125 
z
" id="DejaVuSans-52"/>
      </defs>
      <g transform="translate(268.46623 401.758438)scale(0.1 -0.1)">
       <use xlink:href="#DejaVuSans-52"/>
       <use x="63.623047" xlink:href="#DejaVuSans-48"/>
      </g>
     </g>
    </g>
    <g id="xtick_6">
     <g id="line2d_11">
      <path clip-path="url(#pf343411e61)" d="M 333.968413 387.16 
L 333.968413 39.24 
" style="fill:none;stroke:#777777;stroke-linecap:square;stroke-width:0.8;"/>
     </g>
     <g id="line2d_12">
      <g>
       <use style="stroke:#000000;stroke-width:0.8;" x="333.968413" xlink:href="#m8074d2e5c9" y="387.16"/>
      </g>
     </g>
     <g id="text_6">
      <!-- 50 -->
      <defs>
       <path d="M 10.796875 72.90625 
L 49.515625 72.90625 
L 49.515625 64.59375 
L 19.828125 64.59375 
L 19.828125 46.734375 
Q 21.96875 47.46875 24.109375 47.828125 
Q 26.265625 48.1875 28.421875 48.1875 
Q 40.625 48.1875 47.75 41.5 
Q 54.890625 34.8125 54.890625 23.390625 
Q 54.890625 11.625 47.5625 5.09375 
Q 40.234375 -1.421875 26.90625 -1.421875 
Q 22.3125 -1.421875 17.546875 -0.640625 
Q 12.796875 0.140625 7.71875 1.703125 
L 7.71875 11.625 
Q 12.109375 9.234375 16.796875 8.0625 
Q 21.484375 6.890625 26.703125 6.890625 
Q 35.15625 6.890625 40.078125 11.328125 
Q 45.015625 15.765625 45.015625 23.390625 
Q 45.015625 31 40.078125 35.4375 
Q 35.15625 39.890625 26.703125 39.890625 
Q 22.75 39.890625 18.8125 39.015625 
Q 14.890625 38.140625 10.796875 36.28125 
z
" id="DejaVuSans-53"/>
      </defs>
      <g transform="translate(327.605913 401.758438)scale(0.1 -0.1)">
       <use xlink:href="#DejaVuSans-53"/>
       <use x="63.623047" xlink:href="#DejaVuSans-48"/>
      </g>
     </g>
    </g>
    <g id="xtick_7">
     <g id="line2d_13">
      <path clip-path="url(#pf343411e61)" d="M 393.108095 387.16 
L 393.108095 39.24 
" style="fill:none;stroke:#777777;stroke-linecap:square;stroke-width:0.8;"/>
     </g>
     <g id="line2d_14">
      <g>
       <use style="stroke:#000000;stroke-width:0.8;" x="393.108095" xlink:href="#m8074d2e5c9" y="387.16"/>
      </g>
     </g>
     <g id="text_7">
      <!-- 60 -->
      <defs>
       <path d="M 33.015625 40.375 
Q 26.375 40.375 22.484375 35.828125 
Q 18.609375 31.296875 18.609375 23.390625 
Q 18.609375 15.53125 22.484375 10.953125 
Q 26.375 6.390625 33.015625 6.390625 
Q 39.65625 6.390625 43.53125 10.953125 
Q 47.40625 15.53125 47.40625 23.390625 
Q 47.40625 31.296875 43.53125 35.828125 
Q 39.65625 40.375 33.015625 40.375 
z
M 52.59375 71.296875 
L 52.59375 62.3125 
Q 48.875 64.0625 45.09375 64.984375 
Q 41.3125 65.921875 37.59375 65.921875 
Q 27.828125 65.921875 22.671875 59.328125 
Q 17.53125 52.734375 16.796875 39.40625 
Q 19.671875 43.65625 24.015625 45.921875 
Q 28.375 48.1875 33.59375 48.1875 
Q 44.578125 48.1875 50.953125 41.515625 
Q 57.328125 34.859375 57.328125 23.390625 
Q 57.328125 12.15625 50.6875 5.359375 
Q 44.046875 -1.421875 33.015625 -1.421875 
Q 20.359375 -1.421875 13.671875 8.265625 
Q 6.984375 17.96875 6.984375 36.375 
Q 6.984375 53.65625 15.1875 63.9375 
Q 23.390625 74.21875 37.203125 74.21875 
Q 40.921875 74.21875 44.703125 73.484375 
Q 48.484375 72.75 52.59375 71.296875 
z
" id="DejaVuSans-54"/>
      </defs>
      <g transform="translate(386.745595 401.758438)scale(0.1 -0.1)">
       <use xlink:href="#DejaVuSans-54"/>
       <use x="63.623047" xlink:href="#DejaVuSans-48"/>
      </g>
     </g>
    </g>
    <g id="text_8">
     <!-- Samples -->
     <defs>
      <path d="M 53.515625 70.515625 
L 53.515625 60.890625 
Q 47.90625 63.578125 42.921875 64.890625 
Q 37.9375 66.21875 33.296875 66.21875 
Q 25.25 66.21875 20.875 63.09375 
Q 16.5 59.96875 16.5 54.203125 
Q 16.5 49.359375 19.40625 46.890625 
Q 22.3125 44.4375 30.421875 42.921875 
L 36.375 41.703125 
Q 47.40625 39.59375 52.65625 34.296875 
Q 57.90625 29 57.90625 20.125 
Q 57.90625 9.515625 50.796875 4.046875 
Q 43.703125 -1.421875 29.984375 -1.421875 
Q 24.8125 -1.421875 18.96875 -0.25 
Q 13.140625 0.921875 6.890625 3.21875 
L 6.890625 13.375 
Q 12.890625 10.015625 18.65625 8.296875 
Q 24.421875 6.59375 29.984375 6.59375 
Q 38.421875 6.59375 43.015625 9.90625 
Q 47.609375 13.234375 47.609375 19.390625 
Q 47.609375 24.75 44.3125 27.78125 
Q 41.015625 30.8125 33.5 32.328125 
L 27.484375 33.5 
Q 16.453125 35.6875 11.515625 40.375 
Q 6.59375 45.0625 6.59375 53.421875 
Q 6.59375 63.09375 13.40625 68.65625 
Q 20.21875 74.21875 32.171875 74.21875 
Q 37.3125 74.21875 42.625 73.28125 
Q 47.953125 72.359375 53.515625 70.515625 
z
" id="DejaVuSans-83"/>
      <path d="M 34.28125 27.484375 
Q 23.390625 27.484375 19.1875 25 
Q 14.984375 22.515625 14.984375 16.5 
Q 14.984375 11.71875 18.140625 8.90625 
Q 21.296875 6.109375 26.703125 6.109375 
Q 34.1875 6.109375 38.703125 11.40625 
Q 43.21875 16.703125 43.21875 25.484375 
L 43.21875 27.484375 
z
M 52.203125 31.203125 
L 52.203125 0 
L 43.21875 0 
L 43.21875 8.296875 
Q 40.140625 3.328125 35.546875 0.953125 
Q 30.953125 -1.421875 24.3125 -1.421875 
Q 15.921875 -1.421875 10.953125 3.296875 
Q 6 8.015625 6 15.921875 
Q 6 25.140625 12.171875 29.828125 
Q 18.359375 34.515625 30.609375 34.515625 
L 43.21875 34.515625 
L 43.21875 35.40625 
Q 43.21875 41.609375 39.140625 45 
Q 35.0625 48.390625 27.6875 48.390625 
Q 23 48.390625 18.546875 47.265625 
Q 14.109375 46.140625 10.015625 43.890625 
L 10.015625 52.203125 
Q 14.9375 54.109375 19.578125 55.046875 
Q 24.21875 56 28.609375 56 
Q 40.484375 56 46.34375 49.84375 
Q 52.203125 43.703125 52.203125 31.203125 
z
" id="DejaVuSans-97"/>
      <path d="M 52 44.1875 
Q 55.375 50.25 60.0625 53.125 
Q 64.75 56 71.09375 56 
Q 79.640625 56 84.28125 50.015625 
Q 88.921875 44.046875 88.921875 33.015625 
L 88.921875 0 
L 79.890625 0 
L 79.890625 32.71875 
Q 79.890625 40.578125 77.09375 44.375 
Q 74.3125 48.1875 68.609375 48.1875 
Q 61.625 48.1875 57.5625 43.546875 
Q 53.515625 38.921875 53.515625 30.90625 
L 53.515625 0 
L 44.484375 0 
L 44.484375 32.71875 
Q 44.484375 40.625 41.703125 44.40625 
Q 38.921875 48.1875 33.109375 48.1875 
Q 26.21875 48.1875 22.15625 43.53125 
Q 18.109375 38.875 18.109375 30.90625 
L 18.109375 0 
L 9.078125 0 
L 9.078125 54.6875 
L 18.109375 54.6875 
L 18.109375 46.1875 
Q 21.1875 51.21875 25.484375 53.609375 
Q 29.78125 56 35.6875 56 
Q 41.65625 56 45.828125 52.96875 
Q 50 49.953125 52 44.1875 
z
" id="DejaVuSans-109"/>
      <path d="M 18.109375 8.203125 
L 18.109375 -20.796875 
L 9.078125 -20.796875 
L 9.078125 54.6875 
L 18.109375 54.6875 
L 18.109375 46.390625 
Q 20.953125 51.265625 25.265625 53.625 
Q 29.59375 56 35.59375 56 
Q 45.5625 56 51.78125 48.09375 
Q 58.015625 40.1875 58.015625 27.296875 
Q 58.015625 14.40625 51.78125 6.484375 
Q 45.5625 -1.421875 35.59375 -1.421875 
Q 29.59375 -1.421875 25.265625 0.953125 
Q 20.953125 3.328125 18.109375 8.203125 
z
M 48.6875 27.296875 
Q 48.6875 37.203125 44.609375 42.84375 
Q 40.53125 48.484375 33.40625 48.484375 
Q 26.265625 48.484375 22.1875 42.84375 
Q 18.109375 37.203125 18.109375 27.296875 
Q 18.109375 17.390625 22.1875 11.75 
Q 26.265625 6.109375 33.40625 6.109375 
Q 40.53125 6.109375 44.609375 11.75 
Q 48.6875 17.390625 48.6875 27.296875 
z
" id="DejaVuSans-112"/>
      <path d="M 9.421875 75.984375 
L 18.40625 75.984375 
L 18.40625 0 
L 9.421875 0 
z
" id="DejaVuSans-108"/>
      <path d="M 56.203125 29.59375 
L 56.203125 25.203125 
L 14.890625 25.203125 
Q 15.484375 15.921875 20.484375 11.0625 
Q 25.484375 6.203125 34.421875 6.203125 
Q 39.59375 6.203125 44.453125 7.46875 
Q 49.3125 8.734375 54.109375 11.28125 
L 54.109375 2.78125 
Q 49.265625 0.734375 44.1875 -0.34375 
Q 39.109375 -1.421875 33.890625 -1.421875 
Q 20.796875 -1.421875 13.15625 6.1875 
Q 5.515625 13.8125 5.515625 26.8125 
Q 5.515625 40.234375 12.765625 48.109375 
Q 20.015625 56 32.328125 56 
Q 43.359375 56 49.78125 48.890625 
Q 56.203125 41.796875 56.203125 29.59375 
z
M 47.21875 32.234375 
Q 47.125 39.59375 43.09375 43.984375 
Q 39.0625 48.390625 32.421875 48.390625 
Q 24.90625 48.390625 20.390625 44.140625 
Q 15.875 39.890625 15.1875 32.171875 
z
" id="DejaVuSans-101"/>
      <path d="M 44.28125 53.078125 
L 44.28125 44.578125 
Q 40.484375 46.53125 36.375 47.5 
Q 32.28125 48.484375 27.875 48.484375 
Q 21.1875 48.484375 17.84375 46.4375 
Q 14.5 44.390625 14.5 40.28125 
Q 14.5 37.15625 16.890625 35.375 
Q 19.28125 33.59375 26.515625 31.984375 
L 29.59375 31.296875 
Q 39.15625 29.25 43.1875 25.515625 
Q 47.21875 21.78125 47.21875 15.09375 
Q 47.21875 7.46875 41.1875 3.015625 
Q 35.15625 -1.421875 24.609375 -1.421875 
Q 20.21875 -1.421875 15.453125 -0.5625 
Q 10.6875 0.296875 5.421875 2 
L 5.421875 11.28125 
Q 10.40625 8.6875 15.234375 7.390625 
Q 20.0625 6.109375 24.8125 6.109375 
Q 31.15625 6.109375 34.5625 8.28125 
Q 37.984375 10.453125 37.984375 14.40625 
Q 37.984375 18.0625 35.515625 20.015625 
Q 33.0625 21.96875 24.703125 23.78125 
L 21.578125 24.515625 
Q 13.234375 26.265625 9.515625 29.90625 
Q 5.8125 33.546875 5.8125 39.890625 
Q 5.8125 47.609375 11.28125 51.796875 
Q 16.75 56 26.8125 56 
Q 31.78125 56 36.171875 55.265625 
Q 40.578125 54.546875 44.28125 53.078125 
z
" id="DejaVuSans-115"/>
     </defs>
     <g transform="translate(203.206875 415.436563)scale(0.1 -0.1)">
      <use xlink:href="#DejaVuSans-83"/>
      <use x="63.476562" xlink:href="#DejaVuSans-97"/>
      <use x="124.755859" xlink:href="#DejaVuSans-109"/>
      <use x="222.167969" xlink:href="#DejaVuSans-112"/>
      <use x="285.644531" xlink:href="#DejaVuSans-108"/>
      <use x="313.427734" xlink:href="#DejaVuSans-101"/>
      <use x="374.951172" xlink:href="#DejaVuSans-115"/>
     </g>
    </g>
   </g>
   <g id="matplotlib.axis_2">
    <g id="ytick_1">
     <g id="line2d_15">
      <path clip-path="url(#pf343411e61)" d="M 38.27 364.961797 
L 410.85 364.961797 
" style="fill:none;stroke:#777777;stroke-linecap:square;stroke-width:0.8;"/>
     </g>
     <g id="line2d_16">
      <defs>
       <path d="M 0 0 
L -3.5 0 
" id="m16f260463d" style="stroke:#000000;stroke-width:0.8;"/>
      </defs>
      <g>
       <use style="stroke:#000000;stroke-width:0.8;" x="38.27" xlink:href="#m16f260463d" y="364.961797"/>
      </g>
     </g>
     <g id="text_9">
      <!-- 0 -->
      <g transform="translate(24.9075 368.761016)scale(0.1 -0.1)">
       <use xlink:href="#DejaVuSans-48"/>
      </g>
     </g>
    </g>
    <g id="ytick_2">
     <g id="line2d_17">
      <path clip-path="url(#pf343411e61)" d="M 38.27 298.07863 
L 410.85 298.07863 
" style="fill:none;stroke:#777777;stroke-linecap:square;stroke-width:0.8;"/>
     </g>
     <g id="line2d_18">
      <g>
       <use style="stroke:#000000;stroke-width:0.8;" x="38.27" xlink:href="#m16f260463d" y="298.07863"/>
      </g>
     </g>
     <g id="text_10">
      <!-- 1 -->
      <g transform="translate(24.9075 301.877849)scale(0.1 -0.1)">
       <use xlink:href="#DejaVuSans-49"/>
      </g>
     </g>
    </g>
    <g id="ytick_3">
     <g id="line2d_19">
      <path clip-path="url(#pf343411e61)" d="M 38.27 231.195464 
L 410.85 231.195464 
" style="fill:none;stroke:#777777;stroke-linecap:square;stroke-width:0.8;"/>
     </g>
     <g id="line2d_20">
      <g>
       <use style="stroke:#000000;stroke-width:0.8;" x="38.27" xlink:href="#m16f260463d" y="231.195464"/>
      </g>
     </g>
     <g id="text_11">
      <!-- 2 -->
      <g transform="translate(24.9075 234.994682)scale(0.1 -0.1)">
       <use xlink:href="#DejaVuSans-50"/>
      </g>
     </g>
    </g>
    <g id="ytick_4">
     <g id="line2d_21">
      <path clip-path="url(#pf343411e61)" d="M 38.27 164.312297 
L 410.85 164.312297 
" style="fill:none;stroke:#777777;stroke-linecap:square;stroke-width:0.8;"/>
     </g>
     <g id="line2d_22">
      <g>
       <use style="stroke:#000000;stroke-width:0.8;" x="38.27" xlink:href="#m16f260463d" y="164.312297"/>
      </g>
     </g>
     <g id="text_12">
      <!-- 3 -->
      <g transform="translate(24.9075 168.111516)scale(0.1 -0.1)">
       <use xlink:href="#DejaVuSans-51"/>
      </g>
     </g>
    </g>
    <g id="ytick_5">
     <g id="line2d_23">
      <path clip-path="url(#pf343411e61)" d="M 38.27 97.429131 
L 410.85 97.429131 
" style="fill:none;stroke:#777777;stroke-linecap:square;stroke-width:0.8;"/>
     </g>
     <g id="line2d_24">
      <g>
       <use style="stroke:#000000;stroke-width:0.8;" x="38.27" xlink:href="#m16f260463d" y="97.429131"/>
      </g>
     </g>
     <g id="text_13">
      <!-- 4 -->
      <g transform="translate(24.9075 101.228349)scale(0.1 -0.1)">
       <use xlink:href="#DejaVuSans-52"/>
      </g>
     </g>
    </g>
    <g id="text_14">
     <!-- Amplitude -->
     <defs>
      <path d="M 34.1875 63.1875 
L 20.796875 26.90625 
L 47.609375 26.90625 
z
M 28.609375 72.90625 
L 39.796875 72.90625 
L 67.578125 0 
L 57.328125 0 
L 50.6875 18.703125 
L 17.828125 18.703125 
L 11.1875 0 
L 0.78125 0 
z
" id="DejaVuSans-65"/>
      <path d="M 9.421875 54.6875 
L 18.40625 54.6875 
L 18.40625 0 
L 9.421875 0 
z
M 9.421875 75.984375 
L 18.40625 75.984375 
L 18.40625 64.59375 
L 9.421875 64.59375 
z
" id="DejaVuSans-105"/>
      <path d="M 18.3125 70.21875 
L 18.3125 54.6875 
L 36.8125 54.6875 
L 36.8125 47.703125 
L 18.3125 47.703125 
L 18.3125 18.015625 
Q 18.3125 11.328125 20.140625 9.421875 
Q 21.96875 7.515625 27.59375 7.515625 
L 36.8125 7.515625 
L 36.8125 0 
L 27.59375 0 
Q 17.1875 0 13.234375 3.875 
Q 9.28125 7.765625 9.28125 18.015625 
L 9.28125 47.703125 
L 2.6875 47.703125 
L 2.6875 54.6875 
L 9.28125 54.6875 
L 9.28125 70.21875 
z
" id="DejaVuSans-116"/>
      <path d="M 8.5 21.578125 
L 8.5 54.6875 
L 17.484375 54.6875 
L 17.484375 21.921875 
Q 17.484375 14.15625 20.5 10.265625 
Q 23.53125 6.390625 29.59375 6.390625 
Q 36.859375 6.390625 41.078125 11.03125 
Q 45.3125 15.671875 45.3125 23.6875 
L 45.3125 54.6875 
L 54.296875 54.6875 
L 54.296875 0 
L 45.3125 0 
L 45.3125 8.40625 
Q 42.046875 3.421875 37.71875 1 
Q 33.40625 -1.421875 27.6875 -1.421875 
Q 18.265625 -1.421875 13.375 4.4375 
Q 8.5 10.296875 8.5 21.578125 
z
M 31.109375 56 
z
" id="DejaVuSans-117"/>
      <path d="M 45.40625 46.390625 
L 45.40625 75.984375 
L 54.390625 75.984375 
L 54.390625 0 
L 45.40625 0 
L 45.40625 8.203125 
Q 42.578125 3.328125 38.25 0.953125 
Q 33.9375 -1.421875 27.875 -1.421875 
Q 17.96875 -1.421875 11.734375 6.484375 
Q 5.515625 14.40625 5.515625 27.296875 
Q 5.515625 40.1875 11.734375 48.09375 
Q 17.96875 56 27.875 56 
Q 33.9375 56 38.25 53.625 
Q 42.578125 51.265625 45.40625 46.390625 
z
M 14.796875 27.296875 
Q 14.796875 17.390625 18.875 11.75 
Q 22.953125 6.109375 30.078125 6.109375 
Q 37.203125 6.109375 41.296875 11.75 
Q 45.40625 17.390625 45.40625 27.296875 
Q 45.40625 37.203125 41.296875 42.84375 
Q 37.203125 48.484375 30.078125 48.484375 
Q 22.953125 48.484375 18.875 42.84375 
Q 14.796875 37.203125 14.796875 27.296875 
z
" id="DejaVuSans-100"/>
     </defs>
     <g transform="translate(18.827813 238.822656)rotate(-90)scale(0.1 -0.1)">
      <use xlink:href="#DejaVuSans-65"/>
      <use x="68.408203" xlink:href="#DejaVuSans-109"/>
      <use x="165.820312" xlink:href="#DejaVuSans-112"/>
      <use x="229.296875" xlink:href="#DejaVuSans-108"/>
      <use x="257.080078" xlink:href="#DejaVuSans-105"/>
      <use x="284.863281" xlink:href="#DejaVuSans-116"/>
      <use x="324.072266" xlink:href="#DejaVuSans-117"/>
      <use x="387.451172" xlink:href="#DejaVuSans-100"/>
      <use x="450.927734" xlink:href="#DejaVuSans-101"/>
     </g>
    </g>
   </g>
   <g id="line2d_25">
    <path clip-path="url(#pf343411e61)" d="M 38.27 364.961797 
L 44.183968 365.025189 
L 50.097937 365.233249 
L 56.011905 365.636781 
L 61.925873 366.311096 
L 67.839841 367.342454 
L 73.75381 368.810137 
L 79.667778 370.765317 
L 85.581746 373.208406 
L 91.495714 376.066979 
L 97.409683 379.176844 
L 103.323651 382.268965 
L 109.237619 384.964995 
L 115.151587 386.783722 
L 121.065556 387.16 
L 126.979524 385.476649 
L 132.893492 381.10837 
L 138.80746 373.475252 
L 144.721429 362.101924 
L 150.635397 346.677197 
L 156.549365 327.108232 
L 162.463333 303.56305 
L 168.377302 276.49573 
L 174.29127 246.64979 
L 180.205238 215.037118 
L 186.119206 182.892074 
L 192.033175 151.602954 
L 197.947143 122.625404 
L 203.861111 97.38457 
L 209.775079 77.174205 
L 215.689048 63.061682 
L 221.603016 55.807619 
L 227.516984 55.807619 
L 233.430952 63.061682 
L 239.344921 77.174205 
L 245.258889 97.38457 
L 251.172857 122.625404 
L 257.086825 151.602954 
L 263.000794 182.892074 
L 268.914762 215.037118 
L 274.82873 246.64979 
L 280.742698 276.49573 
L 286.656667 303.56305 
L 292.570635 327.108232 
L 298.484603 346.677197 
L 304.398571 362.101924 
L 310.31254 373.475252 
L 316.226508 381.10837 
L 322.140476 385.476649 
L 328.054444 387.16 
L 333.968413 386.783722 
L 339.882381 384.964995 
L 345.796349 382.268965 
L 351.710317 379.176844 
L 357.624286 376.066979 
L 363.538254 373.208406 
L 369.452222 370.765317 
L 375.36619 368.810137 
L 381.280159 367.342454 
L 387.194127 366.311096 
L 393.108095 365.636781 
L 399.022063 365.233249 
L 404.936032 365.025189 
L 410.85 364.961797 
" style="fill:none;stroke:#0072bd;stroke-linecap:square;stroke-width:1.4;"/>
    <defs>
     <path d="M 0 1.5 
C 0.397805 1.5 0.77937 1.341951 1.06066 1.06066 
C 1.341951 0.77937 1.5 0.397805 1.5 0 
C 1.5 -0.397805 1.341951 -0.77937 1.06066 -1.06066 
C 0.77937 -1.341951 0.397805 -1.5 0 -1.5 
C -0.397805 -1.5 -0.77937 -1.341951 -1.06066 -1.06066 
C -1.341951 -0.77937 -1.5 -0.397805 -1.5 0 
C -1.5 0.397805 -1.341951 0.77937 -1.06066 1.06066 
C -0.77937 1.341951 -0.397805 1.5 0 1.5 
z
" id="md15e1ac7b5" style="stroke:#0072bd;"/>
    </defs>
    <g clip-path="url(#pf343411e61)">
     <use style="fill:#0072bd;stroke:#0072bd;" x="38.27" xlink:href="#md15e1ac7b5" y="364.961797"/>
     <use style="fill:#0072bd;stroke:#0072bd;" x="44.183968" xlink:href="#md15e1ac7b5" y="365.025189"/>
     <use style="fill:#0072bd;stroke:#0072bd;" x="50.097937" xlink:href="#md15e1ac7b5" y="365.233249"/>
     <use style="fill:#0072bd;stroke:#0072bd;" x="56.011905" xlink:href="#md15e1ac7b5" y="365.636781"/>
     <use style="fill:#0072bd;stroke:#0072bd;" x="61.925873" xlink:href="#md15e1ac7b5" y="366.311096"/>
     <use style="fill:#0072bd;stroke:#0072bd;" x="67.839841" xlink:href="#md15e1ac7b5" y="367.342454"/>
     <use style="fill:#0072bd;stroke:#0072bd;" x="73.75381" xlink:href="#md15e1ac7b5" y="368.810137"/>
     <use style="fill:#0072bd;stroke:#0072bd;" x="79.667778" xlink:href="#md15e1ac7b5" y="370.765317"/>
     <use style="fill:#0072bd;stroke:#0072bd;" x="85.581746" xlink:href="#md15e1ac7b5" y="373.208406"/>
     <use style="fill:#0072bd;stroke:#0072bd;" x="91.495714" xlink:href="#md15e1ac7b5" y="376.066979"/>
     <use style="fill:#0072bd;stroke:#0072bd;" x="97.409683" xlink:href="#md15e1ac7b5" y="379.176844"/>
     <use style="fill:#0072bd;stroke:#0072bd;" x="103.323651" xlink:href="#md15e1ac7b5" y="382.268965"/>
     <use style="fill:#0072bd;stroke:#0072bd;" x="109.237619" xlink:href="#md15e1ac7b5" y="384.964995"/>
     <use style="fill:#0072bd;stroke:#0072bd;" x="115.151587" xlink:href="#md15e1ac7b5" y="386.783722"/>
     <use style="fill:#0072bd;stroke:#0072bd;" x="121.065556" xlink:href="#md15e1ac7b5" y="387.16"/>
     <use style="fill:#0072bd;stroke:#0072bd;" x="126.979524" xlink:href="#md15e1ac7b5" y="385.476649"/>
     <use style="fill:#0072bd;stroke:#0072bd;" x="132.893492" xlink:href="#md15e1ac7b5" y="381.10837"/>
     <use style="fill:#0072bd;stroke:#0072bd;" x="138.80746" xlink:href="#md15e1ac7b5" y="373.475252"/>
     <use style="fill:#0072bd;stroke:#0072bd;" x="144.721429" xlink:href="#md15e1ac7b5" y="362.101924"/>
     <use style="fill:#0072bd;stroke:#0072bd;" x="150.635397" xlink:href="#md15e1ac7b5" y="346.677197"/>
     <use style="fill:#0072bd;stroke:#0072bd;" x="156.549365" xlink:href="#md15e1ac7b5" y="327.108232"/>
     <use style="fill:#0072bd;stroke:#0072bd;" x="162.463333" xlink:href="#md15e1ac7b5" y="303.56305"/>
     <use style="fill:#0072bd;stroke:#0072bd;" x="168.377302" xlink:href="#md15e1ac7b5" y="276.49573"/>
     <use style="fill:#0072bd;stroke:#0072bd;" x="174.29127" xlink:href="#md15e1ac7b5" y="246.64979"/>
     <use style="fill:#0072bd;stroke:#0072bd;" x="180.205238" xlink:href="#md15e1ac7b5" y="215.037118"/>
     <use style="fill:#0072bd;stroke:#0072bd;" x="186.119206" xlink:href="#md15e1ac7b5" y="182.892074"/>
     <use style="fill:#0072bd;stroke:#0072bd;" x="192.033175" xlink:href="#md15e1ac7b5" y="151.602954"/>
     <use style="fill:#0072bd;stroke:#0072bd;" x="197.947143" xlink:href="#md15e1ac7b5" y="122.625404"/>
     <use style="fill:#0072bd;stroke:#0072bd;" x="203.861111" xlink:href="#md15e1ac7b5" y="97.38457"/>
     <use style="fill:#0072bd;stroke:#0072bd;" x="209.775079" xlink:href="#md15e1ac7b5" y="77.174205"/>
     <use style="fill:#0072bd;stroke:#0072bd;" x="215.689048" xlink:href="#md15e1ac7b5" y="63.061682"/>
     <use style="fill:#0072bd;stroke:#0072bd;" x="221.603016" xlink:href="#md15e1ac7b5" y="55.807619"/>
     <use style="fill:#0072bd;stroke:#0072bd;" x="227.516984" xlink:href="#md15e1ac7b5" y="55.807619"/>
     <use style="fill:#0072bd;stroke:#0072bd;" x="233.430952" xlink:href="#md15e1ac7b5" y="63.061682"/>
     <use style="fill:#0072bd;stroke:#0072bd;" x="239.344921" xlink:href="#md15e1ac7b5" y="77.174205"/>
     <use style="fill:#0072bd;stroke:#0072bd;" x="245.258889" xlink:href="#md15e1ac7b5" y="97.38457"/>
     <use style="fill:#0072bd;stroke:#0072bd;" x="251.172857" xlink:href="#md15e1ac7b5" y="122.625404"/>
     <use style="fill:#0072bd;stroke:#0072bd;" x="257.086825" xlink:href="#md15e1ac7b5" y="151.602954"/>
     <use style="fill:#0072bd;stroke:#0072bd;" x="263.000794" xlink:href="#md15e1ac7b5" y="182.892074"/>
     <use style="fill:#0072bd;stroke:#0072bd;" x="268.914762" xlink:href="#md15e1ac7b5" y="215.037118"/>
     <use style="fill:#0072bd;stroke:#0072bd;" x="274.82873" xlink:href="#md15e1ac7b5" y="246.64979"/>
     <use style="fill:#0072bd;stroke:#0072bd;" x="280.742698" xlink:href="#md15e1ac7b5" y="276.49573"/>
     <use style="fill:#0072bd;stroke:#0072bd;" x="286.656667" xlink:href="#md15e1ac7b5" y="303.56305"/>
     <use style="fill:#0072bd;stroke:#0072bd;" x="292.570635" xlink:href="#md15e1ac7b5" y="327.108232"/>
     <use style="fill:#0072bd;stroke:#0072bd;" x="298.484603" xlink:href="#md15e1ac7b5" y="346.677197"/>
     <use style="fill:#0072bd;stroke:#0072bd;" x="304.398571" xlink:href="#md15e1ac7b5" y="362.101924"/>
     <use style="fill:#0072bd;stroke:#0072bd;" x="310.31254" xlink:href="#md15e1ac7b5" y="373.475252"/>
     <use style="fill:#0072bd;stroke:#0072bd;" x="316.226508" xlink:href="#md15e1ac7b5" y="381.10837"/>
     <use style="fill:#0072bd;stroke:#0072bd;" x="322.140476" xlink:href="#md15e1ac7b5" y="385.476649"/>
     <use style="fill:#0072bd;stroke:#0072bd;" x="328.054444" xlink:href="#md15e1ac7b5" y="387.16"/>
     <use style="fill:#0072bd;stroke:#0072bd;" x="333.968413" xlink:href="#md15e1ac7b5" y="386.783722"/>
     <use style="fill:#0072bd;stroke:#0072bd;" x="339.882381" xlink:href="#md15e1ac7b5" y="384.964995"/>
     <use style="fill:#0072bd;stroke:#0072bd;" x="345.796349" xlink:href="#md15e1ac7b5" y="382.268965"/>
     <use style="fill:#0072bd;stroke:#0072bd;" x="351.710317" xlink:href="#md15e1ac7b5" y="379.176844"/>
     <use style="fill:#0072bd;stroke:#0072bd;" x="357.624286" xlink:href="#md15e1ac7b5" y="376.066979"/>
     <use style="fill:#0072bd;stroke:#0072bd;" x="363.538254" xlink:href="#md15e1ac7b5" y="373.208406"/>
     <use style="fill:#0072bd;stroke:#0072bd;" x="369.452222" xlink:href="#md15e1ac7b5" y="370.765317"/>
     <use style="fill:#0072bd;stroke:#0072bd;" x="375.36619" xlink:href="#md15e1ac7b5" y="368.810137"/>
     <use style="fill:#0072bd;stroke:#0072bd;" x="381.280159" xlink:href="#md15e1ac7b5" y="367.342454"/>
     <use style="fill:#0072bd;stroke:#0072bd;" x="387.194127" xlink:href="#md15e1ac7b5" y="366.311096"/>
     <use style="fill:#0072bd;stroke:#0072bd;" x="393.108095" xlink:href="#md15e1ac7b5" y="365.636781"/>
     <use style="fill:#0072bd;stroke:#0072bd;" x="399.022063" xlink:href="#md15e1ac7b5" y="365.233249"/>
     <use style="fill:#0072bd;stroke:#0072bd;" x="404.936032" xlink:href="#md15e1ac7b5" y="365.025189"/>
     <use style="fill:#0072bd;stroke:#0072bd;" x="410.85" xlink:href="#md15e1ac7b5" y="364.961797"/>
    </g>
   </g>
   <g id="patch_3">
    <path d="M 38.27 387.16 
L 38.27 39.24 
" style="fill:none;stroke:#000000;stroke-linecap:square;stroke-linejoin:miter;stroke-width:0.8;"/>
   </g>
   <g id="patch_4">
    <path d="M 410.85 387.16 
L 410.85 39.24 
" style="fill:none;stroke:#000000;stroke-linecap:square;stroke-linejoin:miter;stroke-width:0.8;"/>
   </g>
   <g id="patch_5">
    <path d="M 38.27 387.16 
L 410.85 387.16 
" style="fill:none;stroke:#000000;stroke-linecap:square;stroke-linejoin:miter;stroke-width:0.8;"/>
   </g>
   <g id="patch_6">
    <path d="M 38.27 39.24 
L 410.85 39.24 
" style="fill:none;stroke:#000000;stroke-linecap:square;stroke-linejoin:miter;stroke-width:0.8;"/>
   </g>
  </g>
  <g id="axes_2">
   <g id="patch_7">
    <path d="M 472.7 387.16 
L 845.28 387.16 
L 845.28 39.24 
L 472.7 39.24 
z
" style="fill:#ffffff;"/>
   </g>
   <g id="matplotlib.axis_3">
    <g id="xtick_8">
     <g id="line2d_26">
      <path clip-path="url(#p886f3e2196)" d="M 472.7 387.16 
L 472.7 39.24 
" style="fill:none;stroke:#777777;stroke-linecap:square;stroke-width:0.8;"/>
     </g>
     <g id="line2d_27">
      <g>
       <use style="stroke:#000000;stroke-width:0.8;" x="472.7" xlink:href="#m8074d2e5c9" y="387.16"/>
      </g>
     </g>
     <g id="text_15">
      <!-- 0.0 -->
      <defs>
       <path d="M 10.6875 12.40625 
L 21 12.40625 
L 21 0 
L 10.6875 0 
z
" id="DejaVuSans-46"/>
      </defs>
      <g transform="translate(464.748437 401.758438)scale(0.1 -0.1)">
       <use xlink:href="#DejaVuSans-48"/>
       <use x="63.623047" xlink:href="#DejaVuSans-46"/>
       <use x="95.410156" xlink:href="#DejaVuSans-48"/>
      </g>
     </g>
    </g>
    <g id="xtick_9">
     <g id="line2d_28">
      <path clip-path="url(#p886f3e2196)" d="M 547.216 387.16 
L 547.216 39.24 
" style="fill:none;stroke:#777777;stroke-linecap:square;stroke-width:0.8;"/>
     </g>
     <g id="line2d_29">
      <g>
       <use style="stroke:#000000;stroke-width:0.8;" x="547.216" xlink:href="#m8074d2e5c9" y="387.16"/>
      </g>
     </g>
     <g id="text_16">
      <!-- 0.2 -->
      <g transform="translate(539.264437 401.758438)scale(0.1 -0.1)">
       <use xlink:href="#DejaVuSans-48"/>
       <use x="63.623047" xlink:href="#DejaVuSans-46"/>
       <use x="95.410156" xlink:href="#DejaVuSans-50"/>
      </g>
     </g>
    </g>
    <g id="xtick_10">
     <g id="line2d_30">
      <path clip-path="url(#p886f3e2196)" d="M 621.732 387.16 
L 621.732 39.24 
" style="fill:none;stroke:#777777;stroke-linecap:square;stroke-width:0.8;"/>
     </g>
     <g id="line2d_31">
      <g>
       <use style="stroke:#000000;stroke-width:0.8;" x="621.732" xlink:href="#m8074d2e5c9" y="387.16"/>
      </g>
     </g>
     <g id="text_17">
      <!-- 0.4 -->
      <g transform="translate(613.780437 401.758438)scale(0.1 -0.1)">
       <use xlink:href="#DejaVuSans-48"/>
       <use x="63.623047" xlink:href="#DejaVuSans-46"/>
       <use x="95.410156" xlink:href="#DejaVuSans-52"/>
      </g>
     </g>
    </g>
    <g id="xtick_11">
     <g id="line2d_32">
      <path clip-path="url(#p886f3e2196)" d="M 696.248 387.16 
L 696.248 39.24 
" style="fill:none;stroke:#777777;stroke-linecap:square;stroke-width:0.8;"/>
     </g>
     <g id="line2d_33">
      <g>
       <use style="stroke:#000000;stroke-width:0.8;" x="696.248" xlink:href="#m8074d2e5c9" y="387.16"/>
      </g>
     </g>
     <g id="text_18">
      <!-- 0.6 -->
      <g transform="translate(688.296437 401.758438)scale(0.1 -0.1)">
       <use xlink:href="#DejaVuSans-48"/>
       <use x="63.623047" xlink:href="#DejaVuSans-46"/>
       <use x="95.410156" xlink:href="#DejaVuSans-54"/>
      </g>
     </g>
    </g>
    <g id="xtick_12">
     <g id="line2d_34">
      <path clip-path="url(#p886f3e2196)" d="M 770.764 387.16 
L 770.764 39.24 
" style="fill:none;stroke:#777777;stroke-linecap:square;stroke-width:0.8;"/>
     </g>
     <g id="line2d_35">
      <g>
       <use style="stroke:#000000;stroke-width:0.8;" x="770.764" xlink:href="#m8074d2e5c9" y="387.16"/>
      </g>
     </g>
     <g id="text_19">
      <!-- 0.8 -->
      <defs>
       <path d="M 31.78125 34.625 
Q 24.75 34.625 20.71875 30.859375 
Q 16.703125 27.09375 16.703125 20.515625 
Q 16.703125 13.921875 20.71875 10.15625 
Q 24.75 6.390625 31.78125 6.390625 
Q 38.8125 6.390625 42.859375 10.171875 
Q 46.921875 13.96875 46.921875 20.515625 
Q 46.921875 27.09375 42.890625 30.859375 
Q 38.875 34.625 31.78125 34.625 
z
M 21.921875 38.8125 
Q 15.578125 40.375 12.03125 44.71875 
Q 8.5 49.078125 8.5 55.328125 
Q 8.5 64.0625 14.71875 69.140625 
Q 20.953125 74.21875 31.78125 74.21875 
Q 42.671875 74.21875 48.875 69.140625 
Q 55.078125 64.0625 55.078125 55.328125 
Q 55.078125 49.078125 51.53125 44.71875 
Q 48 40.375 41.703125 38.8125 
Q 48.828125 37.15625 52.796875 32.3125 
Q 56.78125 27.484375 56.78125 20.515625 
Q 56.78125 9.90625 50.3125 4.234375 
Q 43.84375 -1.421875 31.78125 -1.421875 
Q 19.734375 -1.421875 13.25 4.234375 
Q 6.78125 9.90625 6.78125 20.515625 
Q 6.78125 27.484375 10.78125 32.3125 
Q 14.796875 37.15625 21.921875 38.8125 
z
M 18.3125 54.390625 
Q 18.3125 48.734375 21.84375 45.5625 
Q 25.390625 42.390625 31.78125 42.390625 
Q 38.140625 42.390625 41.71875 45.5625 
Q 45.3125 48.734375 45.3125 54.390625 
Q 45.3125 60.0625 41.71875 63.234375 
Q 38.140625 66.40625 31.78125 66.40625 
Q 25.390625 66.40625 21.84375 63.234375 
Q 18.3125 60.0625 18.3125 54.390625 
z
" id="DejaVuSans-56"/>
      </defs>
      <g transform="translate(762.812437 401.758438)scale(0.1 -0.1)">
       <use xlink:href="#DejaVuSans-48"/>
       <use x="63.623047" xlink:href="#DejaVuSans-46"/>
       <use x="95.410156" xlink:href="#DejaVuSans-56"/>
      </g>
     </g>
    </g>
    <g id="xtick_13">
     <g id="line2d_36">
      <path clip-path="url(#p886f3e2196)" d="M 845.28 387.16 
L 845.28 39.24 
" style="fill:none;stroke:#777777;stroke-linecap:square;stroke-width:0.8;"/>
     </g>
     <g id="line2d_37">
      <g>
       <use style="stroke:#000000;stroke-width:0.8;" x="845.28" xlink:href="#m8074d2e5c9" y="387.16"/>
      </g>
     </g>
     <g id="text_20">
      <!-- 1.0 -->
      <g transform="translate(837.328437 401.758438)scale(0.1 -0.1)">
       <use xlink:href="#DejaVuSans-49"/>
       <use x="63.623047" xlink:href="#DejaVuSans-46"/>
       <use x="95.410156" xlink:href="#DejaVuSans-48"/>
      </g>
     </g>
    </g>
    <g id="text_21">
     <!-- Normalized Frequency ($\times \pi$ rad/sample) -->
     <defs>
      <path d="M 9.8125 72.90625 
L 23.09375 72.90625 
L 55.421875 11.921875 
L 55.421875 72.90625 
L 64.984375 72.90625 
L 64.984375 0 
L 51.703125 0 
L 19.390625 60.984375 
L 19.390625 0 
L 9.8125 0 
z
" id="DejaVuSans-78"/>
      <path d="M 30.609375 48.390625 
Q 23.390625 48.390625 19.1875 42.75 
Q 14.984375 37.109375 14.984375 27.296875 
Q 14.984375 17.484375 19.15625 11.84375 
Q 23.34375 6.203125 30.609375 6.203125 
Q 37.796875 6.203125 41.984375 11.859375 
Q 46.1875 17.53125 46.1875 27.296875 
Q 46.1875 37.015625 41.984375 42.703125 
Q 37.796875 48.390625 30.609375 48.390625 
z
M 30.609375 56 
Q 42.328125 56 49.015625 48.375 
Q 55.71875 40.765625 55.71875 27.296875 
Q 55.71875 13.875 49.015625 6.21875 
Q 42.328125 -1.421875 30.609375 -1.421875 
Q 18.84375 -1.421875 12.171875 6.21875 
Q 5.515625 13.875 5.515625 27.296875 
Q 5.515625 40.765625 12.171875 48.375 
Q 18.84375 56 30.609375 56 
z
" id="DejaVuSans-111"/>
      <path d="M 41.109375 46.296875 
Q 39.59375 47.171875 37.8125 47.578125 
Q 36.03125 48 33.890625 48 
Q 26.265625 48 22.1875 43.046875 
Q 18.109375 38.09375 18.109375 28.8125 
L 18.109375 0 
L 9.078125 0 
L 9.078125 54.6875 
L 18.109375 54.6875 
L 18.109375 46.1875 
Q 20.953125 51.171875 25.484375 53.578125 
Q 30.03125 56 36.53125 56 
Q 37.453125 56 38.578125 55.875 
Q 39.703125 55.765625 41.0625 55.515625 
z
" id="DejaVuSans-114"/>
      <path d="M 5.515625 54.6875 
L 48.1875 54.6875 
L 48.1875 46.484375 
L 14.40625 7.171875 
L 48.1875 7.171875 
L 48.1875 0 
L 4.296875 0 
L 4.296875 8.203125 
L 38.09375 47.515625 
L 5.515625 47.515625 
z
" id="DejaVuSans-122"/>
      <path id="DejaVuSans-32"/>
      <path d="M 9.8125 72.90625 
L 51.703125 72.90625 
L 51.703125 64.59375 
L 19.671875 64.59375 
L 19.671875 43.109375 
L 48.578125 43.109375 
L 48.578125 34.8125 
L 19.671875 34.8125 
L 19.671875 0 
L 9.8125 0 
z
" id="DejaVuSans-70"/>
      <path d="M 14.796875 27.296875 
Q 14.796875 17.390625 18.875 11.75 
Q 22.953125 6.109375 30.078125 6.109375 
Q 37.203125 6.109375 41.296875 11.75 
Q 45.40625 17.390625 45.40625 27.296875 
Q 45.40625 37.203125 41.296875 42.84375 
Q 37.203125 48.484375 30.078125 48.484375 
Q 22.953125 48.484375 18.875 42.84375 
Q 14.796875 37.203125 14.796875 27.296875 
z
M 45.40625 8.203125 
Q 42.578125 3.328125 38.25 0.953125 
Q 33.9375 -1.421875 27.875 -1.421875 
Q 17.96875 -1.421875 11.734375 6.484375 
Q 5.515625 14.40625 5.515625 27.296875 
Q 5.515625 40.1875 11.734375 48.09375 
Q 17.96875 56 27.875 56 
Q 33.9375 56 38.25 53.625 
Q 42.578125 51.265625 45.40625 46.390625 
L 45.40625 54.6875 
L 54.390625 54.6875 
L 54.390625 -20.796875 
L 45.40625 -20.796875 
z
" id="DejaVuSans-113"/>
      <path d="M 54.890625 33.015625 
L 54.890625 0 
L 45.90625 0 
L 45.90625 32.71875 
Q 45.90625 40.484375 42.875 44.328125 
Q 39.84375 48.1875 33.796875 48.1875 
Q 26.515625 48.1875 22.3125 43.546875 
Q 18.109375 38.921875 18.109375 30.90625 
L 18.109375 0 
L 9.078125 0 
L 9.078125 54.6875 
L 18.109375 54.6875 
L 18.109375 46.1875 
Q 21.34375 51.125 25.703125 53.5625 
Q 30.078125 56 35.796875 56 
Q 45.21875 56 50.046875 50.171875 
Q 54.890625 44.34375 54.890625 33.015625 
z
" id="DejaVuSans-110"/>
      <path d="M 48.78125 52.59375 
L 48.78125 44.1875 
Q 44.96875 46.296875 41.140625 47.34375 
Q 37.3125 48.390625 33.40625 48.390625 
Q 24.65625 48.390625 19.8125 42.84375 
Q 14.984375 37.3125 14.984375 27.296875 
Q 14.984375 17.28125 19.8125 11.734375 
Q 24.65625 6.203125 33.40625 6.203125 
Q 37.3125 6.203125 41.140625 7.25 
Q 44.96875 8.296875 48.78125 10.40625 
L 48.78125 2.09375 
Q 45.015625 0.34375 40.984375 -0.53125 
Q 36.96875 -1.421875 32.421875 -1.421875 
Q 20.0625 -1.421875 12.78125 6.34375 
Q 5.515625 14.109375 5.515625 27.296875 
Q 5.515625 40.671875 12.859375 48.328125 
Q 20.21875 56 33.015625 56 
Q 37.15625 56 41.109375 55.140625 
Q 45.0625 54.296875 48.78125 52.59375 
z
" id="DejaVuSans-99"/>
      <path d="M 32.171875 -5.078125 
Q 28.375 -14.84375 24.75 -17.8125 
Q 21.140625 -20.796875 15.09375 -20.796875 
L 7.90625 -20.796875 
L 7.90625 -13.28125 
L 13.1875 -13.28125 
Q 16.890625 -13.28125 18.9375 -11.515625 
Q 21 -9.765625 23.484375 -3.21875 
L 25.09375 0.875 
L 2.984375 54.6875 
L 12.5 54.6875 
L 29.59375 11.921875 
L 46.6875 54.6875 
L 56.203125 54.6875 
z
" id="DejaVuSans-121"/>
      <path d="M 31 75.875 
Q 24.46875 64.65625 21.28125 53.65625 
Q 18.109375 42.671875 18.109375 31.390625 
Q 18.109375 20.125 21.3125 9.0625 
Q 24.515625 -2 31 -13.1875 
L 23.1875 -13.1875 
Q 15.875 -1.703125 12.234375 9.375 
Q 8.59375 20.453125 8.59375 31.390625 
Q 8.59375 42.28125 12.203125 53.3125 
Q 15.828125 64.359375 23.1875 75.875 
z
" id="DejaVuSans-40"/>
      <path d="M 70.125 53.71875 
L 47.796875 31.296875 
L 70.125 8.984375 
L 64.3125 3.078125 
L 41.890625 25.484375 
L 19.484375 3.078125 
L 13.71875 8.984375 
L 35.984375 31.296875 
L 13.71875 53.71875 
L 19.484375 59.625 
L 41.890625 37.203125 
L 64.3125 59.625 
z
" id="DejaVuSans-215"/>
      <path d="M 9.125 54.6875 
L 61.53125 54.6875 
L 59.765625 45.703125 
L 52.875 45.703125 
L 46.34375 12.109375 
Q 45.65625 8.59375 46.578125 7.03125 
Q 47.46875 5.515625 50.140625 5.515625 
Q 50.875 5.515625 51.953125 5.671875 
Q 53.078125 5.765625 53.421875 5.8125 
L 52.15625 -0.6875 
Q 50.34375 -1.3125 48.484375 -1.609375 
Q 46.578125 -1.90625 44.78125 -1.90625 
Q 38.921875 -1.90625 37.3125 1.265625 
Q 35.6875 4.5 37.359375 13.09375 
L 43.703125 45.703125 
L 23.53125 45.703125 
L 14.65625 0 
L 5.46875 0 
L 14.359375 45.703125 
L 7.375 45.703125 
z
" id="DejaVuSans-Oblique-960"/>
      <path d="M 25.390625 72.90625 
L 33.6875 72.90625 
L 8.296875 -9.28125 
L 0 -9.28125 
z
" id="DejaVuSans-47"/>
      <path d="M 8.015625 75.875 
L 15.828125 75.875 
Q 23.140625 64.359375 26.78125 53.3125 
Q 30.421875 42.28125 30.421875 31.390625 
Q 30.421875 20.453125 26.78125 9.375 
Q 23.140625 -1.703125 15.828125 -13.1875 
L 8.015625 -13.1875 
Q 14.5 -2 17.703125 9.0625 
Q 20.90625 20.125 20.90625 31.390625 
Q 20.90625 42.671875 17.703125 53.65625 
Q 14.5 64.65625 8.015625 75.875 
z
" id="DejaVuSans-41"/>
     </defs>
     <g transform="translate(560.19 415.438125)scale(0.1 -0.1)">
      <use transform="translate(0 0.015625)" xlink:href="#DejaVuSans-78"/>
      <use transform="translate(74.804688 0.015625)" xlink:href="#DejaVuSans-111"/>
      <use transform="translate(135.986328 0.015625)" xlink:href="#DejaVuSans-114"/>
      <use transform="translate(177.099609 0.015625)" xlink:href="#DejaVuSans-109"/>
      <use transform="translate(274.511719 0.015625)" xlink:href="#DejaVuSans-97"/>
      <use transform="translate(335.791016 0.015625)" xlink:href="#DejaVuSans-108"/>
      <use transform="translate(363.574219 0.015625)" xlink:href="#DejaVuSans-105"/>
      <use transform="translate(391.357422 0.015625)" xlink:href="#DejaVuSans-122"/>
      <use transform="translate(443.847656 0.015625)" xlink:href="#DejaVuSans-101"/>
      <use transform="translate(505.371094 0.015625)" xlink:href="#DejaVuSans-100"/>
      <use transform="translate(568.847656 0.015625)" xlink:href="#DejaVuSans-32"/>
      <use transform="translate(600.634766 0.015625)" xlink:href="#DejaVuSans-70"/>
      <use transform="translate(658.154297 0.015625)" xlink:href="#DejaVuSans-114"/>
      <use transform="translate(699.267578 0.015625)" xlink:href="#DejaVuSans-101"/>
      <use transform="translate(760.791016 0.015625)" xlink:href="#DejaVuSans-113"/>
      <use transform="translate(824.267578 0.015625)" xlink:href="#DejaVuSans-117"/>
      <use transform="translate(887.646484 0.015625)" xlink:href="#DejaVuSans-101"/>
      <use transform="translate(949.169922 0.015625)" xlink:href="#DejaVuSans-110"/>
      <use transform="translate(1012.548828 0.015625)" xlink:href="#DejaVuSans-99"/>
      <use transform="translate(1067.529297 0.015625)" xlink:href="#DejaVuSans-121"/>
      <use transform="translate(1126.708984 0.015625)" xlink:href="#DejaVuSans-32"/>
      <use transform="translate(1158.496094 0.015625)" xlink:href="#DejaVuSans-40"/>
      <use transform="translate(1197.509766 0.015625)" xlink:href="#DejaVuSans-215"/>
      <use transform="translate(1281.298828 0.015625)" xlink:href="#DejaVuSans-Oblique-960"/>
      <use transform="translate(1341.503906 0.015625)" xlink:href="#DejaVuSans-32"/>
      <use transform="translate(1373.291016 0.015625)" xlink:href="#DejaVuSans-114"/>
      <use transform="translate(1414.404297 0.015625)" xlink:href="#DejaVuSans-97"/>
      <use transform="translate(1475.683594 0.015625)" xlink:href="#DejaVuSans-100"/>
      <use transform="translate(1539.160156 0.015625)" xlink:href="#DejaVuSans-47"/>
      <use transform="translate(1572.851562 0.015625)" xlink:href="#DejaVuSans-115"/>
      <use transform="translate(1624.951172 0.015625)" xlink:href="#DejaVuSans-97"/>
      <use transform="translate(1686.230469 0.015625)" xlink:href="#DejaVuSans-109"/>
      <use transform="translate(1783.642578 0.015625)" xlink:href="#DejaVuSans-112"/>
      <use transform="translate(1847.119141 0.015625)" xlink:href="#DejaVuSans-108"/>
      <use transform="translate(1874.902344 0.015625)" xlink:href="#DejaVuSans-101"/>
      <use transform="translate(1936.425781 0.015625)" xlink:href="#DejaVuSans-41"/>
     </g>
    </g>
   </g>
   <g id="matplotlib.axis_4">
    <g id="ytick_6">
     <g id="line2d_38">
      <path clip-path="url(#p886f3e2196)" d="M 472.7 358.989172 
L 845.28 358.989172 
" style="fill:none;stroke:#777777;stroke-linecap:square;stroke-width:0.8;"/>
     </g>
     <g id="line2d_39">
      <g>
       <use style="stroke:#000000;stroke-width:0.8;" x="472.7" xlink:href="#m16f260463d" y="358.989172"/>
      </g>
     </g>
     <g id="text_22">
      <!-- −125 -->
      <defs>
       <path d="M 10.59375 35.5 
L 73.1875 35.5 
L 73.1875 27.203125 
L 10.59375 27.203125 
z
" id="DejaVuSans-8722"/>
      </defs>
      <g transform="translate(438.232812 362.78839)scale(0.1 -0.1)">
       <use xlink:href="#DejaVuSans-8722"/>
       <use x="83.789062" xlink:href="#DejaVuSans-49"/>
       <use x="147.412109" xlink:href="#DejaVuSans-50"/>
       <use x="211.035156" xlink:href="#DejaVuSans-53"/>
      </g>
     </g>
    </g>
    <g id="ytick_7">
     <g id="line2d_40">
      <path clip-path="url(#p886f3e2196)" d="M 472.7 311.790692 
L 845.28 311.790692 
" style="fill:none;stroke:#777777;stroke-linecap:square;stroke-width:0.8;"/>
     </g>
     <g id="line2d_41">
      <g>
       <use style="stroke:#000000;stroke-width:0.8;" x="472.7" xlink:href="#m16f260463d" y="311.790692"/>
      </g>
     </g>
     <g id="text_23">
      <!-- −100 -->
      <g transform="translate(438.232812 315.58991)scale(0.1 -0.1)">
       <use xlink:href="#DejaVuSans-8722"/>
       <use x="83.789062" xlink:href="#DejaVuSans-49"/>
       <use x="147.412109" xlink:href="#DejaVuSans-48"/>
       <use x="211.035156" xlink:href="#DejaVuSans-48"/>
      </g>
     </g>
    </g>
    <g id="ytick_8">
     <g id="line2d_42">
      <path clip-path="url(#p886f3e2196)" d="M 472.7 264.592211 
L 845.28 264.592211 
" style="fill:none;stroke:#777777;stroke-linecap:square;stroke-width:0.8;"/>
     </g>
     <g id="line2d_43">
      <g>
       <use style="stroke:#000000;stroke-width:0.8;" x="472.7" xlink:href="#m16f260463d" y="264.592211"/>
      </g>
     </g>
     <g id="text_24">
      <!-- −75 -->
      <defs>
       <path d="M 8.203125 72.90625 
L 55.078125 72.90625 
L 55.078125 68.703125 
L 28.609375 0 
L 18.3125 0 
L 43.21875 64.59375 
L 8.203125 64.59375 
z
" id="DejaVuSans-55"/>
      </defs>
      <g transform="translate(444.595312 268.39143)scale(0.1 -0.1)">
       <use xlink:href="#DejaVuSans-8722"/>
       <use x="83.789062" xlink:href="#DejaVuSans-55"/>
       <use x="147.412109" xlink:href="#DejaVuSans-53"/>
      </g>
     </g>
    </g>
    <g id="ytick_9">
     <g id="line2d_44">
      <path clip-path="url(#p886f3e2196)" d="M 472.7 217.393731 
L 845.28 217.393731 
" style="fill:none;stroke:#777777;stroke-linecap:square;stroke-width:0.8;"/>
     </g>
     <g id="line2d_45">
      <g>
       <use style="stroke:#000000;stroke-width:0.8;" x="472.7" xlink:href="#m16f260463d" y="217.393731"/>
      </g>
     </g>
     <g id="text_25">
      <!-- −50 -->
      <g transform="translate(444.595312 221.19295)scale(0.1 -0.1)">
       <use xlink:href="#DejaVuSans-8722"/>
       <use x="83.789062" xlink:href="#DejaVuSans-53"/>
       <use x="147.412109" xlink:href="#DejaVuSans-48"/>
      </g>
     </g>
    </g>
    <g id="ytick_10">
     <g id="line2d_46">
      <path clip-path="url(#p886f3e2196)" d="M 472.7 170.195251 
L 845.28 170.195251 
" style="fill:none;stroke:#777777;stroke-linecap:square;stroke-width:0.8;"/>
     </g>
     <g id="line2d_47">
      <g>
       <use style="stroke:#000000;stroke-width:0.8;" x="472.7" xlink:href="#m16f260463d" y="170.195251"/>
      </g>
     </g>
     <g id="text_26">
      <!-- −25 -->
      <g transform="translate(444.595312 173.99447)scale(0.1 -0.1)">
       <use xlink:href="#DejaVuSans-8722"/>
       <use x="83.789062" xlink:href="#DejaVuSans-50"/>
       <use x="147.412109" xlink:href="#DejaVuSans-53"/>
      </g>
     </g>
    </g>
    <g id="ytick_11">
     <g id="line2d_48">
      <path clip-path="url(#p886f3e2196)" d="M 472.7 122.996771 
L 845.28 122.996771 
" style="fill:none;stroke:#777777;stroke-linecap:square;stroke-width:0.8;"/>
     </g>
     <g id="line2d_49">
      <g>
       <use style="stroke:#000000;stroke-width:0.8;" x="472.7" xlink:href="#m16f260463d" y="122.996771"/>
      </g>
     </g>
     <g id="text_27">
      <!-- 0 -->
      <g transform="translate(459.3375 126.79599)scale(0.1 -0.1)">
       <use xlink:href="#DejaVuSans-48"/>
      </g>
     </g>
    </g>
    <g id="ytick_12">
     <g id="line2d_50">
      <path clip-path="url(#p886f3e2196)" d="M 472.7 75.798291 
L 845.28 75.798291 
" style="fill:none;stroke:#777777;stroke-linecap:square;stroke-width:0.8;"/>
     </g>
     <g id="line2d_51">
      <g>
       <use style="stroke:#000000;stroke-width:0.8;" x="472.7" xlink:href="#m16f260463d" y="75.798291"/>
      </g>
     </g>
     <g id="text_28">
      <!-- 25 -->
      <g transform="translate(452.975 79.59751)scale(0.1 -0.1)">
       <use xlink:href="#DejaVuSans-50"/>
       <use x="63.623047" xlink:href="#DejaVuSans-53"/>
      </g>
     </g>
    </g>
    <g id="text_29">
     <!-- Gain (dB) -->
     <defs>
      <path d="M 59.515625 10.40625 
L 59.515625 29.984375 
L 43.40625 29.984375 
L 43.40625 38.09375 
L 69.28125 38.09375 
L 69.28125 6.78125 
Q 63.578125 2.734375 56.6875 0.65625 
Q 49.8125 -1.421875 42 -1.421875 
Q 24.90625 -1.421875 15.25 8.5625 
Q 5.609375 18.5625 5.609375 36.375 
Q 5.609375 54.25 15.25 64.234375 
Q 24.90625 74.21875 42 74.21875 
Q 49.125 74.21875 55.546875 72.453125 
Q 61.96875 70.703125 67.390625 67.28125 
L 67.390625 56.78125 
Q 61.921875 61.421875 55.765625 63.765625 
Q 49.609375 66.109375 42.828125 66.109375 
Q 29.4375 66.109375 22.71875 58.640625 
Q 16.015625 51.171875 16.015625 36.375 
Q 16.015625 21.625 22.71875 14.15625 
Q 29.4375 6.6875 42.828125 6.6875 
Q 48.046875 6.6875 52.140625 7.59375 
Q 56.25 8.5 59.515625 10.40625 
z
" id="DejaVuSans-71"/>
      <path d="M 19.671875 34.8125 
L 19.671875 8.109375 
L 35.5 8.109375 
Q 43.453125 8.109375 47.28125 11.40625 
Q 51.125 14.703125 51.125 21.484375 
Q 51.125 28.328125 47.28125 31.5625 
Q 43.453125 34.8125 35.5 34.8125 
z
M 19.671875 64.796875 
L 19.671875 42.828125 
L 34.28125 42.828125 
Q 41.5 42.828125 45.03125 45.53125 
Q 48.578125 48.25 48.578125 53.8125 
Q 48.578125 59.328125 45.03125 62.0625 
Q 41.5 64.796875 34.28125 64.796875 
z
M 9.8125 72.90625 
L 35.015625 72.90625 
Q 46.296875 72.90625 52.390625 68.21875 
Q 58.5 63.53125 58.5 54.890625 
Q 58.5 48.1875 55.375 44.234375 
Q 52.25 40.28125 46.1875 39.3125 
Q 53.46875 37.75 57.5 32.78125 
Q 61.53125 27.828125 61.53125 20.40625 
Q 61.53125 10.640625 54.890625 5.3125 
Q 48.25 0 35.984375 0 
L 9.8125 0 
z
" id="DejaVuSans-66"/>
     </defs>
     <g transform="translate(432.153125 236.791406)rotate(-90)scale(0.1 -0.1)">
      <use xlink:href="#DejaVuSans-71"/>
      <use x="77.490234" xlink:href="#DejaVuSans-97"/>
      <use x="138.769531" xlink:href="#DejaVuSans-105"/>
      <use x="166.552734" xlink:href="#DejaVuSans-110"/>
      <use x="229.931641" xlink:href="#DejaVuSans-32"/>
      <use x="261.71875" xlink:href="#DejaVuSans-40"/>
      <use x="300.732422" xlink:href="#DejaVuSans-100"/>
      <use x="364.208984" xlink:href="#DejaVuSans-66"/>
      <use x="432.8125" xlink:href="#DejaVuSans-41"/>
     </g>
    </g>
   </g>
   <g id="line2d_52">
    <path clip-path="url(#p886f3e2196)" d="M 472.7 55.05586 
L 479.976953 55.133748 
L 482.887734 55.378961 
L 485.07082 55.75128 
L 487.253906 56.344604 
L 489.436992 57.209354 
L 491.620078 58.391774 
L 493.803164 59.934116 
L 495.98625 61.875686 
L 498.169336 64.254386 
L 500.352422 67.108574 
L 502.535508 70.479192 
L 504.718594 74.412265 
L 506.90168 78.962006 
L 509.084766 84.194986 
L 511.267852 90.196151 
L 513.450937 97.078217 
L 515.634023 104.997437 
L 517.089414 110.96163 
L 518.544805 117.581992 
L 520.000195 124.993351 
L 521.455586 133.395418 
L 522.910977 143.107163 
L 524.366367 154.698399 
L 525.821758 169.395484 
L 526.549453 178.833808 
L 527.277148 191.09738 
L 528.732539 230.573205 
L 529.460234 213.491347 
L 530.18793 212.791589 
L 530.915625 219.185513 
L 531.64332 243.162806 
L 532.371016 226.471597 
L 533.098711 212.705072 
L 533.826406 206.192472 
L 534.554102 202.538876 
L 535.281797 200.555481 
L 536.009492 199.746266 
L 536.737187 199.866393 
L 537.464883 200.791239 
L 538.192578 202.468309 
L 538.920273 204.900467 
L 539.647969 208.147035 
L 540.375664 212.343891 
L 541.103359 217.760203 
L 541.831055 224.959426 
L 542.55875 235.389041 
L 543.286445 255.528988 
L 544.014141 260.266292 
L 544.741836 245.550666 
L 545.469531 241.770653 
L 546.197227 242.15162 
L 546.924922 246.022156 
L 547.652617 255.359386 
L 548.380312 300.742754 
L 549.108008 256.720294 
L 549.835703 245.399076 
L 550.563398 239.784032 
L 551.291094 236.849621 
L 552.018789 235.773165 
L 552.746484 236.3601 
L 553.47418 238.835161 
L 554.201875 244.143826 
L 554.92957 256.158125 
L 555.657266 275.567376 
L 556.384961 246.84523 
L 557.112656 236.614712 
L 557.840352 230.417975 
L 558.568047 226.197099 
L 559.295742 223.237938 
L 560.023437 221.214645 
L 560.751133 219.961562 
L 561.478828 219.397129 
L 562.206523 219.495715 
L 562.934219 220.280895 
L 563.661914 221.834997 
L 564.389609 224.332792 
L 565.117305 228.133294 
L 565.845 234.06856 
L 566.572695 244.787752 
L 567.300391 301.709472 
L 568.028086 245.723287 
L 568.755781 234.373319 
L 569.483477 228.146729 
L 570.211172 224.129655 
L 570.938867 221.433535 
L 571.666562 219.677176 
L 572.394258 218.672995 
L 573.121953 218.328802 
L 573.849648 218.611732 
L 574.577344 219.53735 
L 575.305039 221.175079 
L 576.032734 223.674219 
L 576.76043 227.334871 
L 577.488125 232.818532 
L 578.21582 242.005311 
L 578.943516 266.634499 
L 580.398906 237.812438 
L 581.126602 230.875864 
L 581.854297 226.552161 
L 582.581992 223.694061 
L 583.309687 221.838508 
L 584.037383 220.76298 
L 584.765078 220.356632 
L 585.492773 220.57391 
L 586.220469 221.418755 
L 586.948164 222.94597 
L 587.675859 225.280834 
L 588.403555 228.67419 
L 589.13125 233.658983 
L 589.858945 241.623156 
L 590.586641 258.781901 
L 591.314336 261.564455 
L 592.042031 243.013178 
L 592.769727 235.049074 
L 593.497422 230.261514 
L 594.225117 227.129641 
L 594.952812 225.083759 
L 595.680508 223.858331 
L 596.408203 223.320554 
L 597.135898 223.410766 
L 597.863594 224.120956 
L 598.591289 225.492135 
L 599.318984 227.628528 
L 600.04668 230.740462 
L 600.774375 235.262582 
L 601.50207 242.250795 
L 602.229766 255.553644 
L 602.957461 277.781583 
L 603.685156 249.168485 
L 604.412852 239.818163 
L 605.140547 234.451093 
L 605.868242 230.983654 
L 606.595937 228.705279 
L 607.323633 227.29744 
L 608.051328 226.601712 
L 608.779023 226.542926 
L 609.506719 227.100865 
L 610.234414 228.303532 
L 610.962109 230.236602 
L 611.689805 233.076723 
L 612.4175 237.181926 
L 613.145195 243.374681 
L 613.872891 254.246614 
L 614.600586 305.023354 
L 615.328281 256.190917 
L 616.055977 244.918103 
L 616.783672 238.845291 
L 617.511367 234.98916 
L 618.239062 232.448603 
L 618.966758 230.838933 
L 619.694453 229.971517 
L 620.422148 229.753929 
L 621.149844 230.153313 
L 621.877539 231.185214 
L 622.605234 232.918745 
L 623.33293 235.502185 
L 624.060625 239.232783 
L 624.78832 244.763381 
L 625.516016 253.937284 
L 626.243711 277.949754 
L 627.699102 250.287153 
L 628.426797 243.346442 
L 629.154492 239.0441 
L 629.882187 236.2137 
L 630.609883 234.386573 
L 631.337578 233.337999 
L 632.065273 232.956076 
L 632.792969 233.194616 
L 633.520664 234.057011 
L 634.248359 235.597358 
L 634.976055 237.939706 
L 635.70375 241.332289 
L 636.431445 246.301277 
L 637.159141 254.210142 
L 637.886836 271.070238 
L 638.614531 274.909974 
L 639.342227 255.966818 
L 640.069922 247.931996 
L 640.797617 243.114128 
L 641.525312 239.963867 
L 642.253008 237.90393 
L 642.980703 236.665877 
L 643.708398 236.115496 
L 644.436094 236.192279 
L 645.163789 236.887532 
L 645.891484 238.241501 
L 646.61918 240.35725 
L 647.346875 243.442878 
L 648.07457 247.927737 
L 648.802266 254.85077 
L 649.529961 267.958967 
L 650.257656 291.809022 
L 650.985352 262.084568 
L 651.713047 252.618672 
L 652.440742 247.197007 
L 653.168437 243.691784 
L 653.896133 241.382223 
L 654.623828 239.946122 
L 655.351523 239.22335 
L 656.079219 239.137746 
L 656.806914 239.668352 
L 657.534609 240.842406 
L 658.262305 242.744526 
L 658.99 245.54947 
L 659.717695 249.611082 
L 660.445391 255.739657 
L 661.173086 266.468694 
L 661.900781 312.751351 
L 662.628477 268.888667 
L 663.356172 257.450443 
L 664.083867 251.308196 
L 664.811562 247.405336 
L 665.539258 244.826717 
L 666.266953 243.182997 
L 666.994648 242.283493 
L 667.722344 242.034649 
L 668.450039 242.402814 
L 669.177734 243.40278 
L 669.90543 245.102696 
L 670.633125 247.649229 
L 671.36082 251.336266 
L 672.088516 256.807654 
L 672.816211 265.870437 
L 673.543906 289.215556 
L 674.271602 276.875793 
L 674.999297 262.498099 
L 675.726992 255.47511 
L 676.454687 251.1214 
L 677.182383 248.250644 
L 677.910078 246.388202 
L 678.637773 245.306875 
L 679.365469 244.893465 
L 680.093164 245.100928 
L 680.820859 245.931912 
L 681.548555 247.439622 
L 682.27625 249.746717 
L 683.003945 253.098696 
L 683.731641 258.014915 
L 684.459336 265.834824 
L 685.187031 282.375645 
L 685.914727 287.25008 
L 686.642422 267.868246 
L 687.370117 259.735631 
L 688.097812 254.863283 
L 688.825508 251.672526 
L 689.553203 249.57827 
L 690.280898 248.30904 
L 691.008594 247.729126 
L 691.736289 247.777089 
L 692.463984 248.443482 
L 693.19168 249.767719 
L 693.919375 251.851649 
L 694.64707 254.901112 
L 695.374766 259.340192 
L 696.102461 266.191178 
L 696.830156 279.103266 
L 697.557852 304.677958 
L 698.285547 273.72635 
L 699.013242 264.139351 
L 699.740937 258.660087 
L 700.468633 255.11525 
L 701.196328 252.773611 
L 701.924023 251.309211 
L 702.651719 250.560159 
L 703.379414 250.449267 
L 704.107109 250.954804 
L 704.834805 252.103219 
L 705.5625 253.978052 
L 706.290195 256.752169 
L 707.017891 260.775263 
L 707.745586 266.845669 
L 708.473281 277.440552 
L 709.200977 320.290419 
L 709.928672 280.351025 
L 710.656367 268.751457 
L 711.384062 262.547333 
L 712.111758 258.606201 
L 712.839453 255.998563 
L 713.567148 254.330343 
L 714.294844 253.408768 
L 715.022539 253.139131 
L 715.750234 253.48697 
L 716.47793 254.466317 
L 717.205625 256.14435 
L 717.93332 258.66613 
L 718.661016 262.322218 
L 719.388711 267.747618 
L 720.116406 276.714082 
L 720.844102 299.444059 
L 721.571797 288.27916 
L 722.299492 273.66028 
L 723.027187 266.56869 
L 723.754883 262.178233 
L 724.482578 259.28222 
L 725.210273 257.399936 
L 725.937969 256.301666 
L 726.665664 255.872905 
L 727.393359 256.065744 
L 728.121055 256.882081 
L 728.84875 258.374234 
L 729.576445 260.663482 
L 730.304141 263.992617 
L 731.031836 268.874294 
L 731.759531 276.624512 
L 732.487227 292.87555 
L 733.214922 298.813331 
L 733.942617 278.991414 
L 734.670312 270.779049 
L 735.398008 265.871527 
L 736.125703 262.660077 
L 736.853398 260.55166 
L 737.581094 259.271733 
L 738.308789 258.683073 
L 739.036484 258.723305 
L 739.76418 259.382229 
L 740.491875 260.698436 
L 741.21957 262.772569 
L 741.947266 265.808237 
L 742.674961 270.224339 
L 743.402656 277.026873 
L 744.130352 289.770856 
L 744.858047 317.223698 
L 745.585742 284.935649 
L 746.313437 275.249552 
L 747.041133 269.736674 
L 747.768828 266.176826 
L 748.496523 263.828136 
L 749.224219 262.36084 
L 749.951914 261.611276 
L 750.679609 261.501226 
L 751.407305 262.008189 
L 752.135 263.157836 
L 752.862695 265.032642 
L 753.590391 267.803608 
L 754.318086 271.816343 
L 755.045781 277.857461 
L 755.773477 288.349543 
L 756.501172 328.461658 
L 757.228867 291.810595 
L 757.956562 280.075935 
L 758.684258 273.83974 
L 759.411953 269.891006 
L 760.139648 267.285591 
L 760.867344 265.624622 
L 761.595039 264.713227 
L 762.322734 264.455547 
L 763.05043 264.816322 
L 763.778125 265.808834 
L 764.50582 267.499309 
L 765.233516 270.031231 
L 765.961211 273.691896 
L 766.688906 279.107633 
L 767.416602 288.015862 
L 768.144297 310.202715 
L 768.871992 300.222476 
L 769.599687 285.392952 
L 770.327383 278.270855 
L 771.055078 273.88304 
L 771.782773 271.001996 
L 772.510469 269.140854 
L 773.238164 268.067377 
L 773.965859 267.665754 
L 774.693555 267.887234 
L 775.42125 268.732987 
L 776.148945 270.254473 
L 776.876641 272.571623 
L 777.604336 275.924585 
L 778.332031 280.819449 
L 779.059727 288.549343 
L 779.787422 304.570226 
L 780.515117 311.6339 
L 781.242812 291.400954 
L 781.970508 283.159769 
L 782.698203 278.270074 
L 783.425898 275.092248 
L 784.153594 273.025199 
L 784.881289 271.79131 
L 785.608984 271.25187 
L 786.33668 271.343607 
L 787.064375 272.055609 
L 787.79207 273.425691 
L 788.519766 275.553348 
L 789.247461 278.640032 
L 789.975156 283.099588 
L 790.702852 289.922123 
L 791.430547 302.571969 
L 792.158242 332.132939 
L 792.885937 298.419448 
L 793.613633 288.70658 
L 794.341328 283.235989 
L 795.069023 279.739255 
L 795.796719 277.463734 
L 796.524414 276.075878 
L 797.252109 275.41032 
L 797.979805 275.387893 
L 798.7075 275.985415 
L 799.435195 277.227878 
L 800.162891 279.1968 
L 800.890586 282.061446 
L 801.618281 286.163511 
L 802.345977 292.278236 
L 803.073672 302.77541 
L 803.801367 340.716817 
L 804.529062 307.008987 
L 805.256758 295.250572 
L 805.984453 289.100493 
L 806.712148 285.266537 
L 807.439844 282.789787 
L 808.167539 281.266691 
L 808.895234 280.500459 
L 809.62293 280.394289 
L 810.350625 280.912351 
L 811.07832 282.067428 
L 811.806016 283.925067 
L 812.533711 286.627475 
L 813.261406 290.459029 
L 813.989102 296.037869 
L 814.716797 305.068347 
L 815.444492 326.929641 
L 816.172187 318.303193 
L 816.899883 303.455885 
L 817.627578 296.51175 
L 818.355273 292.344516 
L 819.082969 289.705927 
L 819.810664 288.103479 
L 820.538359 287.303055 
L 821.266055 287.188272 
L 821.99375 287.710344 
L 822.721445 288.870605 
L 823.449141 290.720647 
L 824.176836 293.380158 
L 824.904531 297.087883 
L 825.632227 302.344802 
L 826.359922 310.423217 
L 827.087617 326.612503 
L 827.815312 335.228638 
L 828.543008 314.997203 
L 829.270703 307.189945 
L 829.998398 302.812127 
L 830.726094 300.195671 
L 831.453789 298.735016 
L 832.181484 298.153771 
L 832.90918 298.316825 
L 833.636875 299.166043 
L 834.36457 300.697034 
L 835.092266 302.955586 
L 835.819961 306.050771 
L 836.547656 310.195225 
L 837.275352 315.814643 
L 838.003047 323.905254 
L 838.730742 337.87256 
L 839.458437 371.345455 
L 840.186133 337.86461 
L 840.913828 330.313983 
L 841.641523 327.532785 
L 842.369219 327.410167 
L 843.096914 329.571236 
L 843.824609 334.551543 
L 844.552305 344.969874 
L 844.552305 344.969874 
" style="fill:none;stroke:#0072bd;stroke-linecap:square;stroke-width:1.4;"/>
   </g>
   <g id="patch_8">
    <path d="M 472.7 387.16 
L 472.7 39.24 
" style="fill:none;stroke:#000000;stroke-linecap:square;stroke-linejoin:miter;stroke-width:0.8;"/>
   </g>
   <g id="patch_9">
    <path d="M 845.28 387.16 
L 845.28 39.24 
" style="fill:none;stroke:#000000;stroke-linecap:square;stroke-linejoin:miter;stroke-width:0.8;"/>
   </g>
   <g id="patch_10">
    <path d="M 472.7 387.16 
L 845.28 387.16 
" style="fill:none;stroke:#000000;stroke-linecap:square;stroke-linejoin:miter;stroke-width:0.8;"/>
   </g>
   <g id="patch_11">
    <path d="M 472.7 39.24 
L 845.28 39.24 
" style="fill:none;stroke:#000000;stroke-linecap:square;stroke-linejoin:miter;stroke-width:0.8;"/>
   </g>
  </g>
  <g id="text_30">
   <!-- Flat top window -->
   <defs>
    <path d="M 4.203125 54.6875 
L 13.1875 54.6875 
L 24.421875 12.015625 
L 35.59375 54.6875 
L 46.1875 54.6875 
L 57.421875 12.015625 
L 68.609375 54.6875 
L 77.59375 54.6875 
L 63.28125 0 
L 52.6875 0 
L 40.921875 44.828125 
L 29.109375 0 
L 18.5 0 
z
" id="DejaVuSans-119"/>
   </defs>
   <g transform="translate(368.59125 20.7975)scale(0.16 -0.16)">
    <use xlink:href="#DejaVuSans-70"/>
    <use x="57.519531" xlink:href="#DejaVuSans-108"/>
    <use x="85.302734" xlink:href="#DejaVuSans-97"/>
    <use x="146.582031" xlink:href="#DejaVuSans-116"/>
    <use x="185.791016" xlink:href="#DejaVuSans-32"/>
    <use x="217.578125" xlink:href="#DejaVuSans-116"/>
    <use x="256.787109" xlink:href="#DejaVuSans-111"/>
    <use x="317.96875" xlink:href="#DejaVuSans-112"/>
    <use x="381.445312" xlink:href="#DejaVuSans-32"/>
    <use x="413.232422" xlink:href="#DejaVuSans-119"/>
    <use x="495.019531" xlink:href="#DejaVuSans-105"/>
    <use x="522.802734" xlink:href="#DejaVuSans-110"/>
    <use x="586.181641" xlink:href="#DejaVuSans-100"/>
    <use x="649.658203" xlink:href="#DejaVuSans-111"/>
    <use x="710.839844" xlink:href="#DejaVuSans-119"/>
   </g>
  </g>
 </g>
 <defs>
  <clipPath id="pf343411e61">
   <rect height="347.92" width="372.58" x="38.27" y="39.24"/>
  </clipPath>
  <clipPath id="p886f3e2196">
   <rect height="347.92" width="372.58" x="472.7" y="39.24"/>
  </clipPath>
 </defs>
</svg>
