<?xml version="1.0" encoding="utf-8" standalone="no"?>
<!DOCTYPE svg PUBLIC "-//W3C//DTD SVG 1.1//EN"
  "http://www.w3.org/Graphics/SVG/1.1/DTD/svg11.dtd">
<!-- Created with matplotlib (https://matplotlib.org/) -->
<svg height="432pt" version="1.1" viewBox="0 0 864 432" width="864pt" xmlns="http://www.w3.org/2000/svg" xmlns:xlink="http://www.w3.org/1999/xlink">
 <defs>
  <style type="text/css">
*{stroke-linecap:butt;stroke-linejoin:round;}
  </style>
 </defs>
 <g id="figure_1">
  <g id="patch_1">
   <path d="M 0 432 
L 864 432 
L 864 0 
L 0 0 
z
" style="fill:#ffffff;"/>
  </g>
  <g id="axes_1">
   <g id="patch_2">
    <path d="M 47.72 387.16 
L 415.62 387.16 
L 415.62 39.24 
L 47.72 39.24 
z
" style="fill:#ffffff;"/>
   </g>
   <g id="matplotlib.axis_1">
    <g id="xtick_1">
     <g id="line2d_1">
      <path clip-path="url(#pb03e30ffcd)" d="M 47.72 387.16 
L 47.72 39.24 
" style="fill:none;stroke:#777777;stroke-linecap:square;stroke-width:0.8;"/>
     </g>
     <g id="line2d_2">
      <defs>
       <path d="M 0 0 
L 0 3.5 
" id="m051ce10a63" style="stroke:#000000;stroke-width:0.8;"/>
      </defs>
      <g>
       <use style="stroke:#000000;stroke-width:0.8;" x="47.72" xlink:href="#m051ce10a63" y="387.16"/>
      </g>
     </g>
     <g id="text_1">
      <!-- 0 -->
      <defs>
       <path d="M 31.78125 66.40625 
Q 24.171875 66.40625 20.328125 58.90625 
Q 16.5 51.421875 16.5 36.375 
Q 16.5 21.390625 20.328125 13.890625 
Q 24.171875 6.390625 31.78125 6.390625 
Q 39.453125 6.390625 43.28125 13.890625 
Q 47.125 21.390625 47.125 36.375 
Q 47.125 51.421875 43.28125 58.90625 
Q 39.453125 66.40625 31.78125 66.40625 
z
M 31.78125 74.21875 
Q 44.046875 74.21875 50.515625 64.515625 
Q 56.984375 54.828125 56.984375 36.375 
Q 56.984375 17.96875 50.515625 8.265625 
Q 44.046875 -1.421875 31.78125 -1.421875 
Q 19.53125 -1.421875 13.0625 8.265625 
Q 6.59375 17.96875 6.59375 36.375 
Q 6.59375 54.828125 13.0625 64.515625 
Q 19.53125 74.21875 31.78125 74.21875 
z
" id="DejaVuSans-48"/>
      </defs>
      <g transform="translate(44.53875 401.758438)scale(0.1 -0.1)">
       <use xlink:href="#DejaVuSans-48"/>
      </g>
     </g>
    </g>
    <g id="xtick_2">
     <g id="line2d_3">
      <path clip-path="url(#pb03e30ffcd)" d="M 106.116825 387.16 
L 106.116825 39.24 
" style="fill:none;stroke:#777777;stroke-linecap:square;stroke-width:0.8;"/>
     </g>
     <g id="line2d_4">
      <g>
       <use style="stroke:#000000;stroke-width:0.8;" x="106.116825" xlink:href="#m051ce10a63" y="387.16"/>
      </g>
     </g>
     <g id="text_2">
      <!-- 10 -->
      <defs>
       <path d="M 12.40625 8.296875 
L 28.515625 8.296875 
L 28.515625 63.921875 
L 10.984375 60.40625 
L 10.984375 69.390625 
L 28.421875 72.90625 
L 38.28125 72.90625 
L 38.28125 8.296875 
L 54.390625 8.296875 
L 54.390625 0 
L 12.40625 0 
z
" id="DejaVuSans-49"/>
      </defs>
      <g transform="translate(99.754325 401.758438)scale(0.1 -0.1)">
       <use xlink:href="#DejaVuSans-49"/>
       <use x="63.623047" xlink:href="#DejaVuSans-48"/>
      </g>
     </g>
    </g>
    <g id="xtick_3">
     <g id="line2d_5">
      <path clip-path="url(#pb03e30ffcd)" d="M 164.513651 387.16 
L 164.513651 39.24 
" style="fill:none;stroke:#777777;stroke-linecap:square;stroke-width:0.8;"/>
     </g>
     <g id="line2d_6">
      <g>
       <use style="stroke:#000000;stroke-width:0.8;" x="164.513651" xlink:href="#m051ce10a63" y="387.16"/>
      </g>
     </g>
     <g id="text_3">
      <!-- 20 -->
      <defs>
       <path d="M 19.1875 8.296875 
L 53.609375 8.296875 
L 53.609375 0 
L 7.328125 0 
L 7.328125 8.296875 
Q 12.9375 14.109375 22.625 23.890625 
Q 32.328125 33.6875 34.8125 36.53125 
Q 39.546875 41.84375 41.421875 45.53125 
Q 43.3125 49.21875 43.3125 52.78125 
Q 43.3125 58.59375 39.234375 62.25 
Q 35.15625 65.921875 28.609375 65.921875 
Q 23.96875 65.921875 18.8125 64.3125 
Q 13.671875 62.703125 7.8125 59.421875 
L 7.8125 69.390625 
Q 13.765625 71.78125 18.9375 73 
Q 24.125 74.21875 28.421875 74.21875 
Q 39.75 74.21875 46.484375 68.546875 
Q 53.21875 62.890625 53.21875 53.421875 
Q 53.21875 48.921875 51.53125 44.890625 
Q 49.859375 40.875 45.40625 35.40625 
Q 44.1875 33.984375 37.640625 27.21875 
Q 31.109375 20.453125 19.1875 8.296875 
z
" id="DejaVuSans-50"/>
      </defs>
      <g transform="translate(158.151151 401.758438)scale(0.1 -0.1)">
       <use xlink:href="#DejaVuSans-50"/>
       <use x="63.623047" xlink:href="#DejaVuSans-48"/>
      </g>
     </g>
    </g>
    <g id="xtick_4">
     <g id="line2d_7">
      <path clip-path="url(#pb03e30ffcd)" d="M 222.910476 387.16 
L 222.910476 39.24 
" style="fill:none;stroke:#777777;stroke-linecap:square;stroke-width:0.8;"/>
     </g>
     <g id="line2d_8">
      <g>
       <use style="stroke:#000000;stroke-width:0.8;" x="222.910476" xlink:href="#m051ce10a63" y="387.16"/>
      </g>
     </g>
     <g id="text_4">
      <!-- 30 -->
      <defs>
       <path d="M 40.578125 39.3125 
Q 47.65625 37.796875 51.625 33 
Q 55.609375 28.21875 55.609375 21.1875 
Q 55.609375 10.40625 48.1875 4.484375 
Q 40.765625 -1.421875 27.09375 -1.421875 
Q 22.515625 -1.421875 17.65625 -0.515625 
Q 12.796875 0.390625 7.625 2.203125 
L 7.625 11.71875 
Q 11.71875 9.328125 16.59375 8.109375 
Q 21.484375 6.890625 26.8125 6.890625 
Q 36.078125 6.890625 40.9375 10.546875 
Q 45.796875 14.203125 45.796875 21.1875 
Q 45.796875 27.640625 41.28125 31.265625 
Q 36.765625 34.90625 28.71875 34.90625 
L 20.21875 34.90625 
L 20.21875 43.015625 
L 29.109375 43.015625 
Q 36.375 43.015625 40.234375 45.921875 
Q 44.09375 48.828125 44.09375 54.296875 
Q 44.09375 59.90625 40.109375 62.90625 
Q 36.140625 65.921875 28.71875 65.921875 
Q 24.65625 65.921875 20.015625 65.03125 
Q 15.375 64.15625 9.8125 62.3125 
L 9.8125 71.09375 
Q 15.4375 72.65625 20.34375 73.4375 
Q 25.25 74.21875 29.59375 74.21875 
Q 40.828125 74.21875 47.359375 69.109375 
Q 53.90625 64.015625 53.90625 55.328125 
Q 53.90625 49.265625 50.4375 45.09375 
Q 46.96875 40.921875 40.578125 39.3125 
z
" id="DejaVuSans-51"/>
      </defs>
      <g transform="translate(216.547976 401.758438)scale(0.1 -0.1)">
       <use xlink:href="#DejaVuSans-51"/>
       <use x="63.623047" xlink:href="#DejaVuSans-48"/>
      </g>
     </g>
    </g>
    <g id="xtick_5">
     <g id="line2d_9">
      <path clip-path="url(#pb03e30ffcd)" d="M 281.307302 387.16 
L 281.307302 39.24 
" style="fill:none;stroke:#777777;stroke-linecap:square;stroke-width:0.8;"/>
     </g>
     <g id="line2d_10">
      <g>
       <use style="stroke:#000000;stroke-width:0.8;" x="281.307302" xlink:href="#m051ce10a63" y="387.16"/>
      </g>
     </g>
     <g id="text_5">
      <!-- 40 -->
      <defs>
       <path d="M 37.796875 64.3125 
L 12.890625 25.390625 
L 37.796875 25.390625 
z
M 35.203125 72.90625 
L 47.609375 72.90625 
L 47.609375 25.390625 
L 58.015625 25.390625 
L 58.015625 17.1875 
L 47.609375 17.1875 
L 47.609375 0 
L 37.796875 0 
L 37.796875 17.1875 
L 4.890625 17.1875 
L 4.890625 26.703125 
z
" id="DejaVuSans-52"/>
      </defs>
      <g transform="translate(274.944802 401.758438)scale(0.1 -0.1)">
       <use xlink:href="#DejaVuSans-52"/>
       <use x="63.623047" xlink:href="#DejaVuSans-48"/>
      </g>
     </g>
    </g>
    <g id="xtick_6">
     <g id="line2d_11">
      <path clip-path="url(#pb03e30ffcd)" d="M 339.704127 387.16 
L 339.704127 39.24 
" style="fill:none;stroke:#777777;stroke-linecap:square;stroke-width:0.8;"/>
     </g>
     <g id="line2d_12">
      <g>
       <use style="stroke:#000000;stroke-width:0.8;" x="339.704127" xlink:href="#m051ce10a63" y="387.16"/>
      </g>
     </g>
     <g id="text_6">
      <!-- 50 -->
      <defs>
       <path d="M 10.796875 72.90625 
L 49.515625 72.90625 
L 49.515625 64.59375 
L 19.828125 64.59375 
L 19.828125 46.734375 
Q 21.96875 47.46875 24.109375 47.828125 
Q 26.265625 48.1875 28.421875 48.1875 
Q 40.625 48.1875 47.75 41.5 
Q 54.890625 34.8125 54.890625 23.390625 
Q 54.890625 11.625 47.5625 5.09375 
Q 40.234375 -1.421875 26.90625 -1.421875 
Q 22.3125 -1.421875 17.546875 -0.640625 
Q 12.796875 0.140625 7.71875 1.703125 
L 7.71875 11.625 
Q 12.109375 9.234375 16.796875 8.0625 
Q 21.484375 6.890625 26.703125 6.890625 
Q 35.15625 6.890625 40.078125 11.328125 
Q 45.015625 15.765625 45.015625 23.390625 
Q 45.015625 31 40.078125 35.4375 
Q 35.15625 39.890625 26.703125 39.890625 
Q 22.75 39.890625 18.8125 39.015625 
Q 14.890625 38.140625 10.796875 36.28125 
z
" id="DejaVuSans-53"/>
      </defs>
      <g transform="translate(333.341627 401.758438)scale(0.1 -0.1)">
       <use xlink:href="#DejaVuSans-53"/>
       <use x="63.623047" xlink:href="#DejaVuSans-48"/>
      </g>
     </g>
    </g>
    <g id="xtick_7">
     <g id="line2d_13">
      <path clip-path="url(#pb03e30ffcd)" d="M 398.100952 387.16 
L 398.100952 39.24 
" style="fill:none;stroke:#777777;stroke-linecap:square;stroke-width:0.8;"/>
     </g>
     <g id="line2d_14">
      <g>
       <use style="stroke:#000000;stroke-width:0.8;" x="398.100952" xlink:href="#m051ce10a63" y="387.16"/>
      </g>
     </g>
     <g id="text_7">
      <!-- 60 -->
      <defs>
       <path d="M 33.015625 40.375 
Q 26.375 40.375 22.484375 35.828125 
Q 18.609375 31.296875 18.609375 23.390625 
Q 18.609375 15.53125 22.484375 10.953125 
Q 26.375 6.390625 33.015625 6.390625 
Q 39.65625 6.390625 43.53125 10.953125 
Q 47.40625 15.53125 47.40625 23.390625 
Q 47.40625 31.296875 43.53125 35.828125 
Q 39.65625 40.375 33.015625 40.375 
z
M 52.59375 71.296875 
L 52.59375 62.3125 
Q 48.875 64.0625 45.09375 64.984375 
Q 41.3125 65.921875 37.59375 65.921875 
Q 27.828125 65.921875 22.671875 59.328125 
Q 17.53125 52.734375 16.796875 39.40625 
Q 19.671875 43.65625 24.015625 45.921875 
Q 28.375 48.1875 33.59375 48.1875 
Q 44.578125 48.1875 50.953125 41.515625 
Q 57.328125 34.859375 57.328125 23.390625 
Q 57.328125 12.15625 50.6875 5.359375 
Q 44.046875 -1.421875 33.015625 -1.421875 
Q 20.359375 -1.421875 13.671875 8.265625 
Q 6.984375 17.96875 6.984375 36.375 
Q 6.984375 53.65625 15.1875 63.9375 
Q 23.390625 74.21875 37.203125 74.21875 
Q 40.921875 74.21875 44.703125 73.484375 
Q 48.484375 72.75 52.59375 71.296875 
z
" id="DejaVuSans-54"/>
      </defs>
      <g transform="translate(391.738452 401.758438)scale(0.1 -0.1)">
       <use xlink:href="#DejaVuSans-54"/>
       <use x="63.623047" xlink:href="#DejaVuSans-48"/>
      </g>
     </g>
    </g>
    <g id="text_8">
     <!-- Samples -->
     <defs>
      <path d="M 53.515625 70.515625 
L 53.515625 60.890625 
Q 47.90625 63.578125 42.921875 64.890625 
Q 37.9375 66.21875 33.296875 66.21875 
Q 25.25 66.21875 20.875 63.09375 
Q 16.5 59.96875 16.5 54.203125 
Q 16.5 49.359375 19.40625 46.890625 
Q 22.3125 44.4375 30.421875 42.921875 
L 36.375 41.703125 
Q 47.40625 39.59375 52.65625 34.296875 
Q 57.90625 29 57.90625 20.125 
Q 57.90625 9.515625 50.796875 4.046875 
Q 43.703125 -1.421875 29.984375 -1.421875 
Q 24.8125 -1.421875 18.96875 -0.25 
Q 13.140625 0.921875 6.890625 3.21875 
L 6.890625 13.375 
Q 12.890625 10.015625 18.65625 8.296875 
Q 24.421875 6.59375 29.984375 6.59375 
Q 38.421875 6.59375 43.015625 9.90625 
Q 47.609375 13.234375 47.609375 19.390625 
Q 47.609375 24.75 44.3125 27.78125 
Q 41.015625 30.8125 33.5 32.328125 
L 27.484375 33.5 
Q 16.453125 35.6875 11.515625 40.375 
Q 6.59375 45.0625 6.59375 53.421875 
Q 6.59375 63.09375 13.40625 68.65625 
Q 20.21875 74.21875 32.171875 74.21875 
Q 37.3125 74.21875 42.625 73.28125 
Q 47.953125 72.359375 53.515625 70.515625 
z
" id="DejaVuSans-83"/>
      <path d="M 34.28125 27.484375 
Q 23.390625 27.484375 19.1875 25 
Q 14.984375 22.515625 14.984375 16.5 
Q 14.984375 11.71875 18.140625 8.90625 
Q 21.296875 6.109375 26.703125 6.109375 
Q 34.1875 6.109375 38.703125 11.40625 
Q 43.21875 16.703125 43.21875 25.484375 
L 43.21875 27.484375 
z
M 52.203125 31.203125 
L 52.203125 0 
L 43.21875 0 
L 43.21875 8.296875 
Q 40.140625 3.328125 35.546875 0.953125 
Q 30.953125 -1.421875 24.3125 -1.421875 
Q 15.921875 -1.421875 10.953125 3.296875 
Q 6 8.015625 6 15.921875 
Q 6 25.140625 12.171875 29.828125 
Q 18.359375 34.515625 30.609375 34.515625 
L 43.21875 34.515625 
L 43.21875 35.40625 
Q 43.21875 41.609375 39.140625 45 
Q 35.0625 48.390625 27.6875 48.390625 
Q 23 48.390625 18.546875 47.265625 
Q 14.109375 46.140625 10.015625 43.890625 
L 10.015625 52.203125 
Q 14.9375 54.109375 19.578125 55.046875 
Q 24.21875 56 28.609375 56 
Q 40.484375 56 46.34375 49.84375 
Q 52.203125 43.703125 52.203125 31.203125 
z
" id="DejaVuSans-97"/>
      <path d="M 52 44.1875 
Q 55.375 50.25 60.0625 53.125 
Q 64.75 56 71.09375 56 
Q 79.640625 56 84.28125 50.015625 
Q 88.921875 44.046875 88.921875 33.015625 
L 88.921875 0 
L 79.890625 0 
L 79.890625 32.71875 
Q 79.890625 40.578125 77.09375 44.375 
Q 74.3125 48.1875 68.609375 48.1875 
Q 61.625 48.1875 57.5625 43.546875 
Q 53.515625 38.921875 53.515625 30.90625 
L 53.515625 0 
L 44.484375 0 
L 44.484375 32.71875 
Q 44.484375 40.625 41.703125 44.40625 
Q 38.921875 48.1875 33.109375 48.1875 
Q 26.21875 48.1875 22.15625 43.53125 
Q 18.109375 38.875 18.109375 30.90625 
L 18.109375 0 
L 9.078125 0 
L 9.078125 54.6875 
L 18.109375 54.6875 
L 18.109375 46.1875 
Q 21.1875 51.21875 25.484375 53.609375 
Q 29.78125 56 35.6875 56 
Q 41.65625 56 45.828125 52.96875 
Q 50 49.953125 52 44.1875 
z
" id="DejaVuSans-109"/>
      <path d="M 18.109375 8.203125 
L 18.109375 -20.796875 
L 9.078125 -20.796875 
L 9.078125 54.6875 
L 18.109375 54.6875 
L 18.109375 46.390625 
Q 20.953125 51.265625 25.265625 53.625 
Q 29.59375 56 35.59375 56 
Q 45.5625 56 51.78125 48.09375 
Q 58.015625 40.1875 58.015625 27.296875 
Q 58.015625 14.40625 51.78125 6.484375 
Q 45.5625 -1.421875 35.59375 -1.421875 
Q 29.59375 -1.421875 25.265625 0.953125 
Q 20.953125 3.328125 18.109375 8.203125 
z
M 48.6875 27.296875 
Q 48.6875 37.203125 44.609375 42.84375 
Q 40.53125 48.484375 33.40625 48.484375 
Q 26.265625 48.484375 22.1875 42.84375 
Q 18.109375 37.203125 18.109375 27.296875 
Q 18.109375 17.390625 22.1875 11.75 
Q 26.265625 6.109375 33.40625 6.109375 
Q 40.53125 6.109375 44.609375 11.75 
Q 48.6875 17.390625 48.6875 27.296875 
z
" id="DejaVuSans-112"/>
      <path d="M 9.421875 75.984375 
L 18.40625 75.984375 
L 18.40625 0 
L 9.421875 0 
z
" id="DejaVuSans-108"/>
      <path d="M 56.203125 29.59375 
L 56.203125 25.203125 
L 14.890625 25.203125 
Q 15.484375 15.921875 20.484375 11.0625 
Q 25.484375 6.203125 34.421875 6.203125 
Q 39.59375 6.203125 44.453125 7.46875 
Q 49.3125 8.734375 54.109375 11.28125 
L 54.109375 2.78125 
Q 49.265625 0.734375 44.1875 -0.34375 
Q 39.109375 -1.421875 33.890625 -1.421875 
Q 20.796875 -1.421875 13.15625 6.1875 
Q 5.515625 13.8125 5.515625 26.8125 
Q 5.515625 40.234375 12.765625 48.109375 
Q 20.015625 56 32.328125 56 
Q 43.359375 56 49.78125 48.890625 
Q 56.203125 41.796875 56.203125 29.59375 
z
M 47.21875 32.234375 
Q 47.125 39.59375 43.09375 43.984375 
Q 39.0625 48.390625 32.421875 48.390625 
Q 24.90625 48.390625 20.390625 44.140625 
Q 15.875 39.890625 15.1875 32.171875 
z
" id="DejaVuSans-101"/>
      <path d="M 44.28125 53.078125 
L 44.28125 44.578125 
Q 40.484375 46.53125 36.375 47.5 
Q 32.28125 48.484375 27.875 48.484375 
Q 21.1875 48.484375 17.84375 46.4375 
Q 14.5 44.390625 14.5 40.28125 
Q 14.5 37.15625 16.890625 35.375 
Q 19.28125 33.59375 26.515625 31.984375 
L 29.59375 31.296875 
Q 39.15625 29.25 43.1875 25.515625 
Q 47.21875 21.78125 47.21875 15.09375 
Q 47.21875 7.46875 41.1875 3.015625 
Q 35.15625 -1.421875 24.609375 -1.421875 
Q 20.21875 -1.421875 15.453125 -0.5625 
Q 10.6875 0.296875 5.421875 2 
L 5.421875 11.28125 
Q 10.40625 8.6875 15.234375 7.390625 
Q 20.0625 6.109375 24.8125 6.109375 
Q 31.15625 6.109375 34.5625 8.28125 
Q 37.984375 10.453125 37.984375 14.40625 
Q 37.984375 18.0625 35.515625 20.015625 
Q 33.0625 21.96875 24.703125 23.78125 
L 21.578125 24.515625 
Q 13.234375 26.265625 9.515625 29.90625 
Q 5.8125 33.546875 5.8125 39.890625 
Q 5.8125 47.609375 11.28125 51.796875 
Q 16.75 56 26.8125 56 
Q 31.78125 56 36.171875 55.265625 
Q 40.578125 54.546875 44.28125 53.078125 
z
" id="DejaVuSans-115"/>
     </defs>
     <g transform="translate(210.316875 415.436563)scale(0.1 -0.1)">
      <use xlink:href="#DejaVuSans-83"/>
      <use x="63.476562" xlink:href="#DejaVuSans-97"/>
      <use x="124.755859" xlink:href="#DejaVuSans-109"/>
      <use x="222.167969" xlink:href="#DejaVuSans-112"/>
      <use x="285.644531" xlink:href="#DejaVuSans-108"/>
      <use x="313.427734" xlink:href="#DejaVuSans-101"/>
      <use x="374.951172" xlink:href="#DejaVuSans-115"/>
     </g>
    </g>
   </g>
   <g id="matplotlib.axis_2">
    <g id="ytick_1">
     <g id="line2d_15">
      <path clip-path="url(#pb03e30ffcd)" d="M 47.72 387.179911 
L 415.62 387.179911 
" style="fill:none;stroke:#777777;stroke-linecap:square;stroke-width:0.8;"/>
     </g>
     <g id="line2d_16">
      <defs>
       <path d="M 0 0 
L -3.5 0 
" id="mddde905191" style="stroke:#000000;stroke-width:0.8;"/>
      </defs>
      <g>
       <use style="stroke:#000000;stroke-width:0.8;" x="47.72" xlink:href="#mddde905191" y="387.179911"/>
      </g>
     </g>
     <g id="text_9">
      <!-- 0.0 -->
      <defs>
       <path d="M 10.6875 12.40625 
L 21 12.40625 
L 21 0 
L 10.6875 0 
z
" id="DejaVuSans-46"/>
      </defs>
      <g transform="translate(24.816875 390.97913)scale(0.1 -0.1)">
       <use xlink:href="#DejaVuSans-48"/>
       <use x="63.623047" xlink:href="#DejaVuSans-46"/>
       <use x="95.410156" xlink:href="#DejaVuSans-48"/>
      </g>
     </g>
    </g>
    <g id="ytick_2">
     <g id="line2d_17">
      <path clip-path="url(#pb03e30ffcd)" d="M 47.72 320.809914 
L 415.62 320.809914 
" style="fill:none;stroke:#777777;stroke-linecap:square;stroke-width:0.8;"/>
     </g>
     <g id="line2d_18">
      <g>
       <use style="stroke:#000000;stroke-width:0.8;" x="47.72" xlink:href="#mddde905191" y="320.809914"/>
      </g>
     </g>
     <g id="text_10">
      <!-- 0.2 -->
      <g transform="translate(24.816875 324.609132)scale(0.1 -0.1)">
       <use xlink:href="#DejaVuSans-48"/>
       <use x="63.623047" xlink:href="#DejaVuSans-46"/>
       <use x="95.410156" xlink:href="#DejaVuSans-50"/>
      </g>
     </g>
    </g>
    <g id="ytick_3">
     <g id="line2d_19">
      <path clip-path="url(#pb03e30ffcd)" d="M 47.72 254.439916 
L 415.62 254.439916 
" style="fill:none;stroke:#777777;stroke-linecap:square;stroke-width:0.8;"/>
     </g>
     <g id="line2d_20">
      <g>
       <use style="stroke:#000000;stroke-width:0.8;" x="47.72" xlink:href="#mddde905191" y="254.439916"/>
      </g>
     </g>
     <g id="text_11">
      <!-- 0.4 -->
      <g transform="translate(24.816875 258.239135)scale(0.1 -0.1)">
       <use xlink:href="#DejaVuSans-48"/>
       <use x="63.623047" xlink:href="#DejaVuSans-46"/>
       <use x="95.410156" xlink:href="#DejaVuSans-52"/>
      </g>
     </g>
    </g>
    <g id="ytick_4">
     <g id="line2d_21">
      <path clip-path="url(#pb03e30ffcd)" d="M 47.72 188.069919 
L 415.62 188.069919 
" style="fill:none;stroke:#777777;stroke-linecap:square;stroke-width:0.8;"/>
     </g>
     <g id="line2d_22">
      <g>
       <use style="stroke:#000000;stroke-width:0.8;" x="47.72" xlink:href="#mddde905191" y="188.069919"/>
      </g>
     </g>
     <g id="text_12">
      <!-- 0.6 -->
      <g transform="translate(24.816875 191.869138)scale(0.1 -0.1)">
       <use xlink:href="#DejaVuSans-48"/>
       <use x="63.623047" xlink:href="#DejaVuSans-46"/>
       <use x="95.410156" xlink:href="#DejaVuSans-54"/>
      </g>
     </g>
    </g>
    <g id="ytick_5">
     <g id="line2d_23">
      <path clip-path="url(#pb03e30ffcd)" d="M 47.72 121.699921 
L 415.62 121.699921 
" style="fill:none;stroke:#777777;stroke-linecap:square;stroke-width:0.8;"/>
     </g>
     <g id="line2d_24">
      <g>
       <use style="stroke:#000000;stroke-width:0.8;" x="47.72" xlink:href="#mddde905191" y="121.699921"/>
      </g>
     </g>
     <g id="text_13">
      <!-- 0.8 -->
      <defs>
       <path d="M 31.78125 34.625 
Q 24.75 34.625 20.71875 30.859375 
Q 16.703125 27.09375 16.703125 20.515625 
Q 16.703125 13.921875 20.71875 10.15625 
Q 24.75 6.390625 31.78125 6.390625 
Q 38.8125 6.390625 42.859375 10.171875 
Q 46.921875 13.96875 46.921875 20.515625 
Q 46.921875 27.09375 42.890625 30.859375 
Q 38.875 34.625 31.78125 34.625 
z
M 21.921875 38.8125 
Q 15.578125 40.375 12.03125 44.71875 
Q 8.5 49.078125 8.5 55.328125 
Q 8.5 64.0625 14.71875 69.140625 
Q 20.953125 74.21875 31.78125 74.21875 
Q 42.671875 74.21875 48.875 69.140625 
Q 55.078125 64.0625 55.078125 55.328125 
Q 55.078125 49.078125 51.53125 44.71875 
Q 48 40.375 41.703125 38.8125 
Q 48.828125 37.15625 52.796875 32.3125 
Q 56.78125 27.484375 56.78125 20.515625 
Q 56.78125 9.90625 50.3125 4.234375 
Q 43.84375 -1.421875 31.78125 -1.421875 
Q 19.734375 -1.421875 13.25 4.234375 
Q 6.78125 9.90625 6.78125 20.515625 
Q 6.78125 27.484375 10.78125 32.3125 
Q 14.796875 37.15625 21.921875 38.8125 
z
M 18.3125 54.390625 
Q 18.3125 48.734375 21.84375 45.5625 
Q 25.390625 42.390625 31.78125 42.390625 
Q 38.140625 42.390625 41.71875 45.5625 
Q 45.3125 48.734375 45.3125 54.390625 
Q 45.3125 60.0625 41.71875 63.234375 
Q 38.140625 66.40625 31.78125 66.40625 
Q 25.390625 66.40625 21.84375 63.234375 
Q 18.3125 60.0625 18.3125 54.390625 
z
" id="DejaVuSans-56"/>
      </defs>
      <g transform="translate(24.816875 125.49914)scale(0.1 -0.1)">
       <use xlink:href="#DejaVuSans-48"/>
       <use x="63.623047" xlink:href="#DejaVuSans-46"/>
       <use x="95.410156" xlink:href="#DejaVuSans-56"/>
      </g>
     </g>
    </g>
    <g id="ytick_6">
     <g id="line2d_25">
      <path clip-path="url(#pb03e30ffcd)" d="M 47.72 55.329924 
L 415.62 55.329924 
" style="fill:none;stroke:#777777;stroke-linecap:square;stroke-width:0.8;"/>
     </g>
     <g id="line2d_26">
      <g>
       <use style="stroke:#000000;stroke-width:0.8;" x="47.72" xlink:href="#mddde905191" y="55.329924"/>
      </g>
     </g>
     <g id="text_14">
      <!-- 1.0 -->
      <g transform="translate(24.816875 59.129143)scale(0.1 -0.1)">
       <use xlink:href="#DejaVuSans-49"/>
       <use x="63.623047" xlink:href="#DejaVuSans-46"/>
       <use x="95.410156" xlink:href="#DejaVuSans-48"/>
      </g>
     </g>
    </g>
    <g id="text_15">
     <!-- Amplitude -->
     <defs>
      <path d="M 34.1875 63.1875 
L 20.796875 26.90625 
L 47.609375 26.90625 
z
M 28.609375 72.90625 
L 39.796875 72.90625 
L 67.578125 0 
L 57.328125 0 
L 50.6875 18.703125 
L 17.828125 18.703125 
L 11.1875 0 
L 0.78125 0 
z
" id="DejaVuSans-65"/>
      <path d="M 9.421875 54.6875 
L 18.40625 54.6875 
L 18.40625 0 
L 9.421875 0 
z
M 9.421875 75.984375 
L 18.40625 75.984375 
L 18.40625 64.59375 
L 9.421875 64.59375 
z
" id="DejaVuSans-105"/>
      <path d="M 18.3125 70.21875 
L 18.3125 54.6875 
L 36.8125 54.6875 
L 36.8125 47.703125 
L 18.3125 47.703125 
L 18.3125 18.015625 
Q 18.3125 11.328125 20.140625 9.421875 
Q 21.96875 7.515625 27.59375 7.515625 
L 36.8125 7.515625 
L 36.8125 0 
L 27.59375 0 
Q 17.1875 0 13.234375 3.875 
Q 9.28125 7.765625 9.28125 18.015625 
L 9.28125 47.703125 
L 2.6875 47.703125 
L 2.6875 54.6875 
L 9.28125 54.6875 
L 9.28125 70.21875 
z
" id="DejaVuSans-116"/>
      <path d="M 8.5 21.578125 
L 8.5 54.6875 
L 17.484375 54.6875 
L 17.484375 21.921875 
Q 17.484375 14.15625 20.5 10.265625 
Q 23.53125 6.390625 29.59375 6.390625 
Q 36.859375 6.390625 41.078125 11.03125 
Q 45.3125 15.671875 45.3125 23.6875 
L 45.3125 54.6875 
L 54.296875 54.6875 
L 54.296875 0 
L 45.3125 0 
L 45.3125 8.40625 
Q 42.046875 3.421875 37.71875 1 
Q 33.40625 -1.421875 27.6875 -1.421875 
Q 18.265625 -1.421875 13.375 4.4375 
Q 8.5 10.296875 8.5 21.578125 
z
M 31.109375 56 
z
" id="DejaVuSans-117"/>
      <path d="M 45.40625 46.390625 
L 45.40625 75.984375 
L 54.390625 75.984375 
L 54.390625 0 
L 45.40625 0 
L 45.40625 8.203125 
Q 42.578125 3.328125 38.25 0.953125 
Q 33.9375 -1.421875 27.875 -1.421875 
Q 17.96875 -1.421875 11.734375 6.484375 
Q 5.515625 14.40625 5.515625 27.296875 
Q 5.515625 40.1875 11.734375 48.09375 
Q 17.96875 56 27.875 56 
Q 33.9375 56 38.25 53.625 
Q 42.578125 51.265625 45.40625 46.390625 
z
M 14.796875 27.296875 
Q 14.796875 17.390625 18.875 11.75 
Q 22.953125 6.109375 30.078125 6.109375 
Q 37.203125 6.109375 41.296875 11.75 
Q 45.40625 17.390625 45.40625 27.296875 
Q 45.40625 37.203125 41.296875 42.84375 
Q 37.203125 48.484375 30.078125 48.484375 
Q 22.953125 48.484375 18.875 42.84375 
Q 14.796875 37.203125 14.796875 27.296875 
z
" id="DejaVuSans-100"/>
     </defs>
     <g transform="translate(18.737188 238.822656)rotate(-90)scale(0.1 -0.1)">
      <use xlink:href="#DejaVuSans-65"/>
      <use x="68.408203" xlink:href="#DejaVuSans-109"/>
      <use x="165.820312" xlink:href="#DejaVuSans-112"/>
      <use x="229.296875" xlink:href="#DejaVuSans-108"/>
      <use x="257.080078" xlink:href="#DejaVuSans-105"/>
      <use x="284.863281" xlink:href="#DejaVuSans-116"/>
      <use x="324.072266" xlink:href="#DejaVuSans-117"/>
      <use x="387.451172" xlink:href="#DejaVuSans-100"/>
      <use x="450.927734" xlink:href="#DejaVuSans-101"/>
     </g>
    </g>
   </g>
   <g id="line2d_27">
    <path clip-path="url(#pb03e30ffcd)" d="M 47.72 387.16 
L 53.559683 387.11218 
L 59.399365 386.95516 
L 65.239048 386.648285 
L 71.07873 386.123933 
L 76.918413 385.287942 
L 82.758095 384.020602 
L 88.597778 382.178542 
L 94.43746 379.597875 
L 100.277143 376.098868 
L 106.116825 371.492371 
L 111.956508 365.588046 
L 117.79619 358.204304 
L 123.635873 349.17963 
L 129.475556 338.384836 
L 135.315238 325.73554 
L 141.154921 311.204123 
L 146.994603 294.830252 
L 152.834286 276.729117 
L 158.673968 257.096542 
L 164.513651 236.210297 
L 170.353333 214.427104 
L 176.193016 192.175131 
L 182.032698 169.942006 
L 187.872381 148.258737 
L 193.712063 127.680193 
L 199.551746 108.763082 
L 205.391429 92.042564 
L 211.231111 78.008795 
L 217.070794 67.084735 
L 222.910476 59.606526 
L 228.750159 55.807619 
L 234.589841 55.807619 
L 240.429524 59.606526 
L 246.269206 67.084735 
L 252.108889 78.008795 
L 257.948571 92.042564 
L 263.788254 108.763082 
L 269.627937 127.680193 
L 275.467619 148.258737 
L 281.307302 169.942006 
L 287.146984 192.175131 
L 292.986667 214.427104 
L 298.826349 236.210297 
L 304.666032 257.096542 
L 310.505714 276.729117 
L 316.345397 294.830252 
L 322.185079 311.204123 
L 328.024762 325.73554 
L 333.864444 338.384836 
L 339.704127 349.17963 
L 345.54381 358.204304 
L 351.383492 365.588046 
L 357.223175 371.492371 
L 363.062857 376.098868 
L 368.90254 379.597875 
L 374.742222 382.178542 
L 380.581905 384.020602 
L 386.421587 385.287942 
L 392.26127 386.123933 
L 398.100952 386.648285 
L 403.940635 386.95516 
L 409.780317 387.11218 
L 415.62 387.16 
" style="fill:none;stroke:#0072bd;stroke-linecap:square;stroke-width:1.4;"/>
    <defs>
     <path d="M 0 1.5 
C 0.397805 1.5 0.77937 1.341951 1.06066 1.06066 
C 1.341951 0.77937 1.5 0.397805 1.5 0 
C 1.5 -0.397805 1.341951 -0.77937 1.06066 -1.06066 
C 0.77937 -1.341951 0.397805 -1.5 0 -1.5 
C -0.397805 -1.5 -0.77937 -1.341951 -1.06066 -1.06066 
C -1.341951 -0.77937 -1.5 -0.397805 -1.5 0 
C -1.5 0.397805 -1.341951 0.77937 -1.06066 1.06066 
C -0.77937 1.341951 -0.397805 1.5 0 1.5 
z
" id="m89e56f0368" style="stroke:#0072bd;"/>
    </defs>
    <g clip-path="url(#pb03e30ffcd)">
     <use style="fill:#0072bd;stroke:#0072bd;" x="47.72" xlink:href="#m89e56f0368" y="387.16"/>
     <use style="fill:#0072bd;stroke:#0072bd;" x="53.559683" xlink:href="#m89e56f0368" y="387.11218"/>
     <use style="fill:#0072bd;stroke:#0072bd;" x="59.399365" xlink:href="#m89e56f0368" y="386.95516"/>
     <use style="fill:#0072bd;stroke:#0072bd;" x="65.239048" xlink:href="#m89e56f0368" y="386.648285"/>
     <use style="fill:#0072bd;stroke:#0072bd;" x="71.07873" xlink:href="#m89e56f0368" y="386.123933"/>
     <use style="fill:#0072bd;stroke:#0072bd;" x="76.918413" xlink:href="#m89e56f0368" y="385.287942"/>
     <use style="fill:#0072bd;stroke:#0072bd;" x="82.758095" xlink:href="#m89e56f0368" y="384.020602"/>
     <use style="fill:#0072bd;stroke:#0072bd;" x="88.597778" xlink:href="#m89e56f0368" y="382.178542"/>
     <use style="fill:#0072bd;stroke:#0072bd;" x="94.43746" xlink:href="#m89e56f0368" y="379.597875"/>
     <use style="fill:#0072bd;stroke:#0072bd;" x="100.277143" xlink:href="#m89e56f0368" y="376.098868"/>
     <use style="fill:#0072bd;stroke:#0072bd;" x="106.116825" xlink:href="#m89e56f0368" y="371.492371"/>
     <use style="fill:#0072bd;stroke:#0072bd;" x="111.956508" xlink:href="#m89e56f0368" y="365.588046"/>
     <use style="fill:#0072bd;stroke:#0072bd;" x="117.79619" xlink:href="#m89e56f0368" y="358.204304"/>
     <use style="fill:#0072bd;stroke:#0072bd;" x="123.635873" xlink:href="#m89e56f0368" y="349.17963"/>
     <use style="fill:#0072bd;stroke:#0072bd;" x="129.475556" xlink:href="#m89e56f0368" y="338.384836"/>
     <use style="fill:#0072bd;stroke:#0072bd;" x="135.315238" xlink:href="#m89e56f0368" y="325.73554"/>
     <use style="fill:#0072bd;stroke:#0072bd;" x="141.154921" xlink:href="#m89e56f0368" y="311.204123"/>
     <use style="fill:#0072bd;stroke:#0072bd;" x="146.994603" xlink:href="#m89e56f0368" y="294.830252"/>
     <use style="fill:#0072bd;stroke:#0072bd;" x="152.834286" xlink:href="#m89e56f0368" y="276.729117"/>
     <use style="fill:#0072bd;stroke:#0072bd;" x="158.673968" xlink:href="#m89e56f0368" y="257.096542"/>
     <use style="fill:#0072bd;stroke:#0072bd;" x="164.513651" xlink:href="#m89e56f0368" y="236.210297"/>
     <use style="fill:#0072bd;stroke:#0072bd;" x="170.353333" xlink:href="#m89e56f0368" y="214.427104"/>
     <use style="fill:#0072bd;stroke:#0072bd;" x="176.193016" xlink:href="#m89e56f0368" y="192.175131"/>
     <use style="fill:#0072bd;stroke:#0072bd;" x="182.032698" xlink:href="#m89e56f0368" y="169.942006"/>
     <use style="fill:#0072bd;stroke:#0072bd;" x="187.872381" xlink:href="#m89e56f0368" y="148.258737"/>
     <use style="fill:#0072bd;stroke:#0072bd;" x="193.712063" xlink:href="#m89e56f0368" y="127.680193"/>
     <use style="fill:#0072bd;stroke:#0072bd;" x="199.551746" xlink:href="#m89e56f0368" y="108.763082"/>
     <use style="fill:#0072bd;stroke:#0072bd;" x="205.391429" xlink:href="#m89e56f0368" y="92.042564"/>
     <use style="fill:#0072bd;stroke:#0072bd;" x="211.231111" xlink:href="#m89e56f0368" y="78.008795"/>
     <use style="fill:#0072bd;stroke:#0072bd;" x="217.070794" xlink:href="#m89e56f0368" y="67.084735"/>
     <use style="fill:#0072bd;stroke:#0072bd;" x="222.910476" xlink:href="#m89e56f0368" y="59.606526"/>
     <use style="fill:#0072bd;stroke:#0072bd;" x="228.750159" xlink:href="#m89e56f0368" y="55.807619"/>
     <use style="fill:#0072bd;stroke:#0072bd;" x="234.589841" xlink:href="#m89e56f0368" y="55.807619"/>
     <use style="fill:#0072bd;stroke:#0072bd;" x="240.429524" xlink:href="#m89e56f0368" y="59.606526"/>
     <use style="fill:#0072bd;stroke:#0072bd;" x="246.269206" xlink:href="#m89e56f0368" y="67.084735"/>
     <use style="fill:#0072bd;stroke:#0072bd;" x="252.108889" xlink:href="#m89e56f0368" y="78.008795"/>
     <use style="fill:#0072bd;stroke:#0072bd;" x="257.948571" xlink:href="#m89e56f0368" y="92.042564"/>
     <use style="fill:#0072bd;stroke:#0072bd;" x="263.788254" xlink:href="#m89e56f0368" y="108.763082"/>
     <use style="fill:#0072bd;stroke:#0072bd;" x="269.627937" xlink:href="#m89e56f0368" y="127.680193"/>
     <use style="fill:#0072bd;stroke:#0072bd;" x="275.467619" xlink:href="#m89e56f0368" y="148.258737"/>
     <use style="fill:#0072bd;stroke:#0072bd;" x="281.307302" xlink:href="#m89e56f0368" y="169.942006"/>
     <use style="fill:#0072bd;stroke:#0072bd;" x="287.146984" xlink:href="#m89e56f0368" y="192.175131"/>
     <use style="fill:#0072bd;stroke:#0072bd;" x="292.986667" xlink:href="#m89e56f0368" y="214.427104"/>
     <use style="fill:#0072bd;stroke:#0072bd;" x="298.826349" xlink:href="#m89e56f0368" y="236.210297"/>
     <use style="fill:#0072bd;stroke:#0072bd;" x="304.666032" xlink:href="#m89e56f0368" y="257.096542"/>
     <use style="fill:#0072bd;stroke:#0072bd;" x="310.505714" xlink:href="#m89e56f0368" y="276.729117"/>
     <use style="fill:#0072bd;stroke:#0072bd;" x="316.345397" xlink:href="#m89e56f0368" y="294.830252"/>
     <use style="fill:#0072bd;stroke:#0072bd;" x="322.185079" xlink:href="#m89e56f0368" y="311.204123"/>
     <use style="fill:#0072bd;stroke:#0072bd;" x="328.024762" xlink:href="#m89e56f0368" y="325.73554"/>
     <use style="fill:#0072bd;stroke:#0072bd;" x="333.864444" xlink:href="#m89e56f0368" y="338.384836"/>
     <use style="fill:#0072bd;stroke:#0072bd;" x="339.704127" xlink:href="#m89e56f0368" y="349.17963"/>
     <use style="fill:#0072bd;stroke:#0072bd;" x="345.54381" xlink:href="#m89e56f0368" y="358.204304"/>
     <use style="fill:#0072bd;stroke:#0072bd;" x="351.383492" xlink:href="#m89e56f0368" y="365.588046"/>
     <use style="fill:#0072bd;stroke:#0072bd;" x="357.223175" xlink:href="#m89e56f0368" y="371.492371"/>
     <use style="fill:#0072bd;stroke:#0072bd;" x="363.062857" xlink:href="#m89e56f0368" y="376.098868"/>
     <use style="fill:#0072bd;stroke:#0072bd;" x="368.90254" xlink:href="#m89e56f0368" y="379.597875"/>
     <use style="fill:#0072bd;stroke:#0072bd;" x="374.742222" xlink:href="#m89e56f0368" y="382.178542"/>
     <use style="fill:#0072bd;stroke:#0072bd;" x="380.581905" xlink:href="#m89e56f0368" y="384.020602"/>
     <use style="fill:#0072bd;stroke:#0072bd;" x="386.421587" xlink:href="#m89e56f0368" y="385.287942"/>
     <use style="fill:#0072bd;stroke:#0072bd;" x="392.26127" xlink:href="#m89e56f0368" y="386.123933"/>
     <use style="fill:#0072bd;stroke:#0072bd;" x="398.100952" xlink:href="#m89e56f0368" y="386.648285"/>
     <use style="fill:#0072bd;stroke:#0072bd;" x="403.940635" xlink:href="#m89e56f0368" y="386.95516"/>
     <use style="fill:#0072bd;stroke:#0072bd;" x="409.780317" xlink:href="#m89e56f0368" y="387.11218"/>
     <use style="fill:#0072bd;stroke:#0072bd;" x="415.62" xlink:href="#m89e56f0368" y="387.16"/>
    </g>
   </g>
   <g id="patch_3">
    <path d="M 47.72 387.16 
L 47.72 39.24 
" style="fill:none;stroke:#000000;stroke-linecap:square;stroke-linejoin:miter;stroke-width:0.8;"/>
   </g>
   <g id="patch_4">
    <path d="M 415.62 387.16 
L 415.62 39.24 
" style="fill:none;stroke:#000000;stroke-linecap:square;stroke-linejoin:miter;stroke-width:0.8;"/>
   </g>
   <g id="patch_5">
    <path d="M 47.72 387.16 
L 415.62 387.16 
" style="fill:none;stroke:#000000;stroke-linecap:square;stroke-linejoin:miter;stroke-width:0.8;"/>
   </g>
   <g id="patch_6">
    <path d="M 47.72 39.24 
L 415.62 39.24 
" style="fill:none;stroke:#000000;stroke-linecap:square;stroke-linejoin:miter;stroke-width:0.8;"/>
   </g>
  </g>
  <g id="axes_2">
   <g id="patch_7">
    <path d="M 477.38 387.16 
L 845.28 387.16 
L 845.28 39.24 
L 477.38 39.24 
z
" style="fill:#ffffff;"/>
   </g>
   <g id="matplotlib.axis_3">
    <g id="xtick_8">
     <g id="line2d_28">
      <path clip-path="url(#p0caa7f17ed)" d="M 477.38 387.16 
L 477.38 39.24 
" style="fill:none;stroke:#777777;stroke-linecap:square;stroke-width:0.8;"/>
     </g>
     <g id="line2d_29">
      <g>
       <use style="stroke:#000000;stroke-width:0.8;" x="477.38" xlink:href="#m051ce10a63" y="387.16"/>
      </g>
     </g>
     <g id="text_16">
      <!-- 0.0 -->
      <g transform="translate(469.428437 401.758438)scale(0.1 -0.1)">
       <use xlink:href="#DejaVuSans-48"/>
       <use x="63.623047" xlink:href="#DejaVuSans-46"/>
       <use x="95.410156" xlink:href="#DejaVuSans-48"/>
      </g>
     </g>
    </g>
    <g id="xtick_9">
     <g id="line2d_30">
      <path clip-path="url(#p0caa7f17ed)" d="M 550.96 387.16 
L 550.96 39.24 
" style="fill:none;stroke:#777777;stroke-linecap:square;stroke-width:0.8;"/>
     </g>
     <g id="line2d_31">
      <g>
       <use style="stroke:#000000;stroke-width:0.8;" x="550.96" xlink:href="#m051ce10a63" y="387.16"/>
      </g>
     </g>
     <g id="text_17">
      <!-- 0.2 -->
      <g transform="translate(543.008437 401.758438)scale(0.1 -0.1)">
       <use xlink:href="#DejaVuSans-48"/>
       <use x="63.623047" xlink:href="#DejaVuSans-46"/>
       <use x="95.410156" xlink:href="#DejaVuSans-50"/>
      </g>
     </g>
    </g>
    <g id="xtick_10">
     <g id="line2d_32">
      <path clip-path="url(#p0caa7f17ed)" d="M 624.54 387.16 
L 624.54 39.24 
" style="fill:none;stroke:#777777;stroke-linecap:square;stroke-width:0.8;"/>
     </g>
     <g id="line2d_33">
      <g>
       <use style="stroke:#000000;stroke-width:0.8;" x="624.54" xlink:href="#m051ce10a63" y="387.16"/>
      </g>
     </g>
     <g id="text_18">
      <!-- 0.4 -->
      <g transform="translate(616.588437 401.758438)scale(0.1 -0.1)">
       <use xlink:href="#DejaVuSans-48"/>
       <use x="63.623047" xlink:href="#DejaVuSans-46"/>
       <use x="95.410156" xlink:href="#DejaVuSans-52"/>
      </g>
     </g>
    </g>
    <g id="xtick_11">
     <g id="line2d_34">
      <path clip-path="url(#p0caa7f17ed)" d="M 698.12 387.16 
L 698.12 39.24 
" style="fill:none;stroke:#777777;stroke-linecap:square;stroke-width:0.8;"/>
     </g>
     <g id="line2d_35">
      <g>
       <use style="stroke:#000000;stroke-width:0.8;" x="698.12" xlink:href="#m051ce10a63" y="387.16"/>
      </g>
     </g>
     <g id="text_19">
      <!-- 0.6 -->
      <g transform="translate(690.168438 401.758438)scale(0.1 -0.1)">
       <use xlink:href="#DejaVuSans-48"/>
       <use x="63.623047" xlink:href="#DejaVuSans-46"/>
       <use x="95.410156" xlink:href="#DejaVuSans-54"/>
      </g>
     </g>
    </g>
    <g id="xtick_12">
     <g id="line2d_36">
      <path clip-path="url(#p0caa7f17ed)" d="M 771.7 387.16 
L 771.7 39.24 
" style="fill:none;stroke:#777777;stroke-linecap:square;stroke-width:0.8;"/>
     </g>
     <g id="line2d_37">
      <g>
       <use style="stroke:#000000;stroke-width:0.8;" x="771.7" xlink:href="#m051ce10a63" y="387.16"/>
      </g>
     </g>
     <g id="text_20">
      <!-- 0.8 -->
      <g transform="translate(763.748438 401.758438)scale(0.1 -0.1)">
       <use xlink:href="#DejaVuSans-48"/>
       <use x="63.623047" xlink:href="#DejaVuSans-46"/>
       <use x="95.410156" xlink:href="#DejaVuSans-56"/>
      </g>
     </g>
    </g>
    <g id="xtick_13">
     <g id="line2d_38">
      <path clip-path="url(#p0caa7f17ed)" d="M 845.28 387.16 
L 845.28 39.24 
" style="fill:none;stroke:#777777;stroke-linecap:square;stroke-width:0.8;"/>
     </g>
     <g id="line2d_39">
      <g>
       <use style="stroke:#000000;stroke-width:0.8;" x="845.28" xlink:href="#m051ce10a63" y="387.16"/>
      </g>
     </g>
     <g id="text_21">
      <!-- 1.0 -->
      <g transform="translate(837.328438 401.758438)scale(0.1 -0.1)">
       <use xlink:href="#DejaVuSans-49"/>
       <use x="63.623047" xlink:href="#DejaVuSans-46"/>
       <use x="95.410156" xlink:href="#DejaVuSans-48"/>
      </g>
     </g>
    </g>
    <g id="text_22">
     <!-- Normalized Frequency ($\times \pi$ rad/sample) -->
     <defs>
      <path d="M 9.8125 72.90625 
L 23.09375 72.90625 
L 55.421875 11.921875 
L 55.421875 72.90625 
L 64.984375 72.90625 
L 64.984375 0 
L 51.703125 0 
L 19.390625 60.984375 
L 19.390625 0 
L 9.8125 0 
z
" id="DejaVuSans-78"/>
      <path d="M 30.609375 48.390625 
Q 23.390625 48.390625 19.1875 42.75 
Q 14.984375 37.109375 14.984375 27.296875 
Q 14.984375 17.484375 19.15625 11.84375 
Q 23.34375 6.203125 30.609375 6.203125 
Q 37.796875 6.203125 41.984375 11.859375 
Q 46.1875 17.53125 46.1875 27.296875 
Q 46.1875 37.015625 41.984375 42.703125 
Q 37.796875 48.390625 30.609375 48.390625 
z
M 30.609375 56 
Q 42.328125 56 49.015625 48.375 
Q 55.71875 40.765625 55.71875 27.296875 
Q 55.71875 13.875 49.015625 6.21875 
Q 42.328125 -1.421875 30.609375 -1.421875 
Q 18.84375 -1.421875 12.171875 6.21875 
Q 5.515625 13.875 5.515625 27.296875 
Q 5.515625 40.765625 12.171875 48.375 
Q 18.84375 56 30.609375 56 
z
" id="DejaVuSans-111"/>
      <path d="M 41.109375 46.296875 
Q 39.59375 47.171875 37.8125 47.578125 
Q 36.03125 48 33.890625 48 
Q 26.265625 48 22.1875 43.046875 
Q 18.109375 38.09375 18.109375 28.8125 
L 18.109375 0 
L 9.078125 0 
L 9.078125 54.6875 
L 18.109375 54.6875 
L 18.109375 46.1875 
Q 20.953125 51.171875 25.484375 53.578125 
Q 30.03125 56 36.53125 56 
Q 37.453125 56 38.578125 55.875 
Q 39.703125 55.765625 41.0625 55.515625 
z
" id="DejaVuSans-114"/>
      <path d="M 5.515625 54.6875 
L 48.1875 54.6875 
L 48.1875 46.484375 
L 14.40625 7.171875 
L 48.1875 7.171875 
L 48.1875 0 
L 4.296875 0 
L 4.296875 8.203125 
L 38.09375 47.515625 
L 5.515625 47.515625 
z
" id="DejaVuSans-122"/>
      <path id="DejaVuSans-32"/>
      <path d="M 9.8125 72.90625 
L 51.703125 72.90625 
L 51.703125 64.59375 
L 19.671875 64.59375 
L 19.671875 43.109375 
L 48.578125 43.109375 
L 48.578125 34.8125 
L 19.671875 34.8125 
L 19.671875 0 
L 9.8125 0 
z
" id="DejaVuSans-70"/>
      <path d="M 14.796875 27.296875 
Q 14.796875 17.390625 18.875 11.75 
Q 22.953125 6.109375 30.078125 6.109375 
Q 37.203125 6.109375 41.296875 11.75 
Q 45.40625 17.390625 45.40625 27.296875 
Q 45.40625 37.203125 41.296875 42.84375 
Q 37.203125 48.484375 30.078125 48.484375 
Q 22.953125 48.484375 18.875 42.84375 
Q 14.796875 37.203125 14.796875 27.296875 
z
M 45.40625 8.203125 
Q 42.578125 3.328125 38.25 0.953125 
Q 33.9375 -1.421875 27.875 -1.421875 
Q 17.96875 -1.421875 11.734375 6.484375 
Q 5.515625 14.40625 5.515625 27.296875 
Q 5.515625 40.1875 11.734375 48.09375 
Q 17.96875 56 27.875 56 
Q 33.9375 56 38.25 53.625 
Q 42.578125 51.265625 45.40625 46.390625 
L 45.40625 54.6875 
L 54.390625 54.6875 
L 54.390625 -20.796875 
L 45.40625 -20.796875 
z
" id="DejaVuSans-113"/>
      <path d="M 54.890625 33.015625 
L 54.890625 0 
L 45.90625 0 
L 45.90625 32.71875 
Q 45.90625 40.484375 42.875 44.328125 
Q 39.84375 48.1875 33.796875 48.1875 
Q 26.515625 48.1875 22.3125 43.546875 
Q 18.109375 38.921875 18.109375 30.90625 
L 18.109375 0 
L 9.078125 0 
L 9.078125 54.6875 
L 18.109375 54.6875 
L 18.109375 46.1875 
Q 21.34375 51.125 25.703125 53.5625 
Q 30.078125 56 35.796875 56 
Q 45.21875 56 50.046875 50.171875 
Q 54.890625 44.34375 54.890625 33.015625 
z
" id="DejaVuSans-110"/>
      <path d="M 48.78125 52.59375 
L 48.78125 44.1875 
Q 44.96875 46.296875 41.140625 47.34375 
Q 37.3125 48.390625 33.40625 48.390625 
Q 24.65625 48.390625 19.8125 42.84375 
Q 14.984375 37.3125 14.984375 27.296875 
Q 14.984375 17.28125 19.8125 11.734375 
Q 24.65625 6.203125 33.40625 6.203125 
Q 37.3125 6.203125 41.140625 7.25 
Q 44.96875 8.296875 48.78125 10.40625 
L 48.78125 2.09375 
Q 45.015625 0.34375 40.984375 -0.53125 
Q 36.96875 -1.421875 32.421875 -1.421875 
Q 20.0625 -1.421875 12.78125 6.34375 
Q 5.515625 14.109375 5.515625 27.296875 
Q 5.515625 40.671875 12.859375 48.328125 
Q 20.21875 56 33.015625 56 
Q 37.15625 56 41.109375 55.140625 
Q 45.0625 54.296875 48.78125 52.59375 
z
" id="DejaVuSans-99"/>
      <path d="M 32.171875 -5.078125 
Q 28.375 -14.84375 24.75 -17.8125 
Q 21.140625 -20.796875 15.09375 -20.796875 
L 7.90625 -20.796875 
L 7.90625 -13.28125 
L 13.1875 -13.28125 
Q 16.890625 -13.28125 18.9375 -11.515625 
Q 21 -9.765625 23.484375 -3.21875 
L 25.09375 0.875 
L 2.984375 54.6875 
L 12.5 54.6875 
L 29.59375 11.921875 
L 46.6875 54.6875 
L 56.203125 54.6875 
z
" id="DejaVuSans-121"/>
      <path d="M 31 75.875 
Q 24.46875 64.65625 21.28125 53.65625 
Q 18.109375 42.671875 18.109375 31.390625 
Q 18.109375 20.125 21.3125 9.0625 
Q 24.515625 -2 31 -13.1875 
L 23.1875 -13.1875 
Q 15.875 -1.703125 12.234375 9.375 
Q 8.59375 20.453125 8.59375 31.390625 
Q 8.59375 42.28125 12.203125 53.3125 
Q 15.828125 64.359375 23.1875 75.875 
z
" id="DejaVuSans-40"/>
      <path d="M 70.125 53.71875 
L 47.796875 31.296875 
L 70.125 8.984375 
L 64.3125 3.078125 
L 41.890625 25.484375 
L 19.484375 3.078125 
L 13.71875 8.984375 
L 35.984375 31.296875 
L 13.71875 53.71875 
L 19.484375 59.625 
L 41.890625 37.203125 
L 64.3125 59.625 
z
" id="DejaVuSans-215"/>
      <path d="M 9.125 54.6875 
L 61.53125 54.6875 
L 59.765625 45.703125 
L 52.875 45.703125 
L 46.34375 12.109375 
Q 45.65625 8.59375 46.578125 7.03125 
Q 47.46875 5.515625 50.140625 5.515625 
Q 50.875 5.515625 51.953125 5.671875 
Q 53.078125 5.765625 53.421875 5.8125 
L 52.15625 -0.6875 
Q 50.34375 -1.3125 48.484375 -1.609375 
Q 46.578125 -1.90625 44.78125 -1.90625 
Q 38.921875 -1.90625 37.3125 1.265625 
Q 35.6875 4.5 37.359375 13.09375 
L 43.703125 45.703125 
L 23.53125 45.703125 
L 14.65625 0 
L 5.46875 0 
L 14.359375 45.703125 
L 7.375 45.703125 
z
" id="DejaVuSans-Oblique-960"/>
      <path d="M 25.390625 72.90625 
L 33.6875 72.90625 
L 8.296875 -9.28125 
L 0 -9.28125 
z
" id="DejaVuSans-47"/>
      <path d="M 8.015625 75.875 
L 15.828125 75.875 
Q 23.140625 64.359375 26.78125 53.3125 
Q 30.421875 42.28125 30.421875 31.390625 
Q 30.421875 20.453125 26.78125 9.375 
Q 23.140625 -1.703125 15.828125 -13.1875 
L 8.015625 -13.1875 
Q 14.5 -2 17.703125 9.0625 
Q 20.90625 20.125 20.90625 31.390625 
Q 20.90625 42.671875 17.703125 53.65625 
Q 14.5 64.65625 8.015625 75.875 
z
" id="DejaVuSans-41"/>
     </defs>
     <g transform="translate(562.53 415.438125)scale(0.1 -0.1)">
      <use transform="translate(0 0.015625)" xlink:href="#DejaVuSans-78"/>
      <use transform="translate(74.804688 0.015625)" xlink:href="#DejaVuSans-111"/>
      <use transform="translate(135.986328 0.015625)" xlink:href="#DejaVuSans-114"/>
      <use transform="translate(177.099609 0.015625)" xlink:href="#DejaVuSans-109"/>
      <use transform="translate(274.511719 0.015625)" xlink:href="#DejaVuSans-97"/>
      <use transform="translate(335.791016 0.015625)" xlink:href="#DejaVuSans-108"/>
      <use transform="translate(363.574219 0.015625)" xlink:href="#DejaVuSans-105"/>
      <use transform="translate(391.357422 0.015625)" xlink:href="#DejaVuSans-122"/>
      <use transform="translate(443.847656 0.015625)" xlink:href="#DejaVuSans-101"/>
      <use transform="translate(505.371094 0.015625)" xlink:href="#DejaVuSans-100"/>
      <use transform="translate(568.847656 0.015625)" xlink:href="#DejaVuSans-32"/>
      <use transform="translate(600.634766 0.015625)" xlink:href="#DejaVuSans-70"/>
      <use transform="translate(658.154297 0.015625)" xlink:href="#DejaVuSans-114"/>
      <use transform="translate(699.267578 0.015625)" xlink:href="#DejaVuSans-101"/>
      <use transform="translate(760.791016 0.015625)" xlink:href="#DejaVuSans-113"/>
      <use transform="translate(824.267578 0.015625)" xlink:href="#DejaVuSans-117"/>
      <use transform="translate(887.646484 0.015625)" xlink:href="#DejaVuSans-101"/>
      <use transform="translate(949.169922 0.015625)" xlink:href="#DejaVuSans-110"/>
      <use transform="translate(1012.548828 0.015625)" xlink:href="#DejaVuSans-99"/>
      <use transform="translate(1067.529297 0.015625)" xlink:href="#DejaVuSans-121"/>
      <use transform="translate(1126.708984 0.015625)" xlink:href="#DejaVuSans-32"/>
      <use transform="translate(1158.496094 0.015625)" xlink:href="#DejaVuSans-40"/>
      <use transform="translate(1197.509766 0.015625)" xlink:href="#DejaVuSans-215"/>
      <use transform="translate(1281.298828 0.015625)" xlink:href="#DejaVuSans-Oblique-960"/>
      <use transform="translate(1341.503906 0.015625)" xlink:href="#DejaVuSans-32"/>
      <use transform="translate(1373.291016 0.015625)" xlink:href="#DejaVuSans-114"/>
      <use transform="translate(1414.404297 0.015625)" xlink:href="#DejaVuSans-97"/>
      <use transform="translate(1475.683594 0.015625)" xlink:href="#DejaVuSans-100"/>
      <use transform="translate(1539.160156 0.015625)" xlink:href="#DejaVuSans-47"/>
      <use transform="translate(1572.851562 0.015625)" xlink:href="#DejaVuSans-115"/>
      <use transform="translate(1624.951172 0.015625)" xlink:href="#DejaVuSans-97"/>
      <use transform="translate(1686.230469 0.015625)" xlink:href="#DejaVuSans-109"/>
      <use transform="translate(1783.642578 0.015625)" xlink:href="#DejaVuSans-112"/>
      <use transform="translate(1847.119141 0.015625)" xlink:href="#DejaVuSans-108"/>
      <use transform="translate(1874.902344 0.015625)" xlink:href="#DejaVuSans-101"/>
      <use transform="translate(1936.425781 0.015625)" xlink:href="#DejaVuSans-41"/>
     </g>
    </g>
   </g>
   <g id="matplotlib.axis_4">
    <g id="ytick_7">
     <g id="line2d_40">
      <path clip-path="url(#p0caa7f17ed)" d="M 477.38 360.16109 
L 845.28 360.16109 
" style="fill:none;stroke:#777777;stroke-linecap:square;stroke-width:0.8;"/>
     </g>
     <g id="line2d_41">
      <g>
       <use style="stroke:#000000;stroke-width:0.8;" x="477.38" xlink:href="#mddde905191" y="360.16109"/>
      </g>
     </g>
     <g id="text_23">
      <!-- −120 -->
      <defs>
       <path d="M 10.59375 35.5 
L 73.1875 35.5 
L 73.1875 27.203125 
L 10.59375 27.203125 
z
" id="DejaVuSans-8722"/>
      </defs>
      <g transform="translate(442.912812 363.960308)scale(0.1 -0.1)">
       <use xlink:href="#DejaVuSans-8722"/>
       <use x="83.789062" xlink:href="#DejaVuSans-49"/>
       <use x="147.412109" xlink:href="#DejaVuSans-50"/>
       <use x="211.035156" xlink:href="#DejaVuSans-48"/>
      </g>
     </g>
    </g>
    <g id="ytick_8">
     <g id="line2d_42">
      <path clip-path="url(#p0caa7f17ed)" d="M 477.38 318.673328 
L 845.28 318.673328 
" style="fill:none;stroke:#777777;stroke-linecap:square;stroke-width:0.8;"/>
     </g>
     <g id="line2d_43">
      <g>
       <use style="stroke:#000000;stroke-width:0.8;" x="477.38" xlink:href="#mddde905191" y="318.673328"/>
      </g>
     </g>
     <g id="text_24">
      <!-- −100 -->
      <g transform="translate(442.912812 322.472546)scale(0.1 -0.1)">
       <use xlink:href="#DejaVuSans-8722"/>
       <use x="83.789062" xlink:href="#DejaVuSans-49"/>
       <use x="147.412109" xlink:href="#DejaVuSans-48"/>
       <use x="211.035156" xlink:href="#DejaVuSans-48"/>
      </g>
     </g>
    </g>
    <g id="ytick_9">
     <g id="line2d_44">
      <path clip-path="url(#p0caa7f17ed)" d="M 477.38 277.185566 
L 845.28 277.185566 
" style="fill:none;stroke:#777777;stroke-linecap:square;stroke-width:0.8;"/>
     </g>
     <g id="line2d_45">
      <g>
       <use style="stroke:#000000;stroke-width:0.8;" x="477.38" xlink:href="#mddde905191" y="277.185566"/>
      </g>
     </g>
     <g id="text_25">
      <!-- −80 -->
      <g transform="translate(449.275312 280.984785)scale(0.1 -0.1)">
       <use xlink:href="#DejaVuSans-8722"/>
       <use x="83.789062" xlink:href="#DejaVuSans-56"/>
       <use x="147.412109" xlink:href="#DejaVuSans-48"/>
      </g>
     </g>
    </g>
    <g id="ytick_10">
     <g id="line2d_46">
      <path clip-path="url(#p0caa7f17ed)" d="M 477.38 235.697804 
L 845.28 235.697804 
" style="fill:none;stroke:#777777;stroke-linecap:square;stroke-width:0.8;"/>
     </g>
     <g id="line2d_47">
      <g>
       <use style="stroke:#000000;stroke-width:0.8;" x="477.38" xlink:href="#mddde905191" y="235.697804"/>
      </g>
     </g>
     <g id="text_26">
      <!-- −60 -->
      <g transform="translate(449.275312 239.497023)scale(0.1 -0.1)">
       <use xlink:href="#DejaVuSans-8722"/>
       <use x="83.789062" xlink:href="#DejaVuSans-54"/>
       <use x="147.412109" xlink:href="#DejaVuSans-48"/>
      </g>
     </g>
    </g>
    <g id="ytick_11">
     <g id="line2d_48">
      <path clip-path="url(#p0caa7f17ed)" d="M 477.38 194.210042 
L 845.28 194.210042 
" style="fill:none;stroke:#777777;stroke-linecap:square;stroke-width:0.8;"/>
     </g>
     <g id="line2d_49">
      <g>
       <use style="stroke:#000000;stroke-width:0.8;" x="477.38" xlink:href="#mddde905191" y="194.210042"/>
      </g>
     </g>
     <g id="text_27">
      <!-- −40 -->
      <g transform="translate(449.275312 198.009261)scale(0.1 -0.1)">
       <use xlink:href="#DejaVuSans-8722"/>
       <use x="83.789062" xlink:href="#DejaVuSans-52"/>
       <use x="147.412109" xlink:href="#DejaVuSans-48"/>
      </g>
     </g>
    </g>
    <g id="ytick_12">
     <g id="line2d_50">
      <path clip-path="url(#p0caa7f17ed)" d="M 477.38 152.72228 
L 845.28 152.72228 
" style="fill:none;stroke:#777777;stroke-linecap:square;stroke-width:0.8;"/>
     </g>
     <g id="line2d_51">
      <g>
       <use style="stroke:#000000;stroke-width:0.8;" x="477.38" xlink:href="#mddde905191" y="152.72228"/>
      </g>
     </g>
     <g id="text_28">
      <!-- −20 -->
      <g transform="translate(449.275312 156.521499)scale(0.1 -0.1)">
       <use xlink:href="#DejaVuSans-8722"/>
       <use x="83.789062" xlink:href="#DejaVuSans-50"/>
       <use x="147.412109" xlink:href="#DejaVuSans-48"/>
      </g>
     </g>
    </g>
    <g id="ytick_13">
     <g id="line2d_52">
      <path clip-path="url(#p0caa7f17ed)" d="M 477.38 111.234518 
L 845.28 111.234518 
" style="fill:none;stroke:#777777;stroke-linecap:square;stroke-width:0.8;"/>
     </g>
     <g id="line2d_53">
      <g>
       <use style="stroke:#000000;stroke-width:0.8;" x="477.38" xlink:href="#mddde905191" y="111.234518"/>
      </g>
     </g>
     <g id="text_29">
      <!-- 0 -->
      <g transform="translate(464.0175 115.033737)scale(0.1 -0.1)">
       <use xlink:href="#DejaVuSans-48"/>
      </g>
     </g>
    </g>
    <g id="ytick_14">
     <g id="line2d_54">
      <path clip-path="url(#p0caa7f17ed)" d="M 477.38 69.746756 
L 845.28 69.746756 
" style="fill:none;stroke:#777777;stroke-linecap:square;stroke-width:0.8;"/>
     </g>
     <g id="line2d_55">
      <g>
       <use style="stroke:#000000;stroke-width:0.8;" x="477.38" xlink:href="#mddde905191" y="69.746756"/>
      </g>
     </g>
     <g id="text_30">
      <!-- 20 -->
      <g transform="translate(457.655 73.545975)scale(0.1 -0.1)">
       <use xlink:href="#DejaVuSans-50"/>
       <use x="63.623047" xlink:href="#DejaVuSans-48"/>
      </g>
     </g>
    </g>
    <g id="text_31">
     <!-- Gain (dB) -->
     <defs>
      <path d="M 59.515625 10.40625 
L 59.515625 29.984375 
L 43.40625 29.984375 
L 43.40625 38.09375 
L 69.28125 38.09375 
L 69.28125 6.78125 
Q 63.578125 2.734375 56.6875 0.65625 
Q 49.8125 -1.421875 42 -1.421875 
Q 24.90625 -1.421875 15.25 8.5625 
Q 5.609375 18.5625 5.609375 36.375 
Q 5.609375 54.25 15.25 64.234375 
Q 24.90625 74.21875 42 74.21875 
Q 49.125 74.21875 55.546875 72.453125 
Q 61.96875 70.703125 67.390625 67.28125 
L 67.390625 56.78125 
Q 61.921875 61.421875 55.765625 63.765625 
Q 49.609375 66.109375 42.828125 66.109375 
Q 29.4375 66.109375 22.71875 58.640625 
Q 16.015625 51.171875 16.015625 36.375 
Q 16.015625 21.625 22.71875 14.15625 
Q 29.4375 6.6875 42.828125 6.6875 
Q 48.046875 6.6875 52.140625 7.59375 
Q 56.25 8.5 59.515625 10.40625 
z
" id="DejaVuSans-71"/>
      <path d="M 19.671875 34.8125 
L 19.671875 8.109375 
L 35.5 8.109375 
Q 43.453125 8.109375 47.28125 11.40625 
Q 51.125 14.703125 51.125 21.484375 
Q 51.125 28.328125 47.28125 31.5625 
Q 43.453125 34.8125 35.5 34.8125 
z
M 19.671875 64.796875 
L 19.671875 42.828125 
L 34.28125 42.828125 
Q 41.5 42.828125 45.03125 45.53125 
Q 48.578125 48.25 48.578125 53.8125 
Q 48.578125 59.328125 45.03125 62.0625 
Q 41.5 64.796875 34.28125 64.796875 
z
M 9.8125 72.90625 
L 35.015625 72.90625 
Q 46.296875 72.90625 52.390625 68.21875 
Q 58.5 63.53125 58.5 54.890625 
Q 58.5 48.1875 55.375 44.234375 
Q 52.25 40.28125 46.1875 39.3125 
Q 53.46875 37.75 57.5 32.78125 
Q 61.53125 27.828125 61.53125 20.40625 
Q 61.53125 10.640625 54.890625 5.3125 
Q 48.25 0 35.984375 0 
L 9.8125 0 
z
" id="DejaVuSans-66"/>
     </defs>
     <g transform="translate(436.833125 236.791406)rotate(-90)scale(0.1 -0.1)">
      <use xlink:href="#DejaVuSans-71"/>
      <use x="77.490234" xlink:href="#DejaVuSans-97"/>
      <use x="138.769531" xlink:href="#DejaVuSans-105"/>
      <use x="166.552734" xlink:href="#DejaVuSans-110"/>
      <use x="229.931641" xlink:href="#DejaVuSans-32"/>
      <use x="261.71875" xlink:href="#DejaVuSans-40"/>
      <use x="300.732422" xlink:href="#DejaVuSans-100"/>
      <use x="364.208984" xlink:href="#DejaVuSans-66"/>
      <use x="432.8125" xlink:href="#DejaVuSans-41"/>
     </g>
    </g>
   </g>
   <g id="line2d_56">
    <path clip-path="url(#p0caa7f17ed)" d="M 477.38 55.054545 
L 478.817109 55.157878 
L 480.254219 55.468174 
L 481.691328 55.986327 
L 483.128437 56.713845 
L 484.565547 57.652867 
L 486.002656 58.8062 
L 487.439766 60.177361 
L 488.876875 61.770634 
L 491.032539 64.588457 
L 493.188203 67.939095 
L 495.343867 71.849501 
L 497.499531 76.353521 
L 499.655195 81.493672 
L 501.810859 87.323674 
L 503.966523 93.912163 
L 506.122187 101.348317 
L 508.277852 109.750705 
L 510.433516 119.281974 
L 512.58918 130.174848 
L 514.026289 138.359995 
L 515.463398 147.456231 
L 516.900508 157.687123 
L 518.337617 169.401326 
L 519.774727 183.198916 
L 521.211836 200.289317 
L 521.930391 210.897604 
L 522.648945 223.979366 
L 523.3675 242.129071 
L 524.086055 284.54618 
L 524.804609 266.862947 
L 525.523164 266.53774 
L 526.241719 288.237012 
L 527.678828 257.5454 
L 528.397383 250.594073 
L 529.115937 247.244066 
L 529.834492 246.098669 
L 530.553047 246.622422 
L 531.271602 248.623329 
L 531.990156 252.130309 
L 532.708711 257.421441 
L 533.427266 265.261483 
L 534.14582 278.011272 
L 534.864375 313.874696 
L 535.58293 290.499087 
L 536.301484 280.363792 
L 537.020039 278.182303 
L 537.738594 280.790899 
L 538.457148 289.987393 
L 539.175703 354.587618 
L 539.894258 287.727779 
L 540.612813 274.517011 
L 541.331367 267.264241 
L 542.049922 262.761762 
L 542.768477 260.033589 
L 543.487031 258.689254 
L 544.205586 258.593418 
L 544.924141 259.789174 
L 545.642695 262.537404 
L 546.36125 267.542814 
L 547.079805 276.967989 
L 547.798359 305.904867 
L 548.516914 284.196801 
L 549.235469 268.890492 
L 549.954023 260.884583 
L 550.672578 255.718367 
L 551.391133 252.186793 
L 552.109687 249.794059 
L 552.828242 248.298813 
L 553.546797 247.57994 
L 554.265352 247.588165 
L 554.983906 248.330266 
L 555.702461 249.872607 
L 556.421016 252.366876 
L 557.13957 256.12184 
L 557.858125 261.813981 
L 558.57668 271.315845 
L 559.295234 294.965391 
L 560.013789 284.976611 
L 560.732344 268.280617 
L 561.450898 260.25417 
L 562.169453 255.276506 
L 562.888008 251.975771 
L 563.606562 249.809078 
L 564.325117 248.51697 
L 565.043672 247.968978 
L 565.762227 248.108401 
L 566.480781 248.932779 
L 567.199336 250.493349 
L 567.917891 252.913067 
L 568.636445 256.438452 
L 569.355 261.583471 
L 570.073555 269.626917 
L 571.510664 301.007473 
L 572.229219 274.971197 
L 572.947773 265.313297 
L 573.666328 259.665666 
L 574.384883 255.997428 
L 575.103437 253.589034 
L 575.821992 252.112071 
L 576.540547 251.401568 
L 577.259102 251.378864 
L 577.977656 252.022904 
L 578.696211 253.363466 
L 579.414766 255.491085 
L 580.13332 258.591485 
L 580.851875 263.037978 
L 581.57043 269.67509 
L 582.288984 281.07256 
L 583.007539 321.360816 
L 583.726094 285.918746 
L 584.444648 272.805406 
L 585.163203 265.915389 
L 585.881758 261.575167 
L 586.600312 258.719829 
L 587.318867 256.901054 
L 588.037422 255.898953 
L 588.755977 255.60325 
L 589.474531 255.969426 
L 590.193086 257.003847 
L 590.911641 258.765864 
L 591.630195 261.388442 
L 592.34875 265.134906 
L 593.067305 270.557473 
L 593.785859 279.061211 
L 594.504414 296.518362 
L 595.222969 305.107724 
L 595.941523 282.559452 
L 596.660078 273.466498 
L 597.378633 268.07885 
L 598.097188 264.571033 
L 598.815742 262.275131 
L 599.534297 260.881695 
L 600.252852 260.234129 
L 600.971406 260.257683 
L 601.689961 260.932779 
L 602.408516 262.288803 
L 603.12707 264.41366 
L 603.845625 267.486455 
L 604.56418 271.864277 
L 605.282734 278.344155 
L 606.001289 289.28214 
L 606.719844 322.88487 
L 607.438398 296.494358 
L 608.156953 282.629228 
L 608.875508 275.500558 
L 609.594062 271.028812 
L 610.312617 268.07751 
L 611.031172 266.174874 
L 611.749727 265.090132 
L 612.468281 264.706109 
L 613.186836 264.972212 
L 613.905391 265.88762 
L 614.623945 267.501072 
L 615.3425 269.927093 
L 616.061055 273.391732 
L 616.779609 278.356148 
L 617.498164 285.924049 
L 618.216719 299.986388 
L 618.935273 330.561053 
L 619.653828 294.901614 
L 620.372383 284.288616 
L 621.090937 278.257326 
L 621.809492 274.358765 
L 622.528047 271.77397 
L 623.246602 270.137102 
L 623.965156 269.263905 
L 624.683711 269.062144 
L 625.402266 269.497544 
L 626.12082 270.582918 
L 626.839375 272.382176 
L 627.55793 275.032186 
L 628.276484 278.800879 
L 628.995039 284.248957 
L 629.713594 292.80778 
L 630.432148 310.544047 
L 631.150703 317.86469 
L 631.869258 295.810859 
L 632.587813 286.755501 
L 633.306367 281.344234 
L 634.024922 277.786531 
L 634.743477 275.422741 
L 635.462031 273.945476 
L 636.180586 273.197669 
L 636.899141 273.1023 
L 637.617695 273.63544 
L 638.33625 274.818864 
L 639.054805 276.726834 
L 639.773359 279.511982 
L 640.491914 283.472883 
L 641.210469 289.246741 
L 641.929023 298.539919 
L 642.647578 319.830145 
L 643.366133 315.938347 
L 644.084687 297.84354 
L 644.803242 289.543821 
L 645.521797 284.45071 
L 646.240352 281.066312 
L 646.958906 278.810248 
L 647.677461 277.405859 
L 648.396016 276.710866 
L 649.11457 276.656706 
L 649.833125 277.225273 
L 650.55168 278.443416 
L 651.270234 280.391255 
L 651.988789 283.230388 
L 652.707344 287.277047 
L 653.425898 293.213732 
L 654.144453 302.919195 
L 654.863008 326.758392 
L 655.581563 316.822204 
L 656.300117 300.224726 
L 657.018672 292.250023 
L 657.737227 287.287031 
L 658.455781 283.964725 
L 659.174336 281.739154 
L 659.892891 280.348246 
L 660.611445 279.656923 
L 661.33 279.600852 
L 662.048555 280.164933 
L 662.767109 281.378731 
L 663.485664 283.325602 
L 664.204219 286.172209 
L 664.922773 290.244916 
L 665.641328 296.252677 
L 666.359883 306.178328 
L 667.078438 331.710191 
L 667.796992 318.236309 
L 668.515547 302.327409 
L 669.234102 294.4993 
L 669.952656 289.585661 
L 670.671211 286.278587 
L 671.389766 284.052887 
L 672.10832 282.654274 
L 672.826875 281.951744 
L 673.54543 281.883634 
L 674.263984 282.437101 
L 674.982539 283.644213 
L 675.701094 285.591886 
L 676.419648 288.452989 
L 677.138203 292.567039 
L 677.856758 298.67845 
L 678.575312 308.914458 
L 679.293867 337.095486 
L 680.012422 318.723305 
L 680.730977 303.618283 
L 681.449531 295.983078 
L 682.168086 291.147409 
L 682.886641 287.878349 
L 683.605195 285.673581 
L 684.32375 284.288577 
L 685.042305 283.597705 
L 685.760859 283.543148 
L 686.479414 284.115725 
L 687.197969 285.352059 
L 687.916523 287.346092 
L 688.635078 290.283571 
L 689.353633 294.532203 
L 690.072188 300.914877 
L 690.790742 311.896452 
L 691.509297 348.362974 
L 692.227852 317.46405 
L 692.946406 303.777701 
L 693.664961 296.543282 
L 694.383516 291.899281 
L 695.10207 288.746756 
L 695.820625 286.625566 
L 696.53918 285.309431 
L 697.257734 284.682813 
L 697.976289 284.695111 
L 698.694844 285.344019 
L 699.413398 286.674769 
L 700.131953 288.794746 
L 700.850508 291.914855 
L 701.569062 296.459543 
L 702.287617 303.41766 
L 703.006172 316.051879 
L 703.724727 371.345455 
L 704.443281 314.552967 
L 705.161836 302.816044 
L 705.880391 296.224047 
L 706.598945 291.914842 
L 707.3175 288.980432 
L 708.036055 287.024214 
L 708.754609 285.848275 
L 709.473164 285.353093 
L 710.191719 285.499703 
L 710.910273 286.297051 
L 711.628828 287.804743 
L 712.347383 290.153181 
L 713.065938 293.597833 
L 713.784492 298.668857 
L 714.503047 306.692872 
L 715.221602 322.968364 
L 715.940156 335.488749 
L 716.658711 310.690011 
L 717.377266 301.020831 
L 718.09582 295.232084 
L 718.814375 291.374968 
L 719.53293 288.750143 
L 720.251484 287.036208 
L 720.970039 286.070644 
L 721.688594 285.774864 
L 722.407148 286.125906 
L 723.125703 287.14907 
L 723.844258 288.925974 
L 724.562813 291.624097 
L 725.281367 295.574945 
L 725.999922 301.504472 
L 726.718477 311.467755 
L 727.437031 338.181468 
L 728.874141 306.576469 
L 729.592695 298.773333 
L 730.31125 293.836266 
L 731.029805 290.497947 
L 731.748359 288.246744 
L 732.466914 286.835752 
L 733.185469 286.140123 
L 733.904023 286.105261 
L 734.622578 286.728186 
L 735.341133 288.056557 
L 736.059688 290.20462 
L 736.778242 293.399051 
L 737.496797 298.103378 
L 738.215352 305.429455 
L 738.933906 319.315408 
L 739.652461 348.649512 
L 740.371016 313.452273 
L 741.08957 302.647849 
L 741.808125 296.398839 
L 742.52668 292.281293 
L 743.245234 289.482915 
L 743.963789 287.641468 
L 744.682344 286.575901 
L 745.400898 286.197822 
L 746.119453 286.47834 
L 746.838008 287.438601 
L 747.556563 289.156605 
L 748.275117 291.79556 
L 748.993672 295.679728 
L 749.712227 301.5173 
L 750.430781 311.293507 
L 751.149336 336.742479 
L 751.867891 323.026207 
L 752.586445 307.027024 
L 753.305 299.108137 
L 754.023555 294.117438 
L 754.742109 290.750439 
L 755.460664 288.484719 
L 756.179219 287.069422 
L 756.897773 286.378378 
L 757.616328 286.357129 
L 758.334883 287.004123 
L 759.053437 288.370183 
L 759.771992 290.575888 
L 760.490547 293.861305 
L 761.209102 298.722838 
L 761.927656 306.378856 
L 762.646211 321.413421 
L 763.364766 340.863024 
L 764.08332 312.206851 
L 764.801875 302.026513 
L 765.52043 296.028346 
L 766.238984 292.057789 
L 766.957539 289.365634 
L 767.676094 287.612886 
L 768.394648 286.62992 
L 769.113203 286.335714 
L 769.831758 286.707836 
L 770.550313 287.775053 
L 771.268867 289.62684 
L 771.987422 292.447255 
L 772.705977 296.606009 
L 773.424531 302.937238 
L 774.143086 313.963002 
L 774.861641 352.262229 
L 775.580195 318.775265 
L 776.29875 305.24386 
L 777.017305 298.042477 
L 777.735859 293.416549 
L 778.454414 290.287224 
L 779.172969 288.202375 
L 779.891523 286.941302 
L 780.610078 286.394353 
L 781.328633 286.51879 
L 782.047188 287.324263 
L 782.765742 288.875942 
L 783.484297 291.317747 
L 784.202852 294.936179 
L 784.921406 300.34266 
L 785.639961 309.153576 
L 786.358516 328.994977 
L 787.07707 328.208437 
L 787.795625 308.898074 
L 788.51418 300.197657 
L 789.232734 294.8421 
L 789.951289 291.255346 
L 790.669844 288.837216 
L 791.388398 287.305816 
L 792.106953 286.51973 
L 792.825508 286.415604 
L 793.544063 286.985574 
L 794.262617 288.27468 
L 794.981172 290.396277 
L 795.699727 293.578186 
L 796.418281 298.289248 
L 797.136836 305.660781 
L 797.855391 319.748069 
L 798.573945 346.827996 
L 799.2925 313.218636 
L 800.011055 302.54584 
L 800.729609 296.354766 
L 801.448164 292.278955 
L 802.166719 289.519708 
L 802.885273 287.720341 
L 803.603828 286.703333 
L 804.322383 286.383626 
L 805.040938 286.736549 
L 805.759492 287.789604 
L 806.478047 289.631638 
L 807.196602 292.446673 
L 807.915156 296.605329 
L 808.633711 302.945277 
L 809.352266 314.005763 
L 810.07082 352.910442 
L 810.789375 318.634111 
L 811.50793 305.161363 
L 812.226484 297.981643 
L 812.945039 293.370655 
L 813.663594 290.255112 
L 814.382148 288.184892 
L 815.100703 286.94046 
L 815.819258 286.413196 
L 816.537813 286.561632 
L 817.256367 287.397282 
L 817.974922 288.988435 
L 818.693477 291.48484 
L 819.412031 295.185482 
L 820.130586 300.734483 
L 820.849141 309.870483 
L 821.567695 331.411963 
L 822.28625 326.104812 
L 823.004805 308.156292 
L 823.723359 299.759545 
L 824.441914 294.547661 
L 825.160469 291.05194 
L 825.879023 288.70248 
L 826.597578 287.229675 
L 827.316133 286.498594 
L 828.034688 286.450358 
L 828.753242 287.081296 
L 829.471797 288.441734 
L 830.190352 290.65348 
L 830.908906 293.960809 
L 831.627461 298.871913 
L 832.346016 306.645623 
L 833.783125 338.692643 
L 834.50168 311.711596 
L 835.220234 301.739905 
L 835.938789 295.833357 
L 836.657344 291.922558 
L 837.375898 289.279242 
L 838.094453 287.572582 
L 838.813008 286.637435 
L 839.531563 286.396265 
L 840.250117 286.830408 
L 840.968672 287.973884 
L 841.687227 289.924882 
L 842.405781 292.884229 
L 843.124336 297.259812 
L 843.842891 303.997335 
L 844.561445 316.148971 
L 844.561445 316.148971 
" style="fill:none;stroke:#0072bd;stroke-linecap:square;stroke-width:1.4;"/>
   </g>
   <g id="patch_8">
    <path d="M 477.38 387.16 
L 477.38 39.24 
" style="fill:none;stroke:#000000;stroke-linecap:square;stroke-linejoin:miter;stroke-width:0.8;"/>
   </g>
   <g id="patch_9">
    <path d="M 845.28 387.16 
L 845.28 39.24 
" style="fill:none;stroke:#000000;stroke-linecap:square;stroke-linejoin:miter;stroke-width:0.8;"/>
   </g>
   <g id="patch_10">
    <path d="M 477.38 387.16 
L 845.28 387.16 
" style="fill:none;stroke:#000000;stroke-linecap:square;stroke-linejoin:miter;stroke-width:0.8;"/>
   </g>
   <g id="patch_11">
    <path d="M 477.38 39.24 
L 845.28 39.24 
" style="fill:none;stroke:#000000;stroke-linecap:square;stroke-linejoin:miter;stroke-width:0.8;"/>
   </g>
  </g>
  <g id="text_32">
   <!-- Blackman-Harris window -->
   <defs>
    <path d="M 9.078125 75.984375 
L 18.109375 75.984375 
L 18.109375 31.109375 
L 44.921875 54.6875 
L 56.390625 54.6875 
L 27.390625 29.109375 
L 57.625 0 
L 45.90625 0 
L 18.109375 26.703125 
L 18.109375 0 
L 9.078125 0 
z
" id="DejaVuSans-107"/>
    <path d="M 4.890625 31.390625 
L 31.203125 31.390625 
L 31.203125 23.390625 
L 4.890625 23.390625 
z
" id="DejaVuSans-45"/>
    <path d="M 9.8125 72.90625 
L 19.671875 72.90625 
L 19.671875 43.015625 
L 55.515625 43.015625 
L 55.515625 72.90625 
L 65.375 72.90625 
L 65.375 0 
L 55.515625 0 
L 55.515625 34.71875 
L 19.671875 34.71875 
L 19.671875 0 
L 9.8125 0 
z
" id="DejaVuSans-72"/>
    <path d="M 4.203125 54.6875 
L 13.1875 54.6875 
L 24.421875 12.015625 
L 35.59375 54.6875 
L 46.1875 54.6875 
L 57.421875 12.015625 
L 68.609375 54.6875 
L 77.59375 54.6875 
L 63.28125 0 
L 52.6875 0 
L 40.921875 44.828125 
L 29.109375 0 
L 18.5 0 
z
" id="DejaVuSans-119"/>
   </defs>
   <g transform="translate(332.925 20.7975)scale(0.16 -0.16)">
    <use xlink:href="#DejaVuSans-66"/>
    <use x="68.603516" xlink:href="#DejaVuSans-108"/>
    <use x="96.386719" xlink:href="#DejaVuSans-97"/>
    <use x="157.666016" xlink:href="#DejaVuSans-99"/>
    <use x="212.646484" xlink:href="#DejaVuSans-107"/>
    <use x="270.556641" xlink:href="#DejaVuSans-109"/>
    <use x="367.96875" xlink:href="#DejaVuSans-97"/>
    <use x="429.248047" xlink:href="#DejaVuSans-110"/>
    <use x="492.626953" xlink:href="#DejaVuSans-45"/>
    <use x="528.710938" xlink:href="#DejaVuSans-72"/>
    <use x="603.90625" xlink:href="#DejaVuSans-97"/>
    <use x="665.185547" xlink:href="#DejaVuSans-114"/>
    <use x="706.283203" xlink:href="#DejaVuSans-114"/>
    <use x="747.396484" xlink:href="#DejaVuSans-105"/>
    <use x="775.179688" xlink:href="#DejaVuSans-115"/>
    <use x="827.279297" xlink:href="#DejaVuSans-32"/>
    <use x="859.066406" xlink:href="#DejaVuSans-119"/>
    <use x="940.853516" xlink:href="#DejaVuSans-105"/>
    <use x="968.636719" xlink:href="#DejaVuSans-110"/>
    <use x="1032.015625" xlink:href="#DejaVuSans-100"/>
    <use x="1095.492188" xlink:href="#DejaVuSans-111"/>
    <use x="1156.673828" xlink:href="#DejaVuSans-119"/>
   </g>
  </g>
 </g>
 <defs>
  <clipPath id="pb03e30ffcd">
   <rect height="347.92" width="367.9" x="47.72" y="39.24"/>
  </clipPath>
  <clipPath id="p0caa7f17ed">
   <rect height="347.92" width="367.9" x="477.38" y="39.24"/>
  </clipPath>
 </defs>
</svg>
