<?xml version="1.0" encoding="utf-8" standalone="no"?>
<!DOCTYPE svg PUBLIC "-//W3C//DTD SVG 1.1//EN"
  "http://www.w3.org/Graphics/SVG/1.1/DTD/svg11.dtd">
<!-- Created with matplotlib (https://matplotlib.org/) -->
<svg height="432pt" version="1.1" viewBox="0 0 864 432" width="864pt" xmlns="http://www.w3.org/2000/svg" xmlns:xlink="http://www.w3.org/1999/xlink">
 <defs>
  <style type="text/css">
*{stroke-linecap:butt;stroke-linejoin:round;}
  </style>
 </defs>
 <g id="figure_1">
  <g id="patch_1">
   <path d="M 0 432 
L 864 432 
L 864 0 
L 0 0 
z
" style="fill:#ffffff;"/>
  </g>
  <g id="axes_1">
   <g id="patch_2">
    <path d="M 47.855 388.6 
L 416.8575 388.6 
L 416.8575 36.72 
L 47.855 36.72 
z
" style="fill:#ffffff;"/>
   </g>
   <g id="matplotlib.axis_1">
    <g id="xtick_1">
     <g id="line2d_1">
      <path clip-path="url(#p88c468b5a2)" d="M 47.855 388.6 
L 47.855 36.72 
" style="fill:none;stroke:#777777;stroke-linecap:square;stroke-width:0.8;"/>
     </g>
     <g id="line2d_2">
      <defs>
       <path d="M 0 0 
L 0 3.5 
" id="m41228d2211" style="stroke:#000000;stroke-width:0.8;"/>
      </defs>
      <g>
       <use style="stroke:#000000;stroke-width:0.8;" x="47.855" xlink:href="#m41228d2211" y="388.6"/>
      </g>
     </g>
     <g id="text_1">
      <!-- 0 -->
      <defs>
       <path d="M 31.78125 66.40625 
Q 24.171875 66.40625 20.328125 58.90625 
Q 16.5 51.421875 16.5 36.375 
Q 16.5 21.390625 20.328125 13.890625 
Q 24.171875 6.390625 31.78125 6.390625 
Q 39.453125 6.390625 43.28125 13.890625 
Q 47.125 21.390625 47.125 36.375 
Q 47.125 51.421875 43.28125 58.90625 
Q 39.453125 66.40625 31.78125 66.40625 
z
M 31.78125 74.21875 
Q 44.046875 74.21875 50.515625 64.515625 
Q 56.984375 54.828125 56.984375 36.375 
Q 56.984375 17.96875 50.515625 8.265625 
Q 44.046875 -1.421875 31.78125 -1.421875 
Q 19.53125 -1.421875 13.0625 8.265625 
Q 6.59375 17.96875 6.59375 36.375 
Q 6.59375 54.828125 13.0625 64.515625 
Q 19.53125 74.21875 31.78125 74.21875 
z
" id="DejaVuSans-48"/>
      </defs>
      <g transform="translate(44.67375 403.198438)scale(0.1 -0.1)">
       <use xlink:href="#DejaVuSans-48"/>
      </g>
     </g>
    </g>
    <g id="xtick_2">
     <g id="line2d_3">
      <path clip-path="url(#p88c468b5a2)" d="M 106.426825 388.6 
L 106.426825 36.72 
" style="fill:none;stroke:#777777;stroke-linecap:square;stroke-width:0.8;"/>
     </g>
     <g id="line2d_4">
      <g>
       <use style="stroke:#000000;stroke-width:0.8;" x="106.426825" xlink:href="#m41228d2211" y="388.6"/>
      </g>
     </g>
     <g id="text_2">
      <!-- 10 -->
      <defs>
       <path d="M 12.40625 8.296875 
L 28.515625 8.296875 
L 28.515625 63.921875 
L 10.984375 60.40625 
L 10.984375 69.390625 
L 28.421875 72.90625 
L 38.28125 72.90625 
L 38.28125 8.296875 
L 54.390625 8.296875 
L 54.390625 0 
L 12.40625 0 
z
" id="DejaVuSans-49"/>
      </defs>
      <g transform="translate(100.064325 403.198438)scale(0.1 -0.1)">
       <use xlink:href="#DejaVuSans-49"/>
       <use x="63.623047" xlink:href="#DejaVuSans-48"/>
      </g>
     </g>
    </g>
    <g id="xtick_3">
     <g id="line2d_5">
      <path clip-path="url(#p88c468b5a2)" d="M 164.998651 388.6 
L 164.998651 36.72 
" style="fill:none;stroke:#777777;stroke-linecap:square;stroke-width:0.8;"/>
     </g>
     <g id="line2d_6">
      <g>
       <use style="stroke:#000000;stroke-width:0.8;" x="164.998651" xlink:href="#m41228d2211" y="388.6"/>
      </g>
     </g>
     <g id="text_3">
      <!-- 20 -->
      <defs>
       <path d="M 19.1875 8.296875 
L 53.609375 8.296875 
L 53.609375 0 
L 7.328125 0 
L 7.328125 8.296875 
Q 12.9375 14.109375 22.625 23.890625 
Q 32.328125 33.6875 34.8125 36.53125 
Q 39.546875 41.84375 41.421875 45.53125 
Q 43.3125 49.21875 43.3125 52.78125 
Q 43.3125 58.59375 39.234375 62.25 
Q 35.15625 65.921875 28.609375 65.921875 
Q 23.96875 65.921875 18.8125 64.3125 
Q 13.671875 62.703125 7.8125 59.421875 
L 7.8125 69.390625 
Q 13.765625 71.78125 18.9375 73 
Q 24.125 74.21875 28.421875 74.21875 
Q 39.75 74.21875 46.484375 68.546875 
Q 53.21875 62.890625 53.21875 53.421875 
Q 53.21875 48.921875 51.53125 44.890625 
Q 49.859375 40.875 45.40625 35.40625 
Q 44.1875 33.984375 37.640625 27.21875 
Q 31.109375 20.453125 19.1875 8.296875 
z
" id="DejaVuSans-50"/>
      </defs>
      <g transform="translate(158.636151 403.198438)scale(0.1 -0.1)">
       <use xlink:href="#DejaVuSans-50"/>
       <use x="63.623047" xlink:href="#DejaVuSans-48"/>
      </g>
     </g>
    </g>
    <g id="xtick_4">
     <g id="line2d_7">
      <path clip-path="url(#p88c468b5a2)" d="M 223.570476 388.6 
L 223.570476 36.72 
" style="fill:none;stroke:#777777;stroke-linecap:square;stroke-width:0.8;"/>
     </g>
     <g id="line2d_8">
      <g>
       <use style="stroke:#000000;stroke-width:0.8;" x="223.570476" xlink:href="#m41228d2211" y="388.6"/>
      </g>
     </g>
     <g id="text_4">
      <!-- 30 -->
      <defs>
       <path d="M 40.578125 39.3125 
Q 47.65625 37.796875 51.625 33 
Q 55.609375 28.21875 55.609375 21.1875 
Q 55.609375 10.40625 48.1875 4.484375 
Q 40.765625 -1.421875 27.09375 -1.421875 
Q 22.515625 -1.421875 17.65625 -0.515625 
Q 12.796875 0.390625 7.625 2.203125 
L 7.625 11.71875 
Q 11.71875 9.328125 16.59375 8.109375 
Q 21.484375 6.890625 26.8125 6.890625 
Q 36.078125 6.890625 40.9375 10.546875 
Q 45.796875 14.203125 45.796875 21.1875 
Q 45.796875 27.640625 41.28125 31.265625 
Q 36.765625 34.90625 28.71875 34.90625 
L 20.21875 34.90625 
L 20.21875 43.015625 
L 29.109375 43.015625 
Q 36.375 43.015625 40.234375 45.921875 
Q 44.09375 48.828125 44.09375 54.296875 
Q 44.09375 59.90625 40.109375 62.90625 
Q 36.140625 65.921875 28.71875 65.921875 
Q 24.65625 65.921875 20.015625 65.03125 
Q 15.375 64.15625 9.8125 62.3125 
L 9.8125 71.09375 
Q 15.4375 72.65625 20.34375 73.4375 
Q 25.25 74.21875 29.59375 74.21875 
Q 40.828125 74.21875 47.359375 69.109375 
Q 53.90625 64.015625 53.90625 55.328125 
Q 53.90625 49.265625 50.4375 45.09375 
Q 46.96875 40.921875 40.578125 39.3125 
z
" id="DejaVuSans-51"/>
      </defs>
      <g transform="translate(217.207976 403.198438)scale(0.1 -0.1)">
       <use xlink:href="#DejaVuSans-51"/>
       <use x="63.623047" xlink:href="#DejaVuSans-48"/>
      </g>
     </g>
    </g>
    <g id="xtick_5">
     <g id="line2d_9">
      <path clip-path="url(#p88c468b5a2)" d="M 282.142302 388.6 
L 282.142302 36.72 
" style="fill:none;stroke:#777777;stroke-linecap:square;stroke-width:0.8;"/>
     </g>
     <g id="line2d_10">
      <g>
       <use style="stroke:#000000;stroke-width:0.8;" x="282.142302" xlink:href="#m41228d2211" y="388.6"/>
      </g>
     </g>
     <g id="text_5">
      <!-- 40 -->
      <defs>
       <path d="M 37.796875 64.3125 
L 12.890625 25.390625 
L 37.796875 25.390625 
z
M 35.203125 72.90625 
L 47.609375 72.90625 
L 47.609375 25.390625 
L 58.015625 25.390625 
L 58.015625 17.1875 
L 47.609375 17.1875 
L 47.609375 0 
L 37.796875 0 
L 37.796875 17.1875 
L 4.890625 17.1875 
L 4.890625 26.703125 
z
" id="DejaVuSans-52"/>
      </defs>
      <g transform="translate(275.779802 403.198438)scale(0.1 -0.1)">
       <use xlink:href="#DejaVuSans-52"/>
       <use x="63.623047" xlink:href="#DejaVuSans-48"/>
      </g>
     </g>
    </g>
    <g id="xtick_6">
     <g id="line2d_11">
      <path clip-path="url(#p88c468b5a2)" d="M 340.714127 388.6 
L 340.714127 36.72 
" style="fill:none;stroke:#777777;stroke-linecap:square;stroke-width:0.8;"/>
     </g>
     <g id="line2d_12">
      <g>
       <use style="stroke:#000000;stroke-width:0.8;" x="340.714127" xlink:href="#m41228d2211" y="388.6"/>
      </g>
     </g>
     <g id="text_6">
      <!-- 50 -->
      <defs>
       <path d="M 10.796875 72.90625 
L 49.515625 72.90625 
L 49.515625 64.59375 
L 19.828125 64.59375 
L 19.828125 46.734375 
Q 21.96875 47.46875 24.109375 47.828125 
Q 26.265625 48.1875 28.421875 48.1875 
Q 40.625 48.1875 47.75 41.5 
Q 54.890625 34.8125 54.890625 23.390625 
Q 54.890625 11.625 47.5625 5.09375 
Q 40.234375 -1.421875 26.90625 -1.421875 
Q 22.3125 -1.421875 17.546875 -0.640625 
Q 12.796875 0.140625 7.71875 1.703125 
L 7.71875 11.625 
Q 12.109375 9.234375 16.796875 8.0625 
Q 21.484375 6.890625 26.703125 6.890625 
Q 35.15625 6.890625 40.078125 11.328125 
Q 45.015625 15.765625 45.015625 23.390625 
Q 45.015625 31 40.078125 35.4375 
Q 35.15625 39.890625 26.703125 39.890625 
Q 22.75 39.890625 18.8125 39.015625 
Q 14.890625 38.140625 10.796875 36.28125 
z
" id="DejaVuSans-53"/>
      </defs>
      <g transform="translate(334.351627 403.198438)scale(0.1 -0.1)">
       <use xlink:href="#DejaVuSans-53"/>
       <use x="63.623047" xlink:href="#DejaVuSans-48"/>
      </g>
     </g>
    </g>
    <g id="xtick_7">
     <g id="line2d_13">
      <path clip-path="url(#p88c468b5a2)" d="M 399.285952 388.6 
L 399.285952 36.72 
" style="fill:none;stroke:#777777;stroke-linecap:square;stroke-width:0.8;"/>
     </g>
     <g id="line2d_14">
      <g>
       <use style="stroke:#000000;stroke-width:0.8;" x="399.285952" xlink:href="#m41228d2211" y="388.6"/>
      </g>
     </g>
     <g id="text_7">
      <!-- 60 -->
      <defs>
       <path d="M 33.015625 40.375 
Q 26.375 40.375 22.484375 35.828125 
Q 18.609375 31.296875 18.609375 23.390625 
Q 18.609375 15.53125 22.484375 10.953125 
Q 26.375 6.390625 33.015625 6.390625 
Q 39.65625 6.390625 43.53125 10.953125 
Q 47.40625 15.53125 47.40625 23.390625 
Q 47.40625 31.296875 43.53125 35.828125 
Q 39.65625 40.375 33.015625 40.375 
z
M 52.59375 71.296875 
L 52.59375 62.3125 
Q 48.875 64.0625 45.09375 64.984375 
Q 41.3125 65.921875 37.59375 65.921875 
Q 27.828125 65.921875 22.671875 59.328125 
Q 17.53125 52.734375 16.796875 39.40625 
Q 19.671875 43.65625 24.015625 45.921875 
Q 28.375 48.1875 33.59375 48.1875 
Q 44.578125 48.1875 50.953125 41.515625 
Q 57.328125 34.859375 57.328125 23.390625 
Q 57.328125 12.15625 50.6875 5.359375 
Q 44.046875 -1.421875 33.015625 -1.421875 
Q 20.359375 -1.421875 13.671875 8.265625 
Q 6.984375 17.96875 6.984375 36.375 
Q 6.984375 53.65625 15.1875 63.9375 
Q 23.390625 74.21875 37.203125 74.21875 
Q 40.921875 74.21875 44.703125 73.484375 
Q 48.484375 72.75 52.59375 71.296875 
z
" id="DejaVuSans-54"/>
      </defs>
      <g transform="translate(392.923452 403.198438)scale(0.1 -0.1)">
       <use xlink:href="#DejaVuSans-54"/>
       <use x="63.623047" xlink:href="#DejaVuSans-48"/>
      </g>
     </g>
    </g>
    <g id="text_8">
     <!-- Samples -->
     <defs>
      <path d="M 53.515625 70.515625 
L 53.515625 60.890625 
Q 47.90625 63.578125 42.921875 64.890625 
Q 37.9375 66.21875 33.296875 66.21875 
Q 25.25 66.21875 20.875 63.09375 
Q 16.5 59.96875 16.5 54.203125 
Q 16.5 49.359375 19.40625 46.890625 
Q 22.3125 44.4375 30.421875 42.921875 
L 36.375 41.703125 
Q 47.40625 39.59375 52.65625 34.296875 
Q 57.90625 29 57.90625 20.125 
Q 57.90625 9.515625 50.796875 4.046875 
Q 43.703125 -1.421875 29.984375 -1.421875 
Q 24.8125 -1.421875 18.96875 -0.25 
Q 13.140625 0.921875 6.890625 3.21875 
L 6.890625 13.375 
Q 12.890625 10.015625 18.65625 8.296875 
Q 24.421875 6.59375 29.984375 6.59375 
Q 38.421875 6.59375 43.015625 9.90625 
Q 47.609375 13.234375 47.609375 19.390625 
Q 47.609375 24.75 44.3125 27.78125 
Q 41.015625 30.8125 33.5 32.328125 
L 27.484375 33.5 
Q 16.453125 35.6875 11.515625 40.375 
Q 6.59375 45.0625 6.59375 53.421875 
Q 6.59375 63.09375 13.40625 68.65625 
Q 20.21875 74.21875 32.171875 74.21875 
Q 37.3125 74.21875 42.625 73.28125 
Q 47.953125 72.359375 53.515625 70.515625 
z
" id="DejaVuSans-83"/>
      <path d="M 34.28125 27.484375 
Q 23.390625 27.484375 19.1875 25 
Q 14.984375 22.515625 14.984375 16.5 
Q 14.984375 11.71875 18.140625 8.90625 
Q 21.296875 6.109375 26.703125 6.109375 
Q 34.1875 6.109375 38.703125 11.40625 
Q 43.21875 16.703125 43.21875 25.484375 
L 43.21875 27.484375 
z
M 52.203125 31.203125 
L 52.203125 0 
L 43.21875 0 
L 43.21875 8.296875 
Q 40.140625 3.328125 35.546875 0.953125 
Q 30.953125 -1.421875 24.3125 -1.421875 
Q 15.921875 -1.421875 10.953125 3.296875 
Q 6 8.015625 6 15.921875 
Q 6 25.140625 12.171875 29.828125 
Q 18.359375 34.515625 30.609375 34.515625 
L 43.21875 34.515625 
L 43.21875 35.40625 
Q 43.21875 41.609375 39.140625 45 
Q 35.0625 48.390625 27.6875 48.390625 
Q 23 48.390625 18.546875 47.265625 
Q 14.109375 46.140625 10.015625 43.890625 
L 10.015625 52.203125 
Q 14.9375 54.109375 19.578125 55.046875 
Q 24.21875 56 28.609375 56 
Q 40.484375 56 46.34375 49.84375 
Q 52.203125 43.703125 52.203125 31.203125 
z
" id="DejaVuSans-97"/>
      <path d="M 52 44.1875 
Q 55.375 50.25 60.0625 53.125 
Q 64.75 56 71.09375 56 
Q 79.640625 56 84.28125 50.015625 
Q 88.921875 44.046875 88.921875 33.015625 
L 88.921875 0 
L 79.890625 0 
L 79.890625 32.71875 
Q 79.890625 40.578125 77.09375 44.375 
Q 74.3125 48.1875 68.609375 48.1875 
Q 61.625 48.1875 57.5625 43.546875 
Q 53.515625 38.921875 53.515625 30.90625 
L 53.515625 0 
L 44.484375 0 
L 44.484375 32.71875 
Q 44.484375 40.625 41.703125 44.40625 
Q 38.921875 48.1875 33.109375 48.1875 
Q 26.21875 48.1875 22.15625 43.53125 
Q 18.109375 38.875 18.109375 30.90625 
L 18.109375 0 
L 9.078125 0 
L 9.078125 54.6875 
L 18.109375 54.6875 
L 18.109375 46.1875 
Q 21.1875 51.21875 25.484375 53.609375 
Q 29.78125 56 35.6875 56 
Q 41.65625 56 45.828125 52.96875 
Q 50 49.953125 52 44.1875 
z
" id="DejaVuSans-109"/>
      <path d="M 18.109375 8.203125 
L 18.109375 -20.796875 
L 9.078125 -20.796875 
L 9.078125 54.6875 
L 18.109375 54.6875 
L 18.109375 46.390625 
Q 20.953125 51.265625 25.265625 53.625 
Q 29.59375 56 35.59375 56 
Q 45.5625 56 51.78125 48.09375 
Q 58.015625 40.1875 58.015625 27.296875 
Q 58.015625 14.40625 51.78125 6.484375 
Q 45.5625 -1.421875 35.59375 -1.421875 
Q 29.59375 -1.421875 25.265625 0.953125 
Q 20.953125 3.328125 18.109375 8.203125 
z
M 48.6875 27.296875 
Q 48.6875 37.203125 44.609375 42.84375 
Q 40.53125 48.484375 33.40625 48.484375 
Q 26.265625 48.484375 22.1875 42.84375 
Q 18.109375 37.203125 18.109375 27.296875 
Q 18.109375 17.390625 22.1875 11.75 
Q 26.265625 6.109375 33.40625 6.109375 
Q 40.53125 6.109375 44.609375 11.75 
Q 48.6875 17.390625 48.6875 27.296875 
z
" id="DejaVuSans-112"/>
      <path d="M 9.421875 75.984375 
L 18.40625 75.984375 
L 18.40625 0 
L 9.421875 0 
z
" id="DejaVuSans-108"/>
      <path d="M 56.203125 29.59375 
L 56.203125 25.203125 
L 14.890625 25.203125 
Q 15.484375 15.921875 20.484375 11.0625 
Q 25.484375 6.203125 34.421875 6.203125 
Q 39.59375 6.203125 44.453125 7.46875 
Q 49.3125 8.734375 54.109375 11.28125 
L 54.109375 2.78125 
Q 49.265625 0.734375 44.1875 -0.34375 
Q 39.109375 -1.421875 33.890625 -1.421875 
Q 20.796875 -1.421875 13.15625 6.1875 
Q 5.515625 13.8125 5.515625 26.8125 
Q 5.515625 40.234375 12.765625 48.109375 
Q 20.015625 56 32.328125 56 
Q 43.359375 56 49.78125 48.890625 
Q 56.203125 41.796875 56.203125 29.59375 
z
M 47.21875 32.234375 
Q 47.125 39.59375 43.09375 43.984375 
Q 39.0625 48.390625 32.421875 48.390625 
Q 24.90625 48.390625 20.390625 44.140625 
Q 15.875 39.890625 15.1875 32.171875 
z
" id="DejaVuSans-101"/>
      <path d="M 44.28125 53.078125 
L 44.28125 44.578125 
Q 40.484375 46.53125 36.375 47.5 
Q 32.28125 48.484375 27.875 48.484375 
Q 21.1875 48.484375 17.84375 46.4375 
Q 14.5 44.390625 14.5 40.28125 
Q 14.5 37.15625 16.890625 35.375 
Q 19.28125 33.59375 26.515625 31.984375 
L 29.59375 31.296875 
Q 39.15625 29.25 43.1875 25.515625 
Q 47.21875 21.78125 47.21875 15.09375 
Q 47.21875 7.46875 41.1875 3.015625 
Q 35.15625 -1.421875 24.609375 -1.421875 
Q 20.21875 -1.421875 15.453125 -0.5625 
Q 10.6875 0.296875 5.421875 2 
L 5.421875 11.28125 
Q 10.40625 8.6875 15.234375 7.390625 
Q 20.0625 6.109375 24.8125 6.109375 
Q 31.15625 6.109375 34.5625 8.28125 
Q 37.984375 10.453125 37.984375 14.40625 
Q 37.984375 18.0625 35.515625 20.015625 
Q 33.0625 21.96875 24.703125 23.78125 
L 21.578125 24.515625 
Q 13.234375 26.265625 9.515625 29.90625 
Q 5.8125 33.546875 5.8125 39.890625 
Q 5.8125 47.609375 11.28125 51.796875 
Q 16.75 56 26.8125 56 
Q 31.78125 56 36.171875 55.265625 
Q 40.578125 54.546875 44.28125 53.078125 
z
" id="DejaVuSans-115"/>
     </defs>
     <g transform="translate(211.003125 416.876562)scale(0.1 -0.1)">
      <use xlink:href="#DejaVuSans-83"/>
      <use x="63.476562" xlink:href="#DejaVuSans-97"/>
      <use x="124.755859" xlink:href="#DejaVuSans-109"/>
      <use x="222.167969" xlink:href="#DejaVuSans-112"/>
      <use x="285.644531" xlink:href="#DejaVuSans-108"/>
      <use x="313.427734" xlink:href="#DejaVuSans-101"/>
      <use x="374.951172" xlink:href="#DejaVuSans-115"/>
     </g>
    </g>
   </g>
   <g id="matplotlib.axis_2">
    <g id="ytick_1">
     <g id="line2d_15">
      <path clip-path="url(#p88c468b5a2)" d="M 47.855 388.6 
L 416.8575 388.6 
" style="fill:none;stroke:#777777;stroke-linecap:square;stroke-width:0.8;"/>
     </g>
     <g id="line2d_16">
      <defs>
       <path d="M 0 0 
L -3.5 0 
" id="m1ee6f1366e" style="stroke:#000000;stroke-width:0.8;"/>
      </defs>
      <g>
       <use style="stroke:#000000;stroke-width:0.8;" x="47.855" xlink:href="#m1ee6f1366e" y="388.6"/>
      </g>
     </g>
     <g id="text_9">
      <!-- 0.0 -->
      <defs>
       <path d="M 10.6875 12.40625 
L 21 12.40625 
L 21 0 
L 10.6875 0 
z
" id="DejaVuSans-46"/>
      </defs>
      <g transform="translate(24.951875 392.399219)scale(0.1 -0.1)">
       <use xlink:href="#DejaVuSans-48"/>
       <use x="63.623047" xlink:href="#DejaVuSans-46"/>
       <use x="95.410156" xlink:href="#DejaVuSans-48"/>
      </g>
     </g>
    </g>
    <g id="ytick_2">
     <g id="line2d_17">
      <path clip-path="url(#p88c468b5a2)" d="M 47.855 321.506865 
L 416.8575 321.506865 
" style="fill:none;stroke:#777777;stroke-linecap:square;stroke-width:0.8;"/>
     </g>
     <g id="line2d_18">
      <g>
       <use style="stroke:#000000;stroke-width:0.8;" x="47.855" xlink:href="#m1ee6f1366e" y="321.506865"/>
      </g>
     </g>
     <g id="text_10">
      <!-- 0.2 -->
      <g transform="translate(24.951875 325.306084)scale(0.1 -0.1)">
       <use xlink:href="#DejaVuSans-48"/>
       <use x="63.623047" xlink:href="#DejaVuSans-46"/>
       <use x="95.410156" xlink:href="#DejaVuSans-50"/>
      </g>
     </g>
    </g>
    <g id="ytick_3">
     <g id="line2d_19">
      <path clip-path="url(#p88c468b5a2)" d="M 47.855 254.41373 
L 416.8575 254.41373 
" style="fill:none;stroke:#777777;stroke-linecap:square;stroke-width:0.8;"/>
     </g>
     <g id="line2d_20">
      <g>
       <use style="stroke:#000000;stroke-width:0.8;" x="47.855" xlink:href="#m1ee6f1366e" y="254.41373"/>
      </g>
     </g>
     <g id="text_11">
      <!-- 0.4 -->
      <g transform="translate(24.951875 258.212949)scale(0.1 -0.1)">
       <use xlink:href="#DejaVuSans-48"/>
       <use x="63.623047" xlink:href="#DejaVuSans-46"/>
       <use x="95.410156" xlink:href="#DejaVuSans-52"/>
      </g>
     </g>
    </g>
    <g id="ytick_4">
     <g id="line2d_21">
      <path clip-path="url(#p88c468b5a2)" d="M 47.855 187.320595 
L 416.8575 187.320595 
" style="fill:none;stroke:#777777;stroke-linecap:square;stroke-width:0.8;"/>
     </g>
     <g id="line2d_22">
      <g>
       <use style="stroke:#000000;stroke-width:0.8;" x="47.855" xlink:href="#m1ee6f1366e" y="187.320595"/>
      </g>
     </g>
     <g id="text_12">
      <!-- 0.6 -->
      <g transform="translate(24.951875 191.119814)scale(0.1 -0.1)">
       <use xlink:href="#DejaVuSans-48"/>
       <use x="63.623047" xlink:href="#DejaVuSans-46"/>
       <use x="95.410156" xlink:href="#DejaVuSans-54"/>
      </g>
     </g>
    </g>
    <g id="ytick_5">
     <g id="line2d_23">
      <path clip-path="url(#p88c468b5a2)" d="M 47.855 120.22746 
L 416.8575 120.22746 
" style="fill:none;stroke:#777777;stroke-linecap:square;stroke-width:0.8;"/>
     </g>
     <g id="line2d_24">
      <g>
       <use style="stroke:#000000;stroke-width:0.8;" x="47.855" xlink:href="#m1ee6f1366e" y="120.22746"/>
      </g>
     </g>
     <g id="text_13">
      <!-- 0.8 -->
      <defs>
       <path d="M 31.78125 34.625 
Q 24.75 34.625 20.71875 30.859375 
Q 16.703125 27.09375 16.703125 20.515625 
Q 16.703125 13.921875 20.71875 10.15625 
Q 24.75 6.390625 31.78125 6.390625 
Q 38.8125 6.390625 42.859375 10.171875 
Q 46.921875 13.96875 46.921875 20.515625 
Q 46.921875 27.09375 42.890625 30.859375 
Q 38.875 34.625 31.78125 34.625 
z
M 21.921875 38.8125 
Q 15.578125 40.375 12.03125 44.71875 
Q 8.5 49.078125 8.5 55.328125 
Q 8.5 64.0625 14.71875 69.140625 
Q 20.953125 74.21875 31.78125 74.21875 
Q 42.671875 74.21875 48.875 69.140625 
Q 55.078125 64.0625 55.078125 55.328125 
Q 55.078125 49.078125 51.53125 44.71875 
Q 48 40.375 41.703125 38.8125 
Q 48.828125 37.15625 52.796875 32.3125 
Q 56.78125 27.484375 56.78125 20.515625 
Q 56.78125 9.90625 50.3125 4.234375 
Q 43.84375 -1.421875 31.78125 -1.421875 
Q 19.734375 -1.421875 13.25 4.234375 
Q 6.78125 9.90625 6.78125 20.515625 
Q 6.78125 27.484375 10.78125 32.3125 
Q 14.796875 37.15625 21.921875 38.8125 
z
M 18.3125 54.390625 
Q 18.3125 48.734375 21.84375 45.5625 
Q 25.390625 42.390625 31.78125 42.390625 
Q 38.140625 42.390625 41.71875 45.5625 
Q 45.3125 48.734375 45.3125 54.390625 
Q 45.3125 60.0625 41.71875 63.234375 
Q 38.140625 66.40625 31.78125 66.40625 
Q 25.390625 66.40625 21.84375 63.234375 
Q 18.3125 60.0625 18.3125 54.390625 
z
" id="DejaVuSans-56"/>
      </defs>
      <g transform="translate(24.951875 124.026679)scale(0.1 -0.1)">
       <use xlink:href="#DejaVuSans-48"/>
       <use x="63.623047" xlink:href="#DejaVuSans-46"/>
       <use x="95.410156" xlink:href="#DejaVuSans-56"/>
      </g>
     </g>
    </g>
    <g id="ytick_6">
     <g id="line2d_25">
      <path clip-path="url(#p88c468b5a2)" d="M 47.855 53.134325 
L 416.8575 53.134325 
" style="fill:none;stroke:#777777;stroke-linecap:square;stroke-width:0.8;"/>
     </g>
     <g id="line2d_26">
      <g>
       <use style="stroke:#000000;stroke-width:0.8;" x="47.855" xlink:href="#m1ee6f1366e" y="53.134325"/>
      </g>
     </g>
     <g id="text_14">
      <!-- 1.0 -->
      <g transform="translate(24.951875 56.933544)scale(0.1 -0.1)">
       <use xlink:href="#DejaVuSans-49"/>
       <use x="63.623047" xlink:href="#DejaVuSans-46"/>
       <use x="95.410156" xlink:href="#DejaVuSans-48"/>
      </g>
     </g>
    </g>
    <g id="text_15">
     <!-- Amplitude -->
     <defs>
      <path d="M 34.1875 63.1875 
L 20.796875 26.90625 
L 47.609375 26.90625 
z
M 28.609375 72.90625 
L 39.796875 72.90625 
L 67.578125 0 
L 57.328125 0 
L 50.6875 18.703125 
L 17.828125 18.703125 
L 11.1875 0 
L 0.78125 0 
z
" id="DejaVuSans-65"/>
      <path d="M 9.421875 54.6875 
L 18.40625 54.6875 
L 18.40625 0 
L 9.421875 0 
z
M 9.421875 75.984375 
L 18.40625 75.984375 
L 18.40625 64.59375 
L 9.421875 64.59375 
z
" id="DejaVuSans-105"/>
      <path d="M 18.3125 70.21875 
L 18.3125 54.6875 
L 36.8125 54.6875 
L 36.8125 47.703125 
L 18.3125 47.703125 
L 18.3125 18.015625 
Q 18.3125 11.328125 20.140625 9.421875 
Q 21.96875 7.515625 27.59375 7.515625 
L 36.8125 7.515625 
L 36.8125 0 
L 27.59375 0 
Q 17.1875 0 13.234375 3.875 
Q 9.28125 7.765625 9.28125 18.015625 
L 9.28125 47.703125 
L 2.6875 47.703125 
L 2.6875 54.6875 
L 9.28125 54.6875 
L 9.28125 70.21875 
z
" id="DejaVuSans-116"/>
      <path d="M 8.5 21.578125 
L 8.5 54.6875 
L 17.484375 54.6875 
L 17.484375 21.921875 
Q 17.484375 14.15625 20.5 10.265625 
Q 23.53125 6.390625 29.59375 6.390625 
Q 36.859375 6.390625 41.078125 11.03125 
Q 45.3125 15.671875 45.3125 23.6875 
L 45.3125 54.6875 
L 54.296875 54.6875 
L 54.296875 0 
L 45.3125 0 
L 45.3125 8.40625 
Q 42.046875 3.421875 37.71875 1 
Q 33.40625 -1.421875 27.6875 -1.421875 
Q 18.265625 -1.421875 13.375 4.4375 
Q 8.5 10.296875 8.5 21.578125 
z
M 31.109375 56 
z
" id="DejaVuSans-117"/>
      <path d="M 45.40625 46.390625 
L 45.40625 75.984375 
L 54.390625 75.984375 
L 54.390625 0 
L 45.40625 0 
L 45.40625 8.203125 
Q 42.578125 3.328125 38.25 0.953125 
Q 33.9375 -1.421875 27.875 -1.421875 
Q 17.96875 -1.421875 11.734375 6.484375 
Q 5.515625 14.40625 5.515625 27.296875 
Q 5.515625 40.1875 11.734375 48.09375 
Q 17.96875 56 27.875 56 
Q 33.9375 56 38.25 53.625 
Q 42.578125 51.265625 45.40625 46.390625 
z
M 14.796875 27.296875 
Q 14.796875 17.390625 18.875 11.75 
Q 22.953125 6.109375 30.078125 6.109375 
Q 37.203125 6.109375 41.296875 11.75 
Q 45.40625 17.390625 45.40625 27.296875 
Q 45.40625 37.203125 41.296875 42.84375 
Q 37.203125 48.484375 30.078125 48.484375 
Q 22.953125 48.484375 18.875 42.84375 
Q 14.796875 37.203125 14.796875 27.296875 
z
" id="DejaVuSans-100"/>
     </defs>
     <g transform="translate(18.872187 238.282656)rotate(-90)scale(0.1 -0.1)">
      <use xlink:href="#DejaVuSans-65"/>
      <use x="68.408203" xlink:href="#DejaVuSans-109"/>
      <use x="165.820312" xlink:href="#DejaVuSans-112"/>
      <use x="229.296875" xlink:href="#DejaVuSans-108"/>
      <use x="257.080078" xlink:href="#DejaVuSans-105"/>
      <use x="284.863281" xlink:href="#DejaVuSans-116"/>
      <use x="324.072266" xlink:href="#DejaVuSans-117"/>
      <use x="387.451172" xlink:href="#DejaVuSans-100"/>
      <use x="450.927734" xlink:href="#DejaVuSans-101"/>
     </g>
    </g>
   </g>
   <g id="line2d_27">
    <path clip-path="url(#p88c468b5a2)" d="M 47.855 388.6 
L 53.712183 388.298614 
L 59.569365 387.381638 
L 65.426548 385.811375 
L 71.28373 383.527477 
L 77.140913 380.450561 
L 82.998095 376.487041 
L 88.855278 371.534984 
L 94.71246 365.490731 
L 100.569643 358.255981 
L 106.426825 349.745057 
L 112.284008 339.892002 
L 118.14119 328.657202 
L 123.998373 316.033241 
L 129.855556 302.049688 
L 135.712738 286.776611 
L 141.569921 270.326614 
L 147.427103 252.855267 
L 153.284286 234.559879 
L 159.141468 215.676595 
L 164.998651 196.475895 
L 170.855833 177.256625 
L 176.713016 158.338741 
L 182.570198 140.055017 
L 188.427381 122.741996 
L 194.284563 106.730505 
L 200.141746 92.336074 
L 205.998929 79.849598 
L 211.856111 69.528578 
L 217.713294 61.589278 
L 223.570476 56.200066 
L 229.427659 53.47619 
L 235.284841 53.47619 
L 241.142024 56.200066 
L 246.999206 61.589278 
L 252.856389 69.528578 
L 258.713571 79.849598 
L 264.570754 92.336074 
L 270.427937 106.730505 
L 276.285119 122.741996 
L 282.142302 140.055017 
L 287.999484 158.338741 
L 293.856667 177.256625 
L 299.713849 196.475895 
L 305.571032 215.676595 
L 311.428214 234.559879 
L 317.285397 252.855267 
L 323.142579 270.326614 
L 328.999762 286.776611 
L 334.856944 302.049688 
L 340.714127 316.033241 
L 346.57131 328.657202 
L 352.428492 339.892002 
L 358.285675 349.745057 
L 364.142857 358.255981 
L 370.00004 365.490731 
L 375.857222 371.534984 
L 381.714405 376.487041 
L 387.571587 380.450561 
L 393.42877 383.527477 
L 399.285952 385.811375 
L 405.143135 387.381638 
L 411.000317 388.298614 
L 416.8575 388.6 
" style="fill:none;stroke:#0072bd;stroke-linecap:square;stroke-width:1.4;"/>
    <defs>
     <path d="M 0 1.5 
C 0.397805 1.5 0.77937 1.341951 1.06066 1.06066 
C 1.341951 0.77937 1.5 0.397805 1.5 0 
C 1.5 -0.397805 1.341951 -0.77937 1.06066 -1.06066 
C 0.77937 -1.341951 0.397805 -1.5 0 -1.5 
C -0.397805 -1.5 -0.77937 -1.341951 -1.06066 -1.06066 
C -1.341951 -0.77937 -1.5 -0.397805 -1.5 0 
C -1.5 0.397805 -1.341951 0.77937 -1.06066 1.06066 
C -0.77937 1.341951 -0.397805 1.5 0 1.5 
z
" id="mf2142ee195" style="stroke:#0072bd;"/>
    </defs>
    <g clip-path="url(#p88c468b5a2)">
     <use style="fill:#0072bd;stroke:#0072bd;" x="47.855" xlink:href="#mf2142ee195" y="388.6"/>
     <use style="fill:#0072bd;stroke:#0072bd;" x="53.712183" xlink:href="#mf2142ee195" y="388.298614"/>
     <use style="fill:#0072bd;stroke:#0072bd;" x="59.569365" xlink:href="#mf2142ee195" y="387.381638"/>
     <use style="fill:#0072bd;stroke:#0072bd;" x="65.426548" xlink:href="#mf2142ee195" y="385.811375"/>
     <use style="fill:#0072bd;stroke:#0072bd;" x="71.28373" xlink:href="#mf2142ee195" y="383.527477"/>
     <use style="fill:#0072bd;stroke:#0072bd;" x="77.140913" xlink:href="#mf2142ee195" y="380.450561"/>
     <use style="fill:#0072bd;stroke:#0072bd;" x="82.998095" xlink:href="#mf2142ee195" y="376.487041"/>
     <use style="fill:#0072bd;stroke:#0072bd;" x="88.855278" xlink:href="#mf2142ee195" y="371.534984"/>
     <use style="fill:#0072bd;stroke:#0072bd;" x="94.71246" xlink:href="#mf2142ee195" y="365.490731"/>
     <use style="fill:#0072bd;stroke:#0072bd;" x="100.569643" xlink:href="#mf2142ee195" y="358.255981"/>
     <use style="fill:#0072bd;stroke:#0072bd;" x="106.426825" xlink:href="#mf2142ee195" y="349.745057"/>
     <use style="fill:#0072bd;stroke:#0072bd;" x="112.284008" xlink:href="#mf2142ee195" y="339.892002"/>
     <use style="fill:#0072bd;stroke:#0072bd;" x="118.14119" xlink:href="#mf2142ee195" y="328.657202"/>
     <use style="fill:#0072bd;stroke:#0072bd;" x="123.998373" xlink:href="#mf2142ee195" y="316.033241"/>
     <use style="fill:#0072bd;stroke:#0072bd;" x="129.855556" xlink:href="#mf2142ee195" y="302.049688"/>
     <use style="fill:#0072bd;stroke:#0072bd;" x="135.712738" xlink:href="#mf2142ee195" y="286.776611"/>
     <use style="fill:#0072bd;stroke:#0072bd;" x="141.569921" xlink:href="#mf2142ee195" y="270.326614"/>
     <use style="fill:#0072bd;stroke:#0072bd;" x="147.427103" xlink:href="#mf2142ee195" y="252.855267"/>
     <use style="fill:#0072bd;stroke:#0072bd;" x="153.284286" xlink:href="#mf2142ee195" y="234.559879"/>
     <use style="fill:#0072bd;stroke:#0072bd;" x="159.141468" xlink:href="#mf2142ee195" y="215.676595"/>
     <use style="fill:#0072bd;stroke:#0072bd;" x="164.998651" xlink:href="#mf2142ee195" y="196.475895"/>
     <use style="fill:#0072bd;stroke:#0072bd;" x="170.855833" xlink:href="#mf2142ee195" y="177.256625"/>
     <use style="fill:#0072bd;stroke:#0072bd;" x="176.713016" xlink:href="#mf2142ee195" y="158.338741"/>
     <use style="fill:#0072bd;stroke:#0072bd;" x="182.570198" xlink:href="#mf2142ee195" y="140.055017"/>
     <use style="fill:#0072bd;stroke:#0072bd;" x="188.427381" xlink:href="#mf2142ee195" y="122.741996"/>
     <use style="fill:#0072bd;stroke:#0072bd;" x="194.284563" xlink:href="#mf2142ee195" y="106.730505"/>
     <use style="fill:#0072bd;stroke:#0072bd;" x="200.141746" xlink:href="#mf2142ee195" y="92.336074"/>
     <use style="fill:#0072bd;stroke:#0072bd;" x="205.998929" xlink:href="#mf2142ee195" y="79.849598"/>
     <use style="fill:#0072bd;stroke:#0072bd;" x="211.856111" xlink:href="#mf2142ee195" y="69.528578"/>
     <use style="fill:#0072bd;stroke:#0072bd;" x="217.713294" xlink:href="#mf2142ee195" y="61.589278"/>
     <use style="fill:#0072bd;stroke:#0072bd;" x="223.570476" xlink:href="#mf2142ee195" y="56.200066"/>
     <use style="fill:#0072bd;stroke:#0072bd;" x="229.427659" xlink:href="#mf2142ee195" y="53.47619"/>
     <use style="fill:#0072bd;stroke:#0072bd;" x="235.284841" xlink:href="#mf2142ee195" y="53.47619"/>
     <use style="fill:#0072bd;stroke:#0072bd;" x="241.142024" xlink:href="#mf2142ee195" y="56.200066"/>
     <use style="fill:#0072bd;stroke:#0072bd;" x="246.999206" xlink:href="#mf2142ee195" y="61.589278"/>
     <use style="fill:#0072bd;stroke:#0072bd;" x="252.856389" xlink:href="#mf2142ee195" y="69.528578"/>
     <use style="fill:#0072bd;stroke:#0072bd;" x="258.713571" xlink:href="#mf2142ee195" y="79.849598"/>
     <use style="fill:#0072bd;stroke:#0072bd;" x="264.570754" xlink:href="#mf2142ee195" y="92.336074"/>
     <use style="fill:#0072bd;stroke:#0072bd;" x="270.427937" xlink:href="#mf2142ee195" y="106.730505"/>
     <use style="fill:#0072bd;stroke:#0072bd;" x="276.285119" xlink:href="#mf2142ee195" y="122.741996"/>
     <use style="fill:#0072bd;stroke:#0072bd;" x="282.142302" xlink:href="#mf2142ee195" y="140.055017"/>
     <use style="fill:#0072bd;stroke:#0072bd;" x="287.999484" xlink:href="#mf2142ee195" y="158.338741"/>
     <use style="fill:#0072bd;stroke:#0072bd;" x="293.856667" xlink:href="#mf2142ee195" y="177.256625"/>
     <use style="fill:#0072bd;stroke:#0072bd;" x="299.713849" xlink:href="#mf2142ee195" y="196.475895"/>
     <use style="fill:#0072bd;stroke:#0072bd;" x="305.571032" xlink:href="#mf2142ee195" y="215.676595"/>
     <use style="fill:#0072bd;stroke:#0072bd;" x="311.428214" xlink:href="#mf2142ee195" y="234.559879"/>
     <use style="fill:#0072bd;stroke:#0072bd;" x="317.285397" xlink:href="#mf2142ee195" y="252.855267"/>
     <use style="fill:#0072bd;stroke:#0072bd;" x="323.142579" xlink:href="#mf2142ee195" y="270.326614"/>
     <use style="fill:#0072bd;stroke:#0072bd;" x="328.999762" xlink:href="#mf2142ee195" y="286.776611"/>
     <use style="fill:#0072bd;stroke:#0072bd;" x="334.856944" xlink:href="#mf2142ee195" y="302.049688"/>
     <use style="fill:#0072bd;stroke:#0072bd;" x="340.714127" xlink:href="#mf2142ee195" y="316.033241"/>
     <use style="fill:#0072bd;stroke:#0072bd;" x="346.57131" xlink:href="#mf2142ee195" y="328.657202"/>
     <use style="fill:#0072bd;stroke:#0072bd;" x="352.428492" xlink:href="#mf2142ee195" y="339.892002"/>
     <use style="fill:#0072bd;stroke:#0072bd;" x="358.285675" xlink:href="#mf2142ee195" y="349.745057"/>
     <use style="fill:#0072bd;stroke:#0072bd;" x="364.142857" xlink:href="#mf2142ee195" y="358.255981"/>
     <use style="fill:#0072bd;stroke:#0072bd;" x="370.00004" xlink:href="#mf2142ee195" y="365.490731"/>
     <use style="fill:#0072bd;stroke:#0072bd;" x="375.857222" xlink:href="#mf2142ee195" y="371.534984"/>
     <use style="fill:#0072bd;stroke:#0072bd;" x="381.714405" xlink:href="#mf2142ee195" y="376.487041"/>
     <use style="fill:#0072bd;stroke:#0072bd;" x="387.571587" xlink:href="#mf2142ee195" y="380.450561"/>
     <use style="fill:#0072bd;stroke:#0072bd;" x="393.42877" xlink:href="#mf2142ee195" y="383.527477"/>
     <use style="fill:#0072bd;stroke:#0072bd;" x="399.285952" xlink:href="#mf2142ee195" y="385.811375"/>
     <use style="fill:#0072bd;stroke:#0072bd;" x="405.143135" xlink:href="#mf2142ee195" y="387.381638"/>
     <use style="fill:#0072bd;stroke:#0072bd;" x="411.000317" xlink:href="#mf2142ee195" y="388.298614"/>
     <use style="fill:#0072bd;stroke:#0072bd;" x="416.8575" xlink:href="#mf2142ee195" y="388.6"/>
    </g>
   </g>
   <g id="patch_3">
    <path d="M 47.855 388.6 
L 47.855 36.72 
" style="fill:none;stroke:#000000;stroke-linecap:square;stroke-linejoin:miter;stroke-width:0.8;"/>
   </g>
   <g id="patch_4">
    <path d="M 416.8575 388.6 
L 416.8575 36.72 
" style="fill:none;stroke:#000000;stroke-linecap:square;stroke-linejoin:miter;stroke-width:0.8;"/>
   </g>
   <g id="patch_5">
    <path d="M 47.855 388.6 
L 416.8575 388.6 
" style="fill:none;stroke:#000000;stroke-linecap:square;stroke-linejoin:miter;stroke-width:0.8;"/>
   </g>
   <g id="patch_6">
    <path d="M 47.855 36.72 
L 416.8575 36.72 
" style="fill:none;stroke:#000000;stroke-linecap:square;stroke-linejoin:miter;stroke-width:0.8;"/>
   </g>
  </g>
  <g id="axes_2">
   <g id="patch_7">
    <path d="M 476.2325 388.6 
L 845.235 388.6 
L 845.235 36.72 
L 476.2325 36.72 
z
" style="fill:#ffffff;"/>
   </g>
   <g id="matplotlib.axis_3">
    <g id="xtick_8">
     <g id="line2d_28">
      <path clip-path="url(#pc90e977743)" d="M 476.2325 388.6 
L 476.2325 36.72 
" style="fill:none;stroke:#777777;stroke-linecap:square;stroke-width:0.8;"/>
     </g>
     <g id="line2d_29">
      <g>
       <use style="stroke:#000000;stroke-width:0.8;" x="476.2325" xlink:href="#m41228d2211" y="388.6"/>
      </g>
     </g>
     <g id="text_16">
      <!-- 0.0 -->
      <g transform="translate(468.280937 403.198438)scale(0.1 -0.1)">
       <use xlink:href="#DejaVuSans-48"/>
       <use x="63.623047" xlink:href="#DejaVuSans-46"/>
       <use x="95.410156" xlink:href="#DejaVuSans-48"/>
      </g>
     </g>
    </g>
    <g id="xtick_9">
     <g id="line2d_30">
      <path clip-path="url(#pc90e977743)" d="M 550.033 388.6 
L 550.033 36.72 
" style="fill:none;stroke:#777777;stroke-linecap:square;stroke-width:0.8;"/>
     </g>
     <g id="line2d_31">
      <g>
       <use style="stroke:#000000;stroke-width:0.8;" x="550.033" xlink:href="#m41228d2211" y="388.6"/>
      </g>
     </g>
     <g id="text_17">
      <!-- 0.2 -->
      <g transform="translate(542.081437 403.198438)scale(0.1 -0.1)">
       <use xlink:href="#DejaVuSans-48"/>
       <use x="63.623047" xlink:href="#DejaVuSans-46"/>
       <use x="95.410156" xlink:href="#DejaVuSans-50"/>
      </g>
     </g>
    </g>
    <g id="xtick_10">
     <g id="line2d_32">
      <path clip-path="url(#pc90e977743)" d="M 623.8335 388.6 
L 623.8335 36.72 
" style="fill:none;stroke:#777777;stroke-linecap:square;stroke-width:0.8;"/>
     </g>
     <g id="line2d_33">
      <g>
       <use style="stroke:#000000;stroke-width:0.8;" x="623.8335" xlink:href="#m41228d2211" y="388.6"/>
      </g>
     </g>
     <g id="text_18">
      <!-- 0.4 -->
      <g transform="translate(615.881937 403.198438)scale(0.1 -0.1)">
       <use xlink:href="#DejaVuSans-48"/>
       <use x="63.623047" xlink:href="#DejaVuSans-46"/>
       <use x="95.410156" xlink:href="#DejaVuSans-52"/>
      </g>
     </g>
    </g>
    <g id="xtick_11">
     <g id="line2d_34">
      <path clip-path="url(#pc90e977743)" d="M 697.634 388.6 
L 697.634 36.72 
" style="fill:none;stroke:#777777;stroke-linecap:square;stroke-width:0.8;"/>
     </g>
     <g id="line2d_35">
      <g>
       <use style="stroke:#000000;stroke-width:0.8;" x="697.634" xlink:href="#m41228d2211" y="388.6"/>
      </g>
     </g>
     <g id="text_19">
      <!-- 0.6 -->
      <g transform="translate(689.682437 403.198438)scale(0.1 -0.1)">
       <use xlink:href="#DejaVuSans-48"/>
       <use x="63.623047" xlink:href="#DejaVuSans-46"/>
       <use x="95.410156" xlink:href="#DejaVuSans-54"/>
      </g>
     </g>
    </g>
    <g id="xtick_12">
     <g id="line2d_36">
      <path clip-path="url(#pc90e977743)" d="M 771.4345 388.6 
L 771.4345 36.72 
" style="fill:none;stroke:#777777;stroke-linecap:square;stroke-width:0.8;"/>
     </g>
     <g id="line2d_37">
      <g>
       <use style="stroke:#000000;stroke-width:0.8;" x="771.4345" xlink:href="#m41228d2211" y="388.6"/>
      </g>
     </g>
     <g id="text_20">
      <!-- 0.8 -->
      <g transform="translate(763.482937 403.198438)scale(0.1 -0.1)">
       <use xlink:href="#DejaVuSans-48"/>
       <use x="63.623047" xlink:href="#DejaVuSans-46"/>
       <use x="95.410156" xlink:href="#DejaVuSans-56"/>
      </g>
     </g>
    </g>
    <g id="xtick_13">
     <g id="line2d_38">
      <path clip-path="url(#pc90e977743)" d="M 845.235 388.6 
L 845.235 36.72 
" style="fill:none;stroke:#777777;stroke-linecap:square;stroke-width:0.8;"/>
     </g>
     <g id="line2d_39">
      <g>
       <use style="stroke:#000000;stroke-width:0.8;" x="845.235" xlink:href="#m41228d2211" y="388.6"/>
      </g>
     </g>
     <g id="text_21">
      <!-- 1.0 -->
      <g transform="translate(837.283437 403.198438)scale(0.1 -0.1)">
       <use xlink:href="#DejaVuSans-49"/>
       <use x="63.623047" xlink:href="#DejaVuSans-46"/>
       <use x="95.410156" xlink:href="#DejaVuSans-48"/>
      </g>
     </g>
    </g>
    <g id="text_22">
     <!-- Normalized Frequency ($\times \pi$ rad/sample) -->
     <defs>
      <path d="M 9.8125 72.90625 
L 23.09375 72.90625 
L 55.421875 11.921875 
L 55.421875 72.90625 
L 64.984375 72.90625 
L 64.984375 0 
L 51.703125 0 
L 19.390625 60.984375 
L 19.390625 0 
L 9.8125 0 
z
" id="DejaVuSans-78"/>
      <path d="M 30.609375 48.390625 
Q 23.390625 48.390625 19.1875 42.75 
Q 14.984375 37.109375 14.984375 27.296875 
Q 14.984375 17.484375 19.15625 11.84375 
Q 23.34375 6.203125 30.609375 6.203125 
Q 37.796875 6.203125 41.984375 11.859375 
Q 46.1875 17.53125 46.1875 27.296875 
Q 46.1875 37.015625 41.984375 42.703125 
Q 37.796875 48.390625 30.609375 48.390625 
z
M 30.609375 56 
Q 42.328125 56 49.015625 48.375 
Q 55.71875 40.765625 55.71875 27.296875 
Q 55.71875 13.875 49.015625 6.21875 
Q 42.328125 -1.421875 30.609375 -1.421875 
Q 18.84375 -1.421875 12.171875 6.21875 
Q 5.515625 13.875 5.515625 27.296875 
Q 5.515625 40.765625 12.171875 48.375 
Q 18.84375 56 30.609375 56 
z
" id="DejaVuSans-111"/>
      <path d="M 41.109375 46.296875 
Q 39.59375 47.171875 37.8125 47.578125 
Q 36.03125 48 33.890625 48 
Q 26.265625 48 22.1875 43.046875 
Q 18.109375 38.09375 18.109375 28.8125 
L 18.109375 0 
L 9.078125 0 
L 9.078125 54.6875 
L 18.109375 54.6875 
L 18.109375 46.1875 
Q 20.953125 51.171875 25.484375 53.578125 
Q 30.03125 56 36.53125 56 
Q 37.453125 56 38.578125 55.875 
Q 39.703125 55.765625 41.0625 55.515625 
z
" id="DejaVuSans-114"/>
      <path d="M 5.515625 54.6875 
L 48.1875 54.6875 
L 48.1875 46.484375 
L 14.40625 7.171875 
L 48.1875 7.171875 
L 48.1875 0 
L 4.296875 0 
L 4.296875 8.203125 
L 38.09375 47.515625 
L 5.515625 47.515625 
z
" id="DejaVuSans-122"/>
      <path id="DejaVuSans-32"/>
      <path d="M 9.8125 72.90625 
L 51.703125 72.90625 
L 51.703125 64.59375 
L 19.671875 64.59375 
L 19.671875 43.109375 
L 48.578125 43.109375 
L 48.578125 34.8125 
L 19.671875 34.8125 
L 19.671875 0 
L 9.8125 0 
z
" id="DejaVuSans-70"/>
      <path d="M 14.796875 27.296875 
Q 14.796875 17.390625 18.875 11.75 
Q 22.953125 6.109375 30.078125 6.109375 
Q 37.203125 6.109375 41.296875 11.75 
Q 45.40625 17.390625 45.40625 27.296875 
Q 45.40625 37.203125 41.296875 42.84375 
Q 37.203125 48.484375 30.078125 48.484375 
Q 22.953125 48.484375 18.875 42.84375 
Q 14.796875 37.203125 14.796875 27.296875 
z
M 45.40625 8.203125 
Q 42.578125 3.328125 38.25 0.953125 
Q 33.9375 -1.421875 27.875 -1.421875 
Q 17.96875 -1.421875 11.734375 6.484375 
Q 5.515625 14.40625 5.515625 27.296875 
Q 5.515625 40.1875 11.734375 48.09375 
Q 17.96875 56 27.875 56 
Q 33.9375 56 38.25 53.625 
Q 42.578125 51.265625 45.40625 46.390625 
L 45.40625 54.6875 
L 54.390625 54.6875 
L 54.390625 -20.796875 
L 45.40625 -20.796875 
z
" id="DejaVuSans-113"/>
      <path d="M 54.890625 33.015625 
L 54.890625 0 
L 45.90625 0 
L 45.90625 32.71875 
Q 45.90625 40.484375 42.875 44.328125 
Q 39.84375 48.1875 33.796875 48.1875 
Q 26.515625 48.1875 22.3125 43.546875 
Q 18.109375 38.921875 18.109375 30.90625 
L 18.109375 0 
L 9.078125 0 
L 9.078125 54.6875 
L 18.109375 54.6875 
L 18.109375 46.1875 
Q 21.34375 51.125 25.703125 53.5625 
Q 30.078125 56 35.796875 56 
Q 45.21875 56 50.046875 50.171875 
Q 54.890625 44.34375 54.890625 33.015625 
z
" id="DejaVuSans-110"/>
      <path d="M 48.78125 52.59375 
L 48.78125 44.1875 
Q 44.96875 46.296875 41.140625 47.34375 
Q 37.3125 48.390625 33.40625 48.390625 
Q 24.65625 48.390625 19.8125 42.84375 
Q 14.984375 37.3125 14.984375 27.296875 
Q 14.984375 17.28125 19.8125 11.734375 
Q 24.65625 6.203125 33.40625 6.203125 
Q 37.3125 6.203125 41.140625 7.25 
Q 44.96875 8.296875 48.78125 10.40625 
L 48.78125 2.09375 
Q 45.015625 0.34375 40.984375 -0.53125 
Q 36.96875 -1.421875 32.421875 -1.421875 
Q 20.0625 -1.421875 12.78125 6.34375 
Q 5.515625 14.109375 5.515625 27.296875 
Q 5.515625 40.671875 12.859375 48.328125 
Q 20.21875 56 33.015625 56 
Q 37.15625 56 41.109375 55.140625 
Q 45.0625 54.296875 48.78125 52.59375 
z
" id="DejaVuSans-99"/>
      <path d="M 32.171875 -5.078125 
Q 28.375 -14.84375 24.75 -17.8125 
Q 21.140625 -20.796875 15.09375 -20.796875 
L 7.90625 -20.796875 
L 7.90625 -13.28125 
L 13.1875 -13.28125 
Q 16.890625 -13.28125 18.9375 -11.515625 
Q 21 -9.765625 23.484375 -3.21875 
L 25.09375 0.875 
L 2.984375 54.6875 
L 12.5 54.6875 
L 29.59375 11.921875 
L 46.6875 54.6875 
L 56.203125 54.6875 
z
" id="DejaVuSans-121"/>
      <path d="M 31 75.875 
Q 24.46875 64.65625 21.28125 53.65625 
Q 18.109375 42.671875 18.109375 31.390625 
Q 18.109375 20.125 21.3125 9.0625 
Q 24.515625 -2 31 -13.1875 
L 23.1875 -13.1875 
Q 15.875 -1.703125 12.234375 9.375 
Q 8.59375 20.453125 8.59375 31.390625 
Q 8.59375 42.28125 12.203125 53.3125 
Q 15.828125 64.359375 23.1875 75.875 
z
" id="DejaVuSans-40"/>
      <path d="M 70.125 53.71875 
L 47.796875 31.296875 
L 70.125 8.984375 
L 64.3125 3.078125 
L 41.890625 25.484375 
L 19.484375 3.078125 
L 13.71875 8.984375 
L 35.984375 31.296875 
L 13.71875 53.71875 
L 19.484375 59.625 
L 41.890625 37.203125 
L 64.3125 59.625 
z
" id="DejaVuSans-215"/>
      <path d="M 9.125 54.6875 
L 61.53125 54.6875 
L 59.765625 45.703125 
L 52.875 45.703125 
L 46.34375 12.109375 
Q 45.65625 8.59375 46.578125 7.03125 
Q 47.46875 5.515625 50.140625 5.515625 
Q 50.875 5.515625 51.953125 5.671875 
Q 53.078125 5.765625 53.421875 5.8125 
L 52.15625 -0.6875 
Q 50.34375 -1.3125 48.484375 -1.609375 
Q 46.578125 -1.90625 44.78125 -1.90625 
Q 38.921875 -1.90625 37.3125 1.265625 
Q 35.6875 4.5 37.359375 13.09375 
L 43.703125 45.703125 
L 23.53125 45.703125 
L 14.65625 0 
L 5.46875 0 
L 14.359375 45.703125 
L 7.375 45.703125 
z
" id="DejaVuSans-Oblique-960"/>
      <path d="M 25.390625 72.90625 
L 33.6875 72.90625 
L 8.296875 -9.28125 
L 0 -9.28125 
z
" id="DejaVuSans-47"/>
      <path d="M 8.015625 75.875 
L 15.828125 75.875 
Q 23.140625 64.359375 26.78125 53.3125 
Q 30.421875 42.28125 30.421875 31.390625 
Q 30.421875 20.453125 26.78125 9.375 
Q 23.140625 -1.703125 15.828125 -13.1875 
L 8.015625 -13.1875 
Q 14.5 -2 17.703125 9.0625 
Q 20.90625 20.125 20.90625 31.390625 
Q 20.90625 42.671875 17.703125 53.65625 
Q 14.5 64.65625 8.015625 75.875 
z
" id="DejaVuSans-41"/>
     </defs>
     <g transform="translate(561.93375 416.878125)scale(0.1 -0.1)">
      <use transform="translate(0 0.015625)" xlink:href="#DejaVuSans-78"/>
      <use transform="translate(74.804688 0.015625)" xlink:href="#DejaVuSans-111"/>
      <use transform="translate(135.986328 0.015625)" xlink:href="#DejaVuSans-114"/>
      <use transform="translate(177.099609 0.015625)" xlink:href="#DejaVuSans-109"/>
      <use transform="translate(274.511719 0.015625)" xlink:href="#DejaVuSans-97"/>
      <use transform="translate(335.791016 0.015625)" xlink:href="#DejaVuSans-108"/>
      <use transform="translate(363.574219 0.015625)" xlink:href="#DejaVuSans-105"/>
      <use transform="translate(391.357422 0.015625)" xlink:href="#DejaVuSans-122"/>
      <use transform="translate(443.847656 0.015625)" xlink:href="#DejaVuSans-101"/>
      <use transform="translate(505.371094 0.015625)" xlink:href="#DejaVuSans-100"/>
      <use transform="translate(568.847656 0.015625)" xlink:href="#DejaVuSans-32"/>
      <use transform="translate(600.634766 0.015625)" xlink:href="#DejaVuSans-70"/>
      <use transform="translate(658.154297 0.015625)" xlink:href="#DejaVuSans-114"/>
      <use transform="translate(699.267578 0.015625)" xlink:href="#DejaVuSans-101"/>
      <use transform="translate(760.791016 0.015625)" xlink:href="#DejaVuSans-113"/>
      <use transform="translate(824.267578 0.015625)" xlink:href="#DejaVuSans-117"/>
      <use transform="translate(887.646484 0.015625)" xlink:href="#DejaVuSans-101"/>
      <use transform="translate(949.169922 0.015625)" xlink:href="#DejaVuSans-110"/>
      <use transform="translate(1012.548828 0.015625)" xlink:href="#DejaVuSans-99"/>
      <use transform="translate(1067.529297 0.015625)" xlink:href="#DejaVuSans-121"/>
      <use transform="translate(1126.708984 0.015625)" xlink:href="#DejaVuSans-32"/>
      <use transform="translate(1158.496094 0.015625)" xlink:href="#DejaVuSans-40"/>
      <use transform="translate(1197.509766 0.015625)" xlink:href="#DejaVuSans-215"/>
      <use transform="translate(1281.298828 0.015625)" xlink:href="#DejaVuSans-Oblique-960"/>
      <use transform="translate(1341.503906 0.015625)" xlink:href="#DejaVuSans-32"/>
      <use transform="translate(1373.291016 0.015625)" xlink:href="#DejaVuSans-114"/>
      <use transform="translate(1414.404297 0.015625)" xlink:href="#DejaVuSans-97"/>
      <use transform="translate(1475.683594 0.015625)" xlink:href="#DejaVuSans-100"/>
      <use transform="translate(1539.160156 0.015625)" xlink:href="#DejaVuSans-47"/>
      <use transform="translate(1572.851562 0.015625)" xlink:href="#DejaVuSans-115"/>
      <use transform="translate(1624.951172 0.015625)" xlink:href="#DejaVuSans-97"/>
      <use transform="translate(1686.230469 0.015625)" xlink:href="#DejaVuSans-109"/>
      <use transform="translate(1783.642578 0.015625)" xlink:href="#DejaVuSans-112"/>
      <use transform="translate(1847.119141 0.015625)" xlink:href="#DejaVuSans-108"/>
      <use transform="translate(1874.902344 0.015625)" xlink:href="#DejaVuSans-101"/>
      <use transform="translate(1936.425781 0.015625)" xlink:href="#DejaVuSans-41"/>
     </g>
    </g>
   </g>
   <g id="matplotlib.axis_4">
    <g id="ytick_7">
     <g id="line2d_40">
      <path clip-path="url(#pc90e977743)" d="M 476.2325 349.714649 
L 845.235 349.714649 
" style="fill:none;stroke:#777777;stroke-linecap:square;stroke-width:0.8;"/>
     </g>
     <g id="line2d_41">
      <g>
       <use style="stroke:#000000;stroke-width:0.8;" x="476.2325" xlink:href="#m1ee6f1366e" y="349.714649"/>
      </g>
     </g>
     <g id="text_23">
      <!-- −120 -->
      <defs>
       <path d="M 10.59375 35.5 
L 73.1875 35.5 
L 73.1875 27.203125 
L 10.59375 27.203125 
z
" id="DejaVuSans-8722"/>
      </defs>
      <g transform="translate(441.765312 353.513868)scale(0.1 -0.1)">
       <use xlink:href="#DejaVuSans-8722"/>
       <use x="83.789062" xlink:href="#DejaVuSans-49"/>
       <use x="147.412109" xlink:href="#DejaVuSans-50"/>
       <use x="211.035156" xlink:href="#DejaVuSans-48"/>
      </g>
     </g>
    </g>
    <g id="ytick_8">
     <g id="line2d_42">
      <path clip-path="url(#pc90e977743)" d="M 476.2325 309.701647 
L 845.235 309.701647 
" style="fill:none;stroke:#777777;stroke-linecap:square;stroke-width:0.8;"/>
     </g>
     <g id="line2d_43">
      <g>
       <use style="stroke:#000000;stroke-width:0.8;" x="476.2325" xlink:href="#m1ee6f1366e" y="309.701647"/>
      </g>
     </g>
     <g id="text_24">
      <!-- −100 -->
      <g transform="translate(441.765312 313.500866)scale(0.1 -0.1)">
       <use xlink:href="#DejaVuSans-8722"/>
       <use x="83.789062" xlink:href="#DejaVuSans-49"/>
       <use x="147.412109" xlink:href="#DejaVuSans-48"/>
       <use x="211.035156" xlink:href="#DejaVuSans-48"/>
      </g>
     </g>
    </g>
    <g id="ytick_9">
     <g id="line2d_44">
      <path clip-path="url(#pc90e977743)" d="M 476.2325 269.688645 
L 845.235 269.688645 
" style="fill:none;stroke:#777777;stroke-linecap:square;stroke-width:0.8;"/>
     </g>
     <g id="line2d_45">
      <g>
       <use style="stroke:#000000;stroke-width:0.8;" x="476.2325" xlink:href="#m1ee6f1366e" y="269.688645"/>
      </g>
     </g>
     <g id="text_25">
      <!-- −80 -->
      <g transform="translate(448.127812 273.487864)scale(0.1 -0.1)">
       <use xlink:href="#DejaVuSans-8722"/>
       <use x="83.789062" xlink:href="#DejaVuSans-56"/>
       <use x="147.412109" xlink:href="#DejaVuSans-48"/>
      </g>
     </g>
    </g>
    <g id="ytick_10">
     <g id="line2d_46">
      <path clip-path="url(#pc90e977743)" d="M 476.2325 229.675643 
L 845.235 229.675643 
" style="fill:none;stroke:#777777;stroke-linecap:square;stroke-width:0.8;"/>
     </g>
     <g id="line2d_47">
      <g>
       <use style="stroke:#000000;stroke-width:0.8;" x="476.2325" xlink:href="#m1ee6f1366e" y="229.675643"/>
      </g>
     </g>
     <g id="text_26">
      <!-- −60 -->
      <g transform="translate(448.127812 233.474861)scale(0.1 -0.1)">
       <use xlink:href="#DejaVuSans-8722"/>
       <use x="83.789062" xlink:href="#DejaVuSans-54"/>
       <use x="147.412109" xlink:href="#DejaVuSans-48"/>
      </g>
     </g>
    </g>
    <g id="ytick_11">
     <g id="line2d_48">
      <path clip-path="url(#pc90e977743)" d="M 476.2325 189.66264 
L 845.235 189.66264 
" style="fill:none;stroke:#777777;stroke-linecap:square;stroke-width:0.8;"/>
     </g>
     <g id="line2d_49">
      <g>
       <use style="stroke:#000000;stroke-width:0.8;" x="476.2325" xlink:href="#m1ee6f1366e" y="189.66264"/>
      </g>
     </g>
     <g id="text_27">
      <!-- −40 -->
      <g transform="translate(448.127812 193.461859)scale(0.1 -0.1)">
       <use xlink:href="#DejaVuSans-8722"/>
       <use x="83.789062" xlink:href="#DejaVuSans-52"/>
       <use x="147.412109" xlink:href="#DejaVuSans-48"/>
      </g>
     </g>
    </g>
    <g id="ytick_12">
     <g id="line2d_50">
      <path clip-path="url(#pc90e977743)" d="M 476.2325 149.649638 
L 845.235 149.649638 
" style="fill:none;stroke:#777777;stroke-linecap:square;stroke-width:0.8;"/>
     </g>
     <g id="line2d_51">
      <g>
       <use style="stroke:#000000;stroke-width:0.8;" x="476.2325" xlink:href="#m1ee6f1366e" y="149.649638"/>
      </g>
     </g>
     <g id="text_28">
      <!-- −20 -->
      <g transform="translate(448.127812 153.448857)scale(0.1 -0.1)">
       <use xlink:href="#DejaVuSans-8722"/>
       <use x="83.789062" xlink:href="#DejaVuSans-50"/>
       <use x="147.412109" xlink:href="#DejaVuSans-48"/>
      </g>
     </g>
    </g>
    <g id="ytick_13">
     <g id="line2d_52">
      <path clip-path="url(#pc90e977743)" d="M 476.2325 109.636636 
L 845.235 109.636636 
" style="fill:none;stroke:#777777;stroke-linecap:square;stroke-width:0.8;"/>
     </g>
     <g id="line2d_53">
      <g>
       <use style="stroke:#000000;stroke-width:0.8;" x="476.2325" xlink:href="#m1ee6f1366e" y="109.636636"/>
      </g>
     </g>
     <g id="text_29">
      <!-- 0 -->
      <g transform="translate(462.87 113.435855)scale(0.1 -0.1)">
       <use xlink:href="#DejaVuSans-48"/>
      </g>
     </g>
    </g>
    <g id="ytick_14">
     <g id="line2d_54">
      <path clip-path="url(#pc90e977743)" d="M 476.2325 69.623634 
L 845.235 69.623634 
" style="fill:none;stroke:#777777;stroke-linecap:square;stroke-width:0.8;"/>
     </g>
     <g id="line2d_55">
      <g>
       <use style="stroke:#000000;stroke-width:0.8;" x="476.2325" xlink:href="#m1ee6f1366e" y="69.623634"/>
      </g>
     </g>
     <g id="text_30">
      <!-- 20 -->
      <g transform="translate(456.5075 73.422852)scale(0.1 -0.1)">
       <use xlink:href="#DejaVuSans-50"/>
       <use x="63.623047" xlink:href="#DejaVuSans-48"/>
      </g>
     </g>
    </g>
    <g id="text_31">
     <!-- Gain (dB) -->
     <defs>
      <path d="M 59.515625 10.40625 
L 59.515625 29.984375 
L 43.40625 29.984375 
L 43.40625 38.09375 
L 69.28125 38.09375 
L 69.28125 6.78125 
Q 63.578125 2.734375 56.6875 0.65625 
Q 49.8125 -1.421875 42 -1.421875 
Q 24.90625 -1.421875 15.25 8.5625 
Q 5.609375 18.5625 5.609375 36.375 
Q 5.609375 54.25 15.25 64.234375 
Q 24.90625 74.21875 42 74.21875 
Q 49.125 74.21875 55.546875 72.453125 
Q 61.96875 70.703125 67.390625 67.28125 
L 67.390625 56.78125 
Q 61.921875 61.421875 55.765625 63.765625 
Q 49.609375 66.109375 42.828125 66.109375 
Q 29.4375 66.109375 22.71875 58.640625 
Q 16.015625 51.171875 16.015625 36.375 
Q 16.015625 21.625 22.71875 14.15625 
Q 29.4375 6.6875 42.828125 6.6875 
Q 48.046875 6.6875 52.140625 7.59375 
Q 56.25 8.5 59.515625 10.40625 
z
" id="DejaVuSans-71"/>
      <path d="M 19.671875 34.8125 
L 19.671875 8.109375 
L 35.5 8.109375 
Q 43.453125 8.109375 47.28125 11.40625 
Q 51.125 14.703125 51.125 21.484375 
Q 51.125 28.328125 47.28125 31.5625 
Q 43.453125 34.8125 35.5 34.8125 
z
M 19.671875 64.796875 
L 19.671875 42.828125 
L 34.28125 42.828125 
Q 41.5 42.828125 45.03125 45.53125 
Q 48.578125 48.25 48.578125 53.8125 
Q 48.578125 59.328125 45.03125 62.0625 
Q 41.5 64.796875 34.28125 64.796875 
z
M 9.8125 72.90625 
L 35.015625 72.90625 
Q 46.296875 72.90625 52.390625 68.21875 
Q 58.5 63.53125 58.5 54.890625 
Q 58.5 48.1875 55.375 44.234375 
Q 52.25 40.28125 46.1875 39.3125 
Q 53.46875 37.75 57.5 32.78125 
Q 61.53125 27.828125 61.53125 20.40625 
Q 61.53125 10.640625 54.890625 5.3125 
Q 48.25 0 35.984375 0 
L 9.8125 0 
z
" id="DejaVuSans-66"/>
     </defs>
     <g transform="translate(435.685625 236.251406)rotate(-90)scale(0.1 -0.1)">
      <use xlink:href="#DejaVuSans-71"/>
      <use x="77.490234" xlink:href="#DejaVuSans-97"/>
      <use x="138.769531" xlink:href="#DejaVuSans-105"/>
      <use x="166.552734" xlink:href="#DejaVuSans-110"/>
      <use x="229.931641" xlink:href="#DejaVuSans-32"/>
      <use x="261.71875" xlink:href="#DejaVuSans-40"/>
      <use x="300.732422" xlink:href="#DejaVuSans-100"/>
      <use x="364.208984" xlink:href="#DejaVuSans-66"/>
      <use x="432.8125" xlink:href="#DejaVuSans-41"/>
     </g>
    </g>
   </g>
   <g id="line2d_56">
    <path clip-path="url(#pc90e977743)" d="M 476.2325 52.714545 
L 477.673916 52.846706 
L 479.115332 53.243939 
L 480.556748 53.908523 
L 481.998164 54.844324 
L 483.43958 56.056921 
L 484.880996 57.55377 
L 486.322412 59.344452 
L 487.763828 61.441008 
L 489.205244 63.858386 
L 490.64666 66.615057 
L 492.088076 69.733845 
L 493.529492 73.243092 
L 494.970908 77.178288 
L 496.412324 81.584436 
L 497.85374 86.519576 
L 499.295156 92.060211 
L 500.736572 98.31007 
L 502.177988 105.414996 
L 503.619404 113.590067 
L 505.06082 123.17358 
L 506.502236 134.748387 
L 507.943652 149.468097 
L 508.66436 158.759863 
L 509.385068 170.240215 
L 510.105776 185.613523 
L 510.826484 210.504587 
L 511.547192 249.02368 
L 512.2679 234.038191 
L 512.988608 202.518321 
L 513.709316 189.069563 
L 514.430024 181.022029 
L 515.150732 175.78356 
L 515.87144 172.346744 
L 516.592148 170.224578 
L 517.312856 169.161075 
L 518.033564 169.027778 
L 518.754272 169.78525 
L 519.47498 171.478121 
L 520.195688 174.263183 
L 520.916396 178.503621 
L 521.637104 185.078575 
L 522.357812 196.849069 
L 523.078521 269.251847 
L 523.799229 197.924582 
L 524.519937 186.385463 
L 525.240645 180.191698 
L 525.961353 176.324608 
L 526.682061 173.854153 
L 527.402769 172.378997 
L 528.123477 171.70074 
L 528.844185 171.721461 
L 529.564893 172.406035 
L 530.285601 173.77084 
L 531.006309 175.88974 
L 531.727017 178.922097 
L 532.447725 183.18911 
L 533.168433 189.40128 
L 533.889141 199.591271 
L 534.609849 226.823821 
L 536.051265 195.825157 
L 536.771973 188.875087 
L 537.492681 184.657588 
L 538.213389 181.977015 
L 538.934097 180.348782 
L 539.654805 179.539655 
L 540.375513 179.43354 
L 541.096221 179.983098 
L 541.816929 181.193338 
L 542.537637 183.123341 
L 543.258345 185.907426 
L 543.979053 189.814449 
L 544.699761 195.416707 
L 545.420469 204.211808 
L 546.141177 223.013404 
L 546.861885 225.129528 
L 547.582593 206.143017 
L 548.303301 198.046414 
L 549.024009 193.268056 
L 549.744717 190.225905 
L 550.465425 188.32433 
L 551.186133 187.285153 
L 551.906841 186.969281 
L 552.627549 187.314547 
L 553.348257 188.313337 
L 554.068965 190.010074 
L 554.789673 192.516592 
L 555.510381 196.058302 
L 556.231089 201.101629 
L 556.951797 208.784026 
L 557.672505 223.295785 
L 558.393213 245.42669 
L 559.113921 216.377668 
L 559.834629 206.780299 
L 560.555337 201.337207 
L 561.276045 197.885946 
L 561.996753 195.684252 
L 562.717461 194.398519 
L 563.438169 193.862748 
L 564.158877 193.998416 
L 564.879585 194.784978 
L 565.600293 196.253001 
L 566.321001 198.494492 
L 567.041709 201.698747 
L 567.762417 206.249753 
L 568.483125 213.03232 
L 569.203833 224.856467 
L 569.924541 285.615883 
L 570.645249 226.703264 
L 571.365957 215.070064 
L 572.086665 208.846172 
L 572.807373 204.945261 
L 573.528081 202.427063 
L 574.248789 200.88884 
L 574.969497 200.132905 
L 575.690205 200.062558 
L 576.410913 200.643876 
L 577.131621 201.894179 
L 577.852329 203.88779 
L 578.573037 206.783611 
L 579.293745 210.900296 
L 580.014453 216.939419 
L 580.735161 226.893871 
L 581.455869 253.204281 
L 582.897285 223.059925 
L 583.617993 215.897607 
L 584.338701 211.497432 
L 585.059409 208.643986 
L 585.780117 206.846886 
L 586.500825 205.870625 
L 587.221533 205.59802 
L 587.942241 205.981058 
L 588.662949 207.024162 
L 589.383657 208.785635 
L 590.104365 211.398453 
L 590.825073 215.128637 
L 591.545781 220.541137 
L 592.266489 229.106941 
L 592.987197 247.41246 
L 593.707905 250.479902 
L 594.428613 230.936406 
L 595.149321 222.608819 
L 595.870029 217.644227 
L 596.590737 214.431107 
L 597.311445 212.365872 
L 598.032153 211.167249 
L 598.752861 210.694613 
L 599.473569 210.884846 
L 600.194277 211.729557 
L 600.914985 213.272297 
L 601.635693 215.623605 
L 602.356401 219.006449 
L 603.077109 223.881502 
L 603.797817 231.367787 
L 604.518525 245.54368 
L 605.239233 269.175551 
L 605.959941 238.929272 
L 606.680649 229.093953 
L 607.401357 223.477935 
L 608.122065 219.873263 
L 608.842773 217.527004 
L 609.563481 216.101668 
L 610.284189 215.429423 
L 611.004897 215.430661 
L 611.725605 216.084005 
L 612.446313 217.419176 
L 613.167021 219.527006 
L 613.887729 222.594731 
L 614.608437 227.001795 
L 615.329146 233.619811 
L 616.049854 245.195161 
L 616.770562 299.056498 
L 617.49127 247.360818 
L 618.211978 235.465998 
L 618.932686 229.080563 
L 619.653394 225.043118 
L 620.374102 222.398789 
L 621.09481 220.739948 
L 621.815518 219.866731 
L 622.536226 219.681218 
L 623.256934 220.148618 
L 623.977642 221.285428 
L 624.69835 223.164911 
L 625.419058 225.944219 
L 626.139766 229.93837 
L 626.860474 235.839204 
L 627.581182 245.600088 
L 628.30189 271.084672 
L 629.743306 241.845568 
L 630.464014 234.526942 
L 631.184722 230.00353 
L 631.90543 227.039284 
L 632.626138 225.137573 
L 633.346846 224.060275 
L 634.067554 223.688825 
L 634.788262 223.97429 
L 635.50897 224.920279 
L 636.229678 226.584133 
L 636.950386 229.09732 
L 637.671094 232.722907 
L 638.391802 238.018487 
L 639.11251 246.428947 
L 639.833218 264.324532 
L 640.553926 268.421946 
L 641.274634 248.375843 
L 641.995342 239.888842 
L 642.71605 234.810392 
L 643.436758 231.498662 
L 644.157466 229.341914 
L 644.878174 228.05569 
L 645.598882 227.497777 
L 646.31959 227.604063 
L 647.040298 228.365344 
L 647.761006 229.824276 
L 648.481714 232.090084 
L 649.202422 235.3833 
L 649.92313 240.158917 
L 650.643838 247.517909 
L 651.364546 261.430973 
L 652.085254 286.726845 
L 652.805962 255.249447 
L 653.52667 245.239723 
L 654.247378 239.51535 
L 654.968086 235.821515 
L 655.688794 233.394413 
L 656.409502 231.892614 
L 657.13021 231.146432 
L 657.850918 231.075164 
L 658.571626 231.656609 
L 659.292334 232.919635 
L 660.013042 234.953917 
L 660.73375 237.944652 
L 661.454458 242.266815 
L 662.175166 248.779078 
L 662.895874 260.166199 
L 663.616582 309.229257 
L 664.33729 262.765008 
L 665.057998 250.660734 
L 665.778706 244.168373 
L 666.499414 240.04886 
L 667.220122 237.332416 
L 667.94083 235.606461 
L 668.661538 234.668934 
L 669.382246 234.420694 
L 670.102954 234.826088 
L 670.823662 235.900793 
L 671.54437 237.71703 
L 672.265078 240.430227 
L 672.985786 244.351819 
L 673.706494 250.164095 
L 674.427202 259.781982 
L 675.14791 284.534681 
L 675.868618 271.471908 
L 676.589326 256.249357 
L 677.310034 248.820413 
L 678.030742 244.219929 
L 678.75145 241.190761 
L 679.472158 239.229934 
L 680.192866 238.096688 
L 680.913574 237.671071 
L 681.634282 237.903233 
L 682.35499 238.79598 
L 683.075698 240.405698 
L 683.796406 242.862373 
L 684.517114 246.42616 
L 685.237822 251.647424 
L 685.95853 259.945583 
L 686.679238 277.485155 
L 687.399946 282.661709 
L 688.120654 262.133743 
L 688.841362 253.526442 
L 689.56207 248.373913 
L 690.282778 245.003234 
L 691.003486 242.794386 
L 691.724194 241.45969 
L 692.444902 240.855335 
L 693.16561 240.916217 
L 693.886318 241.632325 
L 694.607026 243.045431 
L 695.327734 245.263463 
L 696.048442 248.504554 
L 696.76915 253.218105 
L 697.489858 260.487441 
L 698.210566 274.179615 
L 698.931274 301.290247 
L 699.651982 268.499821 
L 700.37269 258.349374 
L 701.093398 252.55179 
L 701.814106 248.804013 
L 702.534814 246.331162 
L 703.255522 244.78782 
L 703.97623 244.002432 
L 704.696938 243.893204 
L 705.417646 244.437107 
L 706.138354 245.662173 
L 706.859062 247.656928 
L 707.579771 250.604561 
L 708.300479 254.875644 
L 709.021187 261.316172 
L 709.741895 272.551201 
L 710.462603 317.966764 
L 711.183311 275.650418 
L 711.904019 263.365713 
L 712.624727 256.798477 
L 713.345435 252.629251 
L 714.066143 249.873045 
L 714.786851 248.112259 
L 715.507559 247.142613 
L 716.228267 246.863745 
L 716.948975 247.239138 
L 717.669683 248.283662 
L 718.390391 250.068507 
L 719.111099 252.747394 
L 719.831807 256.628235 
L 720.552515 262.383941 
L 721.273223 271.892041 
L 721.993931 295.985272 
L 722.714639 284.160012 
L 723.435347 268.674497 
L 724.156055 261.165586 
L 724.876763 256.518998 
L 725.597471 253.456004 
L 726.318179 251.467192 
L 727.038887 250.309135 
L 727.759595 249.860489 
L 728.480303 250.07049 
L 729.201011 250.941147 
L 729.921719 252.527904 
L 730.642427 254.959279 
L 731.363135 258.492562 
L 732.083843 263.671013 
L 732.804551 271.889198 
L 733.525259 289.115646 
L 734.245967 295.41307 
L 734.966675 274.412873 
L 735.687383 265.715265 
L 736.408091 260.519743 
L 737.128799 257.121493 
L 737.849507 254.892073 
L 738.570215 253.540548 
L 739.290923 252.921503 
L 740.011631 252.968842 
L 740.732339 253.671756 
L 741.453047 255.07114 
L 742.173755 257.273646 
L 742.894463 260.495039 
L 743.615171 265.179227 
L 744.335879 272.392269 
L 745.056587 285.901415 
L 745.777295 314.997497 
L 746.498003 280.786079 
L 747.218711 270.52591 
L 747.939419 264.688057 
L 748.660127 260.919782 
L 749.380835 258.434925 
L 750.101543 256.884034 
L 750.822251 256.093678 
L 751.542959 255.980969 
L 752.263667 256.522064 
L 752.984375 257.744166 
L 753.705083 259.734675 
L 754.425791 262.6748 
L 755.146499 266.930786 
L 755.867207 273.336207 
L 756.587915 284.458273 
L 757.308623 326.96866 
L 758.029331 288.133027 
L 758.750039 275.701278 
L 759.470747 269.096212 
L 760.191455 264.91513 
L 760.912163 262.157523 
L 761.632871 260.400705 
L 762.353579 259.438171 
L 763.074287 259.16834 
L 763.794995 259.553846 
L 764.515703 260.608765 
L 765.236411 262.403278 
L 765.957119 265.089435 
L 766.677827 268.971682 
L 767.398535 274.713743 
L 768.119243 284.156763 
L 768.839951 307.67111 
L 769.560659 297.097936 
L 770.281367 281.385936 
L 771.002075 273.841465 
L 771.722783 269.194478 
L 772.443491 266.144181 
L 773.164199 264.174639 
L 773.884907 263.039751 
L 774.605615 262.616793 
L 775.326323 262.854104 
L 776.047031 263.752922 
L 776.767739 265.36778 
L 777.488447 267.825772 
L 778.209155 271.381379 
L 778.929863 276.570908 
L 779.650571 284.764687 
L 780.371279 301.744398 
L 781.091987 309.232119 
L 781.812695 287.793564 
L 782.533403 279.062653 
L 783.254111 273.883287 
L 783.974819 270.517957 
L 784.695527 268.329686 
L 785.416235 267.024284 
L 786.136943 266.454759 
L 786.857651 266.554062 
L 787.578359 267.31063 
L 788.299067 268.764536 
L 789.019775 271.021213 
L 789.740483 274.294143 
L 790.461191 279.021875 
L 791.181899 286.253628 
L 791.902607 299.660555 
L 792.623315 330.988181 
L 793.344023 295.263799 
L 794.064731 284.97286 
L 794.785439 279.177436 
L 795.506147 275.473681 
L 796.226855 273.064017 
L 796.947563 271.594984 
L 797.668271 270.891342 
L 798.388979 270.869199 
L 799.109687 271.503989 
L 799.830396 272.822195 
L 800.551104 274.910202 
L 801.271812 277.947381 
L 801.99252 282.295826 
L 802.713228 288.777062 
L 803.433936 299.902354 
L 804.154644 340.110285 
L 804.875352 304.391459 
L 805.59606 291.932412 
L 806.316768 285.416495 
L 807.037476 281.354948 
L 807.758184 278.731606 
L 808.478892 277.118828 
L 809.1996 276.30807 
L 809.920308 276.196757 
L 810.641016 276.746916 
L 811.361724 277.972094 
L 812.082432 279.941752 
L 812.80314 282.806586 
L 813.523848 286.867952 
L 814.244556 292.780893 
L 814.965264 302.35151 
L 815.685972 325.518926 
L 816.40668 316.37844 
L 817.127388 300.645681 
L 817.848096 293.287894 
L 818.568804 288.872766 
L 819.289512 286.077518 
L 820.01022 284.380245 
L 820.730928 283.532852 
L 821.451636 283.41201 
L 822.172344 283.966019 
L 822.893052 285.196292 
L 823.61376 287.157502 
L 824.334468 289.976483 
L 825.055176 293.906232 
L 825.775884 299.477639 
L 826.496592 308.038963 
L 827.2173 325.195357 
L 827.938008 334.326455 
L 828.658716 312.887745 
L 829.379424 304.614919 
L 830.100132 299.976247 
L 830.82084 297.204067 
L 831.541548 295.656667 
L 832.262256 295.041155 
L 832.982964 295.214352 
L 833.703672 296.114655 
L 834.42438 297.737409 
L 835.145088 300.131136 
L 835.865796 303.411421 
L 836.586504 307.803593 
L 837.307212 313.758761 
L 838.02792 322.332631 
L 838.748628 337.134013 
L 839.469336 372.605455 
L 840.190044 337.125962 
L 840.910752 329.12471 
L 841.63146 326.177601 
L 842.352168 326.047768 
L 843.072876 328.337935 
L 843.793584 333.615627 
L 844.514292 344.655972 
L 844.514292 344.655972 
" style="fill:none;stroke:#0072bd;stroke-linecap:square;stroke-width:1.4;"/>
   </g>
   <g id="patch_8">
    <path d="M 476.2325 388.6 
L 476.2325 36.72 
" style="fill:none;stroke:#000000;stroke-linecap:square;stroke-linejoin:miter;stroke-width:0.8;"/>
   </g>
   <g id="patch_9">
    <path d="M 845.235 388.6 
L 845.235 36.72 
" style="fill:none;stroke:#000000;stroke-linecap:square;stroke-linejoin:miter;stroke-width:0.8;"/>
   </g>
   <g id="patch_10">
    <path d="M 476.2325 388.6 
L 845.235 388.6 
" style="fill:none;stroke:#000000;stroke-linecap:square;stroke-linejoin:miter;stroke-width:0.8;"/>
   </g>
   <g id="patch_11">
    <path d="M 476.2325 36.72 
L 845.235 36.72 
" style="fill:none;stroke:#000000;stroke-linecap:square;stroke-linejoin:miter;stroke-width:0.8;"/>
   </g>
  </g>
  <g id="text_32">
   <!-- Blackman window -->
   <defs>
    <path d="M 9.078125 75.984375 
L 18.109375 75.984375 
L 18.109375 31.109375 
L 44.921875 54.6875 
L 56.390625 54.6875 
L 27.390625 29.109375 
L 57.625 0 
L 45.90625 0 
L 18.109375 26.703125 
L 18.109375 0 
L 9.078125 0 
z
" id="DejaVuSans-107"/>
    <path d="M 4.203125 54.6875 
L 13.1875 54.6875 
L 24.421875 12.015625 
L 35.59375 54.6875 
L 46.1875 54.6875 
L 57.421875 12.015625 
L 68.609375 54.6875 
L 77.59375 54.6875 
L 63.28125 0 
L 52.6875 0 
L 40.921875 44.828125 
L 29.109375 0 
L 18.5 0 
z
" id="DejaVuSans-119"/>
   </defs>
   <g transform="translate(359.69625 20.7975)scale(0.16 -0.16)">
    <use xlink:href="#DejaVuSans-66"/>
    <use x="68.603516" xlink:href="#DejaVuSans-108"/>
    <use x="96.386719" xlink:href="#DejaVuSans-97"/>
    <use x="157.666016" xlink:href="#DejaVuSans-99"/>
    <use x="212.646484" xlink:href="#DejaVuSans-107"/>
    <use x="270.556641" xlink:href="#DejaVuSans-109"/>
    <use x="367.96875" xlink:href="#DejaVuSans-97"/>
    <use x="429.248047" xlink:href="#DejaVuSans-110"/>
    <use x="492.626953" xlink:href="#DejaVuSans-32"/>
    <use x="524.414062" xlink:href="#DejaVuSans-119"/>
    <use x="606.201172" xlink:href="#DejaVuSans-105"/>
    <use x="633.984375" xlink:href="#DejaVuSans-110"/>
    <use x="697.363281" xlink:href="#DejaVuSans-100"/>
    <use x="760.839844" xlink:href="#DejaVuSans-111"/>
    <use x="822.021484" xlink:href="#DejaVuSans-119"/>
   </g>
  </g>
 </g>
 <defs>
  <clipPath id="p88c468b5a2">
   <rect height="351.88" width="369.0025" x="47.855" y="36.72"/>
  </clipPath>
  <clipPath id="pc90e977743">
   <rect height="351.88" width="369.0025" x="476.2325" y="36.72"/>
  </clipPath>
 </defs>
</svg>
